<svg xmlns="http://www.w3.org/2000/svg" xmlns:xlink="http://www.w3.org/1999/xlink" width="111.591" height="128.278" viewBox="0 0 111.591 128.278">
  <defs>
    <radialGradient id="radial-gradient" cx="0.741" cy="0.725" r="0.661" gradientTransform="translate(-0.073) scale(1.146 1)" gradientUnits="objectBoundingBox">
      <stop offset="0" stop-color="#ff4696"/>
      <stop offset="1" stop-color="#ff86ba"/>
    </radialGradient>
  </defs>
  <g id="Group_2422" data-name="Group 2422" transform="translate(-13.111 -250.552)">
    <path id="Path_11153" data-name="Path 11153" d="M36.788,370.1a49.237,49.237,0,0,0,4.387-7.761,63.084,63.084,0,0,0,5.5-19.724,6.185,6.185,0,0,0-.772-.6,10.93,10.93,0,0,0-5.9-1.322,35.287,35.287,0,0,0-8.813,1.333l-2.492.753,1-2.4c.04-.1,4.006-9.735,1.5-14.63s-12.641-7.321-12.743-7.345l-2.535-.594L18,316.237c.083-.063,8.337-6.427,8.616-11.919.232-4.567-5.236-10.739-7.363-12.732l-1.9-1.782,2.585-.332c.1-.013,10.434-1.4,13.421-6.014,2.484-3.839.835-11.918-.011-14.707l-.758-2.5L35,267.262a31.731,31.731,0,0,0,10.391,2.252,10.535,10.535,0,0,0,4.294-.779c5.128-2.3,7.259-12.575,7.28-12.678l.531-2.628,1.643,2.118c1.807,2.327,7.472,8.412,11.922,8.624.064,0,.129,0,.195,0h0c3.99,0,10.438-5.352,12.585-7.413l1.758-1.688.311,2.417c.013.1,1.4,10.434,6.014,13.422a10.929,10.929,0,0,0,5.895,1.322,35.3,35.3,0,0,0,8.813-1.333l2.492-.753-1,2.4c-.04.1-4.006,9.735-1.5,14.631s12.641,7.321,12.743,7.345l2.535.594-2.07,1.578c-.083.064-8.337,6.428-8.616,11.919-.232,4.567,5.236,10.739,7.363,12.732l1.9,1.782-2.585.332c-.1.013-10.434,1.4-13.421,6.014-2.484,3.839-.835,11.918.011,14.707l.756,2.494-2.4-1.005a32.581,32.581,0,0,0-10.493-2.319,9.128,9.128,0,0,0-4.137.817c-4.9,2.5-7.321,12.641-7.344,12.743l-.594,2.534-1.578-2.07c-.063-.083-6.428-8.337-11.919-8.616-.094,0-.191-.007-.288-.007a6.516,6.516,0,0,0-.729.043A94.143,94.143,0,0,1,48.28,365.273a110.313,110.313,0,0,1-9.894,6.627l-5.11,2.932Z" fill="url(#radial-gradient)"/>
    <path id="Path_11154" data-name="Path 11154" d="M58.168,256.3S65,265.111,71,265.4c.084,0,.169.006.255.006,5.358,0,13.436-7.756,13.436-7.756s1.408,10.958,6.565,14.3a12.263,12.263,0,0,0,6.562,1.519,36.26,36.26,0,0,0,9.168-1.385s-4.26,10.194-1.462,15.663,13.556,7.981,13.556,7.981-8.786,6.7-9.1,12.833,7.75,13.69,7.75,13.69-10.958,1.408-14.3,6.565-.134,15.731-.134,15.731a33.616,33.616,0,0,0-10.966-2.414,10.372,10.372,0,0,0-4.7.952c-5.47,2.8-7.981,13.556-7.981,13.556s-6.7-8.786-12.833-9.1q-.174-.009-.35-.009a8.1,8.1,0,0,0-1.4.127c-10.347,13.448-27.3,23.18-27.3,23.18a62,62,0,0,0,10.181-28.686,7.875,7.875,0,0,0-1.386-1.158,12.264,12.264,0,0,0-6.562-1.519,36.26,36.26,0,0,0-9.168,1.385s4.26-10.194,1.462-15.663-13.556-7.981-13.556-7.981,8.786-6.7,9.1-12.833-7.75-13.69-7.75-13.69,10.958-1.408,14.3-6.565.134-15.731.134-15.731a32.764,32.764,0,0,0,10.867,2.349,11.781,11.781,0,0,0,4.8-.887c5.776-2.59,7.981-13.556,7.981-13.556m-1.349-5.747-1.058,5.261h0a32.808,32.808,0,0,1-1.716,5.424c-1.4,3.332-3.122,5.6-4.863,6.378a9.34,9.34,0,0,1-3.792.672,30.456,30.456,0,0,1-9.918-2.158l-4.808-2.008,1.509,4.986a35.964,35.964,0,0,1,1.1,5.577c.416,3.639.079,6.518-.95,8.107-2.219,3.429-10,5.136-12.547,5.464l-5.17.664,3.8,3.564a35.956,35.956,0,0,1,3.745,4.278c2.18,2.943,3.327,5.605,3.231,7.5-.207,4.08-6.09,9.447-8.134,11.005l-4.145,3.16,5.076,1.185a35.98,35.98,0,0,1,5.382,1.832c3.359,1.459,5.684,3.191,6.546,4.876,1.86,3.637-.551,11.226-1.542,13.6l-2.01,4.809,4.988-1.512a34.02,34.02,0,0,1,8.456-1.28,9.93,9.93,0,0,1,5.228,1.125q.073.047.145.1a59.691,59.691,0,0,1-9.578,26.22l-7.025,9.459L39,372.965a111.68,111.68,0,0,0,10.015-6.706,93.271,93.271,0,0,0,17.361-16.274h.1c.076,0,.152,0,.225.006,1.89.1,4.422,1.508,7.129,3.975a35.973,35.973,0,0,1,3.877,4.161l3.16,4.13,1.184-5.063a35.961,35.961,0,0,1,1.832-5.382c1.459-3.359,3.191-5.684,4.876-6.546a7.948,7.948,0,0,1,3.578-.682,31.084,31.084,0,0,1,10.02,2.224l4.809,2.01-1.512-4.988a35.967,35.967,0,0,1-1.1-5.577c-.416-3.639-.079-6.518.95-8.107,2.219-3.429,10-5.136,12.547-5.464l5.17-.664-3.8-3.564a35.962,35.962,0,0,1-3.745-4.278c-2.18-2.943-3.327-5.605-3.231-7.5s1.508-4.422,3.975-7.129a35.955,35.955,0,0,1,4.161-3.877l4.13-3.16-5.062-1.184a35.948,35.948,0,0,1-5.382-1.832c-3.359-1.459-5.684-3.191-6.546-4.876-1.86-3.637.551-11.226,1.542-13.6l2.01-4.809-4.988,1.512a34.016,34.016,0,0,1-8.456,1.28,9.93,9.93,0,0,1-5.228-1.125c-1.589-1.028-3.076-3.517-4.187-7.007a35.952,35.952,0,0,1-1.277-5.542L86.5,252.51l-3.509,3.366a46.713,46.713,0,0,1-4.491,3.691c-4.092,2.941-6.295,3.38-7.244,3.38-.048,0-.092,0-.137,0-3.975-.19-9.417-6.1-11.01-8.15l-3.29-4.242Z" fill="#fff"/>
  </g>
</svg>
