<svg xmlns="http://www.w3.org/2000/svg" width="104.814" height="76.089" viewBox="0 0 104.814 76.089">
  <g id="Group_2389" data-name="Group 2389" transform="translate(-924.077 -685.705)">
    <path id="Path_11085" data-name="Path 11085" d="M930.25,710.553c1.6.631,3.588.511,4.48-.252a1.45,1.45,0,0,0,.423-1.583.939.939,0,0,0-.753-.823c-1-.242-3.011.392-4.547,2.179A.934.934,0,0,0,930.25,710.553Z" fill="#1f1f1f"/>
    <path id="Path_11086" data-name="Path 11086" d="M1019.037,707.843a2.033,2.033,0,0,0-.47.052.94.94,0,0,0-.753.821,1.448,1.448,0,0,0,.426,1.585c.891.763,2.879.883,4.479.252a.924.924,0,0,0,.4-.479,5.932,5.932,0,0,0-4.077-2.231Z" fill="#1f1f1f"/>
    <path id="Path_11087" data-name="Path 11087" d="M1025.477,701.722a5.558,5.558,0,0,0-.29,5l1.559-5.757a1.7,1.7,0,0,0-1.269.761Z" fill="#1f1f1f"/>
    <path id="Path_11088" data-name="Path 11088" d="M1028.362,698.67a2.727,2.727,0,0,0-.291.021c-.069.007-.129.014-.18.016l-.063.005-.063-.016a4.032,4.032,0,0,0-4.186,1.608,7.046,7.046,0,0,0-1.088,5.349l.136.882-.807-.38a5.931,5.931,0,0,0-3.813-.56,3.318,3.318,0,0,0-2.5,2.6,3.808,3.808,0,0,0,1.2,3.9c1.486,1.273,4.122,1.591,6.5.783l.918-.311-.316.915c-.97,2.81-9.543,27.5-11.949,29.223l-.251.179-.265-.157c-.114-.068-11.507-6.713-29.376-8.874l-.308-.037-.09-.3c-2.2-7.415-3.264-19.273-4.039-27.93-.149-1.675-.288-3.227-.423-4.6l-.092-.948.811.5a7.983,7.983,0,0,0,4.081,1.229,4.29,4.29,0,0,0,2.4-.533,3.906,3.906,0,0,0,1.882-3.295,4.134,4.134,0,0,0-1.742-3.394,5,5,0,0,0-3.79-.26l-.869.192.326-.829a7.041,7.041,0,0,0,.112-5.458,4.04,4.04,0,0,0-7.463,0,7.063,7.063,0,0,0,.113,5.458l.327.829-.87-.192a5.894,5.894,0,0,0-3.842.291,3.32,3.32,0,0,0-1.871,3.088,3.8,3.8,0,0,0,2.025,3.546c1.709.905,4.349.655,6.515-.672l.811-.5-.092.948c-.136,1.373-.274,2.924-.423,4.6-.774,8.657-1.836,20.515-4.04,27.93l-.088.3-.309.037c-17.884,2.162-29.263,8.806-29.375,8.874l-.267.157-.251-.179c-2.405-1.719-10.977-26.414-11.946-29.223l-.316-.915.916.311c2.379.809,5.013.491,6.5-.783a3.808,3.808,0,0,0,1.2-3.9,3.32,3.32,0,0,0-2.5-2.6,5.932,5.932,0,0,0-3.813.56l-.807.38.137-.882a7.056,7.056,0,0,0-1.089-5.349,4.036,4.036,0,0,0-4.187-1.608l-.063.016-.062-.005c-.05,0-.111-.008-.179-.016a2.713,2.713,0,0,0-.291-.021c-.255,0-.341.07-.394.139-.112.152-.32.69.2,2.424.167.559.521,1.682,1.011,3.228,2.635,8.324,9.636,30.44,11.066,41.161l.029.21-.139.16a2.938,2.938,0,0,0-.691,2.976c.233.506.6.58,1,.177,8.584-8.583,26.517-13.073,39.8-13.073s31.211,4.49,39.793,13.073a.781.781,0,0,0,.5.274h0c.186,0,.373-.168.5-.45a2.942,2.942,0,0,0-.692-2.978l-.138-.16.029-.21c1.43-10.721,8.43-32.837,11.064-41.161.49-1.546.846-2.669,1.011-3.226.514-1.736.309-2.274.2-2.425C1028.7,698.74,1028.614,698.67,1028.362,698.67ZM933.932,706.9a2.893,2.893,0,0,1,.693.08,1.875,1.875,0,0,1,1.454,1.533,2.388,2.388,0,0,1-.733,2.513,4.451,4.451,0,0,1-2.894.9,7.009,7.009,0,0,1-2.55-.49,1.81,1.81,0,0,1-.969-1.138.84.84,0,0,1,.142-.768,6.833,6.833,0,0,1,4.857-2.631Zm-6.383,2.6-2.517-9.307.482-.11a2.577,2.577,0,0,1,2.736,1.073c.945,1.266,1.5,3.87-.067,7.045Zm54.7-13.973a3.656,3.656,0,0,1,1.609.328,1.878,1.878,0,0,1,1.081,1.816,2.389,2.389,0,0,1-1.269,2.291,3.775,3.775,0,0,1-1.754.391,6.682,6.682,0,0,1-3.646-1.185,1.816,1.816,0,0,1-.7-1.326.839.839,0,0,1,.308-.716,7.457,7.457,0,0,1,4.366-1.6Zm-7.548,3.64a6.684,6.684,0,0,1-3.646,1.185,3.775,3.775,0,0,1-1.754-.391,2.388,2.388,0,0,1-1.269-2.291,1.877,1.877,0,0,1,1.082-1.816,3.651,3.651,0,0,1,1.608-.328,7.462,7.462,0,0,1,4.367,1.6.838.838,0,0,1,.307.716,1.816,1.816,0,0,1-.695,1.326Zm1.028-3.452c-2.285-2.782-2.33-5.475-1.677-6.94a2.621,2.621,0,0,1,4.867,0c.643,1.443.608,4.105-1.615,6.859,0,.006-.47.565-.818.565-.331,0-.753-.48-.757-.484Zm48.308,14.581a1.815,1.815,0,0,1-.97,1.138,7,7,0,0,1-2.549.49,4.447,4.447,0,0,1-2.893-.9,2.384,2.384,0,0,1-.734-2.513,1.875,1.875,0,0,1,1.452-1.533,2.921,2.921,0,0,1,.7-.08,6.832,6.832,0,0,1,4.856,2.631.842.842,0,0,1,.143.768Zm1.383-.8-.636-1.3c-1.559-3.174-1.01-5.779-.065-7.044a2.572,2.572,0,0,1,2.735-1.073l.483.11Z" fill="#1f1f1f"/>
    <path id="Path_11089" data-name="Path 11089" d="M978.053,689.161a1.674,1.674,0,0,0-3.136,0c-.586,1.312-.337,3.66,1.544,5.949a.08.08,0,0,0,.018.019,1.067,1.067,0,0,0,.088-.091C978.395,692.772,978.631,690.454,978.053,689.161Z" fill="#1f1f1f"/>
    <path id="Path_11090" data-name="Path 11090" d="M983.226,699.12a1.449,1.449,0,0,0,.765-1.452.935.935,0,0,0-.555-.965,2.71,2.71,0,0,0-1.187-.229,6.46,6.46,0,0,0-3.727,1.355.934.934,0,0,0,.281.554C980.214,699.344,982.191,699.669,983.226,699.12Z" fill="#1f1f1f"/>
    <path id="Path_11091" data-name="Path 11091" d="M976.486,747.325a3.726,3.726,0,1,0-3.726-3.726,3.726,3.726,0,0,0,3.726,3.726Zm0-6.412A2.687,2.687,0,1,1,973.8,743.6a2.687,2.687,0,0,1,2.687-2.687Z" fill="#1f1f1f"/>
    <path id="Path_11092" data-name="Path 11092" d="M942.9,752.7a2.717,2.717,0,1,0-2.717-2.717A2.717,2.717,0,0,0,942.9,752.7Zm0-4.6a1.881,1.881,0,1,1-1.88,1.882,1.881,1.881,0,0,1,1.88-1.882Z" fill="#1f1f1f"/>
    <path id="Path_11093" data-name="Path 11093" d="M969.533,696.7a.935.935,0,0,0-.555.966,1.45,1.45,0,0,0,.764,1.452c1.036.549,3.011.224,4.424-.738a.925.925,0,0,0,.282-.553,6.465,6.465,0,0,0-3.728-1.355,2.716,2.716,0,0,0-1.187.229Z" fill="#1f1f1f"/>
    <path id="Path_11094" data-name="Path 11094" d="M926.222,700.961l1.558,5.757a5.56,5.56,0,0,0-.288-5,1.7,1.7,0,0,0-1.271-.761Z" fill="#1f1f1f"/>
    <path id="Path_11095" data-name="Path 11095" d="M976.486,749.436c-25.2,0-36.193,7.92-37.169,9.378a2.767,2.767,0,0,0-.362,2.637.549.549,0,0,0,.435.343,1.037,1.037,0,0,0,.653-.382c6.024-6.237,18.284-9.4,36.443-9.4s30.416,3.161,36.44,9.4a1.039,1.039,0,0,0,.654.382.549.549,0,0,0,.434-.343,2.759,2.759,0,0,0-.362-2.637C1012.677,757.356,1001.681,749.436,976.486,749.436Z" fill="#1f1f1f"/>
    <path id="Path_11096" data-name="Path 11096" d="M976.486,748.487c21.662,0,34.05,6.1,37.284,9.062a60.469,60.469,0,0,1,1.7-7.872q-.812-.8-1.729-1.544a3.625,3.625,0,0,1,.519,1.852,3.664,3.664,0,1,1-3.665-3.667,3.721,3.721,0,0,1,.823.1c-9.225-6.184-23.74-9.4-34.927-9.4-12.984,0-30.448,4.328-38.925,12.6a60.746,60.746,0,0,1,1.7,7.867C942.6,754.508,954.968,748.487,976.486,748.487Zm0-9.56a4.673,4.673,0,1,1-4.673,4.673,4.672,4.672,0,0,1,4.673-4.673ZM942.9,746.318a3.666,3.666,0,1,1-3.665,3.666,3.666,3.666,0,0,1,3.665-3.666Z" fill="#1f1f1f"/>
    <path id="Path_11097" data-name="Path 11097" d="M1010.59,747.268a2.717,2.717,0,1,0,2.717,2.717A2.718,2.718,0,0,0,1010.59,747.268Zm0,4.6a1.881,1.881,0,1,1,1.881-1.88,1.881,1.881,0,0,1-1.881,1.88Z" fill="#1f1f1f"/>
  </g>
</svg>
