<svg xmlns="http://www.w3.org/2000/svg" width="251.195" height="151.126" viewBox="0 0 251.195 151.126">
  <g id="Group_2224" data-name="Group 2224" transform="translate(-293.527 -862.305)">
    <path id="Path_10268" data-name="Path 10268" d="M512.869,893.832,544.722,862.3l-43.229,11.825a13.833,13.833,0,0,1,10.328,5.4L490.237,892l-11.875,2.956-8.5,8.805-31.791,18.355-3.3-.883-.793,2.959-15.557,5.367-47.516,31.333-28.923,16.7-4.5-1.206-1.206,4.5-1.671.965a64.166,64.166,0,0,1-15.732.141c-5.083,2.295-17.627,8.827-25.351,13.152,5.761-.354,15.288.175,18.532,1.495-.48,3.469-4.785,11.984-7.972,16.8,7.607-4.527,19.536-12.124,24.065-15.379a64.159,64.159,0,0,1,7.988-13.554l1.671-.965,4.5,1.206,1.206-4.5,28.923-16.7,50.893-25.484,12.427-10.79,2.959.793.883-3.3L471.4,906.408l11.875-2.956,8.5-8.806,21.584-12.461a13.839,13.839,0,0,1-.483,11.647Z" fill="#1f1f1f"/>
    <path id="Path_10269" data-name="Path 10269" d="M325.381,893.832,293.528,862.3l43.229,11.825a13.834,13.834,0,0,0-10.328,5.4L348.013,892l11.875,2.956,8.5,8.805,31.791,18.355,3.3-.883.793,2.959,15.557,5.367,47.516,31.333,28.923,16.7,4.5-1.206,1.206,4.5,1.671.965a64.166,64.166,0,0,0,15.732.141c5.083,2.295,17.627,8.827,25.351,13.152-5.761-.354-15.288.175-18.532,1.495.48,3.469,4.785,11.984,7.972,16.8-7.607-4.527-19.536-12.124-24.065-15.379a64.163,64.163,0,0,0-7.988-13.554l-1.671-.965-4.5,1.206-1.206-4.5-28.923-16.7-50.893-25.484-12.427-10.79-2.959.793-.883-3.3-31.791-18.355-11.875-2.956-8.5-8.806L324.9,882.185a13.84,13.84,0,0,0,.483,11.647Z" fill="#1f1f1f"/>
  </g>
</svg>
