<svg xmlns="http://www.w3.org/2000/svg" width="61.071" height="43.67" viewBox="0 0 61.071 43.67">
  <g id="Group_409" data-name="Group 409" transform="translate(-122.106 -698.901)">
    <g id="Group_408" data-name="Group 408">
      <path id="Path_1641" data-name="Path 1641" d="M131.3,714.014c-.757.186-10.313,1.205-9.08,9.385,1.163,7.713,9.146,7.177,11.456,6.847C134.388,730.144,132.124,713.81,131.3,714.014Z" fill="#b2b2b2"/>
      <path id="Path_1642" data-name="Path 1642" d="M134.7,713.267c3.038-1.672,31.757-13.831,33.007-14.254,3.19-1.08,9.048,28.7,6.187,30.536-.781.5-34.053.761-36.708.2C136.168,729.531,133.676,713.828,134.7,713.267Z" fill="#e5e5e5"/>
      <path id="Path_1643" data-name="Path 1643" d="M168.26,698.929c-1.028.706,2.587,29.51,5.416,30.652S169.892,697.807,168.26,698.929Z" fill="#b2b2b2"/>
      <path id="Path_1644" data-name="Path 1644" d="M133.409,729.48s2.539,13.209,2.964,13.09,5.357-.784,5.388-1.607-3.742-12.085-4.236-12.159S134.5,729.613,133.409,729.48Z" fill="#e5e5e5"/>
      <path id="Path_1645" data-name="Path 1645" d="M131.169,715.638c-.247-1.222-.377-2.5,1.781-2.975s4.4-1.294,4.692.669,3.206,16.036,2.114,16.624-5.619,1.338-6.371.467S131.347,716.517,131.169,715.638Z" fill="#a84749"/>
    </g>
    <path id="Path_1646" data-name="Path 1646" d="M177.334,721.566c1.953.337,4.937,1.131,5.071.813s.065-.448-1.615-.721-3.515-.9-3.725-.59S177.334,721.566,177.334,721.566Z" fill="#a84749"/>
    <path id="Path_1647" data-name="Path 1647" d="M174.029,704.872c1.471-1.135,3.548-3.109,3.857-2.894s.328.356-.948,1.318-2.471,2.292-2.837,2.119S174.029,704.872,174.029,704.872Z" fill="#a84749"/>
    <path id="Path_1648" data-name="Path 1648" d="M177.988,711.643c1.99-.369,5.06-1.214,5.161-.9s.018.447-1.692.748-3.613.955-3.79.652S177.988,711.643,177.988,711.643Z" fill="#a84749"/>
  </g>
</svg>
