<svg xmlns="http://www.w3.org/2000/svg" width="70.644" height="68.825" viewBox="0 0 70.644 68.825">
  <g id="Group_29" data-name="Group 29" transform="translate(-926.812 -313.252)">
    <path id="Path_306" data-name="Path 306" d="M989.9,321.851c.071.165.146.331.215.5a35.991,35.991,0,0,1-19.15,47.161,35.721,35.721,0,0,1-13.943,2.828v9.636c.929.069,1.854.1,2.795.1A37.618,37.618,0,0,0,989.9,321.851Z" fill="#f26b68"/>
    <path id="Path_307" data-name="Path 307" d="M934.366,373.481q-.111-.249-.218-.5a35.971,35.971,0,0,1,33.1-49.989v-9.636c-.933-.068-1.856-.1-2.8-.1a37.618,37.618,0,0,0-30.081,60.229Z" fill="#6178aa"/>
    <path id="Path_308" data-name="Path 308" d="M979.737,317.131c.063.142.124.284.186.427a30.85,30.85,0,0,1-28.371,42.853v8.261c.8.059,1.591.09,2.4.09a32.249,32.249,0,0,0,25.788-51.631Z" fill="#fbaf3c"/>
    <path id="Path_309" data-name="Path 309" d="M943.507,378.869c-.062-.143-.125-.285-.185-.429a30.854,30.854,0,0,1,16.416-40.429,30.645,30.645,0,0,1,11.955-2.424v-8.262c-.8-.058-1.59-.088-2.4-.088a32.249,32.249,0,0,0-25.789,51.631Z" fill="#38bdb0"/>
  </g>
</svg>
