<svg xmlns="http://www.w3.org/2000/svg" width="426.752" height="109.434" viewBox="0 0 426.752 109.434">
  <g id="Group_2184" data-name="Group 2184" transform="translate(-774.826 -1632.495)">
    <path id="Path_9722" data-name="Path 9722" d="M811.021,1650.466c.01-.039.023-.077.036-.115a1.83,1.83,0,0,1,.146-.333c.016-.029.029-.059.047-.087a1.858,1.858,0,0,1,.283-.346c.022-.021.047-.037.069-.057a1.851,1.851,0,0,1,.312-.219c.02-.011.035-.029.056-.039l32.844-16.776H774.826l23.294,20.664a1.858,1.858,0,0,1,0,2.78L774.826,1676.6h36.13v-25.678A1.845,1.845,0,0,1,811.021,1650.466Z" fill="#1f1f1f"/>
    <path id="Path_9723" data-name="Path 9723" d="M850.68,1633.672l-30.139,15.394,30.139-.005Z" fill="#1f1f1f"/>
    <path id="Path_9724" data-name="Path 9724" d="M1131.589,1741.929h69.989l-23.295-20.664a1.858,1.858,0,0,1,0-2.78l23.294-20.664h-36.13V1723.5a1.841,1.841,0,0,1-.064.459c-.01.04-.023.077-.036.115a1.829,1.829,0,0,1-.146.333c-.016.029-.029.059-.047.087a1.857,1.857,0,0,1-.283.346c-.022.021-.047.037-.069.057a1.846,1.846,0,0,1-.312.219c-.02.011-.035.028-.056.039Z" fill="#1f1f1f"/>
    <path id="Path_9725" data-name="Path 9725" d="M968.74,1675.257c.009-.038.023-.073.034-.11a1.85,1.85,0,0,1,.1-.277c.02-.041.042-.08.065-.119a1.838,1.838,0,0,1,.157-.23c.028-.036.056-.072.087-.105a1.869,1.869,0,0,1,.237-.214c.02-.015.035-.036.056-.05l30.49-21.4-185.3.029v44.109H968.69v-21.22a1.86,1.86,0,0,1,.051-.416Z" fill="#1f1f1f"/>
    <path id="Path_9726" data-name="Path 9726" d="M1004,1654.47l-27.565,19.344H1004Z" fill="#1f1f1f"/>
    <path id="Path_9727" data-name="Path 9727" d="M1155.865,1725.356h-30.141v15.4Z" fill="#1f1f1f"/>
    <path id="Path_9728" data-name="Path 9728" d="M972.407,1677.531v44.108h189.324v-44.108Z" fill="#1f1f1f"/>
  </g>
</svg>
