<svg xmlns="http://www.w3.org/2000/svg" width="251.195" height="151.223" viewBox="0 0 251.195 151.223">
  <g id="Group_2226" data-name="Group 2226" transform="translate(-293.527 -1035.808)">
    <path id="Path_10276" data-name="Path 10276" d="M510.593,1070.165c7.8-10.371,22.088-24.158,34.129-34.357-14.852,5.331-33.935,10.81-46.817,12.38,0,0,8.164,2.2,11.592,6.78l-3.336,1.926a3.011,3.011,0,0,0-4.917,2.839L490.394,1066a35.734,35.734,0,0,0-9.352,1.545c.427.739,2.05,1.345,3.087,2.072l-5.22,3.014a5.427,5.427,0,0,0-9.235,5.332l-5.22,3.014c-.111-1.262.176-2.971-.25-3.71a35.737,35.737,0,0,0-6.014,7.327l-71.07,41.032-16.124,5.4-22.836,16.508-10.732,6.2c-3.505-1.4-12.723-3.277-28.219,5.67l-15.682,9.054c4,4.37,12.512,3.477,17.955,2.023-3.98,3.987-9.012,10.914-7.225,16.561l15.682-9.054c15.5-8.947,18.477-17.87,19.02-21.6l10.731-6.2,25.715-11.522,12.734-11.266,71.07-41.032a35.735,35.735,0,0,0,9.352-1.545c-.427-.739-2.05-1.345-3.088-2.072l5.22-3.014a5.427,5.427,0,0,0,9.235-5.332l5.22-3.013c.111,1.262-.176,2.971.25,3.71a35.734,35.734,0,0,0,6.014-7.327l10.85-6.264a3.011,3.011,0,0,0,4.917-2.839l3.336-1.926C512.772,1062,510.593,1070.165,510.593,1070.165Z" fill="#1f1f1f"/>
    <path id="Path_10277" data-name="Path 10277" d="M327.656,1070.165c-7.8-10.371-22.088-24.158-34.129-34.357,14.852,5.331,33.934,10.81,46.817,12.38,0,0-8.164,2.2-11.592,6.78l3.336,1.926a3.011,3.011,0,0,1,4.917,2.839l10.85,6.265a35.734,35.734,0,0,1,9.352,1.545c-.427.739-2.05,1.345-3.087,2.072l5.22,3.014a5.427,5.427,0,0,1,9.235,5.332l5.22,3.014c.111-1.262-.176-2.971.25-3.71a35.735,35.735,0,0,1,6.014,7.327l71.07,41.032,16.124,5.4,22.836,16.508,10.732,6.2c3.505-1.4,12.722-3.277,28.219,5.67l15.682,9.054c-4,4.37-12.512,3.477-17.955,2.023,3.981,3.987,9.011,10.914,7.225,16.561l-15.682-9.054c-15.5-8.947-18.477-17.87-19.02-21.6l-10.731-6.2-25.715-11.522-12.735-11.266-71.07-41.032a35.736,35.736,0,0,1-9.352-1.545c.427-.739,2.05-1.345,3.088-2.072l-5.22-3.014a5.427,5.427,0,0,1-9.235-5.332l-5.22-3.014c-.111,1.262.176,2.971-.25,3.71a35.739,35.739,0,0,1-6.014-7.327l-10.85-6.264a3.011,3.011,0,0,1-4.917-2.839l-3.336-1.926C325.478,1062,327.656,1070.165,327.656,1070.165Z" fill="#1f1f1f"/>
  </g>
</svg>
