<svg xmlns="http://www.w3.org/2000/svg" width="33.316" height="57.26" viewBox="0 0 33.316 57.26">
  <g id="Group_197" data-name="Group 197" transform="translate(-513.658 -599.467)">
    <path id="Path_898" data-name="Path 898" d="M536.055,600.89c-3.817-1.6-8.176-1-12.2-.042-1.471.349-3.134.917-3.671,2.33a2.5,2.5,0,0,0,1.508,3.136,2.337,2.337,0,0,1,1,.415,1.489,1.489,0,0,1,.327.678c1.137,4.122.345,8.516-.721,12.657s-2.414,8.287-2.378,12.563L532.116,631c1.257-.167,2.664-.422,3.385-1.465a3.9,3.9,0,0,0,.56-1.8c.408-3.6-.707-7.173-1.326-10.744s-.64-7.573,1.591-10.429c.88-1.126,2.157-2.3,1.839-3.69a3.234,3.234,0,0,0-2.109-1.985Z" fill="#bcd6dd"/>
    <g id="Group_196" data-name="Group 196">
      <path id="Path_899" data-name="Path 899" d="M527.065,627.156a24.586,24.586,0,0,1,6.959-.413,3.68,3.68,0,0,1,1.929.56,3.963,3.963,0,0,1,.98,1.271l4.639,8.1a40.193,40.193,0,0,1,2.772,5.468,20.145,20.145,0,0,1,1.331,7.789,3.864,3.864,0,0,1-.253,1.469c-.553,1.243-2.083,1.653-3.418,1.914-7.712,1.511-15.614,3.028-23.378,1.809a5.12,5.12,0,0,1-2.635-.981c-1.453-1.266-1.2-3.555-.782-5.437q1.645-7.471,4-14.761c.472-1.459.874-4.447,2.115-5.5C522.515,627.436,525.541,627.468,527.065,627.156Z" fill="#585973"/>
      <path id="Path_900" data-name="Path 900" d="M546.259,646.343q-1.138-3.493-2.44-6.937a68.815,68.815,0,0,0-3.067-6.971c-.97-1.9-2.334-3.683-2.964-5.7a43.436,43.436,0,0,1-2.256-14.353,9.067,9.067,0,0,1,.617-3.439c.723-1.612,2.42-1.823,3.2-3.3a3.611,3.611,0,0,0-.542-4.108c-2.119-2.264-7.04-2.115-9.866-2.021a28.927,28.927,0,0,0-5.995.69.719.719,0,0,0-.452.019,8.183,8.183,0,0,0-.992.447,5.932,5.932,0,0,0-2.223,1.442c-2.143,2.375-.747,3.781,1.85,4.609a7.29,7.29,0,0,0,1.862.753c.523,5.359-.608,10.362-1.951,15.528q-2.083,8.018-4.172,16.035-1.043,4.009-2.087,8.017c-.468,1.792-1.487,4.071-1,5.973.815,3.169,5.512,3.6,8.15,3.695a75.915,75.915,0,0,0,16.443-1.572c3.038-.566,7.674-.61,8.525-4.279A8.625,8.625,0,0,0,546.259,646.343ZM522.515,604.02c-.668-.729-.9-1.284-.727-1.678l.587-.195c.738-.56,2.56-.638,3.472-.784a25.417,25.417,0,0,1,5.792-.238c1.58.109,4.039.117,5.412,1.018,2.372,1.555.048,3.519-1.521,4.083a10.409,10.409,0,0,1-2.832.292,36.784,36.784,0,0,1-6.343-.207,9.7,9.7,0,0,1-2.165-.329Q522.477,606.044,522.515,604.02Zm13.484,50c-5.321.9-11.852,2.148-17.2.9-5.131-1.2-3.1-5.865-2.212-9.316q1.1-4.3,2.209-8.6c1.406-5.473,2.9-10.932,4.214-16.427,1-4.193,1.608-8.263.861-12.482,0,.013,7.288.831,7.976.941a2.415,2.415,0,0,1,1.011.321,2.482,2.482,0,0,1,.733,2.019q.217,4.555.8,9.083c.318,2.48.327,5.725,1.723,7.876a52.6,52.6,0,0,1,3.755,5.846,84.668,84.668,0,0,1,3.546,8.7c.692,1.962,2.567,5.543,1.953,7.678-.825,2.867-7.109,3.078-9.363,3.46Z" fill="#d3e4ea"/>
      <g id="Group_195" data-name="Group 195">
        <path id="Path_901" data-name="Path 901" d="M527.561,616.556c.632-.038.523-1.078-.07-.959a6.919,6.919,0,0,1-2.243.151c-.218-.026-.375.308-.136.4a6.13,6.13,0,0,0,2.449.412Z" fill="#949494"/>
        <path id="Path_902" data-name="Path 902" d="M527.77,620.763a13.048,13.048,0,0,1-2.547.264c-.372.018-.328.584.042.575a13.007,13.007,0,0,1,2.568.086C528.584,621.82,528.566,620.563,527.77,620.763Z" fill="#949494"/>
        <path id="Path_903" data-name="Path 903" d="M527.386,629.541c.936.322.811-1.174.059-.883a8.988,8.988,0,0,1-2.7.214c-.374.015-.325.573.042.575l1.183.008a4.681,4.681,0,0,1,1.414.086Z" fill="#949494"/>
        <path id="Path_904" data-name="Path 904" d="M528.255,636.839a.579.579,0,0,0,.07-1.14,7.144,7.144,0,0,0-1.778,0,10.325,10.325,0,0,0-1.693.163c-.328.07-.218.519.04.592a10.521,10.521,0,0,0,1.713.267,6.667,6.667,0,0,0,1.648.115Z" fill="#949494"/>
        <path id="Path_905" data-name="Path 905" d="M527.755,642.531a17.3,17.3,0,0,0-3.136.529c-.513.108-.242.879.267.772a14.988,14.988,0,0,1,2.952-.161C528.572,643.662,528.492,642.514,527.755,642.531Z" fill="#949494"/>
        <path id="Path_906" data-name="Path 906" d="M528.423,649.356c-1.145.148-2.306.265-3.438.506-.452.1-.3.886.165.8a8.837,8.837,0,0,1,3.2-.1C529.249,650.721,529.291,649.243,528.423,649.356Z" fill="#949494"/>
      </g>
    </g>
  </g>
</svg>
