<svg xmlns="http://www.w3.org/2000/svg" width="119.571" height="81.165" viewBox="0 0 119.571 81.165">
  <g id="Group_2217" data-name="Group 2217" transform="translate(-10.208 -1526.61)">
    <path id="Path_10205" data-name="Path 10205" d="M69.993,1607.775c2.36,0,7.675-1.763,7.929-11.557a29.945,29.945,0,0,1-7.929.956,29.949,29.949,0,0,1-7.929-.956C62.318,1606.012,67.634,1607.775,69.993,1607.775Z" fill="#1f1f1f"/>
    <path id="Path_10206" data-name="Path 10206" d="M61.763,1583.8c-8.143-19.423-18.08-37-51.555-30.564,15.384,5.662,32.965,41.717,59.786,41.717s44.4-36.054,59.786-41.717c-33.475-6.441-43.412,11.141-51.555,30.564,11.073-30.252,2.028-42.228-8.231-57.188C59.735,1541.571,50.69,1553.546,61.763,1583.8Zm18.085,5.762c6.573-15.16,14.785-28.956,35.406-29.773C105.313,1569.639,93.949,1583.786,79.848,1589.561Zm-55.115-29.773c20.62.817,28.833,14.612,35.405,29.773C46.038,1583.786,34.674,1569.639,24.733,1559.788Zm45.26-18.49c14.856,15.432,5.569,37.1,0,47.274-5.569-10.172-14.856-31.842,0-47.274Z" fill="#1f1f1f"/>
  </g>
</svg>
