<svg xmlns="http://www.w3.org/2000/svg" width="95.453" height="88.638" viewBox="0 0 95.453 88.638">
  <g id="Group_138" data-name="Group 138" transform="translate(-1648.09 -806.77)">
    <path id="Path_741" data-name="Path 741" d="M1660.783,837.192a1.807,1.807,0,0,0,2.687-1.537c.009-1.7-2.262-2.263-3.458-2.873l-9.235-4.712a1.807,1.807,0,0,0-2.687,1.537c-.009,1.7,2.262,2.263,3.458,2.873l9.235,4.712C1661.653,837.637,1660.715,837.158,1660.783,837.192Z" fill="#ffc73b"/>
    <path id="Path_742" data-name="Path 742" d="M1715.462,827.642c2.432-2.844,4.864-5.687,7.182-8.625,2.179-2.764-.722-4.818-2.077-3.115q-2.265,2.848-4.608,5.629c-1.026,1.222-3.038,2.827-3.474,4.4-.452,1.642,1.792,3.1,2.978,1.71C1718.2,824.445,1714.827,828.384,1715.462,827.642Z" fill="#ffc73b"/>
    <path id="Path_743" data-name="Path 743" d="M1743.469,841.093c-.814-2.963-7.709.246-9.53.743s-9.363,1.218-8.547,4.188,7.709-.247,9.532-.742,9.362-1.219,8.545-4.189C1743.21,840.149,1743.727,842.031,1743.469,841.093Z" fill="#ffc73b"/>
    <path id="Path_744" data-name="Path 744" d="M1729.291,868.5l-6.63-3.716a25.969,25.969,0,0,0,1.6-6.753,31.374,31.374,0,0,0-2-14.376,32.127,32.127,0,0,0-18.892-18.646c-8.728-3.241-19.493-3.484-27.674,1.412-8.292,4.96-12.024,14.733-10.4,24.079.78,4.49-.326,8.882,1.66,13.261a24.612,24.612,0,0,0,8.616,9.7c8.066,5.607,18.756,8.326,28.475,6.459l2.149,6.89c.458,1.467,2.98,4.619,3.895,1.356.469-1.679-1.214-4.793-1.718-6.405-.489-1.569-1.551-2.446.223-3.121a24.143,24.143,0,0,0,3.172-1.472,24.987,24.987,0,0,0,9.34-9.147q3.186,1.787,6.374,3.572c2.011,1.129,3.82-1.963,1.809-3.093C1727.08,867.259,1730.141,868.975,1729.291,868.5Zm-25.922-39.62C1703.251,828.827,1703.3,828.847,1703.369,828.877Zm4.606,46.179C1708.32,874.907,1708.1,875.006,1707.976,875.056Zm10-8.792c-5.064,8.766-15.284,11.709-24.834,10.274-8.721-1.308-19.717-6.029-23.176-14.876,5.587,8.059,17.291,15.573,27.177,10.7,10.675-5.257,10.262-19.971,3.721-28.16-2.915-3.649-7.168-6.879-12.038-6.871-5.846.011-9.409,4.518-8.945,10.157.167,2.027.711,5.9,2.7,7.038,2.7,1.547,2.566-2.023,1.874-3.4a9.64,9.64,0,0,1-.572-7.472c2.671-5.714,10.283-1.454,13.211,1.657,4.907,5.216,6.749,12.8,3.066,19.273-7.745,13.614-25.222.485-29.627-9.11-2.021-4.4,1.142-9.369,3.747-12.986a25.479,25.479,0,0,1,15.418-9.2c1.872-.358,6.071.249,7.06-1.412,2.408-4.057-7.183-2.208-8.493-1.926A28.568,28.568,0,0,0,1668.48,845.1c.657-16.417,18.249-21.461,31.768-17.335,14.363,4.382,24.577,20.407,19.257,35.247-1.357-.761-4.4-3.35-5.678-1.167-1.376,2.348,4.186,4.366,4.151,4.418Zm-18.842-.1Zm2.81-11.627C1701.939,854.5,1701.941,854.511,1701.946,854.539ZM1694.846,843.257Zm-10.423-.53C1684.269,842.941,1684.349,842.827,1684.423,842.727Z" fill="#ffc73b"/>
    <path id="Path_745" data-name="Path 745" d="M1737.449,873.1c-1.089-.559-2.651-1.827-3.945-1.125a1.8,1.8,0,0,0-.029,3.106c1.089.559,2.652,1.828,3.946,1.124a1.8,1.8,0,0,0,.028-3.105C1736.728,872.727,1738.317,873.543,1737.449,873.1Z" fill="#ffc73b"/>
    <path id="Path_746" data-name="Path 746" d="M1682.9,880.6c-2.566-1.5-5.4,5.257-6.407,6.84-.9,1.41-5.371,6.21-2.74,7.75,2.564,1.5,5.4-5.258,6.406-6.839.9-1.411,5.371-6.211,2.741-7.751C1682.035,880.092,1683.72,881.079,1682.9,880.6Z" fill="#ffc73b"/>
    <path id="Path_747" data-name="Path 747" d="M1662.141,864.134q-4.5,1.884-9.035,3.683c-.919.361-2.224.653-2.552,1.768-.357,1.217.922,2.7,2.206,2.194,3.03-1.179,6.043-2.4,9.047-3.653.9-.372,2.212-.7,2.539-1.793.358-1.2-.927-2.734-2.205-2.2C1658.712,865.569,1663.043,863.755,1662.141,864.134Z" fill="#ffc73b"/>
    <path id="Path_748" data-name="Path 748" d="M1683.188,817.431c.6,2.229,4.054,1.275,3.454-.952l-2.265-8.44c-.6-2.228-4.052-1.273-3.455.953q1.134,4.22,2.266,8.44C1683.442,818.373,1682.434,814.617,1683.188,817.431Z" fill="#ffc73b"/>
  </g>
</svg>
