<svg xmlns="http://www.w3.org/2000/svg" width="109.516" height="95.492" viewBox="0 0 109.516 95.492">
  <g id="Group_2386" data-name="Group 2386" transform="translate(-1869.288 -782.768)">
    <path id="Path_11073" data-name="Path 11073" d="M1924.047,797.242a7.237,7.237,0,1,0-7.237-7.237,7.237,7.237,0,0,0,7.237,7.237Z" fill="#1f1f1f"/>
    <path id="Path_11074" data-name="Path 11074" d="M1896.025,814.483a4,4,0,1,0-2.831-1.172A4,4,0,0,0,1896.025,814.483Z" fill="#1f1f1f"/>
    <path id="Path_11075" data-name="Path 11075" d="M1952.068,814.483a4,4,0,1,0-2.831-1.172A4,4,0,0,0,1952.068,814.483Z" fill="#1f1f1f"/>
    <path id="Path_11076" data-name="Path 11076" d="M1956.584,873.541c9.309-9.068,30.225-34.45,18.984-49.749-9.688-13.188-21.926-7.647-26.28-5.023-4.244-11.691-14.21-18.595-25.242-18.595s-21,6.9-25.243,18.595c-4.354-2.624-16.59-8.166-26.278,5.023-11.241,15.3,9.674,40.681,18.984,49.749,1.715,1.671,4.923,5.987,6.05,3.874.932-1.748,6.522-10.467,25.36-10.467s24.427,8.719,25.356,10.467C1949.71,880.113,1954.4,875.673,1956.584,873.541Zm-61.149-2.145c-4.125-5.287-15.882-21.464-16.471-34.726-.65-14.6,14.592-11.252,17.969-9.969-1.25,10.312,1.355,23.125,9.844,37.518A27.774,27.774,0,0,0,1895.436,871.4Zm27.484-9.721a51.214,51.214,0,0,0-12.558,1.462c-2.956-6.032-8.911-20.646-5.638-35.055,3.578-15.742,14.313-16.456,19.322-16.456s15.742.714,19.321,16.456c3.38,14.874-3.075,29.966-5.911,35.606a49.431,49.431,0,0,0-14.536-2.013Zm17.97,3.255c8.825-14.679,11.54-27.746,10.268-38.228,3.378-1.283,18.619-4.636,17.971,9.969-.659,14.815-15.25,33.261-17.578,36.115a25.54,25.54,0,0,0-10.661-7.855Z" fill="#1f1f1f"/>
  </g>
</svg>
