<svg xmlns="http://www.w3.org/2000/svg" width="129.264" height="146.675" viewBox="0 0 129.264 146.675">
  <g id="Group_2175" data-name="Group 2175" transform="translate(-1580.055 -529.141)">
    <path id="Path_9698" data-name="Path 9698" d="M1644.688,671.559c-22.2-22.464-38.55-42.484-48.608-59.537-8.764-14.857-13.024-27.662-13.024-39.146,0-13.815,3.013-24.728,9.2-33.268a43.716,43.716,0,0,0,16.446,2.906c14.062,0,29.207-5.22,35.988-9.645,6.782,4.426,21.926,9.645,35.985,9.645a43.719,43.719,0,0,0,16.448-2.906c6.186,8.541,9.2,19.453,9.2,33.268,0,11.485-4.261,24.29-13.024,39.146C1683.238,629.074,1666.892,649.094,1644.688,671.559Z" fill="#fff"/>
    <path id="Path_9699" data-name="Path 9699" d="M1644.687,536.362c7.688,4.389,21.974,9.152,35.985,9.152a48.427,48.427,0,0,0,15.286-2.285c4.947,7.736,7.361,17.486,7.361,29.646,0,10.933-4.124,23.239-12.608,37.622-9.611,16.293-25.082,35.378-46.024,56.782-20.942-21.4-36.413-40.489-46.024-56.782-8.484-14.383-12.608-26.689-12.608-37.622,0-12.16,2.414-21.91,7.361-29.646a48.419,48.419,0,0,0,15.287,2.285c14.011,0,28.3-4.764,35.984-9.152m0-7.221c-4.424,3.876-20.436,10.372-35.985,10.373h0a38.947,38.947,0,0,1-17.383-3.613c-7.576,9.348-11.261,21.449-11.261,36.975,0,12.035,4.4,25.339,13.44,40.671,10.507,17.813,27.729,38.76,51.192,62.269,23.463-23.509,40.685-44.457,51.192-62.269,9.044-15.332,13.44-28.636,13.44-40.671,0-15.526-3.685-27.627-11.261-36.975a38.956,38.956,0,0,1-17.386,3.613c-15.548,0-31.56-6.5-35.985-10.373Z" fill="#1f1f1f"/>
  </g>
</svg>
