<svg xmlns="http://www.w3.org/2000/svg" width="28.577" height="29.108" viewBox="0 0 28.577 29.108">
  <g id="Group_486" data-name="Group 486" transform="translate(-451.036 -624.075)">
    <g id="Group_483" data-name="Group 483">
      <path id="Path_1662" data-name="Path 1662" d="M471.726,646.215h2.4a2.534,2.534,0,0,0,2.534-2.532v-.695H473.8Z" fill="#f29100"/>
      <path id="Path_1663" data-name="Path 1663" d="M458.411,642.987c-1.432,0-2.029-1.162-2.029-2.594V626.707H453.57a2.534,2.534,0,0,0-2.534,2.534v14.441a2.534,2.534,0,0,0,2.534,2.532h5.525l4.469,6.969v-6.969h5.657v-3.227Z" fill="#f29100"/>
      <path id="Path_1664" data-name="Path 1664" d="M477.8,624.075H459.843a1.816,1.816,0,0,0-1.814,1.814V640.11a1.817,1.817,0,0,0,1.814,1.816h10.392v4.99l1.754-2.732,1.447-2.258H477.8a1.818,1.818,0,0,0,1.816-1.816V625.889A1.816,1.816,0,0,0,477.8,624.075Z" fill="#e84e1b"/>
    </g>
  </g>
</svg>
