<svg xmlns="http://www.w3.org/2000/svg" width="129.034" height="119.522" viewBox="0 0 129.034 119.522">
  <g id="Group_2381" data-name="Group 2381" transform="translate(-1044.14 -944.036)">
    <path id="Path_11053" data-name="Path 11053" d="M1161.939,947.913a5.168,5.168,0,0,0-1.454,2.886l-.587-.587a3.353,3.353,0,0,0-4.7.358,3.645,3.645,0,0,0-1.029,3.575c-9.019-8.523-16.9-13.717-23.5-7.12-6.8,6.8-9.941,23.857-2.961,35.241a6.924,6.924,0,0,0-6.108,9.533l-59.724,59.724a1.391,1.391,0,0,0,0,1.963l1.846,1.846a1.392,1.392,0,0,0,1.962,0l1.095-1.1,7.373,8.812a1.175,1.175,0,0,0,1.737.224c.463-.465,1.285-1.286,1.825-1.827l1.553-1.553c.54-.539,1.362-1.362,1.827-1.827a1.172,1.172,0,0,0-.222-1.734l-8.813-7.375,53.348-53.348a6.919,6.919,0,0,0,9.532-6.107c11.387,6.984,28.439,3.843,35.243-2.961,6.6-6.6,1.4-14.485-7.12-23.5a3.652,3.652,0,0,0,3.576-1.03,3.351,3.351,0,0,0,.358-4.7l-.588-.588a5.2,5.2,0,1,0-4.472-8.812Zm-6.74,36.164c-5.529,5.529-14.952,5.072-21.044-1.02s-6.55-15.516-1.021-21.045,14.951-5.073,21.045,1.021,6.547,15.517,1.02,21.044Z" fill="#1f1f1f"/>
    <path id="Path_11054" data-name="Path 11054" d="M1048.015,947.914a5.192,5.192,0,0,0,2.887,8.81l-.588.588a3.351,3.351,0,0,0,.358,4.7,3.652,3.652,0,0,0,3.576,1.03c-8.521,9.015-13.717,16.9-7.12,23.5,6.8,6.8,23.855,9.945,35.243,2.961a6.919,6.919,0,0,0,9.532,6.107l53.348,53.348-8.813,7.375a1.172,1.172,0,0,0-.222,1.734c.465.465,1.287,1.288,1.827,1.827l1.553,1.553c.54.54,1.362,1.362,1.825,1.827a1.175,1.175,0,0,0,1.737-.224l7.373-8.812,1.095,1.1a1.392,1.392,0,0,0,1.962,0l1.846-1.846a1.391,1.391,0,0,0,0-1.963L1095.712,991.8a6.924,6.924,0,0,0-6.108-9.533c6.981-11.384,3.843-28.438-2.961-35.241-6.6-6.6-14.482-1.4-23.5,7.12a3.645,3.645,0,0,0-1.029-3.575,3.353,3.353,0,0,0-4.7-.358l-.587.587a5.191,5.191,0,0,0-8.813-2.884Zm15.119,15.119c6.094-6.094,15.518-6.548,21.045-1.021s5.073,14.951-1.021,21.045-15.515,6.549-21.044,1.02S1057.042,969.125,1063.134,963.033Z" fill="#1f1f1f"/>
  </g>
</svg>
