<svg xmlns="http://www.w3.org/2000/svg" width="65.982" height="64.088" viewBox="0 0 65.982 64.088">
  <path id="Path_298" data-name="Path 298" d="M476.582,29.294c.444-2.515,1.207-5.44,3.585-6.371,2.5-.98,5.351,1.08,6.267,3.608s.468,5.316.113,7.982-.568,5.537.733,7.89c2.076,3.756,7.114,4.665,11.379,4.191s8.534-1.9,12.759-1.147,8.308,4.954,6.825,8.981c-1.39,3.774-6.288,4.6-10.309,4.643s-8.817.3-10.879,3.748c-1.513,2.535-.826,5.809.38,8.5s2.9,5.24,3.366,8.155-.844,6.439-3.708,7.154c-3.3.824-6.2-2.417-7.507-5.558s-2.111-6.808-4.887-8.772c-3.443-2.434-8.283-1.047-11.854,1.194s-6.789,5.3-10.888,6.29-9.447-1.434-9.384-5.649c.056-3.732,4.022-6.021,7.495-7.39s7.528-3.185,8.2-6.856c.721-3.929-2.911-7.157-6.1-9.563s-6.685-5.9-5.6-9.745c1.155-4.078,7.042-4.995,10.592-2.68,2.525,1.647,4.063,4.368,5.542,6.874C475.875,41.69,475.8,33.71,476.582,29.294Z" transform="translate(-452.572 -22.674)" fill="#decfb8"/>
</svg>
