<svg xmlns="http://www.w3.org/2000/svg" width="31.539" height="36.089" viewBox="0 0 31.539 36.089">
  <g id="Group_92" data-name="Group 92" transform="translate(-268.841 -34.515)">
    <path id="Path_389" data-name="Path 389" d="M296.309,59.814a15.089,15.089,0,1,1-2.167-21.227,15.089,15.089,0,0,1,2.167,21.227Z" fill="#93c01f" stroke="#ececec" stroke-miterlimit="10" stroke-width="1.34"/>
    <path id="Path_390" data-name="Path 390" d="M289.573,59.089c.6,1.478,1.622,11.515,1.622,11.515L285.138,60.59l3.993-1.351" fill="#93c01f"/>
    <g id="Group_89" data-name="Group 89">
      <path id="Path_391" data-name="Path 391" d="M284.924,61.482a8.889,8.889,0,0,1-3.25-.574,6.88,6.88,0,0,1-2.524-1.677,7.643,7.643,0,0,1-1.633-2.7,10.486,10.486,0,0,1-.584-3.626,10.609,10.609,0,0,1,.565-3.584,7.875,7.875,0,0,1,1.575-2.693,6.671,6.671,0,0,1,2.428-1.7,8.033,8.033,0,0,1,3.115-.59,8.365,8.365,0,0,1,3.183.581,6.611,6.611,0,0,1,2.419,1.686,7.543,7.543,0,0,1,1.541,2.7,11.233,11.233,0,0,1,.538,3.61v.7H279.979a8.622,8.622,0,0,0,.5,2.463,5.193,5.193,0,0,0,1.062,1.736,4.252,4.252,0,0,0,1.515,1.035,4.955,4.955,0,0,0,1.864.342,5.417,5.417,0,0,0,1.437-.2,4.517,4.517,0,0,0,1.292-.572,3.162,3.162,0,0,0,.933-.934,2.388,2.388,0,0,0,.374-1.273h3.046a5.857,5.857,0,0,1-.8,2.25,5.7,5.7,0,0,1-1.537,1.65,7.027,7.027,0,0,1-2.148,1.018,9.391,9.391,0,0,1-2.6.352Zm4.294-10.163a5.844,5.844,0,0,0-1.585-3.507,4.206,4.206,0,0,0-3.017-1.18,4.592,4.592,0,0,0-1.641.29,3.916,3.916,0,0,0-1.37.874,4.885,4.885,0,0,0-1.011,1.46,7.405,7.405,0,0,0-.58,2.063Z" fill="#fff"/>
      <path id="Path_392" data-name="Path 392" d="M288.343,58.782a80.086,80.086,0,0,1,1.6,7.851L285.354,60l2.692-1.1" fill="#fff"/>
    </g>
    <path id="Path_393" data-name="Path 393" d="M295.569,43.217c0,4.052-4.9,7.338-10.946,7.338s-10.943-3.286-10.943-7.338,4.9-7.336,10.943-7.336S295.569,39.167,295.569,43.217Z" fill="#fff" opacity="0.15"/>
  </g>
</svg>
