<svg xmlns="http://www.w3.org/2000/svg" width="58.646" height="68.495" viewBox="0 0 58.646 68.495">
  <g id="Group_2392" data-name="Group 2392" transform="translate(-1394.774 -871.781)">
    <path id="Path_11125" data-name="Path 11125" d="M1443.526,901l-3.855-1.029a20.305,20.305,0,0,0-3.339-17.764,14.841,14.841,0,0,0-24.469,0,20.31,20.31,0,0,0-3.34,17.764L1404.668,901a24.27,24.27,0,0,1,4.031-21.222,18.818,18.818,0,0,1,30.8,0A24.267,24.267,0,0,1,1443.526,901Z" fill="#1f1f1f"/>
    <path id="Path_11126" data-name="Path 11126" d="M1424.1,940.276c13.375-4.116,29.323-16.976,29.323-31.123,0-14.663-17.234-19.55-29.323-8.746-12.089-10.8-29.323-5.917-29.323,8.746C1394.774,923.3,1410.721,936.16,1424.1,940.276Z" fill="#1f1f1f"/>
    <path id="Path_11127" data-name="Path 11127" d="M1424.1,936.412a.332.332,0,0,1-.109-.018,47.682,47.682,0,0,1-17.022-10.541c-5.5-5.349-8.537-11.281-8.537-16.7a10.587,10.587,0,0,1,3.243-8.066,11.772,11.772,0,0,1,8.022-2.871,18.176,18.176,0,0,1,11.964,4.917l2.437,2.177,2.436-2.178a18.183,18.183,0,0,1,11.963-4.917,11.773,11.773,0,0,1,8.023,2.872,10.58,10.58,0,0,1,3.244,8.065c0,5.421-3.032,11.351-8.537,16.7a47.68,47.68,0,0,1-17.021,10.54.336.336,0,0,1-.108.018Zm-14.4-37.532a11.109,11.109,0,0,0-7.572,2.7,9.936,9.936,0,0,0-3.028,7.576c0,5.238,2.96,11,8.337,16.224a47.019,47.019,0,0,0,16.666,10.351,47.007,47.007,0,0,0,16.665-10.351c5.376-5.222,8.337-10.984,8.336-16.224a9.933,9.933,0,0,0-3.028-7.575,11.108,11.108,0,0,0-7.572-2.7,17.51,17.51,0,0,0-11.522,4.749L1424.318,906a.332.332,0,0,1-.442,0l-2.659-2.374A17.514,17.514,0,0,0,1409.7,898.88Z" fill="#fff"/>
    <path id="Path_11128" data-name="Path 11128" d="M1427.569,914.595a3.472,3.472,0,1,0-5.208,3v6.833a1.736,1.736,0,1,0,3.471,0V917.6a3.47,3.47,0,0,0,1.737-3Z" fill="#fff"/>
  </g>
</svg>
