<svg xmlns="http://www.w3.org/2000/svg" width="116.446" height="116.446" viewBox="0 0 116.446 116.446">
  <g id="Group_2211" data-name="Group 2211" transform="translate(-992.639 -1508.97)">
    <path id="Path_9922" data-name="Path 9922" d="M1050.861,1508.97c-4.892,0-17.441,20.095-19.262,23.779-5.083,10.288,19.843,19.475,12.1,27.286-7.811,7.738-17-17.188-27.286-12.1-3.684,1.82-23.779,14.37-23.779,19.262s20.095,17.441,23.779,19.262c10.288,5.083,19.475-19.843,27.286-12.1,7.738,7.811-17.188,17-12.1,27.286,1.82,3.684,14.37,23.779,19.262,23.779s17.441-20.095,19.262-23.779c5.083-10.288-19.842-19.475-12.1-27.286,7.811-7.738,17,17.188,27.286,12.1,3.684-1.82,23.779-14.37,23.779-19.262s-20.095-17.441-23.779-19.262c-10.288-5.083-19.475,19.843-27.286,12.1-7.738-7.811,17.188-17,12.1-27.286C1068.3,1529.065,1055.753,1508.97,1050.861,1508.97Zm0,44.559c-4.027-4.229-12.428-12.383-12.428-16.831,0-2.471,9.142-11.49,12.428-11.49s12.428,9.019,12.428,11.49C1063.29,1541.146,1054.889,1549.3,1050.861,1553.529Zm13.664,13.663c4.229-4.027,12.383-12.428,16.831-12.428,2.471,0,11.49,9.142,11.49,12.428s-9.019,12.428-11.49,12.428c-4.448,0-12.6-8.4-16.83-12.428Zm-13.663,13.663c4.027,4.229,12.428,12.383,12.428,16.831,0,2.471-9.143,11.49-12.428,11.49s-12.428-9.019-12.428-11.49c0-4.448,8.4-12.6,12.428-16.83Zm-13.664-13.663c-4.229,4.027-12.383,12.428-16.831,12.428-2.471,0-11.49-9.142-11.49-12.428s9.019-12.428,11.49-12.428C1024.815,1554.765,1032.969,1563.166,1037.2,1567.193Zm9.66-4a15.4,15.4,0,0,0,4-6.949,15.439,15.439,0,0,0,10.952,10.952,15.438,15.438,0,0,0-10.952,10.952,15.439,15.439,0,0,0-10.952-10.952,15.4,15.4,0,0,0,6.949-4Z" fill="#1f1f1f"/>
    <path id="Path_9923" data-name="Path 9923" d="M1019.912,1536.244l0-.019a1.706,1.706,0,0,1,1.952-1.805c6.084.88,10.378,7.986,14.12,17.894-9.908-3.742-17.014-8.036-17.894-14.12a1.706,1.706,0,0,1,1.805-1.952Z" fill="#1f1f1f"/>
    <path id="Path_9924" data-name="Path 9924" d="M1081.811,1536.244l.019,0a1.706,1.706,0,0,1,1.805,1.952c-.88,6.084-7.986,10.378-17.894,14.12,3.742-9.908,8.036-17.014,14.12-17.894a1.706,1.706,0,0,1,1.952,1.805Z" fill="#1f1f1f"/>
    <path id="Path_9925" data-name="Path 9925" d="M1081.811,1598.142v.019a1.706,1.706,0,0,1-1.952,1.805c-6.084-.88-10.378-7.986-14.12-17.894,9.908,3.742,17.014,8.036,17.894,14.12a1.706,1.706,0,0,1-1.805,1.952Z" fill="#1f1f1f"/>
    <path id="Path_9926" data-name="Path 9926" d="M1019.912,1598.142h-.019a1.706,1.706,0,0,1-1.805-1.952c.88-6.084,7.986-10.378,17.894-14.12-3.742,9.908-8.036,17.014-14.12,17.894a1.706,1.706,0,0,1-1.952-1.805Z" fill="#1f1f1f"/>
    <path id="Path_9927" data-name="Path 9927" d="M1024.267,1540.6c3.174-.011,5.744,4.041,8.352,8.352C1028.308,1546.342,1024.256,1543.772,1024.267,1540.6Z" fill="#1f1f1f"/>
    <path id="Path_9928" data-name="Path 9928" d="M1077.456,1540.6c.011,3.174-4.041,5.744-8.352,8.352C1071.712,1544.639,1074.282,1540.587,1077.456,1540.6Z" fill="#1f1f1f"/>
    <path id="Path_9929" data-name="Path 9929" d="M1077.456,1593.787c-3.174.011-5.744-4.041-8.352-8.352C1073.415,1588.044,1077.467,1590.614,1077.456,1593.787Z" fill="#1f1f1f"/>
    <path id="Path_9930" data-name="Path 9930" d="M1024.267,1593.787c-.011-3.174,4.041-5.744,8.352-8.352C1030.011,1589.746,1027.441,1593.8,1024.267,1593.787Z" fill="#1f1f1f"/>
    <path id="Path_9931" data-name="Path 9931" d="M1048.21,1564.541q1.272-1.276,2.652-2.439,1.378,1.161,2.652,2.439t2.439,2.652q-1.161,1.378-2.439,2.652t-2.652,2.439q-1.378-1.161-2.652-2.439t-2.439-2.652Q1046.932,1565.815,1048.21,1564.541Z" fill="#1f1f1f"/>
  </g>
</svg>
