<svg xmlns="http://www.w3.org/2000/svg" width="76.215" height="109.71" viewBox="0 0 76.215 109.71">
  <path id="Path_262" data-name="Path 262" d="M41.531,201.757c-2.713,3.282-3.339,7.88-2.765,12.1s2.21,8.206,3.6,12.232a108.838,108.838,0,0,1,2.376,62.552c-.813,3.107-1.771,6.231-1.761,9.442s1.169,6.611,3.8,8.456c3.9,2.736,9.71.926,12.63-2.838s3.526-8.832,3.334-13.592-1.071-9.512-.68-14.26c.22-2.672,1.257-5.772,3.842-6.485,2.822-.779,5.481,1.9,6.468,4.657,1.414,3.949.9,8.291.422,12.459s-.862,8.551.777,12.412,6.007,6.9,9.991,5.589a8.65,8.65,0,0,0,5.135-5.742,25.576,25.576,0,0,0,.821-7.919q-.01-9.658-.021-19.316c0-2.7.019-5.5,1.22-7.916s3.964-4.279,6.555-3.536c2.772.794,4.052,4.064,4.093,6.947s-.744,5.772-.334,8.625,2.672,5.819,5.539,5.515c2.781-.3,4.329-3.312,5.19-5.973a63.014,63.014,0,0,0,1.308-33.914c-1.068-4.444-2.9-9.125-6.837-11.451s-10.283-.6-10.917,3.922c-.284,2.023.59,4.021.729,6.059s-1.015,4.533-3.058,4.5c-2.286-.038-3.178-2.946-3.422-5.219l-2.1-19.548c-.539-5.022-1.189-10.331-4.286-14.321s-9.552-5.817-13.251-2.378c-2.893,2.689-2.931,7.238-2.224,11.124s1.943,7.9.869,11.7-5.8,6.852-9.021,4.565c-2.653-1.884-2.494-5.779-2.321-9.028.3-5.6.709-15.617-2.628-20.473C51.6,196.334,44.513,198.149,41.531,201.757Z" transform="translate(-38.571 -198.144)" fill="#6a83a6"/>
</svg>
