<svg xmlns="http://www.w3.org/2000/svg" xmlns:xlink="http://www.w3.org/1999/xlink" width="29.118" height="31.612" viewBox="0 0 29.118 31.612">
  <defs>
    <linearGradient id="linear-gradient" y1="0.5" x2="1" y2="0.5" gradientUnits="objectBoundingBox">
      <stop offset="0" stop-color="#009ee2"/>
      <stop offset="1" stop-color="#1d70b7"/>
    </linearGradient>
    <linearGradient id="linear-gradient-2" x1="0" y1="0.5" x2="1" y2="0.5" xlink:href="#linear-gradient"/>
  </defs>
  <g id="Group_123" data-name="Group 123" transform="translate(-331.361 -262.449)">
    <g id="Group_120" data-name="Group 120">
      <g id="Group_119" data-name="Group 119">
        <path id="Path_486" data-name="Path 486" d="M354.263,283.153c.711,1.363,2.621,10.908,2.621,10.908L350.14,285l3.711-1.667" fill="url(#linear-gradient)"/>
        <path id="Path_487" data-name="Path 487" d="M357.677,285.593a14.558,14.558,0,1,1-3.171-20.341,14.558,14.558,0,0,1,3.171,20.341Z" fill="url(#linear-gradient-2)"/>
      </g>
      <path id="Path_488" data-name="Path 488" d="M339.335,269h12.546a2.689,2.689,0,0,1,2.689,2.689v10.638a2.688,2.688,0,0,1-2.688,2.688H339.335a2.687,2.687,0,0,1-2.687-2.687v-10.64A2.688,2.688,0,0,1,339.335,269Z" fill="#fff"/>
      <path id="Path_489" data-name="Path 489" d="M351.488,277.522l-8.755-5.1-.284-.2.155,10.382Z" fill="url(#linear-gradient-2)"/>
      <path id="Path_490" data-name="Path 490" d="M354.57,276c0,.778-1.2,1.413-2.687,1.413H339.336c-1.484,0-2.689-.635-2.689-1.413v-5.592c0-.779,1.2-1.412,2.689-1.412h12.546c1.484,0,2.687.633,2.687,1.412Z" fill="#fff" opacity="0.3"/>
    </g>
  </g>
</svg>
