<svg xmlns="http://www.w3.org/2000/svg" width="30.338" height="30.056" viewBox="0 0 30.338 30.056">
  <g id="Group_284" data-name="Group 284" transform="translate(-331.273 -477.251)">
    <path id="Path_996" data-name="Path 996" d="M350.261,477.459a4.734,4.734,0,0,1-6.723-.208,15.168,15.168,0,1,0,6.723.208Zm-3.792,27.753a11.7,11.7,0,1,1,11.712-11.7,11.7,11.7,0,0,1-11.712,11.7Z" fill="#38a9e0"/>
    <path id="Path_997" data-name="Path 997" d="M349.13,483.364a3.243,3.243,0,0,1-4.611-.142,10.4,10.4,0,1,0,4.611.142Zm-2.6,19.039a8.027,8.027,0,1,1,8.035-8.025,8.027,8.027,0,0,1-8.035,8.025Z" fill="#38a9e0"/>
    <path id="Path_998" data-name="Path 998" d="M348.244,487.67a2.14,2.14,0,0,1-3.043-.094,6.869,6.869,0,1,0,3.043.094Zm-1.717,12.567a5.3,5.3,0,1,1,5.3-5.3,5.3,5.3,0,0,1-5.3,5.3Z" fill="#38a9e0"/>
  </g>
</svg>
