<svg xmlns="http://www.w3.org/2000/svg" width="58.213" height="91.614" viewBox="0 0 58.213 91.614">
  <path id="Path_273" data-name="Path 273" d="M455.13,223.513c-3.361,9.125-6.76,18.441-7.1,28.159a46.4,46.4,0,0,0,10.4,30.764c4.412,5.374,10.477,9.89,17.409,10.424,8.013.617,15.542-4.19,20.961-10.124,5.394-5.907,9.452-13.468,9.418-21.466-.028-6.681-2.855-12.991-5.629-19.069l-13.431-29.431c-3.692-8.09-10.743-13.437-20.077-10.784-4.47,1.271-5.914,5.252-7.432,9.271C458.109,215.329,456.635,219.428,455.13,223.513Z" transform="translate(-448.003 -201.299)" fill="#284654"/>
</svg>
