<svg xmlns="http://www.w3.org/2000/svg" width="72.618" height="33.355" viewBox="0 0 72.618 33.355">
  <g id="Group_380" data-name="Group 380" transform="translate(-683.724 -442.791)">
    <path id="Path_1489" data-name="Path 1489" d="M725.719,443.012c2.53-.134,5.063-.267,7.6-.206a7.9,7.9,0,0,1,2.569.371,5.994,5.994,0,0,1,2.9,2.621c1.842,3.043,1.868,6.809,1.84,10.366l-.113,14.252a3.075,3.075,0,0,1-.384,1.79,2.9,2.9,0,0,1-1.249.862c-6.825,3.024-14.545,3.07-22.011,3.064l-21.331-.016a4.308,4.308,0,0,1-2.969-.745,3.646,3.646,0,0,1-.841-1.347,18.868,18.868,0,0,1-1.2-5.468,76.861,76.861,0,0,1-.187-7.779l.1-10.437c.011-1.156-.439-3.577.286-4.564.584-.794,1.713-.555,2.611-.618,6.948-.49,13.881-1.113,20.837-1.516Q719.948,443.307,725.719,443.012Z" fill="#505659"/>
    <path id="Path_1490" data-name="Path 1490" d="M745.15,451.522c1.229,4.012.857,8.316.474,12.494a3.087,3.087,0,0,1-.241,1.107,2.507,2.507,0,0,1-1.218,1.049,6.485,6.485,0,0,1-4.006.523,1.145,1.145,0,0,1-.7-.334,1.215,1.215,0,0,1-.2-.673c-.095-1.1-.1-2.2-.113-3.3q-.024-2.962-.049-5.925c-.011-1.31-.575-4.076.073-5.208C739.9,449.971,744.748,450.211,745.15,451.522Z" fill="#323232"/>
    <path id="Path_1491" data-name="Path 1491" d="M756.322,467.412l-.251-21.314-8.139,2.625c-2.444.788-3.027,1.239-3.116,3.821q-.139,4.02-.157,8.042c-.011,2.1-1.364,5.584.14,7.26a6.827,6.827,0,0,0,2.338,1.517,39.3,39.3,0,0,0,6.133,2.19c.441.118.885.228,1.328.337a1.691,1.691,0,0,0,1.182,0,.647.647,0,0,0,.283-.8A15.167,15.167,0,0,0,756.322,467.412Zm-.345,3.579-.007-.008Zm-.465-.272a2.544,2.544,0,0,1,.285.141Z" fill="#505659"/>
    <path id="Path_1492" data-name="Path 1492" d="M726.393,455.951c.76-.037,1.872-.352,2.515.056a3.2,3.2,0,0,1,1.142,1.624,7.918,7.918,0,0,1,.431,3.774,1.885,1.885,0,0,1-.22.925c-.369.586-1.184.647-1.876.644q-11.524-.048-23.047-.167c-1.423-.015-3.015-.1-3.986-1.141a5.348,5.348,0,0,1-1.019-3.427,3.063,3.063,0,0,1,.148-1.452c.549-1.211,4.255-.676,5.4-.731l6.974-.339C717.375,455.5,721.876,456.171,726.393,455.951Z" fill="#323232"/>
    <g id="Group_379" data-name="Group 379">
      <path id="Path_1493" data-name="Path 1493" d="M685.466,447.264a2.3,2.3,0,0,0-1.489-.414,11.219,11.219,0,0,0,.681,6.853.671.671,0,0,0,.824-.14,2.952,2.952,0,0,0,.473-.772c.592-1.122,1.772-2.105,1.586-3.36C687.388,448.4,686.376,447.764,685.466,447.264Z" fill="#323232"/>
      <path id="Path_1494" data-name="Path 1494" d="M690.065,449.073a1.446,1.446,0,0,0-1.379-.913,1.136,1.136,0,0,0-.793.454,2.188,2.188,0,0,0,.058,2.25,1.3,1.3,0,0,0,1.785.047A1.652,1.652,0,0,0,690.065,449.073Z" fill="#323232"/>
    </g>
    <path id="Path_1495" data-name="Path 1495" d="M732.95,446.808a.629.629,0,0,0-.07-.193c-.245-.421-1.571-.569-1.973-.5a1.6,1.6,0,0,0-1.06,2.348,1.738,1.738,0,0,0,.346.331,2.3,2.3,0,0,0,1.131.589,1.466,1.466,0,0,0,1.347-.769,2.836,2.836,0,0,0,.3-1.588A1.54,1.54,0,0,0,732.95,446.808Z" fill="#8ca380"/>
    <path id="Path_1496" data-name="Path 1496" d="M728.567,446.869a.629.629,0,0,0-.07-.194c-.245-.421-1.571-.569-1.973-.5a1.6,1.6,0,0,0-1.06,2.348,1.738,1.738,0,0,0,.346.331,2.3,2.3,0,0,0,1.131.589,1.466,1.466,0,0,0,1.347-.768,2.836,2.836,0,0,0,.3-1.588,1.536,1.536,0,0,0-.024-.217Z" fill="#a84749"/>
  </g>
</svg>
