<svg xmlns="http://www.w3.org/2000/svg" width="69.676" height="77.174" viewBox="0 0 69.676 77.174">
  <g id="Group_131" data-name="Group 131" transform="translate(-1216.719 -812.502)">
    <path id="Path_722" data-name="Path 722" d="M1219.705,837.527c-1.145-.681-2.157-1.225-2.984-1.642l0,.023v30.913a8.955,8.955,0,0,0,4.038,6.989l26.769,15.455a6.23,6.23,0,0,0,.867.41c-.411-21.531-9.4-35.2-16.977-42.92a58.684,58.684,0,0,0-11.711-9.229Z" fill="#38bdb0"/>
    <path id="Path_723" data-name="Path 723" d="M1271.7,846.757c-7.572,7.724-16.565,21.389-16.976,42.92a6.21,6.21,0,0,0,.867-.41l26.767-15.455a8.953,8.953,0,0,0,4.033-6.989V835.888c-.826.417-1.838.961-2.98,1.64a58.706,58.706,0,0,0-11.711,9.229Z" fill="#6178aa"/>
    <path id="Path_724" data-name="Path 724" d="M1251.5,852.09a.011.011,0,0,0,0-.011v-.05c.047,0,.022.012.029.018s.017-.013.017-.018v.033c0,.009.022.019.031.027,1.886-2.09,19.341-18.883,31.3-22.822a5.968,5.968,0,0,0-.53-.348l-26.766-15.455a8.939,8.939,0,0,0-8.069,0l-26.768,15.455a5.916,5.916,0,0,0-.532.35C1232.182,833.214,1249.619,850,1251.5,852.09Zm-5.757-14.036c0-4.292,2.6-7.771,5.809-7.771s5.81,3.48,5.81,7.771-2.6,7.771-5.81,7.771-5.808-3.48-5.808-7.772Z" fill="#fbaf3c"/>
  </g>
</svg>
