<svg xmlns="http://www.w3.org/2000/svg" width="133.671" height="156.981" viewBox="0 0 133.671 156.981">
  <g id="Group_2174" data-name="Group 2174" transform="translate(-1855.461 -523.987)">
    <path id="Path_9696" data-name="Path 9696" d="M1922.3,677.6c-53.222-27.594-63.422-59.131-63.822-114.122,13-.549,28.748-4.062,34.25-12.546,2.387-3.678,2.617-7.931.666-12.3a4.955,4.955,0,0,1,.011-4.168,6,6,0,0,1,3.732-3.189c6.287-1.955,15.756-4.285,25.163-4.285a87.058,87.058,0,0,1,25.164,4.285,6,6,0,0,1,3.733,3.189,4.953,4.953,0,0,1,.01,4.168c-1.95,4.366-1.72,8.618.665,12.3,5.5,8.484,21.248,12,34.252,12.546C1985.718,618.465,1975.518,650,1922.3,677.6Z" fill="#fff"/>
    <path id="Path_9697" data-name="Path 9697" d="M1922.3,529.988a84.056,84.056,0,0,1,24.274,4.15,3,3,0,0,1,1.889,1.56,1.979,1.979,0,0,1,0,1.708,15.454,15.454,0,0,0,.888,15.154c5.688,8.771,20.612,12.748,33.736,13.737-.418,29.075-3.843,47.551-11.528,62.873-8.97,17.882-24.224,31.854-49.264,45.041-25.039-13.187-40.293-27.159-49.263-45.041-7.685-15.321-11.11-33.8-11.528-62.872,13.125-.989,28.048-4.966,33.736-13.737a15.454,15.454,0,0,0,.888-15.154,1.979,1.979,0,0,1,.005-1.708,3,3,0,0,1,1.889-1.56c6.089-1.893,15.242-4.15,24.272-4.15m0-6c-9.783,0-19.568,2.4-26.054,4.42a9,9,0,0,0-5.575,4.817,7.983,7.983,0,0,0-.016,6.628c1.537,3.441,1.388,6.618-.444,9.442-4.939,7.616-21.339,11.148-34.746,11.254.069,58.495,10.209,91.527,66.835,120.42,56.626-28.893,66.766-61.925,66.835-120.42-13.408-.106-29.807-3.638-34.746-11.254-1.831-2.824-1.981-6-.443-9.442a7.983,7.983,0,0,0-.016-6.627,9,9,0,0,0-5.575-4.818,90.06,90.06,0,0,0-26.055-4.42Z" fill="#1f1f1f"/>
  </g>
</svg>
