<svg xmlns="http://www.w3.org/2000/svg" width="33.959" height="49.269" viewBox="0 0 33.959 49.269">
  <g id="Group_194" data-name="Group 194" transform="translate(-701.22 -603.476)">
    <g id="Group_192" data-name="Group 192">
      <path id="Path_881" data-name="Path 881" d="M735.176,619.414a16.65,16.65,0,0,0-3.452-9.817c-4.418-5.723-14.547-7.317-21.33-4.469a14.312,14.312,0,0,0-8.907,16.1,25.027,25.027,0,0,0,6.022,11.993c1.577,1.873,3.417,3.49,5.03,5.32,2.193,2.488,5.966,4.875,9.4,2.989a7.659,7.659,0,0,0,1.957-1.763,65.445,65.445,0,0,0,7.412-9.547C733.3,626.881,735.258,623.381,735.176,619.414Z" fill="#f2f2ea" opacity="0.49"/>
      <g id="Group_191" data-name="Group 191">
        <path id="Path_882" data-name="Path 882" d="M705.517,609a22.06,22.06,0,0,1,4.026-1.115,44.967,44.967,0,0,1,8.83-.563,55.069,55.069,0,0,1,12.519,1.393c-4.677-4.763-13.584-6.255-19.879-3.932a14.96,14.96,0,0,0-6.807,4.874A10.143,10.143,0,0,1,705.517,609Z" fill="#aa4a4d"/>
        <path id="Path_883" data-name="Path 883" d="M704.274,613.154a33.45,33.45,0,0,1,5.141-1.284,73.873,73.873,0,0,1,10.2-.884,46.207,46.207,0,0,1,13.955,1.7,16.47,16.47,0,0,0-1.445-2.5c-.217-.308-.453-.6-.7-.89a52.5,52.5,0,0,0-14.173-1.551,36.023,36.023,0,0,0-9.337.944,18.186,18.186,0,0,0-3.988,1.6c-.094.05-.187.1-.28.144a13.871,13.871,0,0,0-1.68,3.549C702.736,613.7,703.5,613.416,704.274,613.154Z" fill="#b2bf93"/>
        <path id="Path_884" data-name="Path 884" d="M708.153,618.314a68.034,68.034,0,0,1,11.76-.857A84.011,84.011,0,0,1,731,618.677a25.075,25.075,0,0,1,4.145.981,16.708,16.708,0,0,0-1.334-6.451,45.5,45.5,0,0,0-14.206-1.783,66.244,66.244,0,0,0-10.888,1.02,58.575,58.575,0,0,0-6.912,2.116,15.742,15.742,0,0,0-.445,5.391A21.936,21.936,0,0,1,708.153,618.314Z" fill="#6d9dbf"/>
        <path id="Path_885" data-name="Path 885" d="M710.375,631.89a41.757,41.757,0,0,1,7.158-.374,37.259,37.259,0,0,1,7.045.924c1.4.331,2.751.8,4.12,1.217.743-.931,1.455-1.886,2.11-2.883q.208-.317.416-.636a30.28,30.28,0,0,0-15.039-3.414c-4.112.2-8.158.979-12.234,1.5a33.313,33.313,0,0,0,2.941,4.491,13.957,13.957,0,0,1,3.484-.828Z" fill="#aa4a4d"/>
        <path id="Path_886" data-name="Path 886" d="M718.4,636.685a31.518,31.518,0,0,1,6.834.928c1.1-1.176,2.176-2.372,3.19-3.618-.914-.287-1.826-.588-2.762-.833a36.353,36.353,0,0,0-6.9-1.143,40.507,40.507,0,0,0-7.445.192,16.93,16.93,0,0,0-4.146.858c1.327,1.666,2.83,3.173,4.188,4.8C713.431,636.736,716.188,636.609,718.4,636.685Z" fill="#916883"/>
        <path id="Path_887" data-name="Path 887" d="M718.917,637.144c-2.226-.1-5.144-.087-7.281,1.058.016.02.033.038.049.058,2.081,2.583,5.746,5.133,9.264,3.4a7.66,7.66,0,0,0,2.033-1.675q.963-1,1.918-2.015A30.161,30.161,0,0,0,718.917,637.144Z" fill="#97a8b2"/>
        <path id="Path_888" data-name="Path 888" d="M703.732,627.818c4.556-.587,9.081-1.529,13.685-1.569a30.9,30.9,0,0,1,14.044,3.519c1.893-2.951,3.6-6.063,3.683-9.623v-.037a27.122,27.122,0,0,0-5.389-1.181,83.344,83.344,0,0,0-10.274-1.041,72.726,72.726,0,0,0-11.225.854c-2.3.325-4.786.57-6.855,1.677,0,.02,0,.04.005.06a21.3,21.3,0,0,0,2.326,7.341Z" fill="#fcee9f"/>
        <g id="Group_190" data-name="Group 190" opacity="0.06">
          <path id="Path_889" data-name="Path 889" d="M719.184,603.8c-.248-.132-.484.238-.234.371,6.125,3.263,8.089,10.456,7.6,16.941a46.824,46.824,0,0,1-2.63,11.323c-.631,1.866-1.353,3.7-2.133,5.509-.676,1.567-1.584,3.261-3.327,3.79-.269.082-.169.509.1.427,3.036-.921,4.083-5,5.066-7.607a53.763,53.763,0,0,0,3.279-12.6C727.708,615.114,725.667,607.252,719.184,603.8Z"/>
          <path id="Path_890" data-name="Path 890" d="M718.606,642.078c-2.7-2.148-3.791-5.552-4.832-8.709a59,59,0,0,1-2.657-11.122c-.83-6.635.181-16.414,8.017-18.341a.219.219,0,0,0-.1-.427c-7.8,1.919-9.052,11.3-8.435,18a56.244,56.244,0,0,0,2.879,12.377c1.042,3.16,2.2,6.45,4.9,8.589C718.594,642.625,718.825,642.252,718.606,642.078Z"/>
          <path id="Path_891" data-name="Path 891" d="M718.4,623.039c-.158-6.388-.5-12.85.591-19.176.047-.275-.371-.409-.419-.131-1.07,6.232-.767,12.566-.62,18.859q.227,9.736.774,19.462c.016.28.454.3.438.015Q718.632,632.56,718.4,623.039Z"/>
          <path id="Path_892" data-name="Path 892" d="M718.906,641.905c-2.035.39-3.813-2.654-4.765-4a48.347,48.347,0,0,1-3.15-5.168,46.507,46.507,0,0,1-4.267-11.437c-.937-4.1-.891-8.568,1.583-12.133,2.3-3.311,6.536-4.246,10.232-5.029a.219.219,0,0,0-.1-.426c-3.923.831-7.98,1.846-10.5,5.221-2.653,3.553-2.523,8.347-1.639,12.469a46.469,46.469,0,0,0,5.034,12.871,48.617,48.617,0,0,0,3.571,5.414c.907,1.2,2.393,2.975,4.105,2.647C719.286,642.279,719.183,641.852,718.906,641.905Z"/>
          <path id="Path_893" data-name="Path 893" d="M728.25,608.94c-2.78-3.218-6.113-5.872-10.59-5.4-.28.03-.175.456.1.427,4.459-.473,7.675,2.386,10.4,5.544,2.862,3.313,3.336,7.836,2.73,12.015a33.834,33.834,0,0,1-4.107,11.462,36.519,36.519,0,0,1-3.126,4.651c-1.329,1.7-2.839,3.465-4.933,4.2-.264.093-.165.52.1.426a10.634,10.634,0,0,0,4.456-3.479,36.674,36.674,0,0,0,3.685-5.239,34.166,34.166,0,0,0,4.474-12.842,14.864,14.864,0,0,0-3.2-11.768Z"/>
        </g>
      </g>
    </g>
    <g id="Group_193" data-name="Group 193">
      <path id="Path_894" data-name="Path 894" d="M720.495,652.515a1.832,1.832,0,0,1-.71.177c-1.525.094-3.638.234-3.921-1.306-.148-.8-.633-2.419.4-2.849,1.134-.473,3.3-.283,4.561-.367a.555.555,0,0,1,.236.018.375.375,0,0,1,.173.164,2.545,2.545,0,0,1,.269,1.448C721.479,650.718,721.457,652.037,720.495,652.515Z" fill="#b3b3b3"/>
      <path id="Path_895" data-name="Path 895" d="M718.7,649.079c-.805-.826-1.1-2.421-1.5-3.484a18.374,18.374,0,0,1-1.277-3.725c-.038-.277-.463-.2-.425.079a18.71,18.71,0,0,0,1.314,3.835c.421,1.12.708,2.706,1.557,3.577C718.568,649.56,718.9,649.279,718.7,649.079Z" fill="#b3b3b3"/>
      <path id="Path_896" data-name="Path 896" d="M719.232,641.987a33.143,33.143,0,0,0-1.068,7.526.216.216,0,0,0,.432,0,32.646,32.646,0,0,1,1.053-7.411.216.216,0,0,0-.417-.115Z" fill="#b3b3b3"/>
      <path id="Path_897" data-name="Path 897" d="M721.6,641.009q-1.287,4.294-2.989,8.442c-.106.258.313.369.417.115q1.7-4.147,2.989-8.442a.216.216,0,0,0-.417-.115Z" fill="#b3b3b3"/>
    </g>
  </g>
</svg>
