<svg xmlns="http://www.w3.org/2000/svg" width="49.252" height="36.213" viewBox="0 0 49.252 36.213">
  <g id="Group_337" data-name="Group 337" transform="translate(-410.983 -358.533)">
    <path id="Path_1342" data-name="Path 1342" d="M413.647,359.788s-2.664.5-2.664,7.531.152,24.409,1.332,25.6c3.278,3.322,16.865,1.01,30.209,1.384s17.711-.128,17.711-4.145-1.213-24.6-1.213-27.864-.728-3.765-10.19-3.765S413.647,359.788,413.647,359.788Z" fill="#e6eeef"/>
    <path id="Path_1343" data-name="Path 1343" d="M426.794,368.575c-.2,4.011-.352,8.024-.343,12.037a27.743,27.743,0,0,0,.689,7.114,11.456,11.456,0,0,0,4.109-.566q.4-9.306.145-18.618Z" fill="#404151"/>
    <path id="Path_1344" data-name="Path 1344" d="M437.814,368.575c-.2,4.011-.352,8.024-.343,12.037a27.743,27.743,0,0,0,.689,7.114,11.456,11.456,0,0,0,4.109-.566q.4-9.306.145-18.618Z" fill="#404151"/>
  </g>
</svg>
