<svg xmlns="http://www.w3.org/2000/svg" width="43.911" height="42.634" viewBox="0 0 43.911 42.634">
  <g id="Group_235" data-name="Group 235" transform="translate(-413.653 -189.677)">
    <path id="Path_1068" data-name="Path 1068" d="M431.62,190.091s-9.743,2.175-14.307,8.883-4.535,15.272-1.694,21.8c3.183,7.32,8.056,10.453,15.477,11.275s15.619-.085,20.584-6.249,7.322-11.6,4.965-20.123S447.386,187.553,431.62,190.091Z" fill="#4c4c4c"/>
    <path id="Path_1069" data-name="Path 1069" d="M434.315,192.308s-13.99,1.818-16.905,14.658,4.694,20.77,14.46,22.091,22.021-1.7,22.752-16.8S441.61,190.113,434.315,192.308Z" fill="#fff"/>
    <g id="Group_233" data-name="Group 233">
      <path id="Path_1070" data-name="Path 1070" d="M434.817,193.488a.539.539,0,0,0-.539.539v2.334a.539.539,0,1,0,1.078,0v-2.334A.539.539,0,0,0,434.817,193.488Z" fill="#ccc"/>
      <path id="Path_1071" data-name="Path 1071" d="M434.817,225.592a.537.537,0,0,0-.538.537V228.1a.537.537,0,1,0,1.075,0v-1.971A.537.537,0,0,0,434.817,225.592Z" fill="#ccc"/>
      <path id="Path_1072" data-name="Path 1072" d="M453.5,211.856H450.9a.542.542,0,0,0,0,1.083H453.5a.542.542,0,0,0,0-1.083Z" fill="#ccc"/>
      <path id="Path_1073" data-name="Path 1073" d="M419.736,211.89h-1.971a.508.508,0,0,0,0,1.016h1.971a.508.508,0,0,0,0-1.016Z" fill="#ccc"/>
    </g>
    <g id="Group_234" data-name="Group 234">
      <path id="Path_1074" data-name="Path 1074" d="M436.014,214.137l-4.771-10.28a.508.508,0,0,0-.922.428l4.771,10.28a.508.508,0,0,0,.922-.428Z" fill="#a84749"/>
      <path id="Path_1075" data-name="Path 1075" d="M444.18,219.385l-7.574-5.6-.557-12.1a1.077,1.077,0,1,0-2.152.1l.58,12.614a1.08,1.08,0,0,0,.436.817l7.987,5.9a1.077,1.077,0,1,0,1.28-1.733Z" fill="#4c4c4c"/>
    </g>
  </g>
</svg>
