<svg xmlns="http://www.w3.org/2000/svg" width="52.056" height="33.303" viewBox="0 0 52.056 33.303">
  <g id="Group_362" data-name="Group 362" transform="translate(-409.581 -526.634)">
    <path id="Path_1430" data-name="Path 1430" d="M410.788,559.794q25.182.594,50.342-1.295a236.69,236.69,0,0,0-.06-31.859q-25.757-.121-51.472,1.744Q409.441,544.106,410.788,559.794Z" fill="#537082"/>
    <path id="Path_1431" data-name="Path 1431" d="M414.117,557.109a333.558,333.558,0,0,0,36.745-1.057,216.255,216.255,0,0,0-.044-26.019q-18.8-.1-37.57,1.424Q413.134,544.3,414.117,557.109Z" fill="#e6eeef"/>
    <g id="Group_361" data-name="Group 361">
      <path id="Path_1432" data-name="Path 1432" d="M458.691,532.29a20.656,20.656,0,0,0-5.649.813c-.189.057-.226.385,0,.419a20.476,20.476,0,0,0,5.649.011C459.459,533.432,459.517,532.279,458.691,532.29Z" opacity="0.15"/>
      <path id="Path_1433" data-name="Path 1433" d="M458.691,535.632a20.658,20.658,0,0,0-5.649.813c-.189.057-.226.385,0,.419a20.479,20.479,0,0,0,5.649.011C459.459,536.775,459.517,535.622,458.691,535.632Z" opacity="0.15"/>
      <path id="Path_1434" data-name="Path 1434" d="M458.691,539.375a20.656,20.656,0,0,0-5.649.813c-.189.057-.226.385,0,.419a20.476,20.476,0,0,0,5.649.011C459.459,540.518,459.517,539.364,458.691,539.375Z" opacity="0.15"/>
      <path id="Path_1435" data-name="Path 1435" d="M458.691,542.91a20.658,20.658,0,0,0-5.649.813c-.189.058-.226.385,0,.419a20.471,20.471,0,0,0,5.649.011C459.459,544.052,459.517,542.9,458.691,542.91Z" opacity="0.15"/>
    </g>
    <path id="Path_1436" data-name="Path 1436" d="M457.712,550.949c-.018-.283-.024-.566-.047-.849a7.513,7.513,0,0,0-.113-1.222c-.11-.427-.084-.4-.53-.462a21.783,21.783,0,0,0-2.552-.049.482.482,0,0,0-.585.593V549c-.023.771-.029,1.542-.027,2.313C455.143,551.2,456.43,551.1,457.712,550.949Z" opacity="0.22"/>
    <path id="Path_1437" data-name="Path 1437" d="M453.872,552.4c.012.65.022,1.3.051,1.948.01.232-.079.909.1,1.09.212.222.73.056,1.012.03l2.789-.256c.021-1.061,0-2.123-.048-3.184C456.474,552.18,455.172,552.285,453.872,552.4Z" opacity="0.51"/>
  </g>
</svg>
