<svg xmlns="http://www.w3.org/2000/svg" width="34.762" height="21.695" viewBox="0 0 34.762 21.695">
  <g id="Group_325" data-name="Group 325" transform="translate(-388.86 -555.008)">
    <g id="Group_322" data-name="Group 322">
      <line id="Line_1" data-name="Line 1" y1="0.068" x2="0.246" transform="translate(414.876 566.834)" fill="#41ac4c"/>
      <g id="Group_312" data-name="Group 312">
        <path id="Path_1104" data-name="Path 1104" d="M405.449,563.862l.085.346,1.806,7.482,1.89-7.828S406.92,560.988,405.449,563.862Z" fill="#f9b526"/>
        <path id="Path_1105" data-name="Path 1105" d="M407.711,571.779h-.743l-1.922-7.964.062-.127a2.263,2.263,0,0,1,1.975-1.485,3.814,3.814,0,0,1,2.444,1.417l.118.149Zm-1.857-7.866,1.484,6.148,1.474-6.1a2.83,2.83,0,0,0-1.729-1c-.466,0-.879.32-1.229.949Z" fill="#fff"/>
      </g>
      <path id="Path_1106" data-name="Path 1106" d="M399.852,564.806" fill="#74b748"/>
      <path id="Path_1107" data-name="Path 1107" d="M407.983,560.721s4.891.081,4.972,6.519,3.259,2.774,4.32,3.263,3.424,1.466-.815-3.915c0,0,3.58-2.014-2.12-5.054,0,0-2.647-7.927-5.054-4.726S405.864,556.727,407.983,560.721Z" fill="#74b748"/>
      <path id="Path_1108" data-name="Path 1108" d="M399.841,565.164s-4.512-5.022.01-5.257c0,0,3.058.128,2.271-3.843,0,0,1.048-3.486,4.581,2.207a1.936,1.936,0,0,0,1.979-.108,2.04,2.04,0,0,0,.222-.193c.919-.914.162,2.95-1.244,2.778a.848.848,0,0,1-.29-.091C405.782,559.86,401.624,560.521,399.841,565.164Z" fill="#97c240"/>
      <path id="Path_1109" data-name="Path 1109" d="M397.842,563.217s-4.776-.3-2.574,3.911c0,0,3.706,2.812,1,4.584,0,0-4.909,4.956,5.728,1.835,0,0,2.751-.244,1.161-2.566,0,0-5.074-1.345-3.3-5.317S397.842,563.217,397.842,563.217Z" fill="#74b748"/>
      <g id="Group_313" data-name="Group 313">
        <path id="Path_1110" data-name="Path 1110" d="M403.7,570.5s-2.077,3.2,3.162,3.25c0,0,1.235.04,1.872,1.748,0,0,1.7,1.825,2.9-1.459,0,0,.923-1.034,2.912,1.682,0,0,3.329,3.11,1.657-5.678C416.2,570.044,413.926,566.993,403.7,570.5Z" fill="#86bd45"/>
        <path id="Path_1111" data-name="Path 1111" d="M415.666,576.5h0a2.271,2.271,0,0,1-1.289-.6c-1.161-1.582-1.886-1.81-2.216-1.81a.541.541,0,0,0-.32.093c-.515,1.372-1.194,2.067-2.019,2.067a1.917,1.917,0,0,1-1.272-.588l-.05-.079c-.567-1.519-1.608-1.585-1.653-1.587-1.922-.017-3.136-.463-3.6-1.328a2.5,2.5,0,0,1,.243-2.3l.045-.068.08-.028a26.861,26.861,0,0,1,8.378-1.7c3.374,0,4.363,1.276,4.4,1.33l.035.043.009.057c.639,3.35.635,5.359-.009,6.137a.969.969,0,0,1-.765.367Zm-3.505-2.9c.753,0,1.62.663,2.581,1.972a1.755,1.755,0,0,0,.924.435h0a.477.477,0,0,0,.388-.189c.3-.365.689-1.584-.08-5.669-.185-.193-1.2-1.1-3.98-1.1a26.255,26.255,0,0,0-8.134,1.642,1.965,1.965,0,0,0-.18,1.742c.369.682,1.469,1.049,3.18,1.066a2.507,2.507,0,0,1,2.079,1.854,1.414,1.414,0,0,0,.883.4c.6,0,1.149-.621,1.582-1.8l.046-.077a.967.967,0,0,1,.711-.274Z" fill="#fff"/>
      </g>
      <g id="Group_314" data-name="Group 314">
        <path id="Path_1112" data-name="Path 1112" d="M403.462,564.81c6.521,6.008-.816,7.683-.816,7.683-7.825-.49-2.282-7.683-2.282-7.683Z" fill="#dbdc40"/>
        <path id="Path_1113" data-name="Path 1113" d="M402.666,572.739h-.036c-2.209-.138-3.607-.822-4.157-2.033-1.086-2.39,1.583-5.9,1.7-6.046l.074-.094h3.314l.071.064c2.181,2.009,3.085,3.786,2.689,5.274-.56,2.11-3.492,2.8-3.616,2.828Zm-2.18-7.683c-.41.565-2.441,3.524-1.568,5.447.467,1.028,1.713,1.614,3.705,1.744.313-.079,2.766-.756,3.221-2.473.341-1.283-.492-2.872-2.478-4.718Z" fill="#fff"/>
      </g>
      <path id="Path_1114" data-name="Path 1114" d="M400.5,564.85s.782.242,1.729-2.16c.964-2.441,1.022,2.16,1.022,2.16" fill="#69b447"/>
      <path id="Path_1115" data-name="Path 1115" d="M405.9,563.121l.938-.892-.7-1.315,1.323,1.262.43-1.069.119,1.253.857-.9.15,1.221,1.026-.361-1.351,1.105a2.035,2.035,0,0,0-2.8-.306Z" fill="#69b447"/>
      <g id="Group_315" data-name="Group 315">
        <path id="Path_1116" data-name="Path 1116" d="M408.146,567.928l3.456-3.618s4.111.871,4.173,1.332S408.146,567.928,408.146,567.928Z" fill="#f6dd4f"/>
        <path id="Path_1117" data-name="Path 1117" d="M408.192,567.883l7.583-2.241-.4,3.76-6.859,2.437-.325-3.849" fill="#f7ea51"/>
        <path id="Path_1118" data-name="Path 1118" d="M410.836,569.279a.572.572,0,1,0,.556-.435.5.5,0,0,0-.556.435Z" fill="#bcb53c"/>
        <path id="Path_1119" data-name="Path 1119" d="M413.356,567.949a.7.7,0,1,1-.7-.69.7.7,0,0,1,.7.69Z" fill="#bcb53c"/>
        <path id="Path_1120" data-name="Path 1120" d="M413.356,565.464c0,.211-.369.385-.827.385s-.827-.174-.827-.385.37-.387.827-.387S413.356,565.25,413.356,565.464Z" fill="#cec759"/>
        <path id="Path_1121" data-name="Path 1121" d="M415.127,568.831a.448.448,0,1,1-.448-.448.448.448,0,0,1,.448.448Z" fill="#cec759"/>
      </g>
      <path id="Path_1122" data-name="Path 1122" d="M399.754,570.169c0,.954-.579,1.725-1.294,1.725s-1.294-.771-1.294-1.725.579-1.729,1.294-1.729S399.754,569.215,399.754,570.169Z" fill="#f2f3c8"/>
      <g id="Group_317" data-name="Group 317">
        <path id="Path_1123" data-name="Path 1123" d="M411.423,571.939a4.09,4.09,0,1,1-4.084-3.864A3.979,3.979,0,0,1,411.423,571.939Z" fill="#de1f2b"/>
        <g id="Group_316" data-name="Group 316">
          <path id="Path_1124" data-name="Path 1124" d="M404.9,571.342l1.78-2.231-3.957-2.687,3.877,1.581,2.592-2.832-.12,2.54,2.893.978-2.379.325.775,3.428-2.619-2.6-.385-.382Z" fill="#41ac4c"/>
          <path id="Path_1125" data-name="Path 1125" d="M410.469,572.648l-3.122-3.1-2.412,1.844-.09-.093,1.736-2.173-3.9-2.651.062-.113,3.834,1.565L409.259,565l-.126,2.672,2.847.96-.011.127-2.308.317Zm-3.11-3.269.425.421,2.461,2.441-.742-3.28,2.176-.3L409,567.758l0-.047.11-2.36-2.5,2.734-.043-.017-3.3-1.353,3.5,2.383-.043.053-1.453,1.82Z" fill="#fff"/>
        </g>
      </g>
      <path id="Path_1126" data-name="Path 1126" d="M400.986,572.451a1.67,1.67,0,1,1,.378-2.645,1.928,1.928,0,0,1-.378,2.646Z" fill="#f7ee8a"/>
      <g id="Group_319" data-name="Group 319">
        <path id="Path_1127" data-name="Path 1127" d="M389.083,575.386" fill="#65b348"/>
        <g id="Group_318" data-name="Group 318">
          <path id="Path_1128" data-name="Path 1128" d="M395.464,571.956s-1.742,2.256-.347,3.269c0,0,.425,2.708-1.33.381C393.787,575.607,393.341,572.608,395.464,571.956Z" fill="#65b348"/>
          <path id="Path_1129" data-name="Path 1129" d="M395.159,571.732" fill="#65b348"/>
          <path id="Path_1130" data-name="Path 1130" d="M392.412,571.067c-.374-.873.77-.614,1.336-.28s.9.888,1.411.762S393.021,572.491,392.412,571.067Z" fill="#65b348"/>
          <path id="Path_1131" data-name="Path 1131" d="M394.606,571.956s-1.349.756-1.265,1.907-1.372.667-1,0S393.346,571.766,394.606,571.956Z" fill="#65b348"/>
          <path id="Path_1132" data-name="Path 1132" d="M393.443,571.956" fill="#65b348"/>
          <path id="Path_1133" data-name="Path 1133" d="M392.337,571.335c-.536-.268-1.208-.93-1.183.183.021.969,2.187.368,2.1.438Z" fill="#65b348"/>
          <path id="Path_1134" data-name="Path 1134" d="M393.26,572.075a2.638,2.638,0,0,0-1.144,1.5s-.878.693-.688-.331S393.262,572.2,393.26,572.075Z" fill="#65b348"/>
          <path id="Path_1135" data-name="Path 1135" d="M391.356,572.117a1.452,1.452,0,0,1-1.079-.948s-.75-.773-1.3-.291a1.885,1.885,0,0,0,.5,1.071,1.655,1.655,0,0,0,1.882.168Z" fill="#65b348"/>
          <path id="Path_1136" data-name="Path 1136" d="M391.546,572.448a1.878,1.878,0,0,0-.455,1.668s-.72.54-.74-.128C390.35,573.987,390.382,572.582,391.546,572.448Z" fill="#65b348"/>
          <path id="Path_1137" data-name="Path 1137" d="M390.678,572.678s-.728-.074-.846-.231c0,0-.866-.716-.972.1C388.861,572.552,389.293,573.631,390.678,572.678Z" fill="#65b348"/>
          <path id="Path_1138" data-name="Path 1138" d="M390.435,572.982a.974.974,0,0,0-.212,1.491c.666.982-.132,1.086-.019,1.047,0,0-.678.21-.667-.446,0,0,.052-1.771.686-2S390.435,572.982,390.435,572.982Z" fill="#65b348"/>
        </g>
      </g>
      <g id="Group_321" data-name="Group 321">
        <path id="Path_1139" data-name="Path 1139" d="M423.4,575.643" fill="#65b348"/>
        <g id="Group_320" data-name="Group 320">
          <path id="Path_1140" data-name="Path 1140" d="M416.408,572.521c.468.542,2.61,1.51.352,2.978,0,0,.058,2.46,1.847.346C418.606,575.845,418.57,573.115,416.408,572.521Z" fill="#65b348"/>
          <path id="Path_1141" data-name="Path 1141" d="M416.719,572.317" fill="#65b348"/>
          <path id="Path_1142" data-name="Path 1142" d="M419.517,571.713c.38-.8-.782-.557-1.362-.253s-.921.8-1.437.69S418.9,573.009,419.517,571.713Z" fill="#65b348"/>
          <path id="Path_1143" data-name="Path 1143" d="M417.77,572.521s1.375.688,1.288,1.735,1.4.609,1.022,0S419.054,572.349,417.77,572.521Z" fill="#65b348"/>
          <path id="Path_1144" data-name="Path 1144" d="M418.956,572.521" fill="#65b348"/>
          <path id="Path_1145" data-name="Path 1145" d="M419.591,571.956c.548-.244,1.232-.846,1.208.166-.021.884-1.74.334-1.653.4Z" fill="#65b348"/>
          <path id="Path_1146" data-name="Path 1146" d="M419.143,572.631A2.484,2.484,0,0,1,420.307,574s.894.631.7-.3S419.139,572.742,419.143,572.631Z" fill="#65b348"/>
          <path id="Path_1147" data-name="Path 1147" d="M421.082,572.669s.246-.076.61-.864c0,0,.765-.7,1.325-.266,0,0,.412.644-.017.979a1.842,1.842,0,0,1-1.917.151Z" fill="#65b348"/>
          <path id="Path_1148" data-name="Path 1148" d="M420.889,572.969a1.608,1.608,0,0,1,.463,1.517s.733.491.754-.113A1.43,1.43,0,0,0,420.889,572.969Z" fill="#65b348"/>
          <path id="Path_1149" data-name="Path 1149" d="M421.771,573.181s.743-.068.862-.211c0,0,.883-.654.99.1C423.623,573.066,423.183,574.044,421.771,573.181Z" fill="#65b348"/>
          <path id="Path_1150" data-name="Path 1150" d="M422.019,573.457a.839.839,0,0,1,.216,1.355c-.678.9.136.992.019.952,0,0,.691.191.682-.4,0,0-.055-1.61-.7-1.821S422.019,573.457,422.019,573.457Z" fill="#65b348"/>
        </g>
      </g>
    </g>
  </g>
</svg>
