<svg xmlns="http://www.w3.org/2000/svg" width="116.07" height="114.889" viewBox="0 0 116.07 114.889">
  <g id="Group_2209" data-name="Group 2209" transform="translate(-265.476 -1509.748)">
    <path id="Path_9892" data-name="Path 9892" d="M323.511,1624.637c2.9-3.123,10.087-14.147,7.6-24.738-1.51-6.442-5.523-7.708-7.6-7.708s-6.093,1.265-7.6,7.708C313.424,1610.491,320.612,1621.515,323.511,1624.637Zm-31.7-9.308c4.128-1.059,16.134-6.448,19.771-16.7,2.212-6.236-.479-9.47-2.23-10.595s-5.81-2.23-10.564,2.373c-7.815,7.567-7.728,20.727-6.977,24.922Zm-21.635-24.968c4.045,1.34,17.059,3.3,25.661-3.36,5.233-4.05,4.717-8.226,3.852-10.118s-3.682-5.017-10.17-3.715C278.856,1575.31,271.814,1586.427,270.178,1590.362Zm-4.7-32.7c2.678,3.314,12.567,12,23.4,11.047,6.592-.578,8.415-4.37,8.711-6.429s-.385-6.211-6.547-8.623C280.914,1549.69,268.98,1555.235,265.476,1557.661ZM279.2,1527.61c.461,4.236,4.086,16.887,13.716,21.946,5.858,3.077,9.442.873,10.8-.7s3.034-5.433-.846-10.794C296.5,1529.25,283.459,1527.463,279.2,1527.61Zm27.793-17.861c-1.9,3.813-5.693,16.416-.326,25.878,3.264,5.756,7.471,5.839,9.467,5.253s5.49-2.931,5.124-9.537c-.6-10.862-10.6-19.415-14.265-21.594Zm33.037,0c-3.662,2.179-13.664,10.732-14.265,21.594-.366,6.607,3.128,8.951,5.124,9.537s6.2.5,9.467-5.253c5.367-9.463,1.576-22.065-.326-25.878Zm27.793,17.861c-4.259-.146-17.3,1.641-23.675,10.453-3.88,5.36-2.208,9.221-.846,10.794s4.946,3.776,10.8.7c9.63-5.059,13.255-17.71,13.716-21.946Zm13.724,30.052c-3.5-2.426-15.438-7.971-25.568-4.006-6.162,2.412-6.843,6.564-6.547,8.623s2.12,5.851,8.711,6.429c10.837.95,20.726-7.733,23.4-11.047Zm-4.7,32.7c-1.636-3.935-8.678-15.052-19.344-17.193-6.488-1.3-9.305,1.822-10.17,3.715s-1.38,6.068,3.852,10.118c8.6,6.658,21.617,4.7,25.661,3.359ZM355.21,1615.33c.751-4.195.837-17.354-6.978-24.922-4.754-4.6-8.813-3.5-10.564-2.373s-4.442,4.359-2.23,10.595C339.076,1608.882,351.082,1614.27,355.21,1615.33Zm-31.7-20.238c3.812,0,6.585,6.555,0,18.812-6.585-12.257-3.812-18.812,0-18.812Zm-15.725-4.617c3.207,2.061,2,9.074-10.17,15.825,1.087-13.872,6.963-17.887,10.17-15.826Zm-10.733-12.386c1.584,3.468-3.227,8.713-17.112,7.815,8.414-11.082,15.529-11.282,17.112-7.815Zm-2.332-16.222c-.543,3.773-7.425,5.585-18.62-2.677,13.069-4.774,19.163-1.1,18.62,2.677Zm6.808-14.908c-2.5,2.881-9.266.684-14.217-12.319,13.576,3.05,16.713,9.438,14.217,12.319Zm13.788-8.861c-3.658,1.074-8.165-4.434-5.3-18.05,9.772,9.906,8.958,16.976,5.3,18.05Zm16.389,0c-3.658-1.074-4.471-8.144,5.3-18.05,2.865,13.616-1.642,19.124-5.3,18.05Zm13.788,8.861c-2.5-2.881.642-9.269,14.217-12.319-4.951,13-11.72,15.2-14.217,12.319Zm6.808,14.908c-.543-3.773,5.551-7.451,18.62-2.677-11.195,8.262-18.077,6.45-18.62,2.677Zm-2.332,16.223c1.584-3.468,8.7-3.267,17.112,7.815-13.885.9-18.7-4.347-17.112-7.815Zm-10.733,12.386c3.207-2.061,9.083,1.954,10.17,15.825-12.166-6.751-13.377-13.765-10.17-15.826Z" fill="#1f1f1f"/>
    <path id="Path_9893" data-name="Path 9893" d="M323.511,1624.637c2.9-3.123,10.087-14.147,7.6-24.738-1.51-6.442-5.523-7.708-7.6-7.708s-6.093,1.265-7.6,7.708C313.424,1610.491,320.612,1621.515,323.511,1624.637Zm-31.7-9.308c4.128-1.059,16.134-6.448,19.771-16.7,2.212-6.236-.479-9.47-2.23-10.595s-5.81-2.23-10.564,2.373c-7.815,7.567-7.728,20.727-6.977,24.922Zm-21.635-24.968c4.045,1.34,17.059,3.3,25.661-3.36,5.233-4.05,4.717-8.226,3.852-10.118s-3.682-5.017-10.17-3.715C278.856,1575.31,271.814,1586.427,270.178,1590.362Zm-4.7-32.7c2.678,3.314,12.567,12,23.4,11.047,6.592-.578,8.415-4.37,8.711-6.429s-.385-6.211-6.547-8.623C280.914,1549.69,268.98,1555.235,265.476,1557.661ZM279.2,1527.61c.461,4.236,4.086,16.887,13.716,21.946,5.858,3.077,9.442.873,10.8-.7s3.034-5.433-.846-10.794C296.5,1529.25,283.459,1527.463,279.2,1527.61Zm27.793-17.861c-1.9,3.813-5.693,16.416-.326,25.878,3.264,5.756,7.471,5.839,9.467,5.253s5.49-2.931,5.124-9.537c-.6-10.862-10.6-19.415-14.265-21.594Zm33.037,0c-3.662,2.179-13.664,10.732-14.265,21.594-.366,6.607,3.128,8.951,5.124,9.537s6.2.5,9.467-5.253c5.367-9.463,1.576-22.065-.326-25.878Zm27.793,17.861c-4.259-.146-17.3,1.641-23.675,10.453-3.88,5.36-2.208,9.221-.846,10.794s4.946,3.776,10.8.7c9.63-5.059,13.255-17.71,13.716-21.946Zm13.724,30.052c-3.5-2.426-15.438-7.971-25.568-4.006-6.162,2.412-6.843,6.564-6.547,8.623s2.12,5.851,8.711,6.429c10.837.95,20.726-7.733,23.4-11.047Zm-4.7,32.7c-1.636-3.935-8.678-15.052-19.344-17.193-6.488-1.3-9.305,1.822-10.17,3.715s-1.38,6.068,3.852,10.118c8.6,6.658,21.617,4.7,25.661,3.359ZM355.21,1615.33c.751-4.195.837-17.354-6.978-24.922-4.754-4.6-8.813-3.5-10.564-2.373s-4.442,4.359-2.23,10.595C339.076,1608.882,351.082,1614.27,355.21,1615.33Zm-31.7-20.238c3.812,0,6.585,6.555,0,18.812-6.585-12.257-3.812-18.812,0-18.812Zm-15.725-4.617c3.207,2.061,2,9.074-10.17,15.825,1.087-13.872,6.963-17.887,10.17-15.826Zm-10.733-12.386c1.584,3.468-3.227,8.713-17.112,7.815,8.414-11.082,15.529-11.282,17.112-7.815Zm-2.332-16.222c-.543,3.773-7.425,5.585-18.62-2.677,13.069-4.774,19.163-1.1,18.62,2.677Zm6.808-14.908c-2.5,2.881-9.266.684-14.217-12.319,13.576,3.05,16.713,9.438,14.217,12.319Zm13.788-8.861c-3.658,1.074-8.165-4.434-5.3-18.05,9.772,9.906,8.958,16.976,5.3,18.05Zm16.389,0c-3.658-1.074-4.471-8.144,5.3-18.05,2.865,13.616-1.642,19.124-5.3,18.05Zm13.788,8.861c-2.5-2.881.642-9.269,14.217-12.319-4.951,13-11.72,15.2-14.217,12.319Zm6.808,14.908c-.543-3.773,5.551-7.451,18.62-2.677-11.195,8.262-18.077,6.45-18.62,2.677Zm-2.332,16.223c1.584-3.468,8.7-3.267,17.112,7.815-13.885.9-18.7-4.347-17.112-7.815Zm-10.733,12.386c3.207-2.061,9.083,1.954,10.17,15.825-12.166-6.751-13.377-13.765-10.17-15.826Z" fill="#1f1f1f"/>
    <path id="Path_9894" data-name="Path 9894" d="M323.511,1624.637c2.9-3.123,10.087-14.147,7.6-24.738-1.51-6.442-5.523-7.708-7.6-7.708s-6.093,1.265-7.6,7.708C313.424,1610.491,320.612,1621.515,323.511,1624.637Zm-31.7-9.308c4.128-1.059,16.134-6.448,19.771-16.7,2.212-6.236-.479-9.47-2.23-10.595s-5.81-2.23-10.564,2.373c-7.815,7.567-7.728,20.727-6.977,24.922Zm-21.635-24.968c4.045,1.34,17.059,3.3,25.661-3.36,5.233-4.05,4.717-8.226,3.852-10.118s-3.682-5.017-10.17-3.715C278.856,1575.31,271.814,1586.427,270.178,1590.362Zm-4.7-32.7c2.678,3.314,12.567,12,23.4,11.047,6.592-.578,8.415-4.37,8.711-6.429s-.385-6.211-6.547-8.623C280.914,1549.69,268.98,1555.235,265.476,1557.661ZM279.2,1527.61c.461,4.236,4.086,16.887,13.716,21.946,5.858,3.077,9.442.873,10.8-.7s3.034-5.433-.846-10.794C296.5,1529.25,283.459,1527.463,279.2,1527.61Zm27.793-17.861c-1.9,3.813-5.693,16.416-.326,25.878,3.264,5.756,7.471,5.839,9.467,5.253s5.49-2.931,5.124-9.537c-.6-10.862-10.6-19.415-14.265-21.594Zm33.037,0c-3.662,2.179-13.664,10.732-14.265,21.594-.366,6.607,3.128,8.951,5.124,9.537s6.2.5,9.467-5.253c5.367-9.463,1.576-22.065-.326-25.878Zm27.793,17.861c-4.259-.146-17.3,1.641-23.675,10.453-3.88,5.36-2.208,9.221-.846,10.794s4.946,3.776,10.8.7c9.63-5.059,13.255-17.71,13.716-21.946Zm13.724,30.052c-3.5-2.426-15.438-7.971-25.568-4.006-6.162,2.412-6.843,6.564-6.547,8.623s2.12,5.851,8.711,6.429c10.837.95,20.726-7.733,23.4-11.047Zm-4.7,32.7c-1.636-3.935-8.678-15.052-19.344-17.193-6.488-1.3-9.305,1.822-10.17,3.715s-1.38,6.068,3.852,10.118c8.6,6.658,21.617,4.7,25.661,3.359ZM355.21,1615.33c.751-4.195.837-17.354-6.978-24.922-4.754-4.6-8.813-3.5-10.564-2.373s-4.442,4.359-2.23,10.595C339.076,1608.882,351.082,1614.27,355.21,1615.33Zm-31.7-20.238c3.812,0,6.585,6.555,0,18.812-6.585-12.257-3.812-18.812,0-18.812Zm-15.725-4.617c3.207,2.061,2,9.074-10.17,15.825,1.087-13.872,6.963-17.887,10.17-15.826Zm-10.733-12.386c1.584,3.468-3.227,8.713-17.112,7.815,8.414-11.082,15.529-11.282,17.112-7.815Zm-2.332-16.222c-.543,3.773-7.425,5.585-18.62-2.677,13.069-4.774,19.163-1.1,18.62,2.677Zm6.808-14.908c-2.5,2.881-9.266.684-14.217-12.319,13.576,3.05,16.713,9.438,14.217,12.319Zm13.788-8.861c-3.658,1.074-8.165-4.434-5.3-18.05,9.772,9.906,8.958,16.976,5.3,18.05Zm16.389,0c-3.658-1.074-4.471-8.144,5.3-18.05,2.865,13.616-1.642,19.124-5.3,18.05Zm13.788,8.861c-2.5-2.881.642-9.269,14.217-12.319-4.951,13-11.72,15.2-14.217,12.319Zm6.808,14.908c-.543-3.773,5.551-7.451,18.62-2.677-11.195,8.262-18.077,6.45-18.62,2.677Zm-2.332,16.223c1.584-3.468,8.7-3.267,17.112,7.815-13.885.9-18.7-4.347-17.112-7.815Zm-10.733,12.386c3.207-2.061,9.083,1.954,10.17,15.825-12.166-6.751-13.377-13.765-10.17-15.826Z" fill="#1f1f1f"/>
    <g id="Group_2208" data-name="Group 2208">
      <path id="Path_9895" data-name="Path 9895" d="M323.511,1590.285a24.195,24.195,0,1,0-24.195-24.195,24.195,24.195,0,0,0,24.195,24.195Zm0-45a20.8,20.8,0,1,1-20.8,20.8,20.8,20.8,0,0,1,20.8-20.8Z" fill="#1f1f1f"/>
      <path id="Path_9896" data-name="Path 9896" d="M321.913,1569.962h3.541a.822.822,0,0,0,.712-.411l1.771-3.067a.822.822,0,0,0,0-.822l-1.771-3.067a.822.822,0,0,0-.712-.411h-3.541a.822.822,0,0,0-.712.411l-1.771,3.067a.822.822,0,0,0,0,.822l1.771,3.067a.822.822,0,0,0,.712.411Z" fill="#1f1f1f"/>
      <path id="Path_9897" data-name="Path 9897" d="M319.655,1575.7l1.627,2.818a.894.894,0,0,0,.774.447h3.254a.893.893,0,0,0,.774-.447l1.627-2.818a.894.894,0,0,0,0-.894l-1.627-2.818a.894.894,0,0,0-.774-.447h-3.254a.894.894,0,0,0-.774.447l-1.627,2.818a.894.894,0,0,0,0,.894Z" fill="#1f1f1f"/>
      <path id="Path_9898" data-name="Path 9898" d="M325.751,1580.716a1.073,1.073,0,0,0-.929-.536h-2.276a1.072,1.072,0,0,0-.929.536l-1.138,1.971a1.073,1.073,0,0,0,0,1.073l.931,1.612a1.791,1.791,0,0,0,1.551.9h1.4a1.864,1.864,0,0,0,1.614-.932l.91-1.576a1.073,1.073,0,0,0,0-1.073Z" fill="#1f1f1f"/>
      <path id="Path_9899" data-name="Path 9899" d="M326.068,1553.767a.834.834,0,0,0-.723-.417h-3.323a.834.834,0,0,0-.723.417l-1.661,2.878a.834.834,0,0,0,0,.834l1.661,2.878a.834.834,0,0,0,.723.417h3.323a.834.834,0,0,0,.722-.417l1.661-2.878a.835.835,0,0,0,0-.834Z" fill="#1f1f1f"/>
      <path id="Path_9900" data-name="Path 9900" d="M305.39,1569.164a1.819,1.819,0,0,0,1.575.91H309.9a1.072,1.072,0,0,0,.929-.536l1.682-2.914a1.072,1.072,0,0,0,0-1.073l-1.682-2.914a1.073,1.073,0,0,0-.929-.536h-2.935a1.82,1.82,0,0,0-1.575.91,6.155,6.155,0,0,0,0,6.154Z" fill="#1f1f1f"/>
      <path id="Path_9901" data-name="Path 9901" d="M340.4,1562.188h-2.847a1.075,1.075,0,0,0-.931.537l-1.63,2.824a1.075,1.075,0,0,0,0,1.075l1.63,2.824a1.075,1.075,0,0,0,.931.537H340.4a1.791,1.791,0,0,0,1.551-.9,6.006,6.006,0,0,0,0-6.006A1.792,1.792,0,0,0,340.4,1562.188Z" fill="#1f1f1f"/>
      <path id="Path_9902" data-name="Path 9902" d="M318.4,1576.116a1.073,1.073,0,0,0-.929-.536h-3.365a1.072,1.072,0,0,0-.929.536l-1.475,2.555a1.791,1.791,0,0,0,0,1.791,6.182,6.182,0,0,0,5.354,3.091,1.791,1.791,0,0,0,1.551-.9l1.475-2.555a1.072,1.072,0,0,0,0-1.073Z" fill="#1f1f1f"/>
      <path id="Path_9903" data-name="Path 9903" d="M327.218,1552.962l1.63,2.824a1.075,1.075,0,0,0,.931.537h3.262a1.075,1.075,0,0,0,.931-.537l1.416-2.452a1.819,1.819,0,0,0,0-1.819l-.682-1.182a3.614,3.614,0,0,0-3.13-1.807h-1.365a1.819,1.819,0,0,0-1.575.91l-1.416,2.452A1.074,1.074,0,0,0,327.218,1552.962Z" fill="#1f1f1f"/>
      <path id="Path_9904" data-name="Path 9904" d="M334.051,1576.257a1.073,1.073,0,0,0-.929-.536h-3.367a1.073,1.073,0,0,0-.929.536l-1.684,2.916a1.072,1.072,0,0,0,0,1.073l1.476,2.557a1.791,1.791,0,0,0,1.551.9,6.185,6.185,0,0,0,5.357-3.093,1.791,1.791,0,0,0,0-1.791Z" fill="#1f1f1f"/>
      <path id="Path_9905" data-name="Path 9905" d="M313.284,1555.94a1.075,1.075,0,0,0,.931.537h3.261a1.075,1.075,0,0,0,.931-.537l1.63-2.824a1.074,1.074,0,0,0,0-1.074l-1.415-2.452a1.819,1.819,0,0,0-1.575-.909,5.978,5.978,0,0,0-5.177,2.989,1.819,1.819,0,0,0,0,1.819Z" fill="#1f1f1f"/>
      <path id="Path_9906" data-name="Path 9906" d="M321.528,1551.751a1.074,1.074,0,0,0,.931.537h2.45a1.075,1.075,0,0,0,.931-.537l1.225-2.122a1.075,1.075,0,0,0,0-1.075l-1.018-1.763a1.791,1.791,0,0,0-1.551-.9h-1.622a1.791,1.791,0,0,0-1.551.9l-1.018,1.763a1.075,1.075,0,0,0,0,1.075Z" fill="#1f1f1f"/>
      <path id="Path_9907" data-name="Path 9907" d="M329.973,1574.375H333.3a.834.834,0,0,0,.723-.417l1.661-2.878a.835.835,0,0,0,0-.834l-1.661-2.878a.834.834,0,0,0-.723-.417h-3.323a.834.834,0,0,0-.722.417l-1.662,2.878a.834.834,0,0,0,0,.834l1.661,2.878A.834.834,0,0,0,329.973,1574.375Z" fill="#1f1f1f"/>
      <path id="Path_9908" data-name="Path 9908" d="M340.6,1572.141a1.074,1.074,0,0,0-.931-.537h-2.274a1.074,1.074,0,0,0-.931.537l-1.137,1.969a1.074,1.074,0,0,0,0,1.074l1.137,1.969a1.075,1.075,0,0,0,.931.537h1.86a1.791,1.791,0,0,0,1.551-.9l.723-1.253a1.792,1.792,0,0,0,0-1.791Z" fill="#1f1f1f"/>
      <path id="Path_9909" data-name="Path 9909" d="M317.541,1557.855h-3.323a.834.834,0,0,0-.722.417l-1.661,2.878a.834.834,0,0,0,0,.834l1.661,2.878a.834.834,0,0,0,.723.417h3.323a.835.835,0,0,0,.722-.417l1.662-2.878a.835.835,0,0,0,0-.834l-1.661-2.878A.834.834,0,0,0,317.541,1557.855Z" fill="#1f1f1f"/>
      <path id="Path_9910" data-name="Path 9910" d="M306.829,1560.242a1.073,1.073,0,0,0,.929.536h2.452a1.073,1.073,0,0,0,.929-.536l1.225-2.123a1.074,1.074,0,0,0,0-1.075l-1.225-2.122a1.075,1.075,0,0,0-.931-.537h-2.036a1.791,1.791,0,0,0-1.551.9l-.811,1.4a1.792,1.792,0,0,0,0,1.791Z" fill="#1f1f1f"/>
      <path id="Path_9911" data-name="Path 9911" d="M335.68,1561.066l-1.661-2.878a.834.834,0,0,0-.723-.417h-3.323a.834.834,0,0,0-.722.417l-1.661,2.878a.834.834,0,0,0,0,.834l1.661,2.878a.835.835,0,0,0,.722.417H333.3a.835.835,0,0,0,.722-.417l1.662-2.878A.834.834,0,0,0,335.68,1561.066Z" fill="#1f1f1f"/>
      <path id="Path_9912" data-name="Path 9912" d="M335.325,1558.035l1.137,1.969a1.075,1.075,0,0,0,.931.537h2.274a1.075,1.075,0,0,0,.931-.537l.93-1.611a1.792,1.792,0,0,0,0-1.791l-.7-1.22a1.856,1.856,0,0,0-1.608-.928h-1.823a1.075,1.075,0,0,0-.931.537l-1.137,1.969a1.075,1.075,0,0,0,0,1.075Z" fill="#1f1f1f"/>
      <path id="Path_9913" data-name="Path 9913" d="M311.834,1571l1.661,2.878a.834.834,0,0,0,.722.417h3.323a.835.835,0,0,0,.722-.417l1.662-2.878a.834.834,0,0,0,0-.834l-1.661-2.878a.834.834,0,0,0-.723-.417h-3.323a.834.834,0,0,0-.722.417l-1.661,2.878a.834.834,0,0,0,0,.834Z" fill="#1f1f1f"/>
      <path id="Path_9914" data-name="Path 9914" d="M312.365,1574.027l-1.226-2.124a1.073,1.073,0,0,0-.929-.536h-2.452a1.072,1.072,0,0,0-.929.536l-1.019,1.764a1.791,1.791,0,0,0,0,1.791l.811,1.4a1.791,1.791,0,0,0,1.551.9h2.037a1.072,1.072,0,0,0,.929-.536l1.226-2.124A1.073,1.073,0,0,0,312.365,1574.027Z" fill="#1f1f1f"/>
    </g>
  </g>
</svg>
