<svg xmlns="http://www.w3.org/2000/svg" xmlns:xlink="http://www.w3.org/1999/xlink" width="70.368" height="65.214" viewBox="0 0 70.368 65.214">
  <defs>
    <linearGradient id="linear-gradient" x1="0.5" y1="1.146" x2="0.5" y2="-0.153" gradientUnits="objectBoundingBox">
      <stop offset="0" stop-color="#fed529"/>
      <stop offset="0.511" stop-color="#d8559f"/>
      <stop offset="1" stop-color="#23baea"/>
    </linearGradient>
  </defs>
  <path id="Path_272" data-name="Path 272" d="M1132.6,199.684c-2.732-1.691-6.164-1.592-9.818-.034a34.132,34.132,0,0,1,1.579,4.929,8.15,8.15,0,0,1,5.044,1.133c6.8,4.209,6.507,18.571-.654,32.079-6.2,11.69-15.508,18.908-22.309,17.913,7.351-2.007,14.464-13.726,16.884-28.856,2.817-17.622-1.8-33.195-10.311-34.784-3.077-.574-6.243.758-9.164,3.526a30.948,30.948,0,0,1,2.6,3.392c.151.227.3.46.448.692a8.085,8.085,0,0,1,5.024-.763,9.2,9.2,0,0,1,5.619,3.864,40.942,40.942,0,0,0-6.24,5.975q.479,1.294.907,2.641a27.47,27.47,0,0,1,7.217-5.359c2.585,5.7,3.492,14.179,2.039,23.264-2.123,13.276-8.587,23.5-15.293,25.077,6.272-4.6,9.246-18.244,6.73-33.355-2.93-17.6-12.2-30.528-20.7-28.876-3.05.593-5.588,2.981-7.452,6.615a29.076,29.076,0,0,1,4.188,2.719,8.425,8.425,0,0,1,4.4-2.5,8.711,8.711,0,0,1,6.5,1.553,46.049,46.049,0,0,0-4.629,9.7c-7.658-9.49-16.726-13.99-22.549-10.33-7.467,4.695-6.771,21.03,1.554,36.486s21.127,24.178,28.594,19.485c7.5,4.639,20.242-4.18,28.468-19.7S1140.095,204.323,1132.6,199.684Zm-29.958,3.216a31.434,31.434,0,0,1,5.9,9.356,61.472,61.472,0,0,0-4.413,7.125q-.758,1.43-1.43,2.866-.68-1.43-1.446-2.856a61.469,61.469,0,0,0-4.459-7.091,31.44,31.44,0,0,1,5.845-9.4Zm-25.887,35.085c-7.247-13.455-7.631-27.814-.858-32.073a8.66,8.66,0,0,1,6.6-.942,56.1,56.1,0,0,0-.39,22.032c2.516,15.111,9.7,26.779,17.067,28.73C1092.38,256.777,1083.025,249.629,1076.754,237.984Zm7.233-8.549c-1.509-9.075-.657-17.559,1.893-23.279a29.056,29.056,0,0,1,8.51,6.609,64.6,64.6,0,0,0-1.893,8.328c-2.419,15.129.643,28.749,6.944,33.3C1092.725,252.869,1086.2,242.7,1083.987,229.436Zm9.507-5.36a52.861,52.861,0,0,1,2.431-9.545,49.75,49.75,0,0,1,5.358,8.032q.355.656.685,1.314c-5.146,11.86-5.831,23.5-1.854,29.366-5.829-3.917-8.742-15.891-6.619-29.167Zm9.309,30.091c-5.66-4.374-5.637-16.592-.092-28.749,5.624,12.116,5.725,24.334.092,28.749Zm.644-30.3q.327-.661.677-1.32a49.835,49.835,0,0,1,5.306-8.069,52.908,52.908,0,0,1,2.492,9.525c2.208,13.26-.632,25.254-6.435,29.215,3.94-5.9,3.182-17.529-2.04-29.351Z" transform="translate(-1067.487 -191.933)" fill="url(#linear-gradient)"/>
</svg>
