<svg xmlns="http://www.w3.org/2000/svg" xmlns:xlink="http://www.w3.org/1999/xlink" width="96.144" height="101.038" viewBox="0 0 96.144 101.038">
  <defs>
    <radialGradient id="radial-gradient" cx="0.868" cy="0.696" r="0.898" gradientTransform="translate(-0.011) scale(1.023 1)" gradientUnits="objectBoundingBox">
      <stop offset="0" stop-color="#7ac737"/>
      <stop offset="1" stop-color="#aad184"/>
    </radialGradient>
  </defs>
  <g id="Group_2426" data-name="Group 2426" transform="translate(-11.887 -143.851)">
    <path id="Path_11167" data-name="Path 11167" d="M39.173,236.161A56.344,56.344,0,0,0,47.9,213.89c-7.434-.216-14-.628-19.064-1.2-8.361-.939-10.515-2.044-11.407-2.793l-.082-.069-.069-.082c-3.068-3.654-4.161-17.986-4.161-30.18s1.093-26.525,4.161-30.179l.069-.082.082-.069c.616-.517,2.491-2.091,15.461-3.188,7.418-.627,17.032-.973,27.071-.973s19.653.345,27.071.973c12.969,1.1,14.844,2.671,15.46,3.188l.082.069.069.082c3.068,3.654,4.16,17.986,4.16,30.179s-1.093,26.525-4.16,30.179l-.069.082-.082.069c-.947.795-3.283,1.962-12.6,2.921-5.853.6-13.4,1-21.86,1.164-4.858,7.048-11.883,13.115-16.982,17a104.592,104.592,0,0,1-10.274,6.971l-5.11,2.932Z" fill="url(#radial-gradient)"/>
    <path id="Path_11168" data-name="Path 11168" d="M59.958,146.307c19.333,0,38.666,1.291,41.742,3.873,5.164,6.151,5.164,52.628,0,58.78-2.681,2.251-17.715,3.52-34.333,3.809-9.237,13.811-27.208,24.123-27.208,24.123a57.189,57.189,0,0,0,9.16-24.192c-15.3-.39-28.6-1.636-31.1-3.74-5.164-6.151-5.164-52.628,0-58.78,3.076-2.582,22.409-3.873,41.742-3.873m0-2.456c-10.073,0-19.723.347-27.175.977-11.839,1-14.848,2.381-16.147,3.471l-.164.138-.138.164c-.994,1.184-2.435,3.738-3.462,12.2a179.139,179.139,0,0,0,0,37.543c1.027,8.46,2.468,11.013,3.462,12.2l.138.164.164.138c1.1.923,3.465,2.107,12.06,3.072,4.769.536,10.859.933,17.744,1.16a57.9,57.9,0,0,1-4.609,14,43.4,43.4,0,0,1-3.646,6.361l-7.026,9.459,10.222-5.867a105.946,105.946,0,0,0,10.407-7.059,99.861,99.861,0,0,0,9.145-7.84,65.455,65.455,0,0,0,7.741-8.923c8.241-.168,15.6-.567,21.337-1.157,9.549-.982,12.106-2.227,13.268-3.2l.164-.138.138-.164c.994-1.184,2.435-3.738,3.462-12.2a162.983,162.983,0,0,0,.986-18.771,162.983,162.983,0,0,0-.986-18.771c-1.027-8.46-2.468-11.013-3.462-12.2l-.138-.164-.164-.138c-1.3-1.09-4.307-2.47-16.147-3.471-7.451-.63-17.1-.977-27.174-.977Z" fill="#fff"/>
  </g>
</svg>
