<svg xmlns="http://www.w3.org/2000/svg" width="50.507" height="34.895" viewBox="0 0 50.507 34.895">
  <g id="Group_215" data-name="Group 215" transform="translate(-220.898 -113.726)">
    <path id="Path_986" data-name="Path 986" d="M233.37,113.779c-1.215.105-4.291-.035-4.291,1.884a166.264,166.264,0,0,0,.888,18.571s-.148,1.682-3.255,1.884a38.373,38.373,0,0,1-5.352,0,1.562,1.562,0,0,0,0,2.221,69.859,69.859,0,0,0,8.659,7.469c2.241,1.413,3.795,2.258,3.795,2.258s1.775,1.249,3.107,0,7.324-5.488,8.656-7.708a33.556,33.556,0,0,1,2.885-4.037s1.11-1.817-2.663-1.413-6.436.4-6.436.4a3.27,3.27,0,0,1-.962-1.884c0-.942.3-13.606-.431-18.748C237.835,113.729,234.992,113.638,233.37,113.779Z" fill="#537082"/>
    <path id="Path_987" data-name="Path 987" d="M262.489,148.281s1.073.059,1.163-.836a103.981,103.981,0,0,0,0-12.151c-.358-4.719-.491-7-.491-7a1.674,1.674,0,0,1,1.3-1.3c1.073-.163,5.1-.326,6.262-.488s.626-1.3,0-2.034-4.562-4.719-7.067-7.16-3.131-2.923-3.131-2.923-1.163-.726-1.968,0-2.594,2.028-3.936,3.086a44.094,44.094,0,0,0-5.9,5.777c-1.521,1.953-3.4,3.906,0,3.743a33.205,33.205,0,0,1,5.815,0s.835.244,1.014,1.79a80.707,80.707,0,0,1,.447,9.683c-.179,2.2-.6,9.547.552,9.547S262.489,148.281,262.489,148.281Z" fill="#94cbea"/>
  </g>
</svg>
