<svg xmlns="http://www.w3.org/2000/svg" width="184.106" height="150.358" viewBox="0 0 184.106 150.358">
  <g id="Group_2189" data-name="Group 2189" transform="translate(-1529 -1827.941)">
    <path id="Path_9753" data-name="Path 9753" d="M1689.063,1867.271a165.825,165.825,0,0,0-26.688-15.934,1.859,1.859,0,0,1-.814-2.618c2.778-4.762,13.223-15.277,19.025-20.778-63.167.636-114.675,13.827-149.514,38.266a258.556,258.556,0,0,0,64.171,14.81c.738-.244,1.473-.495,2.215-.731C1623.657,1871.932,1653.67,1867.664,1689.063,1867.271Z" fill="#1f1f1f"/>
    <path id="Path_9754" data-name="Path 9754" d="M1578.073,1954.925a1.858,1.858,0,0,1,.814,2.618c-2.775,4.757-13.2,15.25-19,20.757,61.6-1.154,123.639-24.115,149.681-55.048a263.57,263.57,0,0,1-123.557,12.978,277.2,277.2,0,0,1-34.648,2.743,165.805,165.805,0,0,0,26.712,15.952Z" fill="#1f1f1f"/>
    <path id="Path_9755" data-name="Path 9755" d="M1621.053,1934.85a258.774,258.774,0,0,0,92.053-16.857v-48.572a263.485,263.485,0,0,1-184.106,0v48.572A258.767,258.767,0,0,0,1621.053,1934.85Z" fill="#1f1f1f"/>
  </g>
</svg>
