<svg xmlns="http://www.w3.org/2000/svg" width="54.919" height="55.898" viewBox="0 0 54.919 55.898">
  <g id="Group_371" data-name="Group 371" transform="translate(-790.941 -695.84)">
    <g id="Group_370" data-name="Group 370">
      <path id="Path_1452" data-name="Path 1452" d="M804.98,732.055a1.662,1.662,0,0,0-.481,1.73c.513,1.06,4.222,4.6,5.013,5.2l.129.087c.185.079.7-.295,1.171-.714-.491-.443-.994-.91-1.524-1.435A48.213,48.213,0,0,1,804.98,732.055Z" fill="#e6eeef"/>
      <path id="Path_1453" data-name="Path 1453" d="M823.484,710.1a20.256,20.256,0,0,0,1.955,2.4c-3.392-3.135-4.516-6.4-7.853-4.014-.556.495-.97.882-1.033.947a34.4,34.4,0,0,0-3.2,2.752c-1.29,1.3-1.993,2.351-2.976,3.159.888.047,1.46.119,1.46.119l-1.631,4.362-4.287,4.5a3.866,3.866,0,0,0-.818,4.577,34.593,34.593,0,0,0,4.5,5.908,44.773,44.773,0,0,0,3.48,3.076,6.746,6.746,0,0,0,5.4-1.219l4.406-4.292,4.343-1.68a25.831,25.831,0,0,1,.19,3.254,9.626,9.626,0,0,0,.917-1.026c.478-.719,3.711-5.018,6.022-8.078,1.423-2.255.849-3.539-2.034-6.012a25.962,25.962,0,0,0,3.207,2.184,45.912,45.912,0,0,1-8.051-6.343A41.652,41.652,0,0,1,823.484,710.1Zm-.7,16.188c-3.024.561-5.77-1.258-5.862-5.158s2.3-5.336,5.059-5.114a5.2,5.2,0,0,1,5,4.036c1.071,3.312-1.172,5.676-4.194,6.236Z" fill="#e6eeef"/>
      <path id="Path_1454" data-name="Path 1454" d="M837.924,700.057c-4.971,1.474-12.25,3.788-14.183,4.62-.545.236-1.52.681-2.693,1.229a28.772,28.772,0,0,0,2.436,4.2,41.637,41.637,0,0,0,4,4.576,45.906,45.906,0,0,0,8.051,6.343c.52.3.941.52,1.214.656.637-1.345,1.115-2.4,1.279-2.864.639-1.765,4.262-13.462,4.322-15.766S842.894,698.582,837.924,700.057Z" fill="#d9924e"/>
      <path id="Path_1455" data-name="Path 1455" d="M813.589,742.483l1.721,7.387s6.594-6.113,9.017-8.771,2.479-9.344,2.479-9.344l-3.9,1.623Z" fill="#d9924e"/>
      <path id="Path_1456" data-name="Path 1456" d="M810.79,715.911s-6.682.132-9.317,2.58S792.8,727.6,792.8,727.6l7.406,1.641,9-9.42Z" fill="#d9924e"/>
      <path id="Path_1457" data-name="Path 1457" d="M821.979,716.02c-2.759-.222-5.15,1.215-5.059,5.114s2.838,5.719,5.862,5.158,5.266-2.924,4.195-6.236a5.2,5.2,0,0,0-5-4.036ZM823.7,725.3c-1.666.076-3.581.428-4.828-.806s-.717-2.755-.816-3.568c-.164-1.359-.028-2.6,1.739-3.363s5.027-.992,6.123,1.991-.55,5.67-2.217,5.747Z" fill="#4b5054"/>
      <path id="Path_1458" data-name="Path 1458" d="M819.795,717.564c-1.767.765-1.9,2-1.739,3.363.1.813-.429,2.336.816,3.568s3.162.883,4.828.806,3.313-2.765,2.217-5.747S821.562,716.8,819.795,717.564Z" fill="#6d9dbf"/>
    </g>
    <path id="Path_1459" data-name="Path 1459" d="M845.31,695.84l-.68.09s-3.056.783-5.286,1.243-12.122,4.572-12.811,4.842c-.447.175-3.438,1.445-6.886,2.8,0,0-8.008,7.11-11.984,10.532-2.148.113-4.6.557-6.007,1.856-2.882,2.664-10.715,11.372-10.715,11.372l9.46,1.546,1.893-1.986c.565.941,1.278,2.023,2.144,3.2-1.134,1.389-1.288,2.067-.934,2.856.4.893,3.444,3.306,5.343,5.281,1.373,1.43,2.344.7,3.094-.128.766.639,1.474,1.178,2.129,1.632l-1.36,1.324,1.645,9.44s8.626-7.925,11.257-10.837a8.862,8.862,0,0,0,1.724-5.021,81.062,81.062,0,0,0,5.76-6.045c.672-1.215,5-6.768,5-6.768.962-2.189,2.827-6.09,2.85-6.508.029-.542,3.6-10.81,4.43-15.321S845.823,696.347,845.31,695.84Zm-45.1,33.4L792.8,727.6s6.041-6.661,8.673-9.111,9.317-2.58,9.317-2.58l-1.582,3.912Zm4.833-3.987-1.289,1.353h0Zm4.6,13.813-.129-.086c-.791-.6-4.5-4.138-5.013-5.2a1.663,1.663,0,0,1,.481-1.73,48.2,48.2,0,0,0,4.308,4.866c.53.525,1.033.992,1.524,1.435-.468.419-.985.792-1.171.713Zm14.686,2.029c-2.423,2.658-9.017,8.771-9.017,8.771l-1.721-7.387,9.321-9.105,3.9-1.623s-.06,6.682-2.479,9.344Zm18.027-38.05c-.06,2.3-3.683,14-4.322,15.766-.164.46-.642,1.519-1.279,2.864-.274-.135-.694-.356-1.214-.656a25.97,25.97,0,0,1-3.207-2.184c2.882,2.473,3.456,3.757,2.034,6.012-2.31,3.06-5.544,7.359-6.021,8.078a9.613,9.613,0,0,1-.917,1.026,25.82,25.82,0,0,0-.19-3.254l-4.343,1.68-4.406,4.292a6.746,6.746,0,0,1-5.4,1.219,44.793,44.793,0,0,1-3.48-3.076,34.585,34.585,0,0,1-4.5-5.908,3.866,3.866,0,0,1,.818-4.577l4.287-4.5,1.631-4.362s-.572-.072-1.46-.119c.983-.808,1.686-1.856,2.976-3.159a34.4,34.4,0,0,1,3.2-2.753c.063-.064.477-.452,1.033-.947,3.337-2.381,4.461.879,7.853,4.014a20.262,20.262,0,0,1-1.955-2.4,28.762,28.762,0,0,1-2.436-4.2c1.173-.548,2.148-.993,2.693-1.229,1.933-.832,9.212-3.146,14.183-4.62s4.491.688,4.431,2.991Z" fill="#505659"/>
  </g>
</svg>
