<svg xmlns="http://www.w3.org/2000/svg" width="28.382" height="26.999" viewBox="0 0 28.382 26.999">
  <g id="Group_413" data-name="Group 413" transform="translate(-512.916 -327.893)">
    <path id="Path_1395" data-name="Path 1395" d="M541.29,350.613a4.052,4.052,0,0,1-3.781,4.279H516.7a4.053,4.053,0,0,1-3.781-4.279V332.171a4.053,4.053,0,0,1,3.781-4.278H537.51a4.052,4.052,0,0,1,3.781,4.278Z" fill="#2b2523"/>
    <path id="Path_1396" data-name="Path 1396" d="M535.686,346.743a2.771,2.771,0,1,1-2.77-2.772A2.771,2.771,0,0,1,535.686,346.743Z" fill="#39a935"/>
    <path id="Path_1397" data-name="Path 1397" d="M529.339,346.7l.078-.4s-.391-3.93-1.907-3.708a1.26,1.26,0,0,1-1.266.127s-.387.114-.431.218-.287-.071-.37.042-.478.093-.478.093-.563.28-.663.143c0,0-.278.765-.846.438s-.2-.124-.2-.124l.026-.108s-.729.032-.559-.819c0,0-.306-.454-.038-.71s.083-.189.083-.189l.368-.177s1.944-1.444,2.024-1.615l.125-.519.338-.221a7.23,7.23,0,0,0,.926-.989,1.444,1.444,0,0,1,.185-1.3c.452-.688-.1.885.418,1.013l.353.027.157-.72-.074-.324s.385-.094.453.4c0,0-.193.845,1.2,1.334,0,0,4.268,2.112,5.417,5.348a8.274,8.274,0,0,0,.18-1.688,8.149,8.149,0,1,0-4.416,7.226C529.815,349.19,529.377,348.339,529.339,346.7Z" fill="#39a935"/>
    <path id="Path_1398" data-name="Path 1398" d="M534.127,340.611c0,3.521-3.32,6.376-7.418,6.376s-7.422-2.855-7.422-6.376,3.324-6.377,7.422-6.377S534.127,337.09,534.127,340.611Z" fill="#fff" opacity="0.18"/>
    <path id="Path_1399" data-name="Path 1399" d="M541.145,341.99a1.138,1.138,0,0,1-1.168,1.105H514.284a1.139,1.139,0,0,1-1.168-1.105V329a1.139,1.139,0,0,1,1.168-1.105h25.694A1.138,1.138,0,0,1,541.145,329Z" fill="#fff" opacity="0.05"/>
    <path id="Path_1400" data-name="Path 1400" d="M532.767,348.977v-.453a1.915,1.915,0,0,1-.8-.2l.144-.553a1.657,1.657,0,0,0,.782.208c.27,0,.459-.108.459-.293s-.157-.293-.5-.411c-.506-.17-.85-.406-.85-.864a.865.865,0,0,1,.8-.841v-.449h.463v.416a1.671,1.671,0,0,1,.69.156l-.142.534a1.473,1.473,0,0,0-.68-.165c-.308,0-.406.137-.406.269,0,.151.166.255.567.4.567.2.79.458.79.888a.9.9,0,0,1-.843.869v.486Z" fill="#1d1d1b"/>
  </g>
</svg>
