<svg xmlns="http://www.w3.org/2000/svg" width="247.002" height="154.88" viewBox="0 0 247.002 154.88">
  <g id="Group_2206" data-name="Group 2206" transform="translate(-327.806 -350.253)">
    <path id="Path_9866" data-name="Path 9866" d="M435.478,495.552c-1.575.776-2.988,1.593-4.3,2.315l-1.841,1.1c-.586.346-1.139.683-1.652,1.025-2.095,1.323-3.574,2.387-4.548,3.065-1.057.738,1.71,2.209,4.3,2.063a6.531,6.531,0,0,0,2.76-1.379l2.192-1.566c.832-.627,1.806-1.281,2.895-2.035a66.805,66.805,0,0,1,8.407-4.846c.273-.13.558-.26.839-.389l-3.232-2.042C439.19,493.747,437.245,494.654,435.478,495.552Z" fill="#1f1f1f"/>
    <path id="Path_9867" data-name="Path 9867" d="M572.565,370.089a30.268,30.268,0,0,0-4.675,4.8c-.235.3-.453.608-.663.927.083-.252.166-.5.247-.756.261-.882.505-1.786.73-2.7a32.687,32.687,0,0,0,.913-5.636c.035-.474.058-.955.07-1.438s-.007-.97-.026-1.457c-.037-.974-.112-1.948-.214-2.9a51.864,51.864,0,0,0-.928-5.316,55.155,55.155,0,0,0-1.546-5.347s-.818,2.192-1.667,5.277c-.456,1.542-.891,3.31-1.277,5.147-.2.918-.373,1.855-.51,2.793-.069.469-.127.938-.176,1.405s-.1.93-.14,1.392a49.272,49.272,0,0,0-.016,5.553c.045.92.117,1.834.2,2.733.019.263.041.521.062.781-.131-.353-.273-.7-.435-1.032a23.854,23.854,0,0,0-3.707-5.365,18.747,18.747,0,0,0-1.981-1.882s.015.64.038,1.651.039,2.393.064,3.879c.054,1.492.041,3.076.11,4.511s.125,2.7.266,3.543c.128.782.283,1.545.457,2.3s.337,1.484.528,2.215c.366,1.458.815,2.9,1.164,4.347s.73,2.929.953,4.46c.128.913.23,1.856.285,2.824-.074.309-.152.626-.23.941a14.753,14.753,0,0,0-.81-5.249,22.677,22.677,0,0,0-3.174-5.678,18.42,18.42,0,0,0-1.793-2.047l-.119,1.634c-.053,1.006-.2,2.364-.3,3.839s-.247,3.045-.334,4.466c-.046.709-.066,1.384-.089,1.982s-.031,1.122-.007,1.545c.089,1.57.306,3.087.5,4.565s.5,2.961.674,4.432a44.405,44.405,0,0,1,.43,4.529c.019.772.014,1.557-.024,2.361,0,.06-.007.121-.01.182-.108.29-.214.58-.325.872a14.129,14.129,0,0,0-.216-4.973,22,22,0,0,0-2.511-5.981,18.055,18.055,0,0,0-1.558-2.22l-.3,1.6c-.16.986-.455,2.3-.727,3.744-.256,1.446-.6,2.967-.848,4.355-.236,1.4-.464,2.621-.521,3.459-.051.779-.072,1.548-.072,2.311s-.019,1.5,0,2.25c.019,1.49.107,2.984.088,4.462a33.9,33.9,0,0,1-.534,6.809c-.134.246-.27.492-.406.738a18.613,18.613,0,0,0,.344-1.867,12.388,12.388,0,0,0,.06-2.761,21.85,21.85,0,0,0-1.692-6.242,17.748,17.748,0,0,0-1.263-2.392l-.492,1.528c-.142.473-.331,1.022-.544,1.623l-.665,1.951c-.931,2.74-2.067,5.849-2.433,7.472-.163.757-.278,1.52-.4,2.261s-.24,1.473-.337,2.21l-.269,2.214q-.162,1.1-.323,2.189c-.112.734-.232,1.474-.369,2.22s-.334,1.468-.536,2.214c-.175.632-.375,1.272-.6,1.915-.166.215-.33.43-.5.643.02-.046.045-.091.064-.137.171-.447.323-.9.454-1.352a12.711,12.711,0,0,0,.493-2.717,21.528,21.528,0,0,0-.691-6.4,17.566,17.566,0,0,0-.9-2.551l-.7,1.426c-.454.857-1.082,2.027-1.735,3.309-.668,1.269-1.431,2.6-2.054,3.841a29.983,29.983,0,0,0-1.527,3.084l-.777,2.142c-.248.7-.474,1.412-.69,2.123-.411,1.44-.873,2.806-1.331,4.226-.239.7-.461,1.43-.748,2.116s-.582,1.388-.911,2.087c-.249.519-.514,1.046-.8,1.566-.2.18-.392.362-.591.541a12.919,12.919,0,0,0,1.591-3.749,16.454,16.454,0,0,0,.339-1.817c.071-.6.115-1.172.138-1.717a22.281,22.281,0,0,0-.064-2.877,15.568,15.568,0,0,0-.281-1.935c-.095-.459-.166-.712-.166-.712l-.249.346c-.158.224-.387.546-.688.922-.594.759-1.392,1.814-2.253,2.956-.9,1.1-1.843,2.31-2.685,3.408a25.74,25.74,0,0,0-2.039,2.764c-.385.676-.787,1.3-1.15,1.96s-.713,1.31-1.049,1.974-.673,1.318-1.02,1.964l-1.042,1.957a33.458,33.458,0,0,1-2.38,3.844c-.29.4-.595.812-.91,1.215-.215.136-.429.276-.645.411.073-.082.149-.163.221-.247q.223-.28.431-.567a12.805,12.805,0,0,0,1.391-2.395q.382-.88.661-1.723c.175-.577.319-1.136.438-1.669a22.439,22.439,0,0,0,.444-2.849,14.419,14.419,0,0,0,.036-2.677s-.43.436-1.154,1.073l-2.744,2.513c-1.081.923-2.233,1.965-3.242,2.885a24.236,24.236,0,0,0-2.4,2.315l-.362.435c-.114.146-.238.293-.381.442q-.407.445-.792.9c-.515.6-1.005,1.207-1.481,1.817l-.7.917-.087.115-.043.057-.022.029-.011.014-.005.007,0,0c.04-.021-.093.051.089-.045l-.165.215-.33.431c-.441.575-.882,1.161-1.34,1.739a30.637,30.637,0,0,1-4.013,4.185c-.236.09-.472.182-.708.27.223-.176.442-.355.653-.537a11.8,11.8,0,0,0,1.818-2.062,19.366,19.366,0,0,0,1.673-3.111,20.555,20.555,0,0,0,.893-2.715l.134-.561.056-.259.013-.063.006-.031,0-.015v-.008c-.291.154-.081.042-.145.076V470l.028-.126c.073-.331.128-.619.17-.855.084-.473.113-.74.113-.74l-.387.258-.45.3-.067.045-.009.006,0,0h0l.168-.089-.016.01-.031.02-.13.082-.281.179-1.368.884c-.511.332-1.086.663-1.672,1.032-2.352,1.448-5.17,2.972-6.493,3.94-2.446,1.8-4.6,3.76-6.921,5.632a39.678,39.678,0,0,1-4.619,3.265l-.11.022a8.5,8.5,0,0,0,1.078-.865,16,16,0,0,0,2.764-3.592,12.746,12.746,0,0,0,.82-1.7l-3.635,1.237a49.237,49.237,0,0,0-5.326,2.023c-2.882,1.522-5.131,3.459-7.772,5.141-1.691.321-3.356.65-4.983,1l-.411.091,3.2,2.019q1.307-.275,2.643-.541c3.072.572,5.845,1.631,9.156,1.987a36.942,36.942,0,0,0,5.937-.217c1.108-.112,2.139-.228,2.9-.338l1.238-.175a15.624,15.624,0,0,0-1.593-1.136,21.973,21.973,0,0,0-4.16-2.072,9.734,9.734,0,0,0-1.429-.387l.09-.019c1.989.262,3.891.652,5.813,1.028a41.226,41.226,0,0,0,9.7,1.033,40.176,40.176,0,0,0,8.946-1.967c.813-.273,1.607-.525,2.32-.794l1.907-.736,1.824-.78s-.241-.12-.684-.306c-.221-.093-.493-.2-.811-.32l-.121-.045h-.006c-.066.034.144-.078-.148.077l-.008,0-.016-.006-.033-.011-.067-.023-.278-.094-.605-.2c-.849-.267-1.858-.547-2.982-.8a37.341,37.341,0,0,0-3.7-.711,19.361,19.361,0,0,0-3.833-.114c.246-.094.491-.192.737-.288,2.1-.1,4.133-.092,6.2-.131l2.38-.094.6-.031.3-.017c.185-.1.054-.027.1-.049h.031l.036,0,.072-.005.143-.01,1.152-.093c.77-.069,1.546-.152,2.329-.259q.588-.08,1.182-.18a5.356,5.356,0,0,0,.615-.131l.637-.167a32.94,32.94,0,0,0,3.786-1.415c1.47-.663,3.039-1.473,4.529-2.244,1.465-.8,2.792-1.617,3.775-2.2s1.578-.994,1.578-.994-1.059-.264-2.81-.526c-.871-.126-1.905-.241-3.047-.3-.571-.031-1.169-.048-1.787-.047-.629-.014-1.282-.014-1.948.013a14.625,14.625,0,0,0-2.82.4q-.35.083-.7.181c-.164.04-.326.084-.489.127.186-.114.373-.227.558-.342l.146-.1c.538-.144,1.071-.285,1.608-.4,1.54-.361,3.1-.606,4.614-.948l2.308-.486c.778-.165,1.56-.342,2.325-.574s1.552-.464,2.341-.735a21.84,21.84,0,0,0,2.375-.939,32.208,32.208,0,0,0,3.4-1.992c1.315-.9,2.735-1.985,4.066-3.005,1.289-1.062,2.466-2.087,3.33-2.837.437-.371.774-.692,1.005-.917l.364-.349s-.275-.022-.767-.032-1.2,0-2.085.02-1.921.1-3.058.239c-.568.07-1.161.158-1.77.268s-1.262.217-1.911.363a17.541,17.541,0,0,0-4.044,1.509q.318-.275.625-.563c.577-.27,1.146-.538,1.725-.78.729-.311,1.462-.6,2.2-.881s1.444-.585,2.175-.87c1.443-.59,2.945-1.144,4.37-1.868.722-.353,1.449-.727,2.18-1.131.364-.2.734-.41,1.1-.634s.71-.468,1.065-.716a28.39,28.39,0,0,0,3-2.552c1.116-1.128,2.368-2.4,3.464-3.659,1.079-1.264,2.077-2.458,2.792-3.342l1.115-1.479a23.736,23.736,0,0,0-2.792.475,34.553,34.553,0,0,0-6.481,2.009,14.735,14.735,0,0,0-2.522,1.34c-.4.263-.793.545-1.176.839-.108.077-.209.163-.315.242.186-.241.372-.481.556-.723q.9-.654,1.814-1.245c.663-.433,1.349-.836,2.012-1.248s1.319-.825,1.986-1.233l2.014-1.237c.656-.431,1.307-.878,1.963-1.343s1.31-.952,1.964-1.468,1.26-1.089,1.886-1.687a43.959,43.959,0,0,0,5.331-7.125l1.232-2.009c.384-.625.722-1.2.985-1.7l.879-1.612a23.4,23.4,0,0,0-2.691.878,33.86,33.86,0,0,0-6.058,2.985,15.175,15.175,0,0,0-2.28,1.719,19.354,19.354,0,0,0-1.448,1.469c.066-.122.138-.243.2-.366l.248-.477c1.726-1.713,3.5-3.2,5.275-4.712,1.214-1,2.362-2.037,3.521-3.144.573-.556,1.164-1.125,1.712-1.735s1.083-1.252,1.61-1.931a23.256,23.256,0,0,0,2.041-3.3c.741-1.382,1.544-2.946,2.195-4.444.667-1.493,1.294-2.891,1.683-3.931l.658-1.7a22.95,22.95,0,0,0-2.552,1.208,33.585,33.585,0,0,0-5.591,3.751A17.543,17.543,0,0,0,556.6,415.8c.007-.02.015-.039.022-.059.1-.284.2-.56.3-.842.047-.064.092-.131.139-.195.485-.651.985-1.274,1.5-1.879,1.026-1.21,2.026-2.372,3.084-3.523s2.052-2.326,3.065-3.564a32.232,32.232,0,0,0,2.817-4.031c.235-.395.5-.906.779-1.5s.545-1.272.833-2c.568-1.449,1.17-3.084,1.643-4.633s.946-2.994,1.217-4.061l.462-1.743a22.485,22.485,0,0,0-2.4,1.47,32.268,32.268,0,0,0-5.121,4.342,17.449,17.449,0,0,0-3.067,4.633q.126-.53.246-1.048c.481-.87.981-1.706,1.516-2.508.871-1.322,1.735-2.587,2.65-3.847s1.779-2.532,2.642-3.867c.423-.668.857-1.352,1.245-2.064s.762-1.449,1.117-2.22a24.685,24.685,0,0,0,1.238-3.617c.4-1.489.853-3.164,1.168-4.74s.635-3.05.82-4.13l.291-1.766a22,22,0,0,0-2.243,1.673Zm-8.138,7.871c.072-1.314.187-2.683.255-4.007s.159-2.595.267-3.706a43.66,43.66,0,0,1,.737-5.286c.234-1.255.438-1.955.438-1.955s.131.717.233,2a38.609,38.609,0,0,1-.068,5.361c-.109,1.118-.269,2.391-.454,3.71s-.448,2.678-.676,3.977-.491,2.532-.716,3.6-.408,1.961-.521,2.586c.07-.631.15-1.544.24-2.626s.2-2.332.266-3.647Zm-3.773,3.17c-.1-.489-.2-.966-.281-1.431l-.224-1.347c-.069-.432-.143-.835-.2-1.214l-.164-1.027-.123-.8-.107-.7.1-.059.1.146a4.652,4.652,0,0,1,.267.432,11.275,11.275,0,0,1,.753,1.681,16.509,16.509,0,0,1,.7,2.56c.073.483.135.987.174,1.5s.091,1.04.125,1.567.076,1.052.1,1.572.018,1.029.026,1.523.008.973-.01,1.429-.029.886-.043,1.284c-.034.8-.1,1.454-.15,1.915s-.076.724-.076.724l-.108,0-.008-.722c-.007-.461,0-1.112-.043-1.893s-.113-1.69-.19-2.655-.184-1.983-.355-3c-.081-.505-.165-1.008-.267-1.5ZM556.8,392.439l.087.155a4.6,4.6,0,0,1,.222.454,11.111,11.111,0,0,1,.577,1.741,17.4,17.4,0,0,1,.438,2.611c.025.487.03.992.014,1.51s-.02,1.041-.043,1.567-.038,1.052-.067,1.57-.089,1.022-.139,1.514-.1.966-.168,1.417l-.185,1.27c-.117.791-.265,1.431-.365,1.883s-.159.71-.159.71l-.108-.011s.028-.261.075-.717.132-1.1.171-1.883.075-1.689.106-2.654l.022-1.482c-.007-.505-.029-1.019-.054-1.528s-.058-1.016-.107-1.51-.1-.977-.127-1.446-.062-.926-.09-1.359-.056-.841-.07-1.222-.04-.726-.058-1.033l-.04-.8c-.021-.445-.034-.707-.034-.707Zm-6.553,32.877c.109-.446.268-1.077.429-1.836.142-.768.292-1.663.446-2.614s.294-1.958.355-2.979c.035-.508.068-1.013.08-1.508s.025-.978.052-1.445.053-.921.078-1.353.044-.838.075-1.216l.065-1.027.054-.8.05-.7.108-.035.067.163a4.59,4.59,0,0,1,.167.475,10.979,10.979,0,0,1,.366,1.789,16.826,16.826,0,0,1,.122,2.636c-.039.483-.094.985-.174,1.494s-.149,1.027-.236,1.546-.165,1.038-.264,1.546l-.336,1.478c-.122.478-.223.944-.349,1.381l-.347,1.234c-.238.759-.458,1.378-.621,1.811l-.252.682-.105-.025Zm-9.161,16c.177-.423.424-1.027.7-1.747s.542-1.6.842-2.507c.277-.923.586-1.885.8-2.879.107-.5.21-.991.292-1.478s.162-.962.255-1.419l.281-1.314c.086-.423.157-.821.239-1.19l.2-1,.162-.777.144-.685.112-.019.044.17a4.512,4.512,0,0,1,.1.492,10.9,10.9,0,0,1,.119,1.818,13.862,13.862,0,0,1-.258,2.613c-.107.472-.232.959-.383,1.451s-.293.994-.452,1.494c-.289,1.012-.693,1.97-1.049,2.89-.19.455-.359.9-.547,1.314s-.357.809-.539,1.159c-.363.7-.664,1.29-.893,1.691l-.352.636-.1-.041Zm-11.664,14.25c.245-.388.589-.943.985-1.606l.626-1.077.638-1.238c.431-.86.87-1.778,1.273-2.7.2-.461.369-.942.53-1.407s.313-.924.477-1.359.328-.852.492-1.245.3-.772.435-1.123l.355-.958.279-.74.247-.652h.113l.017.175a4.536,4.536,0,0,1,.023.5,10.868,10.868,0,0,1-.164,1.813c-.064.375-.146.783-.253,1.212s-.262.858-.433,1.309-.381.909-.608,1.37-.447.934-.684,1.4c-.488.917-1.018,1.817-1.526,2.661-.261.418-.5.83-.753,1.207l-.744,1.034c-.474.634-.869,1.162-1.161,1.519l-.452.568-.091-.058Zm-13.987,11.967c.309-.34.745-.826,1.251-1.411s1.091-1.265,1.659-2.048,1.165-1.6,1.722-2.437l.41-.627q.191-.325.369-.651c.241-.432.467-.857.7-1.258s.469-.784.7-1.143l.638-1.013.511-.884.4-.682.353-.6.111.018-.013.176a4.55,4.55,0,0,1-.063.5,10.893,10.893,0,0,1-.47,1.762,13.2,13.2,0,0,1-1.125,2.349c-.254.411-.531.831-.834,1.247s-.591.856-.927,1.251c-.645.813-1.319,1.613-1.967,2.355-.334.362-.629.741-.96,1.049l-.916.885c-.578.542-1.058.993-1.409,1.294l-.544.481-.079-.073Zm-15.853,9.35c.372-.258.874-.68,1.472-1.163l.948-.8.016-.013h0l-.038.02h0l0,0,0,0,.008-.007.031-.029.063-.057.127-.116.259-.237.532-.49c.716-.67,1.466-1.395,2.19-2.137a12.149,12.149,0,0,0,1-1.136c.309-.381.6-.758.9-1.109s.588-.683.869-.993l.789-.873.659-.782.513-.6.454-.53.106.038-.044.171a4.573,4.573,0,0,1-.15.48,10.967,10.967,0,0,1-.773,1.654,13.551,13.551,0,0,1-1.5,2.1c-.318.358-.66.721-1.028,1.076s-.719.729-1.126,1.076c-.8.7-1.623,1.382-2.4,2.006-.4.307-.766.615-1.138.885l-.069.051-.017.013-.009.006h0l.028-.015h0l0,0-.034.023-.136.093-.267.182-.507.345c-.661.43-1.2.807-1.607,1.022l-.628.357L499,477.31Zm-17.406,5.845c.416-.2,1.011-.462,1.7-.823s1.489-.776,2.317-1.266,1.694-1.014,2.515-1.6c.41-.291.822-.569,1.2-.88s.75-.611,1.117-.89l1.061-.8c.338-.255.649-.5.948-.717s.567-.416.8-.606l.608-.486.536-.426.1.058-.073.158a4.418,4.418,0,0,1-.233.439,8.935,8.935,0,0,1-1.065,1.449,14.579,14.579,0,0,1-1.891,1.768c-.388.281-.8.563-1.237.83s-.874.542-1.329.794-.9.514-1.357.759-.911.459-1.353.674-.868.428-1.291.592l-1.183.482c-.738.295-1.36.514-1.8.656l-.69.231-.046-.1Zm-14.6,3.257,1.212-.54,1.68-.8c.607-.3,1.253-.623,1.88-.965.312-.174.623-.348.918-.533s.586-.363.875-.524.574-.305.85-.435.534-.257.782-.364l.668-.3.528-.226.477-.194.086.074a2.883,2.883,0,0,1-.275.4,6.57,6.57,0,0,1-.912.927,9.414,9.414,0,0,1-1.538,1.053c-.307.159-.633.311-.974.448l-1.028.42c-.685.285-1.376.555-2.038.783-.332.111-.647.227-.954.32l-.863.266c-.539.158-.984.29-1.3.366l-.5.128-.042-.1Zm11.083,2.456a3.013,3.013,0,0,1,.424.261l-.053.1-.534.011h-.594c-.224-.007-.483,0-.755-.016s-.569-.025-.88-.043-.636-.044-.969-.083-.673-.1-1.019-.163-.7-.113-1.057-.163c-.715-.09-1.433-.155-2.108-.223s-1.311-.111-1.854-.146l-1.322-.067-.5-.024,0-.108.507-.06c.322-.043.783-.081,1.342-.128l.9-.062c.32-.023.656-.027,1.006-.043.7-.023,1.443-.022,2.188,0l1.117.018c.371,0,.734.02,1.082.052a10.781,10.781,0,0,1,1.85.394,6.973,6.973,0,0,1,1.23.493Zm18.007-4.391a17.113,17.113,0,0,1,1.941.247,5.36,5.36,0,0,1,.526.127l.182.053-.036.112-.773.111-.87.121c-.332.038-.715.084-1.122.119s-.851.082-1.316.127-.955.071-1.459.086-1.022.01-1.547.012l-1.6-.005-3.141.051c-1,.04-1.936.033-2.734.058l-1.933.051-.734.018v-.108l.732-.1c.465-.073,1.134-.137,1.939-.247l1.3-.15,1.455-.154,3.181-.3c.545-.05,1.091-.09,1.628-.153s1.069-.1,1.584-.125a24.188,24.188,0,0,1,2.793.046Zm17.3-8.929a13.092,13.092,0,0,1,1.924-.137,5.225,5.225,0,0,1,.534.027l.186.018-.012.116-.725.252-.817.281-1.049.352c-.4.128-.827.243-1.279.376s-.927.262-1.418.385-1,.229-1.51.343-1.033.244-1.538.333c-1.017.206-2.033.444-2.983.682l-.7.181-.339.089-.167.044-.082.022-.041.011-.01,0h-.009l-.039.021h0l-.021,0-1.269.3c-.783.187-1.423.373-1.888.47l-.722.163-.022-.106.7-.243,1.851-.662.6-.2.318-.108.163-.055.041-.014.005,0h0l.031-.016.01,0,.02-.008.08-.03c.429-.165.889-.31,1.361-.476.948-.317,1.965-.639,2.989-.931.511-.152,1.032-.341,1.545-.507s1.024-.327,1.522-.461a27.091,27.091,0,0,1,2.753-.509Zm12.747-10.854c.926-.422,1.85-.708,2.6-.969a13.157,13.157,0,0,1,1.873-.474,5.3,5.3,0,0,1,.531-.068l.187-.015.008.116-.67.376-.756.421-.972.532c-.36.195-.76.376-1.176.582s-.857.411-1.313.615-.933.393-1.415.592l-.725.3-.746.3c-.992.4-1.971.829-2.88,1.241-.9.432-1.776.773-2.51,1.094s-1.342.6-1.768.791l-.668.3-.042-.1.635-.379c.4-.247.988-.575,1.7-.973l1.155-.625c.414-.22.834-.461,1.279-.707.889-.486,1.85-.994,2.829-1.478.494-.24.959-.511,1.436-.763S526.242,464.486,526.705,464.27Zm13.233-13.906c.424-.284.845-.542,1.252-.773s.773-.456,1.127-.644a13.189,13.189,0,0,1,1.767-.786A5.334,5.334,0,0,1,544.6,448l.182-.047.028.113-.6.484-.674.542-.868.688c-.314.259-.657.521-1.038.79s-.773.552-1.188.831-.852.547-1.293.827-.876.576-1.329.861c-.908.569-1.8,1.16-2.624,1.723l-1.182.821-1.088.707c-.667.443-1.219.821-1.6,1.088l-.606.415-.059-.091.559-.484c.352-.314.873-.739,1.5-1.254l1.025-.82c.35-.306.737-.6,1.129-.927.791-.635,1.654-1.3,2.529-1.949l1.27-1.011c.419-.338.846-.652,1.265-.945Zm9.541-14.807c.36-.4.731-.777,1.1-1.133a26.451,26.451,0,0,1,2.1-1.785,13.164,13.164,0,0,1,1.622-1.05,5.3,5.3,0,0,1,.481-.235l.172-.074.046.107-.513.568-.58.638-.749.812c-.27.3-.57.613-.883.949s-.67.669-1.031,1.011-.754.675-1.144,1.021-.781.7-1.167,1.066c-.768.728-1.576,1.442-2.29,2.137s-1.365,1.356-1.964,1.9-1.065,1.012-1.4,1.34l-.529.51-.074-.08.471-.571c.295-.368.738-.873,1.274-1.487.278-.3.554-.637.851-.994s.628-.716.962-1.1c.669-.76,1.441-1.538,2.152-2.349l1.093-1.2Zm7.279-15.864.909-1.341c.3-.446.611-.871.924-1.274a20.209,20.209,0,0,1,1.813-2.06,13.035,13.035,0,0,1,1.46-1.258,5.284,5.284,0,0,1,.444-.3l.16-.1.06.1-.428.63-.485.708-.628.9c-.225.336-.479.683-.741,1.058s-.541.762-.859,1.148-.648.773-.985,1.17-.672.805-1,1.218l-1.931,2.451c-.607.792-1.17,1.532-1.643,2.171l-1.178,1.537-.445.585-.085-.067.379-.635c.233-.409.6-.971,1.027-1.664l.679-1.115c.239-.4.516-.8.79-1.227l.876-1.3Zm5.935-18.007.734-1.44c.24-.479.5-.937.755-1.375a19.444,19.444,0,0,1,1.548-2.255,12.881,12.881,0,0,1,1.3-1.416,5.216,5.216,0,0,1,.4-.346l.146-.114.073.09-.349.672-.4.756-.514.966c-.183.358-.393.732-.608,1.133s-.44.819-.707,1.239-.546.843-.83,1.277-.565.879-.841,1.329l-1.594,2.671c-.5.862-.962,1.667-1.348,2.361s-.728,1.27-.951,1.681l-.363.638-.094-.055.291-.679c.172-.437.478-1.039.786-1.787l.529-1.192c.186-.425.408-.858.624-1.317Zm7.727-25.134-.315.789-.41,1.009c-.144.373-.314.764-.486,1.185s-.364.855-.581,1.3-.452.892-.687,1.352-.467.931-.692,1.406l-1.3,2.82c-.4.909-.769,1.759-1.076,2.491l-.754,1.775-.286.675-.1-.043.21-.707c.122-.453.35-1.087.578-1.862l.392-1.242c.137-.443.31-.9.473-1.375l1.093-2.969.574-1.506c.187-.5.393-.982.6-1.442a20.653,20.653,0,0,1,1.311-2.393,12.675,12.675,0,0,1,1.142-1.533,5.161,5.161,0,0,1,.366-.383l.134-.128.081.082Z" fill="#1f1f1f"/>
    <path id="Path_9868" data-name="Path 9868" d="M502.222,475.385Z" fill="#1f1f1f"/>
    <path id="Path_9869" data-name="Path 9869" d="M479.483,503.06c-.974-.678-2.453-1.742-4.548-3.065-.513-.341-1.066-.678-1.652-1.025l-1.841-1.1c-1.314-.722-2.727-1.54-4.3-2.315-1.767-.9-3.713-1.8-5.814-2.686l-3.232,2.042c.282.13.567.259.839.389a66.8,66.8,0,0,1,8.407,4.846c1.089.753,2.063,1.407,2.895,2.035l2.192,1.566a6.53,6.53,0,0,0,2.76,1.379C477.773,505.269,480.54,503.8,479.483,503.06Z" fill="#1f1f1f"/>
    <path id="Path_9870" data-name="Path 9870" d="M427.874,490.669c3.311-.356,6.084-1.415,9.156-1.987q1.338.266,2.643.541l3.2-2.019-.411-.091c-1.627-.351-3.292-.68-4.983-1-2.64-1.682-4.89-3.619-7.772-5.141a49.266,49.266,0,0,0-5.326-2.023l-3.635-1.237a12.746,12.746,0,0,0,.82,1.7A16.005,16.005,0,0,0,424.329,483a8.5,8.5,0,0,0,1.078.865l-.11-.022a39.673,39.673,0,0,1-4.619-3.265c-2.326-1.873-4.475-3.834-6.921-5.632-1.323-.968-4.141-2.492-6.493-3.94-.586-.369-1.161-.7-1.672-1.032l-1.368-.884-.281-.179-.13-.082-.031-.02-.015-.01.168.089h0l0,0-.009-.006-.067-.045-.45-.3-.387-.258s.029.268.113.74c.042.236.1.524.17.855l.028.126V470c-.065-.034.146.079-.145-.076v.008l0,.015.006.031.013.063.056.259.134.561a20.559,20.559,0,0,0,.893,2.715,19.367,19.367,0,0,0,1.673,3.111,11.808,11.808,0,0,0,1.817,2.062c.211.183.43.361.653.537-.237-.088-.472-.179-.708-.27a30.622,30.622,0,0,1-4.013-4.185c-.458-.577-.9-1.164-1.34-1.739l-.33-.431-.165-.215c.182.1.049.025.089.045l0,0-.005-.007-.011-.014-.022-.029-.043-.057-.087-.115-.7-.917c-.475-.61-.966-1.216-1.48-1.817q-.386-.45-.792-.9a5.831,5.831,0,0,1-.381-.442l-.362-.435a24.23,24.23,0,0,0-2.4-2.315c-1.01-.92-2.161-1.962-3.242-2.885l-2.742-2.513c-.724-.637-1.154-1.073-1.154-1.073a14.419,14.419,0,0,0,.036,2.677,22.428,22.428,0,0,0,.444,2.849c.118.534.263,1.092.438,1.669q.279.843.661,1.723a12.8,12.8,0,0,0,1.391,2.395q.208.287.431.567c.072.083.147.164.221.247-.216-.134-.43-.275-.645-.411-.316-.4-.62-.811-.91-1.215a33.426,33.426,0,0,1-2.38-3.844l-1.042-1.957c-.347-.646-.691-1.291-1.02-1.964s-.682-1.322-1.049-1.974-.765-1.284-1.15-1.96a25.745,25.745,0,0,0-2.039-2.764c-.842-1.1-1.782-2.309-2.685-3.408-.861-1.142-1.659-2.2-2.253-2.956-.3-.376-.53-.7-.688-.922l-.249-.346s-.071.253-.166.712a15.545,15.545,0,0,0-.281,1.935,22.292,22.292,0,0,0-.064,2.877c.023.545.067,1.12.138,1.717a16.461,16.461,0,0,0,.339,1.817,12.919,12.919,0,0,0,1.591,3.749c-.2-.178-.393-.361-.591-.541-.285-.52-.551-1.048-.8-1.566-.329-.7-.629-1.395-.911-2.087s-.509-1.417-.748-2.116c-.458-1.42-.92-2.785-1.331-4.226-.216-.711-.442-1.418-.69-2.123l-.777-2.142a29.97,29.97,0,0,0-1.527-3.084c-.623-1.245-1.386-2.572-2.054-3.841-.653-1.281-1.281-2.451-1.735-3.309l-.7-1.426a17.561,17.561,0,0,0-.9,2.551,21.525,21.525,0,0,0-.691,6.4,12.713,12.713,0,0,0,.493,2.717c.131.453.283.905.454,1.352.02.046.044.091.064.137-.168-.214-.332-.429-.5-.643-.22-.644-.421-1.283-.6-1.915-.2-.746-.392-1.474-.536-2.214s-.257-1.486-.369-2.22l-.323-2.189-.269-2.214c-.1-.737-.207-1.473-.337-2.21s-.24-1.5-.4-2.261c-.365-1.623-1.5-4.732-2.433-7.472l-.665-1.951c-.214-.6-.4-1.15-.544-1.623l-.492-1.528a17.759,17.759,0,0,0-1.263,2.392,21.846,21.846,0,0,0-1.692,6.242,12.383,12.383,0,0,0,.06,2.761,18.564,18.564,0,0,0,.344,1.867c-.136-.246-.273-.492-.407-.738a33.919,33.919,0,0,1-.533-6.809c-.019-1.478.068-2.972.087-4.462.015-.748,0-1.488,0-2.25s-.021-1.532-.072-2.311c-.057-.838-.284-2.064-.521-3.459-.251-1.388-.592-2.91-.848-4.355-.272-1.439-.567-2.758-.727-3.744l-.3-1.6a18.049,18.049,0,0,0-1.558,2.22,22,22,0,0,0-2.511,5.981,14.134,14.134,0,0,0-.216,4.973c-.11-.292-.217-.581-.324-.872,0-.06-.007-.121-.01-.182-.037-.8-.042-1.59-.023-2.361a44.424,44.424,0,0,1,.43-4.529c.177-1.471.474-2.952.674-4.432s.412-2.994.5-4.565c.024-.423.019-.949-.007-1.545s-.043-1.273-.089-1.982c-.087-1.42-.241-2.987-.334-4.466s-.25-2.832-.3-3.839l-.119-1.634a18.409,18.409,0,0,0-1.793,2.047,22.681,22.681,0,0,0-3.174,5.678,14.753,14.753,0,0,0-.81,5.249c-.078-.315-.155-.632-.23-.941.056-.969.158-1.911.285-2.824.223-1.531.6-3.011.953-4.46s.8-2.89,1.164-4.347c.191-.731.353-1.463.528-2.215s.329-1.515.457-2.3c.141-.842.192-2.107.266-3.543s.056-3.019.11-4.511c.025-1.486.047-2.869.064-3.879s.038-1.651.038-1.651a18.744,18.744,0,0,0-1.981,1.882A23.856,23.856,0,0,0,340.1,374.3c-.162.333-.3.68-.435,1.032.021-.26.043-.519.062-.781.082-.9.154-1.813.2-2.733a49.264,49.264,0,0,0-.016-5.552q-.051-.691-.139-1.392c-.049-.467-.107-.936-.176-1.405-.137-.938-.311-1.875-.51-2.793-.385-1.837-.821-3.6-1.277-5.147-.849-3.086-1.667-5.277-1.667-5.277A55.113,55.113,0,0,0,334.6,355.6a51.821,51.821,0,0,0-.928,5.316c-.1.954-.176,1.929-.214,2.9-.018.487-.029.974-.026,1.457s.035.963.07,1.438a32.692,32.692,0,0,0,.913,5.636c.225.919.469,1.823.73,2.7.081.255.164.5.247.756-.21-.319-.428-.63-.663-.927a30.264,30.264,0,0,0-4.675-4.8,22.023,22.023,0,0,0-2.245-1.677l.291,1.766c.185,1.08.491,2.554.82,4.13s.764,3.251,1.168,4.74a24.685,24.685,0,0,0,1.238,3.617c.355.77.729,1.508,1.117,2.22s.822,1.4,1.245,2.064c.863,1.335,1.719,2.607,2.642,3.867s1.779,2.526,2.65,3.847c.536.8,1.035,1.638,1.516,2.508q.12.519.246,1.048a17.448,17.448,0,0,0-3.067-4.633,32.27,32.27,0,0,0-5.121-4.342,22.494,22.494,0,0,0-2.4-1.47l.462,1.743c.271,1.067.732,2.514,1.217,4.061s1.075,3.184,1.643,4.633c.287.724.556,1.4.832,2s.544,1.1.779,1.5a32.238,32.238,0,0,0,2.817,4.031c1.013,1.238,2,2.415,3.065,3.564s2.058,2.313,3.085,3.523c.513.605,1.014,1.228,1.5,1.879.048.063.092.131.139.195.1.282.2.559.3.842.007.02.015.039.022.059a17.54,17.54,0,0,0-3.385-3.893,33.59,33.59,0,0,0-5.592-3.751,22.958,22.958,0,0,0-2.552-1.208l.658,1.7c.389,1.04,1.016,2.438,1.683,3.931.651,1.5,1.454,3.062,2.195,4.444a23.252,23.252,0,0,0,2.041,3.3c.527.679,1.065,1.32,1.61,1.931s1.138,1.18,1.712,1.735c1.158,1.108,2.307,2.145,3.521,3.144,1.772,1.514,3.548,3,5.275,4.712l.248.477c.064.123.135.244.2.366a19.347,19.347,0,0,0-1.448-1.469,15.179,15.179,0,0,0-2.28-1.719,33.862,33.862,0,0,0-6.058-2.985,23.411,23.411,0,0,0-2.691-.878l.879,1.612c.264.495.6,1.07.985,1.7l1.232,2.009a43.96,43.96,0,0,0,5.331,7.125c.625.6,1.237,1.168,1.886,1.687s1.309,1,1.964,1.468,1.306.912,1.963,1.343l2.014,1.237c.667.408,1.33.816,1.986,1.233s1.349.815,2.012,1.248q.916.592,1.814,1.245c.184.241.37.482.556.723-.107-.079-.208-.165-.316-.242-.383-.294-.774-.576-1.176-.839a14.737,14.737,0,0,0-2.522-1.34,34.551,34.551,0,0,0-6.481-2.009,23.73,23.73,0,0,0-2.792-.475l1.115,1.479c.715.884,1.713,2.078,2.792,3.342,1.1,1.254,2.347,2.53,3.464,3.659a28.372,28.372,0,0,0,3,2.552q.533.373,1.065.716c.361.224.731.43,1.1.634.73.4,1.457.779,2.18,1.131,1.425.724,2.928,1.278,4.37,1.868.731.285,1.432.6,2.175.87s1.47.57,2.2.881c.579.242,1.148.51,1.725.78q.307.287.625.563a17.546,17.546,0,0,0-4.044-1.509c-.649-.147-1.3-.251-1.911-.363s-1.2-.2-1.77-.268c-1.137-.14-2.177-.209-3.058-.239s-1.6-.027-2.085-.02-.767.032-.767.032l.363.349c.232.225.569.546,1.005.917.864.75,2.041,1.775,3.33,2.837,1.332,1.02,2.751,2.1,4.066,3.005a32.19,32.19,0,0,0,3.4,1.992,21.848,21.848,0,0,0,2.375.939c.789.272,1.569.513,2.341.735s1.547.409,2.325.574l2.309.486c1.513.342,3.074.586,4.614.948.537.119,1.07.261,1.608.4l.146.1c.185.116.372.228.558.342-.163-.044-.325-.088-.489-.127q-.347-.1-.7-.181a14.622,14.622,0,0,0-2.82-.4c-.666-.026-1.32-.026-1.948-.013-.618,0-1.216.016-1.787.047-1.142.062-2.176.177-3.047.3-1.751.262-2.81.526-2.81.526s.591.416,1.578.994,2.311,1.4,3.775,2.2c1.491.77,3.059,1.581,4.529,2.244a32.948,32.948,0,0,0,3.786,1.415l.638.167a5.373,5.373,0,0,0,.615.131q.595.1,1.182.18c.784.107,1.559.191,2.329.259l1.152.093.143.01.072.005.036,0h.031c.043.022-.089-.048.1.049l.3.017.6.031,2.38.094c2.063.039,4.1.033,6.2.131.246.1.491.194.737.288a19.362,19.362,0,0,0-3.833.114,37.348,37.348,0,0,0-3.7.711c-1.124.258-2.133.537-2.982.8l-.605.2-.278.094-.067.023-.033.011-.017.006-.008,0c-.292-.155-.082-.043-.148-.077H396l-.121.045c-.318.118-.589.228-.811.32-.443.185-.684.306-.684.306l1.824.78,1.907.736c.713.269,1.507.521,2.32.794a40.178,40.178,0,0,0,8.946,1.967,41.224,41.224,0,0,0,9.7-1.033c1.923-.375,3.824-.766,5.813-1.028l.09.019a9.734,9.734,0,0,0-1.429.387,21.97,21.97,0,0,0-4.16,2.072,15.636,15.636,0,0,0-1.594,1.136l1.238.175c.76.111,1.791.227,2.9.338a36.939,36.939,0,0,0,5.937.22Zm-2.507-9.088a2.879,2.879,0,0,1-.275-.4l.086-.074.477.194.528.226.668.3c.249.107.506.233.782.364s.561.276.85.435.576.343.875.524.607.358.918.533c.627.342,1.273.661,1.88.965l1.68.8,1.212.54.463.2-.042.1-.5-.128c-.316-.076-.761-.208-1.3-.366l-.863-.266c-.307-.093-.623-.209-.954-.32-.661-.227-1.353-.5-2.038-.783l-1.028-.42c-.341-.137-.667-.289-.974-.448a9.411,9.411,0,0,1-1.538-1.053,6.566,6.566,0,0,1-.913-.927ZM407.859,474.9a4.43,4.43,0,0,1-.233-.439l-.073-.158.1-.058.536.426.608.486c.229.19.511.378.8.606s.609.462.948.717l1.061.8c.367.279.734.584,1.117.89s.791.589,1.2.88c.821.582,1.686,1.113,2.515,1.6s1.628.9,2.317,1.266,1.284.628,1.7.823l.654.306-.046.1-.69-.231c-.44-.142-1.062-.362-1.8-.656l-1.183-.482c-.422-.164-.844-.387-1.291-.592s-.9-.438-1.353-.674-.907-.5-1.357-.759-.9-.518-1.329-.794-.849-.548-1.237-.829a14.58,14.58,0,0,1-1.891-1.768,8.951,8.951,0,0,1-1.066-1.45Zm-15.722-9.037.106-.038.454.53.513.6.66.782.789.873c.281.31.573.642.869.993s.59.728.9,1.109a12.14,12.14,0,0,0,1,1.136c.724.743,1.474,1.467,2.19,2.137l.532.49.258.237.127.116.063.057.031.029.008.007,0,0,0,0h0l-.038-.02h0l.016.013.948.8c.6.483,1.1.9,1.472,1.163l.576.423-.065.087-.628-.357c-.405-.215-.946-.592-1.607-1.022l-.507-.345-.266-.182-.136-.093-.034-.023,0,0h0l.028.015h0l-.009-.006-.017-.013-.069-.051c-.372-.271-.742-.578-1.138-.885-.78-.625-1.6-1.3-2.4-2.006-.407-.346-.756-.721-1.126-1.076s-.71-.718-1.028-1.076a13.532,13.532,0,0,1-1.5-2.1,10.948,10.948,0,0,1-.773-1.654,4.582,4.582,0,0,1-.15-.48Zm-13.663-11.083.353.6.4.682.511.884.638,1.013c.228.359.463.741.7,1.143s.462.827.7,1.258q.177.325.369.651l.41.627c.557.836,1.149,1.664,1.722,2.437s1.157,1.457,1.659,2.048.942,1.071,1.251,1.411l.483.537-.079.073-.544-.481c-.351-.3-.831-.752-1.409-1.294l-.916-.885c-.331-.307-.626-.687-.96-1.049-.648-.742-1.323-1.542-1.967-2.355-.336-.395-.623-.838-.926-1.251s-.58-.836-.835-1.247a13.186,13.186,0,0,1-1.125-2.349,10.9,10.9,0,0,1-.47-1.761,4.527,4.527,0,0,1-.063-.5l-.013-.175Zm-11.74-13.138.017-.175h.113l.247.652.279.74.355.958c.137.351.266.734.435,1.123s.329.809.492,1.245.314.893.477,1.359.332.945.53,1.407c.4.918.842,1.836,1.273,2.7l.638,1.238.626,1.077c.4.664.74,1.218.985,1.606l.381.612-.091.058-.452-.568c-.293-.357-.687-.885-1.161-1.519l-.744-1.034c-.253-.378-.492-.789-.754-1.207-.508-.844-1.038-1.744-1.526-2.661-.237-.468-.46-.94-.684-1.4s-.428-.922-.608-1.37-.314-.891-.433-1.309-.189-.837-.253-1.212a10.875,10.875,0,0,1-.164-1.813,4.535,4.535,0,0,1,.023-.5Zm-9.378-14.678a4.5,4.5,0,0,1,.1-.492l.044-.17.112.019.144.685.162.777c.06.3.13.639.2,1s.153.767.239,1.19l.281,1.314c.093.457.168.933.255,1.419s.185.982.292,1.478c.215.994.523,1.955.8,2.879.3.911.553,1.792.842,2.507s.527,1.323.7,1.747l.274.667-.1.041-.352-.636c-.229-.4-.53-.986-.893-1.691-.181-.35-.353-.745-.539-1.159s-.357-.859-.547-1.314c-.356-.92-.76-1.878-1.049-2.89-.16-.5-.305-1-.452-1.494s-.276-.98-.383-1.451a13.865,13.865,0,0,1-.258-2.613,10.891,10.891,0,0,1,.119-1.818Zm-7.371-14.73a10.977,10.977,0,0,1,.366-1.789,4.541,4.541,0,0,1,.167-.475l.067-.163.108.035.05.7c.015.22.034.488.055.8l.065,1.027c.031.378.047.784.075,1.216s.051.885.078,1.353.035.95.052,1.445.044,1,.08,1.508c.061,1.021.207,2.027.355,2.979s.3,1.846.445,2.614c.161.759.32,1.39.429,1.836s.17.7.17.7l-.105.025-.252-.682c-.163-.433-.382-1.053-.621-1.811l-.347-1.234c-.125-.437-.227-.9-.349-1.381l-.336-1.478c-.1-.508-.182-1.028-.264-1.546s-.16-1.036-.236-1.546-.135-1.011-.174-1.494a16.813,16.813,0,0,1,.121-2.635ZM344.5,397.4a17.39,17.39,0,0,1,.438-2.611,11.118,11.118,0,0,1,.577-1.741,4.576,4.576,0,0,1,.222-.454l.087-.155.1.048-.034.707c-.011.222-.025.492-.04.8l-.058,1.033c-.014.381-.046.787-.07,1.222s-.059.889-.09,1.359-.083.951-.127,1.446-.08,1-.107,1.51-.047,1.023-.054,1.528.015,1,.022,1.482c.031.965.065,1.873.106,2.654s.126,1.424.171,1.883l.076.717-.108.011-.159-.71c-.1-.452-.248-1.093-.365-1.883l-.185-1.27c-.068-.45-.109-.926-.168-1.417s-.1-1-.139-1.514-.052-1.045-.067-1.57-.031-1.05-.043-1.567S344.474,397.887,344.5,397.4Zm-3.787-11.863c.009-.494.017-1,.026-1.523.024-.519.06-1.047.1-1.572s.082-1.05.125-1.567.1-1.022.174-1.5a16.5,16.5,0,0,1,.7-2.56,11.282,11.282,0,0,1,.753-1.681,4.643,4.643,0,0,1,.267-.432l.1-.146.1.059-.107.7-.123.8-.164,1.027c-.053.379-.127.782-.2,1.214l-.224,1.347c-.08.465-.184.941-.281,1.431s-.186.99-.268,1.5c-.171,1.013-.273,2.032-.355,3s-.144,1.873-.19,2.655-.036,1.432-.043,1.893l-.008.722-.108,0-.076-.724c-.048-.461-.116-1.116-.15-1.915l-.043-1.284c-.017-.456,0-.933-.009-1.429ZM336.26,365c.1-1.28.233-2,.233-2s.2.7.438,1.955a43.678,43.678,0,0,1,.736,5.286c.108,1.111.195,2.383.267,3.706s.183,2.692.255,4.007.173,2.566.265,3.647.17,1.995.24,2.626c-.113-.625-.3-1.521-.521-2.586s-.492-2.3-.716-3.6-.495-2.658-.676-3.977-.345-2.592-.453-3.71A38.633,38.633,0,0,1,336.26,365Zm2.519,26.348-.287-.675-.754-1.775c-.306-.732-.676-1.582-1.076-2.491l-1.3-2.82c-.225-.475-.453-.949-.692-1.406s-.474-.907-.687-1.352-.413-.88-.58-1.3-.342-.811-.486-1.185l-.41-1.009-.315-.789-.277-.7.081-.082.134.128a5.132,5.132,0,0,1,.366.383,12.675,12.675,0,0,1,1.142,1.533,20.649,20.649,0,0,1,1.311,2.393c.211.46.417.942.6,1.442l.574,1.506,1.093,2.969c.164.478.336.933.473,1.375l.392,1.242c.228.775.456,1.409.578,1.862l.21.707Zm4.688,18.2-.363-.638c-.223-.41-.574-.984-.951-1.681s-.849-1.5-1.348-2.361l-1.594-2.671c-.275-.45-.553-.9-.841-1.329s-.57-.855-.83-1.277-.49-.839-.707-1.239-.425-.775-.608-1.133l-.514-.966-.4-.756-.349-.672.073-.09.146.114a5.22,5.22,0,0,1,.4.346,12.878,12.878,0,0,1,1.3,1.416,19.462,19.462,0,0,1,1.548,2.255c.256.438.516.9.755,1.375l.734,1.44,1.408,2.839c.216.458.439.891.624,1.317l.529,1.192c.307.747.614,1.35.785,1.787l.291.679Zm6.947,17.487-.445-.585-1.178-1.537c-.473-.639-1.036-1.379-1.643-2.171l-1.931-2.451c-.33-.413-.661-.825-1-1.218s-.673-.781-.985-1.17-.6-.773-.859-1.148-.516-.722-.741-1.058l-.628-.9-.485-.708-.428-.63.06-.1.16.1a5.29,5.29,0,0,1,.444.3,13.031,13.031,0,0,1,1.46,1.258,20.2,20.2,0,0,1,1.812,2.06c.313.4.625.828.924,1.274l.909,1.341.89,1.344.876,1.3c.274.427.55.829.79,1.227l.679,1.115c.423.693.794,1.255,1.027,1.664l.379.635Zm9.453,16.293-.529-.51c-.336-.328-.817-.792-1.4-1.34s-1.238-1.205-1.964-1.9-1.522-1.408-2.29-2.137c-.386-.362-.773-.724-1.167-1.066s-.779-.68-1.144-1.021-.721-.675-1.031-1.011-.613-.647-.883-.949l-.749-.812-.58-.638-.513-.568.046-.107.172.074a5.33,5.33,0,0,1,.482.235,13.171,13.171,0,0,1,1.623,1.05,26.457,26.457,0,0,1,2.1,1.785c.367.355.738.732,1.1,1.133l1.092,1.2c.712.811,1.484,1.589,2.152,2.349.334.383.667.74.962,1.1s.573.7.851.994c.536.613.979,1.119,1.274,1.487l.471.571ZM371.9,457.846l-.606-.415c-.385-.267-.937-.645-1.6-1.088l-1.088-.707-1.182-.821c-.825-.564-1.716-1.154-2.624-1.723-.453-.285-.883-.589-1.329-.861s-.878-.547-1.293-.827-.813-.558-1.188-.831-.724-.532-1.038-.79l-.868-.688-.674-.542-.6-.484.028-.113.182.047a5.325,5.325,0,0,1,.512.158,13.193,13.193,0,0,1,1.767.786c.355.188.734.4,1.127.644s.828.488,1.252.773.846.606,1.265.944l1.27,1.011c.875.652,1.738,1.315,2.529,1.949.392.323.778.621,1.129.927l1.026.82c.631.516,1.152.941,1.5,1.254l.559.484Zm14.41,12.162-.668-.3c-.426-.2-1.034-.471-1.768-.791s-1.613-.662-2.51-1.094c-.909-.412-1.888-.839-2.88-1.241l-.746-.3-.725-.3c-.482-.2-.958-.388-1.415-.592s-.9-.41-1.313-.615-.816-.388-1.176-.582l-.972-.532-.756-.421-.671-.376.008-.116.187.015a5.3,5.3,0,0,1,.531.068,13.153,13.153,0,0,1,1.873.474c.752.261,1.676.547,2.6.969.464.216.937.452,1.408.713s.942.523,1.436.763c.979.484,1.94.991,2.829,1.478.445.246.866.487,1.279.707l1.155.625c.711.4,1.3.725,1.7.973l.635.379Zm16.325,9.453-.722-.163c-.465-.1-1.105-.283-1.888-.47l-1.269-.3-.021,0h0l-.04-.021h-.009l-.01,0-.041-.011-.082-.022-.167-.044-.339-.089-.7-.181c-.951-.238-1.967-.476-2.983-.682-.505-.09-1.023-.223-1.538-.333s-1.02-.219-1.511-.343-.966-.253-1.418-.385-.883-.249-1.279-.376l-1.049-.352-.817-.281-.725-.252-.012-.116.186-.018a5.226,5.226,0,0,1,.534-.027,13.087,13.087,0,0,1,1.924.137,27.1,27.1,0,0,1,2.753.509c.5.134,1.01.285,1.522.462s1.034.354,1.545.507c1.024.292,2.041.615,2.989.931.472.166.932.311,1.361.476l.08.03.02.008.01,0,.031.016h0l.005,0,.041.014.163.055.318.108.6.2,1.851.662.7.243Zm17.937,5.88-.734-.018-1.933-.051c-.8-.025-1.734-.017-2.734-.058l-3.141-.051-1.6.005c-.525,0-1.043,0-1.547-.012s-1-.036-1.459-.086-.9-.079-1.316-.127-.79-.081-1.122-.119l-.87-.121-.773-.111-.036-.112.182-.053a5.365,5.365,0,0,1,.526-.127,17.121,17.121,0,0,1,1.941-.247,24.185,24.185,0,0,1,2.793-.046c.515.024,1.046.062,1.584.125s1.082.1,1.628.153l3.181.3,1.455.154,1.3.15c.8.11,1.474.174,1.939.247l.732.1Zm4.9,3.462c-.271.016-.53.009-.755.016h-.594l-.534-.011-.053-.1a3.017,3.017,0,0,1,.424-.261,6.973,6.973,0,0,1,1.23-.493,10.784,10.784,0,0,1,1.85-.393c.348-.033.711-.051,1.082-.052l1.117-.018c.746-.017,1.49-.018,2.189,0,.349.015.686.02,1.006.043l.9.062c.558.047,1.02.085,1.342.128l.507.06,0,.108-.5.024-1.322.067c-.543.035-1.179.087-1.854.146s-1.393.133-2.108.223c-.356.049-.712.1-1.057.163s-.685.124-1.019.163-.658.068-.969.083-.6.038-.88.043Z" fill="#1f1f1f"/>
    <path id="Path_9871" data-name="Path 9871" d="M400.395,475.385Z" fill="#1f1f1f"/>
    <path id="Path_9872" data-name="Path 9872" d="M451.309,485.558l-7.878,4.975,7.878,4.976,7.877-4.976Z" fill="#1f1f1f"/>
  </g>
</svg>
