<svg xmlns="http://www.w3.org/2000/svg" width="80.604" height="80.605" viewBox="0 0 80.604 80.605">
  <g id="Group_11" data-name="Group 11" transform="translate(-77.744 -52.916)">
    <g id="Group_3" data-name="Group 3">
      <path id="Path_85" data-name="Path 85" d="M129.6,68.451a2.371,2.371,0,1,1-3.316.5,2.371,2.371,0,0,1,3.316-.5Z" fill="#75d1f7"/>
      <path id="Path_86" data-name="Path 86" d="M126.468,64.97a1.654,1.654,0,1,1-2.313.347,1.654,1.654,0,0,1,2.313-.347Z" fill="#75d1f7"/>
      <path id="Path_87" data-name="Path 87" d="M123.095,69.538a3.285,3.285,0,1,1-4.594.689,3.285,3.285,0,0,1,4.594-.689Z" fill="#75d1f7"/>
      <path id="Path_88" data-name="Path 88" d="M126.749,73.1a1.092,1.092,0,1,1-.812-.2,1.093,1.093,0,0,1,.812.2Z" fill="#75d1f7"/>
      <path id="Path_89" data-name="Path 89" d="M129.368,65.971a.709.709,0,1,1-.527-.131.709.709,0,0,1,.527.131Z" fill="#75d1f7"/>
      <path id="Path_90" data-name="Path 90" d="M124.98,68.609a.685.685,0,1,1-.51-.128A.686.686,0,0,1,124.98,68.609Z" fill="#75d1f7"/>
      <path id="Path_91" data-name="Path 91" d="M118.966,66.484a1.643,1.643,0,1,1-2.3.345,1.643,1.643,0,0,1,2.3-.345Z" fill="#75d1f7"/>
      <path id="Path_92" data-name="Path 92" d="M116.649,69.5a1.177,1.177,0,1,1-1.646.247A1.177,1.177,0,0,1,116.649,69.5Z" fill="#75d1f7"/>
      <path id="Path_93" data-name="Path 93" d="M122.539,64.419a1.645,1.645,0,1,1-2.3.345A1.645,1.645,0,0,1,122.539,64.419Z" fill="#75d1f7"/>
      <path id="Path_94" data-name="Path 94" d="M114.574,62.32a2.649,2.649,0,1,1-3.705.555,2.649,2.649,0,0,1,3.705-.555Z" fill="#75d1f7"/>
      <path id="Path_95" data-name="Path 95" d="M119.241,62.605a1.273,1.273,0,1,1-1.78.267,1.273,1.273,0,0,1,1.78-.267Z" fill="#75d1f7"/>
      <path id="Path_96" data-name="Path 96" d="M114.213,67.683a.841.841,0,1,1-.626-.156.843.843,0,0,1,.626.156Z" fill="#75d1f7"/>
      <path id="Path_97" data-name="Path 97" d="M111.287,58.249a1.561,1.561,0,1,1-2.183.328A1.561,1.561,0,0,1,111.287,58.249Z" fill="#75d1f7"/>
      <path id="Path_98" data-name="Path 98" d="M109.6,61.583a.624.624,0,1,1-.873.131.624.624,0,0,1,.873-.131Z" fill="#75d1f7"/>
      <path id="Path_99" data-name="Path 99" d="M113.765,59.781a.78.78,0,1,1-1.091.163.78.78,0,0,1,1.091-.163Z" fill="#75d1f7"/>
      <path id="Path_100" data-name="Path 100" d="M108.239,56.667a1.1,1.1,0,1,1-1.544.231,1.1,1.1,0,0,1,1.544-.231Z" fill="#75d1f7"/>
      <path id="Path_101" data-name="Path 101" d="M107.141,54.294a.627.627,0,1,1-.877.132.627.627,0,0,1,.877-.132Z" fill="#75d1f7"/>
      <path id="Path_102" data-name="Path 102" d="M106.258,53.005a.456.456,0,1,1-.638.1.456.456,0,0,1,.638-.1Z" fill="#75d1f7"/>
      <path id="Path_103" data-name="Path 103" d="M106.413,55.807a.313.313,0,1,1-.439.065.313.313,0,0,1,.439-.065Z" fill="#75d1f7"/>
      <path id="Path_104" data-name="Path 104" d="M116.4,61a.684.684,0,1,1-.957.144A.684.684,0,0,1,116.4,61Z" fill="#75d1f7"/>
      <path id="Path_105" data-name="Path 105" d="M116.9,64.7a.636.636,0,1,1-.891.133.636.636,0,0,1,.891-.133Z" fill="#75d1f7"/>
    </g>
    <g id="Group_4" data-name="Group 4">
      <path id="Path_106" data-name="Path 106" d="M108.7,67.535a2.371,2.371,0,1,1-1.994,2.7,2.371,2.371,0,0,1,1.994-2.7Z" fill="#bbd64c"/>
      <path id="Path_107" data-name="Path 107" d="M104.026,67.289a1.654,1.654,0,1,1-1.391,1.881,1.654,1.654,0,0,1,1.391-1.881Z" fill="#bbd64c"/>
      <path id="Path_108" data-name="Path 108" d="M104.871,72.9a3.285,3.285,0,1,1-2.761,3.735,3.285,3.285,0,0,1,2.761-3.735Z" fill="#bbd64c"/>
      <path id="Path_109" data-name="Path 109" d="M109.973,72.837a1.093,1.093,0,1,1-.919,1.243A1.093,1.093,0,0,1,109.973,72.837Z" fill="#bbd64c"/>
      <path id="Path_110" data-name="Path 110" d="M106.784,65.946a.709.709,0,1,1-.6.807.709.709,0,0,1,.6-.807Z" fill="#bbd64c"/>
      <path id="Path_111" data-name="Path 111" d="M105.548,70.914a.685.685,0,1,1-.45.27.686.686,0,0,1,.45-.27Z" fill="#bbd64c"/>
      <path id="Path_112" data-name="Path 112" d="M99.794,73.665a1.642,1.642,0,1,1-1.382,1.867,1.642,1.642,0,0,1,1.382-1.867Z" fill="#bbd64c"/>
      <path id="Path_113" data-name="Path 113" d="M100.285,77.433a1.177,1.177,0,1,1-.99,1.339,1.177,1.177,0,0,1,.99-1.339Z" fill="#bbd64c"/>
      <path id="Path_114" data-name="Path 114" d="M100.858,69.676a1.645,1.645,0,1,1-1.383,1.871A1.645,1.645,0,0,1,100.858,69.676Z" fill="#bbd64c"/>
      <path id="Path_115" data-name="Path 115" d="M93.743,73.825a2.649,2.649,0,1,1-2.228,3.013,2.649,2.649,0,0,1,2.228-3.013Z" fill="#bbd64c"/>
      <path id="Path_116" data-name="Path 116" d="M97.244,70.727a1.273,1.273,0,1,1-1.07,1.446A1.273,1.273,0,0,1,97.244,70.727Z" fill="#bbd64c"/>
      <path id="Path_117" data-name="Path 117" d="M97.279,77.873a.842.842,0,1,1-.553.332.843.843,0,0,1,.553-.332Z" fill="#bbd64c"/>
      <path id="Path_118" data-name="Path 118" d="M88.54,73.271a1.561,1.561,0,1,1-1.312,1.776,1.561,1.561,0,0,1,1.313-1.776Z" fill="#bbd64c"/>
      <path id="Path_119" data-name="Path 119" d="M89.7,76.821a.624.624,0,1,1-.525.71.624.624,0,0,1,.525-.71Z" fill="#bbd64c"/>
      <path id="Path_120" data-name="Path 120" d="M91.376,72.6a.78.78,0,1,1-.512.308A.781.781,0,0,1,91.376,72.6Z" fill="#bbd64c"/>
      <path id="Path_121" data-name="Path 121" d="M85.266,74.307a1.1,1.1,0,1,1-.725.435A1.1,1.1,0,0,1,85.266,74.307Z" fill="#bbd64c"/>
      <path id="Path_122" data-name="Path 122" d="M82.812,73.406a.627.627,0,1,1-.527.713A.627.627,0,0,1,82.812,73.406Z" fill="#bbd64c"/>
      <path id="Path_123" data-name="Path 123" d="M81.275,73.119a.457.457,0,1,1-.384.519.456.456,0,0,1,.384-.519Z" fill="#bbd64c"/>
      <path id="Path_124" data-name="Path 124" d="M83.367,74.99a.313.313,0,1,1-.206.123.314.314,0,0,1,.206-.123Z" fill="#bbd64c"/>
      <path id="Path_125" data-name="Path 125" d="M94.1,71.6a.683.683,0,1,1-.449.27A.684.684,0,0,1,94.1,71.6Z" fill="#bbd64c"/>
      <path id="Path_126" data-name="Path 126" d="M97.07,73.862a.636.636,0,1,1-.535.724A.636.636,0,0,1,97.07,73.862Z" fill="#bbd64c"/>
    </g>
    <g id="Group_5" data-name="Group 5">
      <path id="Path_127" data-name="Path 127" d="M93.278,81.665a2.371,2.371,0,1,1,.5,3.316,2.371,2.371,0,0,1-.5-3.316Z" fill="#f7d92d"/>
      <path id="Path_128" data-name="Path 128" d="M89.8,84.8a1.654,1.654,0,1,1,.346,2.313A1.654,1.654,0,0,1,89.8,84.8Z" fill="#f7d92d"/>
      <path id="Path_129" data-name="Path 129" d="M94.365,88.17a3.285,3.285,0,1,1,.688,4.593,3.285,3.285,0,0,1-.687-4.593Z" fill="#f7d92d"/>
      <path id="Path_130" data-name="Path 130" d="M97.926,84.516a1.093,1.093,0,1,1,.229,1.528,1.093,1.093,0,0,1-.229-1.528Z" fill="#f7d92d"/>
      <path id="Path_131" data-name="Path 131" d="M90.8,81.9a.709.709,0,1,1-.132.527A.709.709,0,0,1,90.8,81.9Z" fill="#f7d92d"/>
      <path id="Path_132" data-name="Path 132" d="M93.437,86.284a.686.686,0,1,1,.144.959.686.686,0,0,1-.144-.959Z" fill="#f7d92d"/>
      <path id="Path_133" data-name="Path 133" d="M91.312,92.3a1.642,1.642,0,1,1,.345,2.3,1.642,1.642,0,0,1-.345-2.3Z" fill="#f7d92d"/>
      <path id="Path_134" data-name="Path 134" d="M94.325,94.616a1.177,1.177,0,1,1,.246,1.646A1.177,1.177,0,0,1,94.325,94.616Z" fill="#f7d92d"/>
      <path id="Path_135" data-name="Path 135" d="M89.246,88.725a1.645,1.645,0,1,1,.345,2.3,1.645,1.645,0,0,1-.345-2.3Z" fill="#f7d92d"/>
      <path id="Path_136" data-name="Path 136" d="M87.148,96.69A2.649,2.649,0,1,1,87.7,100.4a2.649,2.649,0,0,1-.556-3.706Z" fill="#f7d92d"/>
      <path id="Path_137" data-name="Path 137" d="M87.433,92.023A1.273,1.273,0,1,1,87.7,93.8a1.273,1.273,0,0,1-.267-1.781Z" fill="#f7d92d"/>
      <path id="Path_138" data-name="Path 138" d="M92.511,97.052a.842.842,0,1,1,.176,1.178A.842.842,0,0,1,92.511,97.052Z" fill="#f7d92d"/>
      <path id="Path_139" data-name="Path 139" d="M83.076,99.978a1.561,1.561,0,1,1,.328,2.183A1.561,1.561,0,0,1,83.076,99.978Z" fill="#f7d92d"/>
      <path id="Path_140" data-name="Path 140" d="M86.41,101.665a.624.624,0,1,1-.116.464.625.625,0,0,1,.116-.464Z" fill="#f7d92d"/>
      <path id="Path_141" data-name="Path 141" d="M84.608,97.5a.78.78,0,1,1,.164,1.091.78.78,0,0,1-.164-1.091Z" fill="#f7d92d"/>
      <path id="Path_142" data-name="Path 142" d="M81.494,103.025a1.1,1.1,0,1,1,.231,1.544A1.1,1.1,0,0,1,81.494,103.025Z" fill="#f7d92d"/>
      <path id="Path_143" data-name="Path 143" d="M79.122,104.123a.627.627,0,1,1,.132.877.627.627,0,0,1-.132-.877Z" fill="#f7d92d"/>
      <path id="Path_144" data-name="Path 144" d="M77.833,105.007a.456.456,0,1,1,.1.638.456.456,0,0,1-.1-.638Z" fill="#f7d92d"/>
      <path id="Path_145" data-name="Path 145" d="M80.635,104.852a.313.313,0,1,1-.059.233.314.314,0,0,1,.059-.233Z" fill="#f7d92d"/>
      <path id="Path_146" data-name="Path 146" d="M85.828,94.864a.684.684,0,1,1,.143.956.684.684,0,0,1-.143-.956Z" fill="#f7d92d"/>
      <path id="Path_147" data-name="Path 147" d="M89.527,94.364a.636.636,0,1,1-.117.473A.636.636,0,0,1,89.527,94.364Z" fill="#f7d92d"/>
    </g>
    <g id="Group_6" data-name="Group 6">
      <path id="Path_148" data-name="Path 148" d="M92.363,102.562a2.371,2.371,0,1,1,2.7,1.994,2.371,2.371,0,0,1-2.7-1.994Z" fill="#f4912b"/>
      <path id="Path_149" data-name="Path 149" d="M92.116,107.238A1.654,1.654,0,1,1,94,108.629a1.654,1.654,0,0,1-1.881-1.391Z" fill="#f4912b"/>
      <path id="Path_150" data-name="Path 150" d="M97.731,106.394a3.285,3.285,0,1,1,3.735,2.762,3.285,3.285,0,0,1-3.735-2.762Z" fill="#f4912b"/>
      <path id="Path_151" data-name="Path 151" d="M97.665,101.293a1.093,1.093,0,1,1,1.243.918,1.093,1.093,0,0,1-1.243-.918Z" fill="#f4912b"/>
      <path id="Path_152" data-name="Path 152" d="M90.773,104.481a.709.709,0,1,1,.806.6.709.709,0,0,1-.806-.6Z" fill="#f4912b"/>
      <path id="Path_153" data-name="Path 153" d="M95.741,105.717a.686.686,0,1,1,.78.577.686.686,0,0,1-.78-.577Z" fill="#f4912b"/>
      <path id="Path_154" data-name="Path 154" d="M98.492,111.472a1.642,1.642,0,1,1,1.867,1.38,1.642,1.642,0,0,1-1.867-1.38Z" fill="#f4912b"/>
      <path id="Path_155" data-name="Path 155" d="M102.261,110.98a1.177,1.177,0,1,1,1.338.989,1.177,1.177,0,0,1-1.338-.989Z" fill="#f4912b"/>
      <path id="Path_156" data-name="Path 156" d="M94.5,110.406a1.645,1.645,0,1,1,1.871,1.383,1.645,1.645,0,0,1-1.871-1.383Z" fill="#f4912b"/>
      <path id="Path_157" data-name="Path 157" d="M98.653,117.522a2.649,2.649,0,1,1,3.012,2.227,2.649,2.649,0,0,1-3.012-2.227Z" fill="#f4912b"/>
      <path id="Path_158" data-name="Path 158" d="M95.554,114.02a1.272,1.272,0,1,1,.5.835A1.273,1.273,0,0,1,95.554,114.02Z" fill="#f4912b"/>
      <path id="Path_159" data-name="Path 159" d="M102.7,113.985a.843.843,0,1,1,.959.708.843.843,0,0,1-.959-.708Z" fill="#f4912b"/>
      <path id="Path_160" data-name="Path 160" d="M98.1,122.725a1.561,1.561,0,1,1,1.775,1.313,1.561,1.561,0,0,1-1.775-1.312Z" fill="#f4912b"/>
      <path id="Path_161" data-name="Path 161" d="M101.649,121.562a.624.624,0,1,1,.246.41.625.625,0,0,1-.246-.41Z" fill="#f4912b"/>
      <path id="Path_162" data-name="Path 162" d="M97.429,119.89a.781.781,0,1,1,.888.656A.781.781,0,0,1,97.429,119.89Z" fill="#f4912b"/>
      <path id="Path_163" data-name="Path 163" d="M99.134,126a1.1,1.1,0,1,1,1.256.928A1.1,1.1,0,0,1,99.134,126Z" fill="#f4912b"/>
      <path id="Path_164" data-name="Path 164" d="M98.233,128.453a.627.627,0,1,1,.713.527.627.627,0,0,1-.713-.527Z" fill="#f4912b"/>
      <path id="Path_165" data-name="Path 165" d="M97.946,129.989a.456.456,0,1,1,.519.384.456.456,0,0,1-.519-.384Z" fill="#f4912b"/>
      <path id="Path_166" data-name="Path 166" d="M99.818,127.9a.313.313,0,1,1,.356.264A.313.313,0,0,1,99.818,127.9Z" fill="#f4912b"/>
      <path id="Path_167" data-name="Path 167" d="M96.427,117.164a.684.684,0,1,1,.777.575.684.684,0,0,1-.777-.575Z" fill="#f4912b"/>
      <path id="Path_168" data-name="Path 168" d="M98.69,114.194a.637.637,0,1,1,.724.535.637.637,0,0,1-.724-.535Z" fill="#f4912b"/>
    </g>
    <g id="Group_7" data-name="Group 7">
      <path id="Path_169" data-name="Path 169" d="M106.492,117.986a2.37,2.37,0,1,1,3.315-.5A2.37,2.37,0,0,1,106.492,117.986Z" fill="#ee326b"/>
      <path id="Path_170" data-name="Path 170" d="M109.624,121.468a1.654,1.654,0,1,1,2.314-.346,1.654,1.654,0,0,1-2.314.346Z" fill="#ee326b"/>
      <path id="Path_171" data-name="Path 171" d="M113,116.9a3.284,3.284,0,1,1,4.595-.689A3.284,3.284,0,0,1,113,116.9Z" fill="#ee326b"/>
      <path id="Path_172" data-name="Path 172" d="M109.343,113.339a1.092,1.092,0,1,1,.812.2,1.093,1.093,0,0,1-.812-.2Z" fill="#ee326b"/>
      <path id="Path_173" data-name="Path 173" d="M106.725,120.466a.708.708,0,1,1,.527.132.709.709,0,0,1-.527-.132Z" fill="#ee326b"/>
      <path id="Path_174" data-name="Path 174" d="M111.112,117.828a.686.686,0,1,1,.959-.143.686.686,0,0,1-.959.143Z" fill="#ee326b"/>
      <path id="Path_175" data-name="Path 175" d="M117.127,119.952a1.642,1.642,0,1,1,2.3-.344A1.642,1.642,0,0,1,117.127,119.952Z" fill="#ee326b"/>
      <path id="Path_176" data-name="Path 176" d="M119.443,116.94a1.177,1.177,0,1,1,1.646-.247A1.177,1.177,0,0,1,119.443,116.94Z" fill="#ee326b"/>
      <path id="Path_177" data-name="Path 177" d="M113.553,122.019a1.645,1.645,0,1,1,2.3-.345,1.645,1.645,0,0,1-2.3.345Z" fill="#ee326b"/>
      <path id="Path_178" data-name="Path 178" d="M121.518,124.116a2.649,2.649,0,1,1,3.7-.555,2.649,2.649,0,0,1-3.7.555Z" fill="#ee326b"/>
      <path id="Path_179" data-name="Path 179" d="M116.851,123.832a1.273,1.273,0,1,1,1.78-.267,1.273,1.273,0,0,1-1.78.267Z" fill="#ee326b"/>
      <path id="Path_180" data-name="Path 180" d="M121.879,118.754a.842.842,0,1,1,1.178-.177.842.842,0,0,1-1.178.177Z" fill="#ee326b"/>
      <path id="Path_181" data-name="Path 181" d="M124.805,128.188a1.561,1.561,0,1,1,2.183-.327,1.561,1.561,0,0,1-2.183.327Z" fill="#ee326b"/>
      <path id="Path_182" data-name="Path 182" d="M126.493,124.855a.624.624,0,1,1,.464.115.624.624,0,0,1-.464-.115Z" fill="#ee326b"/>
      <path id="Path_183" data-name="Path 183" d="M122.327,126.656a.78.78,0,1,1,1.091-.164.78.78,0,0,1-1.091.164Z" fill="#ee326b"/>
      <path id="Path_184" data-name="Path 184" d="M127.852,129.77a1.1,1.1,0,1,1,1.544-.231A1.1,1.1,0,0,1,127.852,129.77Z" fill="#ee326b"/>
      <path id="Path_185" data-name="Path 185" d="M128.951,132.143a.627.627,0,1,1,.877-.132.627.627,0,0,1-.877.132Z" fill="#ee326b"/>
      <path id="Path_186" data-name="Path 186" d="M129.833,133.432a.456.456,0,1,1,.34.085.456.456,0,0,1-.34-.085Z" fill="#ee326b"/>
      <path id="Path_187" data-name="Path 187" d="M129.679,130.63a.314.314,0,1,1,.439-.066A.314.314,0,0,1,129.679,130.63Z" fill="#ee326b"/>
      <path id="Path_188" data-name="Path 188" d="M119.691,125.437a.683.683,0,1,1,.508.127.684.684,0,0,1-.508-.127Z" fill="#ee326b"/>
      <path id="Path_189" data-name="Path 189" d="M119.19,121.738a.637.637,0,1,1,.891-.133.637.637,0,0,1-.891.133Z" fill="#ee326b"/>
    </g>
    <g id="Group_8" data-name="Group 8">
      <path id="Path_190" data-name="Path 190" d="M127.39,118.9a2.371,2.371,0,1,1,1.994-2.7,2.371,2.371,0,0,1-1.994,2.7Z" fill="#ef4343"/>
      <path id="Path_191" data-name="Path 191" d="M132.066,119.149a1.654,1.654,0,1,1,1.39-1.881A1.654,1.654,0,0,1,132.066,119.149Z" fill="#ef4343"/>
      <path id="Path_192" data-name="Path 192" d="M131.221,113.534a3.285,3.285,0,1,1,2.762-3.736,3.285,3.285,0,0,1-2.762,3.736Z" fill="#ef4343"/>
      <path id="Path_193" data-name="Path 193" d="M126.12,113.6a1.093,1.093,0,1,1,.919-1.243A1.093,1.093,0,0,1,126.12,113.6Z" fill="#ef4343"/>
      <path id="Path_194" data-name="Path 194" d="M129.308,120.492a.71.71,0,1,1,.6-.807A.71.71,0,0,1,129.308,120.492Z" fill="#ef4343"/>
      <path id="Path_195" data-name="Path 195" d="M130.544,115.523a.686.686,0,1,1,.577-.78.686.686,0,0,1-.577.78Z" fill="#ef4343"/>
      <path id="Path_196" data-name="Path 196" d="M136.3,112.773a1.642,1.642,0,1,1,1.381-1.868,1.642,1.642,0,0,1-1.381,1.868Z" fill="#ef4343"/>
      <path id="Path_197" data-name="Path 197" d="M135.807,109a1.177,1.177,0,1,1,.989-1.338,1.177,1.177,0,0,1-.989,1.338Z" fill="#ef4343"/>
      <path id="Path_198" data-name="Path 198" d="M135.233,116.761a1.645,1.645,0,1,1,1.383-1.871A1.645,1.645,0,0,1,135.233,116.761Z" fill="#ef4343"/>
      <path id="Path_199" data-name="Path 199" d="M142.349,112.612a2.649,2.649,0,1,1,2.228-3.012,2.649,2.649,0,0,1-2.228,3.012Z" fill="#ef4343"/>
      <path id="Path_200" data-name="Path 200" d="M138.848,115.711a1.273,1.273,0,1,1,1.07-1.448,1.273,1.273,0,0,1-1.07,1.448Z" fill="#ef4343"/>
      <path id="Path_201" data-name="Path 201" d="M138.813,108.564a.841.841,0,1,1,.554-.332.843.843,0,0,1-.554.332Z" fill="#ef4343"/>
      <path id="Path_202" data-name="Path 202" d="M147.552,113.166a1.561,1.561,0,1,1,1.312-1.775A1.561,1.561,0,0,1,147.552,113.166Z" fill="#ef4343"/>
      <path id="Path_203" data-name="Path 203" d="M146.389,109.615a.624.624,0,1,1,.41-.246.624.624,0,0,1-.41.246Z" fill="#ef4343"/>
      <path id="Path_204" data-name="Path 204" d="M144.717,113.836a.781.781,0,1,1,.657-.888.781.781,0,0,1-.657.888Z" fill="#ef4343"/>
      <path id="Path_205" data-name="Path 205" d="M150.826,112.131a1.1,1.1,0,1,1,.929-1.256,1.1,1.1,0,0,1-.929,1.256Z" fill="#ef4343"/>
      <path id="Path_206" data-name="Path 206" d="M153.28,113.031a.626.626,0,1,1,.411-.247.627.627,0,0,1-.411.247Z" fill="#ef4343"/>
      <path id="Path_207" data-name="Path 207" d="M154.816,113.318a.457.457,0,1,1,.3-.18A.457.457,0,0,1,154.816,113.318Z" fill="#ef4343"/>
      <path id="Path_208" data-name="Path 208" d="M152.726,111.447a.314.314,0,1,1,.206-.124A.314.314,0,0,1,152.726,111.447Z" fill="#ef4343"/>
      <path id="Path_209" data-name="Path 209" d="M141.992,114.838a.684.684,0,1,1,.575-.778.684.684,0,0,1-.575.778Z" fill="#ef4343"/>
      <path id="Path_210" data-name="Path 210" d="M139.021,112.575a.637.637,0,1,1,.536-.724A.637.637,0,0,1,139.021,112.575Z" fill="#ef4343"/>
    </g>
    <g id="Group_9" data-name="Group 9">
      <path id="Path_211" data-name="Path 211" d="M142.814,104.773a2.371,2.371,0,1,1-.5-3.316,2.371,2.371,0,0,1,.5,3.316Z" fill="#81469b"/>
      <path id="Path_212" data-name="Path 212" d="M146.295,101.641a1.653,1.653,0,1,1,.306-1.229,1.654,1.654,0,0,1-.306,1.229Z" fill="#81469b"/>
      <path id="Path_213" data-name="Path 213" d="M141.727,98.267a3.285,3.285,0,1,1-.688-4.594,3.285,3.285,0,0,1,.688,4.594Z" fill="#81469b"/>
      <path id="Path_214" data-name="Path 214" d="M138.167,101.921a1.092,1.092,0,1,1,.2-.812,1.092,1.092,0,0,1-.2.812Z" fill="#81469b"/>
      <path id="Path_215" data-name="Path 215" d="M145.294,104.54a.709.709,0,1,1,.132-.527.709.709,0,0,1-.132.527Z" fill="#81469b"/>
      <path id="Path_216" data-name="Path 216" d="M142.655,100.153a.686.686,0,1,1,.127-.51.686.686,0,0,1-.127.51Z" fill="#81469b"/>
      <path id="Path_217" data-name="Path 217" d="M144.779,94.139a1.642,1.642,0,1,1-.344-2.3A1.642,1.642,0,0,1,144.779,94.139Z" fill="#81469b"/>
      <path id="Path_218" data-name="Path 218" d="M141.767,91.822a1.177,1.177,0,1,1,.218-.875A1.177,1.177,0,0,1,141.767,91.822Z" fill="#81469b"/>
      <path id="Path_219" data-name="Path 219" d="M146.846,97.712a1.645,1.645,0,1,1-.344-2.3,1.645,1.645,0,0,1,.344,2.3Z" fill="#81469b"/>
      <path id="Path_220" data-name="Path 220" d="M148.944,89.747a2.649,2.649,0,1,1-.556-3.705,2.649,2.649,0,0,1,.556,3.705Z" fill="#81469b"/>
      <path id="Path_221" data-name="Path 221" d="M148.659,94.414a1.272,1.272,0,1,1,.236-.945A1.273,1.273,0,0,1,148.659,94.414Z" fill="#81469b"/>
      <path id="Path_222" data-name="Path 222" d="M143.581,89.385a.842.842,0,1,1,.156-.626.843.843,0,0,1-.156.626Z" fill="#81469b"/>
      <path id="Path_223" data-name="Path 223" d="M153.016,86.46a1.561,1.561,0,1,1-.327-2.183,1.561,1.561,0,0,1,.327,2.183Z" fill="#81469b"/>
      <path id="Path_224" data-name="Path 224" d="M149.682,84.772a.624.624,0,1,1-.131-.874.624.624,0,0,1,.131.874Z" fill="#81469b"/>
      <path id="Path_225" data-name="Path 225" d="M151.483,88.938a.78.78,0,1,1-.164-1.092.78.78,0,0,1,.164,1.092Z" fill="#81469b"/>
      <path id="Path_226" data-name="Path 226" d="M154.6,83.412a1.1,1.1,0,1,1-.232-1.544A1.1,1.1,0,0,1,154.6,83.412Z" fill="#81469b"/>
      <path id="Path_227" data-name="Path 227" d="M156.97,82.314a.627.627,0,1,1-.131-.877A.627.627,0,0,1,156.97,82.314Z" fill="#81469b"/>
      <path id="Path_228" data-name="Path 228" d="M158.259,81.43a.456.456,0,1,1-.1-.638.456.456,0,0,1,.1.638Z" fill="#81469b"/>
      <path id="Path_229" data-name="Path 229" d="M155.458,81.585a.313.313,0,1,1-.065-.438A.313.313,0,0,1,155.458,81.585Z" fill="#81469b"/>
      <path id="Path_230" data-name="Path 230" d="M150.265,91.574a.683.683,0,1,1,.127-.508A.684.684,0,0,1,150.265,91.574Z" fill="#81469b"/>
      <path id="Path_231" data-name="Path 231" d="M146.565,92.074a.637.637,0,1,1-.133-.89A.637.637,0,0,1,146.565,92.074Z" fill="#81469b"/>
    </g>
    <g id="Group_10" data-name="Group 10">
      <path id="Path_232" data-name="Path 232" d="M143.73,83.876a2.371,2.371,0,1,1-2.7-1.994A2.371,2.371,0,0,1,143.73,83.876Z" fill="#536bb2"/>
      <path id="Path_233" data-name="Path 233" d="M143.976,79.2a1.654,1.654,0,1,1-1.881-1.39A1.654,1.654,0,0,1,143.976,79.2Z" fill="#536bb2"/>
      <path id="Path_234" data-name="Path 234" d="M138.361,80.044a3.285,3.285,0,1,1-3.735-2.762,3.285,3.285,0,0,1,3.735,2.762Z" fill="#536bb2"/>
      <path id="Path_235" data-name="Path 235" d="M138.427,85.145a1.092,1.092,0,1,1-.431-.717,1.093,1.093,0,0,1,.431.717Z" fill="#536bb2"/>
      <path id="Path_236" data-name="Path 236" d="M145.318,81.957a.709.709,0,1,1-.28-.465A.709.709,0,0,1,145.318,81.957Z" fill="#536bb2"/>
      <path id="Path_237" data-name="Path 237" d="M140.351,80.721a.686.686,0,1,1-.78-.577.686.686,0,0,1,.78.577Z" fill="#536bb2"/>
      <path id="Path_238" data-name="Path 238" d="M137.6,74.965a1.642,1.642,0,1,1-1.867-1.381,1.642,1.642,0,0,1,1.867,1.381Z" fill="#536bb2"/>
      <path id="Path_239" data-name="Path 239" d="M133.831,75.457a1.176,1.176,0,1,1-.464-.772A1.177,1.177,0,0,1,133.831,75.457Z" fill="#536bb2"/>
      <path id="Path_240" data-name="Path 240" d="M141.588,76.032a1.645,1.645,0,1,1-1.87-1.383A1.645,1.645,0,0,1,141.588,76.032Z" fill="#536bb2"/>
      <path id="Path_241" data-name="Path 241" d="M137.439,68.915a2.649,2.649,0,1,1-3.012-2.228,2.649,2.649,0,0,1,3.012,2.228Z" fill="#536bb2"/>
      <path id="Path_242" data-name="Path 242" d="M140.538,72.417a1.273,1.273,0,1,1-1.448-1.07,1.273,1.273,0,0,1,1.448,1.07Z" fill="#536bb2"/>
      <path id="Path_243" data-name="Path 243" d="M133.392,72.452a.843.843,0,1,1-.958-.709.843.843,0,0,1,.958.709Z" fill="#536bb2"/>
      <path id="Path_244" data-name="Path 244" d="M137.994,63.712a1.561,1.561,0,1,1-1.775-1.312A1.561,1.561,0,0,1,137.994,63.712Z" fill="#536bb2"/>
      <path id="Path_245" data-name="Path 245" d="M134.443,64.875a.624.624,0,1,1-.71-.524.624.624,0,0,1,.71.524Z" fill="#536bb2"/>
      <path id="Path_246" data-name="Path 246" d="M138.663,66.548a.78.78,0,1,1-.308-.512A.78.78,0,0,1,138.663,66.548Z" fill="#536bb2"/>
      <path id="Path_247" data-name="Path 247" d="M136.958,60.438a1.1,1.1,0,1,1-1.255-.928,1.1,1.1,0,0,1,1.255.928Z" fill="#536bb2"/>
      <path id="Path_248" data-name="Path 248" d="M137.859,57.984a.627.627,0,1,1-.713-.527A.627.627,0,0,1,137.859,57.984Z" fill="#536bb2"/>
      <path id="Path_249" data-name="Path 249" d="M138.145,56.448a.456.456,0,1,1-.519-.384.456.456,0,0,1,.519.384Z" fill="#536bb2"/>
      <path id="Path_250" data-name="Path 250" d="M136.274,58.538a.314.314,0,1,1-.356-.263A.314.314,0,0,1,136.274,58.538Z" fill="#536bb2"/>
      <path id="Path_251" data-name="Path 251" d="M139.665,69.273a.683.683,0,1,1-.27-.449.684.684,0,0,1,.27.449Z" fill="#536bb2"/>
      <path id="Path_252" data-name="Path 252" d="M137.4,72.243a.637.637,0,1,1-.724-.535A.637.637,0,0,1,137.4,72.243Z" fill="#536bb2"/>
    </g>
  </g>
</svg>
