<svg xmlns="http://www.w3.org/2000/svg" xmlns:xlink="http://www.w3.org/1999/xlink" width="71.204" height="76.993" viewBox="0 0 71.204 76.993">
  <defs>
    <linearGradient id="linear-gradient" x1="0.5" y1="1.068" x2="0.5" y2="-0.215" gradientUnits="objectBoundingBox">
      <stop offset="0" stop-color="#f15c27"/>
      <stop offset="1" stop-color="#fde963"/>
    </linearGradient>
  </defs>
  <g id="Group_61" data-name="Group 61" transform="translate(-349.741 -437.602)">
    <path id="Path_546" data-name="Path 546" d="M420.721,469.266a2.32,2.32,0,0,0-2.29-1.756,7.869,7.869,0,0,1-5.387-13.7,1.98,1.98,0,0,0,.217-2.688,35.3,35.3,0,0,0-5.647-5.7,1.984,1.984,0,0,0-2.708.219,8.214,8.214,0,0,1-8.889,2A7.913,7.913,0,0,1,391.2,439.9a1.97,1.97,0,0,0-1.75-2.073,34.738,34.738,0,0,0-3.99-.228h-.04a36.372,36.372,0,0,0-3.989.207,1.977,1.977,0,0,0-1.762,2.034,7.928,7.928,0,0,1-4.881,7.6,8.229,8.229,0,0,1-8.822-2.01,1.988,1.988,0,0,0-2.69-.225,35.35,35.35,0,0,0-5.766,5.7,1.983,1.983,0,0,0,.214,2.708,7.9,7.9,0,0,1,1.993,8.891,8.235,8.235,0,0,1-7.755,4.817,1.9,1.9,0,0,0-2.022,1.752,34.618,34.618,0,0,0-.2,4.028v.033a36.176,36.176,0,0,0,.187,4.042,2.335,2.335,0,0,0,2.318,1.754,7.8,7.8,0,0,1,7.324,4.883,7.931,7.931,0,0,1-2,8.814,1.978,1.978,0,0,0-.218,2.685,35.387,35.387,0,0,0,5.635,5.7,1.983,1.983,0,0,0,2.713-.216,8.2,8.2,0,0,1,8.884-2c.169.071.333.148.5.229-.676-3.793-2.731-6.809-4.73-9.738-2.835-4.157-5.766-8.452-5.766-16.018,0-10.85,9.292-19.677,20.713-19.677s20.713,8.827,20.713,19.677c0,7.569-2.927,11.867-5.758,16.02-2.016,2.957-4.086,6-4.741,9.836.1-.046.2-.09.3-.132a8.22,8.22,0,0,1,8.825,2.008,1.994,1.994,0,0,0,2.69.224,35.5,35.5,0,0,0,5.765-5.7,1.981,1.981,0,0,0-.212-2.709,7.9,7.9,0,0,1-2-8.891,7.978,7.978,0,0,1,7.29-4.831l.44.011a1.982,1.982,0,0,0,2.086-1.747A35.536,35.536,0,0,0,420.721,469.266Z" fill="url(#linear-gradient)"/>
    <g id="Group_60" data-name="Group 60">
      <path id="Path_547" data-name="Path 547" d="M375.37,502.368v4.262a2.631,2.631,0,0,0,2.712,2.482h14.454a2.451,2.451,0,0,0,2.508-2.482v-4.262Z" fill="#606060"/>
      <path id="Path_548" data-name="Path 548" d="M385.3,514.595a5.644,5.644,0,0,0,5.353-3.607H379.947a5.646,5.646,0,0,0,5.354,3.607Z" fill="#606060"/>
    </g>
  </g>
</svg>
