<svg xmlns="http://www.w3.org/2000/svg" xmlns:xlink="http://www.w3.org/1999/xlink" width="60.788" height="80.27" viewBox="0 0 60.788 80.27">
  <defs>
    <linearGradient id="linear-gradient" x1="0.245" y1="1.145" x2="0.775" y2="-0.156" gradientUnits="objectBoundingBox">
      <stop offset="0" stop-color="#f06922"/>
      <stop offset="1" stop-color="#fded2c"/>
    </linearGradient>
  </defs>
  <g id="Group_33" data-name="Group 33" transform="translate(-786.532 -307.533)">
    <path id="Path_316" data-name="Path 316" d="M819.188,307.533c-15.511,0-28.13,11.214-28.13,25a29.392,29.392,0,0,0,.787,6.932l-5.314,8.137s24.829-14.8,26.1-15.5c1.831-1.014,2.224-4.152-1.857-10.512,3.063-1.733,6.116-.365,7.866,2.7,1.246,2.125,2.418,3.153,3.663,3.084a12.772,12.772,0,0,0,4.911-2.125c1.859-1.07,3.554-.816,4.031,1.372.22,1.027.806,3.77,1.612,8.156.331,1.889.266,3.316-.294,3.839-4.029,3.5-7.694,5.347-10.992,5.484a10.516,10.516,0,0,1-8.5-3.428c-.039,3.286,5,5.123,5,5.123l-16.389,11.1a21.35,21.35,0,0,1,3.924,10.893h27.182c.284-5.986,3.548-10.531,6.709-14.872,3.845-5.276,7.821-10.749,7.821-20.364C847.32,318.762,834.7,307.533,819.188,307.533Z" fill="url(#linear-gradient)"/>
    <g id="Group_32" data-name="Group 32">
      <path id="Path_317" data-name="Path 317" d="M805.846,372.272v5.419a3.351,3.351,0,0,0,3.527,3.168H829a3.342,3.342,0,0,0,3.519-3.168v-5.419Z" fill="#5e5e5e"/>
      <path id="Path_318" data-name="Path 318" d="M819.188,387.8a7.652,7.652,0,0,0,7.27-4.583h-14.54a7.653,7.653,0,0,0,7.27,4.583Z" fill="#5e5e5e"/>
    </g>
  </g>
</svg>
