<svg xmlns="http://www.w3.org/2000/svg" width="26.368" height="30.547" viewBox="0 0 26.368 30.547">
  <g id="Group_311" data-name="Group 311" transform="translate(-332.359 -551.689)">
    <path id="Path_1089" data-name="Path 1089" d="M342.233,552.379a5.2,5.2,0,1,0-5.174,9.019c2.49,1.43,6.5,5.1,7.929,2.607a4.191,4.191,0,0,0,.45-1.5v-2.553C345.128,556.876,343.848,553.307,342.233,552.379Z" fill="#f8b133"/>
    <path id="Path_1090" data-name="Path 1090" d="M345.438,559.949V562.5a11.375,11.375,0,0,0,0-2.553Z" fill="#f8b133"/>
    <path id="Path_1091" data-name="Path 1091" d="M349.168,556.3a3.007,3.007,0,0,0-2.971,3.032c.091,1.576-.459,4.525,1.272,4.427s5.087-3.21,5-4.788A3.008,3.008,0,0,0,349.168,556.3Z" fill="#e84e1b"/>
    <path id="Path_1092" data-name="Path 1092" d="M357.327,572.083h-1.4v6.541a.808.808,0,0,1-.809.807H335.969a.808.808,0,0,1-.808-.807v-7.549a.81.81,0,0,1,.808-.807h3.757a3.251,3.251,0,0,0,5.871,0h.055c-.009-.023-.015-.047-.024-.068a3.231,3.231,0,0,0-.031-2.734c-.049-.1-.1-.2-.16-.293a3.248,3.248,0,0,0-5.711.293h-3.757a3.614,3.614,0,0,0-3.61,3.609v7.549a3.615,3.615,0,0,0,3.61,3.611h19.147a3.615,3.615,0,0,0,3.611-3.611v-6.541Z" fill="gray"/>
    <path id="Path_1093" data-name="Path 1093" d="M354.821,567.174h0a3.372,3.372,0,0,0-.212-1.232A3.012,3.012,0,0,0,350.829,564c-1.479.552-4.458.9-3.854,2.524a2.976,2.976,0,0,0,.642.943,9.638,9.638,0,0,0,1.885,1.4h-.083a8.326,8.326,0,0,0,2.43,1.022l.011,0h0a2.186,2.186,0,0,0,1.161-.01,2.666,2.666,0,0,0,1.277-1.017h0A2.257,2.257,0,0,0,354.821,567.174Z" fill="#f29100"/>
  </g>
</svg>
