<svg xmlns="http://www.w3.org/2000/svg" width="61.375" height="73.86" viewBox="0 0 61.375 73.86">
  <g id="Group_87" data-name="Group 87" transform="translate(-360.91 -94.211)">
    <path id="Path_265" data-name="Path 265" d="M403.984,111.891a5.315,5.315,0,0,0,5.12,3.292,10.658,10.658,0,0,0,5.983-2.29,13.784,13.784,0,0,0,4.819-5.561c1.829-4.238-.709-11.734-6.274-9.065C409.848,100.083,402.451,107.175,403.984,111.891Z" fill="#b49180"/>
    <path id="Path_266" data-name="Path 266" d="M384,104.378c.456,2.184,1.777,4.4,3.927,5a5.185,5.185,0,0,0,5.09-1.731,8.941,8.941,0,0,0,1.987-5.2c.34-3.97-2.212-9.137-7.016-8.1C384.041,95.194,383.328,101.163,384,104.378Z" fill="#b49180"/>
    <path id="Path_267" data-name="Path 267" d="M391.667,124.913a8.829,8.829,0,0,0,4.582,3.8,6.374,6.374,0,0,0,7.3-3.333c2.691-5.673-2.885-9.391-7.765-10.062C389.971,114.517,388.939,120.8,391.667,124.913Z" fill="#b49180"/>
    <path id="Path_268" data-name="Path 268" d="M372.592,125.235a6.493,6.493,0,0,0,4.848,2.443c6.229.071,6.591-8.034,1.229-9.923C374.375,116.242,369.335,121.233,372.592,125.235Z" fill="#b49180"/>
    <path id="Path_269" data-name="Path 269" d="M383,141.081a8.87,8.87,0,0,0,2.814,7.926c2.168,1.922,5.631,2.588,8,.927a6.459,6.459,0,0,0,2.423-5.978,11.273,11.273,0,0,0-2.914-6c-1.562-1.8-3.581-4.134-6.056-3.13C385.051,135.73,383.361,138.876,383,141.081Z" fill="#b49180"/>
    <path id="Path_270" data-name="Path 270" d="M410.48,133.081a7.88,7.88,0,0,0-1.708,5.343,4.8,4.8,0,0,0,3.351,4.215c2.4.6,4.733-1.147,6.426-2.954a14.878,14.878,0,0,0,3.182-4.679,7.032,7.032,0,0,0-.026-5.535C418.809,123.5,412.745,130.016,410.48,133.081Z" fill="#b49180"/>
    <path id="Path_271" data-name="Path 271" d="M366.856,155.475a7.073,7.073,0,0,0-5.592,4.027,5.618,5.618,0,0,0-.125,3.543,7.254,7.254,0,0,0,5.155,4.737,11.387,11.387,0,0,0,7.16-.685,9.6,9.6,0,0,0,4.631-3.578C382.648,156.21,371.58,154.7,366.856,155.475Z" fill="#b49180"/>
    <path id="Path_272" data-name="Path 272" d="M388.006,164.186a4.754,4.754,0,1,0,8.483-4.269C393.557,154.709,385.6,158.783,388.006,164.186Z" fill="#b49180"/>
  </g>
</svg>
