<svg xmlns="http://www.w3.org/2000/svg" width="157.725" height="157.725" viewBox="0 0 157.725 157.725">
  <g id="Group_2147" data-name="Group 2147" transform="translate(-1839.272 -1354.899)">
    <circle id="Ellipse_115" data-name="Ellipse 115" cx="68.739" cy="68.739" r="68.739" transform="translate(1839.272 1490.602) rotate(-80.783)" fill="#1f1f1f"/>
    <circle id="Ellipse_116" data-name="Ellipse 116" cx="68.739" cy="68.739" r="68.739" transform="translate(1839.272 1490.602) rotate(-80.783)" fill="#1f1f1f"/>
    <path id="Path_9617" data-name="Path 9617" d="M1918.136,1495.509l-.141-.02c-3.9-.554-17.283-9.221-34.82-26.759s-26.205-30.92-26.759-34.82l-.02-.141.02-.141c.554-3.9,9.221-17.283,26.759-34.82s30.92-26.205,34.82-26.759l.141-.02.141.02c3.9.554,17.281,9.221,34.82,26.759s26.205,30.92,26.759,34.82l.02.141-.02.141c-.554,3.9-9.221,17.281-26.759,34.82s-30.92,26.2-34.82,26.759Zm-59.716-61.739c.7,3.719,9.364,16.741,26.169,33.547s29.827,25.47,33.547,26.169c3.719-.7,16.741-9.364,33.547-26.169s25.47-29.828,26.169-33.547c-.7-3.72-9.364-16.742-26.169-33.547s-29.828-25.47-33.547-26.169c-3.72.7-16.742,9.364-33.547,26.169S1859.119,1430.05,1858.42,1433.77Z" fill="#fff"/>
    <path id="Path_9618" data-name="Path 9618" d="M1918.136,1500.009c-5.821,0-21.862-11.816-38.142-28.1s-28.1-32.321-28.1-38.143,11.816-21.862,28.1-38.142,32.321-28.1,38.142-28.1,21.862,11.816,38.143,28.1,28.1,32.321,28.1,38.142-11.816,21.862-28.1,38.143S1923.957,1500.009,1918.136,1500.009Zm0-129.479c-3.655,0-17.248,8.444-36.021,27.218s-27.218,32.366-27.218,36.021,8.444,17.248,27.218,36.021,32.366,27.218,36.021,27.218,17.248-8.444,36.021-27.218,27.218-32.366,27.218-36.021-8.444-17.248-27.218-36.021-32.366-27.218-36.021-27.218Z" fill="#fff"/>
  </g>
</svg>
