<svg xmlns="http://www.w3.org/2000/svg" width="30.869" height="25.984" viewBox="0 0 30.869 25.984">
  <g id="Group_455" data-name="Group 455" transform="translate(-510.461 -552.234)">
    <g id="Group_452" data-name="Group 452">
      <g id="Group_446" data-name="Group 446">
        <path id="Path_1536" data-name="Path 1536" d="M524.867,577.967c1.043-1.725,1.752-5-1.009-5.429-2.889-.452-2.026-2.216-1.7-4.085a5.953,5.953,0,0,0-1.113-4.18c-.251-.368-1.147.006-.864.421a5.76,5.76,0,0,1,.76,4.962c-.187.678-.622,1.875-.113,2.547a2.337,2.337,0,0,0,1.659,1.049c2.825.573,2.727,2.521,1.474,4.594-.278.461.684.485.905.121Z" fill="#3c3c3b"/>
        <path id="Path_1537" data-name="Path 1537" d="M529.368,577.78c-.913-1.512-1.909-4.646,1.1-4.663a2.771,2.771,0,0,0,1.583-.591c.792-.576.642-1.6.482-2.415-.414-2.069-.688-3.773.593-5.642.21-.3-.722-.174-.864.032a5.774,5.774,0,0,0-1.107,3.382c0,1.9,1.581,4.321-1.464,4.8-2.785.44-2.441,3.409-1.27,5.351.164.268,1.053-.079.947-.253Z" fill="#3c3c3b"/>
      </g>
      <g id="Group_447" data-name="Group 447">
        <path id="Path_1538" data-name="Path 1538" d="M534.1,560.727a2.435,2.435,0,1,1-2.434-2.434A2.435,2.435,0,0,1,534.1,560.727Z" fill="#fff"/>
        <path id="Path_1539" data-name="Path 1539" d="M531.669,563.648a2.921,2.921,0,1,1,2.919-2.921,2.921,2.921,0,0,1-2.919,2.921Zm0-4.866a1.943,1.943,0,1,0,1.942,1.944,1.943,1.943,0,0,0-1.942-1.944Z" fill="#6f6f6e"/>
      </g>
      <g id="Group_448" data-name="Group 448">
        <path id="Path_1540" data-name="Path 1540" d="M529.613,566.167a1.685,1.685,0,1,1-1.687-1.683,1.686,1.686,0,0,1,1.687,1.683Z" fill="#fff"/>
        <path id="Path_1541" data-name="Path 1541" d="M527.926,568.34a2.173,2.173,0,1,1,2.173-2.173A2.173,2.173,0,0,1,527.926,568.34Zm0-3.367a1.2,1.2,0,1,0,1.2,1.194,1.2,1.2,0,0,0-1.2-1.194Z" fill="#6f6f6e"/>
      </g>
      <g id="Group_449" data-name="Group 449">
        <path id="Path_1542" data-name="Path 1542" d="M527.648,559.257a3.9,3.9,0,1,1-3.9-3.9,3.9,3.9,0,0,1,3.9,3.9Z" fill="#fff"/>
        <path id="Path_1543" data-name="Path 1543" d="M523.75,563.648a4.39,4.39,0,1,1,4.389-4.391A4.39,4.39,0,0,1,523.75,563.648Zm0-7.8a3.411,3.411,0,1,0,3.41,3.411,3.412,3.412,0,0,0-3.41-3.411Z" fill="#6f6f6e"/>
      </g>
      <g id="Group_450" data-name="Group 450">
        <path id="Path_1544" data-name="Path 1544" d="M540.839,554.407a1.685,1.685,0,1,1-1.682-1.686A1.685,1.685,0,0,1,540.839,554.407Z" fill="#fff"/>
        <path id="Path_1545" data-name="Path 1545" d="M539.157,556.58a2.173,2.173,0,1,1,2.173-2.173A2.173,2.173,0,0,1,539.157,556.58Zm0-3.367a1.2,1.2,0,1,0,1.194,1.194,1.2,1.2,0,0,0-1.194-1.194Z" fill="#6f6f6e"/>
      </g>
      <g id="Group_451" data-name="Group 451">
        <path id="Path_1546" data-name="Path 1546" d="M517.634,559.257a1.685,1.685,0,1,1-1.685-1.684,1.685,1.685,0,0,1,1.685,1.684Z" fill="#fff"/>
        <path id="Path_1547" data-name="Path 1547" d="M515.948,561.43a2.173,2.173,0,1,1,2.173-2.173A2.173,2.173,0,0,1,515.948,561.43Zm0-3.367a1.2,1.2,0,1,0,1.2,1.194,1.2,1.2,0,0,0-1.2-1.194Z" fill="#6f6f6e"/>
      </g>
      <path id="Path_1548" data-name="Path 1548" d="M527.854,554.807a1.126,1.126,0,1,1,.8-.329A1.126,1.126,0,0,1,527.854,554.807Zm0-1.763a.636.636,0,1,0,.637.637.636.636,0,0,0-.637-.637Z" fill="#868686"/>
      <path id="Path_1549" data-name="Path 1549" d="M511.589,560.383a1.126,1.126,0,1,1,1.124-1.126,1.126,1.126,0,0,1-1.124,1.126Zm0-1.761a.637.637,0,1,0,.635.635.637.637,0,0,0-.635-.635Z" fill="#868686"/>
      <path id="Path_1550" data-name="Path 1550" d="M535.786,558.424a1.126,1.126,0,1,1,1.126-1.126A1.126,1.126,0,0,1,535.786,558.424Zm0-1.761a.637.637,0,1,0,.637.635.637.637,0,0,0-.637-.635Z" fill="#868686"/>
    </g>
  </g>
</svg>
