<svg xmlns="http://www.w3.org/2000/svg" xmlns:xlink="http://www.w3.org/1999/xlink" width="28.331" height="28.331" viewBox="0 0 28.331 28.331">
  <defs>
    <linearGradient id="linear-gradient" x1="0.465" y1="1.067" x2="0.546" y2="-0.247" gradientUnits="objectBoundingBox">
      <stop offset="0" stop-color="#868686"/>
      <stop offset="1" stop-color="#d9d9d9"/>
    </linearGradient>
  </defs>
  <g id="Group_445" data-name="Group 445" transform="translate(-572.904 -550.535)">
    <path id="Path_1522" data-name="Path 1522" d="M585.225,566.558l1.926-4.295,2.122,4.295.621,1.26-1.3-1.107-.124,1.43-.909-1.347-.066,1.347-.781-1.347-.408,1.347-.327-1.553-1.317,1.23Z" fill="#adadad"/>
    <path id="Path_1523" data-name="Path 1523" d="M594.42,564.27l1.031-2.3,1.136,2.3.334.676-.7-.595-.066.769-.489-.726-.034.726-.418-.726-.221.726-.174-.835-.705.661Z" fill="#adadad"/>
    <path id="Path_1524" data-name="Path 1524" d="M577.616,564.822l1.032-2.3,1.135,2.3.331.676-.7-.595-.064.769-.488-.726-.038.726-.417-.726-.218.726-.179-.833-.7.659Z" fill="#adadad"/>
    <path id="Path_1525" data-name="Path 1525" d="M587.068,550.535A14.166,14.166,0,1,0,601.236,564.7a14.165,14.165,0,0,0-14.168-14.166Zm0,2.133A12.042,12.042,0,0,1,599.1,564.7c0,.3-.021.59-.043.88l-3.652-7.4-2.882,6.428-.7,1.559-4.661-9.451-4.586,10.237-3.834-7.772-2.881,6.43-.6,1.332a12.18,12.18,0,0,1-.217-2.243,12.047,12.047,0,0,1,12.035-12.032Zm-11.473,15.654.213-.472,2.882-6.428,3.331,6.751-.4.894-2.214,4.905a12.062,12.062,0,0,1-3.812-5.65Zm5.221,6.638.72-1.591,5.532-12.352,6.732,13.648a11.958,11.958,0,0,1-12.985.295Zm14.563-1.578-3.055-6.194.153-.344,2.881-6.428,3.433,6.959a12.027,12.027,0,0,1-3.413,6.007Z" fill="url(#linear-gradient)"/>
  </g>
</svg>
