<svg xmlns="http://www.w3.org/2000/svg" width="31.294" height="47.024" viewBox="0 0 31.294 47.024">
  <g id="Group_207" data-name="Group 207" transform="translate(-325.24 -268.452)">
    <path id="Path_940" data-name="Path 940" d="M329.039,268.691s19.057-.537,24.425,0a3.842,3.842,0,0,1,3.051,4.149c-.1,3.634-.268,33.7-.452,38.527a4.389,4.389,0,0,1-3.673,3.489c-3.221.537-20.667,1.074-23.351,0,0,0-3.409.537-3.449-4.831s-.765-33.282,0-36.234S326.35,268.758,329.039,268.691Z" fill="#3c484c"/>
    <path id="Path_941" data-name="Path 941" d="M330.626,273.1s15.941-.559,20.833,0c0,0,1.736,0,1.736,2.8v28.9c0,1.677-1.1,3.075-5.05,3.215s-15.783.14-17.519,0-2.059-1.568-2.367-6.43c-.285-4.509.789-25.822.789-25.822S329.049,273.15,330.626,273.1Z" fill="#e6eeef"/>
    <path id="Path_942" data-name="Path 942" d="M339.3,311.416a13.122,13.122,0,0,1,2.614,0c1.01.159,1,.8,0,.956S338.357,313.01,339.3,311.416Z" fill="#4c4c4c"/>
  </g>
</svg>
