<svg xmlns="http://www.w3.org/2000/svg" width="29.855" height="20.905" viewBox="0 0 29.855 20.905">
  <g id="Group_104" data-name="Group 104" transform="translate(-269.928 -188.957)">
    <g id="Group_99" data-name="Group 99">
      <path id="Path_420" data-name="Path 420" d="M286.847,192.422H298.4a1.386,1.386,0,0,1,1.386,1.386v10.857a1.385,1.385,0,0,1-1.385,1.385h-11.55a1.387,1.387,0,0,1-1.387-1.387V193.807a1.385,1.385,0,0,1,1.386-1.385Z" fill="#2d2e82"/>
      <path id="Path_421" data-name="Path 421" d="M285.808,199.237l6.814,10.625V199.237Z" fill="#2d2e82"/>
    </g>
    <g id="Group_100" data-name="Group 100">
      <path id="Path_422" data-name="Path 422" d="M279.108,190.632h11.55a1.386,1.386,0,0,1,1.386,1.386v10.856a1.386,1.386,0,0,1-1.386,1.386H279.11a1.387,1.387,0,0,1-1.387-1.387V192.017a1.385,1.385,0,0,1,1.385-1.385Z" fill="#1d70b7"/>
      <path id="Path_423" data-name="Path 423" d="M278.07,197.446l6.814,10.626V197.446Z" fill="#1d70b7"/>
    </g>
    <g id="Group_101" data-name="Group 101">
      <path id="Path_424" data-name="Path 424" d="M271.315,188.957h11.549a1.386,1.386,0,0,1,1.386,1.386V201.2a1.387,1.387,0,0,1-1.387,1.387h-11.55a1.385,1.385,0,0,1-1.385-1.385V190.344a1.387,1.387,0,0,1,1.387-1.387Z" fill="#35a8e0"/>
      <path id="Path_425" data-name="Path 425" d="M270.273,195.772l6.816,10.625V195.772Z" fill="#35a8e0"/>
    </g>
  </g>
</svg>
