<svg xmlns="http://www.w3.org/2000/svg" width="65.588" height="70.311" viewBox="0 0 65.588 70.311">
  <g id="Group_16" data-name="Group 16" transform="translate(-640.247 -58.063)">
    <g id="Group_15" data-name="Group 15">
      <path id="Path_262" data-name="Path 262" d="M649.835,93.218l12.193-21.606-4.794-8.493L640.252,93.212h-.005l0,.006,0,.006h.005l16.982,30.094,4.794-8.494Z" fill="#f47c37"/>
      <path id="Path_263" data-name="Path 263" d="M656.325,93.213l0,.005,0,.006h.006l8.943,15.847,4.794-8.494-4.153-7.359,4.153-7.359-4.794-8.493-8.943,15.847Z" fill="#f47c37"/>
    </g>
    <path id="Path_264" data-name="Path 264" d="M705.835,93.213h-.005l-19.835-35.15h-9.587l19.838,35.155-19.838,35.156h9.586l19.836-35.15h.005l0-.006Z" fill="#551d5a"/>
    <path id="Path_265" data-name="Path 265" d="M689.751,93.224h.006l0-.006,0-.005h-.006l-19.836-35.15h-9.587l19.84,35.155-19.84,35.156h9.587Z" fill="#551d5a"/>
  </g>
</svg>
