<svg xmlns="http://www.w3.org/2000/svg" width="51.265" height="47.752" viewBox="0 0 51.265 47.752">
  <g id="Group_264" data-name="Group 264" transform="translate(-125.764 -107.31)">
    <path id="Path_1094" data-name="Path 1094" d="M128.1,108.671a8.995,8.995,0,0,0,.013,3.372,10.971,10.971,0,0,0,1.715,3.18,6.641,6.641,0,0,1,.714,1.487c.152.42.364.783.133,1.238a1.648,1.648,0,0,1-.685.644c-.357.2-1.117.613-1.505.363s-.719-1.167-.937-1.566a15.46,15.46,0,0,1-1.446-3.516,8.721,8.721,0,0,1,.265-5.6,1.917,1.917,0,0,1,.522-.773.8.8,0,0,1,.879-.112C128.171,107.632,128.16,108.207,128.1,108.671Z" fill="#2f3f47"/>
    <g id="Group_248" data-name="Group 248">
      <path id="Path_1095" data-name="Path 1095" d="M140.741,140.753a7.276,7.276,0,0,0,.19,2.145,5.317,5.317,0,0,0,2.259-.186,12,12,0,0,0-.287-4.048,1.332,1.332,0,0,0-1.615.4,2.878,2.878,0,0,0-.546,1.692Z" fill="#2f3f47"/>
      <g id="Group_244" data-name="Group 244">
        <path id="Path_1096" data-name="Path 1096" d="M142.962,125.643c.13.27.246.548.362.824,1.375,3.285-5.756,4.353-5.882.362-.084-2.671,3.039-4.557,4.9-2.218A5.378,5.378,0,0,1,142.962,125.643Z" fill="#272525"/>
        <path id="Path_1097" data-name="Path 1097" d="M138.9,126.17a3.218,3.218,0,0,0-.1.871c-.02,4.01-.083,7.782,1.361,11.586.67,1.765,4.509.538,5.288-.845.98-1.74-.456-5.384-1.1-7.049C143.937,129.66,139.625,123.706,138.9,126.17Z" fill="#eaf1f2"/>
      </g>
      <g id="Group_247" data-name="Group 247">
        <path id="Path_1098" data-name="Path 1098" d="M137.312,148.936a5.157,5.157,0,0,0,1.22,1.634,5.751,5.751,0,0,0,3.334,1.763,2.917,2.917,0,0,0,3.067-1.8c.546-1.756-1.125-3.542-.864-5.362.149-1.038.919-2.043.588-3.038a2.41,2.41,0,0,0-.826-1.054,6.429,6.429,0,0,0-2.331-1.2,22.688,22.688,0,0,0-3.054,3.745C137.416,145.207,136.568,147.2,137.312,148.936Z" fill="#eaf1f2"/>
        <g id="Group_246" data-name="Group 246">
          <g id="Group_245" data-name="Group 245">
            <path id="Path_1099" data-name="Path 1099" d="M142.452,144.179a1.416,1.416,0,0,0,.331-.184,1.072,1.072,0,0,0,.355-.372,1.286,1.286,0,0,0,.1-.4l.021-.146a.986.986,0,0,0,.015-.227.949.949,0,0,0-.286-.518,1.439,1.439,0,0,0-.322-.29.906.906,0,0,0-.925.033,1.246,1.246,0,0,0-.526.786,1.183,1.183,0,0,0,.308,1.136.941.941,0,0,0,.927.178Z" fill="#272525" opacity="0.2"/>
            <path id="Path_1100" data-name="Path 1100" d="M142.3,144a1.41,1.41,0,0,0,.33-.184,1.071,1.071,0,0,0,.356-.372,1.289,1.289,0,0,0,.1-.4l.021-.146a.984.984,0,0,0,.015-.227.95.95,0,0,0-.286-.518,1.442,1.442,0,0,0-.322-.29.906.906,0,0,0-.925.033,1.246,1.246,0,0,0-.526.786,1.183,1.183,0,0,0,.308,1.136.941.941,0,0,0,.927.178Z" fill="#83959e"/>
          </g>
          <path id="Path_1101" data-name="Path 1101" d="M142.1,143.2a.508.508,0,0,0,.236-.192.313.313,0,0,0,.056-.089.239.239,0,0,0-.008-.154.437.437,0,0,0-.362-.292.383.383,0,0,0-.387.243.678.678,0,0,0,.126.357.335.335,0,0,0,.339.128Z" opacity="0.2"/>
        </g>
      </g>
    </g>
    <g id="Group_251" data-name="Group 251">
      <path id="Path_1102" data-name="Path 1102" d="M163.305,127.051c.074.254.136.513.2.77.729,3.061-5.641,2.971-5.18-.526.309-2.341,3.3-3.538,4.586-1.233a4.749,4.749,0,0,1,.4.989Z" fill="#272525"/>
      <path id="Path_1103" data-name="Path 1103" d="M160.324,139.54a6.432,6.432,0,0,0,.168,1.9,4.7,4.7,0,0,0,2-.164,10.6,10.6,0,0,0-.254-3.576,1.177,1.177,0,0,0-1.427.351,2.543,2.543,0,0,0-.483,1.495Z" fill="#2f3f47"/>
      <path id="Path_1104" data-name="Path 1104" d="M159.692,126.93a2.843,2.843,0,0,0-.213.744c-.591,3.493-1.186,6.772-.471,10.3.331,1.634,3.854,1.114,4.732.02,1.1-1.376.372-4.759.048-6.3C163.58,130.692,160.673,124.885,159.692,126.93Z" fill="#eaf1f2"/>
      <path id="Path_1105" data-name="Path 1105" d="M161.471,148.779a4.556,4.556,0,0,0,1.736.482,5.08,5.08,0,0,0,3.283-.57,2.577,2.577,0,0,0,1.171-2.914c-.568-1.522-2.7-1.867-3.5-3.28-.457-.806-.462-1.925-1.232-2.441a2.129,2.129,0,0,0-1.147-.29,5.678,5.678,0,0,0-2.277.421,20.04,20.04,0,0,0-.11,4.268C159.527,146.116,160.013,147.968,161.471,148.779Z" fill="#eaf1f2"/>
      <g id="Group_250" data-name="Group 250">
        <g id="Group_249" data-name="Group 249">
          <path id="Path_1106" data-name="Path 1106" d="M162.491,142.676a1.25,1.25,0,0,0,.131-.308.946.946,0,0,0,.047-.452,1.141,1.141,0,0,0-.143-.332l-.064-.114a.868.868,0,0,0-.112-.167.84.84,0,0,0-.48-.207,1.271,1.271,0,0,0-.382-.029.8.8,0,0,0-.628.523,1.1,1.1,0,0,0,.058.833,1.045,1.045,0,0,0,.829.627.831.831,0,0,0,.744-.376Z" fill="#272525" opacity="0.2"/>
          <path id="Path_1107" data-name="Path 1107" d="M162.288,142.635a1.251,1.251,0,0,0,.131-.307.947.947,0,0,0,.047-.452,1.14,1.14,0,0,0-.143-.332l-.064-.114a.873.873,0,0,0-.112-.167.84.84,0,0,0-.48-.207,1.275,1.275,0,0,0-.382-.028.8.8,0,0,0-.628.523,1.1,1.1,0,0,0,.058.833,1.045,1.045,0,0,0,.829.627A.831.831,0,0,0,162.288,142.635Z" fill="#83959e"/>
        </g>
        <path id="Path_1108" data-name="Path 1108" d="M161.72,142.183a.448.448,0,0,0,.061-.262.274.274,0,0,0-.009-.093.21.21,0,0,0-.089-.1.386.386,0,0,0-.411-.009.338.338,0,0,0-.139.379.6.6,0,0,0,.281.182A.3.3,0,0,0,161.72,142.183Z" opacity="0.2"/>
      </g>
    </g>
    <path id="Path_1109" data-name="Path 1109" d="M126.522,124.435a17.715,17.715,0,0,0-.03,2.225c.171,3.648,1.5,6.514,5.171,6.871a22.54,22.54,0,0,1,3.117.722,34.253,34.253,0,0,0,6.9.917,84.024,84.024,0,0,0,14.06-1.014,16.624,16.624,0,0,0,3.915-.841c1.825-.711,4.243-2.853,4.74-4.94a10.563,10.563,0,0,0-.026-3.769,5.546,5.546,0,0,0-.395-1.678,3.8,3.8,0,0,0-1.143-1.334c-2.312-1.8-5.381-1.873-8.238-2.094a68.063,68.063,0,0,1-11.755-2.029,31.687,31.687,0,0,0-7.394-1.407,8.765,8.765,0,0,0-6.849,2.713,9.749,9.749,0,0,0-2.068,5.657Z" fill="#e2eced"/>
    <path id="Path_1110" data-name="Path 1110" d="M162.863,129.617a2.389,2.389,0,0,0,.84-1.132,9.322,9.322,0,0,0,.738-4.54,1.469,1.469,0,0,0-.137-.572c-.264-.49-.924-.563-1.481-.577l-3.47-.084a4.633,4.633,0,0,0-2.306.34,11.987,11.987,0,0,0,.84,1.617c.331.5.737.957,1.049,1.473.343.565.567,1.193.854,1.789a3.791,3.791,0,0,0,1.2,1.548A1.768,1.768,0,0,0,162.863,129.617Z" fill="#2f3f47"/>
    <g id="Group_252" data-name="Group 252">
      <path id="Path_1111" data-name="Path 1111" d="M155.416,120.318a5.827,5.827,0,0,0,.676,2.235c1.047,1.654,3.351,1.821,5.308,1.81l6.664-.038c2.451-.014,5.094-.09,7.046-1.574a4.616,4.616,0,0,0,1.67-5.239,6.576,6.576,0,0,0-2-2.361,28.956,28.956,0,0,0-8.872-5.016c-2.949-1.034-6.585-1.452-8.887.661a6.888,6.888,0,0,0-1.994,4.506,20.474,20.474,0,0,0,.385,5.015Z" fill="#eaf1f2"/>
      <path id="Path_1112" data-name="Path 1112" d="M173.207,117.1a5.816,5.816,0,0,0,1.059-1.171,1.149,1.149,0,0,0,.241-1.034,1.259,1.259,0,0,0-.49-.5,44.271,44.271,0,0,0-8.876-4.765,2.86,2.86,0,0,0-1.365-.288c-1.174.139-1.5,2.242-1.889,3.139a13.461,13.461,0,0,1-1.118,2.073,21.634,21.634,0,0,0-1.632,2.021c-.569,1.21,1.543,3.18,2.441,3.886a4.269,4.269,0,0,0,1.822.915,5.672,5.672,0,0,0,3.365-.817l3.215-1.54a14.646,14.646,0,0,0,3.227-1.913Z" fill="#2f3f47"/>
    </g>
    <path id="Path_1113" data-name="Path 1113" d="M133.27,142.06a7.28,7.28,0,0,0,.191,2.145,5.315,5.315,0,0,0,2.259-.186,12,12,0,0,0-.287-4.048,1.332,1.332,0,0,0-1.615.4,2.879,2.879,0,0,0-.547,1.692Z" fill="#2f3f47"/>
    <g id="Group_257" data-name="Group 257">
      <g id="Group_253" data-name="Group 253">
        <path id="Path_1114" data-name="Path 1114" d="M134.208,128.145c.13.27.246.548.362.824,1.375,3.285-5.756,4.352-5.882.361-.084-2.671,3.039-4.557,4.9-2.218a5.376,5.376,0,0,1,.624,1.032Z" fill="#272525" opacity="0.37"/>
        <path id="Path_1115" data-name="Path 1115" d="M130.15,128.672a3.219,3.219,0,0,0-.1.871c-.02,4.01-.083,7.782,1.361,11.586.67,1.764,4.509.538,5.288-.845.98-1.74-.456-5.383-1.1-7.049C135.183,132.162,130.87,126.208,130.15,128.672Z" fill="#eaf1f2"/>
      </g>
      <g id="Group_256" data-name="Group 256">
        <path id="Path_1116" data-name="Path 1116" d="M128.557,151.439a5.157,5.157,0,0,0,1.22,1.634,5.751,5.751,0,0,0,3.334,1.763,2.917,2.917,0,0,0,3.067-1.8c.546-1.756-1.125-3.542-.864-5.363.149-1.038.919-2.043.588-3.038a2.411,2.411,0,0,0-.826-1.054,6.428,6.428,0,0,0-2.331-1.2,22.694,22.694,0,0,0-3.054,3.744C128.661,147.709,127.814,149.7,128.557,151.439Z" fill="#eaf1f2"/>
        <g id="Group_255" data-name="Group 255">
          <g id="Group_254" data-name="Group 254">
            <path id="Path_1117" data-name="Path 1117" d="M133.7,146.681a1.416,1.416,0,0,0,.331-.184,1.071,1.071,0,0,0,.355-.372,1.29,1.29,0,0,0,.1-.4l.021-.146a.984.984,0,0,0,.015-.227.951.951,0,0,0-.286-.518,1.439,1.439,0,0,0-.322-.29.906.906,0,0,0-.925.033,1.246,1.246,0,0,0-.526.786,1.183,1.183,0,0,0,.308,1.136A.941.941,0,0,0,133.7,146.681Z" fill="#272525" opacity="0.2"/>
            <path id="Path_1118" data-name="Path 1118" d="M133.544,146.5a1.412,1.412,0,0,0,.331-.184,1.072,1.072,0,0,0,.355-.372,1.29,1.29,0,0,0,.1-.4l.021-.146a.979.979,0,0,0,.015-.227.95.95,0,0,0-.286-.518,1.444,1.444,0,0,0-.322-.29.906.906,0,0,0-.925.033,1.246,1.246,0,0,0-.526.786,1.182,1.182,0,0,0,.308,1.136.94.94,0,0,0,.927.179Z" fill="#83959e"/>
          </g>
          <path id="Path_1119" data-name="Path 1119" d="M133.348,145.706a.508.508,0,0,0,.236-.192.314.314,0,0,0,.056-.089.238.238,0,0,0-.008-.154.437.437,0,0,0-.362-.292.382.382,0,0,0-.387.243.678.678,0,0,0,.126.357.335.335,0,0,0,.339.128Z" opacity="0.2"/>
        </g>
      </g>
    </g>
    <g id="Group_260" data-name="Group 260">
      <path id="Path_1120" data-name="Path 1120" d="M155.208,129.847c.084.288.154.581.223.872.825,3.465-6.385,3.363-5.863-.6.35-2.65,3.737-4,5.191-1.4A5.369,5.369,0,0,1,155.208,129.847Z" fill="#272525" opacity="0.37"/>
      <path id="Path_1121" data-name="Path 1121" d="M151.27,144.546a7.279,7.279,0,0,0,.191,2.145,5.317,5.317,0,0,0,2.259-.186,12,12,0,0,0-.287-4.048,1.332,1.332,0,0,0-1.615.4,2.88,2.88,0,0,0-.547,1.692Z" fill="#2f3f47"/>
      <path id="Path_1122" data-name="Path 1122" d="M151.117,129.71a3.217,3.217,0,0,0-.242.843c-.669,3.954-1.342,7.666-.533,11.654.375,1.85,4.363,1.261,5.356.023,1.249-1.558.421-5.386.055-7.134C155.519,133.969,152.228,127.4,151.117,129.71Z" fill="#eaf1f2"/>
      <path id="Path_1123" data-name="Path 1123" d="M153.132,154.441a5.157,5.157,0,0,0,1.965.546,5.75,5.75,0,0,0,3.716-.646,2.917,2.917,0,0,0,1.326-3.3c-.643-1.723-3.057-2.113-3.964-3.713-.518-.912-.523-2.178-1.394-2.763a2.41,2.41,0,0,0-1.3-.328,6.427,6.427,0,0,0-2.578.477,22.689,22.689,0,0,0-.124,4.831C150.932,151.428,151.482,153.523,153.132,154.441Z" fill="#eaf1f2"/>
      <g id="Group_259" data-name="Group 259">
        <g id="Group_258" data-name="Group 258">
          <path id="Path_1124" data-name="Path 1124" d="M154.286,147.533a1.414,1.414,0,0,0,.149-.348,1.07,1.07,0,0,0,.053-.512,1.292,1.292,0,0,0-.162-.376l-.073-.129a.982.982,0,0,0-.126-.189.95.95,0,0,0-.543-.234,1.439,1.439,0,0,0-.432-.032.906.906,0,0,0-.711.592,1.246,1.246,0,0,0,.065.943,1.183,1.183,0,0,0,.939.71.941.941,0,0,0,.842-.426Z" fill="#272525" opacity="0.2"/>
          <path id="Path_1125" data-name="Path 1125" d="M154.056,147.487a1.414,1.414,0,0,0,.148-.348,1.07,1.07,0,0,0,.054-.512,1.289,1.289,0,0,0-.162-.376l-.073-.129a.98.98,0,0,0-.127-.189.95.95,0,0,0-.543-.234,1.443,1.443,0,0,0-.432-.032.906.906,0,0,0-.711.592,1.246,1.246,0,0,0,.065.943,1.183,1.183,0,0,0,.939.71.941.941,0,0,0,.842-.426Z" fill="#83959e"/>
        </g>
        <path id="Path_1126" data-name="Path 1126" d="M153.413,146.975a.508.508,0,0,0,.069-.3.31.31,0,0,0-.01-.1.239.239,0,0,0-.1-.117.437.437,0,0,0-.465-.01.382.382,0,0,0-.158.429.677.677,0,0,0,.318.206A.335.335,0,0,0,153.413,146.975Z" opacity="0.2"/>
      </g>
    </g>
    <g id="Group_261" data-name="Group 261">
      <path id="Path_1127" data-name="Path 1127" d="M152.281,123.968a2,2,0,0,0,.739-.038,2.18,2.18,0,0,0,.835-.533,9.99,9.99,0,0,0,2.925-4.851,16.157,16.157,0,0,1,.927-3.391,3.115,3.115,0,0,0,.587-1.611,1.516,1.516,0,0,0-1.437-1.227,3.436,3.436,0,0,0-1.936.584,10.25,10.25,0,0,0-4.988,8.513,2.859,2.859,0,0,0,.255,1.418,2.587,2.587,0,0,0,2.094,1.137Z" fill="#272525" opacity="0.25"/>
      <path id="Path_1128" data-name="Path 1128" d="M151.42,123.968a2,2,0,0,0,.739-.038,2.18,2.18,0,0,0,.835-.533,9.99,9.99,0,0,0,2.925-4.851,16.158,16.158,0,0,1,.927-3.391,3.115,3.115,0,0,0,.587-1.611A1.516,1.516,0,0,0,156,112.316a3.435,3.435,0,0,0-1.936.584,10.25,10.25,0,0,0-4.988,8.513,2.859,2.859,0,0,0,.255,1.418,2.587,2.587,0,0,0,2.094,1.137Z" fill="#eaf1f2"/>
    </g>
    <g id="Group_263" data-name="Group 263">
      <g id="Group_262" data-name="Group 262">
        <path id="Path_1129" data-name="Path 1129" d="M160.851,118.518a1.293,1.293,0,0,0,.3-.169.98.98,0,0,0,.325-.34,1.178,1.178,0,0,0,.093-.363l.019-.134a.9.9,0,0,0,.014-.207.87.87,0,0,0-.262-.473,1.318,1.318,0,0,0-.295-.265.829.829,0,0,0-.846.03,1.141,1.141,0,0,0-.481.719,1.082,1.082,0,0,0,.282,1.039.861.861,0,0,0,.848.163Z" fill="#272525" opacity="0.2"/>
        <path id="Path_1130" data-name="Path 1130" d="M160.711,118.356a1.293,1.293,0,0,0,.3-.169.98.98,0,0,0,.325-.34,1.178,1.178,0,0,0,.093-.363l.019-.134a.9.9,0,0,0,.014-.207.87.87,0,0,0-.262-.473,1.318,1.318,0,0,0-.295-.265.829.829,0,0,0-.846.03,1.141,1.141,0,0,0-.481.719,1.082,1.082,0,0,0,.282,1.039.861.861,0,0,0,.848.163Z" fill="#83959e"/>
      </g>
      <path id="Path_1131" data-name="Path 1131" d="M160.531,117.625a.464.464,0,0,0,.216-.176.287.287,0,0,0,.051-.082.218.218,0,0,0-.007-.141.4.4,0,0,0-.331-.268.35.35,0,0,0-.354.222.62.62,0,0,0,.115.327.306.306,0,0,0,.31.117Z" opacity="0.2"/>
    </g>
  </g>
</svg>
