<svg xmlns="http://www.w3.org/2000/svg" width="51.76" height="43.056" viewBox="0 0 51.76 43.056">
  <g id="Group_201" data-name="Group 201" transform="translate(-125.537 -521.758)">
    <path id="Path_915" data-name="Path 915" d="M132.069,551.857s-11.035-8.27-4.419-19.02,18.469-12.68,28.944-10c12.927,3.313,20.395,7.811,20.67,15.254s-.823,19.275-15.708,20.1c0,0-8.27.827-12.129,0l-2.481,6.616-3.308-8.27S134.543,554.239,132.069,551.857Z" fill="#cfa8c6"/>
    <path id="Path_916" data-name="Path 916" d="M143.968,543.257s-3.973-1.948-4.752-.28-.46,4.219,2.7,4.678A4.843,4.843,0,0,0,147,544.67c1.274-2.726,3.581-9.778,3.581-9.778s.4-1.1,3.2-.169a19.467,19.467,0,0,1,4.464,2.086s1.675.782,1.179,1.844-1.692,6.785-2.856,8.089-2.429-.766-3.708,1.593.368,5.161,2.532,4.879,5.527-11.829,5.527-11.829,2.814-6.815,1.52-7.6-8.06-3.766-10.673-3.878a1.847,1.847,0,0,0-2.085.919C149.138,532.092,145.232,543.708,143.968,543.257Z" fill="#fff"/>
  </g>
</svg>
