<svg xmlns="http://www.w3.org/2000/svg" width="28.396" height="19.882" viewBox="0 0 28.396 19.882">
  <g id="Group_98" data-name="Group 98" transform="translate(-270.988 -115.517)">
    <g id="Group_93" data-name="Group 93">
      <path id="Path_404" data-name="Path 404" d="M287.08,118.812h10.986a1.317,1.317,0,0,1,1.317,1.317v10.327a1.318,1.318,0,0,1-1.318,1.318H287.081a1.319,1.319,0,0,1-1.319-1.319V120.13A1.318,1.318,0,0,1,287.08,118.812Z" fill="#e5332a"/>
      <path id="Path_405" data-name="Path 405" d="M286.092,125.293l6.482,10.106V125.293Z" fill="#e5332a"/>
    </g>
    <g id="Group_94" data-name="Group 94">
      <path id="Path_406" data-name="Path 406" d="M279.721,117.109h10.985a1.318,1.318,0,0,1,1.318,1.318v10.325a1.319,1.319,0,0,1-1.319,1.319H279.72a1.317,1.317,0,0,1-1.317-1.317V118.427a1.318,1.318,0,0,1,1.318-1.318Z" fill="#e84e1b"/>
      <path id="Path_407" data-name="Path 407" d="M278.732,123.591l6.482,10.1v-10.1Z" fill="#e84e1b"/>
    </g>
    <g id="Group_95" data-name="Group 95">
      <path id="Path_408" data-name="Path 408" d="M272.306,115.517h10.985a1.318,1.318,0,0,1,1.318,1.318v10.326a1.318,1.318,0,0,1-1.318,1.318H272.3a1.317,1.317,0,0,1-1.317-1.317V116.835A1.318,1.318,0,0,1,272.306,115.517Z" fill="#f29100"/>
      <path id="Path_409" data-name="Path 409" d="M271.317,122,277.8,132.1V122Z" fill="#f29100"/>
    </g>
  </g>
</svg>
