<svg xmlns="http://www.w3.org/2000/svg" width="93.661" height="101.049" viewBox="0 0 93.661 101.049">
  <g id="Group_2207" data-name="Group 2207" transform="translate(-887.586 -1516.668)">
    <path id="Path_9873" data-name="Path 9873" d="M889.805,1594.2c2.165,4.129,15.181,12.173,23.358,13.677,5.388.991,17.943-2.17,19.136-5.165-4.1.85-23.245-4.173-30.409-15.618-6.353-11.915-1.167-31.019,1.612-34.147-3.191-.458-12.188,8.852-14.014,14.017-2.771,7.838-2.282,23.132.219,27.066" fill="#1f1f1f"/>
    <path id="Path_9874" data-name="Path 9874" d="M934.269,1516.672c-4.658-.189-18.133,7.061-23.523,13.39-3.552,4.171-7.092,16.625-5.1,19.155,1.312-3.973,15.237-18.044,28.73-18.526,13.495.455,27.446,14.5,28.766,18.47,1.992-2.535-1.572-14.981-5.133-19.145-5.4-6.319-18.892-13.543-23.549-13.344" fill="#1f1f1f"/>
    <path id="Path_9875" data-name="Path 9875" d="M979.178,1593.943c2.493-3.939,2.952-19.234.166-27.067-1.836-5.162-10.851-14.454-14.041-13.99,2.785,3.123,8.008,22.217,1.679,34.144-7.142,11.459-26.28,16.52-30.379,15.677,1.2,2.992,13.76,6.129,19.146,5.128,8.174-1.519,21.174-9.59,23.331-13.722" fill="#1f1f1f"/>
    <path id="Path_9876" data-name="Path 9876" d="M934.452,1603.952c-2.048,3.245-13.465,7.519-19.454,7.174,7.19,4.036,14.918,6.89,19.468,6.567,4.55.313,12.273-2.555,19.455-6.605C947.932,1611.444,936.506,1607.192,934.452,1603.952Z" fill="#1f1f1f"/>
    <path id="Path_9877" data-name="Path 9877" d="M903.5,1550.462c-1.786-3.4.221-15.421,3.514-20.435-7.09,4.209-13.425,9.474-15.421,13.576-2.547,3.784-3.924,11.906-4.007,20.151C890.272,1558.389,899.667,1550.62,903.5,1550.462Z" fill="#1f1f1f"/>
    <path id="Path_9878" data-name="Path 9878" d="M965.3,1550.4c3.834.151,13.244,7.9,15.94,13.261-.1-8.245-1.492-16.364-4.046-20.143-2-4.1-8.349-9.351-15.448-13.546C965.049,1534.982,967.08,1547,965.3,1550.4Z" fill="#1f1f1f"/>
    <path id="Path_9879" data-name="Path 9879" d="M934.45,1601.474l-.037,0c-3.333.155-10.807-1.046-14.514-3.838-3.914-2.948-7.1-11.28-5.641-16.781,3.2,6.35,10.894,10.737,20.183,11.3,9.288-.584,16.975-4.986,20.161-11.342,1.469,5.5-1.7,13.837-5.608,16.792-3.7,2.8-11.174,4.015-14.507,3.867Z" fill="#1f1f1f"/>
    <path id="Path_9880" data-name="Path 9880" d="M905.648,1551.7l.02-.031c1.532-2.964,6.31-8.836,10.581-10.65,4.51-1.916,13.318-.508,17.354,3.506-7.1-.406-14.746,4.066-19.88,11.828-4.138,8.336-4.17,17.194-.258,23.131-5.5-1.478-11.133-8.39-11.739-13.253-.573-4.606,2.11-11.684,3.9-14.5Z" fill="#1f1f1f"/>
    <path id="Path_9881" data-name="Path 9881" d="M963.155,1551.643l.017.033c1.8,2.809,4.5,9.882,3.933,14.489-.6,4.864-6.219,11.787-11.713,13.276,3.9-5.945,3.852-14.8-.3-23.13-5.149-7.752-12.805-12.208-19.9-11.789,4.028-4.021,12.833-5.447,17.347-3.539,4.275,1.806,9.064,7.669,10.6,10.63Z" fill="#1f1f1f"/>
    <path id="Path_9882" data-name="Path 9882" d="M912.905,1580.72c-1.338,3.174-.542,11.051,2.465,14.551-4.925-.974-9.783-5.525-11.872-9.108-2.065-3.6-3.59-10.076-1.98-14.831C903.054,1575.682,909.487,1580.3,912.905,1580.72Z" fill="#1f1f1f"/>
    <path id="Path_9883" data-name="Path 9883" d="M934.393,1543.417c-2.08-2.745-9.3-5.995-13.834-5.141,3.306-3.778,9.676-5.71,13.823-5.728,4.147.009,10.521,1.929,13.834,5.7C943.682,1537.4,936.468,1540.668,934.393,1543.417Z" fill="#1f1f1f"/>
    <path id="Path_9884" data-name="Path 9884" d="M955.954,1580.678c3.417-.428,9.841-5.057,11.369-9.41,1.619,4.752.107,11.235-1.951,14.835-2.082,3.587-6.931,8.147-11.854,9.131C956.517,1591.728,957.3,1583.849,955.954,1580.678Z" fill="#1f1f1f"/>
    <path id="Path_9885" data-name="Path 9885" d="M915.634,1579.21c4.984,9.756,15.081,6.173,17.954,1.113-4.3,1.334-9.532.392-12.43-4.379-2.693-4.89-.9-9.894,2.4-12.959-5.819-.03-13.957,6.938-7.982,16.121" fill="#1f1f1f"/>
    <path id="Path_9886" data-name="Path 9886" d="M934.337,1546.535c-10.942-.562-12.887,9.973-9.942,14.992,1-4.392,4.426-8.451,10.007-8.575,5.581.113,9.02,4.166,10.024,8.556,2.935-5.025.97-15.556-9.971-14.973" fill="#1f1f1f"/>
    <path id="Path_9887" data-name="Path 9887" d="M953.282,1579.07c5.957-9.195-2.194-16.147-8.013-16.106,3.306,3.058,5.106,8.059,2.423,12.954-2.888,4.777-8.118,5.729-12.421,4.4,2.884,5.054,12.987,8.618,17.952-1.148" fill="#1f1f1f"/>
    <path id="Path_9888" data-name="Path 9888" d="M934.43,1581.119c-2.324,3.215-5.6,6.132-8.626,6.444a17.542,17.542,0,0,0,17.265-.017C940.039,1587.241,936.76,1584.329,934.43,1581.119Z" fill="#1f1f1f"/>
    <path id="Path_9889" data-name="Path 9889" d="M923.285,1561.859c-1.622-3.62-2.512-7.913-1.267-10.692a17.542,17.542,0,0,0-8.618,14.96C915.179,1563.656,919.34,1562.271,923.285,1561.859Z" fill="#1f1f1f"/>
    <path id="Path_9890" data-name="Path 9890" d="M945.538,1561.837c3.946.405,8.109,1.781,9.893,4.249a17.541,17.541,0,0,0-8.647-14.944C948.034,1553.919,947.153,1558.214,945.538,1561.837Z" fill="#1f1f1f"/>
    <path id="Path_9891" data-name="Path 9891" d="M942.443,1563.593c.733-5.533-5.068-8.831-8.035-5.567-2.975-3.258-8.769.051-8.024,5.582-5.3,2.378-5.257,9.05-.8,9.742-1.477,4.452,4.286,7.815,8.847,4.158,4.567,3.648,10.323.274,8.839-4.175C947.716,1572.633,947.747,1565.96,942.443,1563.593Zm-4.805,6.551c.141,2.127-1.706,2.679-3.216,1.526-1.509,1.156-3.357.607-3.219-1.52-1.862-.853-1.416-2.728.286-3.549-.2-1.8,1.2-3.122,2.926-2.028,1.72-1.1,3.122.226,2.93,2.022,1.7.817,2.153,2.692.293,3.548Z" fill="#1f1f1f"/>
  </g>
</svg>
