<svg xmlns="http://www.w3.org/2000/svg" width="43.146" height="49.03" viewBox="0 0 43.146 49.03">
  <path id="Path_939" data-name="Path 939" d="M824.934,60.563a13.587,13.587,0,0,0-2.637,1.96l-2.957-1.344c-4.27-1.943-8.687-3.952-10.881-4.841a9.717,9.717,0,0,1-1.713-.92,8.767,8.767,0,0,0,.706-5.238,81.283,81.283,0,0,1,8.589-6.249c1.118-.61,2.835-1.732,4.539-2.892a6.979,6.979,0,0,0,3.907.905c4.272-.362,10.873-4.5,9.32-9.472s-9.32-5.633-9.32-5.633a8.645,8.645,0,0,0-7.3,5.633,6.521,6.521,0,0,0,.173,5.215c-1.367.922-2.664,1.759-3.516,2.224a85.7,85.7,0,0,0-9.274,6.706,11.167,11.167,0,0,0-6.52-.321s-7.426,4.92-4.349,8.995c2.877,3.809,6.412,6.2,10.143,3.69a14.608,14.608,0,0,0,2.891,1.606c2.106.852,6.478,2.841,10.7,4.764l2.272,1.033a6.631,6.631,0,0,0-.332,2.047c-.01,4.916,3.923,10.006,11.79,5.986S837.869,56.138,824.934,60.563Z" transform="translate(-792.958 -26.838)" fill="#537082"/>
</svg>
