<svg xmlns="http://www.w3.org/2000/svg" width="167.441" height="133.564" viewBox="0 0 167.441 133.564">
  <g id="Group_2388" data-name="Group 2388" transform="translate(-1603.673 -806.248)">
    <path id="Path_11079" data-name="Path 11079" d="M1731.353,869.473c3.063-2.724,6.587-5.366,9.354-5.367a3.433,3.433,0,0,1,2.522,1.026c4.909,4.911-5.255,9.661.4,9.661a10.249,10.249,0,0,0,10.249-10.247c0-7.862-5.9-11.06-11.563-11.06-4.8,0-9.82,3.423-16.672,10.048-2.534,2.447-7.983,7.423-14.337,13.112,1.77,2.1,3.546,4.2,5.306,6.283C1723.411,876.659,1729.469,871.146,1731.353,869.473Zm10.962-10.969c2.431,0,6.5.777,6.544,5.961a10.347,10.347,0,0,0-2.081-2.882,8.412,8.412,0,0,0-6.071-2.5,9.294,9.294,0,0,0-1.181.076A7.162,7.162,0,0,1,1742.315,858.5Z" fill="#fff"/>
    <path id="Path_11080" data-name="Path 11080" d="M1679.524,904.169a28.624,28.624,0,0,1-17.6,6.41c-15.109,0-26.285-10.063-26.285-25.17,0-7.329,2.588-14.286,7.575-18.9,2.639-2.439,5.077-4.722,6.942-6.476-1.3-1.512-2.1-2.438-2.184-2.533a33.971,33.971,0,0,1-3.06-4.047c-8.139,6.937-26.447,22.655-33.026,29.234-5.569,5.569-8.218,13.75-8.218,22.243a34.207,34.207,0,0,0,34.208,34.207,45.506,45.506,0,0,0,20.853-5.041c6.248-3.3,23.958-19.377,32.107-26.914q-2.854-3.3-6.216-7.2C1682.521,901.762,1680.763,903.207,1679.524,904.169Zm-23.135,25.493a40.316,40.316,0,0,1-18.508,4.46,29.222,29.222,0,0,1-29.19-29.188c0-7.7,2.4-14.343,6.747-18.7,3.907-3.907,12.181-11.224,19.826-17.862a32.4,32.4,0,0,0-4.638,17.034c0,17.493,13.164,30.188,31.3,30.188a33.294,33.294,0,0,0,19.448-6.549C1669,920.272,1659.864,927.828,1656.389,929.662Z" fill="#fff"/>
    <path id="Path_11081" data-name="Path 11081" d="M1755.5,889.294a18.355,18.355,0,0,0-4.664-.649c-6.3,0-9.615,4.019-8.484,8.261,1.729,7.96,17.646-.693,23.181,14.188,3.792,10.188-2.906,17.008-10.222,17.008a12.143,12.143,0,0,1-8.807-3.859c-1.017-1.059-76.851-90.974-77.338-91.526-7.784-8.821-5.362-21.623,4.326-21.623,7.613,0,13.15,6.92,6.23,14.532-4.974,5.47-2.419,17.656,8.746,17.656a20.265,20.265,0,0,0,6.132-1.047c9.8-3.129,7.55-17.6,2.422-24.222-8.3-10.727-17.993-11.765-23.53-11.765-31.486,0-37.332,32.03-22.621,48.7.485.551,62.412,72.4,63.45,73.442,9,9,16.928,11.42,25.607,11.42,10.055,0,19.519-5.766,26.141-13.577C1777,913.345,1768.652,892.753,1755.5,889.294Zm-4.57,6.854a23.788,23.788,0,0,1-3.749-.62.812.812,0,0,1,.147-.751c.413-.538,1.551-1.113,3.508-1.113a13.46,13.46,0,0,1,3.386.483,14.043,14.043,0,0,1,6.849,4.54,30.023,30.023,0,0,0-10.141-2.538Zm-63.463-80.591a27.924,27.924,0,0,1,5.585,5.529c2.435,3.144,4.193,9.242,2.927,13.308a4.2,4.2,0,0,1-2.908,3.06,15.327,15.327,0,0,1-4.6.809c-2.773,0-4.659-1.086-5.607-3.229-.916-2.074-.67-4.666.573-6.032,3.856-4.242,5.277-9.054,4.033-13.445Zm52.461,119.236c-6.273,0-13.282-1.2-22-9.889-2.109-2.326-41.167-47.617-55.927-64.732-5.781-6.7-7.26-8.418-7.371-8.544-6.5-7.367-8.284-18.63-4.333-27.385a20.677,20.677,0,0,1,10.911-10.66c-.083.169-.164.339-.242.513-3.017,6.686-1.245,15.49,4.409,21.915.439.514,7.1,8.408,15.512,18.377,46.3,54.854,61.359,72.673,61.994,73.333a17.522,17.522,0,0,0,7.371,4.624,24.57,24.57,0,0,1-10.327,2.45Z" fill="#fff"/>
    <path id="Path_11082" data-name="Path 11082" d="M1624.712,885.614c-2.193,2-3.9,3.618-5.093,4.806-3.233,3.235-5.014,8.39-5.014,14.513a23.3,23.3,0,0,0,23.275,23.275,34.292,34.292,0,0,0,15.749-3.778,35.528,35.528,0,0,0,4.393-3.1,37.182,37.182,0,0,1-22.653-10.014,35.525,35.525,0,0,1-10.658-25.707Z" fill="#fff"/>
    <path id="Path_11083" data-name="Path 11083" d="M1660.911,839.881a29.712,29.712,0,0,1-6.071-10.848,20.736,20.736,0,0,0,4.23,18.681c.119.135.729.842,7.416,8.6l.836.969c14.3,16.588,52,60.3,54.9,63.547,5.478,5.429,9.817,7.224,13.65,7.8-5.11-6-19.416-22.934-59.5-70.422C1664.353,843.953,1661.3,840.337,1660.911,839.881Z" fill="#fff"/>
  </g>
</svg>
