<svg xmlns="http://www.w3.org/2000/svg" width="109.839" height="69.946" viewBox="0 0 109.839 69.946">
  <g id="Group_2246" data-name="Group 2246" transform="translate(-915.632 -1173.798)">
    <path id="Path_10359" data-name="Path 10359" d="M1016.609,1193.342l-14.447,17.623a4,4,0,0,1-7.095-2.644l.572-20.785.04-1.492-.641,1.333-9.757,20.328a5.146,5.146,0,0,1-9.655-1.068l-4.853-21.027-.221-.96-.221.96-4.853,21.027a5.146,5.146,0,0,1-9.655,1.068l-9.757-20.328-.641-1.333.04,1.492.572,20.785a4,4,0,0,1-7.095,2.644L924.5,1193.342l-1.405-1.713.884,1.981,20.52,45.944a83.106,83.106,0,0,0,52.112,0l20.52-45.944.884-1.981Zm-79.962,22.186c3.343-1.4,7.406,17.71,7.406,17.71s-10.756-16.308-7.406-17.71Zm19.416,16.895s-9.97-19.821-4.241-20.98,4.241,20.98,4.241,20.98Zm14.494-1.242s-7.522-21.4,0-21.4,0,21.4,0,21.4Zm14.483,1.242s-1.478-22.135,4.245-20.98-4.245,20.98-4.245,20.98Zm12.013.815s4.063-19.108,7.406-17.71-7.406,17.71-7.406,17.71Z" fill="#1f1f1f"/>
    <path id="Path_10360" data-name="Path 10360" d="M970.552,1173.8a5.907,5.907,0,1,0-.221,11.811c.072,0,.148,0,.221,0s.148,0,.221,0a5.907,5.907,0,1,0-.221-11.811Zm0,9.452a3.544,3.544,0,1,1,3.542-3.546,3.544,3.544,0,0,1-3.542,3.546Z" fill="#1f1f1f"/>
    <path id="Path_10361" data-name="Path 10361" d="M944.259,1175.846a5.907,5.907,0,1,0,0,11.814,6.01,6.01,0,0,0,1.206-.123,5.678,5.678,0,0,0,.6-.159,5.907,5.907,0,0,0-1.807-11.531Zm0,9.452a3.546,3.546,0,1,1,3.542-3.546,3.546,3.546,0,0,1-3.542,3.546Z" fill="#1f1f1f"/>
    <path id="Path_10362" data-name="Path 10362" d="M921.541,1182.322a5.907,5.907,0,1,0,2.434,11.289c.177-.08.351-.17.521-.268a5.906,5.906,0,0,0-2.955-11.021Zm0,9.449a3.544,3.544,0,1,1,3.542-3.542,3.544,3.544,0,0,1-3.542,3.542Z" fill="#1f1f1f"/>
    <path id="Path_10363" data-name="Path 10363" d="M996.845,1175.846a5.907,5.907,0,0,0-1.807,11.531,5.643,5.643,0,0,0,.6.159,6.03,6.03,0,0,0,1.206.123,5.907,5.907,0,0,0,0-11.814Zm0,9.452a3.546,3.546,0,1,1,3.545-3.546,3.546,3.546,0,0,1-3.545,3.546Z" fill="#1f1f1f"/>
    <path id="Path_10364" data-name="Path 10364" d="M1019.564,1182.322a5.906,5.906,0,0,0-2.955,11.021,5.388,5.388,0,0,0,.518.268,5.907,5.907,0,1,0,2.437-11.288Zm0,9.449a3.544,3.544,0,1,1,3.546-3.542,3.544,3.544,0,0,1-3.546,3.542Z" fill="#1f1f1f"/>
  </g>
</svg>
