<svg xmlns="http://www.w3.org/2000/svg" width="28.539" height="32.572" viewBox="0 0 28.539 32.572">
  <g id="Group_252" data-name="Group 252" transform="translate(-391.972 -405.72)">
    <g id="Group_249" data-name="Group 249">
      <path id="Path_893" data-name="Path 893" d="M419.037,436.919v-.211c-3.679.134-8.189.211-13.066.211Z" fill="none" stroke="#925f36" stroke-miterlimit="10" stroke-width="2.35"/>
      <path id="Path_894" data-name="Path 894" d="M393.447,436.919h12.524c-4.639,0-8.949-.072-12.524-.191Z" fill="none" stroke="#925f36" stroke-miterlimit="10" stroke-width="2.35"/>
      <path id="Path_895" data-name="Path 895" d="M395.839,425.612l.9-.729h1.628l.942-.6s.172-.427.3-.427h.814s.428-.3.556-.216a4.4,4.4,0,0,0,.472.386,5.874,5.874,0,0,0,.728.228h.9l.813-.629s.556-.669.641-.8,1.028-1.2,1.028-1.2l.665-.9.707-.6a4.977,4.977,0,0,1,.857-.514c.128,0,.6.128.685.342s.17.557.213.686a3.762,3.762,0,0,0,.43.556,7.41,7.41,0,0,0,.64.858,8.379,8.379,0,0,1,.686.984l.943,1.113.77.727a9.711,9.711,0,0,1,.9.943,11.14,11.14,0,0,0,.684.943l.515.771h.728l.813-.259.385-.427.685.129.3.557v.342l.728.643.728.686.416.48V407.2h-25.59v20.953a14.19,14.19,0,0,0,2.392-2.536Z" fill="none" stroke="#925f36" stroke-miterlimit="10" stroke-width="2.35"/>
      <path id="Path_896" data-name="Path 896" d="M394.039,431.95c.514,0,1.371.043,1.371.043l.171-.922h-.471l.6-.792,1.883.257.129-1.113,2.955-.47.772-.214.47-.986.857-.984s2.483.041,2.656,0,1.2-.6,1.2-.6l.47-.473h.728l.514.516.6.684.728.727.814.9.771,1.028.856.3.514.514.6.7.9.835.385.429.471.344.556-.043.514-.087.3-.556.47-.472.6.174.514.512.686.516.416.344V429.69l-.416-.48-.728-.686-.728-.643v-.342l-.3-.557-.685-.129-.385.427-.813.259h-.728l-.515-.771a11.145,11.145,0,0,1-.684-.943,9.715,9.715,0,0,0-.9-.943l-.77-.727-.943-1.113a8.385,8.385,0,0,0-.686-.984,7.408,7.408,0,0,1-.64-.858,3.763,3.763,0,0,1-.43-.556c-.043-.128-.128-.472-.213-.686s-.557-.342-.685-.342a4.977,4.977,0,0,0-.857.514l-.707.6-.665.9s-.942,1.071-1.028,1.2-.641.8-.641.8l-.812.629h-.9a5.886,5.886,0,0,1-.728-.228,4.4,4.4,0,0,1-.472-.386c-.128-.085-.556.216-.556.216h-.814c-.128,0-.3.427-.3.427l-.942.6h-1.628l-.9.729a14.188,14.188,0,0,1-2.391,2.536V432.1A3.544,3.544,0,0,1,394.039,431.95Z" fill="#b17f49" stroke="#fff" stroke-miterlimit="10" stroke-width="1.271"/>
      <path id="Path_897" data-name="Path 897" d="M417.935,432.207l-.514-.512-.6-.174-.47.472-.3.556-.514.087-.556.043-.471-.344-.385-.429-.9-.835-.6-.7-.514-.514-.856-.3-.771-1.028-.814-.9-.728-.727-.6-.684-.514-.516H407.1l-.47.473s-1.028.556-1.2.6-2.656,0-2.656,0l-.857.984-.47.986-.772.214-2.955.47-.129,1.113-1.883-.257-.6.792h.47l-.171.922s-.857-.043-1.371-.043a3.541,3.541,0,0,0-.591.151v2.768c3.575-.119,7.885-.191,12.524-.191,4.877,0,9.387.079,13.066.212v-1.823l-.416-.344Z" fill="#925f36"/>
      <path id="Path_898" data-name="Path 898" d="M393.447,436.19v.539c3.575.119,7.885.191,12.524.191,4.877,0,9.387-.077,13.066-.211v-.518Z" fill="#925f36"/>
      <rect id="Rectangle_275" data-name="Rectangle 275" width="25.59" height="0.471" transform="translate(393.447 435.719)" fill="#925f36"/>
      <path id="Path_899" data-name="Path 899" d="M419.037,436.19v-1.863c-3.679-.3-8.189-.472-13.066-.472-4.639,0-8.949.159-12.524.429v1.907Z" fill="#925f36"/>
      <rect id="Rectangle_276" data-name="Rectangle 276" width="25.59" height="29.622" transform="translate(393.447 407.195)" fill="none" stroke="#925f36" stroke-miterlimit="10" stroke-width="2.95"/>
    </g>
  </g>
</svg>
