<svg xmlns="http://www.w3.org/2000/svg" width="63.679" height="51.312" viewBox="0 0 63.679 51.312">
  <g id="Group_395" data-name="Group 395" transform="translate(-782.692 -602.452)">
    <path id="Path_1584" data-name="Path 1584" d="M846.369,652.4a1.165,1.165,0,0,0-.341-.884,34.045,34.045,0,0,1-.079-4.087c-.014-.5-.02-1-.029-1.5.024-.143.054-.284.075-.428.75-2.506.142-6-.1-8.982q.014-1.78.029-3.561c.011-1.337-1.906-1.7-2.088-.323-.015.109-.022.215-.035.324h0v.034a24.636,24.636,0,0,0-.17,2.974c-.043.03-.092.052-.133.084a4.254,4.254,0,0,0-1.69,2.293c-7.784-1.605-15.6-2.966-23.465-3.967a51.723,51.723,0,0,0-2.184-10.928c2.112-.551,4.346-1.49,6.172-1.982,2.57-.693,12.146-1.54,11.308-5.3q-1.151-5.162-2.683-10.229c-.68-2.247-1.536-3.648-3.509-3.469-2.161.2-4.428,1.675-6.548,2.272l-15,4.221-12.034,3.386c-1.731.487-4.579.675-5.628,1.967a2,2,0,0,0-.284,1.938q.492,1.7,1.027,3.392c.74,2.34,1.765,8.825,4.427,9.447,1.478.345,4.344-1,5.811-1.4l14.141-3.81c.23,0,.473-.028.713-.049.766,3.98,1.724,7.883,1.541,12.049a1.606,1.606,0,0,0,1.461,1.669c8.113,1.181,16.193,2.583,24.235,4.276a9.373,9.373,0,0,0,1.684,5.593,1.727,1.727,0,0,0,.673.47,14.327,14.327,0,0,0,.63,5.29.987.987,0,0,0,1.176.547l.142-.047a1.182,1.182,0,0,0,.76-1.14Z" fill="#537082"/>
    <path id="Path_1585" data-name="Path 1585" d="M786.87,616.818a.935.935,0,0,0-.462.044,25.671,25.671,0,0,0-3.716,1.321,113.178,113.178,0,0,0,3.6,10.964,30.755,30.755,0,0,1,4.173-1.758l-3.036-9.826C787.328,617.253,787.185,616.9,786.87,616.818Z" fill="#537082"/>
  </g>
</svg>
