<svg xmlns="http://www.w3.org/2000/svg" width="48.39" height="58.091" viewBox="0 0 48.39 58.091">
  <g id="Group_392" data-name="Group 392" transform="translate(-1074.527 -599.063)">
    <g id="Group_391" data-name="Group 391">
      <path id="Path_1538" data-name="Path 1538" d="M1120.683,624.4a9.1,9.1,0,0,0-2.45-3.153,4.39,4.39,0,0,0-1-.54c.378-4.644-2.034-9.241-4.381-13.388a19.7,19.7,0,0,0-3.037-4.385c-2.8-2.788-6.981-3.637-10.927-3.827-5.121-.247-10.484.467-14.76,3.3a10.934,10.934,0,0,0-4.7,5.894,16.039,16.039,0,0,0-.395,4.44q.017,3.751.033,7.5a9.433,9.433,0,0,0-2.308,3.028,16.116,16.116,0,0,0-2.213,6.867,7.583,7.583,0,0,0,2.744,6.43,9.352,9.352,0,0,0,2.645,1.263c1.34.442,2.915.727,4.078-.072,1.438-.989,1.491-3.059,1.364-4.8-.183-2.518-.429-5.034-.426-7.558a14.115,14.115,0,0,0-.194-3.2,3.822,3.822,0,0,0-1.76-2.57,3.146,3.146,0,0,0-2.168-.24,16.151,16.151,0,0,1,.806-6.647,14.057,14.057,0,0,1,10.494-8.571,18.2,18.2,0,0,1,13.46,3.049,21.546,21.546,0,0,1,8.894,13.526l-.039.016a3.822,3.822,0,0,0-1.759,2.57,14.109,14.109,0,0,0-.194,3.2c0,2.524-.242,5.041-.426,7.558-.127,1.741-.075,3.811,1.364,4.8,1.162.8,2.738.515,4.077.072a9.347,9.347,0,0,0,2.645-1.263,7.584,7.584,0,0,0,2.744-6.43A16.111,16.111,0,0,0,1120.683,624.4Z" fill="#c06169"/>
      <path id="Path_1539" data-name="Path 1539" d="M1084.093,620.637a22.64,22.64,0,0,0-.3,3.618,53.616,53.616,0,0,0,.152,7.7c.371,2.019.147,4.611.521,5.409s1.271-.324,1.271-3.39-.374-6.656-.374-9.05S1084.771,619.188,1084.093,620.637Z" fill="#97a8b2"/>
      <path id="Path_1540" data-name="Path 1540" d="M1113.376,621.735a1.417,1.417,0,0,0-1.455,1.473c-.012,1.5-.535,6.731-.685,8.526s-.614,5.893,1.451,6.387,1.541-9.453,1.466-11.1S1114.395,623.254,1113.376,621.735Z" fill="#97a8b2"/>
    </g>
    <path id="Path_1541" data-name="Path 1541" d="M1117.969,629.976c-.369-.472-1.081.131-.806.621,3.084,5.5,2.655,11.742-1.553,16.5-4.03,4.558-10.215,4.952-15.783,5.881-1.977.33-1.518,3.662.473,3.5,6.727-.562,14.54-2.544,18.459-8.616A14.967,14.967,0,0,0,1117.969,629.976Z" fill="#c06169"/>
    <path id="Path_1542" data-name="Path 1542" d="M1105.2,651.01a45.1,45.1,0,0,0-7.99.435c-2.676.363-2.616,4.9,0,5.323a25.917,25.917,0,0,0,4.138.378,8.748,8.748,0,0,0,1.968-.138,9.3,9.3,0,0,0,1.535-.35c.369-.1.729-.211,1.07-.319a2.725,2.725,0,0,0-.721-5.329Z" fill="#434244"/>
  </g>
</svg>
