<svg xmlns="http://www.w3.org/2000/svg" width="87.638" height="74.559" viewBox="0 0 87.638 74.559">
  <g id="Group_137" data-name="Group 137" transform="translate(-918.315 -813.81)">
    <g id="Group_135" data-name="Group 135">
      <path id="Path_734" data-name="Path 734" d="M971.894,873.471a17.563,17.563,0,0,1,6.331,4.791q3.18-2.566,5.854-5.135A75.074,75.074,0,0,1,971.894,873.471Z" fill="#9bc44e"/>
      <path id="Path_735" data-name="Path 735" d="M963.432,888.369a119.936,119.936,0,0,0,10.693-7,35.7,35.7,0,0,1-10.693-6.822Z" fill="#9bc44e"/>
      <path id="Path_736" data-name="Path 736" d="M966.2,859.639a74.475,74.475,0,0,1,31.024-24.313s-5.8,16.867-25.089,30.518c19.025-3.831,33.347,1.009,33.808,1.167a28.1,28.1,0,0,0-11.385-6.566c18.869-30.41-8.824-55.276-26.623-39.766a33.968,33.968,0,0,0-5.788-6.868C963.938,817.8,971.261,835.893,966.2,859.639Z" fill="#9bc44e"/>
    </g>
    <g id="Group_136" data-name="Group 136">
      <path id="Path_737" data-name="Path 737" d="M950.077,881.369c3.177,2.321,6.681,4.631,10.542,6.913V874.705a36.438,36.438,0,0,1-10.542,6.664Z" fill="#4a9959"/>
      <path id="Path_738" data-name="Path 738" d="M952.371,873.471a75.06,75.06,0,0,1-12.193-.344q2.681,2.566,5.859,5.139a17.6,17.6,0,0,1,6.334-4.795Z" fill="#4a9959"/>
      <path id="Path_739" data-name="Path 739" d="M952.129,865.843c-19.288-13.65-25.087-30.518-25.087-30.518a74.482,74.482,0,0,1,31.034,24.313,78.6,78.6,0,0,1,.8-36.362c-17.5-20.555-48.973,5.253-29.177,37.167a27.994,27.994,0,0,0-11.386,6.568C918.685,866.884,933.039,862,952.129,865.843Z" fill="#4a9959"/>
    </g>
    <path id="Path_740" data-name="Path 740" d="M1005.953,867.018h0Z" fill="#fff"/>
  </g>
</svg>
