<svg xmlns="http://www.w3.org/2000/svg" width="19.782" height="31.531" viewBox="0 0 19.782 31.531">
  <g id="Group_349" data-name="Group 349" transform="translate(-456.672 -261.563)">
    <g id="Group_346" data-name="Group 346">
      <g id="Group_336" data-name="Group 336">
        <path id="Path_1199" data-name="Path 1199" d="M470.022,281.51c1.151-1.826,1.712-3.611.826-5.664-.72-1.679-2.487-1.029-3.875-1.323-2.628-.556-.875-4.217-.652-5.77a7.75,7.75,0,0,0-1.46-5.493c-.119-.161-.824.077-.684.266a7.779,7.779,0,0,1,1.257,6.216c-.272,1.189-1.209,3.118-.219,4.243a3.281,3.281,0,0,0,2.974.965c3.707-.115,2.2,4.948,1.111,6.676-.081.129.6.08.724-.114Z" fill="#d9d9d9"/>
        <path id="Path_1200" data-name="Path 1200" d="M469.676,281.469c.136-2.049-.85-4.96-3.386-4.1-.977.332-2,.905-2.7-.285a6.715,6.715,0,0,1-.522-1.9,5.752,5.752,0,0,0-3.042-3.718c-.2-.1-.805.2-.686.26a5.8,5.8,0,0,1,3.082,4.033c.248,1.115.465,2.081,1.608,2.519a2.586,2.586,0,0,0,1.971-.4c2.43-1.281,3.05,2.194,2.942,3.783-.01.136.716.041.731-.2Z" fill="#d9d9d9"/>
      </g>
      <g id="Group_337" data-name="Group 337">
        <path id="Path_1201" data-name="Path 1201" d="M474.757,265.727a3.787,3.787,0,1,1-3.787-3.787,3.787,3.787,0,0,1,3.787,3.787Z" fill="#fff"/>
        <path id="Path_1202" data-name="Path 1202" d="M470.97,269.891a4.164,4.164,0,1,1,4.165-4.164A4.164,4.164,0,0,1,470.97,269.891Zm0-7.572a3.408,3.408,0,1,0,3.409,3.409,3.408,3.408,0,0,0-3.409-3.409Z" fill="#6f6f6e"/>
      </g>
      <g id="Group_338" data-name="Group 338">
        <path id="Path_1203" data-name="Path 1203" d="M472.733,265.726a1.763,1.763,0,1,1-1.763-1.762,1.763,1.763,0,0,1,1.763,1.762Z" fill="#fff"/>
        <path id="Path_1204" data-name="Path 1204" d="M470.97,267.68a1.953,1.953,0,1,1,1.952-1.954,1.953,1.953,0,0,1-1.952,1.954Zm0-3.527a1.573,1.573,0,1,0,1.574,1.573,1.573,1.573,0,0,0-1.574-1.573Z" fill="#6f6f6e"/>
      </g>
      <g id="Group_339" data-name="Group 339" opacity="0.22">
        <path id="Path_1205" data-name="Path 1205" d="M476.454,292.239c0,.472-2.721.855-6.077.855s-6.078-.383-6.078-.855,2.721-.854,6.078-.854S476.454,291.767,476.454,292.239Z" fill="#9c9b9b"/>
      </g>
      <g id="Group_340" data-name="Group 340">
        <path id="Path_1206" data-name="Path 1206" d="M469.708,271.886a1.371,1.371,0,1,1-1.372-1.37,1.371,1.371,0,0,1,1.372,1.37Z" fill="#fff"/>
        <path id="Path_1207" data-name="Path 1207" d="M468.336,273.447a1.561,1.561,0,1,1,1.561-1.561A1.561,1.561,0,0,1,468.336,273.447Zm0-2.742a1.181,1.181,0,1,0,1.183,1.181,1.181,1.181,0,0,0-1.183-1.181Z" fill="#6f6f6e"/>
      </g>
      <g id="Group_341" data-name="Group 341">
        <path id="Path_1208" data-name="Path 1208" d="M461.13,275.233a2.038,2.038,0,1,1-.6-1.443,2.039,2.039,0,0,1,.6,1.443Z" fill="#fff"/>
        <path id="Path_1209" data-name="Path 1209" d="M459.091,277.651a2.418,2.418,0,1,1,2.417-2.417A2.418,2.418,0,0,1,459.091,277.651Zm0-4.078a1.66,1.66,0,1,0,1.661,1.66,1.66,1.66,0,0,0-1.661-1.66Z" fill="#6f6f6e"/>
      </g>
      <g id="Group_342" data-name="Group 342">
        <path id="Path_1210" data-name="Path 1210" d="M464.17,265.726a1.37,1.37,0,1,1-1.37-1.37A1.37,1.37,0,0,1,464.17,265.726Z" fill="#fff"/>
        <path id="Path_1211" data-name="Path 1211" d="M462.8,267.288a1.56,1.56,0,1,1,1.559-1.562,1.56,1.56,0,0,1-1.559,1.562Zm0-2.743a1.182,1.182,0,1,0,1.181,1.181,1.182,1.182,0,0,0-1.181-1.181Z" fill="#6f6f6e"/>
      </g>
      <g id="Group_343" data-name="Group 343">
        <path id="Path_1212" data-name="Path 1212" d="M468.009,280.069v6.74a2.039,2.039,0,1,0,4.078,0v-6.74Z" fill="#fff"/>
        <path id="Path_1213" data-name="Path 1213" d="M470.048,289.415a2.611,2.611,0,0,1-2.608-2.607V279.5h5.213v7.307A2.61,2.61,0,0,1,470.048,289.415Zm-1.47-8.78v6.173a1.47,1.47,0,1,0,2.94,0v-6.173Z" fill="#9c9b9b"/>
      </g>
      <g id="Group_344" data-name="Group 344">
        <path id="Path_1214" data-name="Path 1214" d="M474.233,279.236a1.371,1.371,0,1,1-1.37-1.371A1.371,1.371,0,0,1,474.233,279.236Z" fill="#fff"/>
        <path id="Path_1215" data-name="Path 1215" d="M472.863,280.8a1.56,1.56,0,1,1,1.559-1.56A1.56,1.56,0,0,1,472.863,280.8Zm0-2.742a1.182,1.182,0,1,0,1.181,1.182,1.182,1.182,0,0,0-1.181-1.182Z" fill="#6f6f6e"/>
      </g>
      <g id="Group_345" data-name="Group 345">
        <path id="Path_1216" data-name="Path 1216" d="M475.377,273.449a1.022,1.022,0,1,1-1.022-1.023,1.022,1.022,0,0,1,1.022,1.023Z" fill="#fff"/>
        <path id="Path_1217" data-name="Path 1217" d="M474.354,274.615a1.165,1.165,0,1,1,1.164-1.166A1.165,1.165,0,0,1,474.354,274.615Zm0-2.046a.881.881,0,1,0,.88.881.881.881,0,0,0-.88-.881Z" fill="#6f6f6e"/>
      </g>
    </g>
  </g>
</svg>
