<svg xmlns="http://www.w3.org/2000/svg" width="61.966" height="53.208" viewBox="0 0 61.966 53.208">
  <path id="Path_293" data-name="Path 293" d="M643.557,122.265c-3.92,4.455-5.277,10.709-4.947,16.634a33.807,33.807,0,0,0,15.933,26.739,31.587,31.587,0,0,0,30.929.695,29.653,29.653,0,0,0,15.04-26.8,15.414,15.414,0,0,0-2.33-7.941,8.185,8.185,0,0,0-7.063-3.765c-4.731.356-7.445,5.4-9.342,9.748s-4.819,9.345-9.563,9.427c-3.7.064-6.761-3.177-7.886-6.7s-.8-7.317-.758-11.016C663.715,116.912,652.354,112.267,643.557,122.265Z" transform="translate(-638.562 -116.83)" fill="#efc196"/>
</svg>
