<svg xmlns="http://www.w3.org/2000/svg" width="124.343" height="156.815" viewBox="0 0 124.343 156.815">
  <g id="Group_2176" data-name="Group 2176" transform="translate(-953.656 -524.071)">
    <path id="Path_9700" data-name="Path 9700" d="M1015.827,677.571a129.911,129.911,0,0,1-24.2-15.523c-12.194-9.9-27.794-26.53-32.868-49.547-6.725-30.517,4.465-60.565,7.821-68.572a89.118,89.118,0,0,0,49.245-16.087,89.117,89.117,0,0,0,49.245,16.087c3.355,8.012,14.542,38.075,7.821,68.572-5.075,23.029-20.69,39.667-32.895,49.569a129.759,129.759,0,0,1-24.172,15.5Z" fill="#fff"/>
    <path id="Path_9701" data-name="Path 9701" d="M1015.827,531.5a92.831,92.831,0,0,0,47.2,15.354c3.874,9.779,13.056,37.235,6.937,65-4.889,22.184-20.021,38.285-31.855,47.885a128.067,128.067,0,0,1-22.282,14.486,128.136,128.136,0,0,1-22.309-14.507c-11.823-9.6-26.941-25.692-31.828-47.864-6.122-27.779,3.061-55.224,6.936-65a92.809,92.809,0,0,0,47.2-15.354m0-7.431c-2.976,2.4-22.029,16.758-51.226,16.887-1.723,3.8-16.379,37.659-8.77,72.188,5.259,23.863,21.341,41.031,33.906,51.231a128.842,128.842,0,0,0,26.09,16.509A128.725,128.725,0,0,0,1041.89,664.4c12.576-10.2,28.672-27.378,33.934-51.253,7.606-34.516-7.048-68.386-8.77-72.188-29.2-.129-48.251-14.49-51.227-16.887Z" fill="#1f1f1f"/>
  </g>
</svg>
