<svg xmlns="http://www.w3.org/2000/svg" xmlns:xlink="http://www.w3.org/1999/xlink" width="25.822" height="27.789" viewBox="0 0 25.822 27.789">
  <defs>
    <linearGradient id="linear-gradient" x1="0.5" y1="-0.362" x2="0.5" y2="0.7" gradientUnits="objectBoundingBox">
      <stop offset="0" stop-color="#009ee2"/>
      <stop offset="1" stop-color="#1d70b7"/>
    </linearGradient>
    <linearGradient id="linear-gradient-2" x1="0.501" y1="-0.529" x2="0.501" y2="0.805" xlink:href="#linear-gradient"/>
  </defs>
  <g id="Group_55" data-name="Group 55" transform="translate(-92.603 -187.279)">
    <path id="Path_197" data-name="Path 197" d="M92.855,187.441v21.241H93.5l8.875-13.8,3.293,5.195,3.216-5.195,8.874,13.8V187.441Z" fill="url(#linear-gradient)"/>
    <rect id="Rectangle_72" data-name="Rectangle 72" width="0.727" height="16.902" transform="translate(99.019 190.152) rotate(-31.674)" fill="url(#linear-gradient-2)"/>
    <path id="Path_198" data-name="Path 198" d="M92.765,187.441h25.5v5.58h-25.5v4.858h25.5v4.079h-25.5v4.02h25.5v3.961h-25.5V214.8h25.5" fill="none" stroke="#ececec" stroke-miterlimit="10" stroke-width="0.323"/>
    <rect id="Rectangle_73" data-name="Rectangle 73" width="25.499" height="27.498" transform="translate(92.765 187.441)" fill="none" stroke="#c6c6c5" stroke-miterlimit="10" stroke-width="0.259"/>
    <path id="Path_199" data-name="Path 199" d="M118.264,187.441V214.8h-5.128V187.441h-4.462V214.8h-3.749V187.441H101.23V214.8H97.593V187.441H93.128V214.8" fill="none" stroke="#ececec" stroke-miterlimit="10" stroke-width="0.321"/>
  </g>
</svg>
