<svg xmlns="http://www.w3.org/2000/svg" width="115.883" height="147.011" viewBox="0 0 115.883 147.011">
  <g id="Group_2177" data-name="Group 2177" transform="translate(-1082.595 -528.973)">
    <path id="Path_9702" data-name="Path 9702" d="M1140.537,672.331c-21.2-14.871-54.941-44.149-54.941-65.435V547.1l54.941-15.015,54.941,15.015v59.8C1195.479,628.193,1161.734,657.466,1140.537,672.331Z" fill="#fff"/>
    <path id="Path_9703" data-name="Path 9703" d="M1140.537,535.193l51.941,14.2V606.9c0,19.5-32.224,47.6-51.941,61.753-19.718-14.157-51.942-42.258-51.942-61.753V549.388l51.942-14.2m0-6.22L1082.6,544.808V606.9c0,28.607,53.121,65.775,57.942,69.087,4.82-3.311,57.941-40.477,57.941-69.087V544.808Z" fill="#1f1f1f"/>
  </g>
</svg>
