<svg xmlns="http://www.w3.org/2000/svg" width="56.852" height="77.798" viewBox="0 0 56.852 77.798">
  <g id="Group_2393" data-name="Group 2393" transform="translate(-1025.816 -864.406)">
    <path id="Path_11129" data-name="Path 11129" d="M1072.367,891.314c-.354-8.3-2.157-14.893-5.379-19.617-3.209-4.7-7.734-7.291-12.745-7.291s-9.537,2.59-12.745,7.291c-3.223,4.723-5.026,11.315-5.38,19.617h-10.3c3.94,2.213,5.629,11.616,5.629,24.339s13.227,22.126,22.8,26.552c9.569-4.426,22.8-13.829,22.8-26.552s1.689-22.125,5.629-24.339Zm-27.275-17.248c2.38-3.487,5.629-5.407,9.151-5.407s6.77,1.92,9.149,5.407c2.713,3.975,4.3,9.9,4.644,17.248h-27.587c.345-7.35,1.931-13.273,4.643-17.248ZM1059,923h-9.515l2.546-9.448a5.209,5.209,0,0,1-2.718-4.627,4.936,4.936,0,1,1,9.86,0,5.209,5.209,0,0,1-2.719,4.627Z" fill="#1f1f1f"/>
    <path id="Path_11130" data-name="Path 11130" d="M1054.243,938.851a.545.545,0,0,1-.242-.057c-4.584-2.289-19.544-10.72-19.544-23.141,0-9.175-.84-16.133-2.5-20.68a.52.52,0,0,1,.322-.668.533.533,0,0,1,.678.315c1.7,4.661,2.563,11.737,2.563,21.033,0,11.62,14.014,19.7,18.723,22.089,4.708-2.384,18.722-10.469,18.722-22.089,0-9.3.863-16.372,2.562-21.033a.535.535,0,0,1,.68-.315.521.521,0,0,1,.322.668c-1.66,4.547-2.5,11.505-2.5,20.68,0,12.421-14.96,20.852-19.545,23.141A.542.542,0,0,1,1054.243,938.851Z" fill="#fff"/>
  </g>
</svg>
