<svg xmlns="http://www.w3.org/2000/svg" width="113.205" height="98.415" viewBox="0 0 113.205 98.415">
  <g id="Group_2215" data-name="Group 2215" transform="translate(-392.937 -1517.986)">
    <path id="Path_10190" data-name="Path 10190" d="M449.54,1517.986a1.306,1.306,0,0,0-1.121.626c-6.466,10.488-14.315,23.631-14.315,29.041,0,6.412,7.01,23.741,11.669,35.782-6.073-10.767-13.842-24.606-18.3-28.26-4.105-3.361-18.954-5.572-30.93-7.181a1.291,1.291,0,0,0-1.393,1.7c3.94,11.422,9.038,25.543,13.143,28.9,4.281,3.505,18.35,8.145,29.865,11.9-9-2.041-19.817-4.41-23.77-4.386-3.919.024-13.417,3.768-21,6.852a.612.612,0,0,0-.451.529c0,.2.154.4.457.524,7.615,2.99,17.159,6.618,21.078,6.594,3.983-.024,14.64-2.228,23.466-4.15-5,1.752-10.693,3.955-15.191,5.483-1.474.5-5.486,5.486-8.436,9.811a.677.677,0,0,0,.708.989c4.755-.658,14.481-1.966,16.871-2.754,1.869-.616,5.1-3.512,8.339-6.706a12.644,12.644,0,0,0-1.568,2.258c-1.171,2.514-1.6,7.927.277,10.861,3.919-1.451,8.085-5.908,9.256-8.422.758-1.628,1.1-5.941,1.347-9.676.251,3.735.588,8.048,1.346,9.676,1.171,2.514,5.336,6.971,9.256,8.422,1.877-2.934,1.448-8.347.277-10.861a12.641,12.641,0,0,0-1.568-2.258c3.237,3.193,6.469,6.089,8.339,6.706,2.389.788,12.116,2.1,16.871,2.754a.677.677,0,0,0,.708-.989c-2.95-4.325-6.962-9.311-8.436-9.811-4.5-1.528-10.193-3.731-15.191-5.483,8.826,1.921,19.483,4.125,23.466,4.15,3.919.024,13.462-3.6,21.078-6.594.3-.119.456-.321.457-.524a.613.613,0,0,0-.451-.529c-7.578-3.083-17.076-6.828-21-6.851-3.953-.024-14.771,2.345-23.77,4.386,11.514-3.752,25.583-8.391,29.865-11.9,4.105-3.361,9.2-17.482,13.143-28.9a1.291,1.291,0,0,0-1.393-1.7c-11.975,1.609-26.825,3.82-30.93,7.181-4.463,3.655-12.233,17.493-18.3,28.26,4.66-12.041,11.669-29.37,11.669-35.782,0-5.41-7.848-18.554-14.315-29.041A1.306,1.306,0,0,0,449.54,1517.986Zm0,75.945c-2.788-15.3-13.627-52.664,0-52.664S452.328,1578.63,449.54,1593.931Zm-39.594-32.951c8.834-11.684,31.391,20.637,39.411,32.951C428.9,1585.556,402.754,1570.493,409.946,1560.98Zm39.777,32.951c8.02-12.314,30.577-44.635,39.411-32.951,7.192,9.513-18.954,24.576-39.411,32.951Zm-8.09,1.282c-14.546,1.833-32.052,3.9-32.052-1.683,0-8.364,23.744-2.78,36.423.454.78.2,1.366.35,1.795.46-1.938.234-4.129.513-6.167.769Zm9.649-.769c.429-.11,1.015-.261,1.795-.46,12.679-3.234,36.424-8.818,36.424-.454,0,5.579-17.507,3.516-32.052,1.683-2.038-.257-4.229-.536-6.167-.77Zm-25.609,12.069c-6.221-2.379,13.432-9.963,22.739-11.786-.578.97-17.377,13.836-22.739,11.786Zm25-11.786c9.307,1.823,28.96,9.408,22.739,11.786-5.362,2.05-22.161-10.816-22.739-11.787Zm-8.539,14.9c-3.657.366,2.216-10.039,6.883-14.918-.184,3.715-1.058,14.336-6.884,14.918Zm7.937-14.918c4.667,4.879,10.54,15.284,6.883,14.918-5.826-.583-6.7-11.2-6.884-14.919Z" fill="#1f1f1f"/>
    <path id="Path_10191" data-name="Path 10191" d="M432.952,1540.486a25.961,25.961,0,0,0-2.936,10.818,25.964,25.964,0,0,0-10.818-2.936,25.961,25.961,0,0,0,2.936-10.818,25.958,25.958,0,0,0,10.818,2.936Z" fill="#1f1f1f"/>
    <path id="Path_10192" data-name="Path 10192" d="M466.128,1540.486a25.959,25.959,0,0,1,2.936,10.818,25.964,25.964,0,0,1,10.818-2.936,25.962,25.962,0,0,1-2.936-10.818,25.958,25.958,0,0,1-10.818,2.936Z" fill="#1f1f1f"/>
    <path id="Path_10193" data-name="Path 10193" d="M408.913,1581.7a20.009,20.009,0,0,0-6.11,6.11,20.011,20.011,0,0,0-6.11-6.11,20.013,20.013,0,0,0,6.11-6.11,20.011,20.011,0,0,0,6.11,6.11Z" fill="#1f1f1f"/>
    <circle id="Ellipse_121" data-name="Ellipse 121" cx="6.11" cy="6.11" r="6.11" transform="translate(490.167 1575.595)" fill="#1f1f1f"/>
    <path id="Path_10194" data-name="Path 10194" d="M414.14,1603.844a14.063,14.063,0,0,0-1.708,5.827,14.06,14.06,0,0,0-5.827-1.708,14.059,14.059,0,0,0,1.708-5.826A14.065,14.065,0,0,0,414.14,1603.844Z" fill="#1f1f1f"/>
    <path id="Path_10195" data-name="Path 10195" d="M484.94,1603.844a14.062,14.062,0,0,1,1.708,5.827,14.061,14.061,0,0,1,5.827-1.708,14.062,14.062,0,0,1-1.708-5.827,14.063,14.063,0,0,1-5.827,1.708Z" fill="#1f1f1f"/>
    <path id="Path_10196" data-name="Path 10196" d="M435.836,1614.564a8.114,8.114,0,0,0-3.4.831,8.112,8.112,0,0,0-.831-3.4,8.113,8.113,0,0,0,3.4-.832,8.111,8.111,0,0,0,.831,3.4Z" fill="#1f1f1f"/>
    <path id="Path_10197" data-name="Path 10197" d="M463.245,1614.564a8.114,8.114,0,0,1,3.4.832,8.114,8.114,0,0,1,.831-3.4,8.114,8.114,0,0,1-3.4-.832,8.113,8.113,0,0,1-.831,3.4Z" fill="#1f1f1f"/>
  </g>
</svg>
