<svg xmlns="http://www.w3.org/2000/svg" width="65.095" height="47.321" viewBox="0 0 65.095 47.321">
  <g id="Group_420" data-name="Group 420" transform="translate(-885.423 -692.43)">
    <path id="Path_1690" data-name="Path 1690" d="M949.737,738.7c1.12-.124,1-1.876-.128-1.751a16.83,16.83,0,0,1-7.76-.916,12.076,12.076,0,0,1-4.811-2.966,4.656,4.656,0,0,0,.811-2.5c.044-1.146-.553-2.437-1.878-2.382a2.214,2.214,0,0,0-1.914,2.578,5.174,5.174,0,0,0,.49,1.758,1.725,1.725,0,0,1-.73-.205,7.038,7.038,0,0,1-2.556-2.922,12.977,12.977,0,0,1-1.406-3.745c-.227-1.09-1.981-.977-1.751.128.589,2.831,1.948,6.158,4.457,7.821a3.521,3.521,0,0,0,3.079.536,12.823,12.823,0,0,0,3.8,2.761,18.57,18.57,0,0,0,10.3,1.8Zm-13.872-8.615c.357-.359.237.49.208.7a3.05,3.05,0,0,1-.115.507c-.169-.436-.315-.987-.094-1.21Z" fill="#ebefeb"/>
    <path id="Path_1691" data-name="Path 1691" d="M916.357,739.392c-2.687-3.179-5.411-8.039-8.067-11.245-4.714-5.69-6.446-9.783-10.785-15.766a177.08,177.08,0,0,1-11.953-18.662.841.841,0,0,1,1.06-1.214q1.822.749,3.641,1.5,1.943.806,3.883,1.62,2.448.892,4.917,1.725c6.966,2.356,14.019,4.443,21,6.752a166.385,166.385,0,0,1,20.659,8.117.842.842,0,0,1-.1,1.537q-4.83,1.311-9.711,2.422-4.371.994-8.777,1.825-2.21.418-4.427.8l-.562.094-.312.052-.057.009-.01,0c-.019,0-.039.012-.059.019l0,.027c0,.018.013.048.031.12s.038.166.056.249c.037.166.075.333.112.5q.12.529.239,1.06l1.1,17.512a.852.852,0,0,1-.523,1.057.675.675,0,0,1-.092.024.744.744,0,0,1-.108.09.858.858,0,0,1-1.158-.225Z" fill="#6d9dbf"/>
    <path id="Path_1692" data-name="Path 1692" d="M888.295,695.7c3.54,3.65,7.451,6.9,11.122,10.411,4.669,4.464,8.942,9.338,13.164,14.244a59.88,59.88,0,0,0,7.018,7.3c.367.3.833.613,1.275.447q-1.2-3.776-2.65-7.46a7.283,7.283,0,0,0-.93-1.819,6.744,6.744,0,0,0-1.33-1.218c-2.011-1.51-4.158-2.828-6.148-4.367-1.2-.926-2.335-1.93-3.462-2.944-5.54-4.982-10.872-10.234-16.82-14.7-1.274-.956-2.537-1.923-3.781-2.915a19.744,19.744,0,0,0,2.541,3.019Z" fill="#6087a2"/>
  </g>
</svg>
