<svg xmlns="http://www.w3.org/2000/svg" width="145.777" height="155.989" viewBox="0 0 145.777 155.989">
  <g id="Group_2180" data-name="Group 2180" transform="translate(-533.061 -524.484)">
    <path id="Path_9708" data-name="Path 9708" d="M605.95,674.837c-4.973-6.191-13.151-9.708-21.106-13.129-11.334-4.875-21.122-9.084-21.122-19.557v-3.619H560.1c-16.555,0-20.907-4.537-21.151-22.892,3.385-3.193,11.14-12.845,11.14-34.205,0-12.9-6.637-23.511-11.332-29.4,10.294-3.048,20.877-12,22.8-22.193l17.505-2.158c2.837,3.738,10.554,11.212,26.888,11.212s24.052-7.475,26.889-11.213l17.5,2.159c1.919,10.194,12.5,19.145,22.8,22.193-4.7,5.888-11.333,16.5-11.333,29.4,0,21.36,7.755,31.012,11.141,34.205-.244,18.354-4.6,22.892-21.152,22.892h-3.619v3.619c0,10.473-9.788,14.682-21.122,19.557C619.1,665.129,610.923,668.646,605.95,674.837Z" fill="#fff"/>
    <path id="Path_9709" data-name="Path 9709" d="M634.142,530.869l13.777,1.7c1.526,5.173,4.99,10.19,10.088,14.508a41.3,41.3,0,0,0,10.332,6.393c-4.542,6.534-9.532,16.357-9.532,27.967,0,20.63,6.852,30.995,11.112,35.441-.22,7.711-1.364,12.5-3.556,14.97-1.523,1.716-4.555,3.686-14.568,3.686h-6.619v6.619c0,8.1-6.977,11.5-19.308,16.8-6.9,2.968-14.454,6.216-19.92,11.476-5.466-5.26-13.02-8.508-19.92-11.476-12.331-5.3-19.308-8.7-19.308-16.8v-6.619H560.1c-10.013,0-13.045-1.97-14.567-3.686-2.192-2.47-3.336-7.259-3.556-14.97,4.26-4.446,11.112-14.811,11.112-35.441,0-11.61-4.99-21.433-9.532-27.967a41.3,41.3,0,0,0,10.332-6.393c5.1-4.318,8.562-9.336,10.088-14.508l13.778-1.7c3.932,4.551,12.322,11.029,28.192,11.029s24.26-6.478,28.193-11.029m-2.757-6.385c-1.2,2.086-7.579,11.414-25.435,11.414s-24.232-9.328-25.435-11.414l-21.663,2.671c-.449,11.22-14.523,22.05-25.791,22.935,3.416,3.494,14.031,15.62,14.031,31.346,0,23.236-9.368,31.483-11.151,32.842.053,21.131,5.512,27.255,24.162,27.255h.619v.619c0,12.448,11.142,17.239,22.937,22.312,9.15,3.935,18.594,8,22.29,16.009,3.7-8.012,13.14-12.074,22.29-16.009,11.8-5.073,22.937-9.865,22.937-22.312v-.619h.619c18.651,0,24.11-6.124,24.163-27.255-1.783-1.359-11.151-9.606-11.151-32.842,0-15.727,10.615-27.853,14.031-31.346-11.268-.885-25.343-11.715-25.792-22.935l-21.662-2.671Z" fill="#1f1f1f"/>
  </g>
</svg>
