<svg xmlns="http://www.w3.org/2000/svg" width="175.832" height="148.345" viewBox="0 0 175.832 148.345">
  <g id="Group_2161" data-name="Group 2161" transform="translate(-16.878 -21.24)">
    <path id="Path_9655" data-name="Path 9655" d="M104.793,169.586c-5.13-6.494-13.1-9.59-21.52-12.861-11.8-4.584-24-9.324-27.924-24.25l-.1-.367-.376-.049c-3.525-.458-6.6-.871-9.135-1.227C29.8,121.226,18.186,98.784,16.878,96.18c1.309-2.6,12.923-25.049,28.863-34.651,2.443-.343,5.389-.739,8.758-1.178l.4-.052.084-.39c3.471-16.165,16.091-21.067,28.3-25.807,8.422-3.271,16.391-6.367,21.52-12.861,5.13,6.494,13.1,9.59,21.521,12.861,12.2,4.74,24.824,9.643,28.3,25.808l.084.39.4.052c3.369.439,6.315.835,8.758,1.178,15.945,9.6,27.555,32.046,28.864,34.651-1.309,2.6-12.924,25.049-28.863,34.651-2.538.357-5.611.769-9.135,1.227l-.376.049-.1.367c-3.921,14.926-16.123,19.666-27.924,24.25C117.892,160,109.923,163.091,104.793,169.586Z" fill="#1f1f1f"/>
    <path id="Path_9656" data-name="Path 9656" d="M104.794,163.723l-.654-.565c-5.5-4.757-12.577-7.5-19.417-10.161-11.86-4.607-22.1-8.586-25.505-21.538l-.777-2.968-3.044-.4c-3.041-.4-5.742-.756-8.052-1.076l-.218-.03-.186-.119c-10.112-6.494-19.7-19.864-25.3-30.21l-.258-.476.258-.476c5.6-10.348,15.19-23.718,25.3-30.211l.186-.119.218-.03c2.211-.306,4.786-.65,7.672-1.027L58.21,63.9l.678-3.146c3.019-14.06,13.591-18.167,25.832-22.922,6.841-2.657,13.915-5.405,19.419-10.163l.654-.566.654.566c5.5,4.758,12.578,7.505,19.418,10.162,12.242,4.755,22.814,8.862,25.833,22.919l.675,3.149,3.194.419c2.889.377,5.464.721,7.676,1.027l.218.03.186.119c10.117,6.5,19.7,19.866,25.3,30.21l.258.476-.258.476c-5.6,10.347-15.19,23.718-25.3,30.211l-.186.119-.218.03c-2.31.32-5.01.681-8.048,1.075l-3.044.4-.78,2.965c-3.4,12.956-13.646,16.934-25.5,21.54-6.841,2.657-13.915,5.405-19.418,10.162ZM47.837,125.065c2.256.312,4.877.661,7.817,1.044l4.379.573,1.118,4.269c3.143,11.964,12.945,15.772,24.295,20.181,6.736,2.616,13.693,5.319,19.347,9.962,5.653-4.642,12.611-7.345,19.348-9.962,11.349-4.408,21.15-8.215,24.295-20.184l1.123-4.266,4.377-.574c2.938-.381,5.557-.731,7.813-1.043,9.572-6.233,18.7-18.891,24.18-28.886-5.477-9.993-14.6-22.649-24.18-28.885-2.157-.3-4.652-.631-7.441-.995l-4.6-.6-.971-4.529c-2.792-13-12.9-16.928-24.6-21.474-6.736-2.616-13.694-5.319-19.348-9.962-5.654,4.643-12.612,7.346-19.349,9.963-11.7,4.545-21.808,8.471-24.6,21.478L59.868,65.7l-4.593.6c-2.786.363-5.28.7-7.437.994-9.573,6.233-18.7,18.891-24.181,28.886C29.137,106.174,38.264,118.831,47.837,125.065Z" fill="#fff"/>
  </g>
</svg>
