<svg xmlns="http://www.w3.org/2000/svg" width="104.82" height="83.068" viewBox="0 0 104.82 83.068">
  <g id="Group_2245" data-name="Group 2245" transform="translate(-918.142 -964.657)">
    <path id="Path_10354" data-name="Path 10354" d="M931.563,1015.608h0c-.122-.347-.247-.7-.369-1.051Z" fill="#1f1f1f"/>
    <path id="Path_10355" data-name="Path 10355" d="M945.725,1006.774a.708.708,0,0,0,1-.715c-.818-8.1-9.135-12.137-14.9-7.321.278-9.438-5.019-16.92-12.764-21.809a.6.6,0,0,0-.883.705l.106.3-.009-.009,7.853,22.262,3.929,11.153,1.133,3.217.373,1.051,4.68,13.271a19.161,19.161,0,0,0,8.136-3.178c.347-.239.682-.486,1.007-.747-2.735-.625-5.427-3.343-6.725-7.137l0-.009C936.115,1010.379,940.377,1004.309,945.725,1006.774ZM926,995.907l-4.02-11.4a11.364,11.364,0,0,1,4.055,5.3A11.039,11.039,0,0,1,926,995.907Z" fill="#1f1f1f"/>
    <path id="Path_10356" data-name="Path 10356" d="M1002.448,1017.809l0,.009c-1.3,3.794-3.99,6.512-6.725,7.137.326.26.66.508,1.007.747a19.162,19.162,0,0,0,8.136,3.178l4.68-13.271.373-1.051,1.133-3.217,3.929-11.153,7.854-22.262-.009.009.106-.3a.6.6,0,0,0-.883-.705c-7.745,4.889-13.042,12.371-12.764,21.809-5.774-4.821-14.085-.771-14.9,7.321a.709.709,0,0,0,1,.716C1000.728,1004.31,1004.99,1010.379,1002.448,1017.809Zm12.625-28.006a11.364,11.364,0,0,1,4.055-5.3l-4.02,11.4a11.04,11.04,0,0,1-.035-6.1Z" fill="#1f1f1f"/>
    <path id="Path_10357" data-name="Path 10357" d="M976.956,991.857c3.642-9.661.657-19.177-5.878-26.947A.71.71,0,0,0,970,964.9c-2.31,2.609-10.886,13.46-5.794,26.961-7.721-2.949-14.415,4.548-12.38,12.55a.709.709,0,0,0,1.183.332c4.5-4.413,10.911.2,10.928,8.542,0,0,0,0,0,.009a13.251,13.251,0,0,1-1.667,6.646,19.846,19.846,0,0,0,16.619,0,13.251,13.251,0,0,1-1.667-6.646s0,0,0-.009c.016-8.345,6.426-12.955,10.928-8.542a.708.708,0,0,0,1.183-.332C991.378,996.389,984.661,988.914,976.956,991.857Zm-5.81-1.984a.709.709,0,0,1-1.126,0,12.279,12.279,0,0,1,0-15.812.709.709,0,0,1,1.126,0A12.279,12.279,0,0,1,971.146,989.873Z" fill="#1f1f1f"/>
    <path id="Path_10358" data-name="Path 10358" d="M1004.189,1030.964l-3.894,11.044a80.061,80.061,0,0,1-59.424,0l-3.894-11.04a21.293,21.293,0,0,0,8.635-3.482,19.916,19.916,0,0,0,7.753-10.347.708.708,0,0,1,1.2-.256,21.72,21.72,0,0,0,32.028,0,.709.709,0,0,1,1.2.259,19.933,19.933,0,0,0,8.1,10.581A21.255,21.255,0,0,0,1004.189,1030.964Z" fill="#1f1f1f"/>
  </g>
</svg>
