<svg xmlns="http://www.w3.org/2000/svg" width="32.876" height="50.417" viewBox="0 0 32.876 50.417">
  <g id="Group_360" data-name="Group 360" transform="translate(-40.002 -602.901)">
    <path id="Path_1422" data-name="Path 1422" d="M40.56,605.12c-.005.063-.009.126-.012.188q-.814,15.934-.415,31.909.1,3.989.275,7.975c.072,1.629-.823,5.965.17,7.222,1.193,1.511,7.959.339,9.8.338H66.141c1.388,0,4.867.761,6.008-.471,1.247-1.347.517-5.6.519-7.419q.014-18.223.028-36.447a12.51,12.51,0,0,0-.728-5.179c-4.987-.258-9.929.195-14.979-.117-5.2-.321-10.448-.487-15.547.948a1.183,1.183,0,0,0-.687.385A1.3,1.3,0,0,0,40.56,605.12Z" fill="#537082"/>
    <g id="Group_356" data-name="Group 356">
      <g id="Group_355" data-name="Group 355">
        <path id="Path_1423" data-name="Path 1423" d="M63.613,617.674a9.139,9.139,0,0,0,.334-3.193c-.642-7.384-11.989-7.976-15.021-2.043-3.627,7.1,4.3,14.114,11.089,10.315a8.382,8.382,0,0,0,3.6-5.079Z" fill="#e3e5e3"/>
        <path id="Path_1424" data-name="Path 1424" d="M56.021,624.2h0a8.527,8.527,0,0,1-7.22-4.064,7.892,7.892,0,0,1-.207-7.864,8.475,8.475,0,0,1,7.756-4.226c3.691,0,7.588,1.982,7.973,6.407a9.5,9.5,0,0,1-.347,3.325A8.738,8.738,0,0,1,60.2,623.08,8.479,8.479,0,0,1,56.021,624.2Zm.327-15.4a7.733,7.733,0,0,0-7.088,3.817,7.155,7.155,0,0,0,.179,7.131,7.771,7.771,0,0,0,6.581,3.706h0a7.739,7.739,0,0,0,3.812-1.02,7.986,7.986,0,0,0,3.419-4.852,8.742,8.742,0,0,0,.322-3.06C63.23,610.561,59.7,608.792,56.348,608.792Z" fill="#333"/>
      </g>
      <path id="Path_1425" data-name="Path 1425" d="M58.813,617.111a4.031,4.031,0,0,0,.155-1.258,3.011,3.011,0,0,0-2.351-2.368,2.694,2.694,0,0,0-2.823.615,3.542,3.542,0,0,0-.56,1.307,2.975,2.975,0,0,0-.094,1.911c.35.84,1.351,1.161,2.235,1.375,1.026.248,2.3.407,2.965-.411a2.824,2.824,0,0,0,.473-1.171Z" fill="#333"/>
    </g>
    <g id="Group_358" data-name="Group 358">
      <g id="Group_357" data-name="Group 357">
        <path id="Path_1426" data-name="Path 1426" d="M63.613,638.841a9.138,9.138,0,0,0,.334-3.193c-.642-7.385-11.989-7.976-15.021-2.044-3.627,7.1,4.3,14.114,11.089,10.315a8.382,8.382,0,0,0,3.6-5.079Z" fill="#e3e5e3"/>
        <path id="Path_1427" data-name="Path 1427" d="M56.021,645.363h0A8.527,8.527,0,0,1,48.8,641.3a7.892,7.892,0,0,1-.207-7.864,8.475,8.475,0,0,1,7.756-4.225c3.691,0,7.588,1.981,7.973,6.407a9.5,9.5,0,0,1-.347,3.325,8.738,8.738,0,0,1-3.775,5.306,8.48,8.48,0,0,1-4.178,1.116Zm.327-15.4a7.734,7.734,0,0,0-7.088,3.817,7.155,7.155,0,0,0,.179,7.131,7.771,7.771,0,0,0,6.581,3.706h0a7.739,7.739,0,0,0,3.812-1.02,7.986,7.986,0,0,0,3.419-4.853,8.743,8.743,0,0,0,.322-3.06C63.23,631.728,59.7,629.958,56.348,629.958Z" fill="#333"/>
      </g>
      <path id="Path_1428" data-name="Path 1428" d="M58.813,638.277a4.031,4.031,0,0,0,.155-1.258,3.012,3.012,0,0,0-2.351-2.368,2.694,2.694,0,0,0-2.823.615,3.543,3.543,0,0,0-.56,1.307,2.975,2.975,0,0,0-.094,1.911c.35.84,1.351,1.161,2.235,1.375,1.026.248,2.3.407,2.965-.411A2.825,2.825,0,0,0,58.813,638.277Z" fill="#333"/>
    </g>
    <g id="Group_359" data-name="Group 359" opacity="0.1">
      <path id="Path_1429" data-name="Path 1429" d="M72.666,644.992c-7.7-.18-15.662-1.236-20.756-7.634-3.734-4.691-5.2-11.227-6.016-17.016-.42-2.97-.3-5.934-.569-8.9-.2-2.162-1.432-5.883-4.349-5.572a3.666,3.666,0,0,0-.451.087q-.782,15.677-.394,31.394.1,3.989.275,7.975c.071,1.629-.823,5.965.17,7.222,1.193,1.511,7.959.338,9.8.338H66.14c1.388,0,4.867.761,6.008-.472,1.247-1.347.517-5.6.518-7.419Z"/>
    </g>
  </g>
</svg>
