<svg xmlns="http://www.w3.org/2000/svg" width="74.534" height="61.597" viewBox="0 0 74.534 61.597">
  <g id="Group_39" data-name="Group 39" transform="translate(-80.779 -316.867)">
    <g id="Group_36" data-name="Group 36">
      <path id="Path_324" data-name="Path 324" d="M89.946,329.631v7.626l32.213,12.079c4.54-1.541,33.154-12.079,33.154-12.079v-7.626l-33.154,11.994Z" fill="#354157"/>
      <path id="Path_325" data-name="Path 325" d="M102.625,331.775l19.534-7.283,20.3,7.283L152.829,328l-30.67-11.138L92.344,328Z" fill="#354157"/>
    </g>
    <g id="Group_37" data-name="Group 37">
      <path id="Path_326" data-name="Path 326" d="M152.829,357.046l-6.682-2.485L135.952,358.5l6.682,2.4Z" fill="#354157"/>
      <path id="Path_327" data-name="Path 327" d="M123.016,370.754l-33.069-12.08V366.3s28.528,10.536,33.069,12.164l32.3-12.164v-7.626S124.9,369.982,123.016,370.754Z" fill="#354157"/>
    </g>
    <g id="Group_38" data-name="Group 38">
      <path id="Path_328" data-name="Path 328" d="M80.779,344.11v7.71L112.992,363.9c4.627-1.629,33.069-12.081,33.069-12.081v-7.71l-33.069,12.08C111.107,355.418,80.779,344.11,80.779,344.11Z" fill="#f37823"/>
      <path id="Path_329" data-name="Path 329" d="M83.178,342.483l10.281,3.854,6.6-2.4-10.2-3.855Z" fill="#f37823"/>
    </g>
  </g>
</svg>
