<svg xmlns="http://www.w3.org/2000/svg" xmlns:xlink="http://www.w3.org/1999/xlink" width="27.829" height="27.829" viewBox="0 0 27.829 27.829">
  <defs>
    <clipPath id="clip-path">
      <path id="Path_639" data-name="Path 639" d="M233.948,346.862c.679,1.306,2.5,10.427,2.5,10.427l-6.443-8.657,3.545-1.594" fill="#35a8e0"/>
    </clipPath>
  </defs>
  <g id="Group_153" data-name="Group 153" transform="translate(-211.171 -329.46)">
    <g id="Group_150" data-name="Group 150">
      <path id="Path_636" data-name="Path 636" d="M233.948,346.862c.679,1.306,2.5,10.427,2.5,10.427l-6.443-8.657,3.545-1.594" fill="#35a8e0"/>
      <g id="Group_149" data-name="Group 149" clip-path="url(#clip-path)">
        <path id="Path_637" data-name="Path 637" d="M230.009,346.862Z" fill="#35a8e0"/>
        <rect id="Rectangle_94" data-name="Rectangle 94" width="0.043" height="10.427" transform="translate(230.009 346.862)" fill="#35a8e0"/>
        <rect id="Rectangle_95" data-name="Rectangle 95" width="0.043" height="10.427" transform="translate(230.052 346.862)" fill="#35a8e0"/>
        <rect id="Rectangle_96" data-name="Rectangle 96" width="0.043" height="10.427" transform="translate(230.095 346.862)" fill="#35a8e0"/>
        <rect id="Rectangle_97" data-name="Rectangle 97" width="0.043" height="10.427" transform="translate(230.138 346.862)" fill="#35a8e0"/>
        <rect id="Rectangle_98" data-name="Rectangle 98" width="0.043" height="10.427" transform="translate(230.181 346.862)" fill="#35a8e0"/>
        <rect id="Rectangle_99" data-name="Rectangle 99" width="0.043" height="10.427" transform="translate(230.225 346.862)" fill="#35a8e0"/>
        <rect id="Rectangle_100" data-name="Rectangle 100" width="0.043" height="10.427" transform="translate(230.267 346.862)" fill="#35a8e0"/>
        <rect id="Rectangle_101" data-name="Rectangle 101" width="0.042" height="10.427" transform="translate(230.311 346.862)" fill="#35a8e0"/>
        <rect id="Rectangle_102" data-name="Rectangle 102" width="0.043" height="10.427" transform="translate(230.353 346.862)" fill="#35a8e0"/>
        <rect id="Rectangle_103" data-name="Rectangle 103" width="0.041" height="10.427" transform="translate(230.396 346.862)" fill="#35a8e0"/>
        <rect id="Rectangle_104" data-name="Rectangle 104" width="0.043" height="10.427" transform="translate(230.437 346.862)" fill="#35a8e0"/>
        <rect id="Rectangle_105" data-name="Rectangle 105" width="0.043" height="10.427" transform="translate(230.481 346.862)" fill="#35a8e0"/>
        <rect id="Rectangle_106" data-name="Rectangle 106" width="0.043" height="10.427" transform="translate(230.524 346.862)" fill="#35a8e0"/>
        <rect id="Rectangle_107" data-name="Rectangle 107" width="0.043" height="10.427" transform="translate(230.567 346.862)" fill="#35a8e0"/>
        <rect id="Rectangle_108" data-name="Rectangle 108" width="0.042" height="10.427" transform="translate(230.61 346.862)" fill="#35a8e0"/>
        <rect id="Rectangle_109" data-name="Rectangle 109" width="0.043" height="10.427" transform="translate(230.652 346.862)" fill="#35a8e0"/>
        <rect id="Rectangle_110" data-name="Rectangle 110" width="0.043" height="10.427" transform="translate(230.696 346.862)" fill="#35a8e0"/>
        <rect id="Rectangle_111" data-name="Rectangle 111" width="0.042" height="10.427" transform="translate(230.74 346.862)" fill="#35a8e0"/>
        <rect id="Rectangle_112" data-name="Rectangle 112" width="0.043" height="10.427" transform="translate(230.782 346.862)" fill="#35a8e0"/>
        <rect id="Rectangle_113" data-name="Rectangle 113" width="0.043" height="10.427" transform="translate(230.825 346.862)" fill="#35a8e0"/>
        <rect id="Rectangle_114" data-name="Rectangle 114" width="0.043" height="10.427" transform="translate(230.868 346.862)" fill="#35a8e0"/>
        <rect id="Rectangle_115" data-name="Rectangle 115" width="0.043" height="10.427" transform="translate(230.911 346.862)" fill="#35a8e0"/>
        <rect id="Rectangle_116" data-name="Rectangle 116" width="0.043" height="10.427" transform="translate(230.954 346.862)" fill="#35a8e0"/>
        <rect id="Rectangle_117" data-name="Rectangle 117" width="0.042" height="10.427" transform="translate(230.997 346.862)" fill="#35a8e0"/>
        <rect id="Rectangle_118" data-name="Rectangle 118" width="0.043" height="10.427" transform="translate(231.04 346.862)" fill="#35a8e0"/>
        <rect id="Rectangle_119" data-name="Rectangle 119" width="0.043" height="10.427" transform="translate(231.083 346.862)" fill="#35a8e0"/>
        <rect id="Rectangle_120" data-name="Rectangle 120" width="0.042" height="10.427" transform="translate(231.127 346.862)" fill="#35a8e0"/>
        <rect id="Rectangle_121" data-name="Rectangle 121" width="0.043" height="10.427" transform="translate(231.168 346.862)" fill="#35a8e0"/>
        <rect id="Rectangle_122" data-name="Rectangle 122" width="0.043" height="10.427" transform="translate(231.212 346.862)" fill="#35a8e0"/>
        <rect id="Rectangle_123" data-name="Rectangle 123" width="0.043" height="10.427" transform="translate(231.254 346.862)" fill="#35a8e0"/>
        <rect id="Rectangle_124" data-name="Rectangle 124" width="0.043" height="10.427" transform="translate(231.298 346.862)" fill="#35a8e0"/>
        <rect id="Rectangle_125" data-name="Rectangle 125" width="0.043" height="10.427" transform="translate(231.34 346.862)" fill="#35a8e0"/>
        <rect id="Rectangle_126" data-name="Rectangle 126" width="0.042" height="10.427" transform="translate(231.384 346.862)" fill="#35a8e0"/>
        <rect id="Rectangle_127" data-name="Rectangle 127" width="0.043" height="10.427" transform="translate(231.426 346.862)" fill="#35a8e0"/>
        <rect id="Rectangle_128" data-name="Rectangle 128" width="0.043" height="10.427" transform="translate(231.47 346.862)" fill="#35a8e0"/>
        <rect id="Rectangle_129" data-name="Rectangle 129" width="0.042" height="10.427" transform="translate(231.513 346.862)" fill="#35a8e0"/>
        <rect id="Rectangle_130" data-name="Rectangle 130" width="0.043" height="10.427" transform="translate(231.556 346.862)" fill="#35a8e0"/>
        <rect id="Rectangle_131" data-name="Rectangle 131" width="0.043" height="10.427" transform="translate(231.599 346.862)" fill="#35a8e0"/>
        <rect id="Rectangle_132" data-name="Rectangle 132" width="0.043" height="10.427" transform="translate(231.642 346.862)" fill="#35a8e0"/>
        <rect id="Rectangle_133" data-name="Rectangle 133" width="0.043" height="10.427" transform="translate(231.685 346.862)" fill="#35a8e0"/>
        <rect id="Rectangle_134" data-name="Rectangle 134" width="0.043" height="10.427" transform="translate(231.728 346.862)" fill="#35a8e0"/>
        <rect id="Rectangle_135" data-name="Rectangle 135" width="0.041" height="10.427" transform="translate(231.771 346.862)" fill="#35a8e0"/>
        <rect id="Rectangle_136" data-name="Rectangle 136" width="0.043" height="10.427" transform="translate(231.813 346.862)" fill="#35a8e0"/>
        <rect id="Rectangle_137" data-name="Rectangle 137" width="0.043" height="10.427" transform="translate(231.856 346.862)" fill="#35a8e0"/>
        <rect id="Rectangle_138" data-name="Rectangle 138" width="0.042" height="10.427" transform="translate(231.9 346.862)" fill="#35a8e0"/>
        <rect id="Rectangle_139" data-name="Rectangle 139" width="0.043" height="10.427" transform="translate(231.942 346.862)" fill="#35a8e0"/>
        <rect id="Rectangle_140" data-name="Rectangle 140" width="0.042" height="10.427" transform="translate(231.986 346.862)" fill="#35a8e0"/>
        <rect id="Rectangle_141" data-name="Rectangle 141" width="0.043" height="10.427" transform="translate(232.027 346.862)" fill="#35a8e0"/>
        <rect id="Rectangle_142" data-name="Rectangle 142" width="0.043" height="10.427" transform="translate(232.07 346.862)" fill="#35a8e0"/>
        <rect id="Rectangle_143" data-name="Rectangle 143" width="0.043" height="10.427" transform="translate(232.113 346.862)" fill="#35a8e0"/>
        <rect id="Rectangle_144" data-name="Rectangle 144" width="0.043" height="10.427" transform="translate(232.157 346.862)" fill="#35a8e0"/>
        <rect id="Rectangle_145" data-name="Rectangle 145" width="0.043" height="10.427" transform="translate(232.2 346.862)" fill="#35a8e0"/>
        <rect id="Rectangle_146" data-name="Rectangle 146" width="0.043" height="10.427" transform="translate(232.242 346.862)" fill="#35a8e0"/>
        <rect id="Rectangle_147" data-name="Rectangle 147" width="0.042" height="10.427" transform="translate(232.286 346.862)" fill="#35a8e0"/>
        <rect id="Rectangle_148" data-name="Rectangle 148" width="0.043" height="10.427" transform="translate(232.328 346.862)" fill="#35a8e0"/>
        <rect id="Rectangle_149" data-name="Rectangle 149" width="0.043" height="10.427" transform="translate(232.372 346.862)" fill="#35a8e0"/>
        <rect id="Rectangle_150" data-name="Rectangle 150" width="0.041" height="10.427" transform="translate(232.415 346.862)" fill="#35a8e0"/>
        <rect id="Rectangle_151" data-name="Rectangle 151" width="0.043" height="10.427" transform="translate(232.457 346.862)" fill="#35a8e0"/>
        <rect id="Rectangle_152" data-name="Rectangle 152" width="0.043" height="10.427" transform="translate(232.501 346.862)" fill="#35a8e0"/>
        <rect id="Rectangle_153" data-name="Rectangle 153" width="0.043" height="10.427" transform="translate(232.543 346.862)" fill="#35a8e0"/>
        <rect id="Rectangle_154" data-name="Rectangle 154" width="0.043" height="10.427" transform="translate(232.586 346.862)" fill="#35a8e0"/>
        <rect id="Rectangle_155" data-name="Rectangle 155" width="0.043" height="10.427" transform="translate(232.629 346.862)" fill="#35a8e0"/>
        <rect id="Rectangle_156" data-name="Rectangle 156" width="0.042" height="10.427" transform="translate(232.673 346.862)" fill="#35a8e0"/>
        <rect id="Rectangle_157" data-name="Rectangle 157" width="0.043" height="10.427" transform="translate(232.715 346.862)" fill="#35a8e0"/>
        <rect id="Rectangle_158" data-name="Rectangle 158" width="0.043" height="10.427" transform="translate(232.758 346.862)" fill="#35a8e0"/>
        <rect id="Rectangle_159" data-name="Rectangle 159" width="0.042" height="10.427" transform="translate(232.802 346.862)" fill="#35a8e0"/>
        <rect id="Rectangle_160" data-name="Rectangle 160" width="0.043" height="10.427" transform="translate(232.844 346.862)" fill="#35a8e0"/>
        <rect id="Rectangle_161" data-name="Rectangle 161" width="0.043" height="10.427" transform="translate(232.888 346.862)" fill="#35a8e0"/>
        <rect id="Rectangle_162" data-name="Rectangle 162" width="0.043" height="10.427" transform="translate(232.93 346.862)" fill="#35a8e0"/>
        <rect id="Rectangle_163" data-name="Rectangle 163" width="0.043" height="10.427" transform="translate(232.974 346.862)" fill="#35a8e0"/>
        <rect id="Rectangle_164" data-name="Rectangle 164" width="0.043" height="10.427" transform="translate(233.016 346.862)" fill="#35a8e0"/>
        <rect id="Rectangle_165" data-name="Rectangle 165" width="0.042" height="10.427" transform="translate(233.06 346.862)" fill="#35a8e0"/>
        <rect id="Rectangle_166" data-name="Rectangle 166" width="0.043" height="10.427" transform="translate(233.101 346.862)" fill="#35a8e0"/>
        <rect id="Rectangle_167" data-name="Rectangle 167" width="0.043" height="10.427" transform="translate(233.145 346.862)" fill="#35a8e0"/>
        <rect id="Rectangle_168" data-name="Rectangle 168" width="0.043" height="10.427" transform="translate(233.188 346.862)" fill="#35a8e0"/>
        <rect id="Rectangle_169" data-name="Rectangle 169" width="0.043" height="10.427" transform="translate(233.231 346.862)" fill="#35a8e0"/>
        <rect id="Rectangle_170" data-name="Rectangle 170" width="0.043" height="10.427" transform="translate(233.274 346.862)" fill="#35a8e0"/>
        <rect id="Rectangle_171" data-name="Rectangle 171" width="0.043" height="10.427" transform="translate(233.317 346.862)" fill="#35a8e0"/>
        <rect id="Rectangle_172" data-name="Rectangle 172" width="0.043" height="10.427" transform="translate(233.36 346.862)" fill="#35a8e0"/>
        <rect id="Rectangle_173" data-name="Rectangle 173" width="0.043" height="10.427" transform="translate(233.403 346.862)" fill="#35a8e0"/>
        <rect id="Rectangle_174" data-name="Rectangle 174" width="0.043" height="10.427" transform="translate(233.446 346.862)" fill="#35a8e0"/>
        <rect id="Rectangle_175" data-name="Rectangle 175" width="0.043" height="10.427" transform="translate(233.489 346.862)" fill="#35a8e0"/>
        <rect id="Rectangle_176" data-name="Rectangle 176" width="0.043" height="10.427" transform="translate(233.532 346.862)" fill="#35a8e0"/>
        <rect id="Rectangle_177" data-name="Rectangle 177" width="0.042" height="10.427" transform="translate(233.576 346.862)" fill="#35a8e0"/>
        <rect id="Rectangle_178" data-name="Rectangle 178" width="0.043" height="10.427" transform="translate(233.618 346.862)" fill="#35a8e0"/>
        <rect id="Rectangle_179" data-name="Rectangle 179" width="0.042" height="10.427" transform="translate(233.661 346.862)" fill="#35a8e0"/>
        <rect id="Rectangle_180" data-name="Rectangle 180" width="0.043" height="10.427" transform="translate(233.702 346.862)" fill="#35a8e0"/>
        <rect id="Rectangle_181" data-name="Rectangle 181" width="0.042" height="10.427" transform="translate(233.746 346.862)" fill="#35a8e0"/>
        <rect id="Rectangle_182" data-name="Rectangle 182" width="0.043" height="10.427" transform="translate(233.788 346.862)" fill="#35a8e0"/>
        <rect id="Rectangle_183" data-name="Rectangle 183" width="0.043" height="10.427" transform="translate(233.832 346.862)" fill="#35a8e0"/>
        <rect id="Rectangle_184" data-name="Rectangle 184" width="0.042" height="10.427" transform="translate(233.875 346.862)" fill="#35a8e0"/>
        <rect id="Rectangle_185" data-name="Rectangle 185" width="0.043" height="10.427" transform="translate(233.917 346.862)" fill="#35a8e0"/>
        <rect id="Rectangle_186" data-name="Rectangle 186" width="0.043" height="10.427" transform="translate(233.961 346.862)" fill="#35a8e0"/>
        <rect id="Rectangle_187" data-name="Rectangle 187" width="0.043" height="10.427" transform="translate(234.004 346.862)" fill="#35a8e0"/>
        <rect id="Rectangle_188" data-name="Rectangle 188" width="0.043" height="10.427" transform="translate(234.047 346.862)" fill="#35a8e0"/>
        <rect id="Rectangle_189" data-name="Rectangle 189" width="0.043" height="10.427" transform="translate(234.09 346.862)" fill="#35a8e0"/>
        <rect id="Rectangle_190" data-name="Rectangle 190" width="0.043" height="10.427" transform="translate(234.133 346.862)" fill="#35a8e0"/>
        <rect id="Rectangle_191" data-name="Rectangle 191" width="0.043" height="10.427" transform="translate(234.176 346.862)" fill="#35a8e0"/>
        <rect id="Rectangle_192" data-name="Rectangle 192" width="0.043" height="10.427" transform="translate(234.219 346.862)" fill="#35a8e0"/>
        <rect id="Rectangle_193" data-name="Rectangle 193" width="0.041" height="10.427" transform="translate(234.262 346.862)" fill="#35a8e0"/>
        <rect id="Rectangle_194" data-name="Rectangle 194" width="0.043" height="10.427" transform="translate(234.304 346.862)" fill="#35a8e0"/>
        <rect id="Rectangle_195" data-name="Rectangle 195" width="0.043" height="10.427" transform="translate(234.348 346.862)" fill="#35a8e0"/>
        <rect id="Rectangle_196" data-name="Rectangle 196" width="0.043" height="10.427" transform="translate(234.39 346.862)" fill="#35a8e0"/>
        <rect id="Rectangle_197" data-name="Rectangle 197" width="0.043" height="10.427" transform="translate(234.433 346.862)" fill="#35a8e0"/>
        <rect id="Rectangle_198" data-name="Rectangle 198" width="0.043" height="10.427" transform="translate(234.477 346.862)" fill="#35a8e0"/>
        <rect id="Rectangle_199" data-name="Rectangle 199" width="0.043" height="10.427" transform="translate(234.52 346.862)" fill="#35a8e0"/>
        <rect id="Rectangle_200" data-name="Rectangle 200" width="0.043" height="10.427" transform="translate(234.563 346.862)" fill="#35a8e0"/>
        <rect id="Rectangle_201" data-name="Rectangle 201" width="0.043" height="10.427" transform="translate(234.605 346.862)" fill="#35a8e0"/>
        <rect id="Rectangle_202" data-name="Rectangle 202" width="0.042" height="10.427" transform="translate(234.649 346.862)" fill="#35a8e0"/>
        <rect id="Rectangle_203" data-name="Rectangle 203" width="0.043" height="10.427" transform="translate(234.691 346.862)" fill="#35a8e0"/>
        <rect id="Rectangle_204" data-name="Rectangle 204" width="0.043" height="10.427" transform="translate(234.735 346.862)" fill="#35a8e0"/>
        <rect id="Rectangle_205" data-name="Rectangle 205" width="0.043" height="10.427" transform="translate(234.777 346.862)" fill="#35a8e0"/>
        <rect id="Rectangle_206" data-name="Rectangle 206" width="0.043" height="10.427" transform="translate(234.821 346.862)" fill="#35a8e0"/>
        <rect id="Rectangle_207" data-name="Rectangle 207" width="0.043" height="10.427" transform="translate(234.864 346.862)" fill="#35a8e0"/>
        <rect id="Rectangle_208" data-name="Rectangle 208" width="0.043" height="10.427" transform="translate(234.907 346.862)" fill="#35a8e0"/>
        <rect id="Rectangle_209" data-name="Rectangle 209" width="0.042" height="10.427" transform="translate(234.95 346.862)" fill="#35a8e0"/>
        <rect id="Rectangle_210" data-name="Rectangle 210" width="0.043" height="10.427" transform="translate(234.992 346.862)" fill="#35a8e0"/>
        <rect id="Rectangle_211" data-name="Rectangle 211" width="0.042" height="10.427" transform="translate(235.035 346.862)" fill="#35a8e0"/>
        <rect id="Rectangle_212" data-name="Rectangle 212" width="0.043" height="10.427" transform="translate(235.078 346.862)" fill="#35a8e0"/>
        <rect id="Rectangle_213" data-name="Rectangle 213" width="0.043" height="10.427" transform="translate(235.121 346.862)" fill="#35a8e0"/>
        <rect id="Rectangle_214" data-name="Rectangle 214" width="0.043" height="10.427" transform="translate(235.164 346.862)" fill="#35a8e0"/>
        <rect id="Rectangle_215" data-name="Rectangle 215" width="0.043" height="10.427" transform="translate(235.207 346.862)" fill="#35a8e0"/>
        <rect id="Rectangle_216" data-name="Rectangle 216" width="0.043" height="10.427" transform="translate(235.25 346.862)" fill="#35a8e0"/>
        <rect id="Rectangle_217" data-name="Rectangle 217" width="0.043" height="10.427" transform="translate(235.292 346.862)" fill="#35a8e0"/>
        <rect id="Rectangle_218" data-name="Rectangle 218" width="0.043" height="10.427" transform="translate(235.336 346.862)" fill="#35a8e0"/>
        <rect id="Rectangle_219" data-name="Rectangle 219" width="0.043" height="10.427" transform="translate(235.378 346.862)" fill="#35a8e0"/>
        <rect id="Rectangle_220" data-name="Rectangle 220" width="0.042" height="10.427" transform="translate(235.422 346.862)" fill="#35a8e0"/>
        <rect id="Rectangle_221" data-name="Rectangle 221" width="0.043" height="10.427" transform="translate(235.464 346.862)" fill="#35a8e0"/>
        <rect id="Rectangle_222" data-name="Rectangle 222" width="0.043" height="10.427" transform="translate(235.508 346.862)" fill="#35a8e0"/>
        <rect id="Rectangle_223" data-name="Rectangle 223" width="0.042" height="10.427" transform="translate(235.551 346.862)" fill="#35a8e0"/>
        <rect id="Rectangle_224" data-name="Rectangle 224" width="0.043" height="10.427" transform="translate(235.593 346.862)" fill="#35a8e0"/>
        <rect id="Rectangle_225" data-name="Rectangle 225" width="0.043" height="10.427" transform="translate(235.636 346.862)" fill="#35a8e0"/>
        <rect id="Rectangle_226" data-name="Rectangle 226" width="0.043" height="10.427" transform="translate(235.679 346.862)" fill="#35a8e0"/>
        <rect id="Rectangle_227" data-name="Rectangle 227" width="0.043" height="10.427" transform="translate(235.722 346.862)" fill="#35a8e0"/>
        <rect id="Rectangle_228" data-name="Rectangle 228" width="0.043" height="10.427" transform="translate(235.766 346.862)" fill="#35a8e0"/>
        <rect id="Rectangle_229" data-name="Rectangle 229" width="0.043" height="10.427" transform="translate(235.808 346.862)" fill="#35a8e0"/>
        <rect id="Rectangle_230" data-name="Rectangle 230" width="0.043" height="10.427" transform="translate(235.851 346.862)" fill="#35a8e0"/>
        <rect id="Rectangle_231" data-name="Rectangle 231" width="0.043" height="10.427" transform="translate(235.894 346.862)" fill="#35a8e0"/>
        <rect id="Rectangle_232" data-name="Rectangle 232" width="0.042" height="10.427" transform="translate(235.938 346.862)" fill="#35a8e0"/>
        <rect id="Rectangle_233" data-name="Rectangle 233" width="0.043" height="10.427" transform="translate(235.98 346.862)" fill="#35a8e0"/>
        <rect id="Rectangle_234" data-name="Rectangle 234" width="0.043" height="10.427" transform="translate(236.023 346.862)" fill="#35a8e0"/>
        <rect id="Rectangle_235" data-name="Rectangle 235" width="0.043" height="10.427" transform="translate(236.066 346.862)" fill="#35a8e0"/>
        <rect id="Rectangle_236" data-name="Rectangle 236" width="0.043" height="10.427" transform="translate(236.109 346.862)" fill="#35a8e0"/>
        <rect id="Rectangle_237" data-name="Rectangle 237" width="0.043" height="10.427" transform="translate(236.153 346.862)" fill="#35a8e0"/>
        <rect id="Rectangle_238" data-name="Rectangle 238" width="0.043" height="10.427" transform="translate(236.195 346.862)" fill="#35a8e0"/>
        <rect id="Rectangle_239" data-name="Rectangle 239" width="0.042" height="10.427" transform="translate(236.239 346.862)" fill="#35a8e0"/>
        <rect id="Rectangle_240" data-name="Rectangle 240" width="0.043" height="10.427" transform="translate(236.28 346.862)" fill="#35a8e0"/>
        <rect id="Rectangle_241" data-name="Rectangle 241" width="0.043" height="10.427" transform="translate(236.324 346.862)" fill="#35a8e0"/>
        <rect id="Rectangle_242" data-name="Rectangle 242" width="0.043" height="10.427" transform="translate(236.367 346.862)" fill="#35a8e0"/>
        <rect id="Rectangle_243" data-name="Rectangle 243" width="0.043" height="10.427" transform="translate(236.41 346.862)" fill="#35a8e0"/>
        <path id="Path_638" data-name="Path 638" d="M236.452,357.289Z" fill="#35a8e0"/>
      </g>
    </g>
    <path id="Path_640" data-name="Path 640" d="M236.321,351.58a13.913,13.913,0,1,1-3.029-19.441,13.913,13.913,0,0,1,3.029,19.441Z" fill="#35a8e0"/>
    <path id="Path_641" data-name="Path 641" d="M231.881,349.468a4.626,4.626,0,0,1-2.74,1.97,2.912,2.912,0,0,1-2.235-.453A2.773,2.773,0,0,1,225.7,349.1a14.668,14.668,0,0,1,.764-5.52l.539-2a8.89,8.89,0,0,0,.384-3.645,3.834,3.834,0,0,0-1.475-2.551,3.509,3.509,0,0,0-2.8-.562,3.438,3.438,0,0,0-2.3,1.356,3.255,3.255,0,0,0-.514,2.575,7.76,7.76,0,0,0,1.457,3.056l.483.668A7.28,7.28,0,0,1,223.588,345a3.3,3.3,0,0,1-.612,2.587,3.561,3.561,0,1,1-5.844-4.073,3.305,3.305,0,0,1,2.225-1.462,3.887,3.887,0,0,1,1.153-.01,7.454,7.454,0,0,1-1.564-3.129,4.115,4.115,0,0,1,.795-3.349,4.887,4.887,0,0,1,3.166-1.843,5.014,5.014,0,0,1,3.826.673,4.7,4.7,0,0,1,1.975,3.245,6.863,6.863,0,0,1,.107,1.908,20.809,20.809,0,0,1-.6,2.779l-.382,1.464a15.967,15.967,0,0,0-.83,4.942,1.831,1.831,0,0,0,.693,1.194,1.569,1.569,0,0,0,1.276.288,3.552,3.552,0,0,0,1.974-1.46Zm-14.319-3.5a2.5,2.5,0,0,0,1.028,1.665,2.474,2.474,0,0,0,3.473-.624,2.6,2.6,0,0,0-.628-3.55,2.4,2.4,0,0,0-1.881-.416,2.357,2.357,0,0,0-1.593,1.039,2.467,2.467,0,0,0-.4,1.885Z" fill="#fff"/>
  </g>
</svg>
