<svg xmlns="http://www.w3.org/2000/svg" xmlns:xlink="http://www.w3.org/1999/xlink" width="119.426" height="100.188" viewBox="0 0 119.426 100.188">
  <defs>
    <radialGradient id="radial-gradient" cx="0.743" cy="0.732" r="0.812" gradientTransform="translate(0.094) scale(0.812 1)" gradientUnits="objectBoundingBox">
      <stop offset="0" stop-color="#7ac737"/>
      <stop offset="1" stop-color="#aad184"/>
    </radialGradient>
  </defs>
  <g id="Group_2420" data-name="Group 2420" transform="translate(-367.315 -8.487)">
    <path id="Path_11149" data-name="Path 11149" d="M418.036,99.95a43.363,43.363,0,0,0,6.523-16,54.1,54.1,0,0,1-10.348.964,63.243,63.243,0,0,1-10.775-.943c-10.264-1.78-19.511-5.879-26.038-11.541-6.7-5.81-9.766-12.59-8.639-19.091.938-5.407,4.645-10,10.721-13.3,5.727-3.1,13.351-4.81,21.469-4.81,1.039,0,2.095.028,3.151.082a21.191,21.191,0,0,1,.308-3.9,21.624,21.624,0,0,1,3.785-8.945,26.791,26.791,0,0,1,7.3-6.847,40.1,40.1,0,0,1,21.591-5.909,48.9,48.9,0,0,1,8.332.725c9.626,1.67,18.2,6.037,24.155,12.3,6.044,6.36,8.671,13.912,7.4,21.265a21.744,21.744,0,0,1-4.779,10.237,30.067,30.067,0,0,1,9.925,8.07c2.753,3.633,3.867,7.524,3.22,11.252-.739,4.262-3.65,7.879-8.418,10.462a35.768,35.768,0,0,1-16.7,3.747h0a49.124,49.124,0,0,1-8.367-.732,47.559,47.559,0,0,1-11.338-3.42c-7.416,10.335-20.312,17.806-20.871,18.127l-5.109,2.932Z" fill="url(#radial-gradient)"/>
    <path id="Path_11150" data-name="Path 11150" d="M437.086,10.943a47.555,47.555,0,0,1,8.122.707c19.369,3.36,33.047,17.751,30.55,32.144a20.974,20.974,0,0,1-5.539,10.825c9.356,4.51,15.12,11.732,13.905,18.733-1.386,7.99-11.424,13.192-23.914,13.192a47.844,47.844,0,0,1-8.157-.714,46.145,46.145,0,0,1-11.966-3.756c-7.221,10.665-21.064,18.609-21.064,18.609a44.432,44.432,0,0,0,7.054-18.313,51.832,51.832,0,0,1-11.866,1.319,61.946,61.946,0,0,1-10.565-.925c-20.772-3.6-35.85-16.682-33.676-29.212,1.8-10.351,14.8-17.088,30.98-17.087,1.455,0,2.939.055,4.44.166a20,20,0,0,1,.229-5c2.142-12.347,15.49-20.684,31.469-20.684m0-2.456a45.167,45.167,0,0,0-12.01,1.584,36.824,36.824,0,0,0-10.248,4.522,28.013,28.013,0,0,0-7.634,7.163,22.842,22.842,0,0,0-4,9.45,22.271,22.271,0,0,0-.306,2.832c-.651-.021-1.3-.031-1.943-.031a54.536,54.536,0,0,0-11.956,1.274,39.354,39.354,0,0,0-10.1,3.684,25.137,25.137,0,0,0-7.5,5.984,17.43,17.43,0,0,0-3.849,8.181,17.854,17.854,0,0,0,1.621,10.81,29.007,29.007,0,0,0,7.423,9.419c6.694,5.806,16.152,10,26.633,11.823a64.473,64.473,0,0,0,10.985.961,56.394,56.394,0,0,0,8.765-.666,41.192,41.192,0,0,1-5.925,13.74l-7.024,9.458,10.218-5.863a82.934,82.934,0,0,0,8.089-5.48,64.731,64.731,0,0,0,12.58-12.195,49.153,49.153,0,0,0,10.719,3.112A50.346,50.346,0,0,0,460.21,89a42.656,42.656,0,0,0,9.351-1,30.941,30.941,0,0,0,7.94-2.9,19.964,19.964,0,0,0,5.952-4.755,14.009,14.009,0,0,0,3.091-6.577c.706-4.072-.487-8.292-3.451-12.2a30.391,30.391,0,0,0-9.057-7.707,23.975,23.975,0,0,0,1.945-3.135,22.561,22.561,0,0,0,2.2-6.513,23.037,23.037,0,0,0-1.106-11.874,29.941,29.941,0,0,0-6.609-10.447,40.416,40.416,0,0,0-10.833-8.009,48.6,48.6,0,0,0-14-4.653,50.123,50.123,0,0,0-8.542-.743Z" fill="#fff"/>
  </g>
</svg>
