<svg xmlns="http://www.w3.org/2000/svg" xmlns:xlink="http://www.w3.org/1999/xlink" width="124.826" height="140.517" viewBox="0 0 124.826 140.517">
  <defs>
    <radialGradient id="radial-gradient" cx="0.876" cy="0.83" r="0.929" gradientTransform="translate(-0.053) scale(1.106 1)" gradientUnits="objectBoundingBox">
      <stop offset="0" stop-color="#fcd24c"/>
      <stop offset="1" stop-color="#fcff94"/>
    </radialGradient>
  </defs>
  <g id="Group_2431" data-name="Group 2431" transform="translate(-150.301 -149.028)">
    <path id="Path_11177" data-name="Path 11177" d="M194.826,280.895a47.378,47.378,0,0,0,6.594-14.176q-.516.029-1.031.029a18.37,18.37,0,0,1-16.356-9.965,20.669,20.669,0,0,1-27.627-28.749,24.559,24.559,0,0,1,10.071-37.268,21.286,21.286,0,0,1,19.455-20.019c.42-5.421,3.432-10.452,8.576-14.269a33.9,33.9,0,0,1,20.136-6.218,35.335,35.335,0,0,1,16.393,3.875,24.278,24.278,0,0,1,10.031,9.286,18.4,18.4,0,0,1,17.66,28.948,28.616,28.616,0,0,1,8.19,43.981,15.12,15.12,0,0,1,2.406,8.114,15.988,15.988,0,0,1-6.237,12.4,23.241,23.241,0,0,1-14.752,5.022,23.816,23.816,0,0,1-13.1-3.8,37.566,37.566,0,0,1-16.909,6.643c-8.538,10.4-21.374,17.669-21.923,17.977l-5.137,2.881Z" fill="url(#radial-gradient)"/>
    <path id="Path_11178" data-name="Path 11178" d="M214.643,151.488c11.778,0,21.827,5.525,25.762,13.294a17.171,17.171,0,0,1,16.407,28.034,27.337,27.337,0,0,1,8.543,43.415,13.991,13.991,0,0,1,2.74,8.232c0,8.946-8.847,16.2-19.761,16.2a22.318,22.318,0,0,1-13.113-4.082,36.241,36.241,0,0,1-17.533,6.992C209.2,274.12,195.8,281.636,195.8,281.636a48.689,48.689,0,0,0,7.26-16.324,17.191,17.191,0,0,1-18.494-10.272,19.439,19.439,0,0,1-26.67-27.079,23.328,23.328,0,0,1,9.773-36.356,20.084,20.084,0,0,1,19.435-19.7c.109-11.292,12.393-20.421,27.534-20.421m0-2.456a35.127,35.127,0,0,0-20.867,6.46,23.87,23.87,0,0,0-6.577,7.239,18.845,18.845,0,0,0-2.384,6.9,22.548,22.548,0,0,0-19.509,20.31,25.768,25.768,0,0,0-10.36,38.17,21.9,21.9,0,0,0,28.59,30.3,19.633,19.633,0,0,0,16.223,9.552,45.429,45.429,0,0,1-5.913,12.19l-7.114,9.388,10.276-5.766a90.288,90.288,0,0,0,8-5.23,77.227,77.227,0,0,0,13.962-12.666,38.8,38.8,0,0,0,16.3-6.321,25.217,25.217,0,0,0,13.065,3.556,24.47,24.47,0,0,0,15.53-5.3,18.825,18.825,0,0,0,4.861-5.922,16.065,16.065,0,0,0,1.826-7.431,16.237,16.237,0,0,0-2.127-7.984,29,29,0,0,0,5.435-10.116,30.259,30.259,0,0,0-5.128-27.268,28.931,28.931,0,0,0-8.239-7.16A19.63,19.63,0,0,0,241.711,162.1a25.841,25.841,0,0,0-10.1-9.053,36.567,36.567,0,0,0-16.965-4.016Z" fill="#fff"/>
  </g>
</svg>
