<svg xmlns="http://www.w3.org/2000/svg" width="101.858" height="67.527" viewBox="0 0 101.858 67.527">
  <g id="Group_2382" data-name="Group 2382" transform="translate(-685.82 -690.574)">
    <path id="Path_11056" data-name="Path 11056" d="M778.394,714.323c-4.563,5.109-13.149,17.64-13.955,17.439-2.065-.524-2.8-19.836-3.516-29.009a3.67,3.67,0,0,0,3.321-3.61,3.53,3.53,0,0,0-3.633-3.451,3.621,3.621,0,0,0-3.586,3.622,3.476,3.476,0,0,0,2.56,3.337c-2.841,7.427-10.348,26.045-12.392,25.89-3.062-.229-7.607-21.735-9.641-30.836a3.611,3.611,0,1,0-1.608,0c-2.035,9.1-7.244,30.656-9.642,30.836-2.613.2-9.552-18.467-12.393-25.89a3.476,3.476,0,0,0,2.561-3.338,3.619,3.619,0,0,0-3.586-3.62,3.522,3.522,0,0,0-3.632,3.449,3.665,3.665,0,0,0,3.319,3.609c-.719,9.174-2.4,28.727-3.516,29.008-1.5.378-9.393-12.33-13.955-17.438-2.712-3.038-9.283-3.825-9.283-1.266s4.031,4.818,6.94,4.174c4.591,8.937,6.871,19.467,8.542,28.975.6,3.425,2.96,1.778,7.046.9,9.013-1.936,19.22-2.222,28.4-2.222s19.391.286,28.4,2.222c4.09.877,6.447,2.527,7.05-.9,1.672-9.509,3.951-20.038,8.542-28.976,2.909.642,6.94-1.617,6.94-4.174S781.108,711.285,778.394,714.323Z" fill="#1f1f1f"/>
    <path id="Path_11057" data-name="Path 11057" d="M736.847,754.726c10.259.2,21.06.458,30.812,3.168,4.359,1.211,5.769-4.822,2.833-6.551-8.16-4.81-23.6-3.793-33.646-4.008-10.048.227-25.494-.769-33.65,4.054-2.936,1.738-1.53,7.77,2.834,6.55C715.78,755.214,726.588,754.941,736.847,754.726Z" fill="#1f1f1f"/>
  </g>
</svg>
