<svg xmlns="http://www.w3.org/2000/svg" xmlns:xlink="http://www.w3.org/1999/xlink" width="33.495" height="33.717" viewBox="0 0 33.495 33.717">
  <defs>
    <linearGradient id="linear-gradient" x1="-36.199" y1="7.704" x2="-41.646" y2="7.584" gradientUnits="objectBoundingBox">
      <stop offset="0" stop-color="#009ee2"/>
      <stop offset="0.859" stop-color="#009ee2"/>
      <stop offset="1" stop-color="#009ee2"/>
      <stop offset="1" stop-color="#e20613"/>
      <stop offset="1" stop-color="#ffec00"/>
      <stop offset="1" stop-color="#e3dd17"/>
      <stop offset="1" stop-color="#bac638"/>
      <stop offset="1" stop-color="#94b157"/>
      <stop offset="1" stop-color="#74a071"/>
      <stop offset="1" stop-color="#589187"/>
      <stop offset="1" stop-color="#428599"/>
      <stop offset="1" stop-color="#327ba6"/>
      <stop offset="1" stop-color="#2675b0"/>
      <stop offset="1" stop-color="#1f71b5"/>
      <stop offset="1" stop-color="#1d70b7"/>
    </linearGradient>
    <linearGradient id="linear-gradient-2" x1="-13.39" y1="20.921" x2="-15.405" y2="20.595" xlink:href="#linear-gradient"/>
  </defs>
  <g id="Group_368" data-name="Group 368" transform="translate(-449.636 -476.004)">
    <g id="Group_356" data-name="Group 356">
      <path id="Path_1252" data-name="Path 1252" d="M463.446,484.739,471.983,476l-2.428,8.86h-6.109" fill="#009540" opacity="0.31"/>
      <path id="Path_1253" data-name="Path 1253" d="M469.51,484.739,460.975,476l2.428,8.86h6.107" fill="#009540" opacity="0.21"/>
    </g>
    <g id="Group_357" data-name="Group 357">
      <path id="Path_1254" data-name="Path 1254" d="M470.071,484.822l12.216-.143-7.982,4.55-4.319-4.32" fill="#bd1622" opacity="0.31"/>
      <path id="Path_1255" data-name="Path 1255" d="M474.36,489.11l.142-12.216-4.548,7.985,4.319,4.318" fill="#bd1622" opacity="0.21"/>
    </g>
    <g id="Group_358" data-name="Group 358">
      <path id="Path_1256" data-name="Path 1256" d="M458.522,489.149l-.144-12.215,4.549,7.981-4.32,4.317" fill="#063" opacity="0.31"/>
      <path id="Path_1257" data-name="Path 1257" d="M462.808,484.86l-12.214-.142,7.981,4.549,4.319-4.32" fill="#063" opacity="0.21"/>
    </g>
    <g id="Group_359" data-name="Group 359">
      <path id="Path_1258" data-name="Path 1258" d="M458.373,495.908l-8.737-8.537,8.858,2.43v6.107" fill="#1d70b7" opacity="0.31"/>
      <path id="Path_1259" data-name="Path 1259" d="M458.373,489.847l-8.737,8.534,8.858-2.429v-6.105" fill="#1d70b7" opacity="0.21"/>
    </g>
    <g id="Group_360" data-name="Group 360">
      <path id="Path_1260" data-name="Path 1260" d="M474.392,489.8l8.739,8.537-8.86-2.428V489.8" fill="#e84e1b" opacity="0.31"/>
      <path id="Path_1261" data-name="Path 1261" d="M474.392,495.868l8.739-8.538-8.86,2.43v6.108" fill="#e84e1b" opacity="0.21"/>
    </g>
    <g id="Group_361" data-name="Group 361">
      <path id="Path_1262" data-name="Path 1262" d="M469.453,500.983l-8.535,8.738,2.428-8.86h6.107" fill="#e61b72" opacity="0.31"/>
      <path id="Path_1263" data-name="Path 1263" d="M463.39,500.983l8.536,8.738-2.428-8.86H463.39" fill="#e61b72" opacity="0.21"/>
    </g>
    <g id="Group_362" data-name="Group 362">
      <path id="Path_1264" data-name="Path 1264" d="M462.828,500.9l-12.214.142L458.6,496.5l4.319,4.319" fill="#662482" opacity="0.31"/>
      <path id="Path_1265" data-name="Path 1265" d="M458.541,496.613,458.4,508.83l4.548-7.984-4.321-4.318" fill="#662482" opacity="0.21"/>
    </g>
    <g id="Group_365" data-name="Group 365">
      <g id="Group_363" data-name="Group 363">
        <path id="Path_1266" data-name="Path 1266" d="M474.379,496.575l.144,12.216-4.549-7.983,4.32-4.32" opacity="0.31" fill="url(#linear-gradient)"/>
      </g>
      <g id="Group_364" data-name="Group 364">
        <path id="Path_1267" data-name="Path 1267" d="M470.093,500.864l12.216.14-7.985-4.548-4.317,4.321" opacity="0.21" fill="url(#linear-gradient-2)"/>
      </g>
    </g>
  </g>
</svg>
