<svg xmlns="http://www.w3.org/2000/svg" width="56.409" height="55.472" viewBox="0 0 56.409 55.472">
  <g id="Group_401" data-name="Group 401" transform="translate(-789.451 -271.368)">
    <g id="Group_399" data-name="Group 399">
      <path id="Path_1608" data-name="Path 1608" d="M816.884,326.84a28.149,28.149,0,0,1-19.808-8.677,27.361,27.361,0,0,1-7.594-20.228,26.224,26.224,0,0,1,9.935-19.95,30.228,30.228,0,0,1,18.234-6.617h0c8.069-.015,15.336,2.753,20.433,7.836s7.786,12.111,7.778,20.326C845.847,312.682,836.774,326.84,816.884,326.84Z" fill="#b3d6e3"/>
      <path id="Path_1609" data-name="Path 1609" d="M817.66,273.795c-10.868.04-25.132,8.092-25.753,24.233s12.871,26.384,24.977,26.384c17.693,0,26.537-12.3,26.55-24.886C843.45,283.23,832.094,273.741,817.66,273.795Z" fill="#fff"/>
    </g>
    <g id="Group_400" data-name="Group 400">
      <path id="Path_1610" data-name="Path 1610" d="M807.518,285.28c0,2.979,1.611,9.194,5.134,11.307s1.922,1.826,0,3.491a15.854,15.854,0,0,0-5.285,12.124c0,.207,19.7.665,19.825,0,.679-3.523-1.741-8.809-6.1-12.406-2.562-2.114-.931-2.354.637-3.026,4.535-1.944,6.876-11.644,4.7-11.836S807.518,284.289,807.518,285.28Z" fill="#b3d6e3"/>
      <path id="Path_1611" data-name="Path 1611" d="M806.855,284.278c0,1.442.776,1.25,10.405,1.281,8.144.027,10.405.638,10.405-.992s-1.68-1.9-10.405-1.945S806.855,282.517,806.855,284.278Z" fill="#70a6c4"/>
      <path id="Path_1612" data-name="Path 1612" d="M827.665,313.361c0-1.442-.776-1.25-10.405-1.281-8.144-.027-10.405-.638-10.405.992s1.68,1.9,10.405,1.945S827.665,315.122,827.665,313.361Z" fill="#70a6c4"/>
    </g>
  </g>
</svg>
