<svg xmlns="http://www.w3.org/2000/svg" width="64.953" height="19.695" viewBox="0 0 64.953 19.695">
  <g id="Group_243" data-name="Group 243" transform="translate(-118.941 -366.792)">
    <g id="Group_238" data-name="Group 238">
      <path id="Path_1083" data-name="Path 1083" d="M159.122,382.649c2.128,2.114,6.2,2.945,8.9,2.917,3.934-.042,8-.681,10.665-4.128a15.08,15.08,0,0,0,1.628-2.886c.909-1.947,2.935-5.857,2.047-8.117-.643-1.639-5.572-.174-7.19-.008-1.454.149-17.506,1.092-17.5.914-.144,2.8-.728,8.77,1.105,10.944Q158.944,382.474,159.122,382.649Z" fill="#d3e5ea" opacity="0.53"/>
      <path id="Path_1084" data-name="Path 1084" d="M167.891,385.96c-2.978,0-6.924-.935-9.027-3.025-.127-.126-.246-.255-.359-.389-1.75-2.077-1.439-7.216-1.254-10.286.021-.341.04-.656.055-.939v0a.382.382,0,0,1,.395-.37.337.337,0,0,1,.093.018c.047,0,.121,0,.219,0,2.387,0,15.882-.806,17.127-.935.347-.035.867-.136,1.469-.253a21.806,21.806,0,0,1,3.819-.51c1.271,0,2.018.331,2.286,1.012.882,2.245-.809,5.808-1.819,7.938l-.237.5a15.342,15.342,0,0,1-1.674,2.96c-2.871,3.715-7.362,4.235-10.954,4.274Zm-9.857-14.2c-.01.176-.022.36-.034.554-.178,2.948-.477,7.884,1.068,9.715.1.117.2.229.312.338,1.944,1.931,5.774,2.81,8.512,2.81h.131c3.64-.039,7.719-.543,10.378-3.982a14.674,14.674,0,0,0,1.583-2.811l.24-.507c.953-2.01,2.55-5.374,1.8-7.288-.171-.434-.96-.525-1.593-.525a21.341,21.341,0,0,0-3.682.5c-.619.12-1.153.224-1.532.263-1.247.128-14.727.933-17.18.938Z" fill="#434244"/>
    </g>
    <g id="Group_239" data-name="Group 239">
      <path id="Path_1085" data-name="Path 1085" d="M152.35,382.971c-2.116,2.162-6.232,3.087-8.986,3.12-4,.048-8.148-.5-10.934-3.882a15.015,15.015,0,0,1-1.72-2.848c-.968-1.926-3.115-5.788-2.264-8.068.617-1.653,5.66-.3,7.309-.173,1.481.116,17.819.691,17.806.513.209,2.794.938,8.751-.877,10.967Q152.526,382.791,152.35,382.971Z" fill="#d3e5ea" opacity="0.53"/>
      <path id="Path_1086" data-name="Path 1086" d="M143.369,386.484c-3.652.044-8.228-.374-11.23-4.022a15.271,15.271,0,0,1-1.768-2.921l-.253-.5c-1.075-2.106-2.874-5.63-2.028-7.894.256-.687,1.009-1.035,2.3-1.064a22.519,22.519,0,0,1,3.893.422c.615.1,1.146.191,1.5.219,1.268.1,15,.6,17.431.542.1,0,.175,0,.223-.009a.347.347,0,0,1,.094-.02.386.386,0,0,1,.41.361v0c.021.283.048.6.077.938.258,3.065.69,8.2-1.042,10.312-.112.136-.23.268-.356.4-2.091,2.137-6.081,3.163-9.108,3.231Zm-7.644-14.972c-.386-.03-.931-.122-1.563-.228a22.057,22.057,0,0,0-3.754-.412c-.643.014-1.443.124-1.607.562-.721,1.931.978,5.258,1.992,7.245l.255.5a14.609,14.609,0,0,0,1.673,2.775c2.78,3.377,6.938,3.787,10.639,3.743l.133,0c2.783-.063,6.656-1.03,8.589-3,.11-.112.212-.226.31-.345,1.529-1.866,1.114-6.794.866-9.737-.016-.193-.032-.377-.047-.553C150.716,372.108,137,371.611,135.726,371.512Z" fill="#434244"/>
    </g>
    <g id="Group_240" data-name="Group 240">
      <path id="Path_1087" data-name="Path 1087" d="M158.9,377.346c-.3-.165-.508-.28-.6-.627s.25-.66.369-.94c.18-.424-.2-.926-.665-.665a1.955,1.955,0,0,0-1.154,1.8,2.073,2.073,0,0,0,1.424,1.92.818.818,0,0,0,.628-1.489Z" fill="#434244"/>
      <path id="Path_1088" data-name="Path 1088" d="M154.436,375.259c-.327-.161-.736.282-.414.537a1.049,1.049,0,0,1,.452.977.85.85,0,0,1-.852.617c-1.058-.143-1.216,1.413-.191,1.413a1.979,1.979,0,0,0,1.972-1.5,1.865,1.865,0,0,0-.966-2.045Z" fill="#434244"/>
    </g>
    <path id="Path_1089" data-name="Path 1089" d="M182.3,366.795c-20.863,1.219-41.782,1.373-62.648,2.433-.9.046-.976,1.17-.041,1.193,20.835.492,41.82-.644,62.613-1.425C183.912,368.932,183.972,366.7,182.3,366.795Z" fill="#434244"/>
    <path id="Path_1090" data-name="Path 1090" d="M182.707,368.1c-20.911,1.035-41.837.8-62.744,1.644-.9.036-1.021,1.376-.086,1.421,20.817,1.006,41.846.072,62.671-.442C184.24,370.682,184.386,368.017,182.707,368.1Z" fill="#f7931e"/>
    <g id="Group_242" data-name="Group 242">
      <path id="Path_1091" data-name="Path 1091" d="M125.215,381.338q1.684-.071,3.366-.182a1.161,1.161,0,0,0,.792-.26,1.45,1.45,0,0,0,.284-.92q.349-4.831.3-9.684l-10.725.365c.038.566.614.854,1.072,1.116a4.9,4.9,0,0,1,2.136,2.639,10.765,10.765,0,0,1,.382,1.646l.727,4.091a1.89,1.89,0,0,0,.232.724,1.54,1.54,0,0,0,1.435.465Z" fill="#f7931e"/>
      <g id="Group_241" data-name="Group 241">
        <path id="Path_1092" data-name="Path 1092" d="M128.418,374.706a1.375,1.375,0,0,0-.316-.567c-2.175-2.437-4.366,3.387-.538,2.119a1.372,1.372,0,0,0,.854-1.552Z" fill="#6d6e70"/>
        <path id="Path_1093" data-name="Path 1093" d="M127.678,374.85a.675.675,0,0,0-.155-.278c-1.068-1.2-2.144,1.663-.264,1.041a.674.674,0,0,0,.419-.762Z" fill="#272525"/>
      </g>
    </g>
  </g>
</svg>
