<svg xmlns="http://www.w3.org/2000/svg" xmlns:xlink="http://www.w3.org/1999/xlink" width="83.194" height="62.114" viewBox="0 0 83.194 62.114">
  <defs>
    <linearGradient id="linear-gradient" x1="0.5" y1="0.901" x2="0.5" y2="-0.042" gradientUnits="objectBoundingBox">
      <stop offset="0" stop-color="#065ca8"/>
      <stop offset="1" stop-color="#47c2f1"/>
    </linearGradient>
    <linearGradient id="linear-gradient-2" x1="0.5" y1="0.901" x2="0.5" y2="-0.042" xlink:href="#linear-gradient"/>
    <linearGradient id="linear-gradient-3" x1="0.5" y1="2.624" x2="0.5" y2="-2.376" xlink:href="#linear-gradient"/>
  </defs>
  <g id="Group_59" data-name="Group 59" transform="translate(-76.442 -445.042)">
    <g id="Group_58" data-name="Group 58">
      <path id="Path_542" data-name="Path 542" d="M156.366,459.356a41.384,41.384,0,0,0-5.981-9.967,42.188,42.188,0,0,0-2.931-3.251q-.561-.561-1.139-1.1l-13.18,13.18a23.191,23.191,0,0,1,3.954,4.464,22.946,22.946,0,0,1-.99,27.074l-4.279-4.279a16.964,16.964,0,0,0-1.767-21.941c-.375-.375-.766-.732-1.17-1.065l-4.241,4.241a11.025,11.025,0,0,1-1.433,18.574l12.884,12.884a29.412,29.412,0,0,0,2.415-2.162q.967-.97,1.831-2.011a28.917,28.917,0,0,0,1.028-35.593l4.767-4.768a35.621,35.621,0,0,1-5.295,49.28l4.237,4.236q1.226-1.049,2.377-2.2.965-.965,1.858-1.983a41.636,41.636,0,0,0,7.054-43.615Z" fill="url(#linear-gradient)"/>
      <path id="Path_543" data-name="Path 543" d="M108.569,481.183a11.013,11.013,0,0,1,2.88-14.468L98.731,454q-.587.526-1.149,1.087a29.253,29.253,0,0,0-2.858,3.323A28.92,28.92,0,0,0,95.752,494l-4.74,4.74a35.569,35.569,0,0,1-1.055-45.1A35.944,35.944,0,0,1,94,449.266l-4.226-4.225q-.579.536-1.139,1.1a42.08,42.08,0,0,0-2.931,3.252,41.554,41.554,0,0,0,1.071,53.582q.9,1.018,1.859,1.983,1.151,1.15,2.377,2.2L104.25,493.92A22.977,22.977,0,0,1,99,462.686l4.347,4.347a16.977,16.977,0,0,0,.921,18.448,17.24,17.24,0,0,0,1.767,2.073,17.032,17.032,0,0,0,2.507,2.071l4.337-4.336a11.11,11.11,0,0,1-4.313-4.107Z" fill="url(#linear-gradient-2)"/>
    </g>
    <path id="Path_544" data-name="Path 544" d="M123.9,476.1a5.856,5.856,0,1,1-5.857-5.856A5.856,5.856,0,0,1,123.9,476.1Z" fill="url(#linear-gradient-3)"/>
  </g>
</svg>
