<svg xmlns="http://www.w3.org/2000/svg" width="77.823" height="75.299" viewBox="0 0 77.823 75.299">
  <g id="Group_119" data-name="Group 119" transform="translate(-1656.905 -1072.674)">
    <path id="Path_692" data-name="Path 692" d="M1699.21,1104.108a64.043,64.043,0,0,1-3.418,38.46,64.082,64.082,0,0,1-3.4-38.46,63.346,63.346,0,0,1-25.52,20.2c6.151,7.845,15.489,15.92,28.929,23.661,13.441-7.741,22.78-15.816,28.936-23.661a63.33,63.33,0,0,1-25.527-20.2Z" fill="#4a9959"/>
    <g id="Group_118" data-name="Group 118">
      <path id="Path_693" data-name="Path 693" d="M1699.568,1081.282v-8.608H1697.1v18.789a29.914,29.914,0,0,1,14.724-7.3A14.656,14.656,0,0,1,1704,1092.5c17.078-.906,28.585,5.417,28.585,5.417s-12.155,4.253-28.386.984c14.246,10.081,19.738,22.254,20.847,25.028C1751.2,1090.063,1718.1,1060.671,1699.568,1081.282Z" fill="#9bc44e"/>
      <path id="Path_694" data-name="Path 694" d="M1666.58,1123.93c1.108-2.771,6.587-14.946,20.833-25.028-16.229,3.269-28.384-.984-28.384-.984s11.511-6.323,28.586-5.417a14.612,14.612,0,0,1-7.8-8.342,29.568,29.568,0,0,1,14.873,7.437v-6.922C1676.917,1057.8,1639.162,1088.406,1666.58,1123.93Z" fill="#9bc44e"/>
    </g>
  </g>
</svg>
