<svg xmlns="http://www.w3.org/2000/svg" width="69.625" height="50.458" viewBox="0 0 69.625 50.458">
  <path id="Path_294" data-name="Path 294" d="M640.456,215.919c-.362,4.374.09,9.056,2.673,12.6s7.791,5.43,11.564,3.19c6.738-4,4.134-16.582,11.32-19.706,2.4,4.45.343,9.851-1.088,14.7s-1.623,11.22,2.749,13.761c3.8,2.207,8.875-.165,11.358-3.789s3.163-8.135,4.292-12.381,3.046-8.692,6.91-10.782c2.793,4.035,1.345,9.463.551,14.306s.018,11.087,4.664,12.666c2.659.9,5.69-.239,7.687-2.214a18.009,18.009,0,0,0,4.017-7.316,55.87,55.87,0,0,0,1.816-28.048c-.642-3.319-1.66-6.713-3.963-9.188s-6.192-3.745-9.177-2.158c-2.887,1.535-4,5-5.575,7.868s-4.9,5.594-7.828,4.148c-2.546-1.255-2.865-4.647-3.5-7.417-2.391-10.386-7.143-.626-10.662,1.014-4.488,2.091-7.045-1.368-10.768-3.057C646.061,188.932,641.222,206.666,640.456,215.919Z" transform="translate(-640.347 -190.863)" fill="#bc4e4f"/>
</svg>
