<svg xmlns="http://www.w3.org/2000/svg" width="28.908" height="28.908" viewBox="0 0 28.908 28.908">
  <g id="Group_13" data-name="Group 13" transform="translate(-88.885 -36.825)">
    <g id="Group_10" data-name="Group 10">
      <path id="Path_49" data-name="Path 49" d="M117.793,51.28a14.454,14.454,0,1,1-14.454-14.455A14.454,14.454,0,0,1,117.793,51.28Z" fill="#8cbf43"/>
      <path id="Path_50" data-name="Path 50" d="M95.991,52.253l4.472-4.937c-.359-.55-.793-1.251-.9-1.432l-6.247,6.765.062.011-.018-.019a7.168,7.168,0,0,0,2.631-.387Z" fill="#3c4b54"/>
      <path id="Path_51" data-name="Path 51" d="M106.559,48.509l1.177-2.44a3.943,3.943,0,0,1-.359-.482c-.527-.773-1.823-2.122-2.01-2.437l-3.933,4.257-3.925,4.315c1.183-.556,2.541-1.368,2.541-1.368a11.89,11.89,0,0,1,6.509-1.845Z" fill="#3c4b54"/>
      <path id="Path_52" data-name="Path 52" d="M110.417,50.173s-2.156-3.373-2.2-3.435l-.769,1.887A7.827,7.827,0,0,1,110.417,50.173Z" fill="#3c4b54"/>
      <path id="Path_53" data-name="Path 53" d="M108.346,47.33Z" fill="#f4f4f4"/>
      <path id="Path_54" data-name="Path 54" d="M112.108,52.755a15.95,15.95,0,0,0-6.03-.01c-.446.07-.916.154-1.408.255-.969.2-2.027.463-3.179.8a28.532,28.532,0,0,1,3.617-1.708c.489-.189,1-.367,1.519-.521a7.391,7.391,0,0,1,4.353-.26l.043.015a3.241,3.241,0,0,0-.291-.333,6.169,6.169,0,0,0-3.058-1.652,7.118,7.118,0,0,0-1.159-.161A11.889,11.889,0,0,0,100,51.028a20.217,20.217,0,0,1-2.029,1.1,15.97,15.97,0,0,1-2.027.8,7.2,7.2,0,0,1-2.631.387l.018.019c.491.5,10.474,10.426,18.062.389a.817.817,0,0,1,.508-.49h.266c.373.077.9.481,1.61,1.612l.867-.844A4.648,4.648,0,0,0,112.108,52.755Z" fill="#f4f4f4"/>
    </g>
  </g>
</svg>
