<svg xmlns="http://www.w3.org/2000/svg" width="133.672" height="147.093" viewBox="0 0 133.672 147.093">
  <g id="Group_2173" data-name="Group 2173" transform="translate(-1441.785 -528.932)">
    <path id="Path_9694" data-name="Path 9694" d="M1508.622,672.667c-18.651-9.562-34.33-25.349-45.41-45.742-11.789-21.7-18.146-48.392-18.418-77.279,6.214-3.937,30.353-17.714,63.828-17.714,33.491,0,57.617,13.776,63.827,17.713-.273,28.892-6.631,55.581-18.419,77.28C1542.951,647.318,1527.273,663.1,1508.622,672.667Z" fill="#fff"/>
    <path id="Path_9695" data-name="Path 9695" d="M1508.622,534.932a121.106,121.106,0,0,1,60.8,16.37c-.494,27.751-6.7,53.342-18.031,74.19-10.516,19.357-25.262,34.438-42.772,43.788-17.51-9.35-32.257-24.431-42.773-43.788-11.326-20.849-17.537-46.439-18.032-74.189a121.191,121.191,0,0,1,60.8-16.372m0-6c-37.717,0-63.973,17.146-66.837,19.1.047,30.009,6.542,57.78,18.791,80.327,11.642,21.427,28.251,37.9,48.045,47.668,19.794-9.763,36.4-26.24,48.045-47.668,12.249-22.547,18.744-50.318,18.791-80.327C1572.6,546.078,1546.359,528.932,1508.622,528.932Z" fill="#1f1f1f"/>
  </g>
</svg>
