<svg xmlns="http://www.w3.org/2000/svg" width="98.578" height="71.377" viewBox="0 0 98.578 71.377">
  <g id="Group_169" data-name="Group 169" transform="translate(-1500.186 -946.981)">
    <path id="Path_812" data-name="Path 812" d="M1535.795,986.787l3.084-8.587a5.794,5.794,0,0,1-1.04-.4l-3.092,8.607a5.4,5.4,0,0,1,1.048.377Z" fill="none"/>
    <path id="Path_813" data-name="Path 813" d="M1545.477,975.654l15.478,7.783a4.694,4.694,0,0,1,.41-.866l-15.442-7.765a6.014,6.014,0,0,1-.445.848Z" fill="none"/>
    <path id="Path_814" data-name="Path 814" d="M1523.356,968.1l11.242,3.537a5.875,5.875,0,0,1,.2-.91l-11.164-3.514a4.733,4.733,0,0,1-.282.887Z" fill="none"/>
    <path id="Path_815" data-name="Path 815" d="M1523.743,966.215a4.821,4.821,0,0,1-.1,1l11.164,3.514a5.937,5.937,0,0,1,2.524-3.27l-8.175-19.687-7.656,14.392a4.769,4.769,0,0,1,2.248,4.052Z" fill="#f68a1f"/>
    <path id="Path_816" data-name="Path 816" d="M1541.819,966.716l7.088-19.735h-18.885l8.295,19.98a5.947,5.947,0,0,1,3.5-.245Z" fill="#e9c51e"/>
    <path id="Path_817" data-name="Path 817" d="M1533.432,986.251a5.5,5.5,0,0,1,1.316.159l3.092-8.606a5.926,5.926,0,0,1-3.24-6.165l-11.242-3.537a4.784,4.784,0,0,1-3.539,2.814l1.819,17.375,6.619,1.652A5.473,5.473,0,0,1,1533.432,986.251Z" fill="#ed1b52"/>
    <path id="Path_818" data-name="Path 818" d="M1509.241,985.2l11.224,2.8-1.781-17.015a4.718,4.718,0,0,1-1.665-.406Z" fill="#f05223"/>
    <path id="Path_819" data-name="Path 819" d="M1570.448,961.742l-9.7-9.7,2.527,14.97,6.3-1.481a4.777,4.777,0,0,1,.875-3.787Z" fill="#49c7e8"/>
    <path id="Path_820" data-name="Path 820" d="M1538.879,978.2l-3.084,8.587a5.486,5.486,0,0,1,3.04,5.8l9.953,2.485-6.978-16.811a5.941,5.941,0,0,1-2.932-.062Z" fill="#512e8c"/>
    <path id="Path_821" data-name="Path 821" d="M1567.077,989.528l1.173,6.948,6.273-6.217-5.1-2.565a4.764,4.764,0,0,1-2.346,1.833Z" fill="#49c7e8"/>
    <path id="Path_822" data-name="Path 822" d="M1577.89,967.727l12.129,12.126,8.745-5.791-7.352-12.723-12.388,2.912c.009.121.015.242.015.366a4.766,4.766,0,0,1-1.149,3.109Z" fill="#15467a"/>
    <path id="Path_823" data-name="Path 823" d="M1545.922,974.807l15.442,7.765a4.792,4.792,0,0,1,3.02-2.192l-2.06-12.2-15.958,3.75q.026.277.026.559a5.91,5.91,0,0,1-.471,2.318Z" fill="#35aa7e"/>
    <path id="Path_824" data-name="Path 824" d="M1546.21,971.023l15.961-3.753-2.778-16.443-9.37-3.654-7.147,19.9a5.94,5.94,0,0,1,3.335,3.951Z" fill="#83c44e"/>
    <path id="Path_825" data-name="Path 825" d="M1570.233,985.035a4.764,4.764,0,0,1-.358,1.814l5.445,2.738,13.825-9.156-12.007-12a4.78,4.78,0,0,1-7.3-2.018l-6.407,1.506,2.085,12.341a4.776,4.776,0,0,1,4.722,4.775Z" fill="#407cbf"/>
    <path id="Path_826" data-name="Path 826" d="M1509,986.08v7.785l4.925,9.372,8.493,3.379-1.842-17.641Z" fill="#ee2729"/>
    <path id="Path_827" data-name="Path 827" d="M1560.68,985.035a4.753,4.753,0,0,1,.274-1.6l-15.478-7.783a5.937,5.937,0,0,1-2.615,2.257l7.265,17.5,4.654,1.18,12.429.514-1.236-7.317a4.783,4.783,0,0,1-5.293-4.749Z" fill="#6f489d"/>
    <path id="Path_828" data-name="Path 828" d="M1535.514,996.784l3.3,11.22,4.248-5.053,5.722-6.929-10.173-2.541a5.5,5.5,0,0,1-3.1,3.3Z" fill="#6f489d"/>
    <path id="Path_829" data-name="Path 829" d="M1576.764,989.81l11.15.954,6.9-4.666-4.956-4.956Z" fill="#15467a"/>
    <path id="Path_830" data-name="Path 830" d="M1532.114,997.034l-5.256,14.638-.007,0-1.553,5.548,4.813,1.14,7.843-9.326-3.516-11.932a5.42,5.42,0,0,1-1.007.094A5.588,5.588,0,0,1,1532.114,997.034Z" fill="#462e83"/>
    <path id="Path_831" data-name="Path 831" d="M1595.332,985.165l3.142-9.733-7.745,5.131Z" fill="#49c7e8"/>
    <path id="Path_832" data-name="Path 832" d="M1518.967,961.44a4.8,4.8,0,0,1,1.543.254l7.355-13.826-20.6,14.192,7.3,2.3a4.777,4.777,0,0,1,4.4-2.919Z" fill="#e9c51e"/>
    <path id="Path_833" data-name="Path 833" d="M1514.19,966.215a4.729,4.729,0,0,1,.1-.969l-7.755-2.441-6.348,9.872,2.684,12.375h5.2l8-15.034a4.764,4.764,0,0,1-1.887-3.8Z" fill="#f68a1f"/>
    <path id="Path_834" data-name="Path 834" d="M1527.96,991.722a5.511,5.511,0,0,1,.071-.884l-6.291-1.571,1.882,17.983,2.493,3.2,4.952-13.788a5.472,5.472,0,0,1-3.107-4.936Z" fill="#6f489d"/>
    <path id="Path_835" data-name="Path 835" d="M1578.866,963.344l11.5-2.717-18.358-9.675h-10.879l10.027,10.035a4.775,4.775,0,0,1,7.706,2.357Z" fill="#47a0d8"/>
  </g>
</svg>
