<svg xmlns="http://www.w3.org/2000/svg" width="99.234" height="100.385" viewBox="0 0 99.234 100.385">
  <g id="Group_2252" data-name="Group 2252" transform="translate(-920.935 -1258.771)">
    <path id="Path_10383" data-name="Path 10383" d="M1019.877,1298.582a14.089,14.089,0,0,0-4.967-8.274c-10.763-8.73-28.917,2.573-38.751,4.754l-.244.056a13.211,13.211,0,0,1-2.254.291c-.155.006-.3.005-.452,0-.06,0-.12,0-.178-.005-.179-.009-.354-.022-.521-.046.161.023.33.036.5.046-.171-.009-.339-.023-.5-.046,1.286,6.742,4.566,21.981,8.58,28.233a.91.91,0,0,0,1.242.284c9.817-6.02,19.107-10.12,30.615-12.27a91.173,91.173,0,0,0-8.333,9.222,13.619,13.619,0,0,1-5.17,4.083,48.918,48.918,0,0,0-9.863,5.822.515.515,0,0,0,.095.87,18.075,18.075,0,0,1,6.259,5.82,37.609,37.609,0,0,0-1.111,6.154L982,1344.82a13.623,13.623,0,0,0-6.622,2.47,15.251,15.251,0,0,0-4.529,4.815.344.344,0,0,1-.6,0,15.252,15.252,0,0,0-4.529-4.815,13.7,13.7,0,0,0-6.623-2.471l-12.824-1.242a37.161,37.161,0,0,0-1.111-6.15,18.06,18.06,0,0,1,6.263-5.824.515.515,0,0,0,.095-.87,48.913,48.913,0,0,0-9.863-5.822,13.709,13.709,0,0,1-5.169-4.083,90.913,90.913,0,0,0-8.338-9.222c11.512,2.146,20.8,6.249,30.619,12.27a.91.91,0,0,0,1.242-.284c4.023-6.264,7.3-21.534,8.58-28.234-.174.025-.356.039-.54.048.185-.009.367-.023.54-.048-.187.025-.384.041-.586.049l-.084,0c-.17.005-.346,0-.525,0a13.391,13.391,0,0,1-2.271-.3l-.183-.043c-9.838-2.181-27.988-13.484-38.751-4.754-8.038,6.527-5.7,18.523-.712,20.841,11.479,10.832,20.051,22.34,19.417,37.944l1.526.171,13.083,1.469a11.693,11.693,0,0,1,5.794,2.368,16.58,16.58,0,0,1,4.941,5.867.344.344,0,0,0,.614,0,16.473,16.473,0,0,1,4.95-5.875,11.756,11.756,0,0,1,5.786-2.361l13.094-1.469-1.158.13c1.885-.211,1.651-.186,2.672-.3-.635-15.662,8.012-27.182,19.417-37.944a6.586,6.586,0,0,0,2.7-2.573,11.859,11.859,0,0,0,1.416-3.452,15.143,15.143,0,0,0,.138-6.542Zm-46.635-3.172c.135,0,.271,0,.413,0Q973.445,1295.415,973.241,1295.41Zm-5.384,0q-.217,0-.438,0,.224.009.438,0Zm13.829,55.308h0l1.541-.172Z" fill="#1f1f1f"/>
    <path id="Path_10384" data-name="Path 10384" d="M970.553,1312.965a.515.515,0,0,0-.485.344c-1.841,5.211-4.688,11.972-7.935,16.156a.514.514,0,0,0,.072.707,37.523,37.523,0,0,1,7.9,10.055.5.5,0,0,0,.888,0,37.486,37.486,0,0,1,7.9-10.055.515.515,0,0,0,.072-.707c-3.343-4.306-6.207-11.266-7.936-16.157a.515.515,0,0,0-.486-.343Z" fill="#1f1f1f"/>
    <path id="Path_10385" data-name="Path 10385" d="M955.756,1281.222a24.421,24.421,0,0,1,5.442,5.741,29.97,29.97,0,0,1,3.178,6.451,39.782,39.782,0,0,0,4.51.407c.506-2.732.955-5.416,1.332-7.958a.339.339,0,0,1,.67,0c.377,2.542.826,5.225,1.332,7.958a39.782,39.782,0,0,0,4.51-.407,29.964,29.964,0,0,1,3.178-6.451,24.419,24.419,0,0,1,5.442-5.741.773.773,0,0,0,.066-1.157c-7.248-7.162-10.933-12.576-14.144-20.8a.772.772,0,0,0-1.438,0c-3.211,8.226-6.9,13.64-14.144,20.8a.772.772,0,0,0,.066,1.158Z" fill="#1f1f1f"/>
  </g>
</svg>
