<svg xmlns="http://www.w3.org/2000/svg" width="70.65" height="36.519" viewBox="0 0 70.65 36.519">
  <g id="Group_394" data-name="Group 394" transform="translate(-210.784 -609.849)">
    <path id="Path_1547" data-name="Path 1547" d="M281.211,640.354c-.043-1.325-.076-2.631-.206-3.954-.217-2.2-.46-4.4-.688-6.593q-.357-8.3-.714-16.591a5.311,5.311,0,0,0-.406-2.182c-1.022-2.03-4.695-.845-6.475-.8l-9.623.262-27.49.75-13.745.375a70.157,70.157,0,0,0-9.266.645,2.5,2.5,0,0,0-1.039.328,2.563,2.563,0,0,0-.747,2.212c0,5.878.482,11.744.516,17.621.015,2.548-.215,5.106.027,7.617.183,1.9-.514,4.255,1.469,5.455a8.062,8.062,0,0,0,4.2.776l29.665.083c10.587.029,21.224.055,31.689-1.545,1.166-.178,2.658-.51,3.034-1.828a9.182,9.182,0,0,0-.2-2.635Z" fill="#ccc"/>
    <path id="Path_1548" data-name="Path 1548" d="M239.5,629.077a22.582,22.582,0,0,0,.474,3.418c.291,1.249.288.851,3.242.721s3.752.377,3.747-.588a36.786,36.786,0,0,0-.42-4.2C246.082,628.2,239.658,627.644,239.5,629.077Zm6.507.046a8.879,8.879,0,0,1,.337,2.227c.059.865.061,1.083-.7,1.194-1.139.006-4.216.185-4.757.3s-.11-.378-.328-.757-.273-1.823-.5-2.648c-.088-.317.161-.326.863-.545a11.574,11.574,0,0,1,2.3-.23c.622-.058,2.625.149,2.789.461Z" fill="#4b5054"/>
    <path id="Path_1549" data-name="Path 1549" d="M240.053,629.436c.229.824.283,2.27.5,2.648s-.212.868.328.757,3.617-.291,4.757-.3c.76-.112.759-.329.7-1.194a8.878,8.878,0,0,0-.337-2.227c-.164-.313-2.167-.519-2.789-.461a11.575,11.575,0,0,0-2.3.23C240.213,629.11,239.965,629.12,240.053,629.436Z" fill="#999"/>
    <path id="Path_1550" data-name="Path 1550" d="M241.758,619.574c2.954-.13,3.752.377,3.747-.59a36.635,36.635,0,0,0-.42-4.2c-.456-.225-6.88-.781-7.043.651a22.738,22.738,0,0,0,.473,3.418C238.806,620.1,238.8,619.7,241.758,619.574Zm-2.14-4.2a10.784,10.784,0,0,1,2.142-.213c.58-.054,2.447.138,2.6.43a8.227,8.227,0,0,1,.314,2.076c.055.806.056,1.008-.652,1.112-1.061.006-3.93.173-4.433.276s-.1-.352-.307-.7-.253-1.7-.468-2.468c-.082-.3.15-.3.8-.509Z" fill="#4b5054"/>
    <path id="Path_1551" data-name="Path 1551" d="M239.281,618.352c.2.352-.2.808.307.7s3.372-.27,4.433-.276c.708-.1.707-.306.652-1.112a8.227,8.227,0,0,0-.314-2.076c-.153-.292-2.02-.484-2.6-.43a10.784,10.784,0,0,0-2.142.213c-.654.205-.886.214-.8.509C239.028,616.651,239.077,618,239.281,618.352Z" fill="#999"/>
    <path id="Path_1552" data-name="Path 1552" d="M254.645,621.886a22.572,22.572,0,0,0,.473,3.418c.29,1.248.289.851,3.243.721s3.752.377,3.747-.588a36.57,36.57,0,0,0-.421-4.2C261.232,621.009,254.807,620.453,254.645,621.886Zm1.422-.186a11.607,11.607,0,0,1,2.3-.228c.621-.058,2.624.148,2.787.461a8.851,8.851,0,0,1,.336,2.225c.059.866.06,1.082-.7,1.194-1.139.006-4.214.185-4.754.3s-.11-.377-.328-.755-.272-1.823-.5-2.647c-.088-.315.16-.325.863-.545Z" fill="#4b5054"/>
    <path id="Path_1553" data-name="Path 1553" d="M255.7,624.893c.219.378-.212.867.328.755s3.615-.29,4.754-.3c.759-.112.759-.328.7-1.194a8.851,8.851,0,0,0-.336-2.225c-.164-.313-2.166-.519-2.787-.461a11.607,11.607,0,0,0-2.3.228c-.7.221-.951.23-.863.545C255.433,623.07,255.486,624.515,255.7,624.893Z" fill="#999"/>
    <path id="Path_1554" data-name="Path 1554" d="M224.356,636.821c-1.119-.216-4.942-.268-5.885-.418a5.055,5.055,0,0,0-1.835.083,28.624,28.624,0,0,0-.146,4.424c-.034.681-.574,1.971.066,1.924s3.7.588,4.346.505,2.687-.057,2.952-.088,1.066.08,1.112-.445.016-1.5.022-2.238-.05-1.088-.074-1.872S225.475,637.036,224.356,636.821Zm-.057,5.062a.484.484,0,0,1-.493.644,14.012,14.012,0,0,1-2.2.173c-.977-.121-1.887.019-2.76-.084a2.444,2.444,0,0,1-1.516-.526c-.279-.257-.257-.4-.279-.932s.027-1.952-.008-2.633a4.366,4.366,0,0,1,.227-1.42c.577-.05,1.593.04,2.02.037s2.551.05,2.788.123a13.2,13.2,0,0,0,1.6.252c.317.017.55.123.611.4s.036,1.339.063,1.84-.124,1.9-.053,2.124Z" fill="#4b5054"/>
    <path id="Path_1555" data-name="Path 1555" d="M224.353,639.76c-.027-.5,0-1.564-.063-1.84s-.294-.384-.611-.4a13.2,13.2,0,0,1-1.6-.251c-.237-.073-2.361-.127-2.788-.123s-1.444-.088-2.02-.037a4.365,4.365,0,0,0-.227,1.42c.034.681-.013,2.1.008,2.633s0,.675.279.932a2.444,2.444,0,0,0,1.516.526c.873.1,1.782-.037,2.76.084a14.011,14.011,0,0,0,2.2-.173.484.484,0,0,0,.491-.643C224.228,641.659,224.38,640.262,224.353,639.76Z" fill="#999"/>
    <path id="Path_1556" data-name="Path 1556" d="M275.438,636.544c-1.119-.215-4.942-.268-5.885-.418a5.058,5.058,0,0,0-1.836.082,28.706,28.706,0,0,0-.147,4.424c-.034.681-.573,1.971.066,1.924s3.7.588,4.346.505,2.687-.056,2.953-.088,1.065.08,1.112-.445.015-1.5.021-2.238-.05-1.088-.073-1.872S276.556,636.759,275.438,636.544Zm-.015,5.084a.49.49,0,0,1-.5.651,14.011,14.011,0,0,1-2.22.174c-.988-.121-1.909.021-2.792-.084a2.489,2.489,0,0,1-1.533-.532c-.283-.261-.26-.4-.281-.943s.026-1.974-.008-2.663a4.384,4.384,0,0,1,.229-1.437c.582-.051,1.611.041,2.043.038s2.582.051,2.82.125a13.246,13.246,0,0,0,1.615.254c.321.019.555.125.618.406s.035,1.355.063,1.863-.126,1.921-.054,2.148Z" fill="#4b5054"/>
    <path id="Path_1557" data-name="Path 1557" d="M275.477,639.48c-.028-.508,0-1.582-.063-1.863s-.3-.388-.618-.406a13.259,13.259,0,0,1-1.615-.254c-.239-.073-2.389-.128-2.82-.124s-1.46-.089-2.043-.038a4.385,4.385,0,0,0-.229,1.437c.034.689-.013,2.12.008,2.663s0,.682.281.943a2.489,2.489,0,0,0,1.533.532c.883.1,1.8-.037,2.792.084a14.011,14.011,0,0,0,2.22-.174.49.49,0,0,0,.5-.651C275.351,641.4,275.5,639.988,275.477,639.48Z" fill="#999"/>
    <path id="Path_1558" data-name="Path 1558" d="M225.676,631.755c-.1-.521-.219-1.632-.337-1.916s-.424-.372-.826-.361a19.937,19.937,0,0,1-2.042-.112c-.308-.054-2.989.088-3.526.131s-1.109-.063-1.827.043c0,0-.942.9-.8,1.61s.277,2.187.379,2.745.094.7.481.947a3.658,3.658,0,0,0,1.981.407c1.112.026,2.238-.2,3.484-.171a20.617,20.617,0,0,0,2.738-.386.5.5,0,0,0,.531-.717C225.785,633.748,225.78,632.276,225.676,631.755Zm-.631,2.215a17.978,17.978,0,0,1-1.793.4c-.45,0-2.1.2-3.208.214a8.977,8.977,0,0,1-2.107-.119c-.5-.108-.209-.039-.505-.875s-.021-1.189-.235-1.756.5-1.8.5-1.8c1.121-.2,2.975-.139,3.562-.212s2.235.233,2.583.147A.975.975,0,0,1,225,630.8c.077.718.214,2.046.228,2.258s.322.838-.184.914Z" fill="#4b5054"/>
    <path id="Path_1559" data-name="Path 1559" d="M225,630.8a.975.975,0,0,0-1.155-.831c-.348.086-2-.219-2.583-.147s-2.441.012-3.562.212c0,0-.719,1.237-.5,1.8s-.061.921.235,1.756.009.767.505.875a8.977,8.977,0,0,0,2.107.119c1.11-.016,2.759-.214,3.208-.214a18,18,0,0,0,1.793-.4c.506-.077.2-.7.184-.915S225.078,631.516,225,630.8Z" fill="#999"/>
    <path id="Path_1560" data-name="Path 1560" d="M226.263,619.1c.106.5.1.626.487.842a4.054,4.054,0,0,0,1.983.374c1.113.031,2.236-.167,3.481-.129a22.988,22.988,0,0,0,2.736-.324c.579.01.648-.43.526-.633s-.137-1.508-.245-1.971-.23-1.448-.35-1.7-.426-.333-.827-.326-1.734-.062-2.042-.113-2.988.059-3.525.094-1.109-.064-1.827.026c0,0-.937.8-.794,1.423S226.158,618.6,226.263,619.1Zm1.111-3.349c1.079-.165,2.868-.1,3.434-.16s2.156.214,2.492.142a.953.953,0,0,1,1.119.718c.079.615.219,1.753.234,1.933s.316.719-.172.782-1.294.332-1.727.33-2.022.157-3.094.164a9.711,9.711,0,0,1-2.032-.115c-.479-.1-.2-.034-.493-.751s-.026-1.018-.237-1.5S227.374,615.747,227.374,615.747Z" fill="#4b5054"/>
    <path id="Path_1561" data-name="Path 1561" d="M227.136,618.79c.291.717.014.655.493.751a9.711,9.711,0,0,0,2.032.115c1.072-.007,2.66-.165,3.094-.164s1.239-.268,1.727-.33.187-.6.172-.782-.155-1.318-.234-1.933a.953.953,0,0,0-1.119-.718c-.336.072-1.926-.2-2.493-.142s-2.355-.005-3.434.16c0,0-.685,1.053-.475,1.539S226.846,618.074,227.136,618.79Z" fill="#999"/>
    <path id="Path_1562" data-name="Path 1562" d="M260.192,618.412c.127.521.12.657.579.888a5.331,5.331,0,0,0,2.34.407c1.311.04,2.634-.159,4.1-.11a30.044,30.044,0,0,0,3.221-.321c.682.016.76-.446.615-.659s-.172-1.584-.3-2.07a17.6,17.6,0,0,0-.425-1.787c-.142-.265-.5-.351-.977-.347s-2.043-.078-2.408-.134-3.52.04-4.153.072-1.307-.074-2.153.014c0,0-1.1.828-.925,1.487S260.064,617.892,260.192,618.412Zm1.214-3.54c1.293-.168,3.437-.086,4.114-.144s2.586.243,2.987.169,1.248.119,1.347.775.276,1.872.3,2.065.384.769-.2.833-1.549.346-2.068.34-2.422.152-3.705.151a13.208,13.208,0,0,1-2.438-.138c-.574-.1-.242-.037-.6-.8s-.04-1.087-.3-1.607.557-1.639.557-1.639Z" fill="#4b5054"/>
    <path id="Path_1563" data-name="Path 1563" d="M261.145,618.118c.353.767.021.7.6.8a13.208,13.208,0,0,0,2.438.138c1.283,0,3.186-.156,3.705-.151s1.482-.277,2.068-.34.218-.638.2-.833-.2-1.408-.3-2.065-.945-.849-1.347-.775-2.309-.226-2.987-.169-2.821-.023-4.114.144c0,0-.813,1.119-.557,1.639S260.791,617.351,261.145,618.118Z" fill="#999"/>
    <path id="Path_1564" data-name="Path 1564" d="M222.99,621.948s-.942.9-.8,1.611.277,2.187.38,2.745.093.7.48.947a3.664,3.664,0,0,0,1.982.406c1.112.027,2.238-.2,3.484-.17a20.751,20.751,0,0,0,2.738-.386.5.5,0,0,0,.531-.717c-.121-.228-.126-1.7-.23-2.222s-.219-1.631-.337-1.914-.425-.373-.827-.361a19.653,19.653,0,0,1-2.041-.113c-.309-.054-2.99.088-3.527.132S223.708,621.841,222.99,621.948Zm4.146.283c.587-.072,2.231.232,2.579.146a.974.974,0,0,1,1.154.83c.077.717.213,2.044.228,2.256s.322.835-.184.913-1.341.4-1.789.4-2.1.2-3.205.214a8.94,8.94,0,0,1-2.1-.119c-.495-.106-.208-.037-.5-.873s-.02-1.188-.235-1.753.5-1.8.5-1.8c1.119-.2,2.971-.14,3.557-.212Z" fill="#4b5054"/>
    <path id="Path_1565" data-name="Path 1565" d="M223.075,624.244c.215.566-.061.919.235,1.753s.01.766.5.873a8.943,8.943,0,0,0,2.1.119c1.109-.017,2.756-.213,3.205-.213a18.23,18.23,0,0,0,1.789-.4c.506-.078.2-.7.184-.913s-.15-1.539-.228-2.256a.974.974,0,0,0-1.154-.83c-.348.085-1.992-.219-2.579-.146s-2.438.012-3.557.212C223.579,622.443,222.861,623.677,223.075,624.244Z" fill="#999"/>
    <path id="Path_1566" data-name="Path 1566" d="M244.092,621.491s-.942.9-.8,1.611.277,2.186.379,2.744.094.7.481.947a3.661,3.661,0,0,0,1.98.406c1.113.027,2.239-.2,3.485-.171a20.546,20.546,0,0,0,2.739-.386.5.5,0,0,0,.53-.716c-.121-.228-.126-1.7-.231-2.222s-.219-1.631-.336-1.914-.424-.372-.826-.361a19.872,19.872,0,0,1-2.042-.112c-.308-.054-2.99.088-3.527.131S244.811,621.384,244.092,621.491Zm4.146.279c.588-.073,2.236.233,2.584.146a.976.976,0,0,1,1.156.831c.077.719.213,2.047.228,2.26s.323.837-.183.915a17.974,17.974,0,0,1-1.794.4c-.449,0-2.1.2-3.21.215a8.934,8.934,0,0,1-2.107-.119c-.5-.108-.209-.038-.505-.874s-.021-1.19-.236-1.757.5-1.8.5-1.8c1.121-.2,2.977-.139,3.564-.212Z" fill="#4b5054"/>
    <path id="Path_1567" data-name="Path 1567" d="M244.171,623.786c.215.567-.061.921.236,1.757s.008.766.505.874a8.937,8.937,0,0,0,2.107.119c1.111-.016,2.76-.213,3.21-.215s1.287-.323,1.794-.4.2-.7.183-.915-.15-1.542-.228-2.26a.976.976,0,0,0-1.156-.831c-.348.086-2-.219-2.584-.146s-2.442.012-3.563.212C244.675,621.982,243.957,623.219,244.171,623.786Z" fill="#999"/>
    <path id="Path_1568" data-name="Path 1568" d="M221.1,620.449a20.591,20.591,0,0,0,2.74-.385.5.5,0,0,0,.53-.717c-.121-.227-.126-1.7-.231-2.222s-.219-1.631-.337-1.915-.424-.372-.826-.361a19.834,19.834,0,0,1-2.042-.113c-.308-.054-2.989.087-3.527.132s-1.109-.064-1.828.043c0,0-.942.9-.8,1.611s.276,2.187.379,2.744.094.7.481.947a3.65,3.65,0,0,0,1.981.407C218.725,620.647,219.851,620.415,221.1,620.449Zm-5.023-1.549c-.282-.8-.019-1.133-.224-1.673s.48-1.718.48-1.718c1.068-.191,2.833-.133,3.393-.2s2.129.222,2.46.139a.93.93,0,0,1,1.1.793c.074.683.2,1.949.217,2.151s.307.8-.175.871a17.367,17.367,0,0,1-1.707.381c-.428,0-2,.188-3.056.2a8.537,8.537,0,0,1-2.007-.114c-.472-.1-.2-.036-.481-.832Z" fill="#4b5054"/>
    <path id="Path_1569" data-name="Path 1569" d="M218.561,619.845c1.058-.016,2.628-.2,3.056-.2a17.387,17.387,0,0,0,1.708-.381c.482-.074.19-.669.175-.871s-.143-1.468-.217-2.151a.93.93,0,0,0-1.1-.793c-.332.083-1.9-.208-2.46-.139s-2.325.011-3.393.2c0,0-.684,1.177-.48,1.718s-.058.877.224,1.673.009.73.481.832a8.542,8.542,0,0,0,2.006.114Z" fill="#999"/>
    <path id="Path_1570" data-name="Path 1570" d="M236.456,630.875c-.143-.825-.2-1.184-.257-1.624s.026-.221-3.28-.23-3.251.044-3.856.214-.977-.293-1.015.75c-.052,1.4-.121,2.976-.118,3.666s.085.385,2.317.539,2.329.208,3.258-.018a13.4,13.4,0,0,1,2.857-.415c.083.1.412-.1.187-1.035S236.6,631.7,236.456,630.875Zm-.519,2.408a9.859,9.859,0,0,1-1.753.4,13.817,13.817,0,0,1-1.646.246c-.346-.041-.692-.095-1.33-.147s-1.98.094-2.187-.128-.417.393-.5-.472a28.262,28.262,0,0,1,.22-3.489c.346-.057,1.674-.176,1.674-.176s1.834-.149,2.338-.152,1.515-.037,1.914-.01.77-.323.879.143a15.987,15.987,0,0,1,.225,2.266C235.742,631.971,236.122,633.2,235.936,633.283Z" fill="#4b5054"/>
    <path id="Path_1571" data-name="Path 1571" d="M235.544,629.5c-.109-.466-.479-.117-.879-.143s-1.409.008-1.914.01-2.338.152-2.338.152-1.328.119-1.674.176a28.261,28.261,0,0,0-.22,3.489c.085.864.294.25.5.472s1.548.076,2.187.128.984.107,1.33.147a13.831,13.831,0,0,0,1.646-.246,9.859,9.859,0,0,0,1.753-.4c.185-.085-.194-1.311-.168-1.519A15.989,15.989,0,0,0,235.544,629.5Z" fill="#999"/>
    <path id="Path_1572" data-name="Path 1572" d="M233.244,622.87c-.052,1.405-.122,2.976-.118,3.665s.084.386,2.317.539,2.329.208,3.258-.017a13.446,13.446,0,0,1,2.857-.415c.083.1.413-.1.188-1.035s.049-1.019-.093-1.846-.2-1.183-.257-1.624.026-.221-3.28-.23-3.251.044-3.856.215S233.281,621.828,233.244,622.87Zm4.69-.559c.491,0,1.474-.035,1.862-.01s.749-.315.855.139a15.514,15.514,0,0,1,.219,2.206c-.025.2.344,1.394.163,1.477a9.638,9.638,0,0,1-1.705.389,13.3,13.3,0,0,1-1.6.239c-.337-.039-.673-.091-1.295-.142s-1.926.092-2.128-.125-.405.383-.488-.459a27.567,27.567,0,0,1,.215-3.4c.335-.056,1.629-.171,1.629-.171s1.784-.145,2.276-.148Z" fill="#4b5054"/>
    <path id="Path_1573" data-name="Path 1573" d="M233.815,626.026c.083.842.286.242.488.459s1.508.073,2.128.125.958.1,1.295.142a13.3,13.3,0,0,0,1.6-.239,9.621,9.621,0,0,0,1.7-.389c.18-.083-.188-1.276-.163-1.477a15.514,15.514,0,0,0-.219-2.206c-.106-.454-.466-.114-.855-.139s-1.371.007-1.862.01-2.276.148-2.276.148-1.293.115-1.629.171a27.563,27.563,0,0,0-.215,3.4Z" fill="#999"/>
    <path id="Path_1574" data-name="Path 1574" d="M251.164,619.621c2.274.157,2.372.212,3.32-.018a13.658,13.658,0,0,1,2.911-.422c.085.1.421-.1.191-1.055s.05-1.04-.094-1.881-.2-1.206-.262-1.655.026-.224-3.342-.235-3.314.046-3.93.219-1-.3-1.035.763c-.052,1.432-.124,3.033-.121,3.735S248.889,619.465,251.164,619.621Zm-1.419-4.515c.339-.056,1.649-.174,1.649-.174s1.806-.147,2.3-.15,1.493-.035,1.885-.01.758-.319.866.141a15.767,15.767,0,0,1,.221,2.233c-.025.205.348,1.413.166,1.5a9.534,9.534,0,0,1-1.727.394,13.584,13.584,0,0,1-1.622.244c-.341-.041-.682-.094-1.311-.146s-1.95.094-2.154-.125-.411.386-.494-.465a28.128,28.128,0,0,1,.217-3.439Z" fill="#4b5054"/>
    <path id="Path_1575" data-name="Path 1575" d="M250.023,619.01c.2.219,1.526.074,2.154.125s.97.105,1.311.146a13.6,13.6,0,0,0,1.622-.244,9.528,9.528,0,0,0,1.727-.394c.183-.083-.19-1.291-.166-1.5a15.763,15.763,0,0,0-.221-2.233c-.108-.459-.472-.115-.866-.141s-1.388.008-1.885.01-2.3.15-2.3.15-1.31.117-1.649.174a28.131,28.131,0,0,0-.217,3.439C249.612,619.4,249.818,618.79,250.023,619.01Z" fill="#999"/>
    <path id="Path_1576" data-name="Path 1576" d="M258.336,627.936c-.132-.564-.58-.141-1.062-.172s-1.7.009-2.316.013-2.83.184-2.83.184-1.608.144-2.025.214a34.251,34.251,0,0,0-.267,4.221c.1,1.046.356.3.607.572s1.873.092,2.647.154,1.191.128,1.609.178a16.5,16.5,0,0,0,1.993-.3,11.867,11.867,0,0,0,2.12-.484c.224-.1-.234-1.586-.2-1.837a19.209,19.209,0,0,0-.271-2.743Zm-.594,4.341c-.944.169-1,.459-2.18.375s-1.837-.208-2.492-.186a6.075,6.075,0,0,1-1.928-.045c-.51-.179-.817.259-.784-.359s.216-2.947.216-2.947l.092-.583c.672-.076,3.436-.29,4.145-.294s1.873.044,2.345-.013.563-.24.638.132.488,2.37.5,2.806.4.944-.55,1.113Z" fill="#4b5054"/>
    <path id="Path_1577" data-name="Path 1577" d="M257.795,628.358c-.075-.372-.165-.19-.638-.132s-1.636.009-2.345.013-3.472.218-4.145.294l-.092.583s-.183,2.329-.216,2.947.273.18.784.359a6.077,6.077,0,0,0,1.928.045c.655-.022,1.31.1,2.492.186s1.235-.206,2.18-.375.561-.676.55-1.113S257.87,628.731,257.795,628.358Z" fill="#999"/>
    <path id="Path_1578" data-name="Path 1578" d="M263.74,635.406c-1.324-.072-6.1.508-8.079.44s-5.362.581-7.272.393-5.731-.008-9.111.049-6.98,0-8.375.046-3.775-.473-3.743.666a31.156,31.156,0,0,0,.023,4.279,6.118,6.118,0,0,1,.047,2.088s5.254-.006,9.516-.052,6.1.226,10.433-.057,8.373-.622,10.87-.714,2.131.067,4.775-.026,1.544.15,1.527-2.931S265.063,635.477,263.74,635.406Zm-.311,6.365c-.286.344-.865.005-1.369.042s-1.008-.029-1.945-.024l-3.242.018c-.973.006-2.774.083-3.638.157s-2.016.114-2.736.22-1.764.147-3.169.312a14.391,14.391,0,0,1-3.314.068,21.055,21.055,0,0,0-3.207.007c-.864.066-5.224-.17-6.087-.007a27.69,27.69,0,0,1-3.64-.172,10.979,10.979,0,0,1-2.7-.294,1.991,1.991,0,0,1-.005-.926c.071-.172-.017-3.154-.019-3.5l-.057-.605a3.285,3.285,0,0,0,.811,0c.432-.059,1.765.012,2.629-.014a26.287,26.287,0,0,0,4.359-.024c1.3-.269,1.333.117,2.7-.014s2.774.006,3.855-.021,1.873-.023,3.257-.017,1.354.083,3.8-.021,1.729-.228,3.924-.377,1.549.094,3.026-.051,1.26-.11,2.809-.186a25.572,25.572,0,0,1,3.387-.019c.252.067.216.1.255.56s.146.433.185.946-.033.584-.028,1.511.184.751.153,1.539.291.547,0,.892Z" fill="#4b5054"/>
    <path id="Path_1579" data-name="Path 1579" d="M263.271,639.341c-.005-.928.067-1,.028-1.511s-.146-.49-.185-.946,0-.493-.255-.56a25.572,25.572,0,0,0-3.387.019c-1.55.076-1.333.042-2.809.186s-.83-.1-3.026.051-1.475.271-3.924.377-2.419.024-3.8.021-2.176-.01-3.257.017-2.487-.112-3.855.021-1.406-.255-2.7.014a26.287,26.287,0,0,1-4.359.024c-.864.026-2.2-.044-2.629.014a3.285,3.285,0,0,1-.811,0l.057.605c0,.341.09,3.324.019,3.5a1.992,1.992,0,0,0,.005.926,10.976,10.976,0,0,0,2.7.294,27.69,27.69,0,0,0,3.64.172c.863-.163,5.223.073,6.087.007a21.062,21.062,0,0,1,3.207-.007,14.394,14.394,0,0,0,3.314-.068c1.4-.165,2.449-.205,3.168-.312s1.873-.146,2.736-.22,2.666-.151,3.638-.157l3.242-.018c.937-.005,1.442.061,1.945.024s1.083.3,1.369-.042-.037-.1-.005-.891S263.276,640.269,263.271,639.341Z" fill="#999"/>
    <path id="Path_1580" data-name="Path 1580" d="M275.5,620.757c-.423-.713-.093-.66-2.35-.482a10.535,10.535,0,0,0-4.183.922c-.219.259.278.554.181,2.941s.567,2.893-.094,2.942-3.474-.3-4.023.022-1.276.473-1.21,1.533.01,3.221.015,3.435l.005.214c0,.579,1.167.717,1.994.678s3.251.057,3.967.034,2.592.4,3.639.308,2.623.526,2.656-.721-.216-6.591-.332-7.692S275.929,621.471,275.5,620.757Zm-.081,11.518c.059.717-.576.445-1.017.361s-1.626.04-2.453-.031-1.322.138-1.846.01a16.657,16.657,0,0,0-2.189-.066,11.652,11.652,0,0,1-1.835-.029c-.635-.135-1.239.143-1.545.008s-.14-.633-.141-.964-.005-.909-.006-1.2-.008-1.44-.012-2.156c0-.428.605-.306.853-.419a6.349,6.349,0,0,1,2.013-.193c.886.032,1.982.309,2.558-.163s.106-.8.13-1.131a12.04,12.04,0,0,0,.1-2.273,7.974,7.974,0,0,1-.118-1.253c-.032-.3-.2-1.4-.2-1.4a38.829,38.829,0,0,1,3.908-.793c1.487-.174.938.132,1.353.59s0,.7.172,1.111a12.447,12.447,0,0,1,.152,2.782c-.023.716.182,2.892.246,3.359s-.182,3.142-.123,3.857Z" fill="#4b5054"/>
    <path id="Path_1581" data-name="Path 1581" d="M275.547,628.416c-.064-.468-.269-2.643-.246-3.359a12.448,12.448,0,0,0-.152-2.782c-.168-.413.244-.654-.172-1.111s.134-.763-1.353-.59a38.831,38.831,0,0,0-3.908.793s.167,1.1.2,1.4a7.973,7.973,0,0,0,.118,1.253,12.043,12.043,0,0,1-.1,2.273c-.025.332.446.66-.13,1.131s-1.672.195-2.558.163a6.351,6.351,0,0,0-2.013.193c-.248.112-.855-.01-.853.419,0,.716.01,1.859.012,2.156s0,.875.006,1.2-.164.828.141.964.91-.143,1.545-.008a11.638,11.638,0,0,0,1.835.029,16.636,16.636,0,0,1,2.189.066c.524.128,1.018-.082,1.846-.01s2.011-.053,2.453.031,1.076.356,1.017-.361S275.611,628.885,275.547,628.416Z" fill="#999"/>
    <path id="Path_1582" data-name="Path 1582" d="M220.633,627.342c.557-.265.408-.668.29-2.027s-.072-3.091-.376-3.343-.488-.193-1.774-.161-2.938.186-2.938.186a36.053,36.053,0,0,0,.022,3.991,4.812,4.812,0,0,1,.305,1.379C216.2,627.655,218.826,627.539,220.633,627.342Zm-4.167-4.715a10.9,10.9,0,0,1,1.278-.209c.528-.04,2.014-.106,2.246.19s.067.232.17.758a3.239,3.239,0,0,1,.038.963c0,.433.006,1.118.006,1.118s.137.924.147,1.12-.337.235-.569.2a4.174,4.174,0,0,0-1.123.006,5.107,5.107,0,0,1-1.882.01c-.265-.162-.11-2.046-.3-2.438S216.491,623.023,216.465,622.626Z" fill="#4b5054"/>
    <path id="Path_1583" data-name="Path 1583" d="M216.776,626.786a5.109,5.109,0,0,0,1.882-.01,4.171,4.171,0,0,1,1.123-.006c.232.031.578-.006.569-.2s-.147-1.12-.147-1.12,0-.685-.006-1.119a3.239,3.239,0,0,0-.038-.963c-.1-.527.064-.462-.17-.758s-1.719-.23-2.246-.19a10.91,10.91,0,0,0-1.278.209c.026.4-.182,1.331.01,1.722S216.511,626.624,216.776,626.786Z" fill="#999"/>
  </g>
</svg>
