<svg xmlns="http://www.w3.org/2000/svg" width="111.227" height="69.156" viewBox="0 0 111.227 69.156">
  <g id="Group_2234" data-name="Group 2234" transform="translate(-798.037 -1072.538)">
    <g id="Group_2233" data-name="Group 2233">
      <path id="Path_10308" data-name="Path 10308" d="M887.9,1132.778c-18.864,6.072-49.643,6.071-68.508,0q1.335,2.083,2.5,4.219c12.487,6.24,50.932,6.283,63.509,0Q886.565,1134.866,887.9,1132.778Z" fill="#1f1f1f"/>
      <path id="Path_10309" data-name="Path 10309" d="M818.966,1131c18.8,6.386,50.567,6.386,69.368,0l.119-.04.664-.006c5.231-7.618,12.116-14.369,19.712-18.115a.78.78,0,0,0-.131-1.45c-1.768-.5-3.625-1.144-5.547-1.9a.779.779,0,0,0-.559,0l-11.052,4.162-2.691-10.947a.78.78,0,0,0-.362-.486q-2.006-1.179-4.011-2.449a.78.78,0,0,0-1.2.647c-.091,5.864-3.433,12.271-10.56,10.747-9.316-1.992-5.172-13.369.94-17.681a.78.78,0,0,0,.026-1.256q-2.763-2.127-5.347-4.335a.781.781,0,0,0-1.126.118c-1.082,1.409-3.461,4.083-5.925,4.083-3.9,0-4.178-4.71-1.545-6.7l2.487-1.877a.78.78,0,0,0,.08-1.177,65.289,65.289,0,0,1-8.03-9.464.758.758,0,0,0-1.257,0,65.5,65.5,0,0,1-8.03,9.463.782.782,0,0,0,.08,1.176l2.487,1.878c2.633,1.987,2.355,6.7-1.549,6.7-2.46,0-4.84-2.675-5.924-4.083a.78.78,0,0,0-1.126-.117q-2.573,2.2-5.346,4.334a.78.78,0,0,0,.026,1.256c6.114,4.312,10.255,15.689.943,17.681-7.131,1.524-10.469-4.883-10.563-10.746a.78.78,0,0,0-1.2-.647q-2,1.268-4.01,2.448a.779.779,0,0,0-.363.487l-2.687,10.946-11.052-4.162a.779.779,0,0,0-.559,0c-1.922.753-3.779,1.392-5.547,1.9a.78.78,0,0,0-.131,1.45c7.552,3.726,14.4,10.426,19.626,17.994Zm65.684-14.087a.78.78,0,0,1,1.195.589,19.531,19.531,0,0,0,2.263,7.395.78.78,0,0,1-.57,1.155,19.524,19.524,0,0,0-7.248,2.7.78.78,0,0,1-1.194-.59,19.552,19.552,0,0,0-2.261-7.394.78.78,0,0,1,.57-1.154,19.577,19.577,0,0,0,7.246-2.7Zm-31.712-12.617a.78.78,0,0,1,1.426,0,34.865,34.865,0,0,0,8.954,12.189.78.78,0,0,1,0,1.217,34.865,34.865,0,0,0-8.954,12.188.78.78,0,0,1-1.426,0,34.876,34.876,0,0,0-8.958-12.188.781.781,0,0,1,0-1.217A34.874,34.874,0,0,0,852.938,1104.292Zm-31.424,12.124a.153.153,0,0,1,.244-.121,19.2,19.2,0,0,0,8.139,3.316.78.78,0,0,1,.57,1.155,19.482,19.482,0,0,0-2.278,7.567.67.67,0,0,1-1.034.509,19.4,19.4,0,0,0-7.543-2.816.67.67,0,0,1-.493-1A19.13,19.13,0,0,0,821.513,1116.416Z" fill="#1f1f1f"/>
    </g>
    <path id="Path_10310" data-name="Path 10310" d="M858.609,1116.578a.67.67,0,0,1,0,1.022,18.824,18.824,0,0,0-4.354,5.865.67.67,0,0,1-1.208,0,18.717,18.717,0,0,0-4.451-5.946.559.559,0,0,1,0-.86,18.717,18.717,0,0,0,4.451-5.946.67.67,0,0,1,1.208,0,18.829,18.829,0,0,0,4.355,5.865Z" fill="#1f1f1f"/>
    <path id="Path_10311" data-name="Path 10311" d="M827,1121.408a.382.382,0,0,1,.278.563,8.615,8.615,0,0,0-.963,3.139.382.382,0,0,1-.582.287,8.593,8.593,0,0,0-3.073-1.146.383.383,0,0,1-.278-.562,8.592,8.592,0,0,0,.96-3.14.382.382,0,0,1,.583-.287,8.618,8.618,0,0,0,3.076,1.147Z" fill="#1f1f1f"/>
    <path id="Path_10312" data-name="Path 10312" d="M884.919,1123.688a.382.382,0,0,1-.278.563,8.61,8.61,0,0,0-3.078,1.146.382.382,0,0,1-.582-.287,8.614,8.614,0,0,0-.963-3.14.382.382,0,0,1,.277-.563,8.615,8.615,0,0,0,3.078-1.147.382.382,0,0,1,.583.287,8.633,8.633,0,0,0,.962,3.141Z" fill="#1f1f1f"/>
  </g>
</svg>
