<svg xmlns="http://www.w3.org/2000/svg" xmlns:xlink="http://www.w3.org/1999/xlink" width="111.273" height="87.229" viewBox="0 0 111.273 87.229">
  <defs>
    <radialGradient id="radial-gradient" cx="0.798" cy="0.677" r="0.889" gradientTransform="translate(0.123) scale(0.754 1)" gradientUnits="objectBoundingBox">
      <stop offset="0" stop-color="#ffb326"/>
      <stop offset="1" stop-color="#ffc966"/>
    </radialGradient>
  </defs>
  <g id="Group_2428" data-name="Group 2428" transform="translate(-158.862 -11.351)">
    <path id="Path_11171" data-name="Path 11171" d="M200.716,89.852A41.956,41.956,0,0,0,207.137,73.7c-12.6-.955-24.205-4.366-32.808-9.659-9.183-5.649-14.24-13.022-14.24-20.762a19.923,19.923,0,0,1,4.431-12.216,37.36,37.36,0,0,1,11.778-9.7c10.224-5.665,23.79-8.785,38.2-8.785s27.976,3.12,38.2,8.785a37.361,37.361,0,0,1,11.778,9.7,19.923,19.923,0,0,1,4.431,12.216c0,7.566-4.859,14.815-13.68,20.413-8.407,5.334-19.891,8.852-32.391,9.929-7.089,10.249-19.969,17.713-20.522,18.03l-5.11,2.932Z" fill="url(#radial-gradient)"/>
    <path id="Path_11172" data-name="Path 11172" d="M214.5,13.808c29.371,0,53.181,13.194,53.181,29.47,0,14.836-19.784,27.111-45.53,29.167-6.93,10.383-20.447,18.14-20.447,18.14a42.914,42.914,0,0,0,6.858-18.019c-26.576-1.636-47.242-14.124-47.242-29.288,0-16.276,23.81-29.47,53.181-29.47m0-2.456a93.325,93.325,0,0,0-21.261,2.381A68.367,68.367,0,0,0,175.7,20.291a38.569,38.569,0,0,0-12.159,10.025,21.122,21.122,0,0,0-4.683,12.961c0,8.182,5.265,15.927,14.824,21.808,8.452,5.2,19.727,8.616,31.989,9.723A39.981,39.981,0,0,1,199.73,89.12L192.7,98.58l10.221-5.865a80.246,80.246,0,0,0,7.891-5.353,60.678,60.678,0,0,0,12.7-12.569c12.472-1.151,23.931-4.708,32.372-10.065A35.341,35.341,0,0,0,266.207,55.2a20.763,20.763,0,0,0,3.928-11.922,21.121,21.121,0,0,0-4.683-12.961,38.567,38.567,0,0,0-12.159-10.025,68.368,68.368,0,0,0-17.534-6.559A93.325,93.325,0,0,0,214.5,11.352Z" fill="#fff"/>
  </g>
</svg>
