<svg xmlns="http://www.w3.org/2000/svg" width="85.989" height="80.215" viewBox="0 0 85.989 80.215">
  <g id="Group_160" data-name="Group 160" transform="translate(-773.931 -942.561)">
    <g id="Group_157" data-name="Group 157">
      <path id="Path_788" data-name="Path 788" d="M847.1,1008.413c-17.349-7.057-32.717-.33-38.693,1.6s-18.471,7.236-34.475,2.141c15.227,9.761,26.282,9.155,42.783,1.661S840.2,1008.007,847.1,1008.413Z" fill="#51a6dc"/>
      <path id="Path_789" data-name="Path 789" d="M835.611,1015.845c-3.755,1.414-11.6,5.31-21.66,1.571,9.567,7.16,16.512,6.716,26.878,1.218s14.756-4.26,19.09-3.961C849.021,1009.5,839.365,1014.43,835.611,1015.845Z" fill="#51a6dc"/>
    </g>
    <g id="Group_159" data-name="Group 159">
      <path id="Path_790" data-name="Path 790" d="M823.144,999.659c-2.925.105-4.633-1.385-5.144-4.474,2.514.021,4.248.744,5.144,2.172v-11.63c-2.925.128-4.633-1.352-5.144-4.44,2.514,0,4.248.7,5.144,2.108V959.112l-12.278-5.5-4.481-11.056v32.686c.922-1.448,2.641-2.183,5.239-2.2-.553,3.109-2.288,4.591-5.239,4.441v11.694c.922-1.469,2.662-2.216,5.239-2.237-.553,3.153-2.288,4.644-5.239,4.474v9.937c.922-1.448,2.662-2.193,5.239-2.236-.553,3.152-2.288,4.644-5.239,4.473v3.388c6.086-2.251,16.759-4.121,16.759-4.121Z" fill="#24a64a"/>
      <path id="Path_791" data-name="Path 791" d="M804.673,1007.295V996.3c-2.978.192-4.761-1.278-5.273-4.409q3.962,0,5.273,2.332V982.373c-2.978.213-4.761-1.257-5.273-4.409q3.962,0,5.273,2.333v-4.666l-7.694-4.537-7.694,4.537v34.156C792.1,1010.08,799.56,1008.8,804.673,1007.295Z" fill="#1e894d"/>
      <g id="Group_158" data-name="Group 158">
        <path id="Path_792" data-name="Path 792" d="M837.689,961.509v-2.4l-2.423-1.724v-6.26h-1.634v6.2l-2.661,1.886v2.4l3.438-2.4Z" fill="#8bc64e"/>
        <path id="Path_793" data-name="Path 793" d="M841.932,968.123v-2.364l-7.514-5.375-7.559,5.375v2.364l7.553-5.336Z" fill="#8bc64e"/>
        <path id="Path_794" data-name="Path 794" d="M843.96,1004.9V971.222c-.685-.468-7.43-5.123-9.538-6.613v-.032c-2.161,1.513-9.512,6.646-9.512,6.646v7.6a5.33,5.33,0,0,1,5.367-2.46c-.424,4.177-3.418,4.78-5.367,4.409v11.981c0-.042.84-2.758,5.367-2.46-.468,5.058-5.367,4.409-5.367,4.409v7.956C827.6,1002.343,835.766,1001.486,843.96,1004.9Z" fill="#8bc64e"/>
      </g>
    </g>
  </g>
</svg>
