<svg xmlns="http://www.w3.org/2000/svg" width="58.019" height="29.423" viewBox="0 0 58.019 29.423">
  <g id="Group_339" data-name="Group 339" transform="translate(-501.33 -196.29)">
    <path id="Path_1347" data-name="Path 1347" d="M552.176,225.7a1.957,1.957,0,0,0,1.446-.392,2.323,2.323,0,0,0,.418-1.731c-.07-2.5-.01-4.984.092-7.467q2.179.105,4.361.035a46.5,46.5,0,0,1,.856-7.617,37.676,37.676,0,0,0-4.81-.9,94.947,94.947,0,0,0-.006-10.1c-16.565-.815-34.846-1.3-51.435-1.235,0,8.367-1.765,18.229-1.768,26.6C517.544,225.686,535.731,225.63,552.176,225.7Z" fill="#6d9dbf"/>
    <path id="Path_1348" data-name="Path 1348" d="M513.557,219.667c.754-.984.352-5.8.4-6.913q.176-3.95.34-7.9c.047-1.127.719-4.007-.172-4.937-1.107-1.155-3.7-.668-5.091-.5a1.824,1.824,0,0,0-1.881,1.984c-.01,1.665.1,3.394.021,5.111q-.284,5.976-.568,11.952a.915.915,0,0,0,1,1.227l4.661.255a2.257,2.257,0,0,0,1.124-.13A.474.474,0,0,0,513.557,219.667Z" fill="#d4e6e6"/>
    <path id="Path_1349" data-name="Path 1349" d="M523.654,220.338c.754-.984.352-5.8.4-6.913q.176-3.95.34-7.9c.047-1.127.719-4.007-.172-4.937-1.107-1.155-3.7-.668-5.091-.5a1.824,1.824,0,0,0-1.881,1.984c-.01,1.665.1,3.394.021,5.111l-.568,11.952a.915.915,0,0,0,1,1.227l4.661.255a2.256,2.256,0,0,0,1.124-.13.475.475,0,0,0,.164-.142Z" fill="#d4e6e6"/>
    <path id="Path_1350" data-name="Path 1350" d="M533.672,220.459c.754-.984.352-5.8.4-6.913q.176-3.95.34-7.9c.047-1.127.719-4.007-.172-4.937-1.107-1.155-3.7-.668-5.091-.5a1.824,1.824,0,0,0-1.881,1.984c-.01,1.665.1,3.394.021,5.111q-.284,5.976-.568,11.951a.915.915,0,0,0,1,1.227l4.661.255a2.258,2.258,0,0,0,1.124-.13.476.476,0,0,0,.164-.143Z" fill="#d4e6e6"/>
  </g>
</svg>
