<svg xmlns="http://www.w3.org/2000/svg" width="46.655" height="43.264" viewBox="0 0 46.655 43.264">
  <g id="Group_230" data-name="Group 230" transform="translate(-412.281 -437.83)">
    <g id="Group_228" data-name="Group 228">
      <path id="Path_1052" data-name="Path 1052" d="M456.367,447.754c-3.584-5.95-11.432-8.936-17.755-9.551-6.078-.592-13.7.777-18.511,5.083-3.994,3.572-7.539,8.6-7.577,14.16-.148,21.567,13.654,23.66,25.719,23.385a20.165,20.165,0,0,0,15.141-7.034,25.112,25.112,0,0,0,4.991-12.327C459.058,456.794,458.764,451.733,456.367,447.754ZM435.945,463.17c-5.5,0-5.5-9.107,0-9.107S441.443,463.17,435.945,463.17Z" fill="#e6eeef"/>
      <path id="Path_1053" data-name="Path 1053" d="M436.45,481.094c-5.483,0-13.365-.6-18.48-5.745-3.829-3.856-5.743-9.88-5.688-17.905.045-6.557,4.817-11.8,7.658-14.339,3.749-3.352,9.557-5.275,15.935-5.275.934,0,1.863.044,2.761.131,5.937.578,14.2,3.457,17.939,9.668,2.7,4.49,2.6,10.024,2.04,13.875a25.336,25.336,0,0,1-5.043,12.445,20.248,20.248,0,0,1-15.322,7.122C437.653,481.086,437.053,481.094,436.45,481.094Zm-.575-42.781c-6.26,0-11.951,1.878-15.613,5.152-2.78,2.487-7.452,7.611-7.5,13.982-.054,7.891,1.813,13.8,5.548,17.561,4.931,4.965,12.283,5.6,18.137,5.6.6,0,1.2-.009,1.788-.022a19.77,19.77,0,0,0,14.96-6.945,24.866,24.866,0,0,0,4.939-12.209c.55-3.773.655-9.188-1.976-13.556-3.648-6.057-11.747-8.87-17.573-9.436-.883-.086-1.8-.129-2.714-.129Zm.07,25.1c-3,0-4.364-2.486-4.364-4.8a5.228,5.228,0,0,1,1.084-3.282,4.058,4.058,0,0,1,3.28-1.513c3,0,4.364,2.486,4.364,4.8a5.227,5.227,0,0,1-1.084,3.282,4.058,4.058,0,0,1-3.28,1.513Zm0-9.108a3.591,3.591,0,0,0-2.9,1.333,4.747,4.747,0,0,0-.977,2.979c0,2.077,1.214,4.312,3.881,4.312a3.591,3.591,0,0,0,2.9-1.333,4.747,4.747,0,0,0,.977-2.979c0-2.076-1.214-4.312-3.881-4.312Z" fill="#d0d1d3"/>
    </g>
    <g id="Group_229" data-name="Group 229">
      <path id="Path_1054" data-name="Path 1054" d="M443.42,451.224c-3.374-3.232-9.366-3.384-13.484-1.691-5.757,2.366-6.465,8.847-3.213,13.779s11.118,6.187,15.741,2.573C447.241,462.151,447.874,455.491,443.42,451.224Zm-2.958,11.184c-3.088,3.38-8.686,2-11.515-.813-2.07-2.058-1.806-4.262-.694-6.275a1.537,1.537,0,0,0,1-.332c3.07-2.312,5.762-2.524,9.493-1.638,4.521,1.074,4.28,6.253,1.718,9.057Z" fill="#c3b6ce"/>
      <path id="Path_1055" data-name="Path 1055" d="M432.586,450.7c-5.572,1.392-6.839,9.965-2.4,13.159a8.212,8.212,0,0,0,13.624-2.879C446.445,454.208,437.716,449.415,432.586,450.7Zm1.193,11.242a1.675,1.675,0,0,0-.59-1.092c-1.884-1.559-1.985-4.717.531-5.768,2.342-.978,6.32,1.346,6.3,4.069C439.991,462.572,436.152,462.745,433.779,461.939Z" fill="#e3e5e3"/>
      <path id="Path_1056" data-name="Path 1056" d="M439.21,456.429a3.969,3.969,0,0,0-6.561-.608.475.475,0,0,0-.1.238c-.036.033-.078.064-.112.1a3.524,3.524,0,0,0-.9,3.255c.428,2.97,3.74,4.4,6.356,3.493C440.224,462.1,440.174,458.241,439.21,456.429Zm-2.017,5.667a3.87,3.87,0,0,1-4.786-2.487,2.413,2.413,0,0,1,.75-2.99.439.439,0,0,0,.078-.039c1.515-1.159,3.51-1.873,4.866.013a4.751,4.751,0,0,1,.571,2.62c.039,1.317,0,2.349-1.478,2.883Z" fill="#bbbcbf"/>
    </g>
    <path id="Path_1057" data-name="Path 1057" d="M435.9,467.965l.549,12.646s9.3-.259,10.971-1.78l-5.76-12.389S437.575,468.1,435.9,467.965Z" fill="#fff" opacity="0.49"/>
    <path id="Path_1058" data-name="Path 1058" d="M432.178,448.409l-3.163-9.3s-7.631,2.762-8.914,4.172l7.062,7.373S430.629,448.654,432.178,448.409Z" fill="#fff" opacity="0.49"/>
    <path id="Path_1059" data-name="Path 1059" d="M433.9,448.466l-.493-9.918s-3.586-.534-4.39.565l3.639,9.478a1.922,1.922,0,0,1,1.244-.126Z" fill="#d8ffec" opacity="0.25"/>
    <path id="Path_1060" data-name="Path 1060" d="M442.89,465.526l6.658,11.48s4-3.786,4.333-4.256-9.586-8.691-9.586-8.691Z" fill="#fff" opacity="0.61"/>
  </g>
</svg>
