<svg xmlns="http://www.w3.org/2000/svg" width="49.46" height="57.699" viewBox="0 0 49.46 57.699">
  <g id="Group_287" data-name="Group 287" transform="translate(-316.147 -22.503)">
    <g id="Group_286" data-name="Group 286">
      <g id="Group_285" data-name="Group 285">
        <path id="Path_1175" data-name="Path 1175" d="M335.733,69.906c-1.013-.558.656-5.282-.367-5.9-1.446-.875-9.016-6.4-8.209-14.984s6.079-14.606,14.766-14.39,14.642,5.638,14.762,14.732c.118,8.975-7.03,13.86-7.215,15.338s.644,4.883.12,5.29C348.4,70.918,337.486,70.871,335.733,69.906Z" fill="#fce321"/>
        <path id="Path_1176" data-name="Path 1176" d="M345.49,75.465c-2.154-.054-5.277-.189-9.854-.433a1.718,1.718,0,1,1,.183-3.43c5.931.362,12.921.735,13.251.422a1.718,1.718,0,0,1,1.6,2.97C350.25,75.337,349.956,75.576,345.49,75.465Z" fill="#4e4e4e"/>
        <path id="Path_1177" data-name="Path 1177" d="M344.559,80.187c-1.546-.038-3.788-.152-7.073-.364-.68-.044-1.2-.848-1.153-1.795s.628-1.678,1.309-1.636c4.072.263,8.656.453,9.512.328a1.028,1.028,0,0,1,1.323.54,2.215,2.215,0,0,1-.194,2.418C347.978,80.025,347.765,80.266,344.559,80.187Z" fill="#4e4e4e"/>
      </g>
      <path id="Path_1178" data-name="Path 1178" d="M349.14,51a1.865,1.865,0,0,0-2.388.614,12.044,12.044,0,0,0-1.6,2.712q-.157.336-.3.678a2.983,2.983,0,0,1-1.479-.408,2.913,2.913,0,0,1-.38-.268,4.9,4.9,0,0,0,1.65-3.355,1.827,1.827,0,0,0-1.107-1.823c-.949-.364-1.908.447-2.316,1.232a3.779,3.779,0,0,0,.438,3.882,4.548,4.548,0,0,1-2.226.824c-.169-.766-.372-1.523-.615-2.262a5.54,5.54,0,0,0-1.384-2.38c-.693-.646-1.777-1.024-2.318,0-.865,1.633.151,3.6,1.447,4.642a4.021,4.021,0,0,0,2.282.872c.1.5.19,1.01.269,1.513a33.794,33.794,0,0,1,.022,9.269.25.25,0,0,0,.487.078,26.64,26.64,0,0,0,.439-7.126,30.985,30.985,0,0,0-.454-3.746,5.432,5.432,0,0,0,2.108-.668,6.023,6.023,0,0,0,.535-.338,3.78,3.78,0,0,0,2.242.99,25.234,25.234,0,0,0-1.147,4.6,48.448,48.448,0,0,0-.518,6.276.51.51,0,0,0,1.019.025,32.949,32.949,0,0,1,1.71-10.929,5.157,5.157,0,0,0,1.623-.519C348.376,54.772,350.976,52.239,349.14,51Zm-11.22,3.881a3.727,3.727,0,0,1-1.906-1.73,2.477,2.477,0,0,1-.082-2.458c.324-.4,1.173.562,1.356.793a5.454,5.454,0,0,1,.806,1.637c.217.634.4,1.284.552,1.941a3.467,3.467,0,0,1-.727-.182Zm4.319-4.372c.216-.308.681-.636,1.069-.451a.911.911,0,0,1,.406.8,3.522,3.522,0,0,1-.9,2.3,5.021,5.021,0,0,1-.432.5,2.775,2.775,0,0,1-.14-3.147Zm6.53,1.675a2.955,2.955,0,0,1-.715,1.274A4.516,4.516,0,0,1,346,54.832q.156-.341.326-.678c.235-.462.5-.909.775-1.346a2.244,2.244,0,0,1,.985-1.016c.3-.1.745.008.682.4Z" fill="#fff"/>
    </g>
    <path id="Path_1179" data-name="Path 1179" d="M344.428,23.492c-.04-1.034-1.694-1.442-1.9-.306a26.5,26.5,0,0,0-.207,3.99c-.038,1.273-.3,2.753.256,3.939a.393.393,0,0,0,.673.017c.671-1.022.637-2.444.774-3.626a27.035,27.035,0,0,0,.408-4.014Z" fill="#fce321"/>
    <path id="Path_1180" data-name="Path 1180" d="M357.388,26.527a7.672,7.672,0,0,0-1.575,1.534c-.567.614-1.145,1.216-1.707,1.834a38.485,38.485,0,0,0-2.982,3.547c-.444.626.475,1.311,1.012.821,1.093-1,2.1-2.086,3.162-3.115q.8-.774,1.615-1.528a10.883,10.883,0,0,0,1.8-1.7,1,1,0,0,0-1.327-1.395Z" fill="#fce321"/>
    <path id="Path_1181" data-name="Path 1181" d="M333.112,32.907c-1.833-2.029-3.779-4-5.708-5.937-.84-.844-2.2.472-1.331,1.266,2.026,1.851,4.085,3.718,6.2,5.471C332.833,34.174,333.627,33.477,333.112,32.907Z" fill="#fce321"/>
    <path id="Path_1182" data-name="Path 1182" d="M324.087,40.195a23.761,23.761,0,0,1-3.491-.585,15.882,15.882,0,0,1-1.75-.6,11.23,11.23,0,0,0-1.686-.771c-.665-.143-1.406.711-.771,1.252A9.044,9.044,0,0,0,319.96,40.8a8.466,8.466,0,0,0,4.1.317C324.621,40.929,324.688,40.265,324.087,40.195Z" fill="#fce321"/>
    <path id="Path_1183" data-name="Path 1183" d="M365,40.384c-.785-.337-1.909.04-2.738.144a22.542,22.542,0,0,0-3.044.523.523.523,0,0,0,.113,1.026,20.946,20.946,0,0,0,2.835.151c.932,0,2.182.253,3.005-.23a.891.891,0,0,0-.17-1.614Z" fill="#fce321"/>
  </g>
</svg>
