<svg xmlns="http://www.w3.org/2000/svg" xmlns:xlink="http://www.w3.org/1999/xlink" width="94.364" height="61.51" viewBox="0 0 94.364 61.51">
  <defs>
    <linearGradient id="linear-gradient" x1="0.5" y1="1.053" x2="0.5" y2="0.213" gradientUnits="objectBoundingBox">
      <stop offset="0" stop-color="#c1282d"/>
      <stop offset="1" stop-color="#ee3552"/>
    </linearGradient>
  </defs>
  <g id="Group_140" data-name="Group 140" transform="translate(-1502.293 -820.335)">
    <path id="Path_749" data-name="Path 749" d="M1582.614,848.292V836.427h-8.394v4.814l-24.756-20.906,0,0v0l-47.173,39.807,6.526,5.506,7.518-6.342v22.539h13.982l13.02-14-9.281-8.3c-4.1,1.672-4.875,8.609-4.875,8.609a.869.869,0,0,1-.228.517.882.882,0,0,1-.554.295.9.9,0,0,1-.954-.59s-2.679-8.594,2.351-14.156a5.787,5.787,0,0,1,3.952-5.024c-.41-1.637,1.9-4.016,5.055-7.543l7.891,7.051c-2.421,2.707-5.257,6.092-6.929,5.867-.071.176-.151.346-.235.514a2.747,2.747,0,0,1,.325.246l8.261,7.377,4.026-4.328c.143-.16.294-.31.441-.451a10.784,10.784,0,0,1,10.182-15.16.929.929,0,0,1,.829.562.939.939,0,0,1-.162.988l-4.937,5.529,1.809,5.381,5.375,1.037,4.938-5.527a.94.94,0,0,1,.966-.273.928.928,0,0,1,.649.76,10.786,10.786,0,0,1-13.925,11.824c-.045.061-15.917,18.8-15.917,18.8h16.594l-7.65-6.848,4.839-5.842,14.521,12.689h11.917V859.306l7.517,6.342,6.525-5.506Z" fill="url(#linear-gradient)"/>
    <g id="Group_139" data-name="Group 139">
      <path id="Path_750" data-name="Path 750" d="M1564.488,843.9a.947.947,0,0,0-.84-.578h-.056l0,.008a.939.939,0,0,1-.162.988l-4.938,5.529.391,1.162,5.437-6.1a.98.98,0,0,0,.164-1.014Z" opacity="0.2"/>
      <path id="Path_751" data-name="Path 751" d="M1539.768,854.565c-.071.176-.151.346-.235.514a2.746,2.746,0,0,1,.325.246l.439.393c.047-.1.093-.2.133-.3,1.688.229,4.551-3.24,6.993-6.012l-.747-.68C1544.259,851.423,1541.435,854.788,1539.768,854.565Z" opacity="0.2"/>
      <path id="Path_752" data-name="Path 752" d="M1570.554,860.917a11.143,11.143,0,0,0,2.656-8.936.954.954,0,0,0-.657-.777.978.978,0,0,0-.326-.037.335.335,0,0,1,.009.053,10.786,10.786,0,0,1-13.925,11.824c-.045.061-15.917,18.8-15.917,18.8h1.475c6.591-7.9,14.638-17.555,14.712-17.654a11.786,11.786,0,0,0,11.973-3.273Z" opacity="0.2"/>
      <path id="Path_753" data-name="Path 753" d="M1529.184,868.148a.9.9,0,0,1-1.38.67c.109.471.19.736.19.736a.906.906,0,0,0,.963.6.87.87,0,0,0,.559-.3.9.9,0,0,0,.23-.529s.822-7.49,5.257-8.947l-.943-.844C1529.955,861.208,1529.184,868.148,1529.184,868.148Z" opacity="0.2"/>
    </g>
  </g>
</svg>
