<svg xmlns="http://www.w3.org/2000/svg" xmlns:xlink="http://www.w3.org/1999/xlink" width="134.491" height="97.479" viewBox="0 0 134.491 97.479">
  <defs>
    <radialGradient id="radial-gradient" cx="0.787" cy="0.851" r="0.911" gradientTransform="translate(0.133) scale(0.735 1)" gradientUnits="objectBoundingBox">
      <stop offset="0" stop-color="#ffb326"/>
      <stop offset="1" stop-color="#ffc966"/>
    </radialGradient>
  </defs>
  <g id="Group_2424" data-name="Group 2424" transform="translate(-178.169 -388.639)">
    <path id="Path_11161" data-name="Path 11161" d="M260.351,479.057c-.019-.025-1.964-2.53-4.261-4.993-4.226-4.533-5.654-4.664-5.8-4.664h-.016c-1.7.159-3.248,3.75-3.734,5.465l-1.385,4.893-1-4.985c-.4-1.957-1.821-6.076-3.7-6.316l-.04,0c-.273,0-1.857.24-6.192,4.982-2.4,2.623-4.409,5.289-4.429,5.316l-2.344,3.116.136-3.9c0-.024.082-2.432-.091-4.975-.313-4.62-1.15-5.266-1.158-5.272a.819.819,0,0,0-.385-.081c-1.26,0-3.3,1.694-4.092,2.514l-2.884,2.99.794-4.077c.34-1.762.572-5.693-.885-6.59a1.523,1.523,0,0,0-.658-.089c-3.25,0-11.312,3.487-14.144,4.83l-4.684,2.222,3.189-4.087c.016-.021,1.629-2.092,3.138-4.434,2.6-4.028,2.575-5.236,2.551-5.416-.233-.316-.95-.351-1.254-.351a11.721,11.721,0,0,0-3.6.777L197.8,458.16l4.316-4.245c1.217-1.2,2.717-3.395,2.311-4.282-.179-.155-1.348-.921-7.331-1.417-3.389-.281-6.585-.325-6.617-.326l-6.146-.079,5.705-2.288c.024-.01,2.448-.984,4.966-2.2,3.937-1.895,4.961-2.842,5.214-3.148a6.047,6.047,0,0,0-3.232-1.3l-7.95-1.233,7.954-1.195c2.075-.316,4.4-1.281,4.5-2.123-.082-.189-.746-1.343-5.472-3.9-2.731-1.477-5.413-2.658-5.439-2.67l-5.729-2.516,6.255.164c.009,0,.962.025,2.339.025,6.74,0,9.516-.533,10.2-.892,0-.486-1-1.783-2.27-2.724l-7.087-5.254,8.251,3.118a15.552,15.552,0,0,0,4.53.927c.711,0,1.621-.113,1.916-.652.154-.281-.012-1.766-2.6-5.215a53.55,53.55,0,0,0-3.715-4.381l-4.072-4.23,5.426,2.243c2.745,1.135,10.559,4.081,13.7,4.081a1.854,1.854,0,0,0,.656-.078c1.052-.762.771-3.864.247-5.73l-1.679-5.984,3.829,4.9c1.232,1.571,3.826,4.064,5.537,4.063a1.292,1.292,0,0,0,.554-.115c.131-.06,1.289-.75,1.741-6.3a57.532,57.532,0,0,0,.134-6.134l-.168-4.1,2.393,3.336c.018.025,1.811,2.518,3.954,4.97,3.923,4.487,5.31,4.616,5.455,4.616h.014c1.7-.127,3.283-3.719,3.785-5.439l1.173-4.022,1.184,4.018c.543,1.832,2.258,5.659,4.093,5.788h.021c.255,0,1.726-.231,5.661-4.8,2.185-2.535,3.991-5.1,4.009-5.125l2.449-3.489-.218,4.257a52.11,52.11,0,0,0,.076,5.7c.383,5.147,1.477,5.836,1.6,5.9a1.312,1.312,0,0,0,.6.13c1.87,0,4.627-2.665,5.446-3.6l3.631-4.141-1.528,5.292c-.6,2.1-.93,5.592.283,6.41a1.426,1.426,0,0,0,.661.1c3.045,0,10.212-3.221,12.716-4.463l4.781-2.369-3.264,4.221c-.015.02-1.558,2.02-2.98,4.285-2.437,3.884-2.335,5.057-2.311,5.2.213.288.8.332,1.14.332a11.583,11.583,0,0,0,3.845-.947l6.684-2.95-5.352,4.974c-1.326,1.237-2.969,3.5-2.531,4.408.165.138,1.6,1.093,9.581,1.093,2.221,0,3.941-.079,3.958-.08l6.3-.294-5.732,2.636c-.025.011-2.481,1.144-5.009,2.535-4.081,2.246-4.985,3.312-5.169,3.593.1.219.553.59,1.547.925a11.814,11.814,0,0,0,2.155.481l9.339,1.036-9.29,1.4c-1.912.291-4.683,1.274-4.766,2.3.055.158.6,1.332,5.429,3.979,2.738,1.5,5.429,2.693,5.456,2.7l6.1,2.689-6.655-.339c-.019,0-1.954-.1-4.359-.1-7.28,0-8.681.85-8.858.985-.41.833,1.017,3.036,2.25,4.28l5.9,5.957-7.364-4.014a12.294,12.294,0,0,0-4.654-1.466,1.333,1.333,0,0,0-1.1.358c-.03.076-.406,1.242,2.192,5.922,1.465,2.638,3.1,4.993,3.121,5.017l2.862,4.1-4.436-2.309c-3.711-1.932-10.43-5-12.662-5a1.111,1.111,0,0,0-.212.016c-.882.541-.993,3.159-.73,4.865l.653,4.244-2.8-3.255c-1.089-1.263-3.358-3.268-4.808-3.268a1.02,1.02,0,0,0-.476.105c-.01.005-1.025.586-1.292,5.851-.148,2.913.022,5.7.024,5.725l.248,3.984Z" fill="url(#radial-gradient)"/>
    <path id="Path_11162" data-name="Path 11162" d="M261.322,397.023s-.582,11.293,2.355,12.757a2.536,2.536,0,0,0,1.146.259c2.847,0,6.369-4.016,6.369-4.016s-1.752,6.065.777,7.769a2.437,2.437,0,0,0,1.347.305c4,0,13.262-4.59,13.262-4.59s-6.74,8.711-5.373,10.867a2.437,2.437,0,0,0,2.194.926,13.056,13.056,0,0,0,4.341-1.052s-4,3.721-2.745,5.948c.806,1.425,6.578,1.681,10.631,1.681,2.28,0,4.016-.081,4.016-.081s-11,5.058-10.915,7.207,4.819,2.663,4.819,2.663-5.75.865-5.812,3.518,11.618,7.8,11.618,7.8-1.953-.1-4.422-.1c-3.912,0-9.117.25-9.89,1.544-1.261,2.11,2.41,5.813,2.41,5.813a13.774,13.774,0,0,0-5.242-1.616,2.45,2.45,0,0,0-2.092.867c-1.7,2.32,5.3,12.36,5.3,12.36s-9.863-5.136-13.229-5.136a1.635,1.635,0,0,0-.777.152c-2.154,1.188-1.379,6.145-1.379,6.145s-3.175-3.7-5.739-3.7a2.24,2.24,0,0,0-1.037.241c-2.642,1.357-1.933,12.744-1.933,12.744s-7.849-10.134-11.035-10.134c-.044,0-.088,0-.13.006-3.1.29-4.8,6.354-4.8,6.354s-1.377-6.863-4.748-7.292a1.544,1.544,0,0,0-.2-.012c-3.49,0-11.6,10.788-11.6,10.788s.357-10.161-1.885-11.366a2.029,2.029,0,0,0-.975-.233c-2.2,0-4.977,2.89-4.977,2.89s1.215-6.232-1.446-7.871a2.53,2.53,0,0,0-1.3-.272c-4.241,0-14.67,4.949-14.67,4.949s7.073-9.06,5.8-11.2a2.541,2.541,0,0,0-2.331-.984,13.149,13.149,0,0,0-4.048.863s3.695-3.634,2.5-5.792-14.987-2.336-14.987-2.336,10.962-4.4,10.985-6.366-4.308-2.633-4.308-2.633,5.5-.827,5.553-3.361-11.649-7.67-11.649-7.67.96.025,2.372.025c3.736,0,10.634-.177,11.278-1.468.887-1.778-2.618-4.363-2.618-4.363a16.72,16.72,0,0,0,4.964,1.006,3.178,3.178,0,0,0,2.993-1.29c1.494-2.727-6.506-11.037-6.506-11.037s10.093,4.174,14.171,4.174a2.426,2.426,0,0,0,1.348-.291c2.276-1.594.737-7.076.737-7.076s3.547,4.535,6.5,4.535a2.52,2.52,0,0,0,1.069-.228c3.088-1.427,2.587-13.6,2.587-13.6s7.242,10.1,10.408,10.1c.035,0,.071,0,.105,0,3.108-.232,4.872-6.321,4.872-6.321s1.895,6.435,5.185,6.666q.053,0,.107,0c3.342,0,10.674-10.444,10.674-10.444m2.885-8.384-4.9,6.973c-.029.041-1.67,2.37-3.691,4.746-3.19,3.751-4.639,4.5-4.994,4.633-.266-.1-.919-.595-1.719-2.055a16.635,16.635,0,0,1-1.2-2.836l-2.375-8.065L243,400.113a15.61,15.61,0,0,1-1.1,2.644,4.612,4.612,0,0,1-1.5,1.876c-.4-.175-1.818-.987-4.848-4.509-1.974-2.3-3.566-4.51-3.582-4.532l-4.788-6.677.339,8.21c0,.025.1,2.6-.088,5.41-.276,4.084-.938,5.481-1.17,5.854a5.366,5.366,0,0,1-2.611-1.588,17.989,17.989,0,0,1-1.9-2l-7.658-9.79,3.361,11.97a13.819,13.819,0,0,1,.381,2.2,5.171,5.171,0,0,1-.119,2.051c-2.625-.011-9.493-2.449-13.215-3.987l-10.849-4.484,8.141,8.457c.016.016,1.618,1.688,3.19,3.707a16.106,16.106,0,0,1,2.722,4.416,3.713,3.713,0,0,1-.63.046,14.167,14.167,0,0,1-4.1-.848l-16.976-6.416L200.641,422.8a8.9,8.9,0,0,1,1.069.958,57.749,57.749,0,0,1-8.268.442c-1.358,0-2.3-.024-2.307-.024l-12.511-.328,11.459,5.031c.023.01,2.408,1.061,4.945,2.41a27.778,27.778,0,0,1,4.786,3.006,7.457,7.457,0,0,1-1.235.506,13.125,13.125,0,0,1-1.782.433l-16.041,2.409,16.04,2.447a8.669,8.669,0,0,1,1.148.271,39.483,39.483,0,0,1-3.795,2.01c-2.36,1.121-4.551,2-4.573,2.011l-11.407,4.575,12.289.159c.029,0,2.938.041,6.119.288a30.819,30.819,0,0,1,6.564.988,6.389,6.389,0,0,1-.779,1.331,12.066,12.066,0,0,1-1.112,1.315l-8.633,8.491,11.259-4.456a11.084,11.084,0,0,1,2.935-.686,24.483,24.483,0,0,1-2.387,4.278c-1.4,2.127-2.793,3.916-2.807,3.934l-6.384,8.178,9.373-4.448c3.841-1.822,10.935-4.712,13.617-4.712l.1,0a4.717,4.717,0,0,1,.469,2.336,15.634,15.634,0,0,1-.229,2.883l-1.6,8.187,5.779-6.02a12.706,12.706,0,0,1,1.411-1.215,5.842,5.842,0,0,1,1.46-.839,17.54,17.54,0,0,1,.683,4.615c.128,2.288.059,4.341.059,4.362l-.27,7.794,4.687-6.232c.018-.024,1.871-2.48,4.122-4.971,3.537-3.913,5.1-4.672,5.5-4.812a4.608,4.608,0,0,1,1.574,2.252,17.291,17.291,0,0,1,.984,3.059l2.009,10.011,2.762-9.834a15.553,15.553,0,0,1,1.082-2.653,4.605,4.605,0,0,1,1.485-1.882c.414.17,1.9.972,5.177,4.535,2.135,2.32,3.9,4.591,3.916,4.614l4.889,6.308-.5-7.965c0-.023-.143-2.369-.05-4.967a16.331,16.331,0,0,1,.783-5.372,5.887,5.887,0,0,1,2.048,1.245,15.316,15.316,0,0,1,1.613,1.558l5.62,6.541-1.331-8.521a11.979,11.979,0,0,1-.1-1.816,5.574,5.574,0,0,1,.224-1.607,29.089,29.089,0,0,1,6.466,2.308c2.787,1.239,5.214,2.5,5.238,2.512l8.871,4.617-5.722-8.2c-.014-.02-1.423-2.046-2.774-4.413a20.946,20.946,0,0,1-2.261-4.947,11.665,11.665,0,0,1,3.881,1.312l14.729,8.028-11.812-11.916a12.25,12.25,0,0,1-1.122-1.365,6.475,6.475,0,0,1-.709-1.238,33.316,33.316,0,0,1,7.567-.568c2.379,0,4.278.1,4.3.1l13.314.679-12.2-5.379c-.023-.01-2.41-1.067-4.944-2.431a25.41,25.41,0,0,1-4.844-3.124,7.215,7.215,0,0,1,1.445-.622,13.84,13.84,0,0,1,1.916-.469l18.745-2.822-18.85-2.048a9.918,9.918,0,0,1-1.8-.394,34.925,34.925,0,0,1,4.063-2.491c2.364-1.283,4.574-2.3,4.6-2.313l11.462-5.274-12.6.59c-.017,0-1.712.078-3.9.078-5.1,0-7.357-.4-8.284-.651a6.575,6.575,0,0,1,.819-1.322,12.907,12.907,0,0,1,1.255-1.4l10.7-9.947L286.747,418a11.23,11.23,0,0,1-3.06.831,22.01,22.01,0,0,1,2.181-4.044c1.309-2.037,2.639-3.762,2.652-3.779l6.526-8.442-9.56,4.739c-3.383,1.676-9.678,4.335-12.171,4.335h-.036a5.276,5.276,0,0,1-.179-2.438,15.415,15.415,0,0,1,.45-2.5l3.057-10.583-7.263,8.282a17.137,17.137,0,0,1-1.869,1.762,5.711,5.711,0,0,1-2.616,1.417c-.214-.354-.821-1.666-1.047-5.424-.157-2.612-.04-4.985-.039-5.009l.433-8.509Z" fill="#fff"/>
  </g>
</svg>
