<svg xmlns="http://www.w3.org/2000/svg" width="110.491" height="78.471" viewBox="0 0 110.491 78.471">
  <g id="Group_2231" data-name="Group 2231" transform="translate(-564.602 -966.956)">
    <path id="Path_10299" data-name="Path 10299" d="M619.847,1045.427c-6.387,0-24.853-1.853-24.5-7.033.126-1.836,2.161-3.835,3.059-4.786,5.083,2.982,13.371,4.063,21.436,4.063s16.353-1.081,21.436-4.063c.9.951,2.933,2.95,3.063,4.786C644.7,1043.574,626.234,1045.427,619.847,1045.427Z" fill="#1f1f1f"/>
    <path id="Path_10300" data-name="Path 10300" d="M673.5,992.036c-4.392-11.766-17.909-15.407-26.206-11.23-17.1,8.609-11.356,26.084-16.971,27.331-4.173.926-4.741-6.241,1.373-15.6,6.147-9.406,11.73-10.856,10.608-16.6s-12.981-8.983-22.46-8.983-21.334,3.242-22.456,8.983,4.461,7.191,10.6,16.6c6.115,9.361,5.546,16.528,1.373,15.6-5.615-1.247.126-18.722-16.971-27.331-8.3-4.177-21.814-.536-26.206,11.23-3.494,9.361-.5,13.355,1.995,13.355,2.816,0,1.125-2.994,5.493-5.241,10.027-5.156,22.131,9.962,24.731,32,5.083,2.978,13.371,4.063,21.436,4.063s16.353-1.085,21.436-4.063c2.6-22.037,14.7-37.155,24.731-32,4.372,2.247,2.677,5.241,5.493,5.241C674,1005.391,677,1001.4,673.5,992.036Zm-99.163,1.922c-3.016-4.193,19.066-22.2,27.347,18.8a.415.415,0,0,1-.783.255C588.781,986.606,576.656,997.174,574.339,993.958Zm33.787-13.428c-1.032-1.065-1.2-2.227.861-3.047a30.243,30.243,0,0,1,21.72,0c2.06.821,1.893,1.983.861,3.047-7.837,8.109-10.163,18.047-11.309,29.307a.415.415,0,0,1-.825,0C618.289,998.576,615.963,988.638,608.126,980.53Zm12.079,53.387a.415.415,0,0,1-.716,0,20.094,20.094,0,0,0-6.619-6.618.415.415,0,0,1,0-.716,20.066,20.066,0,0,0,6.619-6.619.414.414,0,0,1,.716,0,20.069,20.069,0,0,0,6.619,6.618.414.414,0,0,1,0,.715A20.1,20.1,0,0,0,620.205,1033.917Zm45.151-39.959c-2.317,3.215-14.434-7.348-26.552,19.039a.417.417,0,0,1-.787-.257c8.284-40.973,30.354-22.975,27.339-18.782Z" fill="#1f1f1f"/>
  </g>
</svg>
