<svg xmlns="http://www.w3.org/2000/svg" width="31.693" height="56.728" viewBox="0 0 31.693 56.728">
  <g id="Group_236" data-name="Group 236" transform="translate(-40.593 -511.347)">
    <path id="Path_1076" data-name="Path 1076" d="M71.653,564.011c-2.965-6.821-7.857-29.062-8.171-31.388-.11-.816-13.592-.6-13.7.213-.313,2.326-5.479,23.976-8.444,30.8-.947,2.179,6.046-4.34,6.55-3.167s.9,9.051,1.4,7.375c.4-1.346,4.836-18.479,7.15-26.558,2.314,8.08,6.746,25.212,7.15,26.558.5,1.676.9-6.2,1.4-7.375S72.6,566.19,71.653,564.011Z" fill="#b4954b"/>
    <path id="Path_1077" data-name="Path 1077" d="M45.72,515.068c-10.743,10.861-3.094,24.9,9.064,26.382,14.293,1.74,20.288-13.594,16.287-21.048C66.514,511.91,52.841,507.869,45.72,515.068Z" fill="#d8c354"/>
    <path id="Path_1078" data-name="Path 1078" d="M49.256,518.828c-7.2,7.279-2.074,16.689,6.075,17.681,9.579,1.166,13.6-9.11,10.915-14.106C63.192,516.711,54.028,514,49.256,518.828Z" fill="#ebdb8b"/>
    <path id="Path_1079" data-name="Path 1079" d="M57.064,533.031h-.007a.911.911,0,0,1-.9-.918,66.606,66.606,0,0,0-.445-9.573,10.175,10.175,0,0,0-1.1,1.406c-.095.138-.181.265-.257.372a.911.911,0,1,1-1.483-1.059c.07-.1.148-.213.234-.339.758-1.114,2.028-2.977,3.535-2.224.5.248,1.419.71,1.335,11.432a.911.911,0,0,1-.911.9Z" fill="#fff"/>
  </g>
</svg>
