<svg xmlns="http://www.w3.org/2000/svg" width="112.907" height="95.192" viewBox="0 0 112.907 95.192">
  <g id="Group_2223" data-name="Group 2223" transform="translate(-639.662 -1519.597)">
    <path id="Path_10261" data-name="Path 10261" d="M696.116,1519.6c-11.086,7.154-16.2,19.573-17.813,31a36.181,36.181,0,0,0-19.887-9.874c-3.84,6.744-6.417,18.254-4.174,29.654a30.716,30.716,0,0,0-12.228-.9c.229,28.361,28.411,44.264,54.1,34.338,25.69,9.926,53.872-5.977,54.1-34.338a30.716,30.716,0,0,0-12.228.9c2.243-11.4-.333-22.91-4.174-29.654a36.181,36.181,0,0,0-19.887,9.874C712.312,1539.17,707.2,1526.751,696.116,1519.6Zm-46.583,58.265s5.194.361,8.207,2.513c2.152,5.165,11.621,17.646,23.672,19.368-20.659,5.165-31.419-11.19-31.878-21.88Zm61.288,21.88c12.051-1.722,21.52-14.2,23.672-19.368,3.013-2.152,8.207-2.513,8.207-2.513-.459,10.691-11.219,27.046-31.878,21.881Zm-45.484-19.726c-5.127-10.25-4.938-20.678-1.385-26.229,6.257,1.42,15.041,10.077,19.611,20.131,2.152,4.734,5.6,14.2,6.456,22.381-13.773.861-21.416-9.752-24.682-16.282Zm36.877,16.283c.861-8.177,4.3-17.646,6.456-22.381,4.57-10.054,13.354-18.71,19.612-20.131,3.553,5.551,3.742,15.979-1.385,26.229-3.266,6.53-10.91,17.144-24.682,16.283Zm-6.1-6.026c-13.414-21.95-10.244-45.328,0-51.648,10.244,6.32,13.414,29.7,0,51.648Z" fill="#1f1f1f"/>
    <path id="Path_10262" data-name="Path 10262" d="M649.992,1559.285a5.165,5.165,0,1,1-5.165-5.165,5.165,5.165,0,0,1,5.165,5.165Z" fill="#1f1f1f"/>
    <path id="Path_10263" data-name="Path 10263" d="M742.24,1559.285a5.165,5.165,0,1,0,5.165-5.165,5.165,5.165,0,0,0-5.165,5.165Z" fill="#1f1f1f"/>
    <circle id="Ellipse_123" data-name="Ellipse 123" cx="8.389" cy="8.389" r="8.389" transform="translate(664.411 1524)" fill="#1f1f1f"/>
    <circle id="Ellipse_124" data-name="Ellipse 124" cx="8.389" cy="8.389" r="8.389" transform="translate(711.043 1524)" fill="#1f1f1f"/>
    <path id="Path_10264" data-name="Path 10264" d="M696.116,1614.789c-1.852,0-9.621-3-11.631-5.849-.181-.256,7.284-.831,11.631-2.829,4.347,2,11.78,2.445,11.6,2.7C705.7,1611.656,697.968,1614.789,696.116,1614.789Z" fill="#1f1f1f"/>
  </g>
</svg>
