<svg xmlns="http://www.w3.org/2000/svg" width="259.266" height="172.825" viewBox="0 0 259.266 172.825">
  <g id="Group_2201" data-name="Group 2201" transform="translate(-1427.479 -173.2)">
    <path id="Path_9820" data-name="Path 9820" d="M1446.11,206.24a23.542,23.542,0,0,0,.2,3.225,17.294,17.294,0,0,0,.7,3.244,18.392,18.392,0,0,0,2.435-2,19.428,19.428,0,0,0,4.943-7.73,17.483,17.483,0,0,0,1.077-5.945,16.88,16.88,0,0,0-.93-6.146,17.855,17.855,0,0,0-7.335,9.23,20.965,20.965,0,0,0-.782,2.982,16.48,16.48,0,0,0-.314,3.138Z" fill="#1f1f1f"/>
    <path id="Path_9821" data-name="Path 9821" d="M1673.544,201.176a23.914,23.914,0,0,0-1.745,2.642c-.524.921-.977,1.883-1.433,2.868a24.366,24.366,0,0,0-1.126,3.068c-.307,1.057-.542,2.148-.771,3.256a15.246,15.246,0,0,0,5.976-2.073,17.638,17.638,0,0,0,4.862-4.3,20.352,20.352,0,0,0,3.116-6.033,21.016,21.016,0,0,0,.795-7.1,22.262,22.262,0,0,0-5.353,3.182,26.329,26.329,0,0,0-4.32,4.494Z" fill="#1f1f1f"/>
    <path id="Path_9822" data-name="Path 9822" d="M1678.278,212.828a46.612,46.612,0,0,0-3.777,2.9,37.749,37.749,0,0,0-3.4,3.332,44.989,44.989,0,0,0-8.143,12.315c1.6-4.359,2.9-8.543,3.959-12.416.278-.909.492-1.814.709-2.7s.43-1.744.638-2.584.428-1.654.586-2.458l.481-2.336.451-2.19c.146-.7.291-1.383.39-2.042l.6-3.61c.366-2.022.538-3.651.69-4.812a15.847,15.847,0,0,0,1.572-1.728,13.628,13.628,0,0,0,1.669-2.672,17.959,17.959,0,0,0,1.108-2.975q.213-.772.361-1.567.074-.4.131-.8t.069-.806a17.683,17.683,0,0,0-3.869-12.483,20.137,20.137,0,0,0-3.385,5.76,19.086,19.086,0,0,0-1.371,6.113q-.019.385-.021.77t-.016.767q0,.766.069,1.528a17.246,17.246,0,0,0,.543,3.009,22.766,22.766,0,0,0,1.016,2.9,17.143,17.143,0,0,0,.835,1.636l-.015.109c-.171,1.16-.354,2.872-.765,5.025-.19,1.079-.4,2.273-.629,3.574-.1.652-.254,1.324-.406,2.021l-.288,1.334c.029-.5.043-1.006.04-1.5a16.483,16.483,0,0,0-.314-3.139,21,21,0,0,0-.782-2.982,17.855,17.855,0,0,0-7.335-9.23,16.883,16.883,0,0,0-.93,6.146,17.48,17.48,0,0,0,1.077,5.945,19.43,19.43,0,0,0,4.943,7.73,18.5,18.5,0,0,0,2.218,1.835c-.067.256-.135.51-.2.771l-.655,2.554c-.223.872-.443,1.767-.727,2.665-.882,3.126-1.943,6.46-3.181,9.915a26.159,26.159,0,0,0-1.632-16.163,22.823,22.823,0,0,0-2.142-3.915,25.729,25.729,0,0,0-6.223-6.392,27.187,27.187,0,0,0-1.419,17.542,27.972,27.972,0,0,0,1.322,4.287,37.582,37.582,0,0,0,1.981,4.145,30.424,30.424,0,0,0,5.549,7.155c-1.018,2.468-2.118,4.97-3.33,7.494l-1.567,3.2c-.187.4-.395.791-.606,1.181.038-.123.078-.247.114-.37a21.087,21.087,0,0,0,.6-6.178,18.289,18.289,0,0,0-1.414-5.823,16.669,16.669,0,0,0-1.39-2.611,18.176,18.176,0,0,0-1.878-2.372,18.527,18.527,0,0,0-3.025,11.582q.057.756.176,1.513c.072.5.149.991.255,1.486a19.274,19.274,0,0,0,.867,2.931,19.957,19.957,0,0,0,2.848,5.045l-.013.023-1.914,3.172-.963,1.6-1.036,1.558-2.089,3.126c-.708,1.038-1.485,2.03-2.225,3.051l-.416.563a26.727,26.727,0,0,0,2.764-10.206,27.965,27.965,0,0,0-.19-4.52q-.138-1.106-.368-2.182a21.832,21.832,0,0,0-.6-2.15,25.2,25.2,0,0,0-1.761-4.074,23.761,23.761,0,0,0-2.487-3.722,26.9,26.9,0,0,0-6.16,16.068,27.992,27.992,0,0,0,.018,4.419q.091,1.126.268,2.267c.1.746.223,1.488.378,2.237a32.42,32.42,0,0,0,2.958,8.32c-.516.6-1.039,1.195-1.583,1.77-.853.926-1.67,1.885-2.548,2.779l-2.658,2.648c-.445.436-.875.887-1.329,1.31l-1,.9a17.828,17.828,0,0,0,2.325-5.1,15.989,15.989,0,0,0,.573-2.932,18.186,18.186,0,0,0,.007-2.985,16.739,16.739,0,0,0-1.489-5.708,17.537,17.537,0,0,0-2.292,2.034,17.759,17.759,0,0,0-1.814,2.351,17.27,17.27,0,0,0-2.431,5.336,19.315,19.315,0,0,0-.792,5.963,23.532,23.532,0,0,0,.252,3.078,19.247,19.247,0,0,0,.53,2.383c-.282.226-.565.451-.846.677-.948.751-1.864,1.532-2.853,2.2a103.577,103.577,0,0,1-8.811,5.818,25.929,25.929,0,0,0,2.473-2.843q.613-.816,1.151-1.66a16.76,16.76,0,0,0,.948-1.779,20.185,20.185,0,0,0,2.03-7.523,21.455,21.455,0,0,0-.081-3.866q-.108-.96-.3-1.909c-.134-.637-.31-1.289-.507-1.925-.566.337-1.145.646-1.694.984a17.761,17.761,0,0,0-2.99,2.325c-.464.414-.92.828-1.344,1.277a20.822,20.822,0,0,0-2.305,2.927,21.382,21.382,0,0,0-1.917,3.231q-.418.864-.776,1.781c-.251.588-.489,1.18-.7,1.8a27.741,27.741,0,0,0-1.034,3.847q-.194,1-.322,2.03-.143,1-.215,2.022a27.074,27.074,0,0,0-.021,3.352c-2.205,1.061-4.374,2.007-6.479,2.833l-1.338.541-.659.267c-.221.083-.445.152-.666.228l-.239.08a9.61,9.61,0,0,0,1.121-.892,19.088,19.088,0,0,0,1.954-2.082,17.16,17.16,0,0,0,1.559-2.286c.112-.2.22-.4.323-.6s.193-.424.282-.638q.269-.642.481-1.3a15.828,15.828,0,0,0,.767-5.428,13.966,13.966,0,0,0-2.664.912,13.694,13.694,0,0,0-1.217.637c-.392.233-.8.434-1.173.682a14.406,14.406,0,0,0-2.138,1.657,26.258,26.258,0,0,0-1.862,2.005,17.961,17.961,0,0,0-2.862,4.795c-.183.443-.345.909-.5,1.358s-.293.9-.414,1.369a17.764,17.764,0,0,0-.387,1.946l-.507.138-2.264.609c-.732.194-1.436.4-2.134.526l-3.644.746a13.586,13.586,0,0,0,1.356-1.005,10.338,10.338,0,0,0,3.64-6.246,9.983,9.983,0,0,0-1.909.3,11.487,11.487,0,0,0-1.8.531,10.633,10.633,0,0,0-3.154,1.956c-.235.207-.461.43-.682.653s-.437.435-.642.667a11.425,11.425,0,0,0-1.122,1.5,11.572,11.572,0,0,0-1.189,2.538l-.423.06c-1.42.2-2.321.341-2.631.343l-4.064.289c-.711.044-1.415.106-2.116.134l-2.056.014-1.119.005a3.838,3.838,0,0,0-7.044.288l-.913,0-2.056-.014c-.7-.028-1.411-.09-2.124-.134l-4.08-.29c-.311,0-1.215-.145-2.638-.344l-.293-.042a11.554,11.554,0,0,0-1.279-2.843,11.424,11.424,0,0,0-1.122-1.5q-.308-.348-.642-.667c-.22-.223-.447-.446-.682-.653A10.634,10.634,0,0,0,1534.5,300a11.485,11.485,0,0,0-1.8-.531,10,10,0,0,0-1.908-.3,10.337,10.337,0,0,0,3.64,6.246,13.229,13.229,0,0,0,2.1,1.454c-.2-.041-.392-.082-.595-.122l-3.862-.79c-.7-.123-1.406-.333-2.14-.528l-2.271-.611-.386-.1a17.633,17.633,0,0,0-.429-2.257q-.181-.7-.414-1.369c-.155-.45-.317-.916-.5-1.358a17.965,17.965,0,0,0-2.862-4.795,26.289,26.289,0,0,0-1.862-2.005,14.429,14.429,0,0,0-2.138-1.658c-.378-.247-.781-.448-1.173-.682a13.726,13.726,0,0,0-1.217-.636,13.965,13.965,0,0,0-2.664-.912,15.825,15.825,0,0,0,.767,5.428q.213.657.481,1.3.134.321.282.638c.1.2.211.4.323.6a17.145,17.145,0,0,0,1.559,2.286,19.069,19.069,0,0,0,1.954,2.082,9.693,9.693,0,0,0,1.131.9c.3.215.623.416.942.617l-1.291-.433c-.221-.076-.447-.145-.668-.228l-.661-.268-1.342-.543c-2.077-.815-4.217-1.747-6.392-2.791a27.017,27.017,0,0,0,0-3.662q-.071-1.025-.215-2.023-.127-1.03-.322-2.03a27.707,27.707,0,0,0-1.034-3.847c-.214-.615-.451-1.207-.7-1.8q-.358-.916-.776-1.781a21.368,21.368,0,0,0-1.917-3.231,20.821,20.821,0,0,0-2.306-2.927c-.425-.449-.881-.863-1.344-1.277a17.761,17.761,0,0,0-2.989-2.325c-.549-.338-1.128-.647-1.694-.984-.2.636-.373,1.288-.507,1.925s-.231,1.269-.3,1.909a21.478,21.478,0,0,0-.081,3.866,20.18,20.18,0,0,0,2.031,7.523,16.811,16.811,0,0,0,.948,1.779q.537.843,1.151,1.66a24.925,24.925,0,0,0,2.748,3.116q.4.35.814.693a103.934,103.934,0,0,1-10.073-6.552c-.992-.67-1.91-1.453-2.861-2.206-.251-.2-.5-.4-.756-.606a19.216,19.216,0,0,0,.621-2.68,23.467,23.467,0,0,0,.252-3.078,19.316,19.316,0,0,0-.792-5.964,17.273,17.273,0,0,0-2.431-5.336,17.729,17.729,0,0,0-1.814-2.351,17.526,17.526,0,0,0-2.292-2.034,16.742,16.742,0,0,0-1.489,5.708,18.185,18.185,0,0,0,.007,2.985,15.99,15.99,0,0,0,.573,2.932,17.354,17.354,0,0,0,2.66,5.578c.164.231.347.453.522.68l-.671-.6-1.389-1.243c-.455-.424-.887-.876-1.333-1.314l-2.665-2.655c-.881-.9-1.7-1.858-2.555-2.786-.518-.548-1.018-1.113-1.51-1.684a32.442,32.442,0,0,0,3.1-8.6c.155-.748.276-1.49.378-2.236q.176-1.14.267-2.267a27.979,27.979,0,0,0,.018-4.419,26.9,26.9,0,0,0-6.16-16.068,23.743,23.743,0,0,0-2.487,3.722,25.206,25.206,0,0,0-1.761,4.074,21.871,21.871,0,0,0-.6,2.15q-.23,1.075-.368,2.182a27.951,27.951,0,0,0-.189,4.52,26.982,26.982,0,0,0,3.75,12.018c-.173-.223-.338-.453-.508-.679l-1.127-1.526c-.742-1.022-1.52-2.018-2.23-3.058L1466.6,258.7l-1.039-1.561-.965-1.6-1.871-3.1a20,20,0,0,0,3.039-5.29,19.26,19.26,0,0,0,.867-2.931c.106-.495.182-.985.255-1.486s.138-1.009.176-1.513a18.527,18.527,0,0,0-3.025-11.582,18.2,18.2,0,0,0-1.878,2.372,16.67,16.67,0,0,0-1.39,2.611,18.289,18.289,0,0,0-1.414,5.823,21.087,21.087,0,0,0,.6,6.178c.2.677.427,1.355.686,2.028l-.6-1.106c-.292-.53-.58-1.059-.835-1.6l-1.57-3.211c-1.2-2.492-2.285-4.964-3.293-7.4a30.4,30.4,0,0,0,5.772-7.371,37.582,37.582,0,0,0,1.981-4.145,27.973,27.973,0,0,0,1.322-4.287,27.186,27.186,0,0,0-1.419-17.542,25.737,25.737,0,0,0-6.224,6.392,22.83,22.83,0,0,0-2.142,3.915,26.5,26.5,0,0,0-1.027,18.651c-1.63-4.322-2.978-8.478-4.064-12.326-.285-.9-.5-1.8-.728-2.669s-.443-1.727-.656-2.559-.44-1.638-.6-2.434l-.5-2.314-.468-2.17c-.152-.7-.3-1.371-.406-2.024-.23-1.3-.44-2.5-.63-3.581-.383-2.007-.569-3.625-.73-4.777a17.161,17.161,0,0,0,1.07-2.039,22.767,22.767,0,0,0,1.016-2.9,17.234,17.234,0,0,0,.543-3.009q.068-.761.069-1.528,0-.383-.016-.767t-.021-.77a19.082,19.082,0,0,0-1.37-6.113,20.139,20.139,0,0,0-3.385-5.76,17.683,17.683,0,0,0-3.869,12.483q.026.4.069.806t.131.8q.148.793.361,1.567a18,18,0,0,0,1.108,2.975,13.615,13.615,0,0,0,1.669,2.672,15.9,15.9,0,0,0,1.236,1.395l.014.111c.162,1.172.332,2.9.726,5.081l.6,3.617c.1.66.245,1.339.391,2.045.091.442.185.9.28,1.36-.179-.481-.37-.956-.577-1.422-.456-.985-.91-1.947-1.433-2.868a23.852,23.852,0,0,0-1.745-2.642,26.333,26.333,0,0,0-4.32-4.494,22.256,22.256,0,0,0-5.353-3.182,21.01,21.01,0,0,0,.795,7.1,20.345,20.345,0,0,0,3.116,6.033,17.64,17.64,0,0,0,4.863,4.3,16.039,16.039,0,0,0,2.861,1.344,15.866,15.866,0,0,0,2.844.687c.065.258.13.513.193.776l.639,2.589c.218.884.432,1.791.71,2.7.851,3.127,1.868,6.456,3.067,9.916a44.566,44.566,0,0,0-6.973-9.893,37.727,37.727,0,0,0-3.4-3.332,46.588,46.588,0,0,0-3.777-2.9,34.429,34.429,0,0,0-8.468-4.267,34.273,34.273,0,0,0,.63,5.646q.135.689.3,1.366c.118.45.254.894.394,1.334q.422,1.321.941,2.587t1.126,2.463a26.6,26.6,0,0,0,1.376,2.3,30.308,30.308,0,0,0,3.228,4.1,28.587,28.587,0,0,0,3.879,3.285,22.184,22.184,0,0,0,4.3,2.4,23.031,23.031,0,0,0,9.04,1.845c1.006,2.5,2.1,5.049,3.307,7.614l1.56,3.267c.191.419.4.828.621,1.237-.092-.111-.175-.229-.269-.339a26.959,26.959,0,0,0-9.917-7.664,24.137,24.137,0,0,0-2.953-1.049A20.744,20.744,0,0,0,1442,238.3q.173.917.419,1.8c.177.586.392,1.156.62,1.715a21.929,21.929,0,0,0,1.626,3.182,16.36,16.36,0,0,0,.989,1.444q.546.685,1.139,1.315a20.242,20.242,0,0,0,2.521,2.272q.666.5,1.362.941a16.489,16.489,0,0,0,1.461.78,17.409,17.409,0,0,0,3.045,1.117,15.34,15.34,0,0,0,5.823.406l.012.023,1.915,3.242.965,1.632,1.039,1.6,2.1,3.2c.711,1.063,1.492,2.082,2.236,3.128l.439.606a47.911,47.911,0,0,0-8.834-6.659,38.182,38.182,0,0,0-4.227-2.242q-1.095-.5-2.224-.926c-.75-.288-1.475-.571-2.23-.82a36.346,36.346,0,0,0-4.608-1.218,37.857,37.857,0,0,0-4.746-.607,22.535,22.535,0,0,0,.99,2.738q.563,1.334,1.224,2.6a26.622,26.622,0,0,0,3.112,4.707q.874,1.086,1.816,2.081a23.376,23.376,0,0,0,2.013,1.85,30.335,30.335,0,0,0,4.347,3.044,28.615,28.615,0,0,0,4.737,2.031q1.2.388,2.4.651a23.9,23.9,0,0,0,2.464.354,23.012,23.012,0,0,0,4.851-.059,21.174,21.174,0,0,0,4.122-.92c.519.616,1.046,1.225,1.593,1.816.862.954,1.687,1.94,2.576,2.863l2.69,2.733c.45.451.886.915,1.347,1.352l1.054.963a27.364,27.364,0,0,0-8.42-3.173,23.612,23.612,0,0,0-3.089-.471,23.321,23.321,0,0,0-6.278.315,20.277,20.277,0,0,0,2.2,3.027,19.714,19.714,0,0,0,2.614,2.536,20.336,20.336,0,0,0,6.167,3.247,17.9,17.9,0,0,0,6.543.671,14.248,14.248,0,0,0,3.141-.658,15.415,15.415,0,0,0,2.293-.954c.287.234.575.468.86.7.964.779,1.9,1.587,2.9,2.283a106.312,106.312,0,0,0,9.229,6.2,39.155,39.155,0,0,0-4.009-1.17q-1.043-.239-2.1-.413c-.709-.112-1.383-.261-2.084-.356a42.521,42.521,0,0,0-8.432-.3,33.065,33.065,0,0,0-4.183.545q-1.041.2-2.071.478c-.682.179-1.344.364-2.01.585a17.311,17.311,0,0,0,1.745,1.924q.923.9,1.906,1.722t2.008,1.543c.7.465,1.431.878,2.161,1.27a23.311,23.311,0,0,0,9.114,2.875q1.147.133,2.272.161c.763,0,1.524-.052,2.267-.129a22.063,22.063,0,0,0,4.29-.877,19.912,19.912,0,0,0,1.99-.741,20.271,20.271,0,0,0,1.9-1,19.589,19.589,0,0,0,2.773-2c2.258,1.114,4.481,2.109,6.639,2.981l1.372.57.676.281c.226.088.457.161.683.242l.245.085c-.5-.027-1-.027-1.482-.058a22.7,22.7,0,0,0-2.949.07,23.509,23.509,0,0,0-2.923.447l-1.427.33q-.7.174-1.395.395a21.172,21.172,0,0,0-5.268,2.517,21.387,21.387,0,0,0,3,1.819q.775.387,1.567.706a13.714,13.714,0,0,0,1.622.5,20.6,20.6,0,0,0,3.269.56,14.085,14.085,0,0,0,3.2-.029,16.623,16.623,0,0,0,5.832-1.83,12.469,12.469,0,0,0,1.26-.774,14.932,14.932,0,0,0,1.174-.933,14.5,14.5,0,0,0,1.427-1.451l.52.147,2.326.651c.752.208,1.475.429,2.192.564l3.747.808a13.816,13.816,0,0,0-1.7.363,14.739,14.739,0,0,0-3.547,1.525,12.856,12.856,0,0,0-3,2.3,13.456,13.456,0,0,0,2.1.8,11.722,11.722,0,0,0,2.154.322,12.61,12.61,0,0,0,4.144-.422c.326-.092.644-.192.956-.314s.619-.279.917-.436a10.969,10.969,0,0,0,1.669-1.088,9.985,9.985,0,0,0,1.963-2.071l.435.067c1.46.222,2.384.38,2.711.391l4.234.438c.738.074,1.485.167,2.2.225l.037,0c-5.111,6.746,3.048,27.447-10.307,30.286a.379.379,0,0,0-.23.6l2.579,3.406a.385.385,0,0,0,.375.145c18.584-3.492,4.66-28.139,11.26-33.591a3.882,3.882,0,0,0,5.866,0c6.6,5.452-7.324,30.1,11.261,33.591a.384.384,0,0,0,.375-.145l2.579-3.406a.379.379,0,0,0-.23-.6c-13.542-2.879-4.964-24.122-10.53-30.56l.336-.017c.716-.058,1.459-.151,2.195-.225l4.218-.437c.325-.011,1.247-.169,2.7-.39l.3-.046a9.946,9.946,0,0,0,2.137,2.337,10.95,10.95,0,0,0,1.669,1.088q.446.237.917.437c.312.122.63.222.956.314a12.609,12.609,0,0,0,4.144.422,11.723,11.723,0,0,0,2.154-.322,13.478,13.478,0,0,0,2.1-.8,12.862,12.862,0,0,0-3-2.3,14.74,14.74,0,0,0-3.547-1.524,14.446,14.446,0,0,0-2.564-.472c.2-.043.4-.087.6-.13l3.946-.851c.715-.135,1.436-.355,2.186-.563l2.319-.649.394-.111a14.458,14.458,0,0,0,1.631,1.694,14.9,14.9,0,0,0,1.174.933,12.474,12.474,0,0,0,1.26.774,16.622,16.622,0,0,0,5.832,1.83,14.074,14.074,0,0,0,3.2.029,20.6,20.6,0,0,0,3.269-.56,13.7,13.7,0,0,0,1.622-.5q.79-.319,1.567-.706a21.4,21.4,0,0,0,3-1.819,21.166,21.166,0,0,0-5.268-2.517q-.692-.221-1.395-.395l-1.427-.33a23.474,23.474,0,0,0-2.923-.447,22.676,22.676,0,0,0-2.949-.071c-.487.032-.993.031-1.494.059-.386.02-.772.059-1.157.1l1.315-.456c.226-.08.455-.153.681-.241l.674-.28,1.368-.569c2.118-.855,4.3-1.831,6.513-2.92a19.583,19.583,0,0,0,3.007,2.212,20.259,20.259,0,0,0,1.9,1,19.9,19.9,0,0,0,1.99.741,22.063,22.063,0,0,0,4.29.877c.744.077,1.5.126,2.267.129q1.124-.028,2.272-.161a23.309,23.309,0,0,0,9.114-2.876c.73-.392,1.462-.8,2.161-1.27q1.026-.726,2.008-1.543t1.906-1.722a17.275,17.275,0,0,0,1.745-1.924c-.665-.221-1.327-.406-2.01-.585s-1.377-.342-2.071-.478a33.117,33.117,0,0,0-4.183-.545,42.517,42.517,0,0,0-8.432.3c-.7.1-1.375.244-2.084.356s-1.407.254-2.1.413a39.8,39.8,0,0,0-4.109,1.2c-.4.12-.788.251-1.178.389a106.11,106.11,0,0,0,10.334-6.856c1-.694,1.934-1.5,2.9-2.277.254-.209.51-.417.766-.626a15.392,15.392,0,0,0,2.568,1.1,14.238,14.238,0,0,0,3.141.658,17.9,17.9,0,0,0,6.543-.671,20.332,20.332,0,0,0,6.167-3.247,19.708,19.708,0,0,0,2.615-2.536,20.25,20.25,0,0,0,2.2-3.027,23.319,23.319,0,0,0-6.278-.315,23.607,23.607,0,0,0-3.089.471,31.236,31.236,0,0,0-3.073.8,32.517,32.517,0,0,0-5.827,2.639c-.251.145-.494.307-.74.462l.676-.617,1.4-1.279c.459-.436.894-.9,1.344-1.349l2.684-2.726c.887-.921,1.71-1.9,2.57-2.856.519-.56,1.02-1.138,1.514-1.721a21.05,21.05,0,0,0,4.417,1.017,23.017,23.017,0,0,0,4.851.059,23.941,23.941,0,0,0,2.464-.354q1.2-.263,2.4-.65a28.625,28.625,0,0,0,4.737-2.032,30.317,30.317,0,0,0,4.348-3.044,23.406,23.406,0,0,0,2.013-1.85q.94-.994,1.816-2.081a26.632,26.632,0,0,0,3.112-4.707q.66-1.268,1.224-2.6a22.572,22.572,0,0,0,.99-2.738,37.857,37.857,0,0,0-4.746.606,36.362,36.362,0,0,0-4.608,1.218c-.755.249-1.48.533-2.23.82s-1.494.6-2.224.926a38.194,38.194,0,0,0-4.227,2.242,48.2,48.2,0,0,0-10.071,7.868c.1-.144.21-.286.315-.429l1.129-1.558c.743-1.044,1.522-2.061,2.231-3.121l2.091-3.194,1.037-1.591.962-1.629,1.864-3.156a15.277,15.277,0,0,0,6.133-.365,17.409,17.409,0,0,0,3.045-1.117,16.443,16.443,0,0,0,1.461-.78q.7-.436,1.361-.941a20.235,20.235,0,0,0,2.521-2.272q.591-.629,1.139-1.315a16.36,16.36,0,0,0,.989-1.444,21.911,21.911,0,0,0,1.626-3.182c.228-.56.444-1.129.62-1.715s.3-1.192.419-1.8a20.742,20.742,0,0,0-3.036.648,24.124,24.124,0,0,0-2.952,1.049,26.955,26.955,0,0,0-9.917,7.663c-.487.568-.936,1.172-1.368,1.791l.634-1.191c.29-.538.576-1.076.829-1.628l1.557-3.26c1.183-2.522,2.264-5.025,3.255-7.488a23,23,0,0,0,9.354-1.848,22.192,22.192,0,0,0,4.3-2.4,28.588,28.588,0,0,0,3.879-3.285,30.336,30.336,0,0,0,3.227-4.1,26.527,26.527,0,0,0,1.376-2.3q.607-1.2,1.126-2.463t.941-2.587c.139-.441.276-.885.394-1.334s.207-.907.3-1.366a34.273,34.273,0,0,0,.63-5.646,34.428,34.428,0,0,0-8.468,4.267Z" fill="#1f1f1f"/>
  </g>
</svg>
