<svg xmlns="http://www.w3.org/2000/svg" width="106.08" height="61.025" viewBox="0 0 106.08 61.025">
  <g id="Group_2249" data-name="Group 2249" transform="translate(-683.709 -1177.527)">
    <path id="Path_10370" data-name="Path 10370" d="M736.408,1229.451c15,0,28.13-.678,35.564-1.8l-2.647,6.131c-8.99,6.226-55.775,6.491-65.152,0l-2.643-6.12C708.846,1228.78,721.714,1229.451,736.408,1229.451Z" fill="#1f1f1f"/>
    <path id="Path_10371" data-name="Path 10371" d="M736.336,1209.751c-18.356,0-34.1.576-41.888,1.526l6.192,14.323c6.908,1.216,20.295,1.958,35.769,1.958,15.534,0,29.463-.761,36.458-1.973l6.184-14.3C771.177,1210.345,754.783,1209.751,736.336,1209.751Zm-30.963,11.531a2.4,2.4,0,1,1,2.4-2.4A2.4,2.4,0,0,1,705.373,1221.282Zm14.667.962a3.365,3.365,0,1,1,3.363-3.367,3.365,3.365,0,0,1-3.363,3.367Zm16.587,2.4c-2.655,0-4.81-3.068-4.81-6.851s2.155-6.854,4.81-6.854,4.81,3.068,4.81,6.854-2.155,6.851-4.81,6.851Zm16.587-2.4a3.365,3.365,0,1,1,3.367-3.366,3.365,3.365,0,0,1-3.367,3.366Zm14.667-.962a2.4,2.4,0,1,1,1.7-.7,2.4,2.4,0,0,1-1.7.7Z" fill="#1f1f1f"/>
    <path id="Path_10372" data-name="Path 10372" d="M789.38,1185.942a.409.409,0,0,1,.375.571l-6.922,16.016-3,6.945c-7.8-1-24.256-1.617-43.494-1.617-18.856,0-34.992.614-42.672,1.606l-3-6.934-6.922-16.016a.409.409,0,0,1,.375-.571h12.814a.409.409,0,0,1,.375.247l6.305,14.581a.406.406,0,0,0,.409.245q3.512-.312,7.217-.552a.41.41,0,0,0,.373-.319l3.067-13.881a.409.409,0,0,1,.4-.321h13.048a.409.409,0,0,1,.4.321l2.891,13.094a.408.408,0,0,0,.4.32c1.63-.02,3.276-.034,4.929-.034s3.3.013,4.929.034a.408.408,0,0,0,.4-.32l2.891-13.094a.409.409,0,0,1,.4-.321H758.42a.409.409,0,0,1,.4.321l3.067,13.88a.41.41,0,0,0,.373.319q3.7.244,7.217.552a.406.406,0,0,0,.409-.245l6.305-14.582a.409.409,0,0,1,.375-.247Z" fill="#1f1f1f"/>
    <path id="Path_10373" data-name="Path 10373" d="M692.873,1180.653a3.125,3.125,0,1,1-3.125-3.125,3.125,3.125,0,0,1,3.125,3.125Z" fill="#1f1f1f"/>
    <path id="Path_10374" data-name="Path 10374" d="M724.607,1180.653a3.125,3.125,0,1,1-3.125-3.125,3.125,3.125,0,0,1,3.125,3.125Z" fill="#1f1f1f"/>
    <path id="Path_10375" data-name="Path 10375" d="M756.342,1180.653a3.125,3.125,0,1,1-3.125-3.125A3.125,3.125,0,0,1,756.342,1180.653Z" fill="#1f1f1f"/>
    <path id="Path_10376" data-name="Path 10376" d="M788.076,1180.653a3.125,3.125,0,1,1-3.125-3.125A3.125,3.125,0,0,1,788.076,1180.653Z" fill="#1f1f1f"/>
  </g>
</svg>
