<svg xmlns="http://www.w3.org/2000/svg" width="128.508" height="146.915" viewBox="0 0 128.508 146.915">
  <g id="Group_2156" data-name="Group 2156" transform="translate(-159.234 -529.022)">
    <path id="Path_9641" data-name="Path 9641" d="M223.488,672.936c-15.059,0-27.453-4.782-36.836-14.213-24.8-24.923-24.535-75.91-24.394-103.3,0,0,0-.922.006-1.194,2.175.177,4.358.266,6.522.266a80.977,80.977,0,0,0,54.7-21.353,80.969,80.969,0,0,0,54.7,21.353c2.163,0,4.346-.089,6.522-.267,0,.272.006,1.191.006,1.191.14,27.393.4,78.381-24.4,103.3C250.94,668.154,238.546,672.936,223.488,672.936Z" fill="#fff"/>
    <path id="Path_9642" data-name="Path 9642" d="M223.488,537.141a83.835,83.835,0,0,0,54.7,20.352q1.763,0,3.538-.076c.127,27.37-.19,75.728-23.531,99.19-8.8,8.845-20.478,13.33-34.709,13.33s-25.909-4.485-34.709-13.33c-23.341-23.461-23.658-71.817-23.531-99.19q1.773.076,3.538.076a83.85,83.85,0,0,0,54.7-20.352m0-8.12a77.747,77.747,0,0,1-64.213,21.885c0,1.406-.01,2.908-.018,4.5-.143,27.828-.408,79.627,25.268,105.435,9.967,10.018,23.076,15.1,38.963,15.1s29-5.08,38.963-15.1c25.676-25.808,25.411-77.607,25.268-105.435-.008-1.589-.016-3.091-.018-4.5a77.747,77.747,0,0,1-64.213-21.885Z" fill="#1f1f1f"/>
  </g>
</svg>
