<svg xmlns="http://www.w3.org/2000/svg" width="34.874" height="37.552" viewBox="0 0 34.874 37.552">
  <g id="Group_75" data-name="Group 75" transform="translate(-26.874 -259.266)">
    <g id="Group_72" data-name="Group 72">
      <path id="Path_311" data-name="Path 311" d="M56.926,278.2v6.89h4.822V269.935H58.074l-8.5,10.679L42.345,271.2l1.148-1.263H37.751v5.4l1.607-1.034,8.726,10.794H51.07Z" fill="#93c01f"/>
      <path id="Path_312" data-name="Path 312" d="M42,278.892l-2.869-3.559-1.379,1.147v8.613H42Z" fill="#3c3c3b"/>
      <path id="Path_313" data-name="Path 313" d="M56.8,287.571c-2.757,1.935-6.3,5.878-11.38,5.878a15.357,15.357,0,1,1,0-30.715,16.193,16.193,0,0,1,9.749,3.561l-.571-4.575a17.367,17.367,0,0,0-9.178-2.452,18.559,18.559,0,0,0-18.545,18.537c0,10.225,8.319,19.012,18.545,19.012,7.032,0,12.328-5.377,15.472-9.246Z" fill="#3c3c3b"/>
      <path id="Path_314" data-name="Path 314" d="M54.064,265.435s1.039.507,3.554,3.7h4.111s-3.083-5.98-8.083-7.971Z" fill="#3c3c3b"/>
    </g>
  </g>
</svg>
