<svg xmlns="http://www.w3.org/2000/svg" width="212.274" height="214.388" viewBox="0 0 212.274 214.388">
  <g id="Group_2377" data-name="Group 2377" transform="translate(-1045.282 -695.896)">
    <g id="Group_2375" data-name="Group 2375">
      <path id="Path_10936" data-name="Path 10936" d="M1151.611,804.832h0Z" fill="#1f1f1f"/>
      <path id="Path_10937" data-name="Path 10937" d="M1151.611,804.832h0Z" fill="#1f1f1f"/>
      <path id="Path_10938" data-name="Path 10938" d="M1151.611,804.832Z" fill="#1f1f1f"/>
      <path id="Path_10939" data-name="Path 10939" d="M1151.611,804.832Z" fill="#1f1f1f"/>
      <path id="Path_10940" data-name="Path 10940" d="M1151.611,804.832Z" fill="#1f1f1f"/>
      <path id="Path_10941" data-name="Path 10941" d="M1151.608,804.832Z" fill="#1f1f1f"/>
      <path id="Path_10942" data-name="Path 10942" d="M1151.611,804.833h0Z" fill="#1f1f1f"/>
      <rect id="Rectangle_660" data-name="Rectangle 660" width="0.002" height="0.001" transform="translate(1151.607 804.829) rotate(-12.095)" fill="#1f1f1f"/>
      <path id="Path_10943" data-name="Path 10943" d="M1151.611,804.832Z" fill="#1f1f1f"/>
      <path id="Path_10944" data-name="Path 10944" d="M1151.611,804.832h0Z" fill="#1f1f1f"/>
      <path id="Path_10945" data-name="Path 10945" d="M1151.611,804.832h0Z" fill="#1f1f1f"/>
      <path id="Path_10946" data-name="Path 10946" d="M1151.611,804.832h0Z" fill="#1f1f1f"/>
      <path id="Path_10947" data-name="Path 10947" d="M1151.611,804.832Z" fill="#1f1f1f"/>
      <path id="Path_10948" data-name="Path 10948" d="M1151.611,804.833Z" fill="#1f1f1f"/>
      <path id="Path_10949" data-name="Path 10949" d="M1151.611,804.832Z" fill="#1f1f1f"/>
      <path id="Path_10950" data-name="Path 10950" d="M1151.611,804.832Z" fill="#1f1f1f"/>
      <path id="Path_10951" data-name="Path 10951" d="M1151.611,804.831h0Z" fill="#1f1f1f"/>
      <path id="Path_10952" data-name="Path 10952" d="M1151.608,804.832Z" fill="#1f1f1f"/>
      <path id="Path_10953" data-name="Path 10953" d="M1151.611,804.832Z" fill="#1f1f1f"/>
      <path id="Path_10954" data-name="Path 10954" d="M1151.611,804.833Z" fill="#1f1f1f"/>
      <path id="Path_10955" data-name="Path 10955" d="M1151.611,804.832Z" fill="#1f1f1f"/>
      <path id="Path_10956" data-name="Path 10956" d="M1151.611,804.832Z" fill="#1f1f1f"/>
      <path id="Path_10957" data-name="Path 10957" d="M1151.611,804.833Z" fill="#1f1f1f"/>
      <path id="Path_10958" data-name="Path 10958" d="M1151.611,804.832Z" fill="#1f1f1f"/>
      <path id="Path_10959" data-name="Path 10959" d="M1151.611,804.832h0Z" fill="#1f1f1f"/>
      <path id="Path_10960" data-name="Path 10960" d="M1134.926,797.921h0l-81.8,6.91h98.48Z" fill="#1f1f1f"/>
      <path id="Path_10961" data-name="Path 10961" d="M1145.216,806.1l-10.491,4.346-51.439-4.346h61.93m6.4-1.271h-98.483l81.8,6.912Z" fill="#1f1f1f"/>
      <path id="Path_10962" data-name="Path 10962" d="M1151.611,804.832l-16.685,6.912h0l-52.953,62.725h0l69.633-69.635Z" fill="#1f1f1f"/>
      <path id="Path_10963" data-name="Path 10963" d="M1102.4,757.42l43.79,43.79-10.49-4.346-33.3-39.445M1081.974,735.2l52.953,62.726,16.682,6.911L1081.975,735.2h0Z" fill="#1f1f1f"/>
      <path id="Path_10964" data-name="Path 10964" d="M1151.611,804.832l-6.912-16.685L1081.977,735.2l69.631,69.632Z" fill="#1f1f1f"/>
      <path id="Path_10965" data-name="Path 10965" d="M1081.975,735.2l69.633,69.635L1081.977,735.2l0,0Z" fill="#1f1f1f"/>
      <path id="Path_10966" data-name="Path 10966" d="M1151.608,804.833l-69.633,69.635,69.633-69.635Z" fill="#1f1f1f"/>
      <path id="Path_10967" data-name="Path 10967" d="M1151.611,804.833l69.631,69.633,0,0-69.634-69.635Z" fill="#1f1f1f"/>
      <path id="Path_10968" data-name="Path 10968" d="M1151.611,804.833l6.909,16.683h0l62.722,52.95-69.631-69.633Z" fill="#1f1f1f"/>
      <path id="Path_10969" data-name="Path 10969" d="M1147.987,810.253l-4.345,10.491-39.442,33.3,43.788-43.787m3.621-5.421-69.633,69.635,62.724-52.952,6.909-16.683Z" fill="#1f1f1f"/>
      <path id="Path_10970" data-name="Path 10970" d="M1157.031,808.455l10.491,4.345,33.3,39.445-43.791-43.79m-5.42-3.622,69.634,69.635h0l-52.953-62.725Z" fill="#1f1f1f"/>
      <path id="Path_10971" data-name="Path 10971" d="M1151.611,804.833h0l-6.909,16.683h0l6.912,81.8V804.833Z" fill="#1f1f1f"/>
      <path id="Path_10972" data-name="Path 10972" d="M1152.881,811.226l4.346,10.491-4.346,51.435V811.226m-1.271-6.394v98.481l6.909-81.8-6.909-16.683Z" fill="#1f1f1f"/>
      <path id="Path_10973" data-name="Path 10973" d="M1150.338,736.51v61.928l-4.345-10.491,4.345-51.437m1.273-30.16-6.912,81.8h0l6.912,16.685V706.35Z" fill="#1f1f1f"/>
      <path id="Path_10974" data-name="Path 10974" d="M1151.611,804.832h0Z" fill="#1f1f1f"/>
      <path id="Path_10975" data-name="Path 10975" d="M1151.611,804.832h0Z" fill="#1f1f1f"/>
      <path id="Path_10976" data-name="Path 10976" d="M1151.611,804.832h0Z" fill="#1f1f1f"/>
      <path id="Path_10977" data-name="Path 10977" d="M1151.611,804.833l16.683,6.911,81.8-6.912h-98.481Z" fill="#1f1f1f"/>
      <path id="Path_10978" data-name="Path 10978" d="M1151.611,804.833Z" fill="#1f1f1f"/>
      <path id="Path_10979" data-name="Path 10979" d="M1151.611,804.833Z" fill="#1f1f1f"/>
      <path id="Path_10980" data-name="Path 10980" d="M1151.611,804.833Z" fill="#1f1f1f"/>
      <path id="Path_10981" data-name="Path 10981" d="M1158.52,788.147l-6.909-81.8v98.481Z" fill="#1f1f1f"/>
      <path id="Path_10982" data-name="Path 10982" d="M1199.019,755.625l-43.788,43.787,4.346-10.492,39.442-33.3m22.223-20.425-62.722,52.947-6.909,16.684h0Z" fill="#1f1f1f"/>
      <path id="Path_10983" data-name="Path 10983" d="M1168.294,797.92l52.953-62.724h0l-69.634,69.635Z" fill="#1f1f1f"/>
      <path id="Path_10984" data-name="Path 10984" d="M1168.494,799.215l51.436,4.346H1158l10.49-4.346m-.2-1.294-16.683,6.912h98.481l-81.8-6.91v0Z" fill="#1f1f1f"/>
      <path id="Path_10985" data-name="Path 10985" d="M1221.245,735.2l0,0-69.631,69.632,69.634-69.635Z" fill="#1f1f1f"/>
    </g>
    <g id="Group_2376" data-name="Group 2376">
      <path id="Path_10986" data-name="Path 10986" d="M1170.353,896.612s.241.7.559,1.778.706,2.539,1.065,4.027l1,4.172c.285,1.175.508,2.016.545,2.2.148.724-.062,1.385-.489,1.484s-.909-.423-1.061-1.168c-.038-.184-.168-1.065-.31-2.279s-.3-2.757-.462-4.272-.351-3-.526-4.108S1170.35,896.612,1170.353,896.612Z" fill="#1f1f1f"/>
      <path id="Path_10987" data-name="Path 10987" d="M1165.933,874.159l1.854,7.448c.942,3.781,1.924,7.675,2.018,8.144.188.937-.007,1.767-.435,1.852s-.929-.6-1.117-1.542c-.1-.469-.688-4.443-1.243-8.3Z" fill="#1f1f1f"/>
      <path id="Path_10988" data-name="Path 10988" d="M1158.922,838.268s1.542,6.252,3.013,12.732,2.912,13.177,3.06,13.979c.3,1.606.184,2.971-.245,3.049s-1.016-1.158-1.311-2.761c-.149-.8-1.191-7.566-2.28-14.114S1158.923,838.268,1158.922,838.268Z" fill="#1f1f1f"/>
      <path id="Path_10989" data-name="Path 10989" d="M1199.92,881.412a12.919,12.919,0,0,1,1.226,1.642c.337.518.7,1.144,1.091,1.816l1.432,1.951c.984,1.361,1.955,2.761,2.718,3.852s1.318,1.874,1.428,2.046c.437.688.5,1.433.139,1.676s-1.029-.127-1.474-.825c-.11-.174-.59-1.021-1.228-2.193s-1.439-2.671-2.251-4.13l-.61-1.082-.3-.524-.149-.258-.073-.128a.856.856,0,0,1-.078-.159c-.3-.713-.591-1.368-.86-1.918A13.062,13.062,0,0,0,1199.92,881.412Z" fill="#1f1f1f"/>
      <path id="Path_10990" data-name="Path 10990" d="M1171.194,834.988s5.723,8.807,11.563,17.934l12.594,19.638c1.405,2.258,2.253,4.273,1.881,4.506s-1.818-1.409-3.224-3.67c-.711-1.127-6.423-10.727-11.926-20.06S1171.2,834.986,1171.194,834.988Z" fill="#1f1f1f"/>
      <path id="Path_10991" data-name="Path 10991" d="M1224.454,850.772,1239.9,859.8c.9.571,1.439,1.33,1.205,1.7s-1.153.209-2.053-.363c-.452-.284-4.118-2.857-7.648-5.383Z" fill="#1f1f1f"/>
      <path id="Path_10992" data-name="Path 10992" d="M1209.052,840.851s9.9,5.433,10.5,5.82.894,1,.658,1.365-.916.352-1.516-.034S1209.052,840.851,1209.052,840.851Z" fill="#1f1f1f"/>
      <path id="Path_10993" data-name="Path 10993" d="M1181.184,822.9s19.4,11.554,20.6,12.328,1.985,1.7,1.748,2.067-1.4.038-2.606-.736S1181.184,822.9,1181.184,822.9Z" fill="#1f1f1f"/>
      <path id="Path_10994" data-name="Path 10994" d="M1238.292,820.7s1.026.187,2.584.429,3.652.537,5.782.817,4.3.562,5.993.806,2.927.443,3.187.5c1.041.212,1.805.746,1.71,1.172s-1,.588-2.027.379l-3.116-.735-5.887-1.34c-2.1-.475-4.16-.963-5.691-1.354S1238.292,820.7,1238.292,820.7Z" fill="#1f1f1f"/>
      <path id="Path_10995" data-name="Path 10995" d="M1189.336,811.245l5.888,1.038,13.144,2.239,13.593,2.305c3.849.665,6.635,1.165,7.227,1.283,2.365.467,4.21,1.205,4.123,1.632s-2.07.386-4.432-.079L1208.22,815.3c-4.8-1.008-9.523-2.009-13.044-2.773Z" fill="#1f1f1f"/>
      <path id="Path_10996" data-name="Path 10996" d="M1239.935,786.247s.929-.154,2.309-.5,3.209-.873,5.1-1.354c.473-.118.951-.233,1.428-.337s.966-.2,1.4-.281c.866-.207,1.724-.438,2.46-.642,1.479-.414,2.566-.715,2.8-.764.939-.209,1.779-.008,1.858.421s-.6.92-1.517,1.125c-.232.047-1.322.248-2.85.52-.768.135-1.626.279-2.583.407-.486.048-.934.08-1.412.139s-.95.118-1.428.187c-1.907.281-3.793.631-5.209.82S1239.934,786.245,1239.935,786.247Z" fill="#1f1f1f"/>
      <path id="Path_10997" data-name="Path 10997" d="M1218.3,790.607l7.246-1.857c3.68-.943,7.469-1.921,7.925-2.016.912-.188,1.725.008,1.812.436s-.58.927-1.494,1.114c-.457.094-4.328.686-8.086,1.241Z" fill="#1f1f1f"/>
      <path id="Path_10998" data-name="Path 10998" d="M1188.928,796.391s19.055-4.541,20.269-4.787,2.272-.087,2.357.342-.832.971-2.05,1.211S1188.928,796.391,1188.928,796.391Z" fill="#1f1f1f"/>
      <path id="Path_10999" data-name="Path 10999" d="M1226.769,756.517s11.643-8.257,12.407-8.738,1.574-.571,1.807-.2-.2,1.06-.964,1.54S1226.769,756.517,1226.769,756.517Z" fill="#1f1f1f"/>
      <path id="Path_11000" data-name="Path 11000" d="M1186.087,782.1c-.024-.038,30.477-19.991,32.389-21.273,1.948-1.237,3.714-1.95,3.951-1.58s-1.151,1.678-3.1,2.916C1217.4,763.457,1186.063,782.065,1186.087,782.1Z" fill="#1f1f1f"/>
      <path id="Path_11001" data-name="Path 11001" d="M1197.5,731.9s2.2-3.664,4.435-7.464,4.463-7.75,4.743-8.213c.569-.917,1.327-1.48,1.7-1.252s.219,1.164-.353,2.086c-.282.463-2.854,4.224-5.426,7.81S1197.5,731.9,1197.5,731.9Z" fill="#1f1f1f"/>
      <path id="Path_11002" data-name="Path 11002" d="M1186.99,748.289l2.974-5.414c1.517-2.746,3.106-5.564,3.316-5.887.42-.646,1.057-.975,1.422-.736s.325.954-.094,1.6c-.209.321-2.126,2.919-3.976,5.452Z" fill="#1f1f1f"/>
      <path id="Path_11003" data-name="Path 11003" d="M1172.93,770.136s2-3.349,4.008-6.828,4.07-7.074,4.335-7.49c.53-.832,1.258-1.317,1.627-1.082s.239,1.1-.291,1.932c-.266.416-2.654,3.806-5.006,7.07S1172.929,770.136,1172.93,770.136Z" fill="#1f1f1f"/>
      <path id="Path_11004" data-name="Path 11004" d="M1167.977,718.666l.43-2.689c.25-1.621.568-3.8.885-6.008s.643-4.457.915-6.217.492-3.036.55-3.3c.226-1.078.771-1.873,1.194-1.778s.579,1.036.355,2.105l-.789,3.235-1.448,6.106c-.512,2.174-1.024,4.316-1.421,5.908Z" fill="#1f1f1f"/>
      <path id="Path_11005" data-name="Path 11005" d="M1158.883,764.419l3.194-17.764c1.625-9.02,3.222-18.325,3.428-19.431.424-2.21,1.107-3.937,1.538-3.857s.441,1.941.017,4.154c-.2,1.108-2.195,10.348-4.208,19.29Z" fill="#1f1f1f"/>
      <path id="Path_11006" data-name="Path 11006" d="M1135.078,718.035c.036-.008-4.3-18.627-4.477-19.837-.214-1.194-.029-2.224.4-2.3s.945.832,1.156,2.021C1132.33,699.111,1135.114,718.029,1135.078,718.035Z" fill="#1f1f1f"/>
      <path id="Path_11007" data-name="Path 11007" d="M1138.963,738.625l-1.612-6.651c-.828-3.374-1.727-6.835-1.814-7.251-.168-.833.038-1.58.466-1.67s.916.518,1.086,1.354c.087.419.6,3.972,1.04,7.421S1138.962,738.625,1138.963,738.625Z" fill="#1f1f1f"/>
      <path id="Path_11008" data-name="Path 11008" d="M1143.143,761.831s-.9-3.569-1.763-7.268-1.738-7.515-1.819-7.974c-.162-.918.057-1.722.488-1.8s.91.608,1.071,1.525c.082.46.556,4.342,1.039,8.106S1143.143,761.831,1143.143,761.831Z" fill="#1f1f1f"/>
      <path id="Path_11009" data-name="Path 11009" d="M1103.388,729.916s-2.2-2.914-4.375-6-4.381-6.276-4.628-6.666c-.488-.784-.584-1.606-.212-1.838s1.069.217,1.558,1c.247.392,2.114,3.8,3.951,7.079S1103.385,729.917,1103.388,729.916Z" fill="#1f1f1f"/>
      <path id="Path_11010" data-name="Path 11010" d="M1128.978,770.183,1118.79,754.92c-5.167-7.755-10.476-15.759-11.088-16.727-1.225-1.933-1.918-3.691-1.549-3.925s1.661,1.144,2.886,3.078Z" fill="#1f1f1f"/>
      <path id="Path_11011" data-name="Path 11011" d="M1071.292,754.127s-2.136-1.084-4.322-2.243-4.425-2.378-4.678-2.544a.833.833,0,1,1,.864-1.326c.254.165,2.269,1.716,4.24,3.2S1071.292,754.127,1071.292,754.127Z" fill="#1f1f1f"/>
      <path id="Path_11012" data-name="Path 11012" d="M1099.583,772.058s-5.239-2.978-10.583-6.159-10.843-6.467-11.488-6.871c-1.286-.82-2.142-1.781-1.908-2.151s1.469,0,2.757.816c.648.406,5.932,4.033,11.063,7.539S1099.58,772.062,1099.583,772.058Z" fill="#1f1f1f"/>
      <path id="Path_11013" data-name="Path 11013" d="M1121.294,786.013s-3.392-2-6.927-4-7.172-4.093-7.589-4.37c-.841-.542-1.325-1.283-1.087-1.647s1.108-.22,1.945.319c.414.275,3.829,2.689,7.154,5.03S1121.3,786.011,1121.294,786.013Z" fill="#1f1f1f"/>
      <path id="Path_11014" data-name="Path 11014" d="M1064.978,786.666s-4.074-.635-8.265-1.359-8.508-1.449-9.018-1.552c-1.018-.215-1.775-.731-1.686-1.159s.99-.606,2.013-.39c.513.1,4.756,1.219,8.86,2.326S1064.976,786.669,1064.978,786.666Z" fill="#1f1f1f"/>
      <path id="Path_11015" data-name="Path 11015" d="M1116.809,797.79l-6.3-1.281c-3.8-.759-8.891-1.743-14.069-2.725l-14.559-2.774c-4.12-.8-7.1-1.4-7.737-1.536-2.531-.553-4.506-1.36-4.41-1.786s2.221-.312,4.748.239l7.677,1.776,14.443,3.306c5.139,1.176,10.194,2.353,13.96,3.259Z" fill="#1f1f1f"/>
      <path id="Path_11016" data-name="Path 11016" d="M1062.334,820.25s-.893.213-2.254.513-3.187.685-5.042,1.069-3.734.782-5.2,1.109l-2.749.624c-.905.174-1.709-.018-1.8-.447s.581-.93,1.5-1.107c.231-.043,1.319-.2,2.821-.385s3.42-.386,5.306-.576,3.74-.376,5.121-.531Z" fill="#1f1f1f"/>
      <path id="Path_11017" data-name="Path 11017" d="M1087.464,816.123l-8.58,1.818c-4.359.915-8.857,1.837-9.4,1.923-1.08.173-2.01-.036-2.079-.468s.749-.922,1.829-1.1c.539-.085,5.1-.616,9.52-1.14Z" fill="#1f1f1f"/>
      <path id="Path_11018" data-name="Path 11018" d="M1116.966,811.053l-9.657,2.094c-4.908,1.053-9.97,2.115-10.577,2.218-1.216.206-2.26.024-2.333-.406s.853-.948,2.068-1.154c.607-.1,5.733-.774,10.707-1.437Z" fill="#1f1f1f"/>
      <path id="Path_11019" data-name="Path 11019" d="M1074.241,849.969s-2.924,1.883-5.92,3.854-6.091,4-6.474,4.216c-.761.441-1.558.491-1.776.111s.222-1.042.984-1.481c.382-.219,3.67-1.9,6.869-3.531S1074.241,849.969,1074.241,849.969Z" fill="#1f1f1f"/>
      <path id="Path_11020" data-name="Path 11020" d="M1122.457,822.133s-36.742,22.126-39.1,23.485-4.438,2.153-4.658,1.774,1.512-1.787,3.865-3.146S1122.457,822.132,1122.457,822.133Z" fill="#1f1f1f"/>
      <path id="Path_11021" data-name="Path 11021" d="M1102.908,880.087s-1.765,2.955-3.516,6.041-3.583,6.263-3.829,6.625c-.479.731-1.169,1.123-1.532.88s-.267-1.025.209-1.749c.245-.36,2.4-3.311,4.488-6.187S1102.905,880.085,1102.908,880.087Z" fill="#1f1f1f"/>
      <path id="Path_11022" data-name="Path 11022" d="M1116.432,859.448s-8.492,14.4-9.072,15.289-1.346,1.409-1.712,1.168-.193-1.151.388-2.036S1116.432,859.448,1116.432,859.448Z" fill="#1f1f1f"/>
      <path id="Path_11023" data-name="Path 11023" d="M1133.661,833.157s-10.55,17.545-11.261,18.63-1.583,1.77-1.949,1.53-.086-1.313.625-2.4S1133.661,833.157,1133.661,833.157Z" fill="#1f1f1f"/>
      <path id="Path_11024" data-name="Path 11024" d="M1131.2,894.309s-.638,3.306-1.213,6.73-1.18,6.958-1.284,7.375c-.194.832-.7,1.422-1.126,1.32s-.608-.855-.415-1.682c.1-.412,1.089-3.849,2.053-7.19S1131.2,894.308,1131.2,894.309Z" fill="#1f1f1f"/>
      <path id="Path_11025" data-name="Path 11025" d="M1143.878,840.351l-1.376,6.582c-.838,3.964-1.985,9.273-3.167,14.659l-5.1,23.2c-.615,2.636-1.449,4.7-1.877,4.6s-.282-2.32.336-4.96c.153-.66.924-3.748,2.009-8l3.859-15.017c1.374-5.34,2.714-10.6,3.7-14.531Z" fill="#1f1f1f"/>
    </g>
  </g>
</svg>
