<svg xmlns="http://www.w3.org/2000/svg" width="81.547" height="65.008" viewBox="0 0 81.547 65.008">
  <path id="Path_258" data-name="Path 258" d="M36.375,436.617C34.936,433.009,34,429,35.014,425.251s4.486-7.038,8.359-6.752c6.307.467,10,9.356,16.294,8.7,3.838-.4,6.29-4.306,7.437-7.991s1.69-7.759,4.224-10.67a9.618,9.618,0,0,1,16.3,3.049c1.365,3.783.258,7.943-.486,11.895s-.959,8.5,1.706,11.509c4.512,5.1,13.085,1.983,19.44,4.425,5.577,2.142,8.663,8.779,7.655,14.667s-5.485,10.806-10.869,13.395-11.566,3.093-17.519,2.591C68.082,468.422,43.889,455.447,36.375,436.617Z" transform="translate(-34.587 -405.231)" fill="#d6aa88"/>
</svg>
