<svg xmlns="http://www.w3.org/2000/svg" width="96.566" height="50.828" viewBox="0 0 96.566 50.828">
  <path id="Path_277" data-name="Path 277" d="M448.4,328.188c1.476-3.789,3.366-7.557,6.453-10.2s7.608-3.947,11.331-2.313a11.467,11.467,0,0,1,5.845,7.006,34.005,34.005,0,0,1,1.326,9.267q.363,7.276.727,14.551c.117,2.346.735,5.309,3.041,5.756a3.636,3.636,0,0,0,3.746-2.406,10.3,10.3,0,0,0,.389-4.76c-.331-4.182-.778-8.417-.057-12.55s2.8-8.242,6.427-10.359c5.614-3.28,13.24-.618,17.368,4.4s5.49,11.739,6.161,18.207a11.79,11.79,0,0,0,.937,4.2,3.758,3.758,0,0,0,3.415,2.227c2.018-.165,3.166-2.4,3.539-4.39.565-3.018.256-6.148.827-9.165s2.386-6.143,5.377-6.839a7.216,7.216,0,0,1,6.2,1.921,21.333,21.333,0,0,1,3.992,5.394,36.084,36.084,0,0,1,4.3,9.189c.836,3.289.658,6.993-1.257,9.795-2.646,3.872-7.74,5.06-12.371,5.8a228.848,228.848,0,0,1-71.921.037c-7.332-1.164-10.529-1.464-10.542-9.391a69.834,69.834,0,0,1,4.752-25.375Z" transform="translate(-443.648 -314.95)" fill="#efc196"/>
</svg>
