<svg xmlns="http://www.w3.org/2000/svg" width="38.973" height="40.723" viewBox="0 0 38.973 40.723">
  <g id="Group_213" data-name="Group 213" transform="translate(-889.774 -274.453)">
    <g id="Group_212" data-name="Group 212">
      <path id="Path_952" data-name="Path 952" d="M927.855,302.937c0-.02,0-.043-.007-.069,0-.053-.01-.12-.016-.2-.012-.162-.028-.378-.045-.63-.034-.5-.075-1.153-.115-1.794-.08-1.282-.154-2.534-.154-2.534h0a.371.371,0,0,1,.361-.383.376.376,0,0,1,.4.342l.009.155.025.418c.021.352.05.834.083,1.355.016.262.033.535.05.806a20.728,20.728,0,0,0,.154-5.93L889.94,295.5a28.286,28.286,0,0,0,.839,6.361c0-.028,0-.056,0-.082q0-.1-.019-.2a3.192,3.192,0,0,1-.034-.329c-.006-.114-.009-.231-.009-.347,0-.461.039-.9.039-.9V300a.377.377,0,0,1,.413-.332.37.37,0,0,1,.35.392v.017l0,.052c0,.046-.008.111-.013.19-.009.158-.018.371-.018.582,0,.106,0,.211.008.308a2.569,2.569,0,0,0,.026.257,2.59,2.59,0,0,1,.027.269c.005.094.007.194.007.3,0,.293-.018.606-.035.848s-.035.412-.035.412a.365.365,0,0,1-.212.293c.22.689.477,1.389.776,2.088.008-.1.018-.209.031-.315a7.873,7.873,0,0,0,.048-.929c0-.6-.047-1.11-.049-1.135h0a.369.369,0,0,1,.347-.394.378.378,0,0,1,.416.329s.052.549.052,1.2a8.58,8.58,0,0,1-.053,1.012,7.2,7.2,0,0,0-.048.856,8.4,8.4,0,0,0,.048.917h0a.345.345,0,0,1,0,.1q.186.345.387.684a10.321,10.321,0,0,0,.6.894q0-.12.009-.243c.018-.427.041-.879.065-1.291.047-.824.094-1.492.094-1.492h0a.377.377,0,0,1,.408-.338.37.37,0,0,1,.357.387l0,.066-.013.187c-.011.16-.026.387-.042.653-.033.533-.072,1.225-.1,1.858-.017.416-.029.808-.029,1.109a12.861,12.861,0,0,0,2.318,1.95c.029-.434.052-.926.07-1.4.038-1.028.052-1.994.054-2.206v-.043h0a.383.383,0,0,1,.766.008s-.018,1.663-.091,3.1c-.018.358-.04.7-.066,1a18.34,18.34,0,0,0,2.23,1.106c0-.117.007-.239.013-.367.011-.241.035-.561.065-.91s.066-.724.1-1.071c.069-.693.133-1.269.133-1.269h0a.378.378,0,0,1,.421-.323.369.369,0,0,1,.341.4l-.006.057c0,.037-.01.092-.018.16-.015.137-.036.331-.059.557-.047.452-.105,1.034-.15,1.55-.03.344-.053.659-.064.882s-.016.445-.018.635a24.959,24.959,0,0,0,3.094.921v-.009c.018-.409.034-.874.049-1.331.03-.914.053-1.8.062-2.144l0-.154h0a.383.383,0,0,1,.766.017s-.048,2-.108,3.463q-.007.167-.014.323c.932.187,1.8.313,2.548.392,0-.058,0-.116,0-.176,0-.373.022-.783.055-1.191s.076-.813.119-1.172c.086-.719.172-1.255.172-1.255v0a.38.38,0,0,1,.436-.3.366.366,0,0,1,.321.414l0,.013-.006.039c-.005.034-.013.085-.023.15-.019.13-.046.315-.076.538-.06.446-.131,1.042-.179,1.635-.032.4-.052.79-.052,1.136q0,.128,0,.246c.145.011.285.02.416.027a18.846,18.846,0,0,0,3.136-.18c0-.242-.02-.534-.043-.841-.027-.353-.063-.728-.1-1.077-.075-.7-.154-1.3-.171-1.424l0-.026h0a.367.367,0,0,1,.331-.407.38.38,0,0,1,.429.313s.182,1.328.274,2.5c.024.306.042.6.048.862.876-.128,1.8-.293,2.735-.484q-.014-.14-.029-.306c-.032-.362-.067-.8-.1-1.235-.064-.86-.117-1.667-.117-1.667h0a.371.371,0,0,1,.358-.385.377.377,0,0,1,.406.34l.006.095.018.26c.015.219.036.522.06.855.046.636.1,1.386.15,1.883.9-.2,1.788-.419,2.634-.655,0-.214,0-.458,0-.715,0-.876-.011-1.893-.016-2.345,0-.151,0-.239,0-.239h0a.383.383,0,0,1,.766-.009s.019,1.418.019,2.594c0,.171,0,.337,0,.493.72-.216,1.393-.44,1.995-.669,0-.078,0-.161,0-.249,0-.658-.049-1.562-.1-2.332s-.109-1.41-.122-1.549l0-.028h0a.369.369,0,0,1,.349-.393.377.377,0,0,1,.414.331s.057.629.115,1.438c.056.787.111,1.743.115,2.471a9.914,9.914,0,0,0,.961-.474,5.065,5.065,0,0,0,1.069-.864c-.018-.138-.036-.292-.056-.459-.058-.493-.123-1.092-.185-1.671-.122-1.159-.229-2.241-.229-2.241h0a.369.369,0,0,1,.346-.4.378.378,0,0,1,.417.328l.013.128.035.348c.029.294.071.7.117,1.151.068.659.148,1.409.22,2.033a14.4,14.4,0,0,0,.968-1.414q-.021-.165-.04-.346c-.065-.607-.118-1.34-.161-2.049-.085-1.418-.128-2.742-.128-2.742v0a.383.383,0,0,1,.765-.022l0,.089c0,.058.005.142.009.249.008.214.02.516.036.872.032.712.08,1.637.144,2.486.008.1.015.2.023.3.3-.578.581-1.2.847-1.852q-.023-.146-.044-.307c-.079-.589-.147-1.311-.2-2.014-.112-1.406-.176-2.736-.176-2.736v0a.371.371,0,0,1,.365-.38.376.376,0,0,1,.4.346l0,.086c0,.056.007.138.013.242.011.208.028.5.049.849.041.667.1,1.526.176,2.326q.2-.593.367-1.211c0-.012-.006-.023-.008-.035S927.857,302.957,927.855,302.937Z" fill="#d1b339"/>
      <path id="Path_953" data-name="Path 953" d="M891.479,303.293s.017-.172.035-.414.035-.555.035-.848c0-.1,0-.2-.007-.3a2.588,2.588,0,0,0-.027-.268,2.534,2.534,0,0,1-.026-.257c-.005-.1-.008-.2-.008-.308,0-.211.009-.424.018-.582,0-.079.009-.145.013-.19l0-.052v-.017a.37.37,0,0,0-.35-.392.377.377,0,0,0-.413.332h0s-.039.442-.039.9c0,.116,0,.233.009.347a3.228,3.228,0,0,0,.034.329,1.955,1.955,0,0,1,.019.2c0,.026,0,.054,0,.082.138.561.3,1.14.488,1.727A.364.364,0,0,0,891.479,303.293Z" fill="#c19f10"/>
      <path id="Path_954" data-name="Path 954" d="M892.782,307.218l-.074.008.074-.008Z" fill="#c19f10"/>
      <path id="Path_955" data-name="Path 955" d="M892.708,307.226l.074-.008h0Z" fill="#c19f10"/>
      <path id="Path_956" data-name="Path 956" d="M892.834,307.212a8.4,8.4,0,0,1-.048-.917,7.181,7.181,0,0,1,.048-.855,8.581,8.581,0,0,0,.053-1.013c0-.652-.052-1.194-.052-1.194a.379.379,0,0,0-.416-.336.369.369,0,0,0-.347.394h0c0,.025.049.539.049,1.135a7.886,7.886,0,0,1-.048.929c-.013.106-.023.212-.031.315.222.518.467,1.036.739,1.546Z" fill="#c19f10"/>
      <path id="Path_957" data-name="Path 957" d="M892.782,307.218h0l.053-.006h0Z" fill="#c19f10"/>
      <path id="Path_958" data-name="Path 958" d="M892.834,307.212h0l-.053.006.05.093a.348.348,0,0,0,0-.1Z" fill="#c19f10"/>
      <path id="Path_959" data-name="Path 959" d="M892.835,307.212h0Z" fill="#c19f10"/>
      <path id="Path_960" data-name="Path 960" d="M892.782,307.218l.052-.006h0l-.052.006Z" fill="#c19f10"/>
      <path id="Path_961" data-name="Path 961" d="M892.834,307.212Z" fill="#c19f10"/>
      <path id="Path_962" data-name="Path 962" d="M894.692,306.817c.016-.266.031-.493.042-.653l.013-.187,0-.066a.37.37,0,0,0-.357-.387.377.377,0,0,0-.408.338h0s-.047.669-.094,1.493c-.024.412-.047.864-.065,1.291,0,.082-.006.163-.009.243a10.9,10.9,0,0,0,.746.894c0-.3.012-.693.029-1.109C894.62,308.041,894.659,307.349,894.692,306.817Z" fill="#c19f10"/>
      <path id="Path_963" data-name="Path 963" d="M897.773,308.088a.383.383,0,0,0-.766-.008h0v.043c0,.212-.017,1.178-.054,2.206-.018.478-.041.97-.07,1.4q.36.24.733.458c.026-.3.048-.647.066-1C897.755,309.751,897.773,308.09,897.773,308.088Z" fill="#c19f10"/>
      <path id="Path_964" data-name="Path 964" d="M900.687,312.079c.045-.516.1-1.1.15-1.55.024-.226.044-.42.059-.557.007-.069.013-.123.018-.16l.006-.057a.369.369,0,0,0-.341-.4.378.378,0,0,0-.421.323h0s-.064.577-.133,1.27c-.035.347-.071.722-.1,1.071s-.055.669-.065.91c-.006.128-.01.251-.013.367q.379.158.761.3c0-.19.007-.4.018-.635S900.657,312.423,900.687,312.079Z" fill="#c19f10"/>
      <path id="Path_965" data-name="Path 965" d="M904.581,310.9a.383.383,0,0,0-.766-.017h0l0,.154c-.009.347-.032,1.23-.062,2.144-.015.457-.032.922-.049,1.331v.009q.386.089.759.164.007-.156.014-.323C904.533,312.895,904.581,310.9,904.581,310.9Z" fill="#c19f10"/>
      <path id="Path_966" data-name="Path 966" d="M907.823,313.761c.047-.594.119-1.189.179-1.635.03-.223.057-.409.076-.538l.023-.15.006-.039,0-.013a.366.366,0,0,0-.321-.414.38.38,0,0,0-.436.3h0s-.087.539-.173,1.258c-.043.359-.086.764-.119,1.172s-.055.818-.055,1.191c0,.06,0,.118,0,.176.272.029.529.052.768.069q0-.118,0-.246C907.771,314.552,907.792,314.157,907.823,313.761Z" fill="#c19f10"/>
      <path id="Path_967" data-name="Path 967" d="M911.77,311.526a.38.38,0,0,0-.429-.313.367.367,0,0,0-.331.407h0l0,.026c.018.129.1.726.171,1.424.037.349.073.724.1,1.077.023.307.039.6.043.841q.374-.047.764-.1c-.006-.262-.024-.556-.048-.862C911.951,312.854,911.77,311.53,911.77,311.526Z" fill="#c19f10"/>
      <path id="Path_968" data-name="Path 968" d="M915.37,311.5l-.018-.26-.006-.095a.377.377,0,0,0-.406-.34.371.371,0,0,0-.358.385h0s.053.808.117,1.668c.032.43.067.872.1,1.235q.015.166.029.306.377-.077.753-.161c-.047-.5-.1-1.247-.15-1.883C915.406,312.023,915.385,311.72,915.37,311.5Z" fill="#c19f10"/>
      <path id="Path_969" data-name="Path 969" d="M918.964,310.277a.384.384,0,0,0-.766.009h0s0,.088,0,.239c.005.453.016,1.469.016,2.345,0,.256,0,.5,0,.715q.391-.109.768-.222c0-.156,0-.322,0-.493C918.983,311.7,918.964,310.278,918.964,310.277Z" fill="#c19f10"/>
      <path id="Path_970" data-name="Path 970" d="M921.516,308.474a.377.377,0,0,0-.414-.331.369.369,0,0,0-.349.393h0l0,.028c.012.138.069.778.122,1.549s.1,1.675.1,2.332c0,.088,0,.172,0,.249.272-.1.529-.207.768-.311,0-.728-.059-1.684-.115-2.471C921.573,309.1,921.516,308.476,921.516,308.474Z" fill="#c19f10"/>
      <path id="Path_971" data-name="Path 971" d="M924.116,307.083l-.035-.348-.013-.127a.378.378,0,0,0-.417-.328.369.369,0,0,0-.346.4h0s.107,1.083.229,2.242c.061.58.127,1.178.185,1.671.02.167.039.321.056.459a9.485,9.485,0,0,0,.677-.78c-.072-.624-.151-1.375-.22-2.033C924.187,307.784,924.145,307.377,924.116,307.083Z" fill="#c19f10"/>
      <path id="Path_972" data-name="Path 972" d="M925.905,304.9c-.016-.356-.028-.659-.036-.872,0-.107-.007-.191-.009-.249l0-.089a.383.383,0,0,0-.766.022h0s.043,1.326.128,2.744c.043.71.1,1.442.161,2.049q.019.181.04.346.333-.55.652-1.17c-.008-.1-.016-.2-.023-.3C925.986,306.538,925.937,305.613,925.905,304.9Z" fill="#c19f10"/>
      <path id="Path_973" data-name="Path 973" d="M927.84,306.446l-.054.033.056-.03v0Z" fill="#c19f10"/>
      <path id="Path_974" data-name="Path 974" d="M927.84,306.446l-.054.033.054-.033Z" fill="#c19f10"/>
      <path id="Path_975" data-name="Path 975" d="M927.842,306.449h0v0Z" fill="#c19f10"/>
      <path id="Path_976" data-name="Path 976" d="M927.84,306.446Z" fill="#c19f10"/>
      <path id="Path_977" data-name="Path 977" d="M927.278,301.068c-.006-.1-.01-.186-.013-.242l0-.086a.376.376,0,0,0-.4-.347.371.371,0,0,0-.365.38h0s.064,1.332.176,2.738c.056.7.124,1.425.2,2.014q.022.16.044.307c.208-.511.4-1.042.584-1.589-.075-.8-.135-1.659-.176-2.326C927.306,301.57,927.289,301.276,927.278,301.068Z" fill="#c19f10"/>
      <path id="Path_978" data-name="Path 978" d="M928.4,299.6c-.032-.522-.061-1-.083-1.355-.011-.176-.019-.319-.025-.418l-.009-.154a.376.376,0,0,0-.4-.342.371.371,0,0,0-.361.383h0s.075,1.252.154,2.534c.04.641.081,1.29.115,1.794.017.252.032.468.045.63.006.081.012.148.016.2,0,.026,0,.049.007.069s0,.036.008.059a.332.332,0,0,0,.008.035,25.132,25.132,0,0,0,.578-2.629C928.432,300.131,928.415,299.859,928.4,299.6Z" fill="#c19f10"/>
    </g>
    <path id="Path_979" data-name="Path 979" d="M911.814,274.867s-8.75-2.016-14,2.845S888.94,287.79,889.94,295.5s4.125,13.516,13.249,15.531,16.5.593,20.5-4.387,5.5-10.077,4.75-15.887-3.519-11.263-6.822-13.042S911.814,274.867,911.814,274.867Z" fill="#e2c549"/>
    <path id="Path_980" data-name="Path 980" d="M914.034,293.81a5.241,5.241,0,0,0-3-2.062l-.244-.094-1.11-.432-.168-4.242c.106.014.214.032.324.053a4.28,4.28,0,0,1,.746.221c.14.054.278.114.411.178a2.378,2.378,0,0,1,.328.182l.031.019a.987.987,0,0,0,1.335-.216,1.008,1.008,0,0,0,.165-.775.87.87,0,0,0-.385-.585,6.946,6.946,0,0,0-3.032-1.02l-.091-2.309a1,1,0,0,0,.147-1.006l-.275-.7a.966.966,0,0,0-1.84.514l.142,3.589a5.966,5.966,0,0,0-2.174.884,3.126,3.126,0,0,0-1.235,1.508,3.034,3.034,0,0,0,.012,2,4.643,4.643,0,0,0,2.708,2.64c.3.138.623.277.984.424l.274,6.945a2.257,2.257,0,0,1-.453.015,2.554,2.554,0,0,1-1.391-.555,4.654,4.654,0,0,1-1.138-1.287,12.54,12.54,0,0,1-.843-1.746.917.917,0,0,0-.519-.5.962.962,0,0,0-1.247,1.28,9.529,9.529,0,0,0,1.961,3.247,4.731,4.731,0,0,0,3.617,1.483l.089-.006.183,3.618a.813.813,0,0,0,.316.6,1.063,1.063,0,0,0,.666.238.87.87,0,0,0,.131-.011.983.983,0,0,0,.8-1.08l-.194-3.9a11.512,11.512,0,0,0,1.554-.911,6.58,6.58,0,0,0,2.491-2.748,3.93,3.93,0,0,0-.078-3.451Zm-1.765.8a.772.772,0,0,0,.09.15c.016.031.031.064.046.1s.03.072.046.118l.007.028.018.061.008.027a2.534,2.534,0,0,1,.048.3l0,.035c0,.025,0,.052.006.08h0c0,.053,0,.1,0,.142a3.025,3.025,0,0,1-.037.322h0c-.006.034-.012.067-.019.1l-.006.031c-.011.041-.024.083-.037.123a3.171,3.171,0,0,1-.115.3c-.02.047-.043.095-.068.145l-.029.053-.019.034a4.373,4.373,0,0,1-.464.632,7.209,7.209,0,0,1-1.758,1.382l-.216-5.453c.257.1.517.2.771.294l.107.042c.237.092.481.187.713.292a2.409,2.409,0,0,1,.6.343,1.289,1.289,0,0,1,.313.311Zm-6.4-6.095c0-.032.005-.066.008-.1s.007-.073.009-.11v-.018l0-.01c.021-.062.045-.121.074-.193l.007-.018.013-.017.034-.046c.037-.051.072-.1.109-.144l.015-.019.009-.008c.068-.063.125-.112.179-.155s.09-.069.136-.1l.084-.056h0l.051-.028a4.832,4.832,0,0,1,1-.4l.133,3.356c-.2-.086-.369-.168-.529-.252a3.085,3.085,0,0,1-1.069-.908l-.016-.026-.011-.018c-.028-.049-.055-.1-.08-.154s-.046-.1-.067-.156l-.012-.032-.021-.058c-.017-.066-.028-.137-.04-.211l-.012-.074-.005-.028Z" fill="#fff"/>
  </g>
</svg>
