<svg xmlns="http://www.w3.org/2000/svg" width="52.956" height="57.96" viewBox="0 0 52.956 57.96">
  <g id="Group_336" data-name="Group 336" transform="translate(-1072.244 -347.66)">
    <g id="Group_335" data-name="Group 335">
      <path id="Path_1339" data-name="Path 1339" d="M1095.488,355.355c-5.907-.886-16.769,5.382-13.019,12.432a2.33,2.33,0,0,0,.252.377c1.593,6.9,9.987,8.948,15.219,4.021,2.713-2.555,3.975-6.922,3.768-10.561C1101.493,357.821,1099.122,355.9,1095.488,355.355Z" fill="#a84749"/>
      <path id="Path_1340" data-name="Path 1340" d="M1106.269,352.005c-5.165-5.4-13.752-4.608-20.441-3.673-6.383.891-11.063,5.476-12.911,11.528-2.089,6.844.939,14.162,5.535,19.221a1.9,1.9,0,0,0,1.885.62,17.411,17.411,0,0,0,14.925,4.016c6.822-1.187,11.735-6.422,13.789-12.81C1110.979,364.918,1110.815,356.758,1106.269,352.005Zm-.924,17.552a14.351,14.351,0,0,1-23.705,6.827,14.735,14.735,0,0,1-4.231-12.589c.647-5.027,4.266-8.76,8.366-11.327,5.155-1.177,11.572-1.522,16.227,1.238C1107.15,356.758,1106.638,364.575,1105.345,369.557Z" fill="#a84749"/>
    </g>
    <path id="Path_1341" data-name="Path 1341" d="M1093.688,373.076a4.324,4.324,0,0,0-.762,1.877,99.887,99.887,0,0,0-2.419,18.372c-.074,1.946-1.211,6.679,1.751,5.536,2.5-.966,5.057-3.416,7.29-4.924a7.412,7.412,0,0,1,2.189-1.146c3.253-.858,5.638,3.594,7.432,5.654l6.245,7.174,9.785-7.3-8.153-6.957c-1.557-1.328-3.134-2.636-4.671-3.987-1.508-1.326-1.735-1.564.016-3.02a59.39,59.39,0,0,1,5.078-3.81c2.684-1.783,2.994-2.657-.341-3.692a113.789,113.789,0,0,0-11.928-3.005C1102.911,373.4,1095.5,371,1093.688,373.076Z" fill="#1a5e73"/>
  </g>
</svg>
