<svg xmlns="http://www.w3.org/2000/svg" width="75.524" height="70.894" viewBox="0 0 75.524 70.894">
  <g id="Group_34" data-name="Group 34" transform="translate(-635.279 -312.23)">
    <path id="Path_319" data-name="Path 319" d="M709.652,346.445a2.616,2.616,0,0,0-1.9-.849H637.875a2.633,2.633,0,0,0-2.59,2.814,37.643,37.643,0,0,0,75.059,0,2.622,2.622,0,0,0-.691-1.965ZM695.766,368.4a32.468,32.468,0,0,1-45.881.015,31.782,31.782,0,0,1-9.106-17.627h64.079a30.792,30.792,0,0,1-9.092,17.612Z" fill="#7dc242" style="mix-blend-mode: multiply;isolation: isolate"/>
    <path id="Path_320" data-name="Path 320" d="M709.7,319.832l-10.132-7.13a2.6,2.6,0,0,0-3.356.314s-26.277,27.019-26.574,27.32a20.617,20.617,0,0,0-5.975,12.915c-.645,7.3,2.664,11.256,5.551,13.29s7.731,3.811,14.394.731a21.075,21.075,0,0,0,9.475-8.75c.339-.5,17.453-35.422,17.453-35.422a2.6,2.6,0,0,0-.835-3.268Zm-21.08,36.041a16.016,16.016,0,0,1-7.2,6.69c-3.59,1.657-6.6,1.569-9.218-.27s-3.717-4.648-3.363-8.624a15.547,15.547,0,0,1,4.524-9.719c.351-.355,25.025-25.728,25.025-25.728l6.5,4.579Z" fill="#257cc0" style="mix-blend-mode: multiply;isolation: isolate"/>
  </g>
</svg>
