<svg xmlns="http://www.w3.org/2000/svg" width="391.382" height="121.075" viewBox="0 0 391.382 121.075">
  <g id="Group_2185" data-name="Group 2185" transform="translate(-14.808 -1861.142)">
    <path id="Path_9729" data-name="Path 9729" d="M353.616,1982.217c19.27,0,39.437-7.542,52.573-19.452a116.973,116.973,0,0,1-27.487-6.049,1.858,1.858,0,0,1-.888-2.805,129.453,129.453,0,0,0,9.93-16.739c-8.926,6.574-20.757,10.341-33.177,10.342h0c-1.832,0-3.63-.089-5.388-.256l-11.867,11.868-14.732,14.814C331.106,1979.357,341.779,1982.217,353.616,1982.217Z" fill="#1f1f1f"/>
    <path id="Path_9730" data-name="Path 9730" d="M71.821,1947.257c-1.759.167-3.558.257-5.392.257-12.418,0-24.25-3.767-33.176-10.342a129.362,129.362,0,0,0,9.93,16.738,1.859,1.859,0,0,1-.888,2.806,117.029,117.029,0,0,1-27.487,6.049c13.136,11.91,33.3,19.453,52.574,19.453,11.837,0,22.51-2.86,31.039-8.278l-14.735-14.818Z" fill="#1f1f1f"/>
    <path id="Path_9731" data-name="Path 9731" d="M97.583,1967.826l-4.261-15q-2.863,2.455-5.643,5.043Z" fill="#1f1f1f"/>
    <path id="Path_9732" data-name="Path 9732" d="M333.318,1957.866q-2.783-2.583-5.643-5.044l-4.261,15Z" fill="#1f1f1f"/>
    <path id="Path_9733" data-name="Path 9733" d="M53.909,1924.089l31.135,31.135C119.9,1922.823,164.384,1905,210.5,1905s90.6,17.823,125.453,50.224l31.135-31.135c-43.094-40.608-98.627-62.947-156.59-62.947S97,1883.48,53.909,1924.089Z" fill="#1f1f1f"/>
  </g>
</svg>
