<svg xmlns="http://www.w3.org/2000/svg" xmlns:xlink="http://www.w3.org/1999/xlink" width="78.465" height="60.955" viewBox="0 0 78.465 60.955">
  <defs>
    <linearGradient id="linear-gradient" x1="0.907" y1="1.016" x2="0.067" y2="-0.134" gradientUnits="objectBoundingBox">
      <stop offset="0" stop-color="#f15c27"/>
      <stop offset="1" stop-color="#fde963"/>
    </linearGradient>
  </defs>
  <path id="Path_271" data-name="Path 271" d="M1656.83,107.7a1.761,1.761,0,0,0,.975.605l75.32,15.363a1.782,1.782,0,0,0,1.424-.332,1.375,1.375,0,0,0,.487-1.262h0l-9.8-58.134a1.5,1.5,0,0,0-.7-1.01,2.1,2.1,0,0,0-1.514-.08L1667.84,84.876a1.415,1.415,0,0,0-.795.709c-.268.51-10.182,20.5-10.32,20.785a1.265,1.265,0,0,0,.1,1.329Zm71.471,10.089-31.434-17.472,16.209-3.384Zm-59.1-29.6,19.631,10.947-27.959,5.823Zm2.605-1.838,49.436-19.735-8.715,27.575-19.4,4.05Zm59.035,29.78-15.331-21,7.688-24.333Zm-6.094,2.977-59.656-12.168,27.473-5.722Z" transform="translate(-1656.584 -62.745)" fill="url(#linear-gradient)"/>
</svg>
