<svg xmlns="http://www.w3.org/2000/svg" width="28.22" height="46.436" viewBox="0 0 28.22 46.436">
  <g id="Group_206" data-name="Group 206" transform="translate(-326.77 -186.691)">
    <path id="Path_937" data-name="Path 937" d="M331.5,199.877l-1.446.087,1.447-.077v-.01l-1.446.087,1.447-.077-.213.012.213-.011h0l-.213.012.213-.011s0-.087,0-.236a11.388,11.388,0,0,1,.132-1.667,10.682,10.682,0,0,1,.427-1.791,8.181,8.181,0,0,1,.593-1.359,6.485,6.485,0,0,1,.62-.926,5.533,5.533,0,0,1,1.263-1.153,6.207,6.207,0,0,1,1.854-.813,16.067,16.067,0,0,1,4.08-.529,13.811,13.811,0,0,1,3.81.512,9.832,9.832,0,0,1,2.425,1.052,7.561,7.561,0,0,1,1.45,1.149,6.85,6.85,0,0,1,.861,1.077,7.386,7.386,0,0,1,.909,2.056,10.313,10.313,0,0,1,.347,2.759,12.707,12.707,0,0,1-.252,2.7,6.227,6.227,0,0,1-.506,1.482,4.213,4.213,0,0,1-.563.852,4.425,4.425,0,0,1-.6.578,6.375,6.375,0,0,1-.646.452,15.4,15.4,0,0,1-1.43.755c-.4.193-.833.393-1.286.619-.339.17-.69.354-1.047.564a10.155,10.155,0,0,0-1.613,1.159,8.012,8.012,0,0,0-1.453,1.7,14.947,14.947,0,0,0-1.282,2.536A16.924,16.924,0,0,0,338.63,217a18.661,18.661,0,0,0-.221,2.861,14.122,14.122,0,0,0,.119,1.956,2.362,2.362,0,1,0,4.671-.7l-1.376.206,1.377-.2v-.01l-1.375.206,1.377-.2h0a10.081,10.081,0,0,1-.068-1.265,13.8,13.8,0,0,1,.323-2.971,11.783,11.783,0,0,1,.529-1.741,10.21,10.21,0,0,1,.876-1.735,3.159,3.159,0,0,1,.323-.426,3.639,3.639,0,0,1,.366-.352,6.08,6.08,0,0,1,.925-.624c.319-.181.683-.362,1.082-.553.349-.167.725-.342,1.12-.536a15.069,15.069,0,0,0,2.2-1.282,9.392,9.392,0,0,0,1.644-1.5,8.894,8.894,0,0,0,1.052-1.522,9.869,9.869,0,0,0,.616-1.364,12.494,12.494,0,0,0,.6-2.392,18.721,18.721,0,0,0,.2-2.841,15.5,15.5,0,0,0-.325-3.226,12.812,12.812,0,0,0-.8-2.5,11.654,11.654,0,0,0-3.558-4.555,13.079,13.079,0,0,0-2.252-1.4,15.636,15.636,0,0,0-3.714-1.258,19.054,19.054,0,0,0-3.879-.389,20.77,20.77,0,0,0-5.291.687,11.134,11.134,0,0,0-2.639,1.066,10.218,10.218,0,0,0-1.847,1.336,10.455,10.455,0,0,0-1.256,1.367,11.742,11.742,0,0,0-1.482,2.56,14.845,14.845,0,0,0-.991,3.554,16.077,16.077,0,0,0-.188,2.392c0,.288.01.467.012.51a2.362,2.362,0,0,0,4.715-.285Z" fill="#a84749"/>
    <path id="Path_938" data-name="Path 938" d="M340.863,229.033l-2.36-.087-.064,1.733a2.361,2.361,0,0,0,2.323,2.448h.05c.085,0,.216,0,.391-.02a4.051,4.051,0,0,0,.473-.074,3.6,3.6,0,0,0,.47-.136,3.221,3.221,0,0,0,.431-.194,2.987,2.987,0,0,0,.367-.234,2.837,2.837,0,0,0,.574-.572,2.757,2.757,0,0,0,.435-.862h0a2.875,2.875,0,0,0,.1-.454,3.041,3.041,0,0,0,.026-.4,3.345,3.345,0,0,0-.057-.607,3.787,3.787,0,0,0-.279-.88,3.906,3.906,0,0,0-.339-.6,3.677,3.677,0,0,0-.352-.436,3.281,3.281,0,0,0-.786-.616,3.011,3.011,0,0,0-.56-.242,2.9,2.9,0,0,0-.678-.129,2.361,2.361,0,0,0-2.52,2.269l2.36.087-.16,2.356.122-1.8-.672,1.671a1.806,1.806,0,0,0,.549.125l.122-1.8-.672,1.671.61-1.518-.928,1.348a1.626,1.626,0,0,0,.318.17l.61-1.518-.928,1.348.741-1.077-1.017.827a1.3,1.3,0,0,0,.275.249l.741-1.077-1.017.827.715-.582-.8.458a.914.914,0,0,0,.086.124l.715-.582-.8.458.716-.409-.789.236a.8.8,0,0,0,.073.173l.716-.409-.789.236,1.044-.312-1.075.174a1.083,1.083,0,0,0,.031.138l1.044-.312-1.075.174,1.39-.225h-1.407a1.408,1.408,0,0,0,.017.225l1.39-.225h.256l-1.649-.216a1.664,1.664,0,0,0-.014.216h1.664l-1.649-.216,1.822.239-1.759-.528a1.845,1.845,0,0,0-.062.289l1.822.239-1.759-.528h0l1.884.566-1.744-.911a1.981,1.981,0,0,0-.141.346l1.884.565-1.744-.911,1.716.9-1.348-1.39a1.945,1.945,0,0,0-.367.493l1.716.9-1.348-1.39,1.255,1.294-.951-1.532a1.8,1.8,0,0,0-.3.238l1.255,1.294-.951-1.532.844,1.36-.644-1.465a1.6,1.6,0,0,0-.2.106l.844,1.36-.644-1.465.507,1.153-.3-1.224a1.256,1.256,0,0,0-.2.071l.507,1.153-.3-1.224.168.682-.063-.7a.68.68,0,0,0-.105.019l.168.682-.063-.7.061.684v-.686c-.032,0-.044,0-.061,0l.061.684v.861l.025-1.546h-.025v1.547l.025-1.546-.038,2.361,2.36.087.064-1.733-2.36-.087-.16,2.356Z" fill="#a84749"/>
  </g>
</svg>
