<svg xmlns="http://www.w3.org/2000/svg" width="27.382" height="25.02" viewBox="0 0 27.382 25.02">
  <g id="Group_520" data-name="Group 520" transform="translate(-452.617 -701.404)">
    <path id="Path_1807" data-name="Path 1807" d="M456.818,722.2a11.672,11.672,0,0,1,.828-18.564c4.308-3.057,10.867-3.435,15.042,1.778,2.957,3.7,3.161,9.009,1.285,12.216-1.173,2-3.874,3.484-5.525,1.508-1.5-1.795.176-3.39.762-5.485,2.1-7.522-8.308-12.847-13.79-5.616C452.623,711.733,452.778,717.422,456.818,722.2Z" fill="#ececec" fill-rule="evenodd"/>
    <path id="Path_1808" data-name="Path 1808" d="M476,705.8a11.67,11.67,0,0,1-1.255,18.542c-4.378,2.957-10.94,3.182-15-2.124-2.874-3.764-2.955-9.081-1.005-12.242,1.219-1.975,3.953-3.4,5.561-1.379,1.459,1.827-.255,3.384-.89,5.464-2.269,7.471,8.012,13.038,13.657,5.931C479.953,716.37,479.93,710.675,476,705.8Z" fill="#009ee2" fill-rule="evenodd"/>
  </g>
</svg>
