<svg xmlns="http://www.w3.org/2000/svg" width="73.431" height="73.476" viewBox="0 0 73.431 73.476">
  <g id="Group_76" data-name="Group 76" transform="translate(-1065.956 -698.46)">
    <path id="Path_579" data-name="Path 579" d="M1076.636,709.3a35.4,35.4,0,0,0-10.675,25.926,35.921,35.921,0,0,0,9.095,24.4c12.584-26.415,32.959-42.24,56.7-46.623h.108a39.549,39.549,0,0,0-7.9-7.681,16.69,16.69,0,0,1-.271,4.9c-2.561.709-4.739,1.309-6.537,1.853a18.425,18.425,0,0,1,2.179-9.7,36.931,36.931,0,0,0-42.7,6.917Zm29.356-9.478A24.558,24.558,0,0,1,1108.5,716c-3.051,1.8-6.1,3.759-9.313,5.72C1098.367,714.856,1100.655,707.558,1105.992,699.823Zm-21.4,10.294c3.312,2,8.224,10.994,8.441,16.775-2.723,2.233-9.259,8.879-9.8,9.532C1080.864,731.4,1080.761,719.249,1084.588,710.117Z" fill="#48935a"/>
    <path id="Path_580" data-name="Path 580" d="M1139.38,735.227a33.634,33.634,0,0,0-5.991-19.88c-2.171.041-8.687,3.074-10.621,4.248a16.751,16.751,0,0,1,10.621,5.664c-5.748,3.4-13.092,2.238-17.973-1.253a72.541,72.541,0,0,0-9.151,7.19c12.507-.811,18.782,5.636,20.861,8.006-6.838,3.559-16.216,5.662-27.124-1.416-3.486,4.738-7.789,11.056-7.789,11.11a30.32,30.32,0,0,1,27.56,9.8c-12.1,5.194-21.031,5.746-32.134-.708,0,0-3.27,6.48-4.087,8.715a36.956,36.956,0,0,0,45.043-5.557,35.08,35.08,0,0,0,10.785-25.924Z" fill="#a0cc3a"/>
  </g>
</svg>
