<svg xmlns="http://www.w3.org/2000/svg" width="57.46" height="46.04" viewBox="0 0 57.46 46.04">
  <g id="Group_309" data-name="Group 309" transform="translate(-122.688 -271.797)">
    <g id="Group_307" data-name="Group 307">
      <path id="Path_1230" data-name="Path 1230" d="M176.721,282.247a34.118,34.118,0,0,1-4.7,6.211c-3.452,3.859-16.855,13.2-18.682,14.621s-3.452,0-4.577,0-17.354-11.168-21.01-13.4-4.288-4.6-4.288-4.6a11.017,11.017,0,0,0-.335,2.37s-2.077,28.023,2.8,29.241,40.207,1.828,47.517,0C179.659,315.129,177.505,289.791,176.721,282.247Z" fill="#a5afb7"/>
      <path id="Path_1231" data-name="Path 1231" d="M176.488,280.132s.1.788.234,2.114C177.293,281.1,177.35,280.285,176.488,280.132Z" fill="#acb18f"/>
      <path id="Path_1232" data-name="Path 1232" d="M127.752,289.676c3.655,2.234,19.884,13.4,21.01,13.4s2.749,1.422,4.577,0,15.23-10.762,18.682-14.621a34.117,34.117,0,0,0,4.7-6.211c-.137-1.326-.234-2.114-.234-2.114s-6.108-1.828-27.726,0c-18.865,1.595-24.036.412-25.3,4.94C123.464,285.073,124.1,287.443,127.752,289.676Z" fill="#b4bcc1"/>
    </g>
    <g id="Group_308" data-name="Group 308">
      <path id="Path_1233" data-name="Path 1233" d="M160.589,282.7a9.9,9.9,0,1,0,19.324-4.271,6.107,6.107,0,0,0-.663-1.728,8,8,0,0,0-3.178-2.665c-2.558-1.413-5.444-2.573-8.336-2.152C162.948,272.581,159.618,277.96,160.589,282.7Z" fill="#a84749"/>
      <path id="Path_1234" data-name="Path 1234" d="M171.506,284.778c-.148,0-.323-.007-.493-.014-.038-2.711.024-5.418.065-8.129a.583.583,0,0,0-1.079-.292c-.454.67-.92,1.33-1.388,1.991-.3.427.389.959.725.559.158-.188.32-.375.479-.563-.111,2.141-.113,4.288-.081,6.432a2.186,2.186,0,0,0-1.156.317.511.511,0,0,0,.007.867l-.007.016c.722.527,2.064.288,2.927.3a.745.745,0,0,0,0-1.488Z" fill="#f2f2f2"/>
    </g>
  </g>
</svg>
