<svg xmlns="http://www.w3.org/2000/svg" xmlns:xlink="http://www.w3.org/1999/xlink" width="56.394" height="56.372" viewBox="0 0 56.394 56.372">
  <defs>
    <linearGradient id="linear-gradient" x1="0.419" y1="1.066" x2="0.527" y2="0.275" gradientUnits="objectBoundingBox">
      <stop offset="0" stop-color="#1072ba"/>
      <stop offset="1" stop-color="#55a4db"/>
    </linearGradient>
    <linearGradient id="linear-gradient-2" x1="0.187" y1="1.073" x2="0.835" y2="-0.117" gradientUnits="objectBoundingBox">
      <stop offset="0" stop-color="#f15c27"/>
      <stop offset="1" stop-color="#fde963"/>
    </linearGradient>
  </defs>
  <g id="Group_130" data-name="Group 130" transform="translate(-788.729 -822.903)">
    <path id="Path_719" data-name="Path 719" d="M801.868,857.782C809.853,866,814.9,870.394,817,871.108a7.135,7.135,0,0,0,5.265-.758,8.079,8.079,0,0,0,3.313-4v-.061a9.688,9.688,0,0,0-.92-4.99L811.3,838.575a6.258,6.258,0,0,0-3.853-3.01,1.8,1.8,0,0,1-1.586-1.57,1.6,1.6,0,0,0-.362-.838,1.438,1.438,0,0,0-.979-.482h-3.979a1.417,1.417,0,0,0-1.013.482,2.037,2.037,0,0,0-.411.742,2.336,2.336,0,0,1-.616,1.17c-.333.274-.691.613-1.072.613h-8.683v21.8H800.6A1.736,1.736,0,0,1,801.868,857.782Zm5.532-15.23a2.838,2.838,0,1,1-2.838,2.838,2.838,2.838,0,0,1,2.838-2.838Zm-5.5-5.5a2.837,2.837,0,1,1-2.838,2.836,2.837,2.837,0,0,1,2.838-2.836Zm-5.748,11.422a2.838,2.838,0,1,1,2.838-2.836,2.838,2.838,0,0,1-2.838,2.836Zm2.662,2.66a2.836,2.836,0,1,1,.83,2.009,2.837,2.837,0,0,1-.83-2.009Z" fill="url(#linear-gradient)"/>
    <path id="Path_720" data-name="Path 720" d="M835.146,822.9H798.461q-9.277,0-9.733,9.02h7.546c.2-.752.465-.646.807-.951a4.614,4.614,0,0,1,3.464-1.3h3.979A4.864,4.864,0,0,1,809,832.623a9.1,9.1,0,0,1,5.152,4.3l13.139,22.685a9.377,9.377,0,0,1,1.013,7.629,9.959,9.959,0,0,1-12.213,7.057c-2.378-.539-7.781-4.789-16.207-13.807H788.752v8.961c0,6.459,3.222,9.828,9.709,9.828h36.685c6.45,0,9.976-3.369,9.976-9.828v-36.67C845.123,826.288,841.6,822.9,835.146,822.9Z" fill="url(#linear-gradient-2)"/>
  </g>
</svg>
