<svg xmlns="http://www.w3.org/2000/svg" width="287.599" height="287.596" viewBox="0 0 287.599 287.596">
  <g id="Group_2258" data-name="Group 2258" transform="translate(-1654.325 -1073.365)">
    <g id="Group_2253" data-name="Group 2253">
      <path id="Path_10386" data-name="Path 10386" d="M1865.555,1126.1a63.178,63.178,0,0,1-12.714.392,58.537,58.537,0,0,1-29.268-12.128,63.125,63.125,0,0,1-8.712-9.27,62.017,62.017,0,0,0-7.342-8.28,13.677,13.677,0,0,0-18.775.005,61.788,61.788,0,0,0-7.332,8.28,62.781,62.781,0,0,1-8.708,9.265,58.77,58.77,0,0,1-29.276,12.123,62.7,62.7,0,0,1-12.708-.4,62.026,62.026,0,0,0-11.041-.673,13.681,13.681,0,0,0-13.284,13.27,62.128,62.128,0,0,0,.663,11.047,63.262,63.262,0,0,1,.391,12.715,58.544,58.544,0,0,1-12.128,29.268,63.192,63.192,0,0,1-9.268,8.712,61.755,61.755,0,0,0-8.282,7.342,13.68,13.68,0,0,0,.006,18.775,61.786,61.786,0,0,0,8.281,7.332,62.843,62.843,0,0,1,9.264,8.708,58.777,58.777,0,0,1,12.123,29.278,62.767,62.767,0,0,1-.4,12.706,61.743,61.743,0,0,0-.674,11.042,13.679,13.679,0,0,0,13.27,13.283,61.8,61.8,0,0,0,11.047-.662,63.124,63.124,0,0,1,12.715-.392,58.532,58.532,0,0,1,29.267,12.127,63.121,63.121,0,0,1,8.711,9.27,62.127,62.127,0,0,0,7.343,8.282,13.681,13.681,0,0,0,18.776-.007,61.754,61.754,0,0,0,7.331-8.28,63.038,63.038,0,0,1,8.707-9.265,58.777,58.777,0,0,1,29.277-12.122,62.671,62.671,0,0,1,12.709.4,62.074,62.074,0,0,0,11.039.672,13.677,13.677,0,0,0,13.284-13.27,61.955,61.955,0,0,0-.662-11.047,63.164,63.164,0,0,1-.391-12.714,58.518,58.518,0,0,1,12.128-29.27,63.158,63.158,0,0,1,9.267-8.711,61.825,61.825,0,0,0,8.282-7.343,13.681,13.681,0,0,0-.005-18.775,61.871,61.871,0,0,0-8.28-7.332,62.825,62.825,0,0,1-9.266-8.709,58.769,58.769,0,0,1-12.122-29.276,62.684,62.684,0,0,1,.4-12.708,61.731,61.731,0,0,0,.673-11.04,13.679,13.679,0,0,0-13.269-13.282A61.932,61.932,0,0,0,1865.555,1126.1Z" fill="#1f1f1f"/>
      <path id="Path_10387" data-name="Path 10387" d="M1878.138,1109.317c-4.655.346-9.485.941-14.864.577a67.733,67.733,0,0,1-35.341-14.644c-4.061-3.547-7.052-7.384-10.1-10.92a38.936,38.936,0,0,0-8.05-7.481,21.228,21.228,0,0,0-23.312,0,38.869,38.869,0,0,0-8.032,7.481c-3.04,3.537-6.027,7.367-10.081,10.914a68.064,68.064,0,0,1-35.368,14.645c-5.377.358-10.2-.238-14.848-.591a38.861,38.861,0,0,0-10.97.388,21.221,21.221,0,0,0-16.489,16.476,38.884,38.884,0,0,0-.406,10.983c.345,4.655.943,9.485.577,14.863a67.753,67.753,0,0,1-14.644,35.344c-3.546,4.06-7.385,7.053-10.921,10.1a38.912,38.912,0,0,0-7.482,8.052,21.22,21.22,0,0,0,.005,23.308,38.8,38.8,0,0,0,7.482,8.033c3.536,3.039,7.366,6.028,10.914,10.084a68.05,68.05,0,0,1,14.645,35.367c.359,5.376-.238,10.2-.59,14.847a38.829,38.829,0,0,0,.387,10.969,21.227,21.227,0,0,0,16.477,16.491,38.875,38.875,0,0,0,10.981.4c4.655-.344,9.486-.942,14.864-.577a67.7,67.7,0,0,1,35.341,14.644c4.06,3.546,7.052,7.384,10.1,10.921a38.941,38.941,0,0,0,8.051,7.481,21.225,21.225,0,0,0,23.31-.005,38.824,38.824,0,0,0,8.034-7.482c3.039-3.536,6.027-7.366,10.082-10.912a68.039,68.039,0,0,1,35.368-14.643c5.375-.359,10.2.237,14.846.59a38.842,38.842,0,0,0,10.97-.387,21.22,21.22,0,0,0,16.491-16.475,38.856,38.856,0,0,0,.4-10.985c-.344-4.653-.942-9.484-.576-14.861a67.748,67.748,0,0,1,14.643-35.344c3.547-4.06,7.385-7.052,10.92-10.1a38.845,38.845,0,0,0,7.483-8.051,21.225,21.225,0,0,0-.005-23.308,38.8,38.8,0,0,0-7.482-8.034c-3.537-3.039-7.367-6.027-10.913-10.084a68.035,68.035,0,0,1-14.645-35.366c-.359-5.376.239-10.2.592-14.847a38.854,38.854,0,0,0-.389-10.971,21.226,21.226,0,0,0-16.477-16.489A38.855,38.855,0,0,0,1878.138,1109.317Zm15.241,12.632c3.251,3.287,3.62,7.459,3.316,14.157-.242,4.849-.8,10.436-.348,16.671a76.129,76.129,0,0,0,16.766,40.484c4.086,4.731,8.429,8.288,12.03,11.545,4.951,4.524,7.639,7.736,7.662,12.358-.02,4.623-2.71,7.839-7.658,12.371-3.6,3.263-7.942,6.827-12.034,11.562a75.853,75.853,0,0,0-16.769,40.474c-.458,6.241.092,11.832.329,16.683.294,6.7-.078,10.881-3.335,14.162-3.286,3.253-7.46,3.622-14.159,3.317-4.847-.244-10.435-.8-16.668-.346a76.086,76.086,0,0,0-40.486,16.764c-4.729,4.086-8.286,8.428-11.543,12.028-4.524,4.951-7.735,7.641-12.358,7.664-4.625-.02-7.84-2.71-12.372-7.66-3.263-3.6-6.827-7.943-11.561-12.032a75.924,75.924,0,0,0-40.474-16.772c-6.239-.456-11.831.1-16.684.333-6.7.293-10.88-.082-14.161-3.337-3.252-3.286-3.621-7.458-3.317-14.159.243-4.848.8-10.433.348-16.668a76.136,76.136,0,0,0-16.765-40.484c-4.087-4.73-8.43-8.287-12.03-11.545-4.951-4.522-7.64-7.734-7.663-12.357.021-4.625,2.709-7.841,7.659-12.372,3.6-3.262,7.943-6.827,12.033-11.562a75.909,75.909,0,0,0,16.771-40.473c.458-6.242-.093-11.832-.33-16.685-.294-6.7.08-10.88,3.337-14.162,3.286-3.253,7.458-3.621,14.157-3.318,4.849.244,10.435.8,16.669.347a76.08,76.08,0,0,0,40.485-16.764c4.729-4.085,8.287-8.428,11.543-12.028,4.524-4.951,7.736-7.64,12.359-7.663,4.624.021,7.839,2.709,12.371,7.659,3.263,3.6,6.827,7.942,11.562,12.031a75.867,75.867,0,0,0,40.473,16.77c6.24.458,11.831-.091,16.684-.328,6.7-.294,10.879.08,14.162,3.336Z" fill="#1f1f1f"/>
    </g>
    <path id="Path_10388" data-name="Path 10388" d="M1833.692,1295.438a12.627,12.627,0,0,0-2.9-7.515,12.407,12.407,0,1,0-19.091-15.85c-3.033,3.49-3.231,7.7-3.175,11.967a2.136,2.136,0,0,0-.99-.255,2.707,2.707,0,0,0-2.284,1.62,2.739,2.739,0,0,0-1.067-.215,2.907,2.907,0,0,0-.469.042,2.336,2.336,0,0,0-4.672.035v.038a2.709,2.709,0,0,0-2.075.214,2.955,2.955,0,0,0-2.525-1.946,2.868,2.868,0,0,0-2.423,1.746h-28.11a1.362,1.362,0,0,0-1.357,1.36v1.807a1.362,1.362,0,0,0,1.357,1.359h.318a1.361,1.361,0,0,1,1.356,1.359v5.389a1.361,1.361,0,0,0,1.355,1.357h7.894a1.361,1.361,0,0,0,1.355-1.357v-4.848a1.362,1.362,0,0,1,1.357-1.357h14.406a2.924,2.924,0,0,0,2.493,1.884,2.953,2.953,0,0,0,2.525-1.944,2.733,2.733,0,0,0,1.3.328,2.7,2.7,0,0,0,.777-.115v.036a2.336,2.336,0,1,0,4.672.035,2.6,2.6,0,0,0,.469.045,2.487,2.487,0,0,1,3.35,1.405,2.128,2.128,0,0,0,.874-.193c-.169,3.832.04,7.123,2.345,10.672a12.552,12.552,0,0,0,22.937-7.1Zm-21.032,0c0-3.266,3.037-6.109,3.037-6.109a1.9,1.9,0,0,0,0-2.812s-3.037-2.842-3.037-6.109a8.457,8.457,0,1,1,16.915,0c0,3.267-3.039,6.109-3.039,6.109a1.9,1.9,0,0,0,0,2.812s3.039,2.843,3.039,6.109a8.458,8.458,0,0,1-16.915,0Z" fill="#fff"/>
    <g id="Group_2254" data-name="Group 2254">
      <path id="Path_10389" data-name="Path 10389" d="M1798.124,1158.836c10.57,0,23.3,2.711,28.961,5.331l9.957-30.2-4.233-1.128-1.976,9.03-4.232-3.668-1.693,6.491s5.08.281,4.8.845c-1.411,2.822-8.183,7.62-16.931,5.927-12.834-2.484-12.134-13.546-12.134-13.546l6.772,1.976.564-8.184-6.208,1.411,2.54-11.853h-12.37l2.54,11.853-6.208-1.411.565,8.184,6.772-1.976s.7,11.063-12.134,13.546c-8.748,1.693-15.522-3.106-16.932-5.927-.282-.564,4.8-.845,4.8-.845l-1.693-6.491-4.234,3.668-1.974-9.03-4.233,1.128,9.956,30.2C1774.823,1161.547,1787.553,1158.836,1798.124,1158.836Z" fill="#fff"/>
      <path id="Path_10390" data-name="Path 10390" d="M1798.124,1161.025c-10.32,0-23.134,2.733-28.276,5.226l1.186,3.595c3.9-2.441,16.594-5.4,27.09-5.4s23.184,2.958,27.089,5.4l1.186-3.595C1821.257,1163.758,1808.442,1161.025,1798.124,1161.025Z" fill="#fff"/>
    </g>
    <g id="Group_2257" data-name="Group 2257">
      <g id="Group_2255" data-name="Group 2255">
        <path id="Path_10391" data-name="Path 10391" d="M1856.273,1159.013c-4.286,3.254-14.92,12.337-26.854,15.483a14.071,14.071,0,0,1,6.6,2.813l-10.323,10.324,1.956,1.958,10.323-10.325a14.048,14.048,0,0,1,2.814,6.6C1843.936,1173.933,1853.021,1163.3,1856.273,1159.013Z" fill="#fff"/>
        <rect id="Rectangle_651" data-name="Rectangle 651" width="2.565" height="2.768" transform="translate(1819.266 1194.051) rotate(-44.975)" fill="#fff"/>
        <rect id="Rectangle_652" data-name="Rectangle 652" width="2.566" height="2.768" transform="matrix(0.707, -0.707, 0.707, 0.707, 1822.478, 1190.845)" fill="#fff"/>
        <path id="Path_10392" data-name="Path 10392" d="M1817.875,1195.455l-58.628,58.627-8.077,1.128-4.512,4.513,8.075-1.127-2.171,2.17-8.074,1.128-4.515,4.514,10.352-1.447-1.447,10.351,4.515-4.514,1.128-8.075,2.168-2.169-1.127,8.074,4.514-4.514,1.127-8.075,58.628-58.628Z" fill="#fff"/>
      </g>
      <g id="Group_2256" data-name="Group 2256">
        <path id="Path_10393" data-name="Path 10393" d="M1739.973,1159.013c4.288,3.254,14.923,12.337,26.854,15.483a14.07,14.07,0,0,0-6.6,2.813l10.322,10.324-1.957,1.958-10.323-10.325a14.061,14.061,0,0,0-2.811,6.6C1752.311,1173.933,1743.227,1163.3,1739.973,1159.013Z" fill="#fff"/>
        <rect id="Rectangle_653" data-name="Rectangle 653" width="2.768" height="2.564" transform="translate(1773.213 1194.193) rotate(-45.002)" fill="#fff"/>
        <rect id="Rectangle_654" data-name="Rectangle 654" width="2.767" height="2.565" transform="matrix(0.707, -0.707, 0.707, 0.707, 1770.001, 1190.984)" fill="#fff"/>
        <path id="Path_10394" data-name="Path 10394" d="M1778.374,1195.455,1837,1254.082l8.076,1.128,4.513,4.513-8.076-1.127,2.171,2.17,8.075,1.128,4.514,4.514-10.35-1.447,1.445,10.351-4.513-4.514-1.127-8.075-2.17-2.169,1.126,8.074-4.514-4.514-1.125-8.075-58.63-58.628Z" fill="#fff"/>
      </g>
    </g>
  </g>
</svg>
