<svg xmlns="http://www.w3.org/2000/svg" width="28.912" height="27.812" viewBox="0 0 28.912 27.812">
  <g id="Group_492" data-name="Group 492" transform="translate(-572.556 -618.73)">
    <path id="Path_1686" data-name="Path 1686" d="M586.266,618.73s-18.727,13.484,0,27.812H573.157S568.288,618.917,586.266,618.73Z" fill="#93c01f"/>
    <path id="Path_1687" data-name="Path 1687" d="M584.674,623.786s11.333-1.755,11.611,8.815c0,0,.508,10.942-11.611,8.7a13.027,13.027,0,0,0,7.118,4.684s10.3-3.186,9.646-14.052c0,0-.937-9.922-9.459-12.544a11.726,11.726,0,0,0-7.3,4.4Z" fill="#3c3c3b"/>
    <path id="Path_1688" data-name="Path 1688" d="M600.782,640.081" fill="#fff"/>
    <path id="Path_1689" data-name="Path 1689" d="M601.468,638.955s-2.184,5.621-7.709,7.586h7.709Z" fill="#93c01f"/>
  </g>
</svg>
