<svg xmlns="http://www.w3.org/2000/svg" width="210.065" height="140.071" viewBox="0 0 210.065 140.071">
  <g id="Group_2163" data-name="Group 2163" transform="translate(-417.259 -25.377)">
    <path id="Path_9660" data-name="Path 9660" d="M522.291,165.449c-9.318-7-17.977-10.259-27.208-10.259-6.727,0-13,1.673-19.635,3.445-7.184,1.917-14.612,3.9-23.245,3.9a21.867,21.867,0,0,1-21.842-21.842c0-5.986,1.428-10.593,2.81-15.048l.271-.876-.463-.3a34.7,34.7,0,0,1,0-58.1l.463-.3-.271-.876c-1.382-4.455-2.81-9.062-2.81-15.048A21.867,21.867,0,0,1,452.2,28.292c8.633,0,16.061,1.982,23.243,3.9,6.638,1.772,12.908,3.445,19.636,3.445,9.232,0,17.891-3.263,27.208-10.259,9.319,7,17.978,10.259,27.209,10.259,6.727,0,13-1.674,19.634-3.445,7.184-1.917,14.612-3.9,23.246-3.9a21.867,21.867,0,0,1,21.843,21.842c0,5.986-1.428,10.593-2.81,15.048l-.271.876.463.3a34.7,34.7,0,0,1,0,58.1l-.463.3.271.876c1.382,4.455,2.81,9.062,2.81,15.048a21.867,21.867,0,0,1-21.842,21.842c-8.634,0-16.061-1.982-23.244-3.9-6.638-1.772-12.908-3.445-19.636-3.445C540.268,155.19,531.609,158.452,522.291,165.449Z" fill="#1f1f1f"/>
    <path id="Path_9661" data-name="Path 9661" d="M522.291,165.449c-9.318-7-17.977-10.259-27.208-10.259-6.727,0-13,1.673-19.635,3.445-7.184,1.917-14.612,3.9-23.245,3.9a21.867,21.867,0,0,1-21.842-21.842c0-5.986,1.428-10.593,2.81-15.048l.271-.876-.463-.3a34.7,34.7,0,0,1,0-58.1l.463-.3-.271-.876c-1.382-4.455-2.81-9.062-2.81-15.048A21.867,21.867,0,0,1,452.2,28.292c8.633,0,16.061,1.982,23.243,3.9,6.638,1.772,12.908,3.445,19.636,3.445,9.232,0,17.891-3.263,27.208-10.259,9.319,7,17.978,10.259,27.209,10.259,6.727,0,13-1.674,19.634-3.445,7.184-1.917,14.612-3.9,23.246-3.9a21.867,21.867,0,0,1,21.843,21.842c0,5.986-1.428,10.593-2.81,15.048l-.271.876.463.3a34.7,34.7,0,0,1,0,58.1l-.463.3.271.876c1.382,4.455,2.81,9.062,2.81,15.048a21.867,21.867,0,0,1-21.842,21.842c-8.634,0-16.061-1.982-23.244-3.9-6.638-1.772-12.908-3.445-19.636-3.445C540.268,155.19,531.609,158.452,522.291,165.449Z" fill="#1f1f1f"/>
    <path id="Path_9662" data-name="Path 9662" d="M522.29,160.511l-.562-.382c-8.971-6.1-17.438-8.939-26.646-8.939-7.252,0-13.768,1.739-20.667,3.58-6.933,1.851-14.1,3.765-22.213,3.765a17.863,17.863,0,0,1-17.842-17.842c0-5.383,1.278-9.5,2.63-13.863l1.163-3.756-2.983-1.954a30.7,30.7,0,0,1,0-51.411l2.982-1.954L436.99,64c-1.353-4.362-2.631-8.483-2.631-13.866A17.863,17.863,0,0,1,452.2,32.292c8.108,0,15.277,1.914,22.21,3.764,6.9,1.843,13.418,3.581,20.67,3.581,9.208,0,17.675-2.842,26.646-8.94l.562-.382.562.382c8.972,6.1,17.439,8.94,26.647,8.94,7.251,0,13.764-1.739,20.659-3.579,6.943-1.853,14.113-3.766,22.221-3.766a17.863,17.863,0,0,1,17.843,17.842c0,5.381-1.278,9.5-2.63,13.864l-1.163,3.756,2.983,1.954a30.7,30.7,0,0,1,0,51.411l-2.982,1.954,1.162,3.753c1.353,4.362,2.631,8.482,2.631,13.866a17.863,17.863,0,0,1-17.843,17.842c-8.111,0-15.28-1.914-22.212-3.765-6.9-1.841-13.415-3.58-20.667-3.58-9.208,0-17.675,2.84-26.647,8.939ZM495.082,149.19c9.434,0,18.1,2.833,27.208,8.907,9.113-6.074,17.775-8.907,27.209-8.907,7.515,0,14.154,1.772,21.183,3.647,6.808,1.818,13.848,3.7,21.7,3.7a15.861,15.861,0,0,0,15.843-15.842c0-5.081-1.235-9.061-2.542-13.274l-1.607-5.193,4.242-2.779a28.705,28.705,0,0,0,0-48.065L604.073,68.6l1.608-5.2c1.307-4.214,2.541-8.193,2.541-13.272a15.861,15.861,0,0,0-15.842-15.843c-7.846,0-14.887,1.879-21.7,3.7-7.035,1.877-13.67,3.647-21.184,3.648-9.434,0-18.1-2.833-27.209-8.907-9.111,6.073-17.773,8.906-27.208,8.907-7.514,0-14.151-1.771-21.178-3.646-6.815-1.819-13.855-3.7-21.7-3.7A15.86,15.86,0,0,0,436.36,50.134c0,5.08,1.235,9.06,2.542,13.274l1.606,5.193-4.242,2.778a28.7,28.7,0,0,0,0,48.065l4.243,2.779-1.609,5.2c-1.307,4.213-2.54,8.191-2.54,13.271A15.86,15.86,0,0,0,452.2,156.534c7.849,0,14.889-1.879,21.7-3.7C480.929,150.961,487.568,149.19,495.082,149.19Z" fill="#fff"/>
  </g>
</svg>
