<svg xmlns="http://www.w3.org/2000/svg" width="63.569" height="50.205" viewBox="0 0 63.569 50.205">
  <g id="Group_416" data-name="Group 416" transform="translate(-1066.029 -695.632)">
    <g id="Group_412" data-name="Group 412">
      <path id="Path_1662" data-name="Path 1662" d="M1109.857,717.553a117.563,117.563,0,0,0,10.931-7.247,1.39,1.39,0,0,0,.565-.649,1.022,1.022,0,0,0-.009-.536,3.837,3.837,0,0,0-.505-1.055c-.976-1.6-1.954-3.193-3.064-4.7a2.26,2.26,0,0,0-.628-.643,1.577,1.577,0,0,0-1.287-.073,4.672,4.672,0,0,0-1.154.65l-7.385,5.14a33.155,33.155,0,0,0-3.528,2.7.718.718,0,0,0-.21.267.64.64,0,0,0-.018.284,5.01,5.01,0,0,0,.56,1.634q.791,1.633,1.683,3.214a6.422,6.422,0,0,0,.994,1.423c.319.319,1.03.871,1.525.711.219-.071.448-.4.634-.547A8.619,8.619,0,0,1,1109.857,717.553Z" fill="#262626"/>
      <path id="Path_1663" data-name="Path 1663" d="M1114.125,705.672c.806-.567,1.456-1.015,2.26-1.583.1-.068.356-.255.436-.316.165-.127.135-.144.124-.158-.086-.11-.114-.164-.243-.313-.038-.044-.007-.1-.1-.082a.632.632,0,0,0-.2.091c-.194.117-.687.465-.936.64-1.175.825-2.316,1.613-3.481,2.44-.083.059-.168.12-.237.172-.172.133-.2.207-.187.221a2.568,2.568,0,0,1,.192.32c.019.026.029.04.058.077.014.018-.012.092.171-.016.15-.088.876-.6,1.076-.742Z" fill="#f7f7f7"/>
      <path id="Path_1664" data-name="Path 1664" d="M1114.836,706.688c.806-.567,1.456-1.015,2.26-1.583.1-.068.356-.255.436-.316.165-.127.135-.144.124-.158-.086-.11-.114-.164-.243-.313-.038-.044-.007-.1-.1-.082a.634.634,0,0,0-.2.091c-.194.117-.687.465-.936.64-1.175.825-2.316,1.613-3.481,2.44-.083.059-.168.12-.237.173-.172.133-.2.207-.187.221a2.571,2.571,0,0,1,.192.32c.019.026.029.04.058.077.014.018-.012.092.171-.016.15-.088.876-.6,1.076-.742Z" fill="#f7f7f7"/>
      <path id="Path_1665" data-name="Path 1665" d="M1115.531,707.68c.806-.567,1.456-1.015,2.26-1.583.1-.068.356-.255.436-.316.165-.127.135-.144.124-.158-.086-.11-.114-.164-.243-.313-.038-.044-.007-.1-.1-.082a.634.634,0,0,0-.2.091c-.194.117-.687.465-.936.64-1.175.825-2.316,1.613-3.481,2.44-.083.059-.168.12-.237.172-.172.133-.2.207-.187.221a2.582,2.582,0,0,1,.192.32c.019.026.029.04.058.077.014.018-.012.092.171-.016.15-.088.876-.6,1.076-.742Z" fill="#f7f7f7"/>
      <path id="Path_1666" data-name="Path 1666" d="M1116.243,708.7c.806-.567,1.456-1.015,2.26-1.583.1-.068.356-.255.436-.316.165-.127.135-.144.124-.158-.086-.11-.114-.164-.243-.313-.038-.044-.007-.1-.1-.082a.636.636,0,0,0-.2.091c-.194.117-.687.465-.936.64-1.175.825-2.316,1.613-3.481,2.44-.083.059-.168.12-.237.173-.172.133-.2.207-.187.221a2.563,2.563,0,0,1,.192.32c.018.026.029.04.058.077.014.018-.012.092.171-.016.15-.088.876-.6,1.076-.742Z" fill="#f7f7f7"/>
    </g>
    <path id="Path_1667" data-name="Path 1667" d="M1072.36,745.28c9.759-12.922,16.337-13.125,29.512-22.664,5.547-4.016,2.432-9.009-3.654-5.833-14.161,7.388-18.486,10.182-30.537,21.392,0,0-2.8,4.149-1.112,6.376C1068.369,746.93,1072.36,745.28,1072.36,745.28Z" fill="#c4a451"/>
    <g id="Group_414" data-name="Group 414">
      <path id="Path_1668" data-name="Path 1668" d="M1114.238,714.916c-.764-1.889-2.568-3.146-3.642-4.878-.822-1.325-1.436-3.106-2.964-3.418-1.116-.228-2.184.482-3.115,1.137q-2.254,1.586-4.606,3.026c-6.017,3.684-12.5,6.64-18.144,10.869l.89,1.248c-1.338.817-2.649,1.675-3.906,2.616l.4.558c-.489.361-.972.731-1.435,1.125-.963.818-1.931,1.92-1.756,3.171a4.143,4.143,0,0,0,1.03,1.906c1.5,1.882,3.215,5.784,5.774,3.666.659-.545,1.381-1.172,2.144-1.8l.364.511a.645.645,0,0,0,.319.282.636.636,0,0,0,.443-.1,33.356,33.356,0,0,0,3.589-2.173l.349.489a.81.81,0,0,0,.4.355.8.8,0,0,0,.557-.127c4.622-2.367,8.572-5.835,12.876-8.74,3.217-2.171,6.655-4.044,9.6-6.572a3.335,3.335,0,0,0,.922-1.074A2.66,2.66,0,0,0,1114.238,714.916Z" fill="#262626"/>
      <g id="Group_413" data-name="Group 413">
        <path id="Path_1669" data-name="Path 1669" d="M1088.7,725.422a1.825,1.825,0,0,0,.683-1.248,2.357,2.357,0,0,0-.435-1.209,19.386,19.386,0,0,0-2.945-3.755.8.8,0,0,0-.306-.219.578.578,0,0,0-.416.069,3.3,3.3,0,0,0-1.17,1.035c-.318.443-.166.623.192,1.09l3.215,4.187a1.054,1.054,0,0,0,.351.336C1088.161,725.845,1088.468,725.638,1088.7,725.422Z" fill="#0f0f0f"/>
        <path id="Path_1670" data-name="Path 1670" d="M1090.888,723.507a.59.59,0,0,0,.173.18.453.453,0,0,0,.417-.048,2.63,2.63,0,0,0,.912-.643,1.334,1.334,0,0,0,.3-1.123,2.22,2.22,0,0,0-.477-.84l-2.856-3.646a1.091,1.091,0,0,0-.517-.435c-.44-.113-1.266.6-1.479.976-.323.571.334,1.14.662,1.6C1088.978,720.852,1089.923,722.188,1090.888,723.507Z" fill="#0f0f0f"/>
        <path id="Path_1671" data-name="Path 1671" d="M1094.442,721.139a.558.558,0,0,0,.166.181.491.491,0,0,0,.43-.033,2.819,2.819,0,0,0,.975-.6,1.285,1.285,0,0,0,.376-1.083,2.048,2.048,0,0,0-.436-.833l-2.7-3.638a1.055,1.055,0,0,0-.5-.439c-.443-.124-1.335.543-1.576.9-.367.545.272,1.12.579,1.574C1092.649,718.5,1093.535,719.825,1094.442,721.139Z" fill="#0f0f0f"/>
        <path id="Path_1672" data-name="Path 1672" d="M1097.613,718.865a.519.519,0,0,0,.152.167.441.441,0,0,0,.391-.029,2.541,2.541,0,0,0,.886-.546,1.186,1.186,0,0,0,.34-1,1.913,1.913,0,0,0-.4-.769l-2.468-3.36a.974.974,0,0,0-.459-.406c-.4-.115-1.213.5-1.432.827-.332.5.25,1.033.532,1.452C1095.974,716.424,1096.784,717.652,1097.613,718.865Z" fill="#0f0f0f"/>
        <path id="Path_1673" data-name="Path 1673" d="M1090.862,726.121a1.129,1.129,0,0,0-.508-.475c-.443-.139-1.319.554-1.553.931-.355.572.29,1.193.6,1.681.915,1.418,1.82,2.846,2.745,4.256a.613.613,0,0,0,.168.195.458.458,0,0,0,.427-.028,2.659,2.659,0,0,0,.96-.616,1.38,1.38,0,0,0,.356-1.143,2.313,2.313,0,0,0-.449-.892Z" fill="#0f0f0f"/>
        <path id="Path_1674" data-name="Path 1674" d="M1094.19,724a1.089,1.089,0,0,0-.513-.453c-.452-.129-1.358.555-1.6.925-.372.56.28,1.153.594,1.621.916,1.362,1.822,2.734,2.75,4.088a.579.579,0,0,0,.17.187.5.5,0,0,0,.438-.033,2.85,2.85,0,0,0,.991-.611,1.325,1.325,0,0,0,.38-1.113,2.129,2.129,0,0,0-.447-.858Z" fill="#0f0f0f"/>
        <path id="Path_1675" data-name="Path 1675" d="M1097.615,721.518a1.085,1.085,0,0,0-.521-.45c-.461-.126-1.391.563-1.644.933-.384.561.279,1.15.6,1.615.928,1.355,1.846,2.718,2.785,4.065a.575.575,0,0,0,.172.185.517.517,0,0,0,.448-.036,2.97,2.97,0,0,0,1.017-.616,1.319,1.319,0,0,0,.4-1.114,2.079,2.079,0,0,0-.451-.854Z" fill="#0f0f0f"/>
        <path id="Path_1676" data-name="Path 1676" d="M1103.839,722.767l-2.79-3.478a1.031,1.031,0,0,0-.525-.416c-.469-.11-1.434.561-1.7.917-.4.539.263,1.084.58,1.519.923,1.266,1.835,2.539,2.77,3.8a.531.531,0,0,0,.173.172.571.571,0,0,0,.459-.043,3.251,3.251,0,0,0,1.053-.6,1.242,1.242,0,0,0,.427-1.064,1.833,1.833,0,0,0-.446-.8Z" fill="#0f0f0f"/>
      </g>
    </g>
    <g id="Group_415" data-name="Group 415" opacity="0.81">
      <path id="Path_1677" data-name="Path 1677" d="M1128.857,705.824c-2-3.08-4.512-7.141-6.817-9.987a29.24,29.24,0,0,0-5.761,2.949l-7.568,4.61c-1.878,1.144-7.739,3.99-7.668,6.651.037,1.4,2.237,3.693,2.986,4.845l3.59,5.523c.385.593.854,1.241,1.541,1.336a2.414,2.414,0,0,0,1.566-.552c6.04-3.923,12.226-7.09,17.819-11.656a2.917,2.917,0,0,0,1-1.184,3.034,3.034,0,0,0-.691-2.536Z" fill="#b3d6e3"/>
      <path id="Path_1678" data-name="Path 1678" d="M1102.337,705.577a2.118,2.118,0,0,1,.294-.6,47.889,47.889,0,0,1,7.668-9.133.49.49,0,0,1,.64-.153c.474.179.4.557.868.757.15.064.325.172.309.334a.393.393,0,0,1-.119.207c-2.329,2.608-4.222,4.936-6.75,7.351a.481.481,0,0,0-.135.693l.484,1.067a.319.319,0,0,1-.193.513c-.442.214-1.588,1.018-1.977.749C1103.057,707.108,1102.233,705.993,1102.337,705.577Z" fill="#b3d6e3"/>
    </g>
  </g>
</svg>
