<svg xmlns="http://www.w3.org/2000/svg" width="39.514" height="91.801" viewBox="0 0 39.514 91.801">
  <path id="Path_289" data-name="Path 289" d="M663.544,462.18c6.361,7.539,18.71,7.22,25.618.672,7.7-7.3,8.131-19.674,2.8-28.421a31.206,31.206,0,0,0-11.381-10.793c-4.994-2.8-11.512-5.017-17.129-2.775-4.862,1.941-8.632,7.081-6.917,12.448,1.545,4.836,6.582,7.93,11.4,8.645,9.9,1.467,19.9-4.663,24.084-13.59,4.4-9.4,1.465-20.2-6.15-27a25.516,25.516,0,0,0-12.964-6.333c-4.836-.742-10.213-.059-13.971,3.341-4.218,3.816-3.583,9.8-.009,13.789,3.5,3.9,9.076,5.54,14.195,5.245a21.619,21.619,0,0,0,13.8-5.943,20.778,20.778,0,0,0,6.007-14.126,20.508,20.508,0,0,0-5.151-14.41,21.646,21.646,0,0,0-13.411-6.786,20.267,20.267,0,0,0-7.333.471c-2.81.694-1.62,5.034,1.2,4.339,7.659-1.89,16.507,2.342,19.2,9.914a16.432,16.432,0,0,1-8.212,20.5,16.815,16.815,0,0,1-11.345,1.041c-3.3-.888-7.762-3.668-7.465-7.637.265-3.529,4.386-5.16,7.419-5.469a18.93,18.93,0,0,1,11.194,2.622c6.641,3.821,11.486,11.311,10.552,19.153-.909,7.638-7.27,14.262-14.613,16.132a13.976,13.976,0,0,1-10.886-1.386c-3.014-1.893-4.714-5.477-2.182-8.531,3.088-3.724,8.349-3.11,12.416-1.628a28.215,28.215,0,0,1,10.685,7.048c5.62,5.926,8.011,14.839,4.265,22.42a14.187,14.187,0,0,1-8,7.391,14.369,14.369,0,0,1-10.423-.349A11.676,11.676,0,0,1,666.726,459a2.268,2.268,0,0,0-3.182,0,2.3,2.3,0,0,0,0,3.182Z" transform="translate(-656.01 -375.999)" fill="#decfb8"/>
</svg>
