<svg xmlns="http://www.w3.org/2000/svg" width="112.915" height="110.085" viewBox="0 0 112.915 110.085">
  <g id="Group_2222" data-name="Group 2222" transform="translate(-141.17 -1512.151)">
    <path id="Path_10245" data-name="Path 10245" d="M197.628,1557.64q-.079.059-.15.118c-1.679-2.519-3.638-.84-2.379,2.8.971,2.805,1.506,3.113,2.529,5.9,1.023-2.786,1.558-3.094,2.529-5.9,1.259-3.638-.7-5.317-2.379-2.8Q197.706,1557.7,197.628,1557.64Z" fill="#1f1f1f"/>
    <path id="Path_10246" data-name="Path 10246" d="M207.372,1562.333c-.064-.016-.126-.031-.186-.044.922-2.883-1.612-3.368-3.671-.115-1.588,2.508-1.495,3.118-3.036,5.655,2.816-.938,3.391-.711,6.189-1.7,3.63-1.284,3.721-3.862.7-3.6Q207.375,1562.431,207.372,1562.333Z" fill="#1f1f1f"/>
    <path id="Path_10247" data-name="Path 10247" d="M209.779,1572.877q-.04-.09-.081-.172c2.829-1.077,1.628-3.36-2.2-2.942-2.951.322-3.37.775-6.314,1.153,2.489,1.617,2.67,2.207,5.189,3.778,3.267,2.037,5.34.5,3.258-1.7Q209.7,1572.941,209.779,1572.877Z" fill="#1f1f1f"/>
    <path id="Path_10248" data-name="Path 10248" d="M203.035,1581.333q.045-.088.084-.171c2.606,1.541,3.642-.822.929-3.553-2.092-2.106-2.707-2.151-4.838-4.218.287,2.954-.061,3.464.281,6.412.444,3.824,2.938,4.487,3.357,1.489C202.909,1581.306,202.971,1581.32,203.035,1581.333Z" fill="#1f1f1f"/>
    <path id="Path_10249" data-name="Path 10249" d="M192.22,1581.333c.064-.013.126-.027.186-.041.42,3,2.914,2.335,3.357-1.489.342-2.948-.006-3.458.281-6.412-2.131,2.067-2.746,2.112-4.838,4.218-2.713,2.731-1.677,5.094.929,3.553C192.162,1581.217,192.19,1581.275,192.22,1581.333Z" fill="#1f1f1f"/>
    <path id="Path_10250" data-name="Path 10250" d="M185.477,1572.877q.075.063.148.12c-2.082,2.2-.009,3.734,3.258,1.7,2.519-1.571,2.7-2.161,5.189-3.778-2.944-.377-3.363-.83-6.314-1.153-3.827-.418-5.028,1.865-2.2,2.942Q185.517,1572.787,185.477,1572.877Z" fill="#1f1f1f"/>
    <path id="Path_10251" data-name="Path 10251" d="M187.883,1562.333q0,.1,0,.191c-3.016-.258-2.925,2.321.7,3.6,2.8.99,3.373.763,6.189,1.7-1.541-2.537-1.448-3.147-3.036-5.655-2.059-3.253-4.593-2.768-3.671.115Q187.979,1562.308,187.883,1562.333Z" fill="#1f1f1f"/>
    <path id="Path_10252" data-name="Path 10252" d="M197.628,1512.151a117.1,117.1,0,0,0-13.081,7.313c-6.651,4.587-5.619,11.238-2.688,17.851-3.343-6.414-7.9-11.368-15.633-9.028a117.109,117.109,0,0,0-13.874,5.667,117.127,117.127,0,0,0-2.438,14.787c-.561,8.06,5.283,11.4,12.28,13.232-7.1-1.385-13.813-.911-16.8,6.593a117.127,117.127,0,0,0-4.219,14.38,117.117,117.117,0,0,0,10.041,11.125c5.952,5.464,12.206,2.977,18-1.351-5.51,4.687-9.325,10.231-5.323,17.25a117.11,117.11,0,0,0,8.612,12.265,117.1,117.1,0,0,0,14.958-.914c7.982-1.247,9.938-7.687,10.167-14.917.229,7.23,2.185,13.67,10.167,14.917a117.122,117.122,0,0,0,14.959.914,117.128,117.128,0,0,0,8.612-12.265c4-7.018.187-12.563-5.323-17.25,5.8,4.328,12.05,6.814,18,1.351a117.117,117.117,0,0,0,10.041-11.125,117.131,117.131,0,0,0-4.219-14.38c-2.992-7.5-9.706-7.979-16.8-6.593,7-1.832,12.841-5.172,12.28-13.232a117.118,117.118,0,0,0-2.438-14.787,117.11,117.11,0,0,0-13.874-5.667c-7.733-2.34-12.289,2.614-15.633,9.028,2.93-6.613,3.962-13.264-2.689-17.851A117.14,117.14,0,0,0,197.628,1512.151Zm-4.823,47.894c4.6-6.229-3.822-10.451-4.729-18.342-.776-6.758,3.925-9.166,9.552-12.768,5.627,3.6,10.329,6.01,9.552,12.768-.907,7.891-9.332,12.114-4.729,18.342,7.74-.285,5.788-9.5,11.392-15.134,4.8-4.82,9.613-2.646,15.938-.493.692,6.646,1.741,11.823-4.027,15.429-6.735,4.211-15.289.257-17.289,7.739,5.048,5.874,11.04-1.4,18.935-.529,6.761.747,8.062,5.866,10.322,12.154-4.764,4.684-8.158,8.732-14.574,6.472-7.491-2.64-9.733-11.793-16.83-8.692-1.445,7.609,7.978,7.758,12.219,14.474,3.632,5.751.44,9.961-3.066,15.648-6.633-.8-11.914-.934-14.146-7.359-2.607-7.5,3.152-14.963-3.7-18.578-6.85,3.615-1.091,11.075-3.7,18.578-2.232,6.425-7.513,6.555-14.146,7.359-3.507-5.687-6.7-9.9-3.066-15.648,4.241-6.716,13.663-6.865,12.219-14.474-7.1-3.1-9.339,6.052-16.83,8.692-6.415,2.261-9.809-1.787-14.574-6.472,2.26-6.288,3.561-11.407,10.322-12.154,7.895-.872,13.886,6.4,18.935.529-2-7.482-10.554-3.528-17.289-7.739-5.767-3.606-4.719-8.783-4.027-15.429,6.325-2.153,11.139-4.328,15.938.493C187.016,1550.54,185.065,1559.76,192.8,1560.045Z" fill="#1f1f1f"/>
    <path id="Path_10253" data-name="Path 10253" d="M175.058,1523.195a2.753,2.753,0,1,1-1,.782,2.753,2.753,0,0,1,1-.782Z" fill="#1f1f1f"/>
    <path id="Path_10254" data-name="Path 10254" d="M220.2,1523.195a2.753,2.753,0,1,1-1.232-.291A2.753,2.753,0,0,1,220.2,1523.195Z" fill="#1f1f1f"/>
    <path id="Path_10255" data-name="Path 10255" d="M248.34,1558.485a2.753,2.753,0,1,1-.541-1.145,2.753,2.753,0,0,1,.541,1.145Z" fill="#1f1f1f"/>
    <path id="Path_10256" data-name="Path 10256" d="M238.3,1602.492a2.753,2.753,0,1,1,.557-1.136,2.753,2.753,0,0,1-.557,1.136Z" fill="#1f1f1f"/>
    <path id="Path_10257" data-name="Path 10257" d="M197.628,1622.077a2.753,2.753,0,1,1,1.236-.273A2.753,2.753,0,0,1,197.628,1622.077Z" fill="#1f1f1f"/>
    <path id="Path_10258" data-name="Path 10258" d="M156.959,1602.492a2.753,2.753,0,1,1,.984.8A2.753,2.753,0,0,1,156.959,1602.492Z" fill="#1f1f1f"/>
    <path id="Path_10259" data-name="Path 10259" d="M146.915,1558.485a2.753,2.753,0,1,1-.009,1.266,2.753,2.753,0,0,1,.009-1.266Z" fill="#1f1f1f"/>
    <path id="Path_10260" data-name="Path 10260" d="M193.98,1562.529a8.314,8.314,0,0,1,3.63-.828h.034a8.367,8.367,0,0,1,6.542,3.15l.01.013.011.013a8.367,8.367,0,0,1,1.616,7.078l0,.017,0,.017a8.366,8.366,0,0,1-4.527,5.676l-.016.007-.016.007a8.367,8.367,0,0,1-7.26,0l-.015-.008-.016-.007a8.366,8.366,0,0,1-4.527-5.677l0-.017,0-.017a8.367,8.367,0,0,1,1.616-7.078l.011-.013.011-.014a8.314,8.314,0,0,1,2.911-2.322Z" fill="#1f1f1f"/>
  </g>
</svg>
