<svg xmlns="http://www.w3.org/2000/svg" xmlns:xlink="http://www.w3.org/1999/xlink" width="77.46" height="66.545" viewBox="0 0 77.46 66.545">
  <defs>
    <linearGradient id="linear-gradient" x1="0.539" y1="0.966" x2="0.441" y2="0.103" gradientUnits="objectBoundingBox">
      <stop offset="0" stop-color="#3f9b46"/>
      <stop offset="1" stop-color="#9aca3c"/>
    </linearGradient>
  </defs>
  <path id="Path_269" data-name="Path 269" d="M1383.573,68.561q11.707,42.7,40.7,37.487-11.525-17.227-31.664-31.421Q1415.9,86.94,1424.819,98.89a25.09,25.09,0,0,0-4.123-13.223Q1410.2,71.23,1383.573,68.561Zm-6.734,1.092a32.382,32.382,0,0,1,23.6-9.7,33.274,33.274,0,1,1-20.928,59.2q17.59.97,36.939-9.4-9.34.426-18.5-7.582-9.888.182-26.932,6.732l-.06-.06q14.739-9.16,23.535-9.645-2.607-2.669-5.4-5.641-9.826,1.758-20.684,9.037a104.8,104.8,0,0,0-12.193,9.584,38.576,38.576,0,0,1,11.4-13.344,31.753,31.753,0,0,1-.487-5.58,32.257,32.257,0,0,1,9.705-23.6Z" transform="translate(-1356.216 -59.945)" fill-rule="evenodd" fill="url(#linear-gradient)"/>
</svg>
