<svg xmlns="http://www.w3.org/2000/svg" xmlns:xlink="http://www.w3.org/1999/xlink" width="92.799" height="59.036" viewBox="0 0 92.799 59.036">
  <defs>
    <linearGradient id="linear-gradient" x1="0.435" y1="1.082" x2="0.655" y2="-0.134" gradientUnits="objectBoundingBox">
      <stop offset="0" stop-color="#095da8"/>
      <stop offset="1" stop-color="#4cc5d9"/>
    </linearGradient>
  </defs>
  <path id="Path_270" data-name="Path 270" d="M1582.379,87.607c-.363-6.352-3.762-17.6-17.647-22.655s-28.188,6.27-30.6,14.948c-2.471-2.062-9.123-6.656-15.945-1.9s-4.93,13.1-4.687,13.911a17.079,17.079,0,0,0-10.426,16.01c0,11.726,11.518,14.811,15.342,14.811h7.239l10.126-26.571-5.9-2.263,13.317-8.807,4.093,15.486-5.9-2.268-9.308,24.423h9.631l13.282-34.857-5.9-2.263,13.317-8.808,4.094,15.487-5.905-2.268-12.464,32.709h9.185l6.111-16.039-5.9-2.263,13.318-8.807,4.093,15.487-5.905-2.269-5.295,13.891h12.033c5.685.055,18.731-2.667,20.026-16.505S1582.5,87.607,1582.379,87.607Z" transform="translate(-1503.075 -63.701)" fill="url(#linear-gradient)"/>
</svg>
