<svg xmlns="http://www.w3.org/2000/svg" width="335.416" height="134.827" viewBox="0 0 335.416 134.827">
  <g id="Group_2196" data-name="Group 2196" transform="translate(-921.836 -1722.587)">
    <path id="Path_9792" data-name="Path 9792" d="M999.437,1767.644a144.12,144.12,0,0,1-37.053-45.056l-9.63,23.064a1.853,1.853,0,0,1-2.019,1.117l-28.9-4.81a189.191,189.191,0,0,0,31.342,44l27.761-23.9a1.846,1.846,0,0,1,.372-.243c.04-.02.081-.036.122-.053a1.855,1.855,0,0,1,.3-.1c.045-.011.089-.022.135-.03a1.856,1.856,0,0,1,.408-.022l.058.007a1.878,1.878,0,0,1,.389.083c.018.006.037.005.055.012Z" fill="#1f1f1f"/>
    <path id="Path_9793" data-name="Path 9793" d="M1196.371,1761.7a1.867,1.867,0,0,1,.4-.084c.011,0,.022-.005.033-.006a1.863,1.863,0,0,1,.427.023c.043.007.084.017.126.027a1.834,1.834,0,0,1,.307.1c.039.017.078.031.116.05a1.844,1.844,0,0,1,.373.244l27.762,23.9a189.072,189.072,0,0,0,31.339-44l-28.9,4.81a1.854,1.854,0,0,1-2.02-1.117l-9.627-23.064a144.227,144.227,0,0,1-37.052,45.056l16.658-5.933C1196.333,1761.7,1196.352,1761.7,1196.371,1761.7Z" fill="#1f1f1f"/>
    <path id="Path_9794" data-name="Path 9794" d="M1171.357,1774.546l4.2,6.269a126.251,126.251,0,0,0,14.956-13.093Z" fill="#1f1f1f"/>
    <path id="Path_9795" data-name="Path 9795" d="M988.506,1767.7a135.141,135.141,0,0,0,14.841,13.4l4.391-6.547Z" fill="#1f1f1f"/>
    <path id="Path_9796" data-name="Path 9796" d="M1197.124,1766.072c-26.221,29.537-66.062,46.44-109.633,46.44-42.225,0-78.671-16.049-105.526-46.439l-34.029,29.3c35.181,40.025,84.664,62.041,139.555,62.041,56.666,0,108.912-22.59,143.663-62.042Z" fill="#1f1f1f"/>
  </g>
</svg>
