<svg xmlns="http://www.w3.org/2000/svg" width="30.791" height="22.257" viewBox="0 0 30.791 22.257">
  <g id="Group_466" data-name="Group 466" transform="translate(-209.717 -625.657)">
    <g id="Group_465" data-name="Group 465">
      <path id="Path_1596" data-name="Path 1596" d="M239.1,635.556a6.819,6.819,0,0,1-.978,1.508,8.17,8.17,0,0,1-6.89,3.834,8.3,8.3,0,0,1-.945-.053l0,.017-.423-.074a.4.4,0,0,1-.055-.013l-.022-.006c-.033,0-.051-.008-.071-.011l-.446-.087,0-.021a8.31,8.31,0,0,1-6.2-9.423,7.862,7.862,0,0,1,.672-2.009,7.885,7.885,0,0,0-1.4,1.117c-.169.17-.327.348-.477.531a4.842,4.842,0,0,0-9.1.525l-3.049,1.587,3.238,1.685a4.834,4.834,0,0,0,7.154,2.116,8.621,8.621,0,0,0,2.413,5.121h0c.019.023.043.04.059.06s.033.036.05.053l0,0a8.087,8.087,0,0,0,3.062,1.829v2.507a1.714,1.714,0,0,0-1.2,1.568h3.885a1.719,1.719,0,0,0-1.182-1.565l.169-2.158a8.149,8.149,0,0,0,4.192-.674h0c3.07-.72,8.944-6.576,8.944-6.576Zm-23.586-2.893a1.019,1.019,0,1,1,1.019-1.018,1.019,1.019,0,0,1-1.019,1.018Z" fill="#b3b3b3"/>
      <path id="Path_1597" data-name="Path 1597" d="M230.977,639.654l.1.008h.026a7.192,7.192,0,0,0,1.177-.055,7.065,7.065,0,0,0,5.471-4.115l.154-.349.053.011a7.561,7.561,0,0,0,.6-1.427,39.84,39.84,0,0,0,1.258-7.641l-8.094-.423a7.779,7.779,0,0,0-1.3.062,7.278,7.278,0,0,0-5.315,3.49,6.755,6.755,0,0,0-.932,3.065,7.194,7.194,0,0,0,6.8,7.375Z" fill="#b3b3b3"/>
    </g>
  </g>
</svg>
