<svg xmlns="http://www.w3.org/2000/svg" width="273.914" height="273.916" viewBox="0 0 273.914 273.916">
  <g id="Group_2300" data-name="Group 2300" transform="translate(-1053.932 -1080.205)">
    <g id="Group_2287" data-name="Group 2287">
      <g id="Group_2266" data-name="Group 2266">
        <path id="Path_10485" data-name="Path 10485" d="M1261.271,1226.956c.121-.865.22-1.732.31-2.6a73.3,73.3,0,0,0,6.9-5.254c-.027.952-.064,1.905-.124,2.857a72.963,72.963,0,0,1-7.088,5Z" fill="#1f1f1f"/>
        <path id="Path_10486" data-name="Path 10486" d="M1260.245,1232.661c.189-.852.366-1.708.521-2.566a72.333,72.333,0,0,0,7.306-4.677c-.1.949-.221,1.9-.354,2.839a72.241,72.241,0,0,1-7.473,4.4Z" fill="#1f1f1f"/>
        <path id="Path_10487" data-name="Path 10487" d="M1258.756,1238.261q.386-1.25.731-2.513a72.038,72.038,0,0,0,7.661-4.063c-.178.937-.369,1.87-.583,2.8a71.816,71.816,0,0,1-7.808,3.776Z" fill="#1f1f1f"/>
        <path id="Path_10488" data-name="Path 10488" d="M1256.811,1243.72q.492-1.213.934-2.446a71.706,71.706,0,0,0,7.97-3.42c-.252.921-.526,1.834-.812,2.744a71.657,71.657,0,0,1-8.092,3.122Z" fill="#1f1f1f"/>
        <path id="Path_10489" data-name="Path 10489" d="M1254.425,1249c.389-.78.77-1.566,1.131-2.361a71.941,71.941,0,0,0,8.226-2.753q-.495,1.342-1.035,2.667A72.069,72.069,0,0,1,1254.425,1249Z" fill="#1f1f1f"/>
        <path id="Path_10490" data-name="Path 10490" d="M1251.615,1254.071q.679-1.119,1.32-2.261a72.271,72.271,0,0,0,8.422-2.072c-.4.864-.815,1.725-1.25,2.574a72.524,72.524,0,0,1-8.492,1.759Z" fill="#1f1f1f"/>
        <g id="Group_2265" data-name="Group 2265">
          <path id="Path_10491" data-name="Path 10491" d="M1263.639,1217.163c-.57.479-1.136.947-1.713,1.4q-.024,1.312-.1,2.619,2.542-1.873,4.98-4.022Z" fill="#1f1f1f"/>
          <path id="Path_10492" data-name="Path 10492" d="M1257.006,1257.835q.753-1.219,1.457-2.464-3.2.711-6.364,1.124l2.664,1.716C1255.507,1258.1,1256.26,1257.973,1257.006,1257.835Z" fill="#1f1f1f"/>
        </g>
      </g>
      <g id="Group_2268" data-name="Group 2268">
        <path id="Path_10493" data-name="Path 10493" d="M1244.8,1263.442q.855-.992,1.67-2.018a72.476,72.476,0,0,0,8.647-.674c-.533.791-1.089,1.566-1.65,2.336a72.605,72.605,0,0,1-8.667.357Z" fill="#1f1f1f"/>
        <path id="Path_10494" data-name="Path 10494" d="M1240.848,1267.682q.931-.92,1.829-1.875a72.863,72.863,0,0,0,8.674.03q-.9,1.111-1.835,2.192a72.5,72.5,0,0,1-8.667-.347Z" fill="#1f1f1f"/>
        <path id="Path_10495" data-name="Path 10495" d="M1236.563,1271.59c.668-.563,1.328-1.133,1.975-1.72a73.131,73.131,0,0,0,8.642.731q-.987,1.035-2.006,2.037A72.572,72.572,0,0,1,1236.563,1271.59Z" fill="#1f1f1f"/>
        <path id="Path_10496" data-name="Path 10496" d="M1231.976,1275.137q1.068-.762,2.107-1.556a72.6,72.6,0,0,0,8.555,1.429c-.711.635-1.431,1.26-2.165,1.868a72.888,72.888,0,0,1-8.5-1.741Z" fill="#1f1f1f"/>
        <path id="Path_10497" data-name="Path 10497" d="M1227.116,1278.3c.751-.445,1.492-.907,2.227-1.379a72.679,72.679,0,0,0,8.409,2.12q-1.137.866-2.309,1.686a72.172,72.172,0,0,1-8.326-2.427Z" fill="#1f1f1f"/>
        <path id="Path_10498" data-name="Path 10498" d="M1222.016,1281.05c.785-.381,1.562-.781,2.33-1.191a72.207,72.207,0,0,0,8.211,2.8c-.8.514-1.619,1.01-2.441,1.493a71.775,71.775,0,0,1-8.1-3.1Z" fill="#1f1f1f"/>
        <g id="Group_2267" data-name="Group 2267">
          <path id="Path_10499" data-name="Path 10499" d="M1252.1,1256.5q-1.1.144-2.2.253c-.489.724-.986,1.441-1.5,2.147q3.15-.2,6.363-.683Z" fill="#1f1f1f"/>
          <path id="Path_10500" data-name="Path 10500" d="M1224.529,1287.13q1.287-.623,2.555-1.288-3.08-1.129-5.968-2.489l1.318,2.882C1223.124,1286.543,1223.821,1286.839,1224.529,1287.13Z" fill="#1f1f1f"/>
        </g>
      </g>
      <g id="Group_2270" data-name="Group 2270">
        <path id="Path_10501" data-name="Path 10501" d="M1211.228,1285.261q1.254-.376,2.495-.794a71.829,71.829,0,0,0,7.642,4.1c-.877.373-1.759.736-2.651,1.076A71.875,71.875,0,0,1,1211.228,1285.261Z" fill="#1f1f1f"/>
        <path id="Path_10502" data-name="Path 10502" d="M1205.61,1286.685q1.282-.267,2.552-.587a71.55,71.55,0,0,0,7.28,4.715c-.9.3-1.816.585-2.731.854a71.448,71.448,0,0,1-7.1-4.982Z" fill="#1f1f1f"/>
        <path id="Path_10503" data-name="Path 10503" d="M1199.9,1287.648c.866-.111,1.729-.234,2.591-.375a72.1,72.1,0,0,0,6.87,5.295q-1.391.337-2.792.627a72.2,72.2,0,0,1-6.669-5.546Z" fill="#1f1f1f"/>
        <path id="Path_10504" data-name="Path 10504" d="M1194.117,1288.141q1.309-.057,2.614-.165a72.089,72.089,0,0,0,6.415,5.839q-1.415.227-2.833.4A72.372,72.372,0,0,1,1194.117,1288.141Z" fill="#1f1f1f"/>
        <path id="Path_10505" data-name="Path 10505" d="M1188.316,1288.167c.873.032,1.746.044,2.62.046a73.289,73.289,0,0,0,5.921,6.339q-1.425.105-2.855.165A73.686,73.686,0,0,1,1188.316,1288.167Z" fill="#1f1f1f"/>
        <path id="Path_10506" data-name="Path 10506" d="M1182.533,1287.727c.868.1,1.736.19,2.607.257a72.865,72.865,0,0,0,5.392,6.792c-.953,0-1.906-.027-2.858-.064a72.912,72.912,0,0,1-5.141-6.985Z" fill="#1f1f1f"/>
        <g id="Group_2269" data-name="Group 2269">
          <path id="Path_10507" data-name="Path 10507" d="M1221.116,1283.354c-.67-.314-1.333-.641-1.988-.973-.8.349-1.609.677-2.42,1q2.758,1.539,5.726,2.857Z" fill="#1f1f1f"/>
          <path id="Path_10508" data-name="Path 10508" d="M1181.365,1294.2c.945.117,1.894.212,2.844.3q-1.981-2.612-3.678-5.316l-.446,3.137C1180.5,1292.946,1180.926,1293.577,1181.365,1294.2Z" fill="#1f1f1f"/>
        </g>
      </g>
      <g id="Group_2272" data-name="Group 2272">
        <path id="Path_10509" data-name="Path 10509" d="M1171.18,1285.445c.838.24,1.68.469,2.527.677a71.974,71.974,0,0,0,4.22,7.578c-.94-.157-1.878-.336-2.812-.526a71.879,71.879,0,0,1-3.936-7.729Z" fill="#1f1f1f"/>
        <path id="Path_10510" data-name="Path 10510" d="M1165.682,1283.613q1.223.464,2.464.883a71.7,71.7,0,0,0,3.584,7.9c-.923-.237-1.846-.484-2.76-.756A71.978,71.978,0,0,1,1165.682,1283.613Z" fill="#1f1f1f"/>
        <path id="Path_10511" data-name="Path 10511" d="M1160.353,1281.335c.786.378,1.583.736,2.383,1.083a71.877,71.877,0,0,0,2.921,8.165c-.9-.308-1.8-.636-2.687-.979a71.611,71.611,0,0,1-2.617-8.27Z" fill="#1f1f1f"/>
        <path id="Path_10512" data-name="Path 10512" d="M1155.227,1278.629q1.131.658,2.287,1.274a72.226,72.226,0,0,0,2.243,8.379q-1.31-.575-2.6-1.2a72.213,72.213,0,0,1-1.931-8.456Z" fill="#1f1f1f"/>
        <path id="Path_10513" data-name="Path 10513" d="M1150.338,1275.512q1.076.748,2.176,1.458a72.465,72.465,0,0,0,1.552,8.532c-.839-.454-1.671-.92-2.492-1.4a72.256,72.256,0,0,1-1.236-8.586Z" fill="#1f1f1f"/>
        <path id="Path_10514" data-name="Path 10514" d="M1145.718,1272.01q1.012.833,2.051,1.628a72.8,72.8,0,0,0,.852,8.631q-1.2-.778-2.369-1.6a72.723,72.723,0,0,1-.534-8.657Z" fill="#1f1f1f"/>
        <g id="Group_2271" data-name="Group 2271">
          <path id="Path_10515" data-name="Path 10515" d="M1180.53,1289.179q-.589-.941-1.145-1.892c-.861-.143-1.721-.294-2.576-.468q1.492,2.78,3.275,5.5Z" fill="#1f1f1f"/>
          <path id="Path_10516" data-name="Path 10516" d="M1141.228,1276.813q1.1.916,2.23,1.791-.249-3.27-.21-6.46l-2.075,2.395C1141.181,1275.292,1141.2,1276.052,1141.228,1276.813Z" fill="#1f1f1f"/>
        </g>
      </g>
      <g id="Group_2274" data-name="Group 2274">
        <path id="Path_10517" data-name="Path 10517" d="M1137.405,1263.937q.862.987,1.761,1.94a72.712,72.712,0,0,0-.557,8.656q-1.057-.962-2.077-1.966a72.368,72.368,0,0,1,.873-8.63Z" fill="#1f1f1f"/>
        <path id="Path_10518" data-name="Path 10518" d="M1133.767,1259.422c.521.7,1.051,1.395,1.6,2.076a72.616,72.616,0,0,0-1.257,8.581q-.974-1.046-1.912-2.126A72.823,72.823,0,0,1,1133.767,1259.422Z" fill="#1f1f1f"/>
        <path id="Path_10519" data-name="Path 10519" d="M1130.507,1254.628q.693,1.111,1.423,2.2a72.685,72.685,0,0,0-1.947,8.451c-.59-.749-1.172-1.5-1.734-2.275a72.358,72.358,0,0,1,2.257-8.375Z" fill="#1f1f1f"/>
        <path id="Path_10520" data-name="Path 10520" d="M1127.65,1249.585c.4.778.814,1.544,1.239,2.306a72.088,72.088,0,0,0-2.629,8.265q-.8-1.191-1.542-2.409a72.093,72.093,0,0,1,2.931-8.162Z" fill="#1f1f1f"/>
        <path id="Path_10521" data-name="Path 10521" d="M1125.215,1244.326q.5,1.21,1.047,2.4a71.618,71.618,0,0,0-3.3,8.023c-.465-.833-.909-1.677-1.341-2.527a71.706,71.706,0,0,1,3.59-7.9Z" fill="#1f1f1f"/>
        <path id="Path_10522" data-name="Path 10522" d="M1123.22,1238.885c.269.83.546,1.658.846,2.478a71.8,71.8,0,0,0-3.943,7.726q-.586-1.306-1.13-2.629a71.82,71.82,0,0,1,4.227-7.575Z" fill="#1f1f1f"/>
        <g id="Group_2273" data-name="Group 2273">
          <path id="Path_10523" data-name="Path 10523" d="M1143.249,1272.144c.011-.742.029-1.478.062-2.211-.646-.587-1.287-1.181-1.911-1.79q-.252,3.147-.226,6.4Z" fill="#1f1f1f"/>
          <path id="Path_10524" data-name="Path 10524" d="M1116.845,1240.5c.283.912.591,1.814.909,2.713q1.553-2.886,3.315-5.55l-3.041.893Q1117.423,1239.515,1116.845,1240.5Z" fill="#1f1f1f"/>
        </g>
      </g>
      <g id="Group_2276" data-name="Group 2276">
        <path id="Path_10525" data-name="Path 10525" d="M1120.6,1227.6q.188,1.3.429,2.583a71.506,71.506,0,0,0-5.154,6.976c-.247-.921-.473-1.847-.684-2.778A71.693,71.693,0,0,1,1120.6,1227.6Z" fill="#1f1f1f"/>
        <path id="Path_10526" data-name="Path 10526" d="M1119.989,1221.839c.057.871.132,1.741.217,2.611a72.633,72.633,0,0,0-5.705,6.531c-.167-.939-.321-1.88-.454-2.824a72.916,72.916,0,0,1,5.943-6.317Z" fill="#1f1f1f"/>
        <path id="Path_10527" data-name="Path 10527" d="M1119.847,1216.04c-.01.873-.013,1.747.008,2.621a72.926,72.926,0,0,0-6.218,6.047c-.094-.948-.164-1.9-.223-2.85A73.5,73.5,0,0,1,1119.847,1216.04Z" fill="#1f1f1f"/>
        <path id="Path_10528" data-name="Path 10528" d="M1120.172,1210.249c-.087.869-.152,1.739-.2,2.612a73.451,73.451,0,0,0-6.684,5.527c-.012-.953-.014-1.906.008-2.858A72.689,72.689,0,0,1,1120.172,1210.249Z" fill="#1f1f1f"/>
        <path id="Path_10529" data-name="Path 10529" d="M1120.962,1204.505c-.152.86-.294,1.722-.416,2.586a72.861,72.861,0,0,0-7.108,4.969c.062-.95.144-1.9.237-2.85a72.783,72.783,0,0,1,7.286-4.705Z" fill="#1f1f1f"/>
        <path id="Path_10530" data-name="Path 10530" d="M1122.22,1198.85c-.226.843-.432,1.691-.626,2.541a72.091,72.091,0,0,0-7.49,4.374q.208-1.415.469-2.821A71.571,71.571,0,0,1,1122.22,1198.85Z" fill="#1f1f1f"/>
        <g id="Group_2275" data-name="Group 2275">
          <path id="Path_10531" data-name="Path 10531" d="M1121.07,1237.664c.407-.618.825-1.227,1.248-1.827-.227-.843-.442-1.688-.64-2.539q-1.913,2.508-3.649,5.257Z" fill="#1f1f1f"/>
          <path id="Path_10532" data-name="Path 10532" d="M1115.982,1196.766q-.373,1.383-.7,2.776,2.871-1.59,5.787-2.881l-3.041-.891Q1117,1196.249,1115.982,1196.766Z" fill="#1f1f1f"/>
        </g>
      </g>
      <g id="Group_2278" data-name="Group 2278">
        <path id="Path_10533" data-name="Path 10533" d="M1126.106,1187.94q-.538,1.194-1.033,2.406a71.791,71.791,0,0,0-8.1,3.089c.293-.907.6-1.812.924-2.708a72.029,72.029,0,0,1,8.213-2.786Z" fill="#1f1f1f"/>
        <path id="Path_10534" data-name="Path 10534" d="M1128.707,1182.76c-.425.763-.83,1.536-1.227,2.314a71.377,71.377,0,0,0-8.331,2.415q.545-1.324,1.144-2.624a71.977,71.977,0,0,1,8.414-2.105Z" fill="#1f1f1f"/>
        <path id="Path_10535" data-name="Path 10535" d="M1131.723,1177.81q-.727,1.09-1.412,2.206a72.332,72.332,0,0,0-8.5,1.724c.435-.848.889-1.687,1.354-2.519a72.413,72.413,0,0,1,8.559-1.411Z" fill="#1f1f1f"/>
        <path id="Path_10536" data-name="Path 10536" d="M1135.132,1173.121c-.541.686-1.073,1.378-1.588,2.083a72.164,72.164,0,0,0-8.612,1.027q.757-1.215,1.555-2.4a72.449,72.449,0,0,1,8.645-.709Z" fill="#1f1f1f"/>
        <path id="Path_10537" data-name="Path 10537" d="M1138.91,1168.722q-.892.959-1.751,1.948a72.486,72.486,0,0,0-8.667.324c.568-.766,1.149-1.524,1.745-2.267A72.752,72.752,0,0,1,1138.91,1168.722Z" fill="#1f1f1f"/>
        <path id="Path_10538" data-name="Path 10538" d="M1143.033,1164.644q-.968.882-1.9,1.8a72.52,72.52,0,0,0-8.664-.381q.94-1.078,1.923-2.117A72.814,72.814,0,0,1,1143.033,1164.644Z" fill="#1f1f1f"/>
        <g id="Group_2277" data-name="Group 2277">
          <path id="Path_10539" data-name="Path 10539" d="M1121.07,1196.661q1.016-.45,2.037-.865c.259-.833.541-1.659.833-2.481q-2.969,1.076-5.911,2.454Z" fill="#1f1f1f"/>
          <path id="Path_10540" data-name="Path 10540" d="M1138.913,1159.519c-.707.64-1.406,1.288-2.088,1.954q3.272.217,6.424.708l-2.075-2.4C1140.426,1159.687,1139.671,1159.6,1138.913,1159.519Z" fill="#1f1f1f"/>
        </g>
      </g>
      <g id="Group_2280" data-name="Group 2280">
        <path id="Path_10541" data-name="Path 10541" d="M1152.2,1157.56q-1.1.712-2.17,1.467a72.708,72.708,0,0,0-8.49-1.777q1.105-.908,2.241-1.778a72.5,72.5,0,0,1,8.419,2.088Z" fill="#1f1f1f"/>
        <path id="Path_10542" data-name="Path 10542" d="M1157.185,1154.6c-.767.416-1.53.842-2.281,1.286a72.444,72.444,0,0,0-8.317-2.46c.782-.543,1.574-1.076,2.377-1.591A72.33,72.33,0,0,1,1157.185,1154.6Z" fill="#1f1f1f"/>
        <path id="Path_10543" data-name="Path 10543" d="M1162.393,1152.056q-1.2.527-2.378,1.1a72.24,72.24,0,0,0-8.088-3.13c.824-.478,1.657-.945,2.5-1.392A72,72,0,0,1,1162.393,1152.056Z" fill="#1f1f1f"/>
        <path id="Path_10544" data-name="Path 10544" d="M1167.79,1149.95c-.825.282-1.644.583-2.458.9a71.638,71.638,0,0,0-7.805-3.781c.86-.413,1.73-.805,2.605-1.183A71.394,71.394,0,0,1,1167.79,1149.95Z" fill="#1f1f1f"/>
        <path id="Path_10545" data-name="Path 10545" d="M1173.344,1148.294c-.845.217-1.687.443-2.525.691a71.89,71.89,0,0,0-7.468-4.41q1.339-.507,2.695-.965A71.889,71.889,0,0,1,1173.344,1148.294Z" fill="#1f1f1f"/>
        <path id="Path_10546" data-name="Path 10546" d="M1179.015,1147.1c-.861.143-1.718.308-2.573.482a71.927,71.927,0,0,0-7.08-5.008c.917-.262,1.837-.513,2.764-.74A71.975,71.975,0,0,1,1179.015,1147.1Z" fill="#1f1f1f"/>
        <g id="Group_2279" data-name="Group 2279">
          <path id="Path_10547" data-name="Path 10547" d="M1143.249,1162.18c.734.116,1.46.238,2.182.375.671-.559,1.351-1.108,2.042-1.639q-3.079-.7-6.3-1.13Z" fill="#1f1f1f"/>
          <path id="Path_10548" data-name="Path 10548" d="M1178.33,1140.558c-.94.156-1.88.321-2.815.512q2.635,1.953,5.016,4.076l-.446-3.138Q1179.223,1141.273,1178.33,1140.558Z" fill="#1f1f1f"/>
        </g>
      </g>
      <g id="Group_2282" data-name="Group 2282">
        <path id="Path_10549" data-name="Path 10549" d="M1190.561,1146.112c-.873,0-1.746.025-2.62.059a73.073,73.073,0,0,0-6.17-6.094c.946-.109,1.895-.207,2.846-.28a73.126,73.126,0,0,1,5.945,6.315Z" fill="#1f1f1f"/>
        <path id="Path_10550" data-name="Path 10550" d="M1196.359,1146.318q-1.308-.1-2.615-.151a73.886,73.886,0,0,0-5.662-6.57c.953-.036,1.9-.048,2.858-.051a74.019,74.019,0,0,1,5.419,6.772Z" fill="#1f1f1f"/>
        <path id="Path_10551" data-name="Path 10551" d="M1202.116,1146.994q-1.293-.206-2.593-.362a72.685,72.685,0,0,0-5.112-7.006q1.428.061,2.853.18a71.908,71.908,0,0,1,4.852,7.188Z" fill="#1f1f1f"/>
        <path id="Path_10552" data-name="Path 10552" d="M1207.8,1148.135q-1.273-.307-2.554-.573a72.416,72.416,0,0,0-4.526-7.4c.945.122,1.89.256,2.83.41A72.03,72.03,0,0,1,1207.8,1148.135Z" fill="#1f1f1f"/>
        <path id="Path_10553" data-name="Path 10553" d="M1213.367,1149.74c-.828-.277-1.661-.535-2.5-.781a71.7,71.7,0,0,0-3.9-7.744q1.4.292,2.789.642a71.676,71.676,0,0,1,3.614,7.883Z" fill="#1f1f1f"/>
        <path id="Path_10554" data-name="Path 10554" d="M1218.784,1151.8c-.8-.342-1.61-.673-2.426-.983a71.862,71.862,0,0,0-3.255-8.04q1.37.41,2.725.868a71.82,71.82,0,0,1,2.955,8.155Z" fill="#1f1f1f"/>
        <g id="Group_2281" data-name="Group 2281">
          <path id="Path_10555" data-name="Path 10555" d="M1180.53,1145.146c.555.494,1.1.989,1.632,1.5.866-.108,1.734-.2,2.6-.271q-2.211-2.255-4.683-4.364Z" fill="#1f1f1f"/>
          <path id="Path_10556" data-name="Path 10556" d="M1221.74,1145.921c-.874-.382-1.758-.741-2.646-1.09q1.164,3.065,2.022,6.14l1.318-2.881Q1222.106,1147,1221.74,1145.921Z" fill="#1f1f1f"/>
        </g>
      </g>
      <g id="Group_2284" data-name="Group 2284">
        <path id="Path_10557" data-name="Path 10557" d="M1229.028,1157.2c-.736-.471-1.484-.924-2.234-1.366a71.893,71.893,0,0,0-1.9-8.464q1.286.625,2.548,1.3a72.529,72.529,0,0,1,1.586,8.527Z" fill="#1f1f1f"/>
        <path id="Path_10558" data-name="Path 10558" d="M1233.785,1160.518q-1.042-.795-2.115-1.544a72.881,72.881,0,0,0-1.2-8.591c.821.486,1.629.991,2.432,1.507A72.135,72.135,0,0,1,1233.785,1160.518Z" fill="#1f1f1f"/>
        <path id="Path_10559" data-name="Path 10559" d="M1238.258,1164.206c-.651-.582-1.31-1.156-1.982-1.712a73.028,73.028,0,0,0-.5-8.659q1.164.83,2.3,1.7a72.578,72.578,0,0,1,.181,8.673Z" fill="#1f1f1f"/>
        <path id="Path_10560" data-name="Path 10560" d="M1242.418,1168.245q-.9-.948-1.837-1.866a73.019,73.019,0,0,0,.2-8.671c.729.615,1.45,1.238,2.156,1.879a72.648,72.648,0,0,1-.522,8.658Z" fill="#1f1f1f"/>
        <path id="Path_10561" data-name="Path 10561" d="M1246.238,1172.608q-.823-1.019-1.68-2.009a73.014,73.014,0,0,0,.906-8.625q1.017,1.006,2,2.049A72.884,72.884,0,0,1,1246.238,1172.608Z" fill="#1f1f1f"/>
        <path id="Path_10562" data-name="Path 10562" d="M1249.69,1177.267c-.489-.724-1-1.434-1.512-2.138a72.566,72.566,0,0,0,1.6-8.524q.934,1.083,1.823,2.2a72.5,72.5,0,0,1-1.914,8.459Z" fill="#1f1f1f"/>
        <g id="Group_2283" data-name="Group 2283">
          <path id="Path_10563" data-name="Path 10563" d="M1221.116,1150.971c.2.713.386,1.429.563,2.139q1.179.571,2.339,1.18-.643-3.089-1.583-6.2Z" fill="#1f1f1f"/>
          <path id="Path_10564" data-name="Path 10564" d="M1255.348,1173.914c-.534-.79-1.077-1.573-1.639-2.344q-.678,3.209-1.612,6.26l2.666-1.716Q1255.07,1175.025,1255.348,1173.914Z" fill="#1f1f1f"/>
        </g>
      </g>
      <g id="Group_2286" data-name="Group 2286">
        <path id="Path_10565" data-name="Path 10565" d="M1255.4,1187.344c-.368-.79-.745-1.578-1.143-2.355a72.39,72.39,0,0,0,2.965-8.151q.742,1.222,1.443,2.47a71.907,71.907,0,0,1-3.264,8.035Z" fill="#1f1f1f"/>
        <path id="Path_10566" data-name="Path 10566" d="M1257.618,1192.7q-.453-1.228-.948-2.441a71.544,71.544,0,0,0,3.621-7.88c.428.852.843,1.71,1.237,2.58a71.989,71.989,0,0,1-3.91,7.741Z" fill="#1f1f1f"/>
        <path id="Path_10567" data-name="Path 10567" d="M1259.386,1198.217c-.23-.842-.48-1.677-.743-2.509a71.545,71.545,0,0,0,4.256-7.558q.537,1.325,1.021,2.673a71.229,71.229,0,0,1-4.534,7.394Z" fill="#1f1f1f"/>
        <path id="Path_10568" data-name="Path 10568" d="M1260.7,1203.862c-.166-.857-.34-1.712-.535-2.563a71.893,71.893,0,0,0,4.862-7.182q.423,1.367.8,2.748A72.089,72.089,0,0,1,1260.7,1203.862Z" fill="#1f1f1f"/>
        <path id="Path_10569" data-name="Path 10569" d="M1261.542,1209.6c-.091-.868-.2-1.734-.325-2.6a71.778,71.778,0,0,0,5.435-6.759c.207.931.4,1.866.57,2.8a72.278,72.278,0,0,1-5.68,6.554Z" fill="#1f1f1f"/>
        <path id="Path_10570" data-name="Path 10570" d="M1261.92,1215.384c-.025-.873-.059-1.746-.114-2.617a72.843,72.843,0,0,0,5.969-6.3c.131.945.239,1.892.338,2.841a73.574,73.574,0,0,1-6.193,6.071Z" fill="#1f1f1f"/>
        <g id="Group_2285" data-name="Group 2285">
          <path id="Path_10571" data-name="Path 10571" d="M1252.1,1177.829c-.219.71-.443,1.41-.682,2.106q.69,1.114,1.333,2.254,1.126-2.948,2.012-6.076Z" fill="#1f1f1f"/>
          <path id="Path_10572" data-name="Path 10572" d="M1268.489,1215.631q-.026-1.428-.108-2.856-2.307,2.328-4.743,4.388h3.168C1267.369,1216.663,1267.936,1216.152,1268.489,1215.631Z" fill="#1f1f1f"/>
        </g>
      </g>
    </g>
    <g id="Group_2288" data-name="Group 2288">
      <path id="Path_10573" data-name="Path 10573" d="M1321.983,1233.471c-1.9-3.092-3.918-5.958-5.464-8.64s-2.6-5.185-2.6-7.669,1.059-4.984,2.6-7.668,3.559-5.549,5.464-8.64a44.51,44.51,0,0,0,4.763-9.833,16.945,16.945,0,0,0-5.113-19.118,44.453,44.453,0,0,0-9.035-6.155c-3.2-1.73-6.377-3.21-9.055-4.766s-4.849-3.2-6.1-5.35-1.581-4.855-1.6-7.952.3-6.59.391-10.217a44.627,44.627,0,0,0-.805-10.887,16.89,16.89,0,0,0-13.958-13.958,44.683,44.683,0,0,0-10.887-.8c-3.626.093-7.122.4-10.216.39s-5.8-.349-7.951-1.6-3.794-3.416-5.352-6.1-3.035-5.858-4.765-9.056a44.5,44.5,0,0,0-6.154-9.035,16.947,16.947,0,0,0-19.119-5.112,44.466,44.466,0,0,0-9.834,4.762c-3.092,1.9-5.959,3.919-8.64,5.464s-5.186,2.6-7.669,2.6-4.983-1.059-7.668-2.6-5.548-3.559-8.64-5.464a44.491,44.491,0,0,0-9.834-4.762,16.946,16.946,0,0,0-19.119,5.112,44.482,44.482,0,0,0-6.154,9.035c-1.73,3.2-3.21,6.377-4.765,9.056s-3.2,4.849-5.352,6.1-4.853,1.579-7.95,1.6-6.591-.3-10.218-.39a44.608,44.608,0,0,0-10.886.8,16.888,16.888,0,0,0-13.957,13.957,44.664,44.664,0,0,0-.806,10.889c.094,3.625.4,7.122.391,10.216s-.349,5.8-1.6,7.952-3.415,3.793-6.1,5.352-5.858,3.034-9.056,4.765a44.4,44.4,0,0,0-9.035,6.153,16.946,16.946,0,0,0-5.114,19.118,44.562,44.562,0,0,0,4.763,9.834c1.906,3.093,3.92,5.957,5.465,8.639s2.6,5.185,2.6,7.668-1.057,4.983-2.6,7.669-3.559,5.547-5.465,8.639a44.541,44.541,0,0,0-4.762,9.834,16.947,16.947,0,0,0,5.113,19.119,44.584,44.584,0,0,0,9.035,6.154c3.2,1.728,6.377,3.209,9.055,4.764s4.849,3.2,6.1,5.351,1.581,4.855,1.6,7.952-.3,6.589-.391,10.216a44.655,44.655,0,0,0,.806,10.888,16.888,16.888,0,0,0,13.957,13.957,44.651,44.651,0,0,0,10.888.8c3.626-.092,7.122-.4,10.216-.39s5.8.35,7.951,1.6,3.793,3.417,5.351,6.1,3.035,5.857,4.765,9.055a44.554,44.554,0,0,0,6.154,9.034,16.946,16.946,0,0,0,19.12,5.112,44.569,44.569,0,0,0,9.833-4.761c3.093-1.905,5.958-3.92,8.64-5.464s5.187-2.6,7.668-2.6,4.983,1.059,7.669,2.6,5.547,3.559,8.639,5.464a44.564,44.564,0,0,0,9.834,4.761,16.948,16.948,0,0,0,19.12-5.112,44.526,44.526,0,0,0,6.152-9.034c1.73-3.2,3.211-6.377,4.766-9.057s3.2-4.847,5.351-6.1,4.855-1.579,7.951-1.6,6.591.3,10.216.39a44.669,44.669,0,0,0,10.888-.8,16.888,16.888,0,0,0,13.957-13.958,44.648,44.648,0,0,0,.8-10.887c-.093-3.626-.4-7.123-.391-10.218s.349-5.8,1.6-7.951,3.415-3.794,6.1-5.351,5.858-3.035,9.055-4.765a44.422,44.422,0,0,0,9.034-6.154,16.948,16.948,0,0,0,5.113-19.118A44.484,44.484,0,0,0,1321.983,1233.471Zm-14.977-19.973a85.135,85.135,0,0,1,6.493-11.528,53.256,53.256,0,0,0,4.984-9.192,25.427,25.427,0,0,0,1.4-10.165,21.276,21.276,0,0,1,.07,10.693,28.221,28.221,0,0,1-3.975,8.773c-3.378,5.13-7.538,8.7-8.97,11.42a12.327,12.327,0,0,0-.493,1.341,4.629,4.629,0,0,1,.493-1.342Zm-16.3-81.535a28.358,28.358,0,0,1,.956,9.577c-.346,6.128-2.16,11.309-2.029,14.382a10.83,10.83,0,0,0,.246,1.408,4.433,4.433,0,0,1-.246-1.408,44,44,0,0,1-.3-4.689c-.046-2.167,0-4.97.131-8.544a53.514,53.514,0,0,0-.294-10.446,25.493,25.493,0,0,0-3.867-9.484,21.292,21.292,0,0,1,5.4,9.2Zm-55.962-38.519a28.281,28.281,0,0,1,5.622,7.825c2.761,5.493,3.777,10.878,5.42,13.482a11.8,11.8,0,0,0,.914,1.1,4.615,4.615,0,0,1-.914-1.1,85.478,85.478,0,0,1-6.75-11.39,53.008,53.008,0,0,0-5.483-8.906,25.445,25.445,0,0,0-8.114-6.284,21.314,21.314,0,0,1,9.3,5.274Zm-67.7-5.345a28.235,28.235,0,0,1,8.772,3.975c5.13,3.379,8.7,7.538,11.42,8.971a11.752,11.752,0,0,0,1.34.492,4.623,4.623,0,0,1-1.34-.492,85.266,85.266,0,0,1-11.528-6.494,53.252,53.252,0,0,0-9.192-4.984,25.437,25.437,0,0,0-10.165-1.4,21.285,21.285,0,0,1,10.693-.069Zm-61.354,29.254a28.363,28.363,0,0,1,9.576-.957c6.13.346,11.309,2.16,14.382,2.03a10.779,10.779,0,0,0,1.407-.248,4.483,4.483,0,0,1-1.407.248,44.616,44.616,0,0,1-4.688.3c-2.168.045-4.971,0-8.544-.13a53.568,53.568,0,0,0-10.447.294,25.472,25.472,0,0,0-9.484,3.867,21.3,21.3,0,0,1,9.2-5.4Zm-43.786,65.255a21.31,21.31,0,0,1,5.275-9.3,28.321,28.321,0,0,1,7.826-5.623c5.492-2.759,10.878-3.775,13.481-5.417a11.949,11.949,0,0,0,1.1-.915,4.615,4.615,0,0,1-1.1.915,85.443,85.443,0,0,1-11.391,6.75,53.107,53.107,0,0,0-8.907,5.483,25.448,25.448,0,0,0-6.284,8.112Zm12.873,38.22a85.021,85.021,0,0,1-6.493,11.529,53.285,53.285,0,0,0-4.984,9.191,25.427,25.427,0,0,0-1.4,10.164,21.276,21.276,0,0,1-.07-10.692,28.245,28.245,0,0,1,3.976-8.773c3.378-5.129,7.537-8.7,8.969-11.42a11.506,11.506,0,0,0,.493-1.342,4.61,4.61,0,0,1-.493,1.343Zm16.3,81.535a28.344,28.344,0,0,1-.956-9.577c.346-6.129,2.161-11.309,2.031-14.382a11.01,11.01,0,0,0-.247-1.408,4.489,4.489,0,0,1,.247,1.408,44.954,44.954,0,0,1,.3,4.689c.045,2.167,0,4.97-.13,8.544a53.5,53.5,0,0,0,.292,10.445,25.481,25.481,0,0,0,3.869,9.484,21.294,21.294,0,0,1-5.4-9.2Zm55.962,38.52a28.33,28.33,0,0,1-5.624-7.827c-2.76-5.491-3.775-10.877-5.418-13.48a11.571,11.571,0,0,0-.915-1.1,4.583,4.583,0,0,1,.915,1.1,85.306,85.306,0,0,1,6.75,11.39,53.113,53.113,0,0,0,5.484,8.906,25.417,25.417,0,0,0,8.112,6.284A21.309,21.309,0,0,1,1147.036,1340.882Zm67.7,5.345a28.263,28.263,0,0,1-8.771-3.976c-5.13-3.378-8.7-7.538-11.42-8.971a12.3,12.3,0,0,0-1.341-.493,4.664,4.664,0,0,1,1.341.492,85.371,85.371,0,0,1,11.527,6.494,53.285,53.285,0,0,0,9.192,4.984,25.42,25.42,0,0,0,10.163,1.4A21.271,21.271,0,0,1,1214.739,1346.227Zm-1.046-44.019a88.8,88.8,0,0,1-45.606,0,87.341,87.341,0,0,1-21.2-8.789,88.581,88.581,0,0,1-32.255-32.256,87.34,87.34,0,0,1-8.788-21.2,88.758,88.758,0,0,1,0-45.605,87.339,87.339,0,0,1,8.789-21.2,88.58,88.58,0,0,1,32.255-32.256,87.3,87.3,0,0,1,21.2-8.788,88.792,88.792,0,0,1,45.606,0,87.312,87.312,0,0,1,21.2,8.789,88.579,88.579,0,0,1,32.255,32.255,87.337,87.337,0,0,1,8.788,21.2,88.776,88.776,0,0,1,0,45.606,87.324,87.324,0,0,1-8.788,21.2,88.568,88.568,0,0,1-32.255,32.256,87.326,87.326,0,0,1-21.2,8.789Zm62.4,14.766a28.359,28.359,0,0,1-9.577.957c-6.128-.346-11.309-2.16-14.381-2.029a10.535,10.535,0,0,0-1.407.247,4.442,4.442,0,0,1,1.407-.247,44.215,44.215,0,0,1,4.688-.3c2.167-.045,4.971,0,8.544.129a53.522,53.522,0,0,0,10.445-.293,25.493,25.493,0,0,0,9.485-3.868,21.285,21.285,0,0,1-9.2,5.4Zm38.512-55.951a28.323,28.323,0,0,1-7.826,5.623c-5.492,2.76-10.877,3.775-13.481,5.418a13.157,13.157,0,0,0-1.1.914,4.7,4.7,0,0,1,1.1-.914,85.511,85.511,0,0,1,11.39-6.749,53.227,53.227,0,0,0,8.907-5.483,25.431,25.431,0,0,0,6.284-8.114,21.322,21.322,0,0,1-5.275,9.305Z" fill="#1f1f1f"/>
      <path id="Path_10574" data-name="Path 10574" d="M1274.981,1217.163a83.671,83.671,0,0,0-11.238-42.033,84.109,84.109,0,1,0,0,84.066,83.684,83.684,0,0,0,11.237-42.032Zm-44.462,68.7a79.313,79.313,0,1,1,29.07-29.071,79.424,79.424,0,0,1-29.07,29.071Z" fill="#1f1f1f"/>
    </g>
    <g id="Group_2299" data-name="Group 2299">
      <g id="Group_2289" data-name="Group 2289">
        <path id="Path_10575" data-name="Path 10575" d="M1162.546,1236.864l-2.634-10.359h-8.479l-2.605,10.359h-2.489l8.364-32.7h2.069l8.32,32.7Zm-3.4-13.768-2.46-10.091q-.478-1.916-.984-4.7-.318,2.139-.911,4.7L1152.3,1223.1Z" fill="#1f1f1f"/>
        <path id="Path_10576" data-name="Path 10576" d="M1185.3,1175.944h5.976q4.21,0,6.092,1.938t1.882,6.126a9.731,9.731,0,0,1-1.05,4.778,4.88,4.88,0,0,1-3.061,2.439v.224q4.819,1.27,4.819,7.8a10.816,10.816,0,0,1-1.917,6.817,6.42,6.42,0,0,1-5.361,2.45H1185.3Zm2.46,13.946h4.052a4.852,4.852,0,0,0,3.747-1.259q1.143-1.259,1.144-4.244a5.263,5.263,0,0,0-1.274-3.954,5.714,5.714,0,0,0-4.051-1.215h-3.618Zm0,3.208v12.186h4.413a4.776,4.776,0,0,0,3.856-1.526,7.3,7.3,0,0,0,1.3-4.779,6.382,6.382,0,0,0-1.324-4.456,5.247,5.247,0,0,0-4.03-1.426Z" fill="#1f1f1f"/>
        <path id="Path_10577" data-name="Path 10577" d="M1229.58,1207.157q-3.488,0-5.506,3.575t-2.019,9.791q0,6.395,1.946,9.881a6.077,6.077,0,0,0,5.549,3.487,12.968,12.968,0,0,0,5.051-1.225v3.319a10.71,10.71,0,0,1-5.427,1.27,7.943,7.943,0,0,1-7.213-4.366q-2.54-4.365-2.54-12.41a28.769,28.769,0,0,1,1.222-8.821,12.91,12.91,0,0,1,3.531-5.838,7.924,7.924,0,0,1,5.433-2.049,9.408,9.408,0,0,1,5.817,1.872l-1.041,3.253a8.168,8.168,0,0,0-4.8-1.737Z" fill="#1f1f1f"/>
        <path id="Path_10578" data-name="Path 10578" d="M1201.077,1248.484q0,8.065-2.843,12.331a9.242,9.242,0,0,1-8.183,4.266h-5.86V1232.51h6.483a8.649,8.649,0,0,1,7.668,4.211Q1201.077,1240.93,1201.077,1248.484Zm-2.6.133q0-6.371-2.076-9.6a6.863,6.863,0,0,0-6.171-3.23h-3.574v26.021h2.995a7.416,7.416,0,0,0,6.613-3.331q2.214-3.331,2.213-9.859Z" fill="#1f1f1f"/>
      </g>
      <g id="Group_2298" data-name="Group 2298">
        <g id="Group_2293" data-name="Group 2293">
          <path id="Path_10579" data-name="Path 10579" d="M1220.646,1258.224l10.161,10.161-.865-9.512,9.513.864-10.161-10.16-9.513-.865Zm1.084-.008-.646-7.109,1.59,1.59.647,7.11Zm3.117,3.116-.646-7.108,1.591,1.59.646,7.111Zm4.707,4.708-1.59-1.591-.647-7.109,1.59,1.589Zm7.556-7.556-7.11-.646-1.59-1.591,7.11.646Zm-3.117-3.118-7.11-.646-1.591-1.589,7.11.646Zm-4.707-4.707,1.59,1.591-7.109-.646-1.591-1.59Z" fill="#1f1f1f"/>
          <rect id="Rectangle_658" data-name="Rectangle 658" width="1.59" height="97.975" transform="translate(1151.133 1181.131) rotate(-45)" fill="#1f1f1f"/>
          <g id="Group_2290" data-name="Group 2290">
            <path id="Path_10580" data-name="Path 10580" d="M1193.319,1220.593a.828.828,0,0,1,1.168.056h0a.829.829,0,0,1,.055,1.167l-1.606,1.606a.829.829,0,0,1-1.167-.055h0a.829.829,0,0,1-.055-1.167Z" fill="#1f1f1f"/>
            <path id="Path_10581" data-name="Path 10581" d="M1194.762,1220.371a1.219,1.219,0,0,1,.056,1.72l-1.607,1.607a1.258,1.258,0,0,1-1.775-1.776l1.606-1.606A1.218,1.218,0,0,1,1194.762,1220.371Zm-2.717,2.718a.44.44,0,0,0,.614.056l1.606-1.606a.482.482,0,0,0-.67-.671l-1.605,1.607A.44.44,0,0,0,1192.045,1223.089Z" fill="#1f1f1f"/>
          </g>
          <g id="Group_2291" data-name="Group 2291">
            <path id="Path_10582" data-name="Path 10582" d="M1190.922,1218.2a.83.83,0,0,1,1.167.056h0a.829.829,0,0,1,.056,1.168l-1.606,1.606a.828.828,0,0,1-1.167-.056h0a.83.83,0,0,1-.056-1.168Z" fill="#1f1f1f"/>
            <path id="Path_10583" data-name="Path 10583" d="M1192.366,1217.974a1.222,1.222,0,0,1,.056,1.721l-1.605,1.606a1.259,1.259,0,0,1-1.776-1.777l1.606-1.6A1.218,1.218,0,0,1,1192.366,1217.974Zm-2.718,2.718a.44.44,0,0,0,.615.055l1.606-1.605a.481.481,0,0,0-.67-.67l-1.606,1.606a.441.441,0,0,0,.056.615Z" fill="#1f1f1f"/>
          </g>
          <g id="Group_2292" data-name="Group 2292">
            <path id="Path_10584" data-name="Path 10584" d="M1188.526,1215.8a.827.827,0,0,1,1.167.055h0a.827.827,0,0,1,.055,1.167l-1.6,1.606a.829.829,0,0,1-1.168-.056h0a.828.828,0,0,1-.055-1.166Z" fill="#1f1f1f"/>
            <path id="Path_10585" data-name="Path 10585" d="M1189.969,1215.578a1.22,1.22,0,0,1,.056,1.72l-1.606,1.606a1.258,1.258,0,0,1-1.776-1.775l1.606-1.606A1.219,1.219,0,0,1,1189.969,1215.578Zm-2.717,2.717a.441.441,0,0,0,.615.057l1.606-1.607a.482.482,0,0,0-.67-.67l-1.605,1.606a.441.441,0,0,0,.055.615Z" fill="#1f1f1f"/>
          </g>
          <path id="Path_10586" data-name="Path 10586" d="M1160.518,1181.436c-8.091-2.134-15.3-8.292-18.208-10.5,2.206,2.908,8.364,10.118,10.5,18.208a23.442,23.442,0,0,0-.078-7.787A23.417,23.417,0,0,0,1160.518,1181.436Z" fill="#1f1f1f"/>
        </g>
        <g id="Group_2297" data-name="Group 2297">
          <path id="Path_10587" data-name="Path 10587" d="M1161.982,1248.712l-9.513.865-10.16,10.16,9.512-.864-.865,9.512,10.161-10.161Zm-3.54,11.094.647-7.11,1.59-1.59-.646,7.109Zm-3.116,3.118.646-7.111,1.59-1.59-.647,7.108Zm-2.47-3.995,1.591-1.589-.647,7.109-1.59,1.591Zm-6.611-2.036,7.109-.646-1.59,1.591-7.11.646Zm3.117-3.116,7.11-.646-1.59,1.589-7.11.646Zm10.226-3.764-1.59,1.59-7.109.646,1.59-1.591Z" fill="#1f1f1f"/>
          <rect id="Rectangle_659" data-name="Rectangle 659" width="97.975" height="1.59" transform="matrix(0.707, -0.707, 0.707, 0.707, 1160.23, 1249.286)" fill="#1f1f1f"/>
          <g id="Group_2294" data-name="Group 2294">
            <path id="Path_10588" data-name="Path 10588" d="M1188.444,1220.593a.828.828,0,0,0-1.167.055h0a.829.829,0,0,0-.056,1.167l1.606,1.606a.829.829,0,0,0,1.167-.055h0a.828.828,0,0,0,.056-1.167Z" fill="#1f1f1f"/>
            <path id="Path_10589" data-name="Path 10589" d="M1188.72,1220.316l1.6,1.606a1.258,1.258,0,0,1-1.775,1.776l-1.606-1.607a1.258,1.258,0,0,1,1.776-1.775Zm1.053,2.159-1.607-1.607a.482.482,0,0,0-.67.671l1.606,1.606a.482.482,0,0,0,.671-.67Z" fill="#1f1f1f"/>
          </g>
          <g id="Group_2295" data-name="Group 2295">
            <path id="Path_10590" data-name="Path 10590" d="M1190.84,1218.2a.83.83,0,0,0-1.167.056h0a.829.829,0,0,0-.055,1.168l1.606,1.606a.827.827,0,0,0,1.166-.056h0a.83.83,0,0,0,.057-1.168Z" fill="#1f1f1f"/>
            <path id="Path_10591" data-name="Path 10591" d="M1191.117,1217.92l1.606,1.6a1.259,1.259,0,0,1-1.775,1.777l-1.606-1.606a1.258,1.258,0,0,1,1.776-1.776Zm1.053,2.158-1.605-1.606a.482.482,0,0,0-.671.67l1.606,1.605a.481.481,0,0,0,.67-.67Z" fill="#1f1f1f"/>
          </g>
          <g id="Group_2296" data-name="Group 2296">
            <path id="Path_10592" data-name="Path 10592" d="M1193.236,1215.8a.827.827,0,0,0-1.167.056h0a.827.827,0,0,0-.056,1.166l1.606,1.606a.828.828,0,0,0,1.167-.056h0a.827.827,0,0,0,.055-1.166Z" fill="#1f1f1f"/>
            <path id="Path_10593" data-name="Path 10593" d="M1193.513,1215.523l1.606,1.606a1.258,1.258,0,0,1-1.775,1.775l-1.606-1.606a1.258,1.258,0,0,1,1.776-1.775Zm1.053,2.157-1.606-1.606a.482.482,0,0,0-.67.67l1.606,1.607a.482.482,0,0,0,.67-.671Z" fill="#1f1f1f"/>
          </g>
          <path id="Path_10594" data-name="Path 10594" d="M1221.245,1181.436c8.092-2.134,15.3-8.292,18.209-10.5-2.207,2.908-8.365,10.118-10.5,18.208a23.467,23.467,0,0,1,.078-7.787A23.41,23.41,0,0,1,1221.245,1181.436Z" fill="#1f1f1f"/>
        </g>
      </g>
    </g>
  </g>
</svg>
