<svg xmlns="http://www.w3.org/2000/svg" width="32.899" height="25.178" viewBox="0 0 32.899 25.178">
  <g id="Group_302" data-name="Group 302" transform="translate(-148.323 -553.186)">
    <g id="Group_301" data-name="Group 301">
      <path id="Path_1061" data-name="Path 1061" d="M157.052,554.125l-7.79,7.791,15.509,15.509,15.51-15.509-7.79-7.791a10.917,10.917,0,0,1-15.439,0Z" fill="#fff"/>
      <path id="Path_1062" data-name="Path 1062" d="M164.771,578.364l-16.448-16.448,8.73-8.73.468.469a10.251,10.251,0,0,0,14.5,0l.47-.469,8.73,8.73ZM150.2,561.916l14.57,14.57,14.57-14.57-6.864-6.865a11.577,11.577,0,0,1-15.414,0Z" fill="#e5007e"/>
    </g>
    <path id="Path_1063" data-name="Path 1063" d="M168.013,560.489l-.2.2a4.306,4.306,0,0,1-6.088,0l-.2-.2-3.665,3.666,6.906,6.906,6.907-6.906Z" fill="#e5007e"/>
  </g>
</svg>
