<svg xmlns="http://www.w3.org/2000/svg" width="108.414" height="84.815" viewBox="0 0 108.414 84.815">
  <g id="Group_2229" data-name="Group 2229" transform="translate(-565.64 -862.859)">
    <path id="Path_10294" data-name="Path 10294" d="M586.119,938.219l1.964,4.833s7.9,4.623,31.764,4.623,31.764-4.623,31.764-4.623l1.964-4.833c-4.325,1.55-14.49,4.177-33.729,4.177S590.44,939.769,586.119,938.219Z" fill="#1f1f1f"/>
    <path id="Path_10295" data-name="Path 10295" d="M674.035,887.507a.264.264,0,0,0-.436-.28c-6.9,7.3-13.932,12.181-26.717,15.279a.115.115,0,0,0-.07.174c3.043,4.771,4.946,9.94,4.946,14.964,0,8.053-6.563,11.182-12.676,11.182-4.77,0-11.929-3.427-11.929-11.182,0-9.357,4.855-16.043,10.659-22.434a.115.115,0,0,0,0-.159c-9.331-9.367-13.794-18.51-17.709-32a.264.264,0,0,0-.506,0c-3.918,13.492-8.381,22.635-17.709,32a.115.115,0,0,0,0,.159c5.8,6.391,10.659,13.077,10.659,22.434,0,7.755-7.159,11.182-11.933,11.182-6.114,0-12.673-3.129-12.673-11.182,0-5.024,1.9-10.193,4.943-14.964a.115.115,0,0,0-.07-.174c-12.781-3.1-19.816-7.978-26.713-15.278a.264.264,0,0,0-.436.28l19.958,49.115c4.006,1.515,14.2,4.364,34.23,4.364s30.221-2.848,34.23-4.364Zm-88.345,17.26a.075.075,0,0,1,.046.113c-2.938,4.595-4.777,9.574-4.777,14.415a.295.295,0,0,1-.568.111L573,901.2a.5.5,0,0,1,.69-.641,57.013,57.013,0,0,0,12,4.206Zm22.74-9.557a.115.115,0,0,1,0-.159,60.886,60.886,0,0,0,11.311-15.263.115.115,0,0,1,.2,0,60.751,60.751,0,0,0,11.136,15.087.378.378,0,0,1,.012.519c-5.75,6.381-11.25,14.686-11.25,23.954,0-9.357-5.607-17.733-11.417-24.138Zm11.417,43.546a8.067,8.067,0,1,1,8.067-8.067,8.067,8.067,0,0,1-8.067,8.067Zm46.976-37.86-7.52,18.511a.295.295,0,0,1-.568-.111c0-4.717-1.746-9.565-4.553-14.06a.379.379,0,0,1,.23-.568,56.014,56.014,0,0,0,11.889-4.252.378.378,0,0,1,.521.481Z" fill="#1f1f1f"/>
    <circle id="Ellipse_125" data-name="Ellipse 125" cx="4.56" cy="4.56" r="4.56" transform="translate(615.287 926.129)" fill="#1f1f1f"/>
  </g>
</svg>
