<svg xmlns="http://www.w3.org/2000/svg" width="251.195" height="152.037" viewBox="0 0 251.195 152.037">
  <g id="Group_2227" data-name="Group 2227" transform="translate(-293.527 -687.788)">
    <path id="Path_10283" data-name="Path 10283" d="M515.206,826.8a27.9,27.9,0,0,1-5.81-12.618l-2.9-1.672a9.608,9.608,0,0,1-2.452.542,2.294,2.294,0,0,1-1.7-.979,9.61,9.61,0,0,1-.756-2.394l-3.905-2.255a9.608,9.608,0,0,1-2.452.542,2.293,2.293,0,0,1-1.7-.979,9.607,9.607,0,0,1-.756-2.394l-12.745-7.358c-13.49-6.606-30.428-15.043-37.8-19.3-1.386-1.551-4.073-4.176-6.336-6.183l-2.958-1.708a9.61,9.61,0,0,1-2.452.542,2.294,2.294,0,0,1-1.7-.979,9.6,9.6,0,0,1-.756-2.394l-65.6-37.874a11.184,11.184,0,0,1-11.953-6.9L332.9,712.282a9.613,9.613,0,0,1-2.452.542,2.294,2.294,0,0,1-1.7-.979,9.612,9.612,0,0,1-.756-2.394l-8.844-5.106.762,11.474c-5.939-8.553-17.005-19.78-26.385-28.03,11.834,4,27.09,7.97,37.466,8.837L320.674,701.7l8.845,5.107a9.614,9.614,0,0,1,2.452-.542,2.294,2.294,0,0,1,1.7.979,9.612,9.612,0,0,1,.756,2.395l17.59,10.156a11.185,11.185,0,0,1,11.954,6.9l65.6,37.873a9.609,9.609,0,0,1,2.452-.542,2.294,2.294,0,0,1,1.7.979,9.614,9.614,0,0,1,.756,2.395l2.956,1.707c2.87.957,6.488,1.972,8.525,2.4,7.375,4.258,23.155,14.711,35.621,23.091l12.739,7.355a9.617,9.617,0,0,1,2.452-.542,2.293,2.293,0,0,1,1.7.979,9.62,9.62,0,0,1,.756,2.395l3.9,2.254a9.614,9.614,0,0,1,2.452-.542,2.294,2.294,0,0,1,1.7.979,9.618,9.618,0,0,1,.756,2.395l2.9,1.672a27.9,27.9,0,0,1,13.834-1.278c6.884,1.136,14.288,5.258,19.967,8.537-1.332,2.307-7.193,6.635-14.464,5.666,4.474,5.813,3.657,13.053,2.325,15.36C526.9,836.547,519.632,832.2,515.206,826.8Z" fill="#1f1f1f"/>
    <path id="Path_10284" data-name="Path 10284" d="M323.043,826.8a27.9,27.9,0,0,0,5.81-12.618l2.9-1.673a9.6,9.6,0,0,0,2.452.542,2.294,2.294,0,0,0,1.7-.979,9.605,9.605,0,0,0,.756-2.394l3.905-2.255a9.607,9.607,0,0,0,2.452.542,2.294,2.294,0,0,0,1.7-.979,9.608,9.608,0,0,0,.756-2.394l12.745-7.358c13.49-6.606,30.428-15.043,37.8-19.3,1.386-1.551,4.073-4.176,6.336-6.183l2.958-1.708a9.611,9.611,0,0,0,2.452.542,2.294,2.294,0,0,0,1.7-.979,9.613,9.613,0,0,0,.756-2.394l65.6-37.874a11.184,11.184,0,0,0,11.953-6.9l17.591-10.156a9.612,9.612,0,0,0,2.451.542,2.294,2.294,0,0,0,1.7-.979,9.61,9.61,0,0,0,.756-2.394l8.844-5.106-.762,11.474c5.939-8.553,17.005-19.78,26.385-28.03-11.834,4-27.09,7.97-37.466,8.837l10.319,5.076-8.845,5.107a9.612,9.612,0,0,0-2.452-.542,2.294,2.294,0,0,0-1.7.979,9.614,9.614,0,0,0-.756,2.395L486.235,719.8a11.184,11.184,0,0,0-11.954,6.9l-65.6,37.873a9.611,9.611,0,0,0-2.452-.542,2.294,2.294,0,0,0-1.7.979,9.616,9.616,0,0,0-.756,2.395l-2.956,1.707c-2.87.957-6.488,1.972-8.525,2.4-7.375,4.258-23.154,14.711-35.621,23.091l-12.739,7.355a9.614,9.614,0,0,0-2.452-.542,2.293,2.293,0,0,0-1.7.979,9.614,9.614,0,0,0-.756,2.395l-3.9,2.254a9.611,9.611,0,0,0-2.452-.542,2.293,2.293,0,0,0-1.7.979,9.61,9.61,0,0,0-.756,2.395l-2.9,1.672a27.9,27.9,0,0,0-13.834-1.278c-6.884,1.136-14.288,5.258-19.967,8.537,1.332,2.307,7.193,6.635,14.464,5.666-4.474,5.813-3.657,13.053-2.325,15.36C311.345,836.547,318.617,832.2,323.043,826.8Z" fill="#1f1f1f"/>
  </g>
</svg>
