<svg xmlns="http://www.w3.org/2000/svg" xmlns:xlink="http://www.w3.org/1999/xlink" width="74.259" height="71.453" viewBox="0 0 74.259 71.453">
  <defs>
    <linearGradient id="linear-gradient" x1="0.464" y1="0.983" x2="0.524" y2="0.186" gradientUnits="objectBoundingBox">
      <stop offset="0" stop-color="#3751a3"/>
      <stop offset="1" stop-color="#45afe3"/>
    </linearGradient>
    <linearGradient id="linear-gradient-2" x1="0.681" y1="1.41" x2="0.347" y2="-0.118" gradientUnits="objectBoundingBox">
      <stop offset="0" stop-color="#f05223"/>
      <stop offset="1" stop-color="#ffd541"/>
    </linearGradient>
  </defs>
  <g id="Group_77" data-name="Group 77" transform="translate(-1658.688 -699.454)">
    <path id="Path_582" data-name="Path 582" d="M1732.51,745.767c-.738-2.153-12.022-33.077-12.022-33.077l-14.8,24.183,15.079,5.351a2.232,2.232,0,0,1,1.25,2.57,2.154,2.154,0,0,1-2.605,1.286l-15.912-5.594-3.594,5.885c-1.006,1.646-1.922,1.985-4.078,1.264s-6.262-2.146-6.262-2.146l-8.512,14.558a2.192,2.192,0,0,1-2.85.7c-1.493-.686-.95-2.328-.7-2.814l8.061-13.62-26.3-7.748s10.708,29.47,11.5,31.651,2.024,3.336,5.039,2.327,51.171-18.533,54.374-19.7S1733.247,747.921,1732.51,745.767Z" fill="url(#linear-gradient)"/>
    <path id="Path_583" data-name="Path 583" d="M1684.156,699.774a4.39,4.39,0,0,0-5.526,2.019l-19.943,31.515,10.752,3.249s1.186-3.155,1.479-3.788a6.012,6.012,0,0,0,5.172-1.038,5.654,5.654,0,1,1,2.869-2.755,7.24,7.24,0,0,1,2.318.782,15.532,15.532,0,0,0,.741,8.458l2.442-.875a12.183,12.183,0,0,1,1.329-11.925,5.834,5.834,0,1,1,7.6-2.608,12.41,12.41,0,0,1,8.612,8.247l2.475-.886a14.465,14.465,0,0,0-4.966-7.062,10.8,10.8,0,0,1,1.28-2.062,5.628,5.628,0,1,1,4.225.151,5.578,5.578,0,0,0,4.555-2.424c.583.312,2.8,1.438,2.8,1.438l5.787-9.543Z" fill="url(#linear-gradient-2)"/>
  </g>
</svg>
