<svg xmlns="http://www.w3.org/2000/svg" width="56.82" height="56.896" viewBox="0 0 56.82 56.896">
  <g id="Group_376" data-name="Group 376" transform="translate(-880.851 -348.191)">
    <path id="Path_1463" data-name="Path 1463" d="M918.135,366.765c-.287-.013-.606-.021-.946-.024C917.5,366.753,917.817,366.76,918.135,366.765Z" fill="none"/>
    <path id="Path_1464" data-name="Path 1464" d="M916.715,363.86v.012c.051.047.107.091.155.138.1-.016.256-.123.522-.451.657-.805,1.838-.812,5.644-3.241s2.362-1.241,4.633-2.671,2.341-1.523,3.647-2.24,1.8-1.285,3.779-2.523,1.647-1.048,1.408-1.662-.053-1.038-.947-.467-4.614,2.812-5.782,3.527-2.269,1.288-2.928,1.764-3.625,2.144-6.215,3.67-2.117,1.523-4.868,3.445l.028.022a6.048,6.048,0,0,1,.85.623Z" fill="#404151"/>
    <path id="Path_1465" data-name="Path 1465" d="M896.82,360.057c-3.077-3.3-1.647-2.1-3.463-4.075s-1.922-2.028-2.862-3.182-1.589-1.54-3.164-3.26-1.328-1.432-1.888-1.086-1.013.24-.289,1.017,3.6,4.029,4.513,5.049,1.676,2,2.263,2.561,2.765,3.178,4.732,5.45a19.526,19.526,0,0,0,2.493,2.5,3.761,3.761,0,0,1,.816-1.118,35.082,35.082,0,0,0-3.152-3.86Z" fill="#404151"/>
    <path id="Path_1466" data-name="Path 1466" d="M881.294,389.847q.215,6.646.411,13.292a7.739,7.739,0,0,0,1.807.167c3.4.2,8.91.533,12.984,1.113,4.217.6,8.771.159,13.046.244,8.51.169,16.98.695,25.493.246,2.3-.121,2.887-1.17,2.55-3.331a69.375,69.375,0,0,1-.4-10.168c-.042-6.7.406-13.392.239-20.08-.013-.671.055-2.055-.64-2.331-.363-.144-.707.1-1.057.11a10.783,10.783,0,0,1-1.662-.235q-1.815-.248-3.64-.4c-4.742-.408-9.5-.073-14.242-.5-6.667-.582-8.177-.826-13.267-.488s-12.157.216-18.271.618c-1.363.09-3,.632-3.375,3.634a42.256,42.256,0,0,0-.283,9.236Q881.153,385.407,881.294,389.847Z" fill="#537082"/>
    <g id="Group_374" data-name="Group 374">
      <path id="Path_1467" data-name="Path 1467" d="M886.088,386.983l-.159,10.758c-.024,1.626.285,2.765,2.106,2.772l14.887.057c4.579.017,9.268-.308,13.824.089,6.1.533,4.341-2.774,4.78-7.811s1.7-19.463,1.7-19.463,3.384-2.012-19.691-3.1c-2.809-.133-5.779.235-8.595.353a24.147,24.147,0,0,0-6.493.767c-1.616.534-2.135,2.12-2.184,3.69-.079,2.536-.075,5.078-.112,7.615Q886.12,384.845,886.088,386.983Z" fill="#e6eeef"/>
      <path id="Path_1468" data-name="Path 1468" d="M917.928,401.03c-.366,0-.773-.019-1.209-.057-1.542-.135-3.211-.2-5.253-.2-1.366,0-2.735.027-4.1.055s-2.728.055-4.081.055h0l-15.249-.057a2.355,2.355,0,0,1-1.761-.609,3.434,3.434,0,0,1-.658-2.483l.222-15.034q.019-1.271.028-2.543c.016-1.664.032-3.385.084-5.077.066-2.106.9-3.482,2.4-3.979a20.958,20.958,0,0,1,5.8-.753l.775-.03c.921-.038,1.858-.1,2.8-.17a50.271,50.271,0,0,1,5.821-.183c19.631.927,20.02,2.486,20.148,3a.6.6,0,0,1-.169.576l-1.688,19.332c-.1,1.1-.085,2.124-.076,3.03.019,1.859.034,3.327-.862,4.232a4,4,0,0,1-2.974.893Zm-6.461-.884c2.06,0,3.747.063,5.307.2,1.917.165,3.07-.035,3.68-.651.711-.719.7-2.071.68-3.783-.009-.92-.019-1.964.079-3.091l1.714-19.624.139-.082c-.033-.16-1.042-1.643-19.545-2.517a50.671,50.671,0,0,0-5.748.183c-.949.066-1.892.132-2.819.171l-.778.03a20.5,20.5,0,0,0-5.63.721c-1.555.514-1.929,2.133-1.968,3.4-.053,1.685-.069,3.4-.084,5.063-.008.849-.016,1.7-.028,2.547l-.222,15.034a2.773,2.773,0,0,0,.478,2.032,1.774,1.774,0,0,0,1.315.42l15.246.057h0c1.349,0,2.708-.027,4.069-.055s2.746-.055,4.116-.055Z" fill="#404151"/>
    </g>
    <path id="Path_1469" data-name="Path 1469" d="M928.09,377.065a1.391,1.391,0,0,0,.847.838,13.508,13.508,0,0,0,1.418.465,3.487,3.487,0,0,0,1.815-.785,1.732,1.732,0,0,0,.533-1.251,7.6,7.6,0,0,0-.788-2.287c-.374-.673-1.924-.63-3.27.017,0,0-.472.1-.572.307a2.729,2.729,0,0,0-.3,1.456A2.57,2.57,0,0,0,928.09,377.065Z" fill="#6d9dbf"/>
    <path id="Path_1470" data-name="Path 1470" d="M928.982,381.13s-.288.064-.35.188a1.66,1.66,0,0,0-.181.891,1.572,1.572,0,0,0,.19.758.85.85,0,0,0,.518.513,8.211,8.211,0,0,0,.868.284,2.131,2.131,0,0,0,1.111-.481,1.06,1.06,0,0,0,.326-.764,4.643,4.643,0,0,0-.482-1.4C930.753,380.708,929.8,380.733,928.982,381.13Z" fill="#e17460"/>
    <g id="Group_375" data-name="Group 375">
      <path id="Path_1471" data-name="Path 1471" d="M927.2,400.948c1.1.065,3.59-.337,4.7-.379s.833-.041.978-.395a14.763,14.763,0,0,0,.2-3.119,28.788,28.788,0,0,0-.278-3.506c-.078-.424.106-1.169-.01-1.913a10.42,10.42,0,0,1-.049-2.833c.143-.675-.186-.39-.909-.386a20.289,20.289,0,0,1-2.552-.2,14.705,14.705,0,0,0-3.761.02c-.4.463-.282,1.985-.24,2.942s-.425,2.765-.273,3.862a24.145,24.145,0,0,1-.233,4.182,3.751,3.751,0,0,0,.008,1.452C925.291,401.029,926.1,400.883,927.2,400.948Zm4.887-4.23c-.022.148.395.368-.345.354a18.686,18.686,0,0,0-2.033.011c-.664.058-.465-.015-1.229.006a10.233,10.233,0,0,0-1.493.031c-.763.092-.763.185-.763.092s-.349-.342-.107-.351c.57-.026,1.167-.063,1.7-.1s1.1.031,1.615-.009.742-.007.974-.016,1.129-.013,1.129-.013.576-.15.554,0Zm-6.094-6.423c.372.015,1.133.03,1.753-.009s2.481.075,2.586-.015a13.681,13.681,0,0,1,1.452-.1c.372-.055-.035.088,0,.318s-.372.055-.832.111-1.293.02-1.683.024-1.717.083-2,.1-1.063-.03-1.275.007-.072-.106,0-.443Zm.012,2.167c.372.015,1.133.029,1.753-.009s2.481.074,2.586-.014a13.467,13.467,0,0,1,1.452-.1c.372-.055-.035.089,0,.319s-.372.055-.832.111-1.293.02-1.683.025-1.717.082-2,.1-1.062-.03-1.275.007-.071-.106,0-.443Zm.012,2.166c.372.017,1.133.03,1.753-.01s2.481.075,2.586-.014a13.163,13.163,0,0,1,1.452-.1c.372-.056-.034.089,0,.32s-.372.055-.832.11-1.293.022-1.683.025-1.717.082-2,.1-1.063-.03-1.275.007-.072-.106,0-.443Zm.023,4.333c.372.016,1.133.03,1.753-.01s2.481.075,2.586-.013a13.435,13.435,0,0,1,1.452-.1c.372-.054-.035.089,0,.321s-.372.055-.832.109-1.293.02-1.683.025-1.717.082-2,.1-1.062-.03-1.275.007-.072-.105,0-.443Z" fill="#ececec"/>
      <path id="Path_1472" data-name="Path 1472" d="M925.85,390.841c.213-.037.992.013,1.275-.007s1.611-.1,2-.1,1.223.031,1.683-.024.868.119.832-.111.37-.373,0-.318a13.68,13.68,0,0,0-1.452.1c-.105.09-1.966-.023-2.586.015s-1.381.025-1.753.009C925.779,390.734,925.638,390.877,925.85,390.841Z" fill="#4b5054"/>
      <path id="Path_1473" data-name="Path 1473" d="M925.874,395.173c.213-.037.992.012,1.275-.007s1.611-.1,2-.1,1.222.031,1.683-.025.868.12.832-.11.37-.376,0-.32a13.126,13.126,0,0,0-1.452.1c-.106.089-1.966-.025-2.586.014s-1.382.026-1.753.01C925.8,395.067,925.661,395.21,925.874,395.173Z" fill="#4b5054"/>
      <path id="Path_1474" data-name="Path 1474" d="M925.862,393.007c.213-.036.992.012,1.275-.007s1.611-.1,2-.1,1.222.031,1.683-.025.868.119.832-.111.37-.374,0-.319a13.481,13.481,0,0,0-1.452.1c-.105.088-1.966-.025-2.586.014s-1.382.025-1.753.009C925.791,392.9,925.65,393.044,925.862,393.007Z" fill="#4b5054"/>
      <path id="Path_1475" data-name="Path 1475" d="M925.9,399.506c.213-.037.992.013,1.275-.007s1.611-.1,2-.1,1.223.031,1.683-.025.868.12.832-.11.37-.375,0-.32a13.462,13.462,0,0,0-1.452.1c-.105.089-1.966-.025-2.586.013s-1.381.026-1.753.01C925.826,399.4,925.685,399.542,925.9,399.506Z" fill="#4b5054"/>
      <path id="Path_1476" data-name="Path 1476" d="M931.388,396.823s-.9,0-1.129.013-.465-.023-.974.016-1.084-.031-1.615.009-1.128.078-1.7.1c-.242.009.106.258.107.351s0,0,.763-.092a10.258,10.258,0,0,1,1.493-.031c.763-.021.564.052,1.228-.006a18.724,18.724,0,0,1,2.033-.011c.74.014.323-.207.345-.354S931.388,396.823,931.388,396.823Z" fill="#4b5054"/>
    </g>
    <path id="Path_1477" data-name="Path 1477" d="M907.206,366.237c.328.02.682.031,1.046.039.55.009,1.128.01,1.7.01a24.134,24.134,0,0,1,3.455.141,35.608,35.608,0,0,0,4,.286,7.146,7.146,0,0,1-.893-1.329c-.323-.672-2.314-2.042-4.833-2.773s-6.659.071-8.746.827a4.883,4.883,0,0,0-3.286,2.907h.045C900.214,366.323,905.323,366.125,907.206,366.237Z" fill="#404151"/>
  </g>
</svg>
