<svg xmlns="http://www.w3.org/2000/svg" width="39.207" height="22.106" viewBox="0 0 39.207 22.106">
  <g id="Group_37" data-name="Group 37" transform="translate(-145.351 -116.481)">
    <path id="Path_126" data-name="Path 126" d="M183.526,135.59a1.032,1.032,0,0,1,1.032-1.032v-1.565a.4.4,0,0,0-.4-.4H172.973a.4.4,0,0,0-.4.4v1.565a1.032,1.032,0,0,1,0,2.063v1.565a.4.4,0,0,0,.4.4h11.184a.4.4,0,0,0,.4-.4v-1.565A1.033,1.033,0,0,1,183.526,135.59Z" fill="#eb6309"/>
    <path id="Path_127" data-name="Path 127" d="M177.741,122.713a1.032,1.032,0,0,1,0-1.46l-1.105-1.106a.4.4,0,0,0-.566,0l-7.908,7.91a.4.4,0,0,0,0,.565l1.106,1.107a1.032,1.032,0,0,1,1.458,1.457l1.107,1.108a.4.4,0,0,0,.565,0l7.91-7.908a.4.4,0,0,0,0-.566l-1.106-1.105A1.033,1.033,0,0,1,177.741,122.713Z" fill="#189cd8"/>
    <path id="Path_128" data-name="Path 128" d="M164.691,117.511a1.031,1.031,0,0,1-1.033-1.03h-1.566a.4.4,0,0,0-.4.4v11.185a.4.4,0,0,0,.4.4h1.567a1.032,1.032,0,0,1,2.061,0h1.569a.4.4,0,0,0,.4-.4l0-11.185a.4.4,0,0,0-.4-.4h-1.566A1.031,1.031,0,0,1,164.691,117.511Z" fill="#152942"/>
    <path id="Path_129" data-name="Path 129" d="M151.518,122.713a1.031,1.031,0,0,1-1.459,0l-1.106,1.107a.4.4,0,0,0,0,.565l7.91,7.909a.4.4,0,0,0,.565,0l1.107-1.107a1.032,1.032,0,0,1,1.457-1.458l1.109-1.107a.4.4,0,0,0,0-.565l-7.908-7.91a.4.4,0,0,0-.567,0l-1.106,1.106a1.032,1.032,0,0,1,0,1.459Z" fill="#67962f"/>
    <path id="Path_130" data-name="Path 130" d="M146.382,134.73a1.032,1.032,0,0,1-1.031,1.033v1.565a.4.4,0,0,0,.4.4h11.186a.4.4,0,0,0,.4-.4v-1.565a1.032,1.032,0,0,1,0-2.061v-1.566a.4.4,0,0,0-.4-.4H145.751a.4.4,0,0,0-.4.4V133.7A1.032,1.032,0,0,1,146.382,134.73Z" fill="#189cd8"/>
  </g>
</svg>
