<svg xmlns="http://www.w3.org/2000/svg" width="31.497" height="29.396" viewBox="0 0 31.497 29.396">
  <g id="Group_84" data-name="Group 84" transform="translate(-149.205 -264.842)">
    <path id="Path_351" data-name="Path 351" d="M163.9,294.238a14.7,14.7,0,1,1,14.7-14.7,14.7,14.7,0,0,1-14.7,14.7Zm0-27.636a12.938,12.938,0,1,0,12.937,12.938A12.938,12.938,0,0,0,163.9,266.6Z" fill="#3c3c3b"/>
    <path id="Path_352" data-name="Path 352" d="M174.806,291.673l5.9.681-2.21-5.561-3.6,4.549"/>
    <g id="Group_81" data-name="Group 81">
      <path id="Path_353" data-name="Path 353" d="M157.741,281.336l1.066.87a4.168,4.168,0,0,1-.306,2.47s.195.338.306.366a3.576,3.576,0,0,1,.955.14,5.9,5.9,0,0,1,.111.644l.281.2-.027.476s.7.226.814.421l-.028.7a1.681,1.681,0,0,0,.9.647l2.47.029.87.055,4.828-4.687s.73-3.032-.113-4.884l-7.52.394S158.359,281.111,157.741,281.336Z"/>
      <path id="Path_354" data-name="Path 354" d="M168.778,275.863l.366.055.336,1.1-.309.029Z" fill="#f4f4f4"/>
      <path id="Path_355" data-name="Path 355" d="M158.218,278.949s-.477-6.033,1.515-7.352c0,0,7.551-4.043,9.852,2.358l.9,2.384a18.711,18.711,0,0,1,2.975-.337s.083.645-1.292,1.77l-10.046,1.151s-5.024,2.918-6.794,2.384a12.339,12.339,0,0,1,2.892-2.358Z" fill="#93c01f"/>
      <path id="Path_356" data-name="Path 356" d="M158.161,276.676s6.989-2.273,11.76-1.629l.45,1.208s-12.238,2.75-12.154,2.693a20.394,20.394,0,0,0-.056-2.273Z"/>
      <path id="Path_357" data-name="Path 357" d="M168.687,276.9l3.845-.5-1.011,1.179s.421.365,1.741-1.4C173.262,276.172,169.108,276.507,168.687,276.9Z"/>
      <path id="Path_358" data-name="Path 358" d="M169.487,275.063l.366.055.336,1.094-.31.029Z" fill="#f4f4f4"/>
      <path id="Path_359" data-name="Path 359" d="M158.223,279.172a10.792,10.792,0,0,0-2.586,2.126s2.083,0,7.846-3.32C163.483,277.978,158.474,278.846,158.223,279.172Z"/>
      <path id="Path_360" data-name="Path 360" d="M162.26,276.087l-1.18-.983,1.1.478-1.178-.9,1.43.644-1.486-.981,1.936.842-1.208-.815,1.236.45-.45-.477,6.513-.028.308.926Z"/>
      <path id="Path_361" data-name="Path 361" d="M158.541,276.739l.894-.17.185,1.833-.895.2A5.543,5.543,0,0,1,158.541,276.739Z" fill="#f4f4f4"/>
    </g>
  </g>
</svg>
