<svg xmlns="http://www.w3.org/2000/svg" width="50.958" height="36.213" viewBox="0 0 50.958 36.213">
  <g id="Group_208" data-name="Group 208" transform="translate(-315.4 -352.455)">
    <path id="Path_943" data-name="Path 943" d="M318.155,353.71s-2.756.5-2.756,7.531.157,24.409,1.378,25.6c3.392,3.322,17.449,1.01,31.255,1.383s18.325-.128,18.325-4.145-1.255-24.6-1.255-27.864-.753-3.765-10.543-3.765S318.155,353.71,318.155,353.71Z" fill="#d9924e"/>
    <path id="Path_944" data-name="Path 944" d="M331.026,362.935s.565,14.5.941,15.626.565,2.448,5.46.941,12.614-7.154,12.614-7.154,2.448-1.694,0-3.012-16.756-7.342-16.756-7.342S330.948,361.048,331.026,362.935Z" fill="#fff"/>
  </g>
</svg>
