<svg xmlns="http://www.w3.org/2000/svg" width="53.664" height="49.246" viewBox="0 0 53.664 49.246">
  <g id="Group_226" data-name="Group 226" transform="translate(-503.507 -518.662)">
    <path id="Path_1036" data-name="Path 1036" d="M516.541,551H508.12a2.015,2.015,0,0,0-1.837.809c-.612.958-2.756,3.461-2.756,3.461s-.306.414,1.531.722,9.952,1.192,9.952,1.192Z" fill="#97babf"/>
    <path id="Path_1037" data-name="Path 1037" d="M520.6,554.088l1.973,7.873a1.841,1.841,0,0,1-.387,1.907c-.825.8-2.854,3.388-2.854,3.388s-.347.383-1.089-1.262-3.536-9.026-3.536-9.026Z" fill="#97babf"/>
    <g id="Group_225" data-name="Group 225">
      <path id="Path_1038" data-name="Path 1038" d="M537.11,529.628s-20.253.694-27.1,0a2.342,2.342,0,0,0-1.537.855c-.676.81-4.055,4.752-4.055,4.752s.135,1.021,2.163,1.084c.843.026,4.793.561,9.12,1.177a1,1,0,0,0-.138.425s-.325.851.869,1.093a1.179,1.179,0,0,0,1.337-1.221l1.008.146a1.215,1.215,0,0,0,.053,1.665c.856.706,1.279.307,1.836-.612a.656.656,0,0,0-.1-.793c4.364.637,8.047,1.19,8.047,1.19Z" fill="#97babf"/>
      <path id="Path_1039" data-name="Path 1039" d="M549.132,561.553c-2.024-6.329-5.21-25.576-5.21-25.576l-8.326,9.895s1.024,2.711,2.309,6.151a.82.82,0,0,0-.8.068s-.911.234-.43,1.312a1.227,1.227,0,0,0,1.854.307l.344.924c-.425.033-1.24.2-1.32.995-.109,1.079.474,1.182,1.577,1.093a.644.644,0,0,0,.434-.222c1.63,4.409,3.188,8.706,3.4,9.576.453,1.9,1.522,1.833,1.522,1.833s3.373-3.947,4.07-4.741A2.162,2.162,0,0,0,549.132,561.553Z" fill="#97babf"/>
    </g>
    <path id="Path_1040" data-name="Path 1040" d="M555.138,529.4c-2.1,3.87-18.028,17.971-36.563,28.991,0,0-8.626,1.457-2.132-8.792a119.445,119.445,0,0,1,28.11-27.834s4.959-3.423,7.365-3.076,4.45,1.619,5.051,3.007S556.794,526.344,555.138,529.4Z" fill="#a5c4c6"/>
    <path id="Path_1041" data-name="Path 1041" d="M546.954,522.305a14.615,14.615,0,0,1,2.4-1.529c.343,0,4.8-1.407,6.006,4.465a15.51,15.51,0,0,1-1.487,2.752S553.418,522.795,546.954,522.305Z" fill="#e6e6e7"/>
  </g>
</svg>
