<svg xmlns="http://www.w3.org/2000/svg" xmlns:xlink="http://www.w3.org/1999/xlink" width="86.151" height="75.305" viewBox="0 0 86.151 75.305">
  <defs>
    <linearGradient id="linear-gradient" x1="0.155" y1="0.96" x2="0.508" y2="0.222" gradientUnits="objectBoundingBox">
      <stop offset="0" stop-color="#be202e"/>
      <stop offset="1" stop-color="#eb2227"/>
    </linearGradient>
  </defs>
  <path id="Path_282" data-name="Path 282" d="M716.117,195.42l-19.477,1.6a32.6,32.6,0,0,0-50.45,4.152l-16.224,1.335,14.506,1.639a34.22,34.22,0,0,0-2.483,6.541,30.847,30.847,0,0,0,3.215,24.4,33.07,33.07,0,0,0,5.082,6.751l-17.27,20.438,21.211-17.066A32.221,32.221,0,0,0,702.6,206.294Zm-57.063-.642a28.282,28.282,0,0,1,32.024,2.7l-39.323,3.236a27.823,27.823,0,0,1,7.3-5.939ZM648.831,233.03a26.246,26.246,0,0,1-2.8-21.187,29.024,29.024,0,0,1,2.93-7.188l29.9,3.378-25.867,30.613a28.167,28.167,0,0,1-4.156-5.616Zm51.279-6.677a28.17,28.17,0,0,1-34.3,19.787,29.208,29.208,0,0,1-8.192-3.656l41.589-33.461a27.345,27.345,0,0,1,.9,17.331Z" transform="translate(-629.966 -186.976)" fill="url(#linear-gradient)"/>
</svg>
