<svg xmlns="http://www.w3.org/2000/svg" xmlns:xlink="http://www.w3.org/1999/xlink" width="77.477" height="67.861" viewBox="0 0 77.477 67.861">
  <defs>
    <linearGradient id="linear-gradient" x1="0.169" y1="1.157" x2="0.898" y2="-0.159" gradientUnits="objectBoundingBox">
      <stop offset="0" stop-color="#088f87"/>
      <stop offset="1" stop-color="#e4e53a"/>
    </linearGradient>
    <linearGradient id="linear-gradient-2" x1="0.131" y1="1.108" x2="0.86" y2="-0.208" xlink:href="#linear-gradient"/>
  </defs>
  <g id="Group_24" data-name="Group 24" transform="translate(-1212.818 -190.609)">
    <path id="Path_294" data-name="Path 294" d="M1240.389,248.844s34.1,10.676,41.224-28.536c-30.028-5.425-40.166,16.133-42.66,23.249-5.285.448-10.226-.463-14.138-2.913-10.738-6.729-9.641-22.516,2.454-35.263,11.514-12.136,28.841-17.141,39.744-11.788-11.509-6.816-30.948-1.576-43.7,11.864-12.9,13.6-14.069,30.435-2.615,37.611,5.049,3.163,22.563,7.511,42.982-7.866C1255.018,245.229,1240.389,248.844,1240.389,248.844Z" fill="url(#linear-gradient)"/>
    <path id="Path_295" data-name="Path 295" d="M1282.416,206.012c-5.049-3.164-22.562-7.511-42.983,7.866,8.662-10.027,23.292-13.642,23.292-13.642s-34.1-10.677-41.225,28.537c30.029,5.424,40.167-16.134,42.66-23.249,5.286-.448,10.226.463,14.138,2.913,10.739,6.728,9.641,22.517-2.452,35.264-11.514,12.135-28.841,17.14-39.744,11.788,11.508,6.815,30.947,1.576,43.7-11.865C1292.7,230.028,1293.87,213.188,1282.416,206.012Z" fill="url(#linear-gradient-2)"/>
  </g>
</svg>
