<svg xmlns="http://www.w3.org/2000/svg" width="72.423" height="72.422" viewBox="0 0 72.423 72.422">
  <g id="Group_19" data-name="Group 19" transform="translate(-925.922 -188.329)">
    <path id="Path_273" data-name="Path 273" d="M963.894,188.329s8.5,7.816,5.622,16.318S955.392,216.7,955.392,216.7s6.644-6.218,8.054-10.779c.677-2.192-3.07-6.336-3.116-10.052C960.276,191.845,963.894,188.329,963.894,188.329Z" fill="#38bdb0"/>
    <path id="Path_274" data-name="Path 274" d="M960.375,260.751s-8.5-7.816-5.622-16.318,14.123-12.049,14.123-12.049-6.646,6.217-8.054,10.779c-.677,2.191,3.069,6.335,3.117,10.051C963.991,257.233,960.375,260.751,960.375,260.751Z" fill="#f26b68"/>
    <path id="Path_275" data-name="Path 275" d="M925.922,222.781s7.816-8.5,16.318-5.622,12.049,14.124,12.049,14.124-6.217-6.647-10.778-8.055c-2.191-.675-6.337,3.07-10.053,3.118C929.44,226.4,925.922,222.781,925.922,222.781Z" fill="#64b5dd"/>
    <path id="Path_276" data-name="Path 276" d="M998.345,226.3s-7.816,8.5-16.317,5.622-12.05-14.124-12.05-14.124,6.218,6.646,10.779,8.054c2.192.675,6.336-3.071,10.052-3.118C994.828,222.682,998.345,226.3,998.345,226.3Z" fill="#fbaf3c"/>
    <path id="Path_277" data-name="Path 277" d="M937.773,197.691s11.537-.485,15.514,7.563-1.466,18.507-1.466,18.507.3-9.1-1.928-13.317c-1.072-2.028-6.651-2.31-9.312-4.9C937.7,202.735,937.773,197.691,937.773,197.691Z" fill="#6178aa"/>
    <path id="Path_278" data-name="Path 278" d="M986.5,251.389s-11.539.485-15.514-7.562,1.466-18.509,1.466-18.509-.3,9.1,1.928,13.317c1.071,2.028,6.651,2.31,9.313,4.9C986.565,246.344,986.5,251.389,986.5,251.389Z" fill="#ed75a4"/>
    <path id="Path_279" data-name="Path 279" d="M935.284,248.9s-.483-11.538,7.563-15.514,18.508,1.467,18.508,1.467-9.1-.3-13.317,1.927c-2.028,1.071-2.31,6.651-4.9,9.313C940.329,248.972,935.284,248.9,935.284,248.9Z" fill="#99a3aa"/>
    <path id="Path_280" data-name="Path 280" d="M988.982,200.179s.485,11.538-7.562,15.514-18.508-1.467-18.508-1.467,9.1.3,13.317-1.927c2.027-1.071,2.31-6.652,4.9-9.313C983.938,200.107,988.982,200.179,988.982,200.179Z" fill="#a1cd3a"/>
  </g>
</svg>
