<svg xmlns="http://www.w3.org/2000/svg" width="98.626" height="81.338" viewBox="0 0 98.626 81.338">
  <g id="Group_2251" data-name="Group 2251" transform="translate(-921.239 -769.063)">
    <path id="Path_10379" data-name="Path 10379" d="M1016.063,814.948l-4.429,14.367c-8.333,1.775-20.521,2.9-33.2,3.232-.187-6.209-1.673-12.968-7.883-12.968s-7.7,6.759-7.883,12.968c-12.679-.334-24.867-1.457-33.2-3.232l-4.429-14.371c3.638,2.869,15.419,12.03,19.737,10.343.943-.359,3.066-1.174,1.653-18.968a.421.421,0,0,1,.743-.3c11.107,13.258,13.7,12.266,14.715,11.872.9-.346,3.181-1.225,8.257-19.676a.421.421,0,0,1,.813,0c5.076,18.451,7.36,19.33,8.257,19.675,1.019.395,3.6,1.39,14.715-11.872a.422.422,0,0,1,.744.3c-1.413,17.795.71,18.61,1.653,18.968C1000.641,826.973,1012.411,817.828,1016.063,814.948Z" fill="#1f1f1f"/>
    <path id="Path_10380" data-name="Path 10380" d="M1011.635,831.581l-4.585,14.875c-13.558,5.261-59.439,5.26-72.994,0l-4.585-14.875c8.333,1.775,20.512,2.9,33.187,3.232.086,6.428,1.432,13.731,7.9,13.731s7.81-7.308,7.9-13.731C991.122,834.478,1003.3,833.356,1011.635,831.581Z" fill="#1f1f1f"/>
    <path id="Path_10381" data-name="Path 10381" d="M970.552,821.23c-5.65,0-6.426,8.008-6.245,13.62.14,9.4,2.885,12.043,6.245,12.043,5.49,0,6.253-7.318,6.253-12.832C976.8,828.575,976.042,821.23,970.552,821.23Zm0,20.071c-2.206,0-2.3-4.987-2.3-7.239,0-2.227.095-7.235,2.3-7.235,2.362,0,2.331,5.72,2.295,8.081-.1,4.977-1.09,6.393-2.295,6.393Z" fill="#1f1f1f"/>
    <path id="Path_10382" data-name="Path 10382" d="M1019.132,802.256a.422.422,0,0,1,.715.408l-2.929,9.507c-1.593,1.244-16.224,13.031-20,11.577-.087-.037-2.171-1.127-.244-21.3l.127-1.34a.422.422,0,0,0-.749-.3c-3.378,4.206-13.521,16.6-16.242,15.54-2.63-1.011-7.352-18.767-8.85-24.56a.422.422,0,0,0-.816,0c-1.505,5.822-6.21,23.545-8.849,24.56-2.705,1.059-12.864-11.337-16.242-15.541a.422.422,0,0,0-.748.3l.127,1.341c1.927,20.17-.157,21.259-.244,21.3-3.817,1.475-19.033-10.824-19.964-11.466l-2.966-9.618a.421.421,0,0,1,.714-.408c3.639,3.993,14.02,14.865,17.865,13.385,3.235-1.242-1.008-24.7-2.494-32.341a.422.422,0,0,1,.759-.323c4,5.708,17.278,24.072,21.249,22.543,3.831-1.469,9.26-28.211,10.787-36.117a.422.422,0,0,1,.828,0c1.527,7.906,6.956,34.648,10.787,36.117C985.725,807.05,999,788.68,1003,782.975a.422.422,0,0,1,.759.322c-.466,2.4-1.273,6.711-2.013,11.419-1.457,9.274-2.654,20.091-.483,20.925C1005.112,817.122,1015.494,806.248,1019.132,802.256Z" fill="#1f1f1f"/>
  </g>
</svg>
