<svg xmlns="http://www.w3.org/2000/svg" xmlns:xlink="http://www.w3.org/1999/xlink" width="54.223" height="65.06" viewBox="0 0 54.223 65.06">
  <defs>
    <linearGradient id="linear-gradient" x1="-3.161" y1="9.068" x2="4.3" y2="-8.394" gradientUnits="objectBoundingBox">
      <stop offset="0" stop-color="#2e76bc"/>
      <stop offset="1" stop-color="#63cdf6"/>
    </linearGradient>
    <linearGradient id="linear-gradient-2" x1="-3.026" y1="8.753" x2="4.432" y2="-8.702" xlink:href="#linear-gradient"/>
    <linearGradient id="linear-gradient-3" x1="0.07" y1="1.483" x2="0.731" y2="-0.028" xlink:href="#linear-gradient"/>
    <linearGradient id="linear-gradient-4" x1="-0.425" y1="3.147" x2="4.103" y2="-9.836" xlink:href="#linear-gradient"/>
    <linearGradient id="linear-gradient-5" x1="-0.491" y1="3.615" x2="3.549" y2="-9.087" xlink:href="#linear-gradient"/>
    <linearGradient id="linear-gradient-6" x1="-0.769" y1="4.216" x2="3.558" y2="-8.767" xlink:href="#linear-gradient"/>
    <linearGradient id="linear-gradient-7" x1="-0.828" y1="4.677" x2="3.212" y2="-8.026" xlink:href="#linear-gradient"/>
    <linearGradient id="linear-gradient-8" x1="-1.36" y1="5.21" x2="3.387" y2="-7.772" xlink:href="#linear-gradient"/>
    <linearGradient id="linear-gradient-9" x1="-1.278" y1="5.636" x2="3.121" y2="-7.066" xlink:href="#linear-gradient"/>
  </defs>
  <g id="Group_134" data-name="Group 134" transform="translate(-1075.559 -818.56)">
    <g id="Group_132" data-name="Group 132">
      <path id="Path_725" data-name="Path 725" d="M1107.205,863.742a2.387,2.387,0,1,0-3.045,1.456A2.387,2.387,0,0,0,1107.205,863.742Z" fill="url(#linear-gradient)"/>
      <path id="Path_726" data-name="Path 726" d="M1081.984,852.3a2.387,2.387,0,1,0,1.456,3.045,2.388,2.388,0,0,0-1.456-3.045Z" fill="url(#linear-gradient-2)"/>
      <path id="Path_727" data-name="Path 727" d="M1083.414,838.242a3.549,3.549,0,1,1,1.6-.221l.9,6.355a24.068,24.068,0,0,1,21.744,7.681l4.693-4.379a3.546,3.546,0,1,1,1.1,1.178L1108.7,853.3a24.033,24.033,0,0,1,4.43,20.417h16.259l-12.856-18.765c6.7-3.231,10.868-8.833,10.868-16.872v-.158c0-5.674-1.726-9.762-5.036-13.072-3.861-3.862-10.078-6.295-19.853-6.295h-26.948v30.149a24.134,24.134,0,0,1,8.767-4.019Z" fill="url(#linear-gradient-3)"/>
    </g>
    <g id="Group_133" data-name="Group 133">
      <path id="Path_728" data-name="Path 728" d="M1075.566,877.128h5.941c1.518,0,1.925.753,1.925,1.907v.407c0,.86-.2,1.366-1.1,1.579v.018c.586.106,1.074.363,1.074,1.418v1.091h-1.969v-.771c0-.673-.2-.9-.807-.9h-3.1v1.668h-1.969Zm1.969,3.157h3.255c.531,0,.728-.213.728-.674V879.4c0-.569-.284-.675-.905-.675h-3.077Z" fill="url(#linear-gradient-4)"/>
      <path id="Path_729" data-name="Path 729" d="M1084.621,879.38c0-1.88,1.056-2.323,2.83-2.323h3.155c1.775,0,2.831.443,2.831,2.323V881.3c0,1.881-1.056,2.323-2.831,2.323h-3.155c-1.774,0-2.83-.442-2.83-2.323Zm2.021,1.3c0,.932.2,1.286,1.127,1.286h2.519c.931,0,1.127-.354,1.127-1.286v-.692c0-.8-.2-1.286-1.233-1.286h-2.306c-1.038,0-1.233.488-1.233,1.286Z" fill="url(#linear-gradient-5)"/>
      <path id="Path_730" data-name="Path 730" d="M1094.625,877.128h5.668c1.569,0,2.333.427,2.333,1.686,0,1.1-.4,1.313-.949,1.472v.027c.859.106,1.179.566,1.179,1.533,0,1.41-.834,1.7-1.959,1.7h-6.271Zm1.97,2.545h3.485c.364,0,.576-.132.576-.5s-.212-.5-.576-.5h-3.485Zm0,2.333h3.529c.426,0,.711-.1.711-.471,0-.435-.285-.531-.711-.531h-3.529Z" fill="url(#linear-gradient-6)"/>
      <path id="Path_731" data-name="Path 731" d="M1103.9,879.38c0-1.88,1.056-2.323,2.83-2.323h3.156c1.773,0,2.83.443,2.83,2.323V881.3c0,1.881-1.057,2.323-2.83,2.323h-3.156c-1.774,0-2.83-.442-2.83-2.323Zm2.021,1.3c0,.932.2,1.286,1.128,1.286h2.519c.931,0,1.126-.354,1.126-1.286v-.692c0-.8-.2-1.286-1.233-1.286h-2.306c-1.037,0-1.233.488-1.233,1.286Z" fill="url(#linear-gradient-7)"/>
      <path id="Path_732" data-name="Path 732" d="M1113.438,877.128h7.5v1.6h-2.767v4.824H1116.2v-4.824h-2.767Z" fill="url(#linear-gradient-8)"/>
      <path id="Path_733" data-name="Path 733" d="M1121.686,881.447h1.968c.01.684.285.735.853.735h2.412c.417,0,.843-.043.843-.54,0-.56-.231-.595-2.767-.595-2.963,0-3.3-.356-3.3-1.933,0-1.162.106-2.059,2.589-2.059h2.75c2.27,0,2.482.773,2.482,1.9v.2h-1.968c0-.469-.054-.665-.958-.665h-2.182c-.443,0-.745.151-.745.5,0,.56.239.578,2.351.567,3.06-.008,3.769.178,3.769,2.049,0,1.73-.585,2.013-3.2,2.013h-2.386c-1.792,0-2.509-.337-2.509-1.729Z" fill="url(#linear-gradient-9)"/>
    </g>
  </g>
</svg>
