<svg xmlns="http://www.w3.org/2000/svg" width="58.191" height="92.025" viewBox="0 0 58.191 92.025">
  <g id="Group_393" data-name="Group 393" transform="translate(-974.896 -582.098)">
    <path id="Path_1543" data-name="Path 1543" d="M1009.772,646.663c-.074-9.093-.13-18.258-1.036-27.292-.191-1.9-2.239-1.931-2.409,0-.8,9.044-.737,18.2-.7,27.292.036,8.445-.657,17.466.438,25.8a1.8,1.8,0,0,0,3.58,0C1010.636,664.107,1009.841,655.111,1009.772,646.663Z" fill="#7cb8b7"/>
    <path id="Path_1544" data-name="Path 1544" d="M1011.649,614.182a3.722,3.722,0,0,0-2.814,2.581c8.92,5.044,15.659,13.228,24.224,18.853.2-1.034-.7-3.349-1.678-4.866-3.13-4.835-4.626-8.063-7.595-11.618S1016.085,612.85,1011.649,614.182Z" fill="#7cb8b7"/>
    <path id="Path_1545" data-name="Path 1545" d="M1005.035,618.435a3.723,3.723,0,0,0-.225-3.811c-9.542,3.734-20.144,3.793-29.913,6.885.676.808,3.037,1.575,4.833,1.771,5.726.625,9.174,1.5,13.8,1.444S1003.268,622.716,1005.035,618.435Z" fill="#7cb8b7"/>
    <path id="Path_1546" data-name="Path 1546" d="M1005.926,612.173a3.722,3.722,0,0,0,3.768.62c-1.541-10.13.735-20.485-.13-30.7-.937.482-2.2,2.615-2.792,4.325-1.87,5.448-3.485,8.618-4.448,13.148S1002.14,609.507,1005.926,612.173Z" fill="#7cb8b7"/>
  </g>
</svg>
