<svg xmlns="http://www.w3.org/2000/svg" width="41.713" height="41.381" viewBox="0 0 41.713 41.381">
  <g id="Group_204" data-name="Group 204" transform="translate(-604.192 -274.149)">
    <path id="Path_930" data-name="Path 930" d="M625.175,276.375a.67.67,0,0,0-.657-.67q-.194,0-.39,0a19.978,19.978,0,0,0-18.65,27.03c1.638,4.682,6.83,9.874,11.512,11.512a19.978,19.978,0,0,0,27.03-18.65v0a.663.663,0,0,0-.664-.662H625.845a.67.67,0,0,1-.67-.67Z" fill="#b3d6e3"/>
    <path id="Path_931" data-name="Path 931" d="M627.174,275.555v16.254a1.406,1.406,0,0,0,1.406,1.406H644.5a1.406,1.406,0,0,0,1.4-1.561,19.9,19.9,0,0,0-17.135-17.492,1.405,1.405,0,0,0-1.588,1.394Z" fill="#919191"/>
  </g>
</svg>
