<svg xmlns="http://www.w3.org/2000/svg" xmlns:xlink="http://www.w3.org/1999/xlink" width="30.239" height="20.903" viewBox="0 0 30.239 20.903">
  <defs>
    <linearGradient id="linear-gradient" y1="0.5" x2="1" y2="0.5" gradientUnits="objectBoundingBox">
      <stop offset="0" stop-color="#009ee2"/>
      <stop offset="1" stop-color="#1d70b7"/>
    </linearGradient>
    <linearGradient id="linear-gradient-2" x1="0" y1="0.5" x2="1" y2="0.5" xlink:href="#linear-gradient"/>
    <linearGradient id="linear-gradient-3" x1="0" y1="0.5" x2="1" y2="0.5" xlink:href="#linear-gradient"/>
    <linearGradient id="linear-gradient-4" x1="0" y1="0.5" x2="1" y2="0.5" xlink:href="#linear-gradient"/>
  </defs>
  <g id="Group_381" data-name="Group 381" transform="translate(-512.102 -116.527)">
    <g id="Group_378" data-name="Group 378">
      <g id="Group_376" data-name="Group 376">
        <path id="Path_1309" data-name="Path 1309" d="M542.243,118.436c-1.848,4.3-3.5,7.349-6.113,8.552a5.214,5.214,0,1,1-4.357-9.473C534.386,116.31,543.376,115.79,542.243,118.436Z" fill="url(#linear-gradient)"/>
        <path id="Path_1310" data-name="Path 1310" d="M528.3,124.65c2.721,5.462,7.819,2.26,9.429,4.647a5.214,5.214,0,1,1-8.643,5.835C527.47,132.746,527.013,122.073,528.3,124.65Z" fill="url(#linear-gradient-2)"/>
      </g>
      <g id="Group_377" data-name="Group 377">
        <path id="Path_1311" data-name="Path 1311" d="M512.2,118.436c1.846,4.3,3.5,7.349,6.111,8.551a5.214,5.214,0,1,0,4.359-9.472C520.056,116.31,511.066,115.789,512.2,118.436Z" fill="url(#linear-gradient-3)"/>
        <path id="Path_1312" data-name="Path 1312" d="M526.146,124.65c-2.717,5.46-7.817,2.26-9.429,4.646a5.215,5.215,0,0,0,8.645,5.836C526.972,132.746,527.431,122.073,526.146,124.65Z" fill="url(#linear-gradient-4)"/>
      </g>
    </g>
  </g>
</svg>
