<svg xmlns="http://www.w3.org/2000/svg" xmlns:xlink="http://www.w3.org/1999/xlink" width="32.549" height="23.396" viewBox="0 0 32.549 23.396">
  <defs>
    <linearGradient id="linear-gradient" x1="0.498" y1="0.468" x2="0.428" y2="-0.457" gradientUnits="objectBoundingBox">
      <stop offset="0" stop-color="#fff"/>
      <stop offset="1"/>
    </linearGradient>
  </defs>
  <g id="Group_237" data-name="Group 237" transform="translate(-209.001 -404.792)">
    <path id="Path_817" data-name="Path 817" d="M235.9,416.491a10.619,10.619,0,1,1-10.618-10.617A10.619,10.619,0,0,1,235.9,416.491Z" fill="#6f6f6e"/>
    <path id="Path_818" data-name="Path 818" d="M236.474,416.491a11.2,11.2,0,1,1-11.2-11.2,11.2,11.2,0,0,1,11.2,11.2Z" fill="none" stroke="#9c9b9b" stroke-miterlimit="10" stroke-width="1"/>
    <g id="Group_234" data-name="Group 234">
      <g id="Group_233" data-name="Group 233">
        <path id="Path_819" data-name="Path 819" d="M231.855,414.948l2.007-.558-2.768-1.347-2.388.178Z" fill="#fff"/>
        <path id="Path_820" data-name="Path 820" d="M230.441,413.213l4.25,2.209.514-.1-.03-.133-4.151-2.04Z" fill="#e21118"/>
        <path id="Path_821" data-name="Path 821" d="M226.2,421.285a.727.727,0,1,1-.727-.728.727.727,0,0,1,.727.728Z" fill="#2b2523"/>
        <path id="Path_822" data-name="Path 822" d="M223.657,418.987l1.3,1.574s-1.374.846-.358,1.34a3.887,3.887,0,0,0,2.287-.763s.051-.693-1.439-.591l-1.288-1.559Z" fill="#fff"/>
        <path id="Path_823" data-name="Path 823" d="M220.2,420.964a.824.824,0,1,1-.242-.583.826.826,0,0,1,.242.583Z" fill="#2b2523"/>
        <path id="Path_824" data-name="Path 824" d="M219.387,419.394l-.253.661s-2.059.788-.738,1.372a3.06,3.06,0,0,0,2.313-.533c1.118-.814-1.4-.739-.916-.712h-.317l.317-.788Z" fill="#fff"/>
        <path id="Path_825" data-name="Path 825" d="M231.754,414.746s3.1.153,6.554-4.675h1.65l-2.59,4.421-.763.608h-5.322Z" fill="#fff"/>
        <path id="Path_826" data-name="Path 826" d="M215.809,417.172s.2,1.659,3.083,2.269a17.585,17.585,0,0,0,5.623-.17c2.574-.608,4.606-1.253,4.606-1.253l5.673-1.789,1.948-.176-.136-.952-8.572-.13s-10.225-.238-11.445.745C216.589,415.715,215.641,416.7,215.809,417.172Z" fill="#fff"/>
        <path id="Path_827" data-name="Path 827" d="M217.844,417.693s9.108-.242,10.046-.546l.894.342-10.522.529Z" fill="#2b2523"/>
        <path id="Path_828" data-name="Path 828" d="M224.253,415.69l-.681,1.332,2.408-.427-.022-.2Z" fill="#2b2523"/>
        <path id="Path_829" data-name="Path 829" d="M216.386,416.37c-.01-.043-2.177-1.974-2.177-1.974s-.338-.136-.211.248l1.856,1.978Z" fill="#2b2523"/>
        <path id="Path_830" data-name="Path 830" d="M216.553,417.4c.009.043,2.176,1.974,2.176,1.974s.339.136.213-.246l-1.857-1.982Z" fill="#2b2523"/>
        <path id="Path_831" data-name="Path 831" d="M216.231,416.433s1.122-.453.937.68a2.92,2.92,0,0,1-1.868.3,1.977,1.977,0,0,1,.93-.979Z" fill="#e21118"/>
        <path id="Path_832" data-name="Path 832" d="M216.561,416.023s.971.21,1.029.807a11.131,11.131,0,0,1,3.218-.334c.729.234-1.458-.954-1.458-.954S216.011,415.813,216.561,416.023Z" fill="#e21118"/>
        <path id="Path_833" data-name="Path 833" d="M217.672,417.047a18.586,18.586,0,0,1,3.337-.425l.269.208s-3.166.319-3.268.4l-.1.085h-.148v-.174" fill="#e21118"/>
        <path id="Path_834" data-name="Path 834" d="M218.389,418.128s9.108-.242,10.047-.544l.892.34-10.521.531Z" fill="#e21118"/>
        <path id="Path_835" data-name="Path 835" d="M238.2,422.037l3.153-.259V421.2l-10.333-4.851-18.828-9.583H209S229.9,420.773,238.2,422.037Z" fill="#1d1d1b"/>
        <path id="Path_836" data-name="Path 836" d="M219.4,415.1a4.479,4.479,0,0,1,1.93-1.791l2.437,1.436s-.066-.055-.066.355.083.48.321.546-.659,1.236-.659,1.236S223.227,417.739,219.4,415.1Z" fill="#2b2523"/>
        <path id="Path_837" data-name="Path 837" d="M239.034,410.2l-2.394,4.066.6.3,2.487-4.371Z" fill="#e21118"/>
        <path id="Path_838" data-name="Path 838" d="M232.068,414.746l5.993-1.437-.807,1.355Z" fill="#2b2523"/>
        <path id="Path_839" data-name="Path 839" d="M236.674,415.445l4.742,2.335.134.136-1.795.406-6.094-2.473Z" fill="#fff"/>
        <path id="Path_840" data-name="Path 840" d="M236.085,415.756l4.5,2.251.529-.129-.037-.143-4.392-2.069Z" fill="#e21118"/>
      </g>
      <path id="Path_841" data-name="Path 841" d="M215.984,411.127s-.118-.988,3.337-.229-.689-.5-.689-.5-3.089-.72-3.805,0Z" fill="#e21118"/>
      <path id="Path_842" data-name="Path 842" d="M228.721,418.332s-.156-1.306,4.414-.3-.911-.654-.911-.654-3.9-.916-5.035.1Z" fill="#e21118"/>
      <path id="Path_843" data-name="Path 843" d="M230.089,418.388s-.075-.637,2.15-.147-.442-.317-.442-.317-1.9-.446-2.454.051Z" fill="#e21118"/>
      <path id="Path_844" data-name="Path 844" d="M216.9,411.312s-.067-.557,1.885-.129-.389-.28-.389-.28-1.666-.391-2.149.043Z" fill="#e21118"/>
    </g>
    <path id="Path_845" data-name="Path 845" d="M233.713,412.438c0,3.7-3.777,6.7-8.436,6.7s-8.437-3-8.437-6.7,3.777-6.706,8.438-6.706S233.713,408.735,233.713,412.438Z" opacity="0.23" fill="url(#linear-gradient)"/>
  </g>
</svg>
