<svg xmlns="http://www.w3.org/2000/svg" xmlns:xlink="http://www.w3.org/1999/xlink" width="32.169" height="27.279" viewBox="0 0 32.169 27.279">
  <defs>
    <clipPath id="clip-path">
      <path id="Path_1819" data-name="Path 1819" d="M526.92,703.27v8.125h.709a4.391,4.391,0,0,1,4.393,4.389v.435h10.1a2.439,2.439,0,0,0-2.042-1.4,10.184,10.184,0,0,1-3.193-.665c-.9-.491-.7-1.661-.7-2.509,0-.28.043-.833-.144-1.034s-.841-.183-1.111-.208c-.882-.081-2.08.143-2.727-.627-.816-.973-.308-2.438-.2-3.55.036-.368.006-.986-.27-1.113-.693-.312-1.317-.754-2-1.088-.559-.274-1.13-.514-1.7-.756Z" fill="none"/>
    </clipPath>
    <linearGradient id="linear-gradient" x1="-15.881" y1="-8.408" x2="-15.858" y2="-8.408" gradientUnits="objectBoundingBox">
      <stop offset="0" stop-color="#868686"/>
      <stop offset="1" stop-color="#d9d9d9"/>
    </linearGradient>
    <clipPath id="clip-path-2">
      <path id="Path_1820" data-name="Path 1820" d="M532.022,717.984v.816a4.393,4.393,0,0,1-4.393,4.393h-.709v7.356h1.109c.575-.24,1.145-.484,1.7-.754.682-.338,1.308-.777,2-1.092.276-.125.306-.743.27-1.109-.106-1.113-.614-2.579.2-3.554.646-.767,1.844-.54,2.727-.624.268-.026.928-.008,1.111-.208s.146-.756.144-1.036c0-.849-.195-2.016.7-2.509A10.23,10.23,0,0,1,540.08,719a2.583,2.583,0,0,0,1.825-1.015Z" fill="none"/>
    </clipPath>
    <linearGradient id="linear-gradient-2" x1="-16.246" y1="-9.335" x2="-16.222" y2="-9.335" xlink:href="#linear-gradient"/>
    <clipPath id="clip-path-3">
      <path id="Path_1821" data-name="Path 1821" d="M510.172,717.984A2.575,2.575,0,0,0,512,719a10.183,10.183,0,0,1,3.191.665c.9.493.7,1.661.7,2.509,0,.28-.044.835.146,1.036s.841.181,1.113.208c.882.083,2.08-.143,2.723.624.818.975.31,2.441.2,3.554-.034.366,0,.984.274,1.109.692.316,1.317.754,2,1.092.557.27,1.128.514,1.7.754h1.109v-7.356h-.613a4.39,4.39,0,0,1-4.39-4.393v-.816Z" fill="none"/>
    </clipPath>
    <linearGradient id="linear-gradient-3" x1="-15.376" y1="-9.332" x2="-15.352" y2="-9.332" xlink:href="#linear-gradient"/>
    <clipPath id="clip-path-4">
      <path id="Path_1822" data-name="Path 1822" d="M524.044,703.27c-.573.242-1.143.482-1.7.756-.682.335-1.308.777-2,1.088-.278.127-.308.745-.274,1.113.106,1.113.614,2.577-.2,3.55-.642.771-1.84.546-2.723.627-.272.024-.928.006-1.113.208s-.146.754-.146,1.034c.006.848.2,2.018-.7,2.509a10.14,10.14,0,0,1-3.191.665,2.429,2.429,0,0,0-2.041,1.4h10.2v-.435a4.388,4.388,0,0,1,4.389-4.39h.614V703.27Z" fill="none"/>
    </clipPath>
    <linearGradient id="linear-gradient-4" x1="-15.019" y1="-8.405" x2="-14.996" y2="-8.405" xlink:href="#linear-gradient"/>
  </defs>
  <g id="Group_527" data-name="Group 527" transform="translate(-509.954 -703.27)">
    <g id="Group_521" data-name="Group 521" clip-path="url(#clip-path)">
      <rect id="Rectangle_286" data-name="Rectangle 286" width="19.65" height="19.968" transform="matrix(0.633, -0.774, 0.774, 0.633, 520.526, 711.018)" fill="url(#linear-gradient)"/>
    </g>
    <g id="Group_522" data-name="Group 522" clip-path="url(#clip-path-2)">
      <rect id="Rectangle_287" data-name="Rectangle 287" width="19.215" height="19.555" transform="translate(520.762 725.506) rotate(-50.713)" fill="url(#linear-gradient-2)"/>
    </g>
    <g id="Group_523" data-name="Group 523" clip-path="url(#clip-path-3)">
      <rect id="Rectangle_288" data-name="Rectangle 288" width="19.215" height="19.556" transform="translate(504.01 725.507) rotate(-50.713)" fill="url(#linear-gradient-3)"/>
    </g>
    <g id="Group_524" data-name="Group 524" clip-path="url(#clip-path-4)">
      <rect id="Rectangle_289" data-name="Rectangle 289" width="19.65" height="19.968" transform="translate(503.606 711.025) rotate(-50.718)" fill="url(#linear-gradient-4)"/>
    </g>
  </g>
</svg>
