<svg xmlns="http://www.w3.org/2000/svg" xmlns:xlink="http://www.w3.org/1999/xlink" width="69.27" height="64.629" viewBox="0 0 69.27 64.629">
  <defs>
    <linearGradient id="linear-gradient" x1="0.795" y1="-0.052" x2="0.231" y2="1.072" gradientUnits="objectBoundingBox">
      <stop offset="0.005" stop-color="#f79121"/>
      <stop offset="1" stop-color="#d32027"/>
    </linearGradient>
  </defs>
  <g id="Group_13" data-name="Group 13" transform="translate(-927.499 -60.904)">
    <path id="Path_256" data-name="Path 256" d="M991.267,84.548l-18.141-18.14q-11.008-11.007-22.014,0L933,84.548Q922,95.556,933,106.563l18.938,18.94,10.2-10.169,10.159,10.2,18.971-18.971Q1002.272,95.557,991.267,84.548Zm-29.148,21.246-8.946-8.947a1.576,1.576,0,0,1,.062-2.522l7.655-7.656a1.6,1.6,0,0,1,2.522-.062l7.686,7.686a1.607,1.607,0,0,1,0,2.553Zm24.32-4.09-14.151,14.237-5.414-5.374,12.218-12.214q2.827-2.861-.062-5.688L964.977,78.614q-2.858-2.827-5.658,0l-7.132,7.072a.73.73,0,0,1-.185.184L945.3,92.6q-2.892,2.889-.062,5.75l12.114,12.175-5.363,5.365-14.16-14.19q-6.243-6.211-.062-12.39L955.907,71.2q6.18-6.18,12.391.03l18.14,18.141q6.148,6.179,0,12.328Z" fill-rule="evenodd" fill="url(#linear-gradient)"/>
    <path id="Path_257" data-name="Path 257" d="M962.116,105.792l-3.764-3.765-4.741,4.742,3.741,3.76Z" fill="#a01f21" fill-rule="evenodd"/>
  </g>
</svg>
