<svg xmlns="http://www.w3.org/2000/svg" width="55.04" height="39.077" viewBox="0 0 55.04 39.077">
  <g id="Group_301" data-name="Group 301" transform="translate(-692.506 -31.814)">
    <g id="Group_298" data-name="Group 298">
      <path id="Path_1207" data-name="Path 1207" d="M713.482,43.438c-5.827-.47-11.7-.939-17.5-.207q-.3,6.851-.133,13.713l-.389.06c.13-.02.259-.034.389-.05v.034l2.211-.151c2.352.015,4.722.385,7.082.344.928-.016,1.853-.1,2.778-.175l5.7-.49c.265-2.061-.015-4.048.2-6.14C714.04,48.069,714.39,45.65,713.482,43.438Z" fill="#919191"/>
      <g id="Group_297" data-name="Group 297">
        <path id="Path_1208" data-name="Path 1208" d="M703.713,50.289a.367.367,0,0,0-.083-.249,27.342,27.342,0,0,0-2.044-5.465.532.532,0,0,0-.964.126c-.819,2.654-1.845,5.532-1.963,8.324-.01.243.378.371.481.13a27.066,27.066,0,0,0,1.025-2.951.268.268,0,0,0,.056.011,8.24,8.24,0,0,1,2.458.344,14.891,14.891,0,0,0,.869,2.121c.323.624,1.264.073.94-.55a13.931,13.931,0,0,1-.776-1.841Zm-3.4-.6c.321-1.134.611-2.282.934-3.409a35.571,35.571,0,0,1,1.178,3.5,10.391,10.391,0,0,0-2.112-.093Z" fill="#f9dd3a"/>
        <path id="Path_1209" data-name="Path 1209" d="M710.825,49.015a4.827,4.827,0,0,0-1.093-3.09,2.056,2.056,0,0,0-1.14-.645c-.151-.038-1.259.087-1.345.342a.336.336,0,0,0-.055-.017c0-.1,0-.2,0-.3.006-.309-.5-.392-.55-.075a49.258,49.258,0,0,0-.425,7.942.552.552,0,0,0,1.039.224,4.242,4.242,0,0,0,3.565-4.381Zm-3.593,2.9c-.077-1.779-.08-3.544-.054-5.324.014,0,.023.007.038.007,1.063,0,1.746.231,2.076,1.3a3.089,3.089,0,0,1-2.059,4.013Z" fill="#f9dd3a"/>
      </g>
    </g>
    <g id="Group_299" data-name="Group 299">
      <path id="Path_1210" data-name="Path 1210" d="M743.5,35.308a1.459,1.459,0,0,0-.607-.351.951.951,0,0,0-1.067.434.932.932,0,0,0,.036.981,1,1,0,1,0,1.638-1.063Z" fill="#919191"/>
      <path id="Path_1211" data-name="Path 1211" d="M739.768,35.308a1.459,1.459,0,0,0-.607-.352.951.951,0,0,0-1.067.434.932.932,0,0,0,.036.981,1,1,0,1,0,1.637-1.063Z" fill="#919191"/>
      <path id="Path_1212" data-name="Path 1212" d="M736.12,35.308a1.457,1.457,0,0,0-.607-.352.951.951,0,0,0-1.067.434.932.932,0,0,0,.036.981,1,1,0,1,0,1.638-1.063Z" fill="#919191"/>
    </g>
    <g id="Group_300" data-name="Group 300">
      <path id="Path_1213" data-name="Path 1213" d="M730.721,70.891c-5.3,0-10.54-.118-15.6-.231-5-.112-10.17-.229-15.346-.229-2.249,0-4.339.021-6.388.064l-.688.015-.02-.688c-.234-7.826-.173-21.375-.128-31.268.01-2.225.019-4.268.024-6.023l0-.717.716.025c4.121.142,8.725.21,14.075.21,4.718,0,9.588-.052,14.3-.1,4.764-.051,9.69-.1,14.518-.1,3.777,0,7.133.032,10.258.1l.624.013.053.622c.943,11.009.119,26.808-.427,37.262l-.033.622-.622.035C741.255,70.761,736.247,70.891,730.721,70.891Zm-30.948-1.849c5.191,0,10.369.116,15.377.229,5.055.114,10.282.231,15.571.231,5.26,0,10.047-.118,14.613-.36.532-10.212,1.285-25.162.449-35.826-2.937-.057-6.086-.085-9.6-.085-4.82,0-9.743.053-14.5.1-4.714.051-9.587.1-14.313.1-5.058,0-9.453-.062-13.407-.187,0,1.587-.013,3.38-.022,5.31-.043,9.6-.1,22.643.108,30.533C695.884,69.059,697.766,69.042,699.773,69.042Z" fill="#919191"/>
      <path id="Path_1214" data-name="Path 1214" d="M746.669,39.283c-8.9-.245-17.788-.647-26.693-.706-8.834-.058-17.911-.284-26.7.671a.171.171,0,0,0,0,.342c8.885.2,17.809-.365,26.7-.278s17.827.309,26.693,1.114C747.4,40.493,747.413,39.3,746.669,39.283Z" fill="#919191"/>
    </g>
    <path id="Path_1215" data-name="Path 1215" d="M740.342,46.464a141.935,141.935,0,0,0-19.753.04.205.205,0,0,0,0,.41c6.6-.011,13.158-.054,19.753.221C740.776,47.153,740.771,46.489,740.342,46.464Z" fill="#919191"/>
    <path id="Path_1216" data-name="Path 1216" d="M738.175,52.705c-5.9.338-11.864.257-17.734,1.031-.227.03-.245.365,0,.368,5.911.054,11.82-.529,17.734-.457C738.785,53.654,738.779,52.671,738.175,52.705Z" fill="#919191"/>
    <path id="Path_1217" data-name="Path 1217" d="M739.557,59.089c-13.512,1.388-27.05,1.877-40.578,2.948a.18.18,0,0,0,0,.359c13.49.192,27.16-1.1,40.578-2.374C740.151,59.966,740.153,59.028,739.557,59.089Z" fill="#919191"/>
  </g>
</svg>
