<svg xmlns="http://www.w3.org/2000/svg" width="349.86" height="153.944" viewBox="0 0 349.86 153.944">
  <g id="Group_2195" data-name="Group 2195" transform="translate(-1316.196 -1660.735)">
    <path id="Path_9783" data-name="Path 9783" d="M1397.755,1708.214a150.123,150.123,0,0,1-39.166-47.479l-10.1,24.192a1.851,1.851,0,0,1-2.02,1.117l-30.273-5.038a197.377,197.377,0,0,0,37.1,50.431l25.545-28.641a1.443,1.443,0,0,1,.475-.37c.052-.03.1-.065.155-.09a1.9,1.9,0,0,1,.214-.07c.052-.016.1-.039.155-.05a1.852,1.852,0,0,1,.361-.038c.009,0,.017,0,.027,0h.006l.019,0a1.849,1.849,0,0,1,.336.037c.038.007.075.019.113.029s.1.02.142.037Z" fill="#1f1f1f"/>
    <path id="Path_9784" data-name="Path 9784" d="M1386.7,1708.272a145.988,145.988,0,0,0,14.885,13.326l4.4-6.557Z" fill="#1f1f1f"/>
    <path id="Path_9785" data-name="Path 9785" d="M1601.544,1702.235c.038-.01.076-.022.115-.03a1.869,1.869,0,0,1,.336-.037l.019,0h.006l.027,0a1.87,1.87,0,0,1,.361.038c.056.012.108.036.163.053a1.867,1.867,0,0,1,.206.068,1.923,1.923,0,0,1,.173.1,1.4,1.4,0,0,1,.456.36l25.549,28.65a197.229,197.229,0,0,0,37.1-50.432l-30.269,5.038a1.858,1.858,0,0,1-2.02-1.117l-10.1-24.192a150.234,150.234,0,0,1-39.158,47.472l16.893-5.936C1601.45,1702.255,1601.5,1702.247,1601.544,1702.235Z" fill="#1f1f1f"/>
    <path id="Path_9786" data-name="Path 9786" d="M1576.277,1715.04l4.394,6.554a146.087,146.087,0,0,0,14.88-13.326Z" fill="#1f1f1f"/>
    <path id="Path_9787" data-name="Path 9787" d="M1586.771,1728.641l.028,0c.04-.005.079-.006.119-.009s.091-.01.135-.01c.022,0,.043.006.065.007s.053,0,.08,0c.048,0,.094.018.141.025s.108.016.161.029a1.838,1.838,0,0,1,.216.072c.048.018.1.033.142.056a1.83,1.83,0,0,1,.216.129c.036.024.075.043.11.07a1.846,1.846,0,0,1,.281.265l25.88,30.3a197.873,197.873,0,0,0,19.07-17.546l-31.4-35.208a149.805,149.805,0,0,1-27.314,23.68Z" fill="#1f1f1f"/>
    <path id="Path_9788" data-name="Path 9788" d="M1407.547,1730.5a149.688,149.688,0,0,1-27.315-23.672l-31.383,35.186a197.174,197.174,0,0,0,19.062,17.558l25.877-30.3a1.869,1.869,0,0,1,.281-.265c.035-.027.074-.047.11-.071a1.857,1.857,0,0,1,.215-.128c.046-.022.094-.037.142-.056a1.861,1.861,0,0,1,.216-.072c.053-.013.107-.02.161-.029s.093-.022.141-.025.1-.006.145-.006a1.87,1.87,0,0,1,.282.021Z" fill="#1f1f1f"/>
    <path id="Path_9789" data-name="Path 9789" d="M1569.019,1735.131l2.349,4.815q4.721-3.111,9.214-6.593Z" fill="#1f1f1f"/>
    <path id="Path_9790" data-name="Path 9790" d="M1401.672,1733.353q4.488,3.487,9.218,6.6l2.35-4.818Z" fill="#1f1f1f"/>
    <path id="Path_9791" data-name="Path 9791" d="M1586.84,1733.09a149.574,149.574,0,0,1-191.427,0l-30.5,35.706a196.53,196.53,0,0,0,252.422,0Z" fill="#1f1f1f"/>
  </g>
</svg>
