<svg xmlns="http://www.w3.org/2000/svg" width="40.571" height="41.29" viewBox="0 0 40.571 41.29">
  <g id="Group_334" data-name="Group 334" transform="translate(-515.316 -692.355)">
    <path id="Path_1337" data-name="Path 1337" d="M553.156,705.45a10.488,10.488,0,0,0-11.185-2.882c-2.7,1.043-1.7,5.088,1.214,4.4a6.491,6.491,0,0,1,7.349,2.726c1.845,2.812.188,7.366-1.124,10.057-2.971,6.094-9.339,9.323-15.935,9.277-6.194-.043-12.786-4.609-13.579-11.01a11.643,11.643,0,0,1,2.258-7.764c1.789-2.706,4.76-3.081,6.915-5.138a1.805,1.805,0,0,0-.79-2.993c-3.587-.885-7.441,2.387-9.5,5.064a15.967,15.967,0,0,0-3.356,11.77c1.145,9.277,10.579,14.607,19.181,14.684,9.731.087,17.866-6.993,20.59-16.013C556.5,713.318,556.045,708.94,553.156,705.45Z" fill="#e0c74e"/>
    <path id="Path_1338" data-name="Path 1338" d="M538.076,694.454c.126-2.828-4.142-2.768-4.356,0a152.761,152.761,0,0,0-.352,21.966c.2,2.908,4.594,2.971,4.567,0C537.869,709.084,537.75,701.789,538.076,694.454Z" fill="#e0c74e"/>
  </g>
</svg>
