<svg xmlns="http://www.w3.org/2000/svg" width="181.016" height="108.221" viewBox="0 0 181.016 108.221">
  <g id="Group_2160" data-name="Group 2160" transform="translate(-220.093 -1379.659)">
    <path id="Path_9651" data-name="Path 9651" d="M245.573,1487.879c-4.956,0-9.315-2.718-10.365-6.462L220.4,1428.6c-.735-2.622-.145-5.426,1.755-8.334,13.13-20.1,84.287-39.923,88.447-40.6,4.159.68,75.309,20.488,88.443,40.587,1.9,2.913,2.5,5.723,1.759,8.352l-14.81,52.82c-1.05,3.744-5.409,6.462-10.365,6.462Z" fill="#1f1f1f"/>
    <path id="Path_9652" data-name="Path 9652" d="M245.573,1487.879c-4.956,0-9.315-2.718-10.365-6.462L220.4,1428.6c-.735-2.622-.145-5.426,1.755-8.334,13.13-20.1,84.287-39.923,88.447-40.6,4.159.68,75.309,20.488,88.443,40.587,1.9,2.913,2.5,5.723,1.759,8.352l-14.81,52.82c-1.05,3.744-5.409,6.462-10.365,6.462Z" fill="#1f1f1f"/>
    <path id="Path_9653" data-name="Path 9653" d="M375.626,1480.879H245.573a5.165,5.165,0,0,1-3.416-1.122l-.2-.188-14.821-52.861c-.219-.774.454-1.971.876-2.615,2.1-3.216,10.553-12.053,43.583-24.629,17.31-6.591,33.851-11.3,38.764-12.564l.249-.063.249.063c4.914,1.262,21.454,5.977,38.742,12.556,33.029,12.569,41.482,21.405,43.583,24.621.423.646,1.1,1.849.878,2.632l-14.821,52.859-.2.188a5.158,5.158,0,0,1-3.418,1.124Zm-131.906-2.441a3.727,3.727,0,0,0,1.853.441H375.626a3.722,3.722,0,0,0,1.854-.441l14.612-52.114a4.415,4.415,0,0,0-.583-1.154c-1.994-3.052-10.14-11.485-42.62-23.846-16.921-6.439-33.107-11.08-38.279-12.423-5.172,1.341-21.359,5.98-38.3,12.432-32.482,12.368-40.627,20.8-42.621,23.854a4.385,4.385,0,0,0-.578,1.147Z" fill="#fff"/>
    <path id="Path_9654" data-name="Path 9654" d="M375.626,1485.379H245.573c-3.8,0-7.216-1.993-7.957-4.636l-14.81-52.82c-.54-1.924-.068-3.981,1.441-6.292,11.6-17.754,75.653-37.162,86.043-39.366l.311-.065.311.065c10.388,2.2,74.438,21.6,86.039,39.35,1.513,2.314,1.985,4.378,1.444,6.309l-14.81,52.82C382.843,1483.386,379.422,1485.379,375.626,1485.379ZM310.6,1385.268c-10.764,2.4-73.036,21.462-83.842,38-1.008,1.543-1.356,2.8-1.064,3.841l14.811,52.82c.28,1,2.246,2.446,5.068,2.446H375.626c2.822,0,4.789-1.446,5.069-2.446l14.811-52.82c.294-1.048-.055-2.31-1.067-3.857C383.63,1406.714,321.363,1387.664,310.6,1385.268Z" fill="#fff"/>
  </g>
</svg>
