<svg xmlns="http://www.w3.org/2000/svg" width="107.744" height="79.684" viewBox="0 0 107.744 79.684">
  <g id="Group_2238" data-name="Group 2238" transform="translate(-565.975 -769.89)">
    <path id="Path_10328" data-name="Path 10328" d="M620.459,815.965a.963.963,0,0,0-1.227,0c-12.679,10.465-31.921,13.4-40.473,14.463a100.366,100.366,0,0,1,2.718,10.6c18.191.3,26.8,2.462,37.54,8.331a1.728,1.728,0,0,0,1.655,0c10.739-5.87,19.35-8.029,37.542-8.332a100.291,100.291,0,0,1,2.715-10.6C652.375,829.37,633.138,826.431,620.459,815.965Zm.318,23.688a1.725,1.725,0,0,1-1.863,0c-5.826-3.737-13.919-4.979-20.639-6.239a59.221,59.221,0,0,0,20.608-8.237,1.725,1.725,0,0,1,1.925,0,59.179,59.179,0,0,0,20.608,8.236C634.694,834.673,626.6,835.915,620.778,839.653Zm52.894-37.919a.367.367,0,0,0-.574-.444,15.252,15.252,0,0,1-6.17,3.98.366.366,0,0,0-.2.566,6.182,6.182,0,0,1,.675,6.428c-1.234,2.391-3.774,3.531-5.676,2.55a3.449,3.449,0,0,1-1.73-2.3,3.822,3.822,0,0,0,2.013-2.27c.3-1.137.037-2.361-1.278-2.664-.971-.226-1.73.148-2.357,1.362-.722,1.4.378,3.275.378,3.275a6.182,6.182,0,0,1-5.494.759c-2.721-1.052-4.337-4.232-3.393-7.77a8.457,8.457,0,0,1,6.751-5.908.367.367,0,0,0,.232-.564c-1.829-2.72-2.788-7.228-2.769-12.7a.367.367,0,0,0-.685-.183c-2.71,4.757-5.786,8.189-8.726,9.637a.366.366,0,0,0-.08.6,8.45,8.45,0,0,1,2.909,8.485c-.944,3.538-3.929,5.49-6.812,5.045a5.505,5.505,0,0,1-4.222-3.076s1.727-1.4,1.794-2.968a2.1,2.1,0,1,0-4.175-.189c-.071,1.572,1.521,3.116,1.521,3.116a5.627,5.627,0,0,1-4.8,2.735c-4.286.145-7.912-4.1-8.094-9.483-.162-4.77,2.758-9.026,7.2-11.32a.366.366,0,0,0,.058-.614c-3.953-3.1-7.4-9.42-9.762-17.67a.366.366,0,0,0-.7,0c-2.363,8.25-5.812,14.57-9.765,17.669a.367.367,0,0,0,.058.614c4.443,2.295,7.365,6.55,7.2,11.32-.182,5.382-3.808,9.628-8.094,9.483a5.626,5.626,0,0,1-4.8-2.735s1.592-1.545,1.521-3.116a2.1,2.1,0,1,0-4.175.189c.071,1.572,1.794,2.968,1.794,2.968a5.505,5.505,0,0,1-4.222,3.076c-2.884.445-5.868-1.508-6.812-5.045a8.446,8.446,0,0,1,2.912-8.485.367.367,0,0,0-.08-.6c-2.943-1.448-6.017-4.881-8.729-9.638a.367.367,0,0,0-.685.183c.02,5.474-.937,9.982-2.768,12.7a.366.366,0,0,0,.232.564,8.453,8.453,0,0,1,6.75,5.908c.944,3.538-.671,6.718-3.393,7.77a6.184,6.184,0,0,1-5.494-.759s1.1-1.879.378-3.275c-.627-1.214-1.386-1.589-2.357-1.362-1.315.3-1.578,1.528-1.278,2.664a3.828,3.828,0,0,0,2.017,2.27,3.469,3.469,0,0,1-1.73,2.3c-1.9.981-4.445-.158-5.676-2.55a6.179,6.179,0,0,1,.672-6.428.367.367,0,0,0-.2-.566,15.23,15.23,0,0,1-6.165-3.976.366.366,0,0,0-.574.444q.833,1.473,1.692,3.06a10.967,10.967,0,0,0,2.443,1.437.431.431,0,0,1,.217.608,6.364,6.364,0,0,0-.653,1.776,146.084,146.084,0,0,1,8.25,19.4h0c8.108-.976,28.178-3.76,41.258-14.558a.964.964,0,0,1,1.227,0c13.081,10.8,33.148,13.582,41.256,14.558h0a146.109,146.109,0,0,1,8.252-19.4,6.448,6.448,0,0,0-.656-1.776.43.43,0,0,1,.217-.608,11,11,0,0,0,2.446-1.437Q672.835,803.211,673.672,801.734ZM589.785,799a.431.431,0,0,1-.644.172,8.681,8.681,0,0,0-2.481-1.255.43.43,0,0,1-.254-.607,14.255,14.255,0,0,0,1.2-3.694.43.43,0,0,1,.745-.2,14.3,14.3,0,0,0,2.882,2.608.431.431,0,0,1,.082.653A8.629,8.629,0,0,0,589.785,799Zm30.408-7.828a.43.43,0,0,1-.694,0,12.757,12.757,0,0,0-3.3-3.149.43.43,0,0,1-.068-.665,20.2,20.2,0,0,0,3.333-4.673.43.43,0,0,1,.756,0,20.13,20.13,0,0,0,3.33,4.672.43.43,0,0,1-.068.665,12.712,12.712,0,0,0-3.293,3.149Zm31.147,2.246a.43.43,0,0,1,.745.2,14.33,14.33,0,0,0,1.2,3.695.431.431,0,0,1-.254.607,8.706,8.706,0,0,0-2.482,1.255A.43.43,0,0,1,649.9,799a8.667,8.667,0,0,0-1.526-2.322.43.43,0,0,1,.082-.652,14.349,14.349,0,0,0,2.88-2.609Z" fill="#1f1f1f"/>
    <path id="Path_10329" data-name="Path 10329" d="M577.974,828.014c.115.347.233.695.344,1.042-.115-.347-.229-.695-.347-1.042Z" fill="#1f1f1f"/>
    <path id="Path_10330" data-name="Path 10330" d="M660.93,830.429c.128-.4.256-.809.391-1.211-.131.4-.263.806-.388,1.211Z" fill="#1f1f1f"/>
    <path id="Path_10331" data-name="Path 10331" d="M661.719,828.014c-.135.4-.27.8-.4,1.2.128-.4.263-.806.395-1.2Z" fill="#1f1f1f"/>
  </g>
</svg>
