<svg xmlns="http://www.w3.org/2000/svg" width="26.725" height="26.853" viewBox="0 0 26.725 26.853">
  <g id="Group_34" data-name="Group 34" transform="translate(-91.533 -116.059)">
    <g id="Group_31" data-name="Group 31">
      <path id="Path_108" data-name="Path 108" d="M106.706,139.853a1.055,1.055,0,0,1-1.055,1.053v1.6a.408.408,0,0,0,.409.407h11.421a.407.407,0,0,0,.406-.408v-1.6a1.053,1.053,0,0,1,0-2.1v-1.6a.407.407,0,0,0-.406-.408H106.06a.409.409,0,0,0-.409.408v1.6a1.056,1.056,0,0,1,1.055,1.055Z" fill="#189cd8"/>
      <path id="Path_109" data-name="Path 109" d="M114.845,130.993a1.054,1.054,0,0,1-1.053-1.053h-1.6a.407.407,0,0,0-.407.407v11.421a.408.408,0,0,0,.407.409h1.6a1.053,1.053,0,0,1,2.1,0h1.6a.409.409,0,0,0,.408-.409V130.346a.409.409,0,0,0-.408-.407h-1.6a1.053,1.053,0,0,1-1.054,1.054Z" fill="#189cd8"/>
      <path id="Path_110" data-name="Path 110" d="M115.2,127.609a1.055,1.055,0,0,1,1.054,1.054h1.6a.407.407,0,0,0,.408-.407V116.834a.408.408,0,0,0-.407-.408h-1.6a1.054,1.054,0,0,1-2.106,0h-1.6a.408.408,0,0,0-.409.408v11.421a.407.407,0,0,0,.409.407h1.6a1.054,1.054,0,0,1,1.055-1.054Z" fill="#67962f"/>
      <path id="Path_111" data-name="Path 111" d="M106.338,119.47a1.054,1.054,0,0,1-1.054,1.053v1.6a.406.406,0,0,0,.408.407h11.419a.408.408,0,0,0,.41-.407v-1.6a1.053,1.053,0,0,1,0-2.1v-1.6a.409.409,0,0,0-.408-.407H105.691a.408.408,0,0,0-.407.407v1.6a1.052,1.052,0,0,1,1.054,1.053Z" fill="#67962f"/>
      <path id="Path_112" data-name="Path 112" d="M103.1,119.118a1.055,1.055,0,0,1,1.054-1.054v-1.6a.407.407,0,0,0-.408-.407H92.324a.407.407,0,0,0-.407.407v1.6a1.054,1.054,0,0,1,0,2.106v1.6a.409.409,0,0,0,.407.409h11.422a.41.41,0,0,0,.408-.41v-1.6A1.055,1.055,0,0,1,103.1,119.118Z" fill="#152942"/>
      <path id="Path_113" data-name="Path 113" d="M94.961,127.979a1.053,1.053,0,0,1,1.054,1.052h1.6a.407.407,0,0,0,.407-.407V117.2a.407.407,0,0,0-.407-.409h-1.6a1.053,1.053,0,0,1-2.1,0h-1.6a.408.408,0,0,0-.409.408v11.421a.409.409,0,0,0,.409.407h1.6a1.052,1.052,0,0,1,1.054-1.052Z" fill="#152942"/>
      <path id="Path_114" data-name="Path 114" d="M94.592,131.4a1.055,1.055,0,0,1-1.052-1.054h-1.6a.409.409,0,0,0-.409.407l0,11.422a.406.406,0,0,0,.407.407h1.6a1.054,1.054,0,0,1,2.1,0h1.6a.407.407,0,0,0,.408-.407V130.755a.408.408,0,0,0-.409-.407h-1.6A1.057,1.057,0,0,1,94.592,131.4Z" fill="#eb6309"/>
      <path id="Path_115" data-name="Path 115" d="M103.453,139.54a1.053,1.053,0,0,1,1.054-1.054v-1.6a.408.408,0,0,0-.408-.408H92.678a.407.407,0,0,0-.409.408v1.6a1.054,1.054,0,0,1,0,2.106v1.6a.408.408,0,0,0,.407.408H104.1a.409.409,0,0,0,.408-.408v-1.6a1.053,1.053,0,0,1-1.053-1.054Z" fill="#eb6309"/>
    </g>
  </g>
</svg>
