<svg xmlns="http://www.w3.org/2000/svg" width="116.029" height="116.03" viewBox="0 0 116.029 116.03">
  <g id="Group_2214" data-name="Group 2214" transform="translate(-1619.998 -1509.178)">
    <path id="Path_10181" data-name="Path 10181" d="M1734.094,1563.837c-9.047-5.458-18.561-9.791-28.976-7.834,8.75-5.982,12.414-15.774,14.951-26.033a3.99,3.99,0,0,0-4.837-4.832c-10.257,2.537-20.048,6.2-26.029,14.95,1.958-10.417-2.376-19.932-7.836-28.98a3.991,3.991,0,0,0-6.838,0c-5.458,9.047-9.791,18.561-7.834,28.977-5.982-8.75-15.775-12.414-26.033-14.951a3.991,3.991,0,0,0-4.832,4.837c2.537,10.257,6.2,20.048,14.95,26.029-10.34-1.943-19.792,2.313-28.78,7.716a4.127,4.127,0,0,0,0,7.078c8.987,5.4,18.438,9.656,28.777,7.714-8.685,5.937-12.359,15.628-14.894,25.8a4.131,4.131,0,0,0,5,5.007c10.176-2.535,19.869-6.209,25.807-14.895-1.943,10.34,2.313,19.792,7.716,28.78a4.127,4.127,0,0,0,7.078,0c5.4-8.987,9.656-18.438,7.713-28.777,5.982,8.75,15.775,12.414,26.033,14.951a3.99,3.99,0,0,0,4.832-4.837c-2.537-10.257-6.2-20.048-14.95-26.029,10.417,1.958,19.932-2.376,28.98-7.836a3.991,3.991,0,0,0,0-6.837Zm-29.517-25.885a2.161,2.161,0,0,1,2.676,2.679c-2.626,9.017-9.911,17.593-23.378,21.981a1.018,1.018,0,0,1-1.282-1.283C1686.982,1547.862,1695.559,1540.578,1704.576,1537.952Zm-22.03,29.243a4.534,4.534,0,1,1-4.534-4.534,4.534,4.534,0,0,1,4.534,4.534Zm-6.492-39.486a2.159,2.159,0,0,1,3.787,0c4.52,8.233,5.434,19.449-.986,32.075a1.017,1.017,0,0,1-1.814,0c-6.419-12.626-5.506-23.841-.987-32.074Zm-27.41,12.923a2.159,2.159,0,0,1,2.677-2.68c9.017,2.626,17.595,9.91,21.983,23.378a1.017,1.017,0,0,1-1.282,1.283c-13.467-4.388-20.751-12.965-23.377-21.981ZM1638.4,1569.15a2.161,2.161,0,0,1,0-3.787c8.233-4.519,19.448-5.432,32.074.988a1.017,1.017,0,0,1,0,1.813c-12.626,6.42-23.842,5.506-32.074.987Zm12.922,27.412a2.161,2.161,0,0,1-2.677-2.679c2.626-9.017,9.911-17.593,23.378-21.981a1.018,1.018,0,0,1,1.282,1.283c-4.388,13.468-12.965,20.752-21.983,23.378Zm28.521,10.245a2.161,2.161,0,0,1-3.787,0c-4.519-8.233-5.432-19.448.988-32.074a1.017,1.017,0,0,1,1.814,0c6.421,12.627,5.506,23.842.987,32.075Zm27.412-12.922a2.161,2.161,0,0,1-2.679,2.677c-9.017-2.626-17.593-9.911-21.981-23.378a1.017,1.017,0,0,1,1.283-1.282c13.468,4.389,20.753,12.966,23.378,21.983Zm10.245-24.734c-8.233,4.52-19.449,5.434-32.075-.986a1.017,1.017,0,0,1,0-1.814c12.626-6.42,23.841-5.506,32.074-.987a2.159,2.159,0,0,1,0,3.787Z" fill="#1f1f1f"/>
    <path id="Path_10182" data-name="Path 10182" d="M1638.239,1583.705a3.733,3.733,0,1,0-.877,3.894A3.733,3.733,0,0,0,1638.239,1583.705Z" fill="#1f1f1f"/>
    <path id="Path_10183" data-name="Path 10183" d="M1634.865,1552.942a3.735,3.735,0,1,0-3.732-3.733,3.735,3.735,0,0,0,3.732,3.733Z" fill="#1f1f1f"/>
    <path id="Path_10184" data-name="Path 10184" d="M1661.5,1527.547a3.733,3.733,0,1,0-3.894-.877,3.733,3.733,0,0,0,3.894.877Z" fill="#1f1f1f"/>
    <path id="Path_10185" data-name="Path 10185" d="M1694.4,1527.547a3.733,3.733,0,1,0-2.134-3.374,3.733,3.733,0,0,0,2.134,3.374Z" fill="#1f1f1f"/>
    <path id="Path_10186" data-name="Path 10186" d="M1717.659,1550.808a3.733,3.733,0,1,0,.877-3.894,3.733,3.733,0,0,0-.877,3.894Z" fill="#1f1f1f"/>
    <path id="Path_10187" data-name="Path 10187" d="M1721.032,1581.571a3.735,3.735,0,1,0,3.732,3.733,3.735,3.735,0,0,0-3.732-3.733Z" fill="#1f1f1f"/>
    <path id="Path_10188" data-name="Path 10188" d="M1694.4,1606.967a3.733,3.733,0,1,0,3.894.877,3.733,3.733,0,0,0-3.894-.877Z" fill="#1f1f1f"/>
    <path id="Path_10189" data-name="Path 10189" d="M1661.5,1606.967a3.733,3.733,0,1,0,2.134,3.374,3.733,3.733,0,0,0-2.134-3.374Z" fill="#1f1f1f"/>
  </g>
</svg>
