<svg xmlns="http://www.w3.org/2000/svg" width="34.647" height="52.701" viewBox="0 0 34.647 52.701">
  <g id="Group_390" data-name="Group 390" transform="translate(-418.285 -601.758)">
    <path id="Path_1536" data-name="Path 1536" d="M432.183,624.146c-4.57,9.693-8.709,19.561-13.841,28.991-.389.715,1.356,1.776,1.768,1.113,5.816-9.358,11.023-18.4,16.376-28.274C437.928,623.315,433.466,621.425,432.183,624.146Z" fill="#4f5052"/>
    <path id="Path_1537" data-name="Path 1537" d="M431.392,604.375c.808.5,2.161.3,2.4,1.482.22,1.108-1.052,3.354-1.461,4.387-.986,2.487-2.025,5.812-3.67,7.938-1.153,1.491-3.764,2.174-5.371,3.234-2.515,1.658-.5,2.24,1.376,3.077l13.109,5.849a58.055,58.055,0,0,0,5.754,2.542c2.478.791,2.439-1.463,1.93-3.208a16.055,16.055,0,0,0-1.2-2.914c-.61-1.168-1.683-1.689-1.168-3.167a34.781,34.781,0,0,1,2.154-4.647l2.053-3.912a8.845,8.845,0,0,1,1.186-2.38c.851-.822,1.687-.233,2.684.159a1.822,1.822,0,0,0,.612.162,1.2,1.2,0,0,0,1.087-.884c.69-2.176-4.107-3.5-5.521-4.113l-8.306-3.616c-1.436-.625-2.843-1.28-4.238-1.974-1.156-.575-2.763-1.2-3.5.3C430.815,603.672,430.979,604.119,431.392,604.375Z" fill="#c06169"/>
  </g>
</svg>
