<svg xmlns="http://www.w3.org/2000/svg" width="80.743" height="52.825" viewBox="0 0 80.743 52.825">
  <path id="Path_278" data-name="Path 278" d="M534.086,102.149c2.995-2.131,6.9-2.343,10.575-2.48L585.9,98.137c5.368-.2,11.092-.311,15.672,2.5,4.267,2.616,6.811,7.426,7.807,12.331s.633,9.971.267,14.963c-.331,4.5-.679,9.086-2.351,13.28s-4.905,8.011-9.251,9.23a18.121,18.121,0,0,1-8.875-.247c-6.5-1.485-12.615-4.289-18.675-7.075L546.68,132.164c-6.058-2.786-13.016-4.239-15.735-10.592C528.4,115.632,528.3,106.267,534.086,102.149Z" transform="translate(-529.286 -98.048)" fill="#bc4e4f"/>
</svg>
