<svg xmlns="http://www.w3.org/2000/svg" width="262.656" height="83.242" viewBox="0 0 262.656 83.242">
  <g id="Group_2194" data-name="Group 2194" transform="translate(-1718.492 -1768.073)">
    <path id="Path_9778" data-name="Path 9778" d="M1759.9,1825.273a1.864,1.864,0,0,1-.343-.123c-.028-.013-.057-.022-.084-.037a1.855,1.855,0,0,1-.356-.251c-.027-.025-.051-.052-.077-.078a1.835,1.835,0,0,1-.221-.268c-.023-.034-.046-.067-.067-.1a1.836,1.836,0,0,1-.185-.416l-6.466-22.257-33.609,10.242,26.258,12.038a1.859,1.859,0,0,1,.811,2.66l-15.082,24.635,62.49-19.043-33-6.974C1759.944,1825.292,1759.924,1825.279,1759.9,1825.273Z" fill="#1f1f1f"/>
    <path id="Path_9779" data-name="Path 9779" d="M1906.815,1832.314l62.347,19-15.082-24.635a1.859,1.859,0,0,1,.811-2.66l26.257-12.037-31.744-9.673L1943.1,1824a1.843,1.843,0,0,1-.188.421c-.014.023-.026.047-.041.069a1.837,1.837,0,0,1-.278.335c-.019.018-.039.034-.059.052a1.876,1.876,0,0,1-.368.256l-.018.008a1.855,1.855,0,0,1-.428.15c-.014,0-.025.011-.039.013Z" fill="#1f1f1f"/>
    <path id="Path_9780" data-name="Path 9780" d="M1933.091,1823.238q-13.691-3.451-27.515-5.755l-3.665,12.026Z" fill="#1f1f1f"/>
    <path id="Path_9781" data-name="Path 9781" d="M1794.162,1817.8q-12.928,2.23-25.756,5.479l29.314,6.194Z" fill="#1f1f1f"/>
    <path id="Path_9782" data-name="Path 9782" d="M1761.627,1821.2a337.383,337.383,0,0,1,178.417,0l11.472-39.487a378.312,378.312,0,0,0-201.362,0Z" fill="#1f1f1f"/>
  </g>
</svg>
