<svg xmlns="http://www.w3.org/2000/svg" width="28.33" height="29.745" viewBox="0 0 28.33 29.745">
  <g id="Group_248" data-name="Group 248" transform="translate(-331.767 -403.192)">
    <g id="Group_241" data-name="Group 241">
      <path id="Path_867" data-name="Path 867" d="M332.8,416.537a12.312,12.312,0,1,1,24.624,0" fill="#fff" stroke="#009ee2" stroke-miterlimit="10" stroke-width="2.066"/>
      <path id="Path_868" data-name="Path 868" d="M359.039,412.625,357.53,417.9l-2.256-4.875Z" fill="#009ee2"/>
    </g>
    <g id="Group_242" data-name="Group 242">
      <path id="Path_869" data-name="Path 869" d="M359.064,419.592a12.313,12.313,0,0,1-24.625,0" fill="#fff" stroke="#009ee2" stroke-miterlimit="10" stroke-width="2.066"/>
      <path id="Path_870" data-name="Path 870" d="M332.778,422.923l1.353-5.313,2.4,4.805Z" fill="#009ee2"/>
    </g>
    <g id="Group_245" data-name="Group 245">
      <g id="Group_243" data-name="Group 243">
        <path id="Path_871" data-name="Path 871" d="M346.429,417.142a3.265,3.265,0,1,1-3.256-3,3.137,3.137,0,0,1,3.256,3Z" fill="#37b9ec"/>
        <path id="Path_872" data-name="Path 872" d="M350.122,417.453a2.316,2.316,0,1,1-2.316-2.317A2.316,2.316,0,0,1,350.122,417.453Z" fill="#37b9ec"/>
        <path id="Path_873" data-name="Path 873" d="M354.831,419.77a3.254,3.254,0,1,1-3.255-3.256A3.254,3.254,0,0,1,354.831,419.77Z" fill="#37b9ec"/>
        <path id="Path_874" data-name="Path 874" d="M350.058,420.457A3.254,3.254,0,1,1,346.8,417.2a3.254,3.254,0,0,1,3.254,3.256Z" fill="#37b9ec"/>
        <path id="Path_875" data-name="Path 875" d="M344.862,421.334a2.058,2.058,0,1,1-2.032-2.379,2.225,2.225,0,0,1,2.032,2.379Z" fill="#37b9ec"/>
        <path id="Path_876" data-name="Path 876" d="M342.83,419.77a2.91,2.91,0,1,1-2.91-2.91A2.91,2.91,0,0,1,342.83,419.77Z" fill="#37b9ec"/>
      </g>
      <g id="Group_244" data-name="Group 244">
        <path id="Path_877" data-name="Path 877" d="M346.429,416.108a3.265,3.265,0,1,1-3.256-3A3.138,3.138,0,0,1,346.429,416.108Z" fill="#7dcdf4"/>
        <path id="Path_878" data-name="Path 878" d="M350.122,416.42a2.316,2.316,0,1,1-2.316-2.315,2.316,2.316,0,0,1,2.316,2.315Z" fill="#7dcdf4"/>
        <path id="Path_879" data-name="Path 879" d="M354.831,418.736a3.254,3.254,0,1,1-3.254-3.254,3.254,3.254,0,0,1,3.254,3.254Z" fill="#7dcdf4"/>
        <path id="Path_880" data-name="Path 880" d="M350.058,419.424a3.254,3.254,0,1,1-3.254-3.254,3.254,3.254,0,0,1,3.254,3.254Z" fill="#7dcdf4"/>
        <path id="Path_881" data-name="Path 881" d="M344.862,420.3a2.058,2.058,0,1,1-2.032-2.377,2.225,2.225,0,0,1,2.032,2.377Z" fill="#7dcdf4"/>
        <path id="Path_882" data-name="Path 882" d="M342.83,418.736a2.91,2.91,0,1,1-2.91-2.91,2.91,2.91,0,0,1,2.91,2.91Z" fill="#7dcdf4"/>
      </g>
    </g>
  </g>
</svg>
