<svg xmlns="http://www.w3.org/2000/svg" width="28.999" height="29.143" viewBox="0 0 28.999 29.143">
  <g id="Group_482" data-name="Group 482" transform="translate(-391.453 -624.411)">
    <g id="Group_479" data-name="Group 479">
      <path id="Path_1644" data-name="Path 1644" d="M407.918,650.232a1.15,1.15,0,0,1-1.144,1.147v1.731a.443.443,0,0,0,.444.444h12.393a.442.442,0,0,0,.442-.444v-1.735a1.143,1.143,0,0,1,0-2.282v-1.736a.443.443,0,0,0-.442-.444H407.218a.445.445,0,0,0-.444.444v1.733a1.145,1.145,0,0,1,1.144,1.143Z" fill="#009ee2"/>
      <path id="Path_1645" data-name="Path 1645" d="M416.75,640.62a1.144,1.144,0,0,1-1.142-1.143h-1.734a.441.441,0,0,0-.442.442v12.393a.443.443,0,0,0,.442.444h1.735a1.143,1.143,0,0,1,2.284,0h1.736a.443.443,0,0,0,.442-.444V639.919a.442.442,0,0,0-.442-.442h-1.735A1.144,1.144,0,0,1,416.75,640.62Z" fill="#009ee2"/>
      <path id="Path_1646" data-name="Path 1646" d="M417.133,636.947a1.146,1.146,0,0,1,1.144,1.145h1.733a.442.442,0,0,0,.442-.442V625.256a.442.442,0,0,0-.442-.444h-1.734a1.144,1.144,0,0,1-2.284,0h-1.735a.444.444,0,0,0-.444.444V637.65a.444.444,0,0,0,.444.442h1.733a1.144,1.144,0,0,1,1.143-1.145Z" fill="#009ee2"/>
      <path id="Path_1647" data-name="Path 1647" d="M407.518,628.115a1.144,1.144,0,0,1-1.143,1.143v1.734a.443.443,0,0,0,.442.442h12.4a.443.443,0,0,0,.442-.442v-1.734a1.144,1.144,0,0,1,0-2.284v-1.737a.443.443,0,0,0-.442-.442H406.818a.443.443,0,0,0-.442.442v1.735a1.143,1.143,0,0,1,1.142,1.143Z" fill="#009ee2"/>
      <path id="Path_1648" data-name="Path 1648" d="M404.007,627.733a1.144,1.144,0,0,1,1.142-1.143v-1.734a.442.442,0,0,0-.442-.444l-12.393,0a.441.441,0,0,0-.442.442v1.735a1.145,1.145,0,0,1,0,2.286v1.733a.443.443,0,0,0,.442.444h12.393a.442.442,0,0,0,.442-.444v-1.733a1.144,1.144,0,0,1-1.142-1.144Z" fill="#009ee2"/>
      <path id="Path_1649" data-name="Path 1649" d="M395.174,637.349a1.141,1.141,0,0,1,1.143,1.14h1.736a.438.438,0,0,0,.441-.44l0-12.393a.438.438,0,0,0-.442-.442h-1.734a1.144,1.144,0,0,1-2.284,0H392.3a.44.44,0,0,0-.443.442V638.05a.44.44,0,0,0,.443.438h1.733a1.142,1.142,0,0,1,1.144-1.14Z" fill="#009ee2"/>
      <path id="Path_1650" data-name="Path 1650" d="M394.775,641.062a1.144,1.144,0,0,1-1.143-1.143H391.9a.445.445,0,0,0-.443.442l0,12.4a.439.439,0,0,0,.443.44h1.734a1.144,1.144,0,0,1,2.284,0h1.737a.439.439,0,0,0,.44-.44v-12.4a.441.441,0,0,0-.442-.442h-1.733a1.143,1.143,0,0,1-1.144,1.143Z" fill="#009ee2"/>
      <path id="Path_1651" data-name="Path 1651" d="M404.388,649.893a1.144,1.144,0,0,1,1.144-1.143v-1.735a.443.443,0,0,0-.443-.442H392.7a.442.442,0,0,0-.443.442v1.735a1.144,1.144,0,0,1,0,2.286v1.735a.442.442,0,0,0,.442.442H405.09a.443.443,0,0,0,.443-.442v-1.735a1.142,1.142,0,0,1-1.145-1.143Z" fill="#009ee2"/>
    </g>
  </g>
</svg>
