<svg xmlns="http://www.w3.org/2000/svg" width="112.234" height="104.076" viewBox="0 0 112.234 104.076">
  <g id="Group_2219" data-name="Group 2219" transform="translate(-763.96 -1515.155)">
    <path id="Path_10220" data-name="Path 10220" d="M764.32,1611.73c1.494,2.588,18.987,8.95,29.2,7.2,6.591-1.129,15.051-6.93,22.65-20.2a55.621,55.621,0,0,1,3.674,4.557c.321-.692,2.035-2.521,3.933-4.878,7.652,13.525,16.207,19.383,22.857,20.523,10.213,1.75,27.706-4.612,29.2-7.2s-1.742-20.918-8.365-28.889c-4.3-5.173-13.613-9.635-29.063-9.529,1.263-3.148,2.083-5.936,2.562-6.616a54.959,54.959,0,0,1-5.754-.9c7.291-12.856,7.972-22.8,5.7-28.955-3.591-9.72-17.848-21.688-20.836-21.688s-17.245,11.968-20.836,21.688c-2.27,6.144-1.595,16.065,5.66,28.888-2.986.465-5.423,1.034-6.182.966.478.679,1.3,3.463,2.558,6.607-15.176-.015-24.338,4.417-28.594,9.538C766.062,1590.812,762.825,1609.142,764.32,1611.73Zm55.525-35.022-13.13-5.54c3.161-.884,11.627-2.075,13.13,3.591,1.5-5.667,9.969-4.475,13.13-3.591Zm8.657-11.55c-3.7-.008-7.153.762-8.657,3.435-1.44-2.56-4.669-3.372-8.191-3.43-7.127-16.156,1.325-24.29,8.424-28.815,7.1,4.526,15.544,12.66,8.423,28.81Zm-1.014,27.964c1.809-3.161,2.817-6.479,1.276-9.08,2.722.03,4.913-2.022,6.66-4.727,18.721,1.473,21.678,13.2,22.056,21.818-7.633,3.971-19.235,7.287-29.852-8.069-.047.024-.094.037-.141.06Zm-7.519,1.006,1.768-14.144,11.365-8.6c-.818,3.183-4.022,11.108-9.677,9.577,4.153,4.133-1.108,10.871-3.455,13.17Zm-3.7-13.169c-5.655,1.531-8.86-6.394-9.677-9.577l11.365,8.6,1.768,14.144c-2.348-2.3-7.609-9.037-3.455-13.168Zm-33.59,20.173c.376-8.548,3.268-20.178,21.6-21.8,1.745,2.695,3.931,4.736,6.646,4.706-1.577,2.662-.484,6.072,1.4,9.3-10.563,15.032-22.069,11.739-29.654,7.793Z" fill="#1f1f1f"/>
    <path id="Path_10221" data-name="Path 10221" d="M843.292,1561.311A5.712,5.712,0,1,0,849,1555.6a5.712,5.712,0,0,0-5.712,5.712Z" fill="#1f1f1f"/>
    <path id="Path_10222" data-name="Path 10222" d="M785.313,1561.311a5.712,5.712,0,1,0,5.712-5.712A5.712,5.712,0,0,0,785.313,1561.311Z" fill="#1f1f1f"/>
    <path id="Path_10223" data-name="Path 10223" d="M814.068,1611.929a5.712,5.712,0,1,0,5.712-5.712A5.712,5.712,0,0,0,814.068,1611.929Z" fill="#1f1f1f"/>
  </g>
</svg>
