<svg xmlns="http://www.w3.org/2000/svg" width="79.089" height="77.67" viewBox="0 0 79.089 77.67">
  <path id="Path_279" data-name="Path 279" d="M204.7,122.651c-3.329-.366-7.212-.088-9.243,2.575-1.905,2.5-1.374,6.015-.767,9.1,1.23,6.253,2.4,12.586,2.116,18.952s-2.144,12.853-6.334,17.654-10.967,7.6-17.135,5.994a17.477,17.477,0,0,1-10.164-7.916,28.655,28.655,0,0,1-3.813-12.516c-.26-2.9-.325-6.088-2.266-8.253-2.16-2.408-5.795-2.617-9.029-2.654-2.9-.033-6.171.089-8.115,2.237-1.518,1.677-1.763,4.116-1.882,6.375a68.676,68.676,0,0,0,1.152,18.881,33.132,33.132,0,0,0,8.768,16.534c5.087,4.93,11.973,7.592,18.887,9.132a51.042,51.042,0,0,0,19.557.9A31.584,31.584,0,0,0,203.771,191c5.539-5.667,8.226-13.507,10-21.229a124.7,124.7,0,0,0,2.988-34.741c-.15-2.74.526-9.336-1.738-11.277C213.057,122.065,207.195,122.925,204.7,122.651Z" transform="translate(-137.859 -122.521)" fill="#284654"/>
</svg>
