<svg xmlns="http://www.w3.org/2000/svg" xmlns:xlink="http://www.w3.org/1999/xlink" width="147.066" height="121.996" viewBox="0 0 147.066 121.996">
  <defs>
    <radialGradient id="radial-gradient" cx="0.5" cy="0.5" r="0.551" gradientTransform="translate(0.082) scale(0.837 1)" gradientUnits="objectBoundingBox">
      <stop offset="0" stop-color="#fcd24c"/>
      <stop offset="1" stop-color="#fcff94"/>
    </radialGradient>
  </defs>
  <g id="Group_2425" data-name="Group 2425" transform="translate(-6.176 -370.839)">
    <path id="Path_11163" data-name="Path 11163" d="M73.4,460.679l-7.822,21.969,1.672-23.309L56.269,480.125l5.135-23.01L47.221,476.209l8.821-22.193L38.6,470.793l12.773-20.707L30.66,463.7l16.973-18.277-23.757,9.308,21.152-14.517-25.879,3.657,24.533-9.2-26.141-2.841L43.682,429,19.15,419.8l25.878,3.656L23.877,408.938l23.756,9.309L30.66,399.969l20.714,13.619L38.6,392.881l17.441,16.777-8.821-22.192L61.4,406.56l-5.136-23.01,10.981,20.786-1.672-23.31L73.4,403,75,379.83l4.71,22.709,4.709-22.71L86.018,403l7.822-21.97-1.672,23.31,10.981-20.786-5.135,23.01L112.2,387.466l-8.821,22.193,17.441-16.778-12.773,20.708,20.714-13.619-16.973,18.277,23.757-9.308L114.39,423.456l25.879-3.657L115.736,429l26.14,2.84-26.14,2.842,24.532,9.2-25.879-3.656,21.152,14.517-23.756-9.309,16.972,18.278-20.713-13.619,12.773,20.707-17.441-16.778,8.821,22.193L98.014,457.115l5.136,23.01L92.169,459.339l1.672,23.31-7.823-21.97-1.6,23.166-4.709-22.709L75,483.846Z" fill="url(#radial-gradient)"/>
    <path id="Path_11164" data-name="Path 11164" d="M83.808,388.82l1.39,20.138,6.772-19.018-1.444,20.134,9.429-17.848-4.4,19.7,12.035-16.2-7.454,18.753,14.544-13.991-10.592,17.172,16.859-11.085-13.725,14.78,18.78-7.358L109.382,425.4l19.965-2.821-18.876,7.077,20.041,2.178-20.041,2.178,18.876,7.077-19.965-2.821,16.624,11.41-18.78-7.358,13.725,14.78-16.859-11.085,10.592,17.172L100.14,449.2l7.454,18.753-12.036-16.2,4.4,19.7L90.526,453.6l1.444,20.134L85.2,454.717l-1.391,20.138-4.1-19.767-4.1,19.767-1.39-20.138-6.771,19.017L68.893,453.6l-9.429,17.848,4.4-19.7-12.036,16.2L59.278,449.2,44.734,463.19l10.592-17.172L38.467,457.1l13.725-14.78-18.78,7.358,16.625-11.409-19.965,2.821,18.876-7.077-20.041-2.178,20.041-2.178-18.876-7.077L50.037,425.4l-16.624-11.41,18.78,7.358-13.725-14.78,16.859,11.085L44.734,400.484l14.544,13.991-7.454-18.753,12.036,16.2-4.4-19.7,9.429,17.848-1.444-20.134,6.771,19.017L75.61,388.82l4.1,19.767,4.1-19.767m1.22-17.98L81.4,388.322l-1.694,8.171-1.695-8.171-3.625-17.48-1.23,17.81-.579,8.384-2.819-7.918-6.055-17.005,1.291,18,.608,8.481-3.972-7.518-8.561-16.205,3.992,17.887,1.882,8.433L53.8,394.259l-11.177-15.05,6.924,17.42,3.264,8.212-6.369-6.127L32.468,385.277l10.175,16.5,4.778,7.746-7.605-5L22.853,393.366l13.814,14.877,6.406,6.9-8.765-3.435-19.967-7.824,17.681,12.135,8,5.489-9.6-1.357L8.228,417.015l20.982,7.867,9.207,3.452L28.642,429.4,6.176,431.837l22.466,2.441,9.774,1.062-9.206,3.452L8.227,446.659l22.189-3.135,9.6-1.357-8,5.489L14.34,459.791l19.968-7.823,8.765-3.434-6.406,6.9L22.853,470.308l16.963-11.153,7.606-5L42.643,461.9,32.468,478.4,46.436,464.96l6.37-6.127-3.264,8.213-6.924,17.419L53.8,469.417l5.153-6.937-1.882,8.434L53.075,488.8l8.56-16.2,3.972-7.518L65,473.558l-1.291,18,6.055-17,2.819-7.917.579,8.384,1.23,17.811,3.625-17.482,1.694-8.171,1.695,8.171,3.625,17.48,1.23-17.81.579-8.384,2.819,7.918,6.055,17.005-1.292-18-.608-8.481,3.972,7.518,8.561,16.205-3.992-17.887-1.882-8.433,5.152,6.937L116.8,484.466l-6.924-17.42-3.264-8.212,6.369,6.127L126.949,478.4l-10.175-16.5L112,454.155l7.605,5,16.963,11.153L122.75,455.432l-6.406-6.9,8.765,3.435,19.967,7.824L127.4,447.656l-8-5.489,9.6,1.357,22.188,3.136-20.982-7.867L121,435.342l9.775-1.062,22.465-2.442L130.776,429.4,121,428.334l9.206-3.452,20.983-7.867L129,420.151l-9.6,1.357,8-5.489,17.682-12.135-19.968,7.823-8.765,3.434,6.406-6.9,13.814-14.876L119.6,404.52l-7.606,5,4.778-7.746,10.176-16.5-13.968,13.436-6.37,6.127,3.264-8.213L116.8,379.21l-11.178,15.047-5.153,6.937,1.882-8.434,3.992-17.887-8.56,16.2L93.811,398.6l.608-8.481,1.291-18-6.055,17-2.819,7.917-.579-8.384-1.23-17.811Z" fill="#fff"/>
  </g>
</svg>
