<svg xmlns="http://www.w3.org/2000/svg" width="58.842" height="55.672" viewBox="0 0 58.842 55.672">
  <g id="Group_346" data-name="Group 346" transform="translate(-500.919 -266.982)">
    <path id="Path_1367" data-name="Path 1367" d="M541.989,287.644a3.214,3.214,0,0,0-3.212-3.167l-13.016.035a28.476,28.476,0,0,0-4.916.305,3.185,3.185,0,0,0-2.546,3.529,133.542,133.542,0,0,1,.845,13.468,3.214,3.214,0,0,0,3.093,3.2l15.991.541a3.19,3.19,0,0,0,3.3-2.9A145.976,145.976,0,0,0,541.989,287.644Z" fill="#6d9dbf"/>
    <path id="Path_1368" data-name="Path 1368" d="M540.467,308.8h0l-.155,0-20.15-.681a4.555,4.555,0,0,1-4.385-4.528,168.469,168.469,0,0,0-1.06-16.919,4.523,4.523,0,0,1,3.62-5,36.418,36.418,0,0,1,6.282-.392l16.4-.043a4.533,4.533,0,0,1,4.554,4.485,184.956,184.956,0,0,1-.588,18.958A4.542,4.542,0,0,1,540.467,308.8Zm.565-26.558-16.411.043a35.676,35.676,0,0,0-6.106.377,3.513,3.513,0,0,0-2.8,3.894,169.408,169.408,0,0,1,1.067,17.022,3.546,3.546,0,0,0,3.409,3.53l20.272.683a3.525,3.525,0,0,0,3.512-3.2,183.843,183.843,0,0,0,.585-18.856,3.526,3.526,0,0,0-3.532-3.5Z" fill="#6d9dbf"/>
    <g id="Group_343" data-name="Group 343">
      <path id="Path_1369" data-name="Path 1369" d="M522.507,269.9a.281.281,0,0,0-.539,0,47.293,47.293,0,0,0-.421,11.685.691.691,0,0,0,1.381,0,47.282,47.282,0,0,0-.421-11.685Z" fill="#6d9dbf"/>
      <path id="Path_1370" data-name="Path 1370" d="M527.862,271.661a.409.409,0,0,0-.817,0c-.3,3.017-.34,6.058-.442,9.087a.851.851,0,0,0,1.7,0C528.2,277.719,528.159,274.678,527.862,271.661Z" fill="#6d9dbf"/>
      <path id="Path_1371" data-name="Path 1371" d="M533.146,267.286a.317.317,0,0,0-.633,0,125.384,125.384,0,0,0,.061,13.962.716.716,0,0,0,1.43,0,126.3,126.3,0,0,0-.859-13.962Z" fill="#6d9dbf"/>
      <path id="Path_1372" data-name="Path 1372" d="M539.088,267.622a.36.36,0,0,0-.719,0c-.314,4.452-.531,9-.417,13.462a.777.777,0,0,0,1.553,0C539.618,276.622,539.4,272.075,539.088,267.622Z" fill="#6d9dbf"/>
    </g>
    <g id="Group_344" data-name="Group 344">
      <path id="Path_1373" data-name="Path 1373" d="M523.368,319.731a.281.281,0,0,1-.539,0,47.294,47.294,0,0,1-.421-11.685.691.691,0,0,1,1.381,0A47.288,47.288,0,0,1,523.368,319.731Z" fill="#6d9dbf"/>
      <path id="Path_1374" data-name="Path 1374" d="M528.723,317.974a.409.409,0,0,1-.817,0c-.3-3.017-.34-6.058-.442-9.087a.851.851,0,0,1,1.7,0C529.063,311.915,529.019,314.957,528.723,317.974Z" fill="#6d9dbf"/>
      <path id="Path_1375" data-name="Path 1375" d="M534.006,322.349a.317.317,0,0,1-.633,0,125.369,125.369,0,0,1,.061-13.962.716.716,0,0,1,1.43,0,126.317,126.317,0,0,1-.859,13.962Z" fill="#6d9dbf"/>
      <path id="Path_1376" data-name="Path 1376" d="M539.948,322.012a.36.36,0,0,1-.719,0c-.314-4.452-.531-9-.417-13.462a.777.777,0,0,1,1.553,0C540.479,313.013,540.262,317.56,539.948,322.012Z" fill="#6d9dbf"/>
    </g>
    <g id="Group_345" data-name="Group 345">
      <path id="Path_1377" data-name="Path 1377" d="M556.711,303.732a.281.281,0,0,1-.007.539,47.3,47.3,0,0,1-11.69.277.691.691,0,0,1,.017-1.381,47.286,47.286,0,0,1,11.68.565Z" fill="#6d9dbf"/>
      <path id="Path_1378" data-name="Path 1378" d="M555.02,298.356a.409.409,0,0,1-.01.817c-3.021.259-6.062.265-9.092.329a.851.851,0,0,1,.021-1.7C548.966,297.941,552.007,298.022,555.02,298.356Z" fill="#6d9dbf"/>
      <path id="Path_1379" data-name="Path 1379" d="M559.46,293.127a.317.317,0,0,1-.008.633,125.36,125.36,0,0,1-13.961-.234.716.716,0,0,1,.018-1.43,126.324,126.324,0,0,1,13.951,1.031Z" fill="#6d9dbf"/>
      <path id="Path_1380" data-name="Path 1380" d="M559.2,287.181a.36.36,0,0,1-.009.719c-4.456.258-9.005.419-13.466.251a.777.777,0,0,1,.019-1.553C550.2,286.539,554.749,286.813,559.2,287.181Z" fill="#6d9dbf"/>
    </g>
    <path id="Path_1381" data-name="Path 1381" d="M503.127,287.857a.281.281,0,0,1,.007-.539,47.3,47.3,0,0,1,11.69-.277.691.691,0,0,1-.017,1.381,47.286,47.286,0,0,1-11.68-.565Z" fill="#6d9dbf"/>
    <path id="Path_1382" data-name="Path 1382" d="M504.818,293.233a.409.409,0,0,1,.01-.817c3.021-.259,6.062-.265,9.091-.329a.851.851,0,0,1-.021,1.7C510.871,293.648,507.831,293.567,504.818,293.233Z" fill="#6d9dbf"/>
    <path id="Path_1383" data-name="Path 1383" d="M501.219,298.462a.317.317,0,0,1,.008-.633,125.368,125.368,0,0,1,13.961.234.716.716,0,0,1-.018,1.43A126.309,126.309,0,0,1,501.219,298.462Z" fill="#6d9dbf"/>
    <path id="Path_1384" data-name="Path 1384" d="M502.269,304.408a.36.36,0,0,1,.009-.719c4.456-.259,9.005-.419,13.466-.251a.777.777,0,0,1-.019,1.553C511.261,305.05,506.717,304.776,502.269,304.408Z" fill="#6d9dbf"/>
  </g>
</svg>
