<svg xmlns="http://www.w3.org/2000/svg" width="136.946" height="147.164" viewBox="0 0 136.946 147.164">
  <g id="Group_2150" data-name="Group 2150" transform="translate(-1713.917 -528.897)">
    <path id="Path_9627" data-name="Path 9627" d="M1782.391,673.06c-21.4,0-43.42-12.77-65.474-37.953V552.541A24.554,24.554,0,0,0,1737.56,531.9h89.66a24.555,24.555,0,0,0,20.644,20.643v82.566c-22.056,25.187-44.076,37.953-65.465,37.953Z" fill="#fff"/>
    <path id="Path_9628" data-name="Path 9628" d="M1824.757,534.9A27.58,27.58,0,0,0,1844.863,555v78.971c-21.207,23.946-42.216,36.086-62.472,36.086s-41.269-12.142-62.474-36.086V555a27.581,27.581,0,0,0,20.107-20.107h84.733m5.207-6h-95.146a21.556,21.556,0,0,1-20.9,20.9v86.433c22.893,26.426,45.93,39.827,68.473,39.83h.008c22.535,0,45.57-13.4,68.465-39.83V549.8a21.557,21.557,0,0,1-20.9-20.9Z" fill="#1f1f1f"/>
  </g>
</svg>
