<svg xmlns="http://www.w3.org/2000/svg" width="117.154" height="117.154" viewBox="0 0 117.154 117.154">
  <g id="Group_2213" data-name="Group 2213" transform="translate(-1747.418 -1508.616)">
    <path id="Path_10171" data-name="Path 10171" d="M1831.831,1577.894c11.915,2.239,22.589-4.178,32.742-10.7-10.153-6.524-20.827-12.94-32.742-10.7,10.008-6.842,13.019-18.927,15.585-30.719-11.792,2.566-23.877,5.576-30.719,15.585,2.239-11.915-4.178-22.589-10.7-32.742-6.524,10.152-12.94,20.827-10.7,32.742-6.842-10.008-18.927-13.019-30.719-15.585,2.566,11.792,5.577,23.877,15.585,30.719-11.915-2.239-22.589,4.178-32.742,10.7,10.153,6.524,20.827,12.94,32.742,10.7-10.008,6.842-13.019,18.927-15.585,30.719,11.792-2.566,23.877-5.576,30.719-15.585-2.239,11.915,4.178,22.589,10.7,32.742,6.524-10.153,12.94-20.827,10.7-32.742,6.842,10.009,18.927,13.019,30.719,15.585C1844.849,1596.821,1841.839,1584.736,1831.831,1577.894Zm22.288-10.7c-9.874,7.128-24.694,9.392-41.6,0C1829.425,1557.8,1844.244,1560.064,1854.119,1567.193Zm-14.095-34.028c-1.942,12.023-10.821,24.1-29.413,29.413,5.311-18.593,17.391-27.472,29.413-29.413Zm-29.867,38.189a3.561,3.561,0,0,1-6.04.375,8.526,8.526,0,1,1,6.415-2.657A4.994,4.994,0,0,0,1810.156,1571.354ZM1806,1519.069c7.128,9.874,9.392,24.694,0,41.6-9.392-16.9-7.128-31.722,0-41.6Zm-34.028,14.095c12.023,1.942,24.1,10.82,29.413,29.413-18.593-5.311-27.472-17.391-29.413-29.413Zm-14.095,34.028c9.874-7.128,24.694-9.392,41.6,0-16.9,9.392-31.722,7.129-41.6,0Zm14.095,34.028c1.942-12.023,10.821-24.1,29.413-29.413-5.311,18.593-17.39,27.472-29.413,29.414ZM1806,1615.316c-7.128-9.874-9.392-24.694,0-41.6,9.392,16.9,7.128,31.723,0,41.6Zm4.615-43.508c18.593,5.311,27.472,17.391,29.413,29.413-12.023-1.941-24.1-10.82-29.414-29.413Z" fill="#1f1f1f"/>
    <path id="Path_10172" data-name="Path 10172" d="M1792.457,1534.509a2.524,2.524,0,1,0-2.633-.593A2.524,2.524,0,0,0,1792.457,1534.509Z" fill="#1f1f1f"/>
    <path id="Path_10173" data-name="Path 10173" d="M1819.533,1534.509a2.524,2.524,0,1,0-1.443-2.281,2.524,2.524,0,0,0,1.443,2.281Z" fill="#1f1f1f"/>
    <path id="Path_10174" data-name="Path 10174" d="M1839.272,1551.021a2.525,2.525,0,1,0,3.569,0,2.525,2.525,0,0,0-3.569,0Z" fill="#1f1f1f"/>
    <path id="Path_10175" data-name="Path 10175" d="M1838.68,1580.731a2.524,2.524,0,1,0,2.281-1.443,2.524,2.524,0,0,0-2.281,1.443Z" fill="#1f1f1f"/>
    <path id="Path_10176" data-name="Path 10176" d="M1819.533,1599.877a2.524,2.524,0,1,0,2.633.593,2.524,2.524,0,0,0-2.633-.593Z" fill="#1f1f1f"/>
    <path id="Path_10177" data-name="Path 10177" d="M1792.457,1599.877a2.524,2.524,0,1,0,1.443,2.281,2.524,2.524,0,0,0-1.443-2.281Z" fill="#1f1f1f"/>
    <path id="Path_10178" data-name="Path 10178" d="M1772.718,1583.364a2.525,2.525,0,1,0-3.569,0,2.525,2.525,0,0,0,3.569,0Z" fill="#1f1f1f"/>
    <path id="Path_10179" data-name="Path 10179" d="M1773.311,1553.655a2.524,2.524,0,1,0-2.281,1.443,2.524,2.524,0,0,0,2.281-1.443Z" fill="#1f1f1f"/>
    <path id="Path_10180" data-name="Path 10180" d="M1808.508,1566.152a1.1,1.1,0,1,0,.748,1.041,1.1,1.1,0,0,0-.748-1.041Z" fill="#1f1f1f"/>
  </g>
</svg>
