<svg xmlns="http://www.w3.org/2000/svg" width="33.44" height="25.022" viewBox="0 0 33.44 25.022">
  <g id="Group_88" data-name="Group 88" transform="translate(-212.034 -263.172)">
    <g id="Group_85" data-name="Group 85">
      <path id="Path_372" data-name="Path 372" d="M233.022,281.678s6.37,10.414,11.865-.543" fill="none" stroke="#1d1d1b" stroke-width="0.49"/>
      <path id="Path_373" data-name="Path 373" d="M236.786,283.505c0,1.02-1.135,1.847-2.534,1.847H214.689c-1.4,0-2.534-.827-2.534-1.847v-5.187c0-1.021,1.135-1.848,2.534-1.848h19.564c1.4,0,2.534.827,2.534,1.848Z" fill="#575756"/>
      <path id="Path_374" data-name="Path 374" d="M218.41,264.4c0-.676.385-1.225.862-1.225H229.55c.476,0,.863.549.863,1.225V273c0,.677-.387,1.225-.863,1.225H219.271c-.476,0-.862-.548-.862-1.225Z" fill="#f29100"/>
      <path id="Path_375" data-name="Path 375" d="M236.906,287.171a1,1,0,0,1-.982,1.022H213.016a1,1,0,0,1-.982-1.022h0a1,1,0,0,1,.982-1.02h22.908a1,1,0,0,1,.982,1.02Z" fill="#3c3c3b"/>
      <path id="Path_376" data-name="Path 376" d="M227.985,282.688h-2.368a1.126,1.126,0,0,1-1.127-1.127v-5.9h5.087a2.061,2.061,0,0,0,2.062-2.062v-6.623h1.9a1.127,1.127,0,0,1,1.128,1.127v9.666A68.086,68.086,0,0,1,227.985,282.688Z" fill="#f29100"/>
      <path id="Path_377" data-name="Path 377" d="M220.458,282.688h2.368a1.128,1.128,0,0,0,1.129-1.127v-5.9h-5.089A2.061,2.061,0,0,1,216.8,273.6v-6.623h-1.9a1.127,1.127,0,0,0-1.127,1.127v9.666a68.192,68.192,0,0,0,6.678,4.918Z" fill="#f29100"/>
      <path id="Path_378" data-name="Path 378" d="M243.574,277.282V279.8h-.157v-2.529a2.057,2.057,0,0,0-2.057,2.057v2.562a2.057,2.057,0,1,0,4.114,0v-2.562A2.05,2.05,0,0,0,243.574,277.282Z" fill="#3c3c3b"/>
    </g>
  </g>
</svg>
