<svg xmlns="http://www.w3.org/2000/svg" width="34" height="23.977" viewBox="0 0 34 23.977">
  <g id="Group_9" data-name="Group 9" transform="translate(-27.217 -37.291)">
    <g id="Group_6" data-name="Group 6">
      <path id="Path_34" data-name="Path 34" d="M31.485,51.8l7.127-7.869c-.572-.877-1.263-1.993-1.435-2.283l-9.96,10.78.1.018-.031-.03A11.507,11.507,0,0,0,31.485,51.8Z" fill="#3c4b54"/>
      <path id="Path_35" data-name="Path 35" d="M48.327,45.834,50.2,41.944a6.487,6.487,0,0,1-.574-.767c-.84-1.234-2.9-3.382-3.2-3.886l-6.269,6.784L33.9,50.954c1.885-.888,4.049-2.18,4.049-2.18C42.233,46.347,45.669,45.678,48.327,45.834Z" fill="#3c4b54"/>
      <path id="Path_36" data-name="Path 36" d="M54.478,48.484s-3.437-5.376-3.508-5.476l-1.225,3.009a12.466,12.466,0,0,1,4.733,2.467Z" fill="#3c4b54"/>
      <path id="Path_37" data-name="Path 37" d="M51.174,43.954Z" fill="#3c4b54"/>
      <path id="Path_38" data-name="Path 38" d="M57.173,52.6a25.413,25.413,0,0,0-9.611-.016q-1.069.166-2.245.406c-1.545.319-3.231.738-5.068,1.28a45.451,45.451,0,0,1,5.766-2.722c.778-.3,1.6-.587,2.421-.831,2.488-.737,5.055-1.105,6.938-.414l.069.024a5.227,5.227,0,0,0-.464-.531A9.83,9.83,0,0,0,50.1,47.163a11.475,11.475,0,0,0-1.848-.256c-2.657-.155-6.094.515-10.375,2.941a31.881,31.881,0,0,1-3.236,1.747,25.54,25.54,0,0,1-3.231,1.279,11.473,11.473,0,0,1-4.2.618l.031.03c.782.8,16.692,16.616,28.785.621a1.307,1.307,0,0,1,.811-.781h.425c.6.123,1.432.764,2.566,2.568l1.382-1.345S60.206,53.306,57.173,52.6Z" fill="#8cbf43"/>
    </g>
  </g>
</svg>
