<svg xmlns="http://www.w3.org/2000/svg" width="57.648" height="45.749" viewBox="0 0 57.648 45.749">
  <g id="Group_203" data-name="Group 203" transform="translate(-501.517 -108.299)">
    <path id="Path_923" data-name="Path 923" d="M536.464,123.395a1.121,1.121,0,0,0-.76-.313c-.809-.076-1.633-.122-2.452-.137l-.245-1.471c-.006-.036-.018-.129-.032-.116a.918.918,0,0,1,.151-.107l1.177-.743a.938.938,0,0,0,.445-1.273,34.934,34.934,0,0,0-1.606-3.767.849.849,0,0,0-.545-.491,1.014,1.014,0,0,0-.157-.017.928.928,0,0,0-.424.118l-2.411,1.22-.8-.776a.924.924,0,0,0-.1-.09.845.845,0,0,1,.067-.185l.827-1.858a1.039,1.039,0,0,0-.422-1.471l-2.632-1.872a1.1,1.1,0,0,0-.691-.235,1.027,1.027,0,0,0-.662.388l-1.825,2.013c-.18-.057-.352-.12-.531-.187-.2-.075-.414-.154-.642-.222l-1-3.163a.488.488,0,0,0-.509-.338,22.388,22.388,0,0,0-4.374.855.489.489,0,0,0-.331.344,13.7,13.7,0,0,0-.413,2.591l-1.5.438a15.182,15.182,0,0,0-1.392-2.041.488.488,0,0,0-.634-.107c-1.3.807-2.653,1.572-4.011,2.275a.487.487,0,0,0-.243.569,18.179,18.179,0,0,0,1.024,2.692,6,6,0,0,1-1.055.84c-.372-.08-1.961-.419-2.616-.545a.486.486,0,0,0-.482.188L502,119.978a.487.487,0,0,0,.146.711l2.91,1.691c.015.008.046.026.072.043-.005.024-.012.049-.015.064l-.336,1.3-2.009.226a.838.838,0,0,0-.84.8c-.206,1.4-.344,2.831-.41,4.248a.486.486,0,0,0,.429.506l2.364.281c.552.065.865.192.93.381a1.289,1.289,0,0,1,.031.334,1.962,1.962,0,0,0,.077.6,22.318,22.318,0,0,1-2.275,2.347.487.487,0,0,0-.067.653,24.1,24.1,0,0,1,1.837,2.89.486.486,0,0,0,.5.25l3.114-.481a.993.993,0,0,1,.2-.017.86.86,0,0,1,.178.168c.1.111.251.257.424.423a5.171,5.171,0,0,1,1.041,1.2c-.086.154-.334.511-.52.782-.807,1.166-1.078,1.558-.63,1.9a12.087,12.087,0,0,0,2.891,1.646,1.11,1.11,0,0,0,.724.072,1.044,1.044,0,0,0,.439-.3l2.3-2.327a4.888,4.888,0,0,1,1.307.5,19.568,19.568,0,0,0,.2,2.576.487.487,0,0,0,.478.417,40.866,40.866,0,0,1,4.7.307.387.387,0,0,0,.06,0,.486.486,0,0,0,.475-.38,18.045,18.045,0,0,0,.409-3.089,4.932,4.932,0,0,1,.8-.113l.093-.012a.8.8,0,0,1,.1.132,12.092,12.092,0,0,1,.894,1.679.487.487,0,0,0,.716.211,19.1,19.1,0,0,1,4.81-2.413.487.487,0,0,0,.29-.683L529.577,137c-.006-.011-.016-.032-.025-.051.013-.016.027-.032.036-.041l.979-1.088a9.555,9.555,0,0,0,2.56,1.235.486.486,0,0,0,.588-.265c.686-1.52,1.314-3.087,1.865-4.661a.487.487,0,0,0-.132-.521,9.784,9.784,0,0,0-2.019-1.414,15.911,15.911,0,0,0,.452-1.678,15.906,15.906,0,0,1,1.779-.047.485.485,0,0,0,.492-.39,23.549,23.549,0,0,0,.555-3.852A1.113,1.113,0,0,0,536.464,123.395Zm-22.682,1.163a6.551,6.551,0,0,1,.615-1.073,5.66,5.66,0,0,1,3.863-2.364,6.534,6.534,0,0,1,4.883,1.428,4.944,4.944,0,0,1,2.1,4.136,5.493,5.493,0,0,1-2.808,4.228,5.817,5.817,0,0,1-6.142.142c-2.435-1.352-3.186-3.229-2.433-6.089a.486.486,0,0,0-.075-.408Z" fill="#e2c549"/>
    <path id="Path_924" data-name="Path 924" d="M558.993,139.713a.773.773,0,0,0-.524-.216c-.558-.053-1.127-.084-1.692-.094l-.169-1.015c0-.025-.012-.089-.022-.08a.633.633,0,0,1,.1-.074l.812-.513a.647.647,0,0,0,.307-.878,24.105,24.105,0,0,0-1.108-2.6.586.586,0,0,0-.376-.339.7.7,0,0,0-.108-.012.64.64,0,0,0-.293.081l-1.663.842-.552-.535c-.022-.022-.071-.065-.071-.065a.6.6,0,0,1,.046-.125l.57-1.281a.834.834,0,0,0,.09-.52.844.844,0,0,0-.381-.495l-1.815-1.292a.756.756,0,0,0-.477-.162.709.709,0,0,0-.457.267L549.956,132c-.124-.039-.243-.083-.366-.129-.141-.052-.285-.106-.443-.153l-.687-2.182a.336.336,0,0,0-.351-.233,15.439,15.439,0,0,0-3.018.59.337.337,0,0,0-.228.237,9.456,9.456,0,0,0-.285,1.788l-1.036.3a10.484,10.484,0,0,0-.96-1.408.337.337,0,0,0-.438-.074c-.9.557-1.83,1.085-2.767,1.569a.336.336,0,0,0-.168.393,12.55,12.55,0,0,0,.706,1.857,4.142,4.142,0,0,1-.728.579c-.257-.055-1.352-.289-1.8-.376a.336.336,0,0,0-.333.13l-1.832,2.469a.336.336,0,0,0,.1.49l2.007,1.167c.01.006.031.018.049.03,0,.017-.008.034-.01.044l-.232.9-1.386.156a.578.578,0,0,0-.58.553c-.142.966-.237,1.953-.283,2.93a.335.335,0,0,0,.3.349l1.631.194c.381.044.6.133.642.262a.887.887,0,0,1,.021.231,1.352,1.352,0,0,0,.053.411,15.4,15.4,0,0,1-1.569,1.619.336.336,0,0,0-.046.451,16.621,16.621,0,0,1,1.267,1.993.335.335,0,0,0,.347.172l2.148-.332a.672.672,0,0,1,.138-.012.591.591,0,0,1,.123.116c.069.077.173.177.292.292a3.561,3.561,0,0,1,.718.831c-.059.106-.23.353-.359.539-.557.8-.744,1.075-.435,1.313a8.351,8.351,0,0,0,1.994,1.136.767.767,0,0,0,.5.05.72.72,0,0,0,.3-.2l1.589-1.6a3.376,3.376,0,0,1,.9.343,13.5,13.5,0,0,0,.139,1.777.336.336,0,0,0,.33.288,28.188,28.188,0,0,1,3.241.211.258.258,0,0,0,.041,0,.335.335,0,0,0,.328-.262,12.447,12.447,0,0,0,.282-2.131,3.4,3.4,0,0,1,.552-.078l.064-.008a.562.562,0,0,1,.068.091,8.359,8.359,0,0,1,.616,1.158.333.333,0,0,0,.213.188.337.337,0,0,0,.281-.043,13.179,13.179,0,0,1,3.318-1.664.336.336,0,0,0,.2-.472l-.873-1.733-.017-.035.025-.028.675-.751a6.591,6.591,0,0,0,1.766.852.335.335,0,0,0,.406-.183c.473-1.048.906-2.13,1.286-3.215a.336.336,0,0,0-.091-.359,6.751,6.751,0,0,0-1.393-.975,11.011,11.011,0,0,0,.312-1.158,10.98,10.98,0,0,1,1.227-.033.335.335,0,0,0,.339-.269,16.25,16.25,0,0,0,.383-2.657.769.769,0,0,0-.168-.57Zm-15.646.8a4.527,4.527,0,0,1,.424-.74,3.9,3.9,0,0,1,2.665-1.631,4.508,4.508,0,0,1,3.369.985,3.411,3.411,0,0,1,1.447,2.853,3.789,3.789,0,0,1-1.937,2.916,4.013,4.013,0,0,1-4.237.1c-1.679-.933-2.2-2.228-1.679-4.2A.335.335,0,0,0,543.346,140.515Z" fill="#527597"/>
    <path id="Path_925" data-name="Path 925" d="M553.905,117.521a.5.5,0,0,0-.337-.139c-.36-.034-.725-.054-1.089-.061l-.109-.654c0-.016-.008-.057-.014-.051a.428.428,0,0,1,.067-.048l.523-.33a.417.417,0,0,0,.2-.565A15.473,15.473,0,0,0,552.43,114a.377.377,0,0,0-.242-.218.442.442,0,0,0-.07-.008.414.414,0,0,0-.189.052l-1.071.542-.355-.344c-.014-.014-.046-.042-.046-.042a.381.381,0,0,1,.029-.08l.367-.825a.462.462,0,0,0-.187-.653l-1.169-.832a.486.486,0,0,0-.307-.1.456.456,0,0,0-.294.172l-.811.894c-.08-.025-.156-.053-.236-.083s-.184-.068-.285-.1l-.442-1.4a.217.217,0,0,0-.226-.15,9.949,9.949,0,0,0-1.943.38.217.217,0,0,0-.147.153,6.078,6.078,0,0,0-.183,1.151l-.667.194a6.736,6.736,0,0,0-.618-.907.217.217,0,0,0-.282-.047c-.579.358-1.178.7-1.782,1.011a.216.216,0,0,0-.108.253,8.074,8.074,0,0,0,.455,1.2,2.667,2.667,0,0,1-.469.373c-.165-.036-.871-.186-1.162-.242a.216.216,0,0,0-.214.083L538.6,116a.216.216,0,0,0,.065.316l1.292.751.032.019-.007.028-.149.576-.893.1a.372.372,0,0,0-.373.356c-.091.622-.153,1.257-.182,1.887a.216.216,0,0,0,.191.225l1.05.125c.245.029.384.086.413.169a.568.568,0,0,1,.014.148.872.872,0,0,0,.034.265,9.914,9.914,0,0,1-1.01,1.043.216.216,0,0,0-.03.29,10.7,10.7,0,0,1,.816,1.284.216.216,0,0,0,.223.111l1.383-.214a.45.45,0,0,1,.089-.007.383.383,0,0,1,.079.074c.044.05.111.114.188.188a2.3,2.3,0,0,1,.462.535c-.038.068-.148.227-.231.347-.358.518-.479.692-.28.845a5.373,5.373,0,0,0,1.284.731.493.493,0,0,0,.322.032.464.464,0,0,0,.2-.131l1.023-1.034a2.176,2.176,0,0,1,.58.221,8.684,8.684,0,0,0,.09,1.144.217.217,0,0,0,.212.185,18.112,18.112,0,0,1,2.087.136l.026,0a.216.216,0,0,0,.211-.169,8.008,8.008,0,0,0,.182-1.372,2.2,2.2,0,0,1,.355-.05l.041-.005a.356.356,0,0,1,.044.059,5.384,5.384,0,0,1,.4.746.216.216,0,0,0,.318.094,8.489,8.489,0,0,1,2.136-1.072.216.216,0,0,0,.129-.3l-.562-1.116-.011-.023.016-.018.435-.483a4.244,4.244,0,0,0,1.137.548.216.216,0,0,0,.261-.118c.3-.675.583-1.371.828-2.07a.216.216,0,0,0-.058-.231,4.346,4.346,0,0,0-.9-.628,7.068,7.068,0,0,0,.2-.745,7.083,7.083,0,0,1,.79-.021.215.215,0,0,0,.218-.173,10.46,10.46,0,0,0,.247-1.711.5.5,0,0,0-.107-.368Zm-10.074.517a2.91,2.91,0,0,1,.273-.476,2.514,2.514,0,0,1,1.716-1.05,2.9,2.9,0,0,1,2.169.634,2.2,2.2,0,0,1,.931,1.837,2.44,2.44,0,0,1-1.247,1.878,2.584,2.584,0,0,1-2.728.063,2.1,2.1,0,0,1-1.081-2.7.215.215,0,0,0-.033-.181Z" fill="#a84749"/>
  </g>
</svg>
