<svg xmlns="http://www.w3.org/2000/svg" xmlns:xlink="http://www.w3.org/1999/xlink" width="117.552" height="98.651" viewBox="0 0 117.552 98.651">
  <defs>
    <radialGradient id="radial-gradient" cx="0.691" cy="0.729" r="0.815" gradientTransform="translate(0.094) scale(0.812 1)" gradientUnits="objectBoundingBox">
      <stop offset="0" stop-color="#7ac737"/>
      <stop offset="1" stop-color="#aad184"/>
    </radialGradient>
  </defs>
  <g id="Group_2421" data-name="Group 2421" transform="translate(-259.966 -246.516)">
    <path id="Path_11151" data-name="Path 11151" d="M277.664,336.441a50.96,50.96,0,0,0,7.252-16.638,29.022,29.022,0,0,1-16.26-6.134c-4.812-3.908-7.462-9.087-7.462-14.58,0-6.414,3.7-12.449,9.98-16.377a13.3,13.3,0,0,1-2.343-7.487,14.055,14.055,0,0,1,5.482-10.906,20.372,20.372,0,0,1,12.928-4.4,21.14,21.14,0,0,1,9.6,2.241,24.086,24.086,0,0,1,10.3-10.038,40.44,40.44,0,0,1,36.221-.182,23.948,23.948,0,0,1,10.617,10.171,31.573,31.573,0,0,1,15.373,4.487c4.474,2.867,6.938,6.694,6.938,10.777,0,4.3-2.74,8.3-7.589,11.18,4.293,3.658,6.634,8.19,6.634,12.923,0,5.653-3.274,10.931-9.218,14.862-5.788,3.828-13.46,5.935-21.6,5.935a43.435,43.435,0,0,1-14.366-2.38c-3.57,4.955-10.9,8.108-19.044,8.108a27.47,27.47,0,0,1-13.841-3.512,99.6,99.6,0,0,1-18,13.75l-5.109,2.932Z" fill="url(#radial-gradient)"/>
    <path id="Path_11152" data-name="Path 11152" d="M325.424,248.974c13.019,0,24.042,6.024,27.766,14.334,12.171.333,21.872,6.5,21.872,14.065,0,4.444-3.352,8.407-8.585,10.988,4.742,3.47,7.631,8.07,7.631,13.116,0,10.808-13.249,19.569-29.592,19.569a41.6,41.6,0,0,1-14.851-2.64c-2.991,4.909-10.173,8.368-18.559,8.368a25.786,25.786,0,0,1-14.017-3.84,98.883,98.883,0,0,1-18.439,14.241,52.032,52.032,0,0,0,7.79-18.526c-13.336-.334-24.018-8.962-24.018-19.558,0-6.621,4.171-12.473,10.553-16.014a12.309,12.309,0,0,1-2.917-7.85c0-7.776,7.693-14.08,17.183-14.08a19.725,19.725,0,0,1,10.173,2.733c3.467-8.6,14.694-14.9,28.01-14.9m0-2.456a39.757,39.757,0,0,0-18.866,4.521,28.529,28.529,0,0,0-6.94,5.17,22.043,22.043,0,0,0-3.306,4.339,22.571,22.571,0,0,0-9.072-1.859,21.6,21.6,0,0,0-13.706,4.68,16.686,16.686,0,0,0-4.308,5.249,14.273,14.273,0,0,0,.276,13.726,23.816,23.816,0,0,0-6.234,6.212,18.845,18.845,0,0,0-3.3,10.534,18.383,18.383,0,0,0,2.159,8.621,22.262,22.262,0,0,0,5.757,6.913,29.935,29.935,0,0,0,15.485,6.271,48.719,48.719,0,0,1-6.688,14.815l-7.023,9.458,10.217-5.863a101.388,101.388,0,0,0,17.589-13.3,29.119,29.119,0,0,0,13.645,3.221c8.125,0,15.513-3.043,19.479-7.89a45,45,0,0,0,13.931,2.163c8.381,0,16.293-2.18,22.279-6.139a23.839,23.839,0,0,0,7.056-6.945,16.4,16.4,0,0,0,2.712-8.94c0-4.632-2.053-9.063-5.851-12.754a18.436,18.436,0,0,0,3.939-3.624,12.368,12.368,0,0,0,2.867-7.725,11.931,11.931,0,0,0-2.12-6.7,18.112,18.112,0,0,0-5.383-5.106,32.5,32.5,0,0,0-15.272-4.64,22.088,22.088,0,0,0-3.909-5.109,29.014,29.014,0,0,0-6.9-4.962,39.942,39.942,0,0,0-18.51-4.332Z" fill="#fff"/>
  </g>
</svg>
