<svg xmlns="http://www.w3.org/2000/svg" width="319.82" height="152.449" viewBox="0 0 319.82 152.449">
  <g id="Group_2197" data-name="Group 2197" transform="translate(-50.589 -1635.033)">
    <path id="Path_9797" data-name="Path 9797" d="M370.409,1718.376v-83.343l-21.378,24.1a1.919,1.919,0,0,1-2.78,0l-21.378-24.1V1675.4l30.169,10.757a1.843,1.843,0,0,1,.333.158c.038.023.069.053.105.078a1.885,1.885,0,0,1,.188.141c.039.036.071.079.108.118a1.793,1.793,0,0,1,.137.153c.034.046.059.1.089.148s.069.1.1.158l0,.011.007.012Z" fill="#1f1f1f"/>
    <path id="Path_9798" data-name="Path 9798" d="M74.747,1659.132a1.919,1.919,0,0,1-2.78,0l-21.378-24.1v83.343l14.3-31.245.007-.012,0-.011a1.831,1.831,0,0,1,.1-.158c.03-.049.055-.1.089-.148a1.831,1.831,0,0,1,.137-.153c.036-.039.068-.083.108-.119a1.912,1.912,0,0,1,.188-.141c.036-.025.067-.055.1-.078a1.852,1.852,0,0,1,.334-.158l30.17-10.757v-40.363Z" fill="#1f1f1f"/>
    <path id="Path_9799" data-name="Path 9799" d="M83.681,1725.043a153.722,153.722,0,0,1-17.272-32.3l-14.785,32.3Z" fill="#1f1f1f"/>
    <path id="Path_9800" data-name="Path 9800" d="M354.587,1692.741a153.714,153.714,0,0,1-17.272,32.3h32.057Z" fill="#1f1f1f"/>
    <path id="Path_9801" data-name="Path 9801" d="M210.5,1787.482a151.24,151.24,0,0,0,141.534-98.457l-41.322-14.733a107.086,107.086,0,0,1-200.424,0l-41.322,14.733A151.242,151.242,0,0,0,210.5,1787.482Z" fill="#1f1f1f"/>
  </g>
</svg>
