<svg xmlns="http://www.w3.org/2000/svg" width="126.3" height="156.11" viewBox="0 0 126.3 156.11">
  <g id="Group_2154" data-name="Group 2154" transform="translate(-822.758 -524.423)">
    <path id="Path_9637" data-name="Path 9637" d="M885.908,675.373c-6.3-7.481-16.381-11.471-26.971-15.664-16.5-6.53-32.077-12.7-32.077-32.176,0-10.316,3.658-16.5,7.2-22.49,3.391-5.734,6.592-11.148,5.376-18.725-1.155-7.2-5.5-13.743-12.926-19.475l9.011-19.579a60.07,60.07,0,0,0,6.032.306c16.383,0,32.02-6.667,44.359-18.841,12.341,12.175,27.979,18.841,44.36,18.841a59.924,59.924,0,0,0,6.032-.306l9.011,19.579c-7.426,5.732-11.771,12.274-12.926,19.476-1.216,7.577,1.985,12.991,5.375,18.723,3.539,5.987,7.2,12.176,7.2,22.492,0,19.477-15.58,25.645-32.074,32.175C902.291,663.9,892.211,667.892,885.908,675.373Z" fill="#fff"/>
    <path id="Path_9638" data-name="Path 9638" d="M885.908,532.865c12.558,11.461,28.1,17.705,44.36,17.705,1.39,0,2.788-.047,4.186-.141l7.155,15.548c-6.916,5.857-11.009,12.522-12.187,19.866-1.387,8.646,2.243,14.786,5.755,20.726,3.333,5.638,6.779,11.468,6.779,20.964,0,16.264-11.4,21.952-30.181,29.386-9.393,3.719-19.034,7.536-25.867,14.094-6.833-6.558-16.474-10.375-25.869-14.094-18.778-7.434-30.179-13.121-30.179-29.386,0-9.5,3.446-15.326,6.781-20.966,3.51-5.938,7.141-12.078,5.753-20.724-1.178-7.344-5.271-14.009-12.187-19.866l7.155-15.548c1.4.094,2.8.141,4.187.141,16.26,0,31.8-6.245,44.359-17.705m0-8.442c-12.083,13-27.81,20.146-44.36,20.147a57.091,57.091,0,0,1-7.844-.545L822.758,567.81c7.976,5.6,12.588,11.981,13.712,18.984,1.044,6.507-1.755,11.24-4.995,16.721-3.569,6.037-7.615,12.88-7.615,24.018,0,21.516,17.269,28.353,33.971,34.964,11.685,4.626,22.743,9,28.078,18.036,5.335-9.032,16.394-13.41,28.078-18.036,16.7-6.612,33.971-13.448,33.971-34.964,0-11.138-4.046-17.981-7.615-24.018-3.24-5.481-6.039-10.214-4.995-16.721,1.124-7,5.736-13.388,13.711-18.984l-10.946-23.785a57.1,57.1,0,0,1-7.844.545c-16.548,0-32.276-7.149-44.36-20.147Z" fill="#1f1f1f"/>
  </g>
</svg>
