<svg xmlns="http://www.w3.org/2000/svg" width="101.956" height="74.516" viewBox="0 0 101.956 74.516">
  <g id="Group_2248" data-name="Group 2248" transform="translate(-568.869 -1170.782)">
    <path id="Path_10365" data-name="Path 10365" d="M619.849,1239.682c15.044,0,24.639-1.374,30.583-2.841l-2.2,4.315s-5.322,4.141-28.385,4.141-28.389-4.141-28.389-4.141l-2.2-4.315C595.2,1238.308,604.8,1239.682,619.849,1239.682Z" fill="#1f1f1f"/>
    <path id="Path_10366" data-name="Path 10366" d="M622.949,1217.06c0,5.411-1.385,6.92-3.1,6.92s-3.1-1.509-3.1-6.92,1.39-6.924,3.1-6.924S622.949,1211.645,622.949,1217.06Z" fill="#1f1f1f"/>
    <path id="Path_10367" data-name="Path 10367" d="M670.78,1196.946l-1.926,3.774a.418.418,0,0,1-.5.208l-21.622-6.917a.418.418,0,0,1-.234-.609l2.158-3.7a.418.418,0,0,1,.489-.188l21.389,6.846a.418.418,0,0,1,.245.588Z" fill="#1f1f1f"/>
    <g id="Group_2247" data-name="Group 2247">
      <path id="Path_10368" data-name="Path 10368" d="M643.943,1197.781l-5.31,9.1a.418.418,0,0,1-.458.2l-5.585-1.33a.418.418,0,0,1-.321-.407v-24.088a.418.418,0,0,0-.418-.418h-24a.418.418,0,0,0-.418.418v24.088a.418.418,0,0,1-.321.407l-5.589,1.33a.418.418,0,0,1-.458-.2l-5.31-9.1a.418.418,0,0,0-.488-.188l-21.9,7a.418.418,0,0,0-.245.588l12.437,24.394c5.314,1.765,15.594,3.89,34.291,3.89s28.981-2.129,34.287-3.89h0l12.437-24.394a.418.418,0,0,0-.245-.588l-21.9-7A.418.418,0,0,0,643.943,1197.781Zm-24.094,31.548c-4.652,0-8.422-2.674-8.422-12.269s3.77-12.273,8.422-12.273,8.422,2.674,8.422,12.273-3.77,12.269-8.422,12.269Z" fill="#1f1f1f"/>
      <path id="Path_10369" data-name="Path 10369" d="M571.344,1200.928l21.621-6.917a.418.418,0,0,0,.234-.609l-2.161-3.7a.418.418,0,0,0-.488-.187l-21.389,6.846a.418.418,0,0,0-.245.588l1.929,3.774a.418.418,0,0,0,.5.208Z" fill="#1f1f1f"/>
      <rect id="Rectangle_650" data-name="Rectangle 650" width="24.84" height="5.32" rx="0.418" transform="translate(607.429 1170.782)" fill="#1f1f1f"/>
    </g>
  </g>
</svg>
