<svg xmlns="http://www.w3.org/2000/svg" width="44.211" height="25.756" viewBox="0 0 44.211 25.756">
  <g id="Group_141" data-name="Group 141" transform="translate(-22.204 -332.898)">
    <path id="Path_589" data-name="Path 589" d="M43.6,333.287s-3.58,4.28-8.636,3.657l-2.179,2.724S42.746,339.513,43.6,333.287Z" fill="#68c7f2"/>
    <path id="Path_590" data-name="Path 590" d="M43.991,332.9s-1.324,9.181-13.85,7.314l-2.8,3.5S44.614,343.948,43.991,332.9Z" fill="#68c7f2"/>
    <path id="Path_591" data-name="Path 591" d="M42.8,338.307s-5.035,7.585-17.641,5.406L22.2,347.838S38.268,348.306,42.8,338.307Z" fill="#68c7f2"/>
    <path id="Path_592" data-name="Path 592" d="M45.019,333.287s3.579,4.28,8.637,3.657l2.179,2.724S45.875,339.513,45.019,333.287Z" fill="#68c7f2"/>
    <path id="Path_593" data-name="Path 593" d="M44.63,332.9s1.322,9.181,13.85,7.314l2.8,3.5S44.007,343.948,44.63,332.9Z" fill="#68c7f2"/>
    <path id="Path_594" data-name="Path 594" d="M45.819,338.307s5.035,7.585,17.64,5.406l2.956,4.125S50.354,348.306,45.819,338.307Z" fill="#68c7f2"/>
    <path id="Path_595" data-name="Path 595" d="M33.721,346.593l-2.646.856s1.713,11.049,13.539,11.2c0,0,11.2-.233,12.916-11.2l-2.568-.856s-1.808,9.094-10.348,9.181C44.614,355.774,34.343,355.463,33.721,346.593Z" fill="#5bb5e6"/>
  </g>
</svg>
