<svg xmlns="http://www.w3.org/2000/svg" width="58.591" height="67.404" viewBox="0 0 58.591 67.404">
  <g id="Group_332" data-name="Group 332" transform="translate(-785.235 -97.472)">
    <path id="Path_1325" data-name="Path 1325" d="M822.785,118.3c-.634-7.8-1.341-17.8-7.216-20.453-5.353-2.42-7.818,7.329-8.581,13.239-1.426,11.049-1.127,22.447-.386,33.581.347,5.22,1.253,12.089,3.929,15.975a8.215,8.215,0,0,0,3.849,3.889c5.386,2.352,7.394-7.977,8.088-13.648a161.687,161.687,0,0,0,.318-32.582Zm-2.171,30.431a42.892,42.892,0,0,1-1.8,9.789c-1.206,3.438-3.424,3.648-5.5,1.7a15.692,15.692,0,0,1-2.352-3.046c-.671-1.059-.582-2.409-.826-3.759-.279-1.545-.466-3.122-.67-4.692a124.238,124.238,0,0,1-.876-13c-.18-7.354.118-14.735.308-22.09.635-5.988,2.434-16.14,7.677-11.617,2.331,2.011,2.988,6.659,3.454,10.273.541,4.195.853,8.462,1.088,12.717a154.3,154.3,0,0,1-.5,23.727Z" fill="#6c99b9"/>
    <path id="Path_1326" data-name="Path 1326" d="M830.182,131.884c6.294-4.646,14.421-10.514,13.584-16.907-.762-5.825-10.348-2.785-15.773-.321-10.143,4.608-19.674,10.866-28.748,17.36-4.254,3.045-9.616,7.432-11.509,11.754a8.215,8.215,0,0,0-1.278,5.32c.838,5.817,10.676,2.083,15.862-.314a161.69,161.69,0,0,0,27.863-16.892Zm-27.011,14.184a42.888,42.888,0,0,1-9.269,3.625c-3.558.786-4.9-.989-4.343-3.78a15.7,15.7,0,0,1,1.35-3.6c.546-1.128,1.741-1.763,2.76-2.682,1.166-1.051,2.409-2.04,3.635-3.041a124.265,124.265,0,0,1,10.59-7.594c6.157-4.027,12.588-7.661,18.94-11.374,5.424-2.614,15-6.433,13.919.407-.482,3.041-4.086,6.047-6.913,8.347-3.281,2.669-6.744,5.183-10.237,7.623a154.3,154.3,0,0,1-20.432,12.073Z" fill="#6c99b9"/>
    <path id="Path_1327" data-name="Path 1327" d="M807.986,117.143c-6.8-3.874-15.453-8.928-20.96-5.575-5.018,3.056,1.643,10.59,6.094,14.552,8.32,7.409,17.9,13.589,27.513,19.257,4.506,2.657,10.689,5.783,15.407,5.765a8.216,8.216,0,0,0,5.382-.985c4.979-3.122-2.418-10.6-6.709-14.376a161.681,161.681,0,0,0-26.727-18.637ZM831.892,136.1a42.891,42.891,0,0,1,7.068,7.008c2.16,2.935,1.082,4.885-1.7,5.5a15.691,15.691,0,0,1-3.842.225c-1.253-.043-2.317-.878-3.57-1.438-1.433-.641-2.841-1.376-4.253-2.092a124.259,124.259,0,0,1-11.231-6.609c-6.175-4-12.1-8.408-18.068-12.712-4.586-3.9-11.956-11.112-5.264-12.891,2.976-.791,7.184,1.288,10.431,2.941,3.769,1.919,7.469,4.067,11.115,6.273A154.291,154.291,0,0,1,831.892,136.1Z" fill="#6c99b9"/>
    <path id="Path_1328" data-name="Path 1328" d="M818.2,133.027a5.6,5.6,0,0,0,.382-1.971,1.9,1.9,0,0,0-.973-1.656,2.81,2.81,0,0,0-1.385-.138,5.04,5.04,0,0,0-2.8.76,3.94,3.94,0,0,0-1.1,3.711,7.9,7.9,0,0,0,2.61,1.324,2.685,2.685,0,0,0,2.685-.766A3.948,3.948,0,0,0,818.2,133.027Z" fill="#a84749"/>
  </g>
</svg>
