<svg xmlns="http://www.w3.org/2000/svg" width="49.509" height="27.43" viewBox="0 0 49.509 27.43">
  <g id="Group_266" data-name="Group 266" transform="translate(-979.238 -529.57)">
    <path id="Path_1132" data-name="Path 1132" d="M990.8,530.989a.667.667,0,0,1-.013-.367.688.688,0,0,1,.379-.333,7.064,7.064,0,0,1,3.259-.717.563.563,0,0,1,.248.045.522.522,0,0,1,.218.335,10.71,10.71,0,0,1,.327,1.347.235.235,0,0,1-.023.193.27.27,0,0,1-.177.07,24.576,24.576,0,0,0-2.919.581c-.312.082-.716.292-.978.018C990.877,531.91,990.868,531.308,990.8,530.989Z" fill="#484849"/>
    <path id="Path_1133" data-name="Path 1133" d="M1011.405,531.256a.667.667,0,0,1-.013-.367.689.689,0,0,1,.379-.333,7.063,7.063,0,0,1,3.259-.717.564.564,0,0,1,.248.045.522.522,0,0,1,.218.335,10.722,10.722,0,0,1,.327,1.347.235.235,0,0,1-.023.193.27.27,0,0,1-.177.07,24.588,24.588,0,0,0-2.919.581c-.312.082-.716.292-.978.018C1011.486,532.177,1011.477,531.575,1011.405,531.256Z" fill="#484849"/>
    <path id="Path_1134" data-name="Path 1134" d="M992.885,531.092a9.116,9.116,0,0,0-4.641,3.459,28.4,28.4,0,0,1-4.813,4.641,14.122,14.122,0,0,0-3.141,3.438,8.76,8.76,0,0,0,.094,8.5,11.473,11.473,0,0,0,6.893,5.244c2.834.813,6.936,1.048,9.485-.569,2.659-1.687,4.874-3.608,8.018-4.41,6.376-1.627,10.474,3.557,16.4,4.409a6.661,6.661,0,0,0,4.1-.48,6.04,6.04,0,0,0,2.42-2.726,10.144,10.144,0,0,0,1.045-4.463c0-3.95-2.26-7.5-4.443-10.792-1.481-2.233-2.534-4.579-5.136-5.607-2.345-.927-5.07-.562-7.461-.022-3.212.725-6.214,1.437-9.495.7C999.1,531.71,996.17,530.126,992.885,531.092Z" fill="#434244"/>
    <path id="Path_1135" data-name="Path 1135" d="M1015.951,537.807a1.876,1.876,0,0,0-2.182.895,1.6,1.6,0,0,0,1.122,1.99c1.641.383,2.905-1.646,1.429-2.707A1.24,1.24,0,0,0,1015.951,537.807Z" fill="#98b99d"/>
    <path id="Path_1136" data-name="Path 1136" d="M1021.578,538.132a1.681,1.681,0,0,0-2.162.811,1.6,1.6,0,0,0,1.122,1.99,1.514,1.514,0,0,0,1.527-2.469,1.322,1.322,0,0,0-.487-.331Z" fill="#aa6a64"/>
    <path id="Path_1137" data-name="Path 1137" d="M991.088,538.015a4.777,4.777,0,0,0-3.494,2.677,4.319,4.319,0,0,0,.5,4.376,5.059,5.059,0,0,0,2.263,1.51,5.882,5.882,0,0,0,1.628.351,4.668,4.668,0,0,0,4.383-2.489C998.161,540.826,994.531,537.411,991.088,538.015Z" fill="#505151"/>
    <path id="Path_1138" data-name="Path 1138" d="M990.626,541.674a11.96,11.96,0,0,0-2.944-.065.544.544,0,0,0-.315.12.5.5,0,0,0-.1.342l-.09,2.073,2.924.244a12.333,12.333,0,0,0,.11,2.384l2.737.143a15.418,15.418,0,0,0,.263-2.776l2.414.327a.943.943,0,0,0,.746-.107.818.818,0,0,0,.212-.516l.238-1.528a.6.6,0,0,0-.023-.378c-.1-.2-.379-.235-.612-.248l-2.938-.162a7.394,7.394,0,0,0,.239-2.5c-.367-1.227-1.438-.981-2.6-1.037A19.441,19.441,0,0,0,990.626,541.674Z" fill="#7d7e7f" opacity="0.71"/>
    <g id="Group_265" data-name="Group 265">
      <path id="Path_1139" data-name="Path 1139" d="M1007.421,545.152a10.891,10.891,0,0,0,.04-1.49,16.961,16.961,0,0,0-3.4-.022,4.537,4.537,0,0,0,.1,1.6,11.811,11.811,0,0,1,1.364.089,8.845,8.845,0,0,0,1.9-.176Z" fill="#7d7e7f" opacity="0.71"/>
      <path id="Path_1140" data-name="Path 1140" d="M1012.341,545.416a10.911,10.911,0,0,0,.04-1.49,16.96,16.96,0,0,0-3.4-.023,4.536,4.536,0,0,0,.1,1.6,11.842,11.842,0,0,1,1.364.089,8.842,8.842,0,0,0,1.9-.176Z" fill="#7d7e7f" opacity="0.71"/>
      <path id="Path_1141" data-name="Path 1141" d="M1002.646,544.9a10.92,10.92,0,0,0,.04-1.49,16.958,16.958,0,0,0-3.4-.022,4.535,4.535,0,0,0,.1,1.6,11.8,11.8,0,0,1,1.364.089,8.837,8.837,0,0,0,1.9-.176Z" fill="#7d7e7f" opacity="0.71"/>
    </g>
  </g>
</svg>
