<svg xmlns="http://www.w3.org/2000/svg" width="23.64" height="23.369" viewBox="0 0 23.64 23.369">
  <g id="Group_514" data-name="Group 514" transform="translate(-334.209 -701.723)">
    <path id="Path_1775" data-name="Path 1775" d="M347.429,713.364h3.028l5.811.043.665-2.625-9.6-.024a3.172,3.172,0,0,0-2.659,1.459,3.337,3.337,0,0,0-.46,2.49,3.134,3.134,0,0,0,.174.573,3.2,3.2,0,0,0,2.945,2.029h2.111v1.8H347.38a5.361,5.361,0,1,1,0-10.721h4.675v-2.615H347.38a7.976,7.976,0,1,0,0,15.951h4.675v-1.769h0v-5.249h-4.625a.672.672,0,1,1,0-1.344Z" fill="#93c01f"/>
    <path id="Path_1776" data-name="Path 1776" d="M357.849,725.092h-23.64V701.723h23.64Zm-21.809-1.833h19.978v-19.7H336.04Z" fill="#93c01f"/>
  </g>
</svg>
