<svg xmlns="http://www.w3.org/2000/svg" width="49.197" height="51.395" viewBox="0 0 49.197 51.395">
  <g id="Group_385" data-name="Group 385" transform="translate(-1074.124 -433.764)">
    <path id="Path_1510" data-name="Path 1510" d="M1118.492,440.135l-4.407-4.012a10.881,10.881,0,0,0-1.262-1.038c-.475-.317-1.075-1.524-1.6-1.291-.718.322-.815,2.251-.8,3.037.033,1.393.154,2.845.072,4.218-5.46,1.11-11.39,1.1-16.945,1.74-4.173.483-8.832,1.69-11.345,5.371-1.726,2.528-2.073,5.723-1.983,8.688l5.84-.032c-1.054-6.64,7.145-7.455,10.691-7.585l9.882-.36c1.221-.044,3.526-.337,4.225.9.782,1.4.273,6.528.71,7.076.58.726,7.359-5.767,8.535-6.794s3.456-3.046,3.186-4.869c-.23-1.558-2.635-3.073-3.81-4.143Z" fill="#6d9dbf"/>
    <path id="Path_1511" data-name="Path 1511" d="M1078.677,478.435l4.2,4.23a10.876,10.876,0,0,0,1.207,1.1c.458.34,1,1.577,1.529,1.37.733-.285.928-2.207.95-2.993.038-1.393-.01-2.849.142-4.216,5.51-.831,11.431-.517,17.011-.877,4.193-.271,8.907-1.239,11.6-4.788,1.852-2.437,2.361-5.61,2.421-8.576l-5.834-.264c.715,6.685-7.515,7.083-11.062,7.032l-9.888-.142c-1.222-.017-3.538.157-4.174-1.114-.71-1.439.059-6.534-.35-7.1-.542-.754-7.643,5.386-8.869,6.352s-3.606,2.867-3.429,4.7c.151,1.568,2.475,3.2,3.595,4.331Z" fill="#6d9dbf"/>
  </g>
</svg>
