<svg xmlns="http://www.w3.org/2000/svg" width="32" height="32"><path fill-opacity=".1" fill-rule="evenodd" d="M24 28.001v-4h4v4h-3.999v4H20v-4h4zm-7.999-4v-4H20v-4h4.001L28 16v-3.999h4.001v4H28v4h-4V16l.001-3.999H28v-4h-4v4h-4V16h-3.999L12 16.001v4H8v-4H4v4H0V16h4v-3.999h4v-4h4v4H8.001v4L12 16v-3.999h4V8l.001-3.999H20V0h-4v4.001h-4v4h4.001L20 8V4.001h4v4h-4v4h-3.999V16L16 20.001h-4v4h4v4h-4v4h4.001v-4H20v-4h4v-4h-4V24h-4zm-8.001 4v-4h4v4H8.001v4H4v-4h4zm-4-4v4H0V24h4v-3.999h4v4H4zm0-16v4H0V8h4V4.001h4v4H4zm-4-4V4a4 4 0 0 1 4-4v4.001H0zm8 0V0h4v4.001H8zm16 0V0h4v4.001h-4zm4 4v-4h4.001v4H28zm0 16v-4h4.001v4H28zm0 8v-4h4.001a4 4 0 0 1-4 4H28z"/></svg>