<svg xmlns="http://www.w3.org/2000/svg" width="104.024" height="63.956" viewBox="0 0 104.024 63.956">
  <g id="Group_2244" data-name="Group 2244" transform="translate(-801.639 -1176.062)">
    <path id="Path_10351" data-name="Path 10351" d="M890.8,1190.052a.412.412,0,0,0-.132.3v7.5c0,4.3-2.583,6.451-5.169,6.451s-5.169-2.15-5.169-6.451v-7.546a.412.412,0,0,0-.082-.247l-10.343-13.837a.412.412,0,0,0-.66,0L858.9,1190.064a.412.412,0,0,0-.082.247v7.546c0,4.3-2.583,6.451-5.169,6.451s-5.165-2.15-5.165-6.451v-7.546a.412.412,0,0,0-.082-.247l-10.347-13.837a.412.412,0,0,0-.66,0l-10.343,13.837a.412.412,0,0,0-.082.247v7.546c0,4.3-2.586,6.451-5.169,6.451s-5.169-2.15-5.169-6.451v-7.5a.412.412,0,0,0-.132-.3l-14.168-13.146a.412.412,0,0,0-.67.437l3.122,9.047a3.35,3.35,0,0,1,1.236-.235,3.121,3.121,0,0,1,3.2,3.03,3.07,3.07,0,0,1-2.458,2.943l10.615,30.745c6.705,2.564,20.707,4.907,36.267,4.907s29.566-2.344,36.271-4.907l10.615-30.745a3.07,3.07,0,0,1-2.457-2.943,3.121,3.121,0,0,1,3.2-3.03,3.349,3.349,0,0,1,1.236.235l3.122-9.047a.412.412,0,0,0-.67-.437Zm-53.078,2.163a3.035,3.035,0,1,1,3.2-3.03A3.123,3.123,0,0,1,837.724,1192.214Zm31.519,0a3.035,3.035,0,1,1,3.2-3.03,3.121,3.121,0,0,1-3.2,3.03Zm-50.124,35.7,2.382,6.891c3.648,2.5,16.99,5.215,32.148,5.215s28.5-2.712,32.152-5.215l2.382-6.9c-6.546,2.416-19.812,4.6-34.534,4.6S825.672,1230.321,819.119,1227.912Z" fill="#1f1f1f"/>
    <path id="Path_10352" data-name="Path 10352" d="M821.5,1234.8c3.649,2.5,16.993,5.213,32.152,5.213s28.5-2.71,32.152-5.213" fill="#1f1f1f"/>
    <path id="Path_10353" data-name="Path 10353" d="M819.115,1227.909l-1.737-5.037h0Z" fill="#1f1f1f"/>
  </g>
</svg>
