<svg xmlns="http://www.w3.org/2000/svg" width="98.307" height="98.075" viewBox="0 0 98.307 98.075">
  <g id="Group_2232" data-name="Group 2232" transform="translate(-570.694 -1259.927)">
    <path id="Path_10302" data-name="Path 10302" d="M591.562,1283.129c-12.893,0-24.837,8.208-19.61,24.725,3.377,10.666,12.287,22.855,23.549,33.943a.491.491,0,0,0,.437.132c2.254-.439,4.377-.876,6.664-1.537a.228.228,0,0,0,.1-.381c-5.456-5.47-9.737-12.375-11.442-18.233-3.007-10.355,3.333-15.455,10.328-15.455a14.621,14.621,0,0,1,10.038,3.955.49.49,0,0,0,.825-.406l-2.091-19.443a1.365,1.365,0,0,0-.463-.885,28.325,28.325,0,0,0-18.334-6.414Z" fill="#1f1f1f"/>
    <path id="Path_10303" data-name="Path 10303" d="M648.133,1283.129c12.893,0,24.837,8.208,19.61,24.725-3.377,10.666-12.287,22.855-23.549,33.943a.49.49,0,0,1-.437.132c-2.253-.44-4.377-.876-6.664-1.537a.228.228,0,0,1-.1-.381c5.456-5.47,9.738-12.375,11.442-18.233,3.007-10.355-3.333-15.455-10.328-15.455a14.622,14.622,0,0,0-10.038,3.955.49.49,0,0,1-.825-.406l2.091-19.443a1.365,1.365,0,0,1,.463-.885,28.324,28.324,0,0,1,18.334-6.414Z" fill="#1f1f1f"/>
    <path id="Path_10304" data-name="Path 10304" d="M613.64,1312.722l.1,1-.109-1.007Z" fill="#1f1f1f"/>
    <path id="Path_10305" data-name="Path 10305" d="M643.211,1343.558a.174.174,0,0,0-.135-.213c-8-1.6-12.859-3.1-19.535-8.17a1,1,0,0,1-.389-.9l1.82-16.9.182-1.69v0l.182-1.682,2.384-22.177a.4.4,0,0,0-.312-.431,36.01,36.01,0,0,0-15.123,0,.4.4,0,0,0-.312.432c.31,2.862,2.373,22.045,2.387,22.173l.178,1.686v0l.182,1.686,1.82,16.9a1,1,0,0,1-.39.9,37.44,37.44,0,0,1-11.913,6.321,71.187,71.187,0,0,1-7.59,1.843.174.174,0,0,0-.141.209c.272,1.225.038.261,2.376,9.52,3.637,3.906,15.36,4.933,20.966,4.933,5.51,0,17.3-1,20.966-4.933l2.159-8.565.236-.938Z" fill="#1f1f1f"/>
    <path id="Path_10306" data-name="Path 10306" d="M625.732,1282.426a.4.4,0,0,1,.448.572l-2.743,5.162-.424.8a.4.4,0,0,1-.382.21q-1.374-.107-2.783-.107c-1.18,0-2.343.06-3.487.171a.4.4,0,0,1-.39-.209l-.445-.837-2.768-5.216a.4.4,0,0,1,.445-.573,27.406,27.406,0,0,0,6.411.747,25.205,25.205,0,0,0,6.116-.719Z" fill="#1f1f1f"/>
    <path id="Path_10307" data-name="Path 10307" d="M626.682,1280.127a.4.4,0,0,1-.257.508,25.416,25.416,0,0,1-13.885-.006.4.4,0,0,1-.265-.511L619.1,1260.2a.4.4,0,0,1,.752,0Z" fill="#1f1f1f"/>
  </g>
</svg>
