<svg xmlns="http://www.w3.org/2000/svg" width="41.965" height="53.41" viewBox="0 0 41.965 53.41">
  <g id="Group_348" data-name="Group 348" transform="translate(-35.457 -265.268)">
    <path id="Path_1385" data-name="Path 1385" d="M71.979,316.082a3.416,3.416,0,0,0-.567-.758,5.186,5.186,0,0,0-3.087-1.212q-5-.758-10.042-1.106c-.129-2.27-.268-4.543-.439-6.808a.926.926,0,0,0-.667-.876.632.632,0,0,0-.307-.042l-.176.042a.925.925,0,0,0-.667.876,63.673,63.673,0,0,0-.191,6.657q-5.486-.281-10.982-.091c-1.531.055-3.95.239-4.921,1.653-1.248,1.818,1.355,2.105,2.827,2.463,3.79.921,7.736.767,11.6,1.155a82.973,82.973,0,0,0,11.22.638C66.923,318.625,73.273,318.573,71.979,316.082Z" fill="#6d9dbf"/>
    <path id="Path_1386" data-name="Path 1386" d="M55.395,307.6c5,.7,10.44.7,14.677-2.041,5.979-3.874,7.658-11.921,7.307-19.036-.373-7.565-3.214-15.98-10.16-19a23.557,23.557,0,0,0-5.454-1.429,38.523,38.523,0,0,0-11.788-.636,15.634,15.634,0,0,0-10.238,5.377,19.681,19.681,0,0,0-3.338,8.131c-1.654,7.676-1.329,16.566,4.1,22.238C44.31,305.183,49.941,306.836,55.395,307.6Z" fill="#6d9dbf"/>
    <path id="Path_1387" data-name="Path 1387" d="M68.62,298.293c-4.009.891-8.159.543-12.2.02-7.293-.946-13.889-3.67-15.251-11.6-.75-4.37.222-9.045,1.227-13.293.371-1.57,1.342-3.9.895-5.513,0-.01-.007-.015-.009-.025a12.975,12.975,0,0,0-3.61,3.111,19.68,19.68,0,0,0-3.338,8.131c-1.654,7.676-1.329,16.566,4.1,22.238,3.808,3.978,9.44,5.631,14.893,6.4,5,.7,10.44.7,14.677-2.042,4.515-2.925,6.575-8.23,7.164-13.716A14.168,14.168,0,0,1,68.62,298.293Z" opacity="0.07"/>
    <path id="Path_1388" data-name="Path 1388" d="M55.107,303.05c3.582.5,7.479.5,10.515-1.463,4.283-2.775,5.486-8.54,5.235-13.638-.267-5.42-2.3-11.449-7.279-13.612a16.875,16.875,0,0,0-3.907-1.024,27.6,27.6,0,0,0-8.445-.456,11.2,11.2,0,0,0-7.335,3.852,14.1,14.1,0,0,0-2.392,5.825c-1.185,5.5-.952,11.868,2.938,15.932C47.165,301.317,51.2,302.5,55.107,303.05Z" opacity="0.15"/>
    <g id="Group_347" data-name="Group 347">
      <path id="Path_1389" data-name="Path 1389" d="M56.11,297.75c2.32.326,4.843.327,6.809-.947,2.774-1.8,3.553-5.53,3.39-8.831-.173-3.51-1.491-7.414-4.713-8.815a10.93,10.93,0,0,0-2.53-.663,17.877,17.877,0,0,0-5.469-.3,7.253,7.253,0,0,0-4.749,2.495,9.13,9.13,0,0,0-1.549,3.772c-.767,3.561-.616,7.685,1.9,10.317C50.967,296.628,53.58,297.394,56.11,297.75Z" fill="#333"/>
      <path id="Path_1390" data-name="Path 1390" d="M58.488,298.4h0a17.494,17.494,0,0,1-2.444-.187c-3.272-.461-5.62-1.477-7.181-3.107-3.078-3.217-2.588-8.108-2.021-10.738a9.694,9.694,0,0,1,1.638-3.962,7.644,7.644,0,0,1,5.052-2.668,19.646,19.646,0,0,1,5.612.3,11.4,11.4,0,0,1,2.638.7c2.9,1.263,4.771,4.709,4.993,9.219.1,2.014-.052,6.946-3.6,9.246a8.378,8.378,0,0,1-4.684,1.2Zm-3.281-19.84a11.152,11.152,0,0,0-1.546.1,6.724,6.724,0,0,0-4.447,2.32,8.846,8.846,0,0,0-1.46,3.583c-.528,2.449-1,6.991,1.784,9.9,1.41,1.473,3.581,2.4,6.637,2.829,2.917.41,4.944.125,6.49-.877,3.143-2.035,3.269-6.564,3.177-8.417-.076-1.554-.622-6.752-4.433-8.409a10.418,10.418,0,0,0-2.423-.631,22.406,22.406,0,0,0-3.779-.4Z" fill="#fff"/>
    </g>
    <path id="Path_1391" data-name="Path 1391" d="M57.5,269.782a1.189,1.189,0,0,0-2.376,0l-.011.155c-.113,1.546,2.511,1.546,2.4,0C57.51,269.886,57.506,269.834,57.5,269.782Z" fill="#fff"/>
  </g>
</svg>
