<svg xmlns="http://www.w3.org/2000/svg" width="37.275" height="24.233" viewBox="0 0 37.275 24.233">
  <g id="Group_474" data-name="Group 474" transform="translate(-266.961 -625.606)">
    <path id="Path_1611" data-name="Path 1611" d="M285.367,646.621l-15.658-7.058-2.611-1.179,9.134-8.465L284.5,634.7Z" fill="#7f8080"/>
    <path id="Path_1612" data-name="Path 1612" d="M266.961,646.279l18.281.763-15.477-5.595Z" fill="#7f8080"/>
    <path id="Path_1613" data-name="Path 1613" d="M285.838,646.621l12.545-17.331-10.663-3.684-2.667,8.937Z" fill="#7f8080"/>
    <path id="Path_1614" data-name="Path 1614" d="M286.718,646.36l11.468-14.02,6.05,3.764Z" fill="#7f8080"/>
    <path id="Path_1615" data-name="Path 1615" d="M286.688,646.8l13.343-6.679,2.74,6.369Z" fill="#7f8080"/>
    <path id="Path_1616" data-name="Path 1616" d="M283.088,633.887v11.7l2.279,1.03L284.5,634.7Z" fill="#8d1c17"/>
    <path id="Path_1617" data-name="Path 1617" d="M283.088,645.591l-2.052,2.9,2.166-.507.468,1.621,1.7-2.983Z" fill="#6a1512"/>
    <path id="Path_1618" data-name="Path 1618" d="M283.189,649.839l-.4-1.234-1.585.372-.07-.3,1.858-.434.487,1.5Z" fill="#6a1512"/>
    <path id="Path_1619" data-name="Path 1619" d="M285.71,632.34l2.379,13.251-2.252,1.03-.784-11.8Z" fill="#8d1c17"/>
    <path id="Path_1620" data-name="Path 1620" d="M290.141,648.49l-2.165-.507-.47,1.621-1.7-2.983,2.279-1.03Z" fill="#6a1512"/>
    <path id="Path_1621" data-name="Path 1621" d="M290.024,648.68l-1.858-.434-.487,1.5.289.093.4-1.236,1.586.374" fill="#6a1512"/>
  </g>
</svg>
