<svg xmlns="http://www.w3.org/2000/svg" xmlns:xlink="http://www.w3.org/1999/xlink" width="89.042" height="79.989" viewBox="0 0 89.042 79.989">
  <defs>
    <linearGradient id="linear-gradient" x1="-1.396" y1="2.891" x2="0.712" y2="0.132" gradientUnits="objectBoundingBox">
      <stop offset="0" stop-color="#c1282d"/>
      <stop offset="1" stop-color="#ee3552"/>
    </linearGradient>
    <linearGradient id="linear-gradient-2" x1="0.345" y1="0.933" x2="0.837" y2="0.086" gradientUnits="objectBoundingBox">
      <stop offset="0" stop-color="#333"/>
      <stop offset="1" stop-color="#676767"/>
    </linearGradient>
    <linearGradient id="linear-gradient-3" x1="0.144" y1="0.876" x2="0.73" y2="-0.31" xlink:href="#linear-gradient"/>
    <linearGradient id="linear-gradient-4" x1="0.805" y1="1.011" x2="-0.037" y2="-0.222" xlink:href="#linear-gradient"/>
  </defs>
  <g id="Group_43" data-name="Group 43" transform="translate(-1504.954 -307.674)">
    <path id="Path_355" data-name="Path 355" d="M1542.285,317.87l2.461,4.748,1.164-5.353,5.525-.862-5.049-2.417,1.079-5.352-4.188,3.927-4.919-2.287,2.373,4.575-4.012,4.056Z" fill="url(#linear-gradient)"/>
    <path id="Path_356" data-name="Path 356" d="M1592.779,328.659q-1.121-1.122-4.359-1.683c.26-.862,3.325-10.473-1.89-14.774-5.118-4.223-14.5-7.565-35.207-.116,7.42-2.027,37.832-2.564,21.043,20.976-17.945,25.162-52.06,35.848-67.412,30.037q2.893,4.706,10.229,5.826c-.23,2.475.2,4.327,1.295,5.535q1.683,1.857,5.61,1.738h21.536l-.476,4.218a31.456,31.456,0,0,0-6.172.815q-5.911,1.08-6.128,2.674-.173,1.51,5.525,2.674a78.184,78.184,0,0,0,14.067,1.078,79.2,79.2,0,0,0,14.07-1.079q6.042-1.167,6.215-2.676.215-1.6-5.61-2.676a19.894,19.894,0,0,0-5.266-.722l.518-4.305h16.918l-1.121-7.221h-51.617c17.008-1.616,46.47-14.792,59.772-34.891h1.468a.8.8,0,0,1,.648.286,1.469,1.469,0,0,1,.087.467l-3.065,26.926,6.905,2.76,3.54-29.952Q1594.333,330.688,1592.779,328.659Z" fill="url(#linear-gradient-2)"/>
    <path id="Path_357" data-name="Path 357" d="M1523.729,358.394l2.675-23.564c0-.142.1-.286.3-.458a.8.8,0,0,1,.646-.286H1564.6c.634-.754,3.971-6.035,4.574-7.275H1527.7a7.926,7.926,0,0,0-6,1.853,9.066,9.066,0,0,0-2.633,5.911l-2.806,24.728a2.542,2.542,0,0,1,.6-.088A50.078,50.078,0,0,0,1523.729,358.394Z" fill="url(#linear-gradient-3)"/>
    <path id="Path_358" data-name="Path 358" d="M1577.8,362.451l2.5,17.134,3.712-4.315,3.451,4.315,4.748-3.668-3.539-4.489,4.919-2.805Z" fill="url(#linear-gradient-4)"/>
  </g>
</svg>
