<svg xmlns="http://www.w3.org/2000/svg" width="66.384" height="47.601" viewBox="0 0 66.384 47.601">
  <g id="Group_293" data-name="Group 293" transform="translate(-212.957 -26.398)">
    <g id="Group_292" data-name="Group 292">
      <g id="Group_288" data-name="Group 288">
        <path id="Path_1184" data-name="Path 1184" d="M273.143,63.958a31.35,31.35,0,0,0-3.694-2.584c-1.1-.712-2.075-1.536-3.22-2.229-2.608-1.578-5.219-3.271-7.737-4.916a2.671,2.671,0,0,0-.529-.266c.361.134,1.216-5.42,1.237-5.924a18.651,18.651,0,0,0-3.318-11.418,24.385,24.385,0,0,0-1.939-2.289,8.869,8.869,0,0,0-2.265-2.254c-3.4-1.827-6.716-3.3-10.653-3.379a18.694,18.694,0,0,0-10.716,3.09,19.546,19.546,0,0,0-6.273,7.314l-.455.82c-1.783,3.212-1.879,7.715-1.113,11.255A18.636,18.636,0,0,0,228.1,60.97c1.533,1.4,3.222,3.03,5.324,3.487a40.688,40.688,0,0,0,5.9,1.33,18.736,18.736,0,0,0,11.469-2.972,18.467,18.467,0,0,0,2.96-2.4,2.67,2.67,0,0,0,.456.377c.565.059,1.687,1.054,2.176,1.383.828.556,1.6,1.216,2.408,1.8,2.02,1.444,4.209,2.564,6.262,3.9l2.825,1.845c.266.174.547.336.8.524a6.526,6.526,0,0,0,3.26,1.052,2.6,2.6,0,0,0,1.17-.058A2.743,2.743,0,0,0,274,70.63a4.591,4.591,0,0,0,1.488-2.029,3.285,3.285,0,0,0-.543-2.627,10.012,10.012,0,0,0-1.8-2.016ZM253.1,55.391a15.268,15.268,0,1,1-4.434-21.131A15.268,15.268,0,0,1,253.1,55.391Z" fill="#456184"/>
        <circle id="Ellipse_91" data-name="Ellipse 91" cx="15.268" cy="15.268" r="15.268" transform="translate(219.67 53.366) rotate(-62.028)" fill="#b4ffff" opacity="0.18"/>
      </g>
      <g id="Group_290" data-name="Group 290">
        <g id="Group_289" data-name="Group 289" opacity="0.9">
          <path id="Path_1185" data-name="Path 1185" d="M245.436,56.848a4.97,4.97,0,0,1-.419.379c-.071.057-.144.109-.216.163-.049.029-.1.06-.145.089a5.517,5.517,0,0,1-.5.261q-.128.059-.259.112l-.132.052-.027.012h0l-.046.025a2.734,2.734,0,0,1-.5.13c-.209.051-.421.092-.634.125q-.142.022-.285.04a1,1,0,0,0-.285.029l-.106.006q-.161.008-.324.011a10.635,10.635,0,0,1-1.166-.044q-.264-.024-.527-.061-.131-.018-.262-.04c-.019,0-.057-.005-.08-.006h.045c.159,0-.06-.012-.1-.02a11.979,11.979,0,0,1-2.12-.633q-.246-.1-.487-.208l-.084-.038c-.089-.047-.18-.088-.27-.134q-.5-.258-.978-.56t-.9-.623q-.225-.17-.443-.35l-.054-.045,0,.007-.006-.008-.046-.039c-.027-.023-.04-.04-.041-.048-.046-.037-.1-.072-.131-.1A13.1,13.1,0,0,1,232.4,53.7q-.163-.209-.318-.424c-.049-.068-.1-.136-.143-.2l-.083-.127q-.3-.474-.563-.973a11.866,11.866,0,0,1-.518-1.144q-.054-.139-.1-.279c-.013-.036-.05-.176-.013-.035s-.01-.034-.021-.067q-.1-.315-.187-.636a9.429,9.429,0,0,1-.252-1.291l0-.027c0-.033-.01-.119-.01-.137-.005-.127-.006-.254,0-.381,0-.026,0-.162.011-.263l.021-.081c.019-.074.037-.147.059-.22a1,1,0,1,0-1.913-.612,6.056,6.056,0,0,0,.029,3.037,12.73,12.73,0,0,0,.806,2.407,13.824,13.824,0,0,0,11.762,8.041,7.785,7.785,0,0,0,5.8-1.93,1,1,0,1,0-1.329-1.506ZM230.225,47.6l-.025.112c.005-.06.013-.108.025-.112Z" fill="#fff"/>
        </g>
        <path id="Path_1186" data-name="Path 1186" d="M234.137,55.52c-.055-.083-.09-.1-.089-.088a.47.47,0,0,1,.087.087Z" fill="#456184"/>
      </g>
      <g id="Group_291" data-name="Group 291" opacity="0.9">
        <path id="Path_1187" data-name="Path 1187" d="M248.869,55.3a1,1,0,1,0,.292,1.389A1.021,1.021,0,0,0,248.869,55.3Z" fill="#fff"/>
      </g>
      <path id="Path_1188" data-name="Path 1188" d="M257.416,34.033a.621.621,0,0,0-.539,1.119,8.988,8.988,0,0,1,4.9,9.084c-.105.788,1.114,1.028,1.22.233a10.264,10.264,0,0,0-5.583-10.436Z" fill="#456184"/>
      <path id="Path_1189" data-name="Path 1189" d="M259.93,31.228c-.676-.422-1.211.7-.539,1.119A13.013,13.013,0,0,1,265.3,44.558c-.087.789,1.132,1.03,1.22.233A14.309,14.309,0,0,0,259.93,31.228Z" fill="#456184"/>
      <path id="Path_1190" data-name="Path 1190" d="M216.445,45.746a7.588,7.588,0,0,0,2.2,7.681c.593.535,1.41-.4.817-.935a6.364,6.364,0,0,1-1.8-6.513C217.89,45.214,216.67,44.984,216.445,45.746Z" fill="#456184"/>
      <path id="Path_1191" data-name="Path 1191" d="M213.038,47.379a7.4,7.4,0,0,0,1.9,6.131c.54.588,1.352-.352.817-.935a6.064,6.064,0,0,1-1.5-4.963C214.374,46.825,213.155,46.585,213.038,47.379Z" fill="#456184"/>
    </g>
    <path id="Path_1192" data-name="Path 1192" d="M263.679,57.476a.5.5,0,0,0-.123,0c-.954.107-1.484,2.151-1.925,2.826q-1.171,1.793-2.381,3.561c-.388.57-.06.643.39.924l1.03.643,2.994,1.869,6.84,4.27a32.879,32.879,0,0,0,3.557,2.221,3.764,3.764,0,0,0,3.05-.246c1.773-.868,2.9-3.638,1.789-5.408a5.967,5.967,0,0,0-1.563-1.51q-4.567-3.423-9.385-6.494-1.171-.746-2.355-1.471C265.181,58.4,264.236,57.55,263.679,57.476Z" fill="#2f4156"/>
  </g>
</svg>
