<svg xmlns="http://www.w3.org/2000/svg" width="44.365" height="32.936" viewBox="0 0 44.365 32.936">
  <g id="Group_216" data-name="Group 216" transform="translate(-697.843 -278.349)">
    <path id="Path_989" data-name="Path 989" d="M719.887,282.047l-.477-2.272a1.188,1.188,0,0,0-2.2-.6A182.424,182.424,0,0,0,705,305.72c-.584,1.63,1.915,2.234,2.545.7,3.264-7.925,6.646-15.715,10.407-23.4C718.556,283.945,720.323,283.158,719.887,282.047Z" fill="#714f4e"/>
    <path id="Path_990" data-name="Path 990" d="M735.9,278.825c-5.684,9.7-10.143,20.533-14,31.08-.516,1.411,1.67,1.951,2.215.611,4.223-10.374,9.03-20.447,13.412-30.741C737.983,278.69,736.527,277.747,735.9,278.825Z" fill="#714f4e"/>
    <path id="Path_991" data-name="Path 991" d="M740.846,286.8c-11.686-1.088-23.607-1.465-35.341-1.727v.058a1.163,1.163,0,0,0,0,2.325c11.7,1.029,23.6,1.967,35.341,2.169C742.7,289.655,742.628,286.964,740.846,286.8Z" fill="#714f4e"/>
    <path id="Path_992" data-name="Path 992" d="M740.461,302.3c-4.641-3.473-12.067-3.355-17.582-4.212-7.978-1.239-15.986-2.237-24.015-3.082-1.385-.146-1.338,1.966,0,2.14q10.507,1.37,20.969,3.056c5.847.94,14.284,1.005,19.216,4.513C740.535,305.769,741.877,303.357,740.461,302.3Z" fill="#714f4e"/>
  </g>
</svg>
