<svg xmlns="http://www.w3.org/2000/svg" width="82.702" height="70.523" viewBox="0 0 82.702 70.523">
  <g id="Group_153" data-name="Group 153" transform="translate(-631.69 -947.408)">
    <g id="Group_149" data-name="Group 149">
      <path id="Path_768" data-name="Path 768" d="M661.608,959.428l-29.918-5.114,43.752,61.793Z" fill="#ffcb4f"/>
      <path id="Path_769" data-name="Path 769" d="M661.608,959.428l-29.918-5.114,21.444,12.576Z" fill="#faa74b"/>
      <path id="Path_770" data-name="Path 770" d="M653.134,966.89,631.69,954.314l43.752,61.793Z" fill="#f48245"/>
    </g>
    <g id="Group_150" data-name="Group 150">
      <path id="Path_771" data-name="Path 771" d="M687.2,947.408,677.2,1005.86l25.465-40.552Z" fill="#b3d239"/>
      <path id="Path_772" data-name="Path 772" d="M687.2,947.408l5.62,18,9.853-.1Z" fill="#d0de5f"/>
      <path id="Path_773" data-name="Path 773" d="M687.2,947.408,677.2,1005.86,692.816,965.4Z" fill="#92b73e"/>
    </g>
    <g id="Group_151" data-name="Group 151">
      <path id="Path_774" data-name="Path 774" d="M634.13,980.615l-2.03,20.962,39.362,16.354Z" fill="#ca2127"/>
      <path id="Path_775" data-name="Path 775" d="M634.13,980.615l-2.03,20.962,7.208-5Z" fill="#ef4546"/>
      <path id="Path_776" data-name="Path 776" d="M634.13,980.615l5.178,15.963,32.154,21.353Z" fill="#ee332f"/>
    </g>
    <g id="Group_152" data-name="Group 152">
      <path id="Path_777" data-name="Path 777" d="M712.384,977.272,678.4,1015.277l36-17.486Z" fill="#1d89ca"/>
      <path id="Path_778" data-name="Path 778" d="M712.384,977.272l-4.619,16.018,6.627,4.5Z" fill="#229fda"/>
      <path id="Path_779" data-name="Path 779" d="M678.4,1015.277l29.369-21.987,4.619-16.018Z" fill="#066bb3"/>
    </g>
  </g>
</svg>
