<svg xmlns="http://www.w3.org/2000/svg" width="45.709" height="48.588" viewBox="0 0 45.709 48.588">
  <g id="Group_227" data-name="Group 227" transform="translate(-33.589 -429.32)">
    <path id="Path_1042" data-name="Path 1042" d="M33.589,450.411a2.677,2.677,0,0,0,.477,1.314l2.431,4.192,32.692-19.994c.29-.177.608-.395.664-.73a1.2,1.2,0,0,0-.3-.829q-1.458-2.146-2.991-4.24a.953.953,0,0,0-1.579-.278L35.2,448.428C34.44,448.9,33.6,449.521,33.589,450.411Z" fill="#484849"/>
    <path id="Path_1043" data-name="Path 1043" d="M41.475,477.566l.088.321a3.836,3.836,0,0,0,1.244-.073l33.333-5.443c1.155-.189,2.491-.509,2.969-1.578a3.515,3.515,0,0,0,.108-1.888A93.573,93.573,0,0,0,74.41,449.12a2.1,2.1,0,0,0-3-1.775q-14.124,3.56-28.172,7.414c-1.33.365-4.987.677-5.7,1.9-.661,1.138.638,5.294.846,6.6a136.372,136.372,0,0,0,3.092,14.308Z" fill="#484849"/>
    <path id="Path_1044" data-name="Path 1044" d="M36.484,456.161l3.242-1.8a5.849,5.849,0,0,0,1.518-1.07,5.849,5.849,0,0,0,.938-1.6l4.844-10.733a45.186,45.186,0,0,0-6.135,3.512,3.005,3.005,0,0,0-.609.5,3.308,3.308,0,0,0-.524,1.056,49.655,49.655,0,0,1-2.965,6.3,6.681,6.681,0,0,0-.775,1.906,2.244,2.244,0,0,0,.467,1.935Z" fill="#e1e1e1"/>
    <path id="Path_1045" data-name="Path 1045" d="M49.9,447.981a12.008,12.008,0,0,0,2.189-1.478A12.06,12.06,0,0,0,54.761,442l3.211-7.838a29.236,29.236,0,0,0-3.937,2.12,9.148,9.148,0,0,0-1.786,1.4,10.3,10.3,0,0,0-1.482,2.267,99.716,99.716,0,0,0-4.688,10.221Z" fill="#e1e1e1"/>
    <path id="Path_1046" data-name="Path 1046" d="M64.2,438.323a27.937,27.937,0,0,0,2.848-6.123c.25-.948.252-2.158-.579-2.679a1.8,1.8,0,0,0-1.941.185,5.065,5.065,0,0,0-1.295,1.593,80.484,80.484,0,0,0-5.981,12.151C59.828,442.109,62.5,440.685,64.2,438.323Z" fill="#e1e1e1"/>
    <path id="Path_1047" data-name="Path 1047" d="M44.622,459.683l3.331-.547a4.738,4.738,0,0,0,2.264-.786,58.23,58.23,0,0,0-4.848-3.328,3.682,3.682,0,0,0-.842-.42,3.822,3.822,0,0,0-1.889.079L41,455.029a5.079,5.079,0,0,0-3.008,1.391l5.19,3.01a1.649,1.649,0,0,0,1.439.253Z" fill="#e1e1e1"/>
    <path id="Path_1048" data-name="Path 1048" d="M53.794,451.679q-2.151.636-4.235,1.474l6.23,3.227a4.271,4.271,0,0,0,.843.363,3.781,3.781,0,0,0,1.318.055,16.062,16.062,0,0,0,5.232-1.386l-3.8-2.617a6.986,6.986,0,0,0-3.234-1.484,6.481,6.481,0,0,0-2.351.368Z" fill="#e1e1e1"/>
    <path id="Path_1049" data-name="Path 1049" d="M71.152,454.281l3.015-.394c.082-.352-.291-.627-.61-.794l-5.875-3.081a9.826,9.826,0,0,0-1.725-.768,5,5,0,0,0-4.5.889,19.878,19.878,0,0,1,3.359,2.294,11.186,11.186,0,0,0,1.662,1.421C67.848,454.669,69.57,454.488,71.152,454.281Z" fill="#e1e1e1"/>
    <path id="Path_1050" data-name="Path 1050" d="M67.547,458.552a162.369,162.369,0,0,0-23.367,5.2,2.241,2.241,0,0,0,.106,1.31c8.148-1.991,16.774-2.051,24.61-5.042a5.937,5.937,0,0,1-1.348-1.471Z" fill="#a0cabd" opacity="0.55"/>
    <path id="Path_1051" data-name="Path 1051" d="M45.3,468.649a.5.5,0,0,0,.635.347q8.677-.986,17.29-2.462l-1.066-1.084a1.009,1.009,0,0,0-.4-.29,1.029,1.029,0,0,0-.509.023c-5.445,1.161-11.225.567-16.5,2.343Z" fill="#a0cabd" opacity="0.55"/>
  </g>
</svg>
