<svg xmlns="http://www.w3.org/2000/svg" width="181.024" height="122.827" viewBox="0 0 181.024 122.827">
  <g id="Group_2167" data-name="Group 2167" transform="translate(-18.488 -1372.356)">
    <path id="Path_9673" data-name="Path 9673" d="M109,1495.183c-23.348,0-57.29-15.617-61.108-17.409v-1.606a8.519,8.519,0,0,0-8.3-8.506c-12.823-9.348-21.1-29.085-21.1-50.359,0-17.452,15.287-27.909,28.111-33.609,16.45-7.311,38.612-11.338,62.4-11.338s45.95,4.026,62.4,11.338c12.824,5.7,28.111,16.157,28.111,33.609,0,21.274-8.276,41.012-21.1,50.359a8.518,8.518,0,0,0-8.3,8.506v1.606C166.29,1479.566,132.344,1495.183,109,1495.183Z" fill="#1f1f1f"/>
    <path id="Path_9674" data-name="Path 9674" d="M109,1495.183c-23.348,0-57.29-15.617-61.108-17.409v-1.606a8.519,8.519,0,0,0-8.3-8.506c-12.823-9.348-21.1-29.085-21.1-50.359,0-17.452,15.287-27.909,28.111-33.609,16.45-7.311,38.612-11.338,62.4-11.338s45.95,4.026,62.4,11.338c12.824,5.7,28.111,16.157,28.111,33.609,0,21.274-8.276,41.012-21.1,50.359a8.518,8.518,0,0,0-8.3,8.506v1.606C166.29,1479.566,132.344,1495.183,109,1495.183Z" fill="#1f1f1f"/>
    <path id="Path_9675" data-name="Path 9675" d="M109,1488.183c-14.914,0-37.646-7.668-53.948-14.845l-.456-.2-.115-.484A15.656,15.656,0,0,0,42.591,1461l-.244-.052-.19-.161c-10.126-8.529-16.669-25.6-16.669-43.482,0-13.691,13.027-22.355,23.955-27.212,15.574-6.922,36.725-10.734,59.558-10.734s43.984,3.813,59.558,10.734c10.927,4.858,23.954,13.521,23.954,27.212,0,17.885-6.542,34.953-16.668,43.482l-.19.161-.244.052a15.656,15.656,0,0,0-11.892,11.656l-.115.484-.456.2C146.646,1480.515,123.914,1488.183,109,1488.183ZM56.305,1471.7c16.08,7.037,38.226,14.479,52.695,14.479s36.614-7.441,52.695-14.479a17.675,17.675,0,0,1,13.046-12.607c9.587-8.218,15.771-24.586,15.771-41.795,0-12.617-12.38-20.769-22.766-25.384-15.324-6.812-36.187-10.562-58.746-10.562s-43.422,3.751-58.746,10.563c-10.386,4.615-22.767,12.767-22.767,25.384,0,17.209,6.184,33.577,15.772,41.795A17.672,17.672,0,0,1,56.305,1471.7Z" fill="#fff"/>
    <path id="Path_9676" data-name="Path 9676" d="M109,1492.683c-20.358,0-49.359-12.342-57.763-16.124l-.81-.364-.07-.886a11.093,11.093,0,0,0-9.485-10.048l-.4-.056-.318-.25c-11.643-9.12-19.166-27.825-19.166-47.653,0-16.106,14.48-25.924,26.626-31.324,16.138-7.172,37.939-11.122,61.386-11.122s45.247,3.95,61.386,11.122c12.146,5.4,26.626,15.217,26.626,31.324,0,19.828-7.523,38.533-19.165,47.653l-.318.25-.4.056a11.093,11.093,0,0,0-9.485,10.048l-.07.886-.81.364C158.359,1480.341,129.358,1492.683,109,1492.683Zm-55.753-18.512c9.151,4.073,36.572,15.512,55.753,15.512s46.6-11.438,55.753-15.512a14.127,14.127,0,0,1,11.548-11.818c10.771-8.662,17.711-26.286,17.711-45.051,0-14.5-13.511-23.544-24.845-28.582-15.763-7.006-37.13-10.864-60.167-10.864s-44.4,3.858-60.167,10.864c-11.334,5.038-24.845,14.087-24.845,28.582,0,18.765,6.941,36.389,17.712,45.051a14.126,14.126,0,0,1,11.547,11.818Z" fill="#fff"/>
  </g>
</svg>
