<svg xmlns="http://www.w3.org/2000/svg" width="65.15" height="67.152" viewBox="0 0 65.15 67.152">
  <g id="Group_419" data-name="Group 419" transform="translate(-971.851 -11.84)">
    <g id="Group_418" data-name="Group 418">
      <path id="Path_1684" data-name="Path 1684" d="M987.9,46.939l-1.573-.351,1.573.352h0l-1.573-.351,1.573.352.034-.152c.08-.348.3-1.269.616-2.462s.738-2.658,1.219-4.086c.275-.819.57-1.626.873-2.355.151-.365.3-.71.456-1.027s.3-.6.446-.852a8.527,8.527,0,0,1,1.638-2,9.228,9.228,0,0,1,1.668-1.207,8.533,8.533,0,0,1,1.407-.636,7.38,7.38,0,0,1,2.232-.411,6.645,6.645,0,0,1,2.288.347q.107.036.211.075h0a21.449,21.449,0,0,1,3.091,1.419,13.073,13.073,0,0,1,1.841,1.248,8.391,8.391,0,0,1,1.035,1,6.007,6.007,0,0,1,.564.766,4.512,4.512,0,0,1,.517,1.165,4.121,4.121,0,0,1,.146,1.257,21.469,21.469,0,0,1-.219,2.472,20.6,20.6,0,0,1-.637,2.795c-.128.44-.265.888-.4,1.365s-.279.982-.409,1.532a2.024,2.024,0,1,0,3.938.933c.144-.61.31-1.181.488-1.779.133-.448.273-.911.411-1.409a23.817,23.817,0,0,0,.564-2.514,25.113,25.113,0,0,0,.312-3.253,8.158,8.158,0,0,0-.684-3.584,9.512,9.512,0,0,0-1.56-2.429,12.585,12.585,0,0,0-1.574-1.507,17.8,17.8,0,0,0-2.812-1.84,26.267,26.267,0,0,0-3.194-1.427h0q-.172-.064-.34-.12a10.7,10.7,0,0,0-2.186-.489,11,11,0,0,0-3.7.21,12.138,12.138,0,0,0-2.532.884,13.193,13.193,0,0,0-3.23,2.185,12.547,12.547,0,0,0-2.371,2.926c-.209.36-.405.738-.595,1.133-.284.592-.55,1.219-.8,1.866s-.49,1.312-.714,1.977c-.6,1.771-1.087,3.535-1.433,4.866s-.546,2.225-.55,2.242a2.024,2.024,0,1,0,3.95.881Z" fill="#5e625e"/>
      <path id="Path_1685" data-name="Path 1685" d="M1002.173,51.889s-12.644-4.729-15.734-5.856-5.766-2.348-6.74-1-3.956,9.225-5.318,13.667-2.347,7.31-2.393,7.753a1.526,1.526,0,0,0,.709,2c1.229.871,13.44,5.45,17.79,6.8s12.865,4.9,14.075,3.351,6.887-17.9,7.726-20.218-.89-3.2-1.761-3.568S1002.173,51.889,1002.173,51.889Z" fill="#6d9dbf"/>
      <path id="Path_1686" data-name="Path 1686" d="M990.966,61.6s-1.008-2.293,1.03-3.063a1.581,1.581,0,0,1,2.271,1.918,5.164,5.164,0,0,1-1.277,1.827s-.341,1.721-.4,2.236.37,1.429-.119,1.265-3.508-1-3.223-1.439S990.966,61.6,990.966,61.6Z" fill="#fff"/>
    </g>
    <path id="Path_1687" data-name="Path 1687" d="M1019.8,12.015a1.023,1.023,0,0,0-1.081.665q-2.051,4.514-4.024,9.063a1.335,1.335,0,0,0,2.3,1.347l.013.008q1.993-4.546,3.943-9.11a1.36,1.36,0,0,0,.1-.7l.05-.114C1021.5,12.279,1020.4,11.473,1019.8,12.015Z" fill="#999"/>
    <path id="Path_1688" data-name="Path 1688" d="M1031.449,24.274q-4.246,2.567-8.536,5.055c-1.674.975-.13,3.622,1.518,2.6q4.215-2.62,8.464-5.177a1.434,1.434,0,0,0-1.447-2.475Z" fill="#999"/>
    <path id="Path_1689" data-name="Path 1689" d="M1035.586,39.265a39.731,39.731,0,0,0-9.841.669,1.312,1.312,0,0,0-.994.71l-.188.03c-.842.141-.587,1.391.193,1.428h.023a1.527,1.527,0,0,0,1.813.9,28.655,28.655,0,0,1,4.458-.722c1.51.01,3.022-.006,4.536-.078a1.472,1.472,0,0,0,0-2.942Z" fill="#999"/>
  </g>
</svg>
