<svg xmlns="http://www.w3.org/2000/svg" width="67.024" height="20.701" viewBox="0 0 67.024 20.701">
  <g id="Group_342" data-name="Group 342" transform="translate(-212.649 -284.467)">
    <path id="Path_1362" data-name="Path 1362" d="M278.43,300.47a1.741,1.741,0,0,0,.609-1.135,24.626,24.626,0,0,0,.458-8.488,2,2,0,0,0-.576-1.394,2.065,2.065,0,0,0-1.23-.3q-5.979-.193-11.962-.186a71.847,71.847,0,0,0-.529,11.7,107.586,107.586,0,0,0,12.356.012,1.775,1.775,0,0,0,.874-.2Z" fill="#c3d2d8"/>
    <path id="Path_1363" data-name="Path 1363" d="M270.242,293.543l5.582.116-.02-1.554-5.378.07Z" opacity="0.35"/>
    <path id="Path_1364" data-name="Path 1364" d="M270.3,297.876l5.582.116q-.01-.777-.02-1.554l-5.378.07Z" opacity="0.35"/>
    <path id="Path_1365" data-name="Path 1365" d="M270.722,285.836q-11.923-.729-23.884-.97c-9.311-.189-26.256-2.331-32.281,5.651a8.7,8.7,0,0,0-1.533,7.968c2.58,7.521,17.893,6.274,24.795,6.592,2.931.135,33.155.228,33.144-.577Z" fill="#6d9dbf"/>
    <path id="Path_1366" data-name="Path 1366" d="M260.112,290.244q-7.238-.353-14.5-.459c-5.653-.083-15.938-1.144-19.607,2.9a3.843,3.843,0,0,0-.941,4.031c1.556,3.8,10.855,3.148,15.046,3.3,1.78.065,20.13.072,20.125-.335Z" opacity="0.15"/>
  </g>
</svg>
