<svg xmlns="http://www.w3.org/2000/svg" width="62.839" height="39.891" viewBox="0 0 62.839 39.891">
  <g id="Group_367" data-name="Group 367" transform="translate(-783.111 -356.694)">
    <path id="Path_1442" data-name="Path 1442" d="M825.324,393.722l-8.613.406v-3.736H814.4v3.845l-8,.377-.913,1.971h21.27Z" fill="#43484c"/>
    <g id="Group_366" data-name="Group 366">
      <path id="Path_1443" data-name="Path 1443" d="M783.609,358.18s.345,22.019.532,25.15,0,7.806,0,7.806l61.3-.65s-.839-23.94-.932-26.314,0-6.981,0-6.981Z" fill="#505659"/>
      <path id="Path_1444" data-name="Path 1444" d="M783.631,391.631l.021-.514c0-.047.184-4.686,0-7.757-.186-3.107-.519-24.272-.534-25.172l-.008-.489,61.9-1-.01.507c0,.046-.091,4.621,0,6.953.092,2.347.924,26.076.932,26.316l.018.5Zm.474-32.97c.052,3.265.355,21.814.524,24.64.15,2.509.06,6.033.018,7.34L844.937,390c-.121-3.46-.83-23.656-.914-25.811-.074-1.895-.03-5.235-.009-6.5Z" fill="#43484c"/>
    </g>
  </g>
</svg>
