<svg xmlns="http://www.w3.org/2000/svg" width="37.084" height="22.614" viewBox="0 0 37.084 22.614">
  <g id="Group_471" data-name="Group 471" transform="translate(-146.412 -626.187)">
    <g id="Group_469" data-name="Group 469" opacity="0.49">
      <path id="Path_1608" data-name="Path 1608" d="M174.337,632.826l0,.006a9.526,9.526,0,0,0-13.35-.085c-.194.2-.377.4-.551.612a5.59,5.59,0,0,0-10.5.607l-3.518,1.833,3.736,1.946a5.589,5.589,0,0,0,8.261,2.441,9.932,9.932,0,0,0,2.786,5.91l0,0a.8.8,0,0,1,.072.07c.019.017.037.038.056.057l0,0a9.341,9.341,0,0,0,10.306,1.74h0c3.543-.831,10.324-7.594,10.324-7.594Z" fill="#84bae5"/>
    </g>
    <g id="Group_470" data-name="Group 470" opacity="0.49">
      <path id="Path_1609" data-name="Path 1609" d="M172.879,626.887l0,.008a8.817,8.817,0,1,0-3.27,17.323v0l.093.015c.026.006.049.011.075.015v0a8.816,8.816,0,0,0,8.986-4.085h0c2.335-2.52,4.07-11.4,4.07-11.4Z" fill="#35a8e0"/>
      <path id="Path_1610" data-name="Path 1610" d="M171.251,644.939a9.521,9.521,0,0,1-1.087-.064l-.007.021-.487-.087c-.023,0-.044-.01-.066-.013l-.023,0-.081-.013-.515-.1,0-.026a9.376,9.376,0,0,1,3.43-18.4l.006-.026.56.1,10.513,1.984-.109.561c-.071.365-1.779,8.992-4.179,11.637A9.437,9.437,0,0,1,171.251,644.939Zm-1.414-1.255.032.008a8.7,8.7,0,0,0,1.382.115,8.3,8.3,0,0,0,7.026-3.94l.235-.383.063.023c1.769-2.313,3.18-8.41,3.585-10.292l-9.378-1.765a8.967,8.967,0,0,0-1.521-.13,8.361,8.361,0,0,0-8.318,6.668,8.472,8.472,0,0,0,6.778,9.674Z" fill="#fff"/>
    </g>
  </g>
</svg>
