<svg xmlns="http://www.w3.org/2000/svg" width="115.973" height="99.987" viewBox="0 0 115.973 99.987">
  <g id="Group_2218" data-name="Group 2218" transform="translate(-1492.634 -1517.199)">
    <path id="Path_10207" data-name="Path 10207" d="M1537.749,1608.228c-4.443,11.058-36.116,3.43-43.79-6.335-3.683-4.688.787-14.208,7.556-21.121,1.321,2.823,5,6.425,6.646,8.642-.886.591-2,4.2-1.329,6.35,2.067,6.645,20.06,11.7,20.969,4.725.886-6.793,2.658-11.37,7.387-12.043a14.308,14.308,0,0,1,4.063,1.294,9.865,9.865,0,0,0-3.158,5.737C1535.161,1601.477,1539.821,1603.069,1537.749,1608.228Z" fill="#1f1f1f"/>
    <path id="Path_10208" data-name="Path 10208" d="M1563.492,1608.228c4.443,11.058,36.116,3.43,43.79-6.335,3.683-4.688-.787-14.208-7.556-21.121-1.321,2.823-5,6.425-6.646,8.642.886.591,2,4.2,1.329,6.35-2.067,6.645-20.06,11.7-20.969,4.725-.886-6.793-2.658-11.37-7.387-12.043a14.3,14.3,0,0,0-4.063,1.294,9.864,9.864,0,0,1,3.158,5.737C1566.08,1601.477,1561.419,1603.069,1563.492,1608.228Z" fill="#1f1f1f"/>
    <path id="Path_10209" data-name="Path 10209" d="M1550.617,1532.312c-5.222,0-13.04,7.773-14.588,14.85a59.083,59.083,0,0,0-11.348-3.457c3.565-15.719,20.117-26.506,25.836-26.506h.2c5.719,0,22.271,10.787,25.836,26.506a59.1,59.1,0,0,0-11.348,3.457c-1.547-7.077-9.366-14.85-14.588-14.85Z" fill="#1f1f1f"/>
    <path id="Path_10210" data-name="Path 10210" d="M1550.492,1588.6a13.393,13.393,0,0,1-3.656-.46,10.065,10.065,0,0,1-2.06-.828,13.218,13.218,0,0,1-2.06-1.369c-.147-.126-.306-.253-.441-.368a6.756,6.756,0,0,1,1.324-7.258,9.8,9.8,0,0,1,6.892-2.783h.256a9.8,9.8,0,0,1,6.892,2.784,6.756,6.756,0,0,1,1.324,7.258c-.136.115-.294.242-.441.368a13.194,13.194,0,0,1-2.06,1.369,10.064,10.064,0,0,1-2.06.828,13.4,13.4,0,0,1-3.656.46Z" fill="#1f1f1f"/>
    <path id="Path_10211" data-name="Path 10211" d="M1550.555,1585.38a7.153,7.153,0,0,1-1.855-.221,5.268,5.268,0,0,1-1.046-.4,6.75,6.75,0,0,1-1.046-.657c-.075-.061-.155-.122-.224-.177a3.118,3.118,0,0,1,.672-3.486,5.123,5.123,0,0,1,3.5-1.337h.13a5.123,5.123,0,0,1,3.5,1.337,3.118,3.118,0,0,1,.672,3.486c-.069.055-.149.116-.224.177a6.761,6.761,0,0,1-1.046.657,5.269,5.269,0,0,1-1.046.4,7.16,7.16,0,0,1-1.855.221Z" fill="#1f1f1f"/>
    <path id="Path_10212" data-name="Path 10212" d="M1539.472,1589.525a2.614,2.614,0,0,0-.217.2c.08.036.167.08.246.123C1539.494,1589.735,1539.479,1589.626,1539.472,1589.525Z" fill="#1f1f1f"/>
    <path id="Path_10213" data-name="Path 10213" d="M1561.769,1589.525a2.636,2.636,0,0,1,.217.2c-.08.036-.166.08-.246.123C1561.747,1589.735,1561.762,1589.626,1561.769,1589.525Z" fill="#1f1f1f"/>
    <path id="Path_10214" data-name="Path 10214" d="M1543.64,1574.527c.724-7.493,6.588-7.828,5.737-14.705-.642-5.24-6.145-9.62-13.348-12.66a59.091,59.091,0,0,0-11.348-3.457c-10.814-2.181-21.936-1.6-25.981,2.869-5.113,5.656-2.932,21.918,2.814,34.2a44.612,44.612,0,0,0,4.47,7.647c3.221,4.325,6.968,7.185,10.932,7.276,6.923.163,6.67-5.71,14.054-7.176a11.835,11.835,0,0,1,4.217-.072,14.308,14.308,0,0,1,4.063,1.294,3.281,3.281,0,0,1,.271-.245c-.072-.9-.109-1.7-.1-2.389v-.018c.018-1.656.308-2.651.905-2.651.1,0,.2,0,.3.009a6.035,6.035,0,0,1,3.321,1.774,5.252,5.252,0,0,1,1.059-5.71,11.66,11.66,0,0,1-1.366-5.982Zm-5.783,7.041c-2.181-.48-4.651.045-7.194.869-4.344,1.412-8.9,3.71-12.57,3.375-1.765-.163-3.864-2.19-5.746-5.158a34.726,34.726,0,0,1-2.987-5.946c-2.552-6.534-3.484-14.271.1-18.28s11.384-4.018,18.2-2.3c6.208,1.566,11.592,4.57,12.172,7.321.9,4.371-1.873,10.452-2.353,15.637a10.738,10.738,0,0,0,.38,4.48Z" fill="#1f1f1f"/>
    <path id="Path_10215" data-name="Path 10215" d="M1557.6,1574.527c-.724-7.493-6.588-7.828-5.737-14.705.643-5.24,6.145-9.62,13.348-12.66a59.1,59.1,0,0,1,11.348-3.457c10.814-2.181,21.936-1.6,25.981,2.868,5.113,5.656,2.932,21.918-2.814,34.2a44.621,44.621,0,0,1-4.47,7.647c-3.221,4.326-6.968,7.185-10.932,7.276-6.923.163-6.669-5.71-14.054-7.176a11.839,11.839,0,0,0-4.217-.072,14.31,14.31,0,0,0-4.063,1.294,3.277,3.277,0,0,0-.271-.244c.072-.9.109-1.7.1-2.389v-.018c-.018-1.656-.308-2.651-.9-2.651-.1,0-.2,0-.3.009a6.034,6.034,0,0,0-3.321,1.774,5.252,5.252,0,0,0-1.059-5.71A11.656,11.656,0,0,0,1557.6,1574.527Zm5.782,7.041c2.181-.48,4.651.045,7.194.869,4.344,1.412,8.9,3.71,12.57,3.375,1.765-.163,3.864-2.19,5.746-5.158a34.724,34.724,0,0,0,2.986-5.946c2.552-6.534,3.484-14.271-.1-18.28s-11.384-4.018-18.2-2.3c-6.208,1.566-11.592,4.57-12.172,7.321-.905,4.371,1.873,10.452,2.353,15.637A10.736,10.736,0,0,1,1563.383,1581.568Z" fill="#1f1f1f"/>
    <path id="Path_10216" data-name="Path 10216" d="M1550.518,1617.186c-4.932,0-10.045-17.981-10.959-27.293-.009-.136-.027-.271-.036-.4-.072-.9-.109-1.7-.1-2.389v-.018c.018-1.656.308-2.651.905-2.651.1,0,.2,0,.3.009a6.034,6.034,0,0,1,3.321,1.774c.109.091.235.19.353.29a10.574,10.574,0,0,0,1.647,1.077,6,6,0,0,0-.308.806,11.384,11.384,0,0,0-.4,2.869c-.018.615,0,1.258.045,1.918a30.754,30.754,0,0,0,.389,3.059c.009.009.009.009.009.018,1,5.538,3.448,11.067,4.932,10.7h.006c1.484.371,3.936-5.158,4.932-10.7,0-.009,0-.009.009-.018a30.716,30.716,0,0,0,.389-3.059c.045-.661.063-1.3.045-1.918a11.373,11.373,0,0,0-.4-2.869,5.979,5.979,0,0,0-.308-.805,10.576,10.576,0,0,0,1.647-1.077c.118-.1.244-.2.353-.29a6.034,6.034,0,0,1,3.321-1.774c.1-.009.2-.009.3-.009.6,0,.887,1,.9,2.651v.018c.009.688-.027,1.493-.1,2.389-.009.127-.027.262-.036.4-.914,9.312-6.027,27.293-10.959,27.293Z" fill="#1f1f1f"/>
    <path id="Path_10217" data-name="Path 10217" d="M1516.669,1563.021l21.184,21.571,2.743-3.928Z" fill="#1f1f1f"/>
    <path id="Path_10218" data-name="Path 10218" d="M1584.572,1563.021l-21.184,21.571-2.744-3.928Z" fill="#1f1f1f"/>
    <path id="Path_10219" data-name="Path 10219" d="M1550.62,1533.968l-1.545,42.394h3.09Z" fill="#1f1f1f"/>
  </g>
</svg>
