<svg xmlns="http://www.w3.org/2000/svg" width="251.578" height="60.139" viewBox="0 0 251.578 60.139">
  <g id="Group_2182" data-name="Group 2182" transform="translate(-1724.032 -1854.651)">
    <path id="Path_9712" data-name="Path 9712" d="M1745.64,1892.84a1.858,1.858,0,0,1,0,2.78l-21.608,19.169h64.821l-30.36-15.507c-.021-.011-.036-.028-.057-.04a1.861,1.861,0,0,1-.31-.217c-.023-.02-.049-.037-.071-.058a1.871,1.871,0,0,1-.283-.346c-.018-.028-.031-.058-.048-.088a1.833,1.833,0,0,1-.146-.332c-.013-.039-.026-.076-.036-.115a1.846,1.846,0,0,1-.064-.459v-23.955h-33.448Z" fill="#1f1f1f"/>
    <path id="Path_9713" data-name="Path 9713" d="M1942.1,1898.086c-.01.039-.023.077-.036.115a1.823,1.823,0,0,1-.146.332c-.017.029-.03.059-.048.088a1.88,1.88,0,0,1-.283.346c-.022.021-.047.038-.07.058a1.868,1.868,0,0,1-.31.217c-.021.011-.036.029-.057.04l-30.36,15.507h64.821L1954,1895.621a1.858,1.858,0,0,1,0-2.78l21.608-19.168h-33.448v23.955a1.84,1.84,0,0,1-.064.458Z" fill="#1f1f1f"/>
    <path id="Path_9714" data-name="Path 9714" d="M1794.718,1899.485h-27.657l27.657,14.127Z" fill="#1f1f1f"/>
    <path id="Path_9715" data-name="Path 9715" d="M1904.923,1913.612l27.657-14.127h-27.657Z" fill="#1f1f1f"/>
    <path id="Path_9716" data-name="Path 9716" d="M1938.445,1895.768v-41.117H1761.2v41.117Z" fill="#1f1f1f"/>
  </g>
</svg>
