<svg xmlns="http://www.w3.org/2000/svg" width="53.025" height="56.261" viewBox="0 0 53.025 56.261">
  <path id="Path_290" data-name="Path 290" d="M373.023,69.608a60.167,60.167,0,0,1,6.471-20.795c2.847-5.41,6.868-11.191,12.866-13.373,5.343-1.944,11.737-1.065,14.7,4.253a13.593,13.593,0,0,1-1.376,14.661c-3.229,4.248-9.142,7.536-14.531,7.562-1.751.008-4.234-.352-5.038-2.04-1.249-2.622,1.795-5.014,3.9-5.81a28.908,28.908,0,0,1,4.977-1.219c1.988-.369,3.982-.746,6-.949,3.314-.335,6.834-.343,9.946,1.006a10.2,10.2,0,0,1,5.747,5.6c.94,2.711.059,5.437-1.487,7.73a24.288,24.288,0,0,1-7.778,6.791,58.812,58.812,0,0,1-10.764,5.134,60.962,60.962,0,0,1-23.184,3.475c-2.9-.129-2.889,4.372,0,4.5a64.473,64.473,0,0,0,24.38-3.635,64.868,64.868,0,0,0,11.283-5.255,31.563,31.563,0,0,0,8.917-7.345c2.45-3.11,3.966-6.832,3.372-10.837a13.2,13.2,0,0,0-5.845-8.7c-7.036-4.9-16.727-3.159-24.506-1.3-3.967.949-7.693,3.01-9.2,7a7.306,7.306,0,0,0,3.263,8.946c5.91,3.36,14.119.4,19.18-3.24,5.84-4.2,9.579-10.814,8.633-18.132a16.422,16.422,0,0,0-4.075-9.079,14.959,14.959,0,0,0-9.756-4.546c-8.066-.748-15.02,4.2-19.651,10.358a58.7,58.7,0,0,0-9.9,22.832c-.45,2.116-.776,4.254-1.032,6.4a2.263,2.263,0,0,0,2.25,2.25,2.3,2.3,0,0,0,2.25-2.25Z" transform="translate(-368.522 -29.939)" fill="#bc4e4f"/>
</svg>
