<svg xmlns="http://www.w3.org/2000/svg" width="36.472" height="30.727" viewBox="0 0 36.472 30.727">
  <g id="Group_66" data-name="Group 66" transform="translate(-146.461 -185.554)">
    <g id="Group_63" data-name="Group 63">
      <path id="Path_210" data-name="Path 210" d="M182.845,200.917a15.364,15.364,0,1,1-15.364-15.363,15.364,15.364,0,0,1,15.364,15.363Z" fill="#009ee2"/>
      <path id="Path_211" data-name="Path 211" d="M153.212,204.5a5.61,5.61,0,0,1,1.854-.158c1.454.059,2.827.4,4.314.558a9.284,9.284,0,0,0,2.458-.07,19.207,19.207,0,0,0,2.637-.82,5.913,5.913,0,0,1,2.3-.242,10.631,10.631,0,0,1,2.173.518,22.226,22.226,0,0,0,4.113,1.022,16.348,16.348,0,0,0,4.283-.164c.4-.061,2.968-.177,5.077-.292a15.364,15.364,0,1,0-29.743-.133A2.568,2.568,0,0,1,153.212,204.5Z" fill="#67c6ed"/>
      <g id="Group_62" data-name="Group 62">
        <path id="Path_212" data-name="Path 212" d="M180.291,202.768c0,.124-.211.234-.483.247l-2.184.089c-.271.012-.494-.08-.5-.205h0c0-.124.211-.233.483-.245l2.183-.089c.273-.011.5.08.5.2Z" fill="#2b2523"/>
        <path id="Path_213" data-name="Path 213" d="M155.885,202.307H177.29a.491.491,0,0,1,.491.491v1.8a.49.49,0,0,1-.49.49H155.885a.491.491,0,0,1-.491-.491v-1.8A.491.491,0,0,1,155.885,202.307Z" fill="#2b2523"/>
        <path id="Path_214" data-name="Path 214" d="M177.782,201.949a.328.328,0,0,1-.347.3l-7-.451a.324.324,0,0,1-.3-.344h0a.323.323,0,0,1,.345-.3l7,.449a.327.327,0,0,1,.3.347Z" fill="#2b2523"/>
        <path id="Path_215" data-name="Path 215" d="M173.077,199.2h1.472a.491.491,0,0,1,.491.491v.736a.491.491,0,0,1-.491.491h-1.473a.491.491,0,0,1-.491-.491v-.735a.492.492,0,0,1,.492-.492Z" fill="#2b2523"/>
        <path id="Path_216" data-name="Path 216" d="M160.919,201.7" fill="#e9e453"/>
        <path id="Path_217" data-name="Path 217" d="M171.192,202.3a.519.519,0,0,1-.49.544h-9.659a.52.52,0,0,1-.491-.544v-.992a.519.519,0,0,1,.491-.542H170.7a.519.519,0,0,1,.49.542Z" fill="#2b2523"/>
        <path id="Path_218" data-name="Path 218" d="M160.246,200.888l6-.41,4.026-.614h2.742a2.45,2.45,0,0,1,1.924-.532c1.432.041-.45-.369-.45-.369h-.942l-.162-.246-5.524.41Z" fill="#9a999a"/>
        <g id="Group_56" data-name="Group 56">
          <path id="Path_219" data-name="Path 219" d="M169.92,198.917l2.314-2.605h.867v.8l-.613,1.809Z" fill="#e0e0e1"/>
          <path id="Path_220" data-name="Path 220" d="M169.92,198.934h.758l1.991-2.639h-.47a26.644,26.644,0,0,0-2.279,2.639Z" fill="#fff"/>
          <path id="Path_221" data-name="Path 221" d="M171.4,197.236l-.253-5.147.11.219.614,4.338Z" fill="#fff"/>
          <path id="Path_222" data-name="Path 222" d="M169.92,198.917l.541-.8.253-5.788s-.18-.108-.217,0-.577,6.4-.577,6.4" fill="#e0e0e1"/>
          <path id="Path_223" data-name="Path 223" d="M171.476,197.228l-.217-4.92s-.289-.941-.833,0-.505,6.439-.505,6.439.612-6.475.777-6.511.172-.321.38.181a41.522,41.522,0,0,1,.181,4.848Z" fill="#fff"/>
          <path id="Path_224" data-name="Path 224" d="M171.619,196.9l.471-.444-.941-4.371h-.157Z" fill="#e0e0e1"/>
          <rect id="Rectangle_74" data-name="Rectangle 74" width="3.34" height="0.226" transform="translate(167.88 196.312)" fill="#e0e0e1"/>
          <path id="Path_225" data-name="Path 225" d="M172.961,197.876l.941-.333h.752l-.847.65h-1.822Z" fill="#fff"/>
          <path id="Path_226" data-name="Path 226" d="M171.768,198.193l.977-.225.831-.425h.29l-.9.65-1.193.145Z" fill="#c3c1c3"/>
          <path id="Path_227" data-name="Path 227" d="M173.518,198.208l-.94.181v.215l-.761-.2S171.781,197.809,173.518,198.208Z" fill="#c3c1c3"/>
          <rect id="Rectangle_75" data-name="Rectangle 75" width="3.341" height="0.227" transform="translate(168.427 194.87)" fill="#e0e0e1"/>
          <path id="Path_228" data-name="Path 228" d="M171.185,194.818l.72.165,3.114-.531" fill="#fff"/>
          <path id="Path_229" data-name="Path 229" d="M171.185,194.818l.253-.366,3.292-.111.289.111Z" fill="#e0e0e1"/>
        </g>
        <g id="Group_57" data-name="Group 57">
          <path id="Path_230" data-name="Path 230" d="M160.328,203.344a.238.238,0,0,1-.261.205h-1.789a.238.238,0,0,1-.261-.205v-1.336a.238.238,0,0,1,.261-.2h1.789a.237.237,0,0,1,.261.2Z" fill="#534948"/>
          <path id="Path_231" data-name="Path 231" d="M162.809,203.344a.238.238,0,0,1-.261.205h-1.79a.239.239,0,0,1-.261-.205v-1.336a.238.238,0,0,1,.261-.2h1.79a.238.238,0,0,1,.261.2Z" fill="#534948"/>
          <path id="Path_232" data-name="Path 232" d="M165.335,203.344a.237.237,0,0,1-.26.205h-1.79a.238.238,0,0,1-.261-.205v-1.336a.238.238,0,0,1,.261-.2h1.79a.236.236,0,0,1,.26.2Z" fill="#534948"/>
          <path id="Path_233" data-name="Path 233" d="M157.778,203.344a.238.238,0,0,1-.26.205h-1.79a.237.237,0,0,1-.26-.205v-1.336a.237.237,0,0,1,.26-.2h1.79a.237.237,0,0,1,.26.2Z" fill="#534948"/>
        </g>
        <rect id="Rectangle_76" data-name="Rectangle 76" width="0.11" height="11.466" transform="translate(160.497 193.466)" fill="#e0e0e1"/>
        <g id="Group_58" data-name="Group 58">
          <path id="Path_234" data-name="Path 234" d="M172.465,205.03a.236.236,0,0,1-.261.2h-1.79a.236.236,0,0,1-.26-.2v-1.336a.236.236,0,0,1,.26-.2h1.79a.236.236,0,0,1,.261.2Z" fill="#534948"/>
          <path id="Path_235" data-name="Path 235" d="M174.945,205.03a.236.236,0,0,1-.261.2H172.9a.237.237,0,0,1-.261-.2v-1.336a.237.237,0,0,1,.261-.2h1.789a.236.236,0,0,1,.261.2Z" fill="#534948"/>
          <path id="Path_236" data-name="Path 236" d="M177.472,205.03a.236.236,0,0,1-.26.2h-1.79a.237.237,0,0,1-.261-.2v-1.336a.237.237,0,0,1,.261-.2h1.79a.236.236,0,0,1,.26.2Z" fill="#534948"/>
          <path id="Path_237" data-name="Path 237" d="M169.915,205.03a.236.236,0,0,1-.261.2h-1.79a.237.237,0,0,1-.261-.2v-1.336a.237.237,0,0,1,.261-.2h1.79a.236.236,0,0,1,.261.2Z" fill="#534948"/>
        </g>
        <g id="Group_60" data-name="Group 60">
          <path id="Path_238" data-name="Path 238" d="M146.553,203.125l13.261.123,12.033.41c1.391,1.35,2.415,1.022,2.415,1.022h7.286l.369.655-.287.123-.491,1.407L152.611,208.9l-6.058-5.648" fill="#e0e0e1"/>
          <path id="Path_239" data-name="Path 239" d="M146.461,203.657l.014.541,25.293-.094Z" fill="#fff"/>
          <g id="Group_59" data-name="Group 59">
            <path id="Path_240" data-name="Path 240" d="M149.053,204.682a.173.173,0,0,1-.172.173h-.317a.174.174,0,0,1-.173-.173h0a.171.171,0,0,1,.173-.171h.317a.171.171,0,0,1,.172.171Z" fill="#2b2523"/>
            <path id="Path_241" data-name="Path 241" d="M151.231,204.682a.174.174,0,0,1-.173.173h-1.221a.174.174,0,0,1-.174-.173h0a.172.172,0,0,1,.174-.171h1.221a.172.172,0,0,1,.173.171Z" fill="#2b2523"/>
            <path id="Path_242" data-name="Path 242" d="M153.273,204.682a.173.173,0,0,1-.172.173h-1.035a.173.173,0,0,1-.172-.173h0a.171.171,0,0,1,.172-.171H153.1a.171.171,0,0,1,.172.171Z" fill="#2b2523"/>
            <path id="Path_243" data-name="Path 243" d="M155.423,204.682a.174.174,0,0,1-.172.173h-1.116a.173.173,0,0,1-.172-.173h0a.171.171,0,0,1,.172-.171h1.116a.172.172,0,0,1,.172.171Z" fill="#2b2523"/>
            <path id="Path_244" data-name="Path 244" d="M156.99,204.682a.174.174,0,0,1-.173.173h-.743a.173.173,0,0,1-.173-.173h0a.171.171,0,0,1,.173-.171h.743a.172.172,0,0,1,.173.171Z" fill="#2b2523"/>
            <path id="Path_245" data-name="Path 245" d="M158.29,204.682a.173.173,0,0,1-.172.173h-.212a.172.172,0,0,1-.173-.173h0a.17.17,0,0,1,.173-.171h.212a.171.171,0,0,1,.172.171Z" fill="#2b2523"/>
            <path id="Path_246" data-name="Path 246" d="M161.832,204.876a.208.208,0,0,0,.22.2h0a.21.21,0,0,0,.222-.2v-1.02a.209.209,0,0,0-.222-.195h0a.208.208,0,0,0-.22.195Z" fill="#2b2523"/>
            <path id="Path_247" data-name="Path 247" d="M163.986,204.942a.218.218,0,0,0,.23.2h0a.218.218,0,0,0,.23-.2v-1.077a.218.218,0,0,0-.23-.2h0a.219.219,0,0,0-.23.2Z" fill="#2b2523"/>
            <path id="Path_248" data-name="Path 248" d="M164.648,204.942a.218.218,0,0,0,.231.2h0a.218.218,0,0,0,.229-.2v-1.077a.218.218,0,0,0-.229-.2h0a.218.218,0,0,0-.231.2Z" fill="#2b2523"/>
            <path id="Path_249" data-name="Path 249" d="M165.309,204.942a.218.218,0,0,0,.231.2h0a.218.218,0,0,0,.23-.2v-1.077a.219.219,0,0,0-.23-.2h0a.219.219,0,0,0-.231.2Z" fill="#2b2523"/>
            <path id="Path_250" data-name="Path 250" d="M167.662,204.942a.218.218,0,0,0,.23.2h0a.217.217,0,0,0,.229-.2v-1.077a.218.218,0,0,0-.229-.2h0a.219.219,0,0,0-.23.2Z" fill="#2b2523"/>
            <path id="Path_251" data-name="Path 251" d="M168.321,204.942a.218.218,0,0,0,.23.2h0a.218.218,0,0,0,.23-.2v-1.077a.218.218,0,0,0-.23-.2h0a.219.219,0,0,0-.23.2Z" fill="#2b2523"/>
            <path id="Path_252" data-name="Path 252" d="M168.909,204.942a.219.219,0,0,0,.231.2h0a.218.218,0,0,0,.231-.2v-1.077a.219.219,0,0,0-.231-.2h0a.219.219,0,0,0-.231.2Z" fill="#2b2523"/>
            <path id="Path_253" data-name="Path 253" d="M161.12,204.874a.209.209,0,0,0,.221.195h0a.209.209,0,0,0,.221-.195v-1.023a.209.209,0,0,0-.221-.194h0a.209.209,0,0,0-.221.194Z" fill="#2b2523"/>
            <path id="Path_254" data-name="Path 254" d="M174.345,205.7a.132.132,0,0,1-.132.133h-.53a.133.133,0,0,1-.133-.133h0a.134.134,0,0,1,.133-.132h.53a.132.132,0,0,1,.132.132Z" fill="#2b2523"/>
            <path id="Path_255" data-name="Path 255" d="M176.124,205.651a.133.133,0,0,1-.133.133h-.531a.133.133,0,0,1-.132-.133h0a.132.132,0,0,1,.132-.132h.531a.133.133,0,0,1,.133.132Z" fill="#2b2523"/>
            <path id="Path_256" data-name="Path 256" d="M177.08,205.651a.133.133,0,0,1-.134.133h-.531a.133.133,0,0,1-.132-.133h0a.133.133,0,0,1,.132-.132h.531a.133.133,0,0,1,.134.132Z" fill="#2b2523"/>
            <path id="Path_257" data-name="Path 257" d="M178.061,205.651a.133.133,0,0,1-.132.133H177.4a.132.132,0,0,1-.133-.133h0a.132.132,0,0,1,.133-.132h.531a.133.133,0,0,1,.132.132Z" fill="#2b2523"/>
            <path id="Path_258" data-name="Path 258" d="M179.745,205.571a.122.122,0,0,1-.121.122h-.487a.122.122,0,0,1-.122-.122h0a.122.122,0,0,1,.122-.122h.487a.122.122,0,0,1,.121.122Z" fill="#2b2523"/>
            <path id="Path_259" data-name="Path 259" d="M180.594,205.571a.122.122,0,0,1-.123.122h-.485a.121.121,0,0,1-.121-.122h0a.121.121,0,0,1,.121-.122h.485a.122.122,0,0,1,.123.122Z" fill="#2b2523"/>
            <path id="Path_260" data-name="Path 260" d="M181.505,205.571a.122.122,0,0,1-.122.122H180.9a.122.122,0,0,1-.121-.122h0a.122.122,0,0,1,.121-.122h.487A.122.122,0,0,1,181.505,205.571Z" fill="#2b2523"/>
          </g>
        </g>
        <g id="Group_61" data-name="Group 61">
          <path id="Path_261" data-name="Path 261" d="M175.2,202.26a.162.162,0,0,1-.166.152h-1.145a.162.162,0,0,1-.166-.152v-.994a.161.161,0,0,1,.166-.152h1.145a.161.161,0,0,1,.166.152Z" fill="#534948"/>
          <path id="Path_262" data-name="Path 262" d="M176.78,202.26a.161.161,0,0,1-.167.152H175.47a.161.161,0,0,1-.166-.152v-.994a.16.16,0,0,1,.166-.152h1.143a.161.161,0,0,1,.167.152Z" fill="#534948"/>
          <path id="Path_263" data-name="Path 263" d="M178.394,202.26a.16.16,0,0,1-.166.152h-1.144a.161.161,0,0,1-.165-.152v-.994a.16.16,0,0,1,.165-.152h1.144a.16.16,0,0,1,.166.152Z" fill="#534948"/>
          <path id="Path_264" data-name="Path 264" d="M173.566,202.26a.161.161,0,0,1-.166.152h-1.144a.16.16,0,0,1-.166-.152v-.994a.16.16,0,0,1,.166-.152H173.4a.16.16,0,0,1,.166.152Z" fill="#534948"/>
        </g>
        <path id="Path_265" data-name="Path 265" d="M170.169,202.072l-.041.6h.814l.29-.532,1.024-.072v-.829s4.093.165,4.626.327a6.276,6.276,0,0,0,1.8,0l-.246-.368-1.637-.081-.041-.3,1.35.173-.165-.173-4.134-.686-.408-.368h-2.417l-4.418.655-6.345.369s-.533.49.531.284,9.088-.245,9.415.145a.727.727,0,0,1,0,.849Z" fill="#e8e9ea"/>
        <path id="Path_266" data-name="Path 266" d="M154.984,202.021s-.491.327,0,.327,9.742-.163,9.742-.163.859.163,0,.41l-.86.246-.123.2,16.7.369V203h-2.577v-.285H180.2l-.152-.206-6.478-.49-.655-.41H171.4l-.491.9h-.942l-.368-.9h-.327S156.376,201.284,154.984,202.021Z" fill="#ddd"/>
      </g>
      <path id="Path_267" data-name="Path 267" d="M175.352,207.14a13.262,13.262,0,0,1-3.448.131,17.973,17.973,0,0,1-3.312-.824,8.545,8.545,0,0,0-1.75-.415,4.732,4.732,0,0,0-1.854.193,15.6,15.6,0,0,1-2.124.662,7.423,7.423,0,0,1-1.979.054c-1.2-.125-2.3-.4-3.474-.448a4.459,4.459,0,0,0-1.492.127,1.605,1.605,0,0,0-.972.681c-.046.074-.6,1.452-.659,1.492l.5.331a.512.512,0,0,0,.544.472h21.079a.512.512,0,0,0,.544-.472l4.749-2.387C181.174,206.855,175.892,207.057,175.352,207.14Z" fill="#009ee2"/>
    </g>
  </g>
</svg>
