<svg xmlns="http://www.w3.org/2000/svg" width="116.278" height="147.032" viewBox="0 0 116.278 147.032">
  <g id="Group_2178" data-name="Group 2178" transform="translate(-292.339 -528.962)">
    <path id="Path_9704" data-name="Path 9704" d="M350.478,672.349c-27.682-19.2-55.139-42.686-55.139-51.349V531.962H405.617V621C405.617,629.661,378.16,653.144,350.478,672.349Z" fill="#fff"/>
    <path id="Path_9705" data-name="Path 9705" d="M402.617,534.962V621c0,.263-.285,6.673-25.07,27.129-10.6,8.75-21.471,16.605-27.069,20.552-5.6-3.946-16.467-11.8-27.068-20.552-24.785-20.456-25.07-26.867-25.07-27.129V534.962H402.617m6-6H292.339V621c0,14.691,53.29,51.662,58.139,54.995,4.849-3.332,58.139-40.3,58.139-54.995V528.962Z" fill="#1f1f1f"/>
  </g>
</svg>
