<svg xmlns="http://www.w3.org/2000/svg" width="55.169" height="41.121" viewBox="0 0 55.169 41.121">
  <g id="Group_365" data-name="Group 365" transform="translate(-601.679 -357.733)">
    <path id="Path_1438" data-name="Path 1438" d="M642.83,398.734c4.283-.06,8.751-.166,12.539-2.167a3.223,3.223,0,0,0,1.131-.864,2.448,2.448,0,0,0-.34-2.961,6.117,6.117,0,0,0-2.775-1.564,37.138,37.138,0,0,0-9.107-1.638c-3.42-.23-6.853-.144-10.281-.1a256.685,256.685,0,0,1-30.331-1.229c-.617-.066-1.465.036-1.533.653-.054.49.47.821.911,1.041a22.735,22.735,0,0,1,7.508,6.031,5.835,5.835,0,0,0,1.951,1.838,5.071,5.071,0,0,0,1.932.323q5.585.185,11.174-.049a18.628,18.628,0,0,1,3.238.04c.843.112,1.665.346,2.5.5a25.657,25.657,0,0,0,4.916.246Z" fill="#272525" opacity="0.32"/>
    <g id="Group_364" data-name="Group 364">
      <path id="Path_1439" data-name="Path 1439" d="M630.829,396.2a122.047,122.047,0,0,0-13.036.688,10.607,10.607,0,0,1-2.792.061,9.816,9.816,0,0,1-3.982-1.969q-4.834-3.434-9.34-7.3,18.379-2.205,36.8-4a2.834,2.834,0,0,1,1.022.025,2.872,2.872,0,0,1,1.163.8c1.758,1.7,3.558,3.356,5.456,4.9,1.879,1.525,4.3,2.616,6.075,4.2,2.484,2.213-2.24,2.354-3.752,2.5a80.369,80.369,0,0,1-8.263.267C637.065,396.325,633.948,396.2,630.829,396.2Z" fill="#4d4e4f"/>
      <g id="Group_363" data-name="Group 363">
        <path id="Path_1440" data-name="Path 1440" d="M610.062,360.672a205.28,205.28,0,0,0,1.757,32.5,4.314,4.314,0,0,0,1.116,2.812c.987.867,2.574.846,4,.774l25.387-1.284a45.411,45.411,0,0,0,9.1-1.081,3.133,3.133,0,0,0,1.478-.7,2.686,2.686,0,0,0,.607-1.6,173.67,173.67,0,0,0,1.6-18.731c.108-3.492.109-6.979.036-10.461-.083-3.969-1.459-5.532-5.648-5.106-4.345.442-8.774.3-13.135.515C634.13,358.425,610.081,359.922,610.062,360.672Z" fill="#75787a"/>
        <path id="Path_1441" data-name="Path 1441" d="M637.049,382.11a37.052,37.052,0,0,0-7.465.019,87.874,87.874,0,0,0,3.81-8.374,30.263,30.263,0,0,0,1.338,3.647C635.449,379,636.376,380.5,637.049,382.11Z" fill="#f1f1f2"/>
      </g>
    </g>
  </g>
</svg>
