<svg xmlns="http://www.w3.org/2000/svg" width="76.049" height="83.921" viewBox="0 0 76.049 83.921">
  <g id="Group_86" data-name="Group 86" transform="translate(-261.492 -174.256)">
    <path id="Path_250" data-name="Path 250" d="M269.148,233.807c3.011,1.751,6.563,1.956,9.962,1.917a88.853,88.853,0,0,0,11.1-.616c6.453-.888,13.065-3.229,16.94-8.778a16.445,16.445,0,0,0,2.34-12.757c-3.129-15.189-21.244-20.4-34.739-19.565a48.9,48.9,0,0,0-6.17.776c-4.666.893-9.87,5.766-5.347,10.312,2.332,2.344,5.389,2.251,8.44,2.012,4.466-.35,12.433-1.9,14.711,3.386a6.916,6.916,0,0,1,.477,1.816c.989,7.39-8.859,6.607-13.36,6.366-2.97-.159-6.905.445-8.769,3.112-2.483,3.554-.338,7.987,2.493,10.6a10.951,10.951,0,0,0,1.925,1.422Z" fill="#efc196"/>
    <path id="Path_251" data-name="Path 251" d="M267.884,248.766a11.431,11.431,0,0,0,4.926,8c3.5,2.282,8.14,1.2,12.014.791,4.015-.427,8.029-.9,12.011-1.576,7.918-1.336,15.857-3.464,22.792-7.631a40.268,40.268,0,0,0,7.16-5.452,34.382,34.382,0,0,0,7.878-11.458,38.546,38.546,0,0,0,2.2-21.768,44.191,44.191,0,0,0-3.974-11.914c-3.5-6.969-8.951-13.06-16.018-16.515-5.158-2.522-10.851-3.625-16.507-4.342s-11.325-1.37-17-1.956c-3.713-.385-7.663-1.164-11.362-.293a7.676,7.676,0,0,0-5.71,8.131c.444,6.337,7.6,6.9,12.551,6.936,6.382.046,12.766.266,19.007,1.764,7.242,1.739,14,5.47,17.56,12.271a23.9,23.9,0,0,1-8.983,31.134c-5.434,3.254-11.835,4.062-18.057,4.2-3.007.066-6.027.027-9.034-.058-3.084-.087-6.323-.467-9.273.678-3.146,1.221-2.65,5.416-2.317,8.153Q267.811,248.314,267.884,248.766Z" fill="#efc196"/>
  </g>
</svg>
