<svg xmlns="http://www.w3.org/2000/svg" width="45.327" height="47.024" viewBox="0 0 45.327 47.024">
  <g id="Group_396" data-name="Group 396" transform="translate(-228.636 -690.689)">
    <path id="Path_1586" data-name="Path 1586" d="M236.548,700.16c.171,2.082-.311,1.764.019,3.523.176.021.429.038.738.051a1.112,1.112,0,0,0,.423.1l-.008-.088c1.17.033,2.953.031,5.014.009l-.028-.054s-.279-2.4-.286-3.628a40.886,40.886,0,0,1,.24-4.86,17.81,17.81,0,0,0,.118-2.829c-2.277.028-4.357.083-6.118.14l.008.105C236.835,694.072,236.376,698.08,236.548,700.16Z" fill="#ececec"/>
    <path id="Path_1587" data-name="Path 1587" d="M273.307,715.5c-.171-1.921.6-7.21.424-10.412s.619-4.007-.023-4.324-3.866-3.983-5.8-5.414-3.868-4.463-5.15-4.617-1.921.171-5.123.348-6.406.035-9.129.049l-8.007.044-10.89.059c-1.119.326-1.058,11.7-.872,16.5s.113,20.819.477,28.825c1.285.634,3.046.464,6.889.443s11.374.579,18.1.7,18.254-.74,19.207-2.187-.194-6.245-.212-9.608S273.478,717.417,273.307,715.5Zm-24.478,15.346c-5.366-1.054-13.407-2.233-10.686-12.66s10.347-10.692,15.451-9.112,10.491,5.568,8.373,11.612c-2.275,6.485-5.6,11.643-13.138,10.161Zm12.74-38.745-.007.13-.392.273s-.593,8.811-1.381,11.058c-1.883-.094-10.115.119-16.315.193-.06-.565-.176-1.741-.18-2.452-.005-.961.106-5.126.106-5.126l-.088-3.9-.536-.317Zm-25.021,8.063c-.171-2.08.287-6.087.119-7.528l-.008-.105c1.761-.058,3.841-.112,6.118-.14a17.8,17.8,0,0,1-.118,2.829,40.824,40.824,0,0,0-.24,4.86c.007,1.227.286,3.628.286,3.628l.028.055c-2.061.021-3.844.024-5.014-.009l.008.089a1.112,1.112,0,0,1-.423-.1c-.31-.013-.563-.03-.739-.051C236.237,701.924,236.72,702.241,236.548,700.16Z" fill="#537082"/>
    <path id="Path_1588" data-name="Path 1588" d="M243.4,696.172s-.111,4.165-.105,5.126c0,.711.119,1.887.18,2.452,6.2-.074,14.432-.287,16.315-.193.789-2.247,1.381-11.058,1.381-11.058l.392-.273.007-.129-18.792-.138.536.317Zm9.667-1.654c.315-.963,5.441-.776,5.444-.243s-.067,7.261-.279,7.583-3.2.123-4.912-.08a3.7,3.7,0,0,1-.227-2.455c.1-1.068-.36-3.786-.026-4.8Z" fill="#eebe47"/>
    <path id="Path_1589" data-name="Path 1589" d="M253.093,699.323a3.7,3.7,0,0,0,.227,2.455c1.71.2,4.7.4,4.912.08s.282-7.049.279-7.583-5.129-.72-5.444.243C252.733,695.538,253.194,698.255,253.093,699.323Zm.438-4.212c.26-.795,4.5-.642,4.5-.2s-.056,6-.23,6.266-2.647.1-4.06-.066a3.065,3.065,0,0,1-.188-2.029C253.636,698.2,253.255,695.954,253.531,695.111Z" fill="#4b5054"/>
    <path id="Path_1590" data-name="Path 1590" d="M253.553,699.082a3.065,3.065,0,0,0,.188,2.029c1.413.168,3.884.332,4.06.066s.233-5.825.23-6.266-4.239-.595-4.5.2C253.255,695.954,253.636,698.2,253.553,699.082Z" fill="#ececec"/>
    <path id="Path_1591" data-name="Path 1591" d="M253.594,709.069c-5.1-1.58-12.73-1.31-15.451,9.112s5.32,11.606,10.686,12.66c7.539,1.483,10.863-3.676,13.138-10.161C264.085,714.637,258.7,710.652,253.594,709.069Zm5.579,16.763c-1.623,3.442-8.778,5.672-16.069,2.891s-4.477-14.976.614-18.369,12.016-.4,16.284,3.563c2.367,2.2.793,8.476-.828,11.915Z" fill="#4b5054"/>
    <path id="Path_1592" data-name="Path 1592" d="M243.717,710.354c-5.09,3.393-7.9,15.587-.614,18.369s14.446.55,16.069-2.891,3.2-9.717.828-11.915C255.733,709.956,248.807,706.961,243.717,710.354Zm1.9,9.259s-4.13-1.1-4.365-1.928c.2-1.382,2.1-3.429,2.857-3.068s4.908,1.089,3.755,1.859a15.652,15.652,0,0,0-2.248,3.137Zm7.3.316c-.514,1.513-1.714,2.659-2.85,2.41s-2.857-.462-2.233-2.89,2.257-2.521,3.341-2.176,2.22,1.248,1.742,2.656Z" fill="#bcd6dd"/>
    <path id="Path_1593" data-name="Path 1593" d="M251.174,717.273c-1.085-.345-2.716-.252-3.341,2.176s1.1,2.642,2.233,2.89,2.337-.9,2.85-2.41C253.394,718.521,252.259,717.62,251.174,717.273Z" fill="#4b5054"/>
    <path id="Path_1594" data-name="Path 1594" d="M244.112,714.617c-.755-.361-2.658,1.686-2.857,3.068.235.83,4.365,1.928,4.365,1.928a15.652,15.652,0,0,1,2.248-3.137C249.021,715.705,244.867,714.975,244.112,714.617Zm3.058,1.983a12.306,12.306,0,0,0-1.762,2.461s-3.237-.861-3.422-1.511c.156-1.083,1.648-2.688,2.24-2.405S248.074,716,247.17,716.6Z" fill="#4b5054"/>
    <path id="Path_1595" data-name="Path 1595" d="M244.226,715.144c-.592-.282-2.084,1.322-2.24,2.405.184.65,3.422,1.511,3.422,1.511a12.309,12.309,0,0,1,1.762-2.461C248.074,716,244.817,715.425,244.226,715.144Z" fill="#ececec"/>
  </g>
</svg>
