<svg xmlns="http://www.w3.org/2000/svg" width="49.167" height="47.558" viewBox="0 0 49.167 47.558">
  <path id="Path_981" data-name="Path 981" d="M1118.144,35.724l-.643-.683c-2.259-2.407-4.588-4.887-7.77-6a34.944,34.944,0,0,0-10.511-1.466c-.68,0-1.32.018-1.908.051-5.459.311-11.208,1.382-16.258,7.065-4.945,5.563-7.544,13.959-6.783,21.911.638,6.654,3.568,10.976,10.113,14.918a28.339,28.339,0,0,0,15.884,3.536,15.1,15.1,0,0,0,7.944-3.138c.208-.173.488-.434.489-.706,0-.3-.313-.58-.828-1.019a7.884,7.884,0,0,1-1.491-1.55,3.113,3.113,0,0,0-2.722-1.223,2.493,2.493,0,0,0-2.125,1.095c-1.255,2.16-4.106,2.853-7.617,1.851l-.678-.191c-4.146-1.172-8.846-2.5-11.328-6.115-3.61-5.254-5.433-14.648-2.395-20.262,3.526-6.52,8.087-10.279,14.789-12.191,5.823-1.67,12.034,1.241,14.435,2.569,4.9,2.711,7.439,8.8,8.186,13.6.538,3.449.944,9.607-2.379,12.089a2.65,2.65,0,0,1-2.688.652c-1.477-.665-1.832-3.162-1.916-4.205a41.549,41.549,0,0,1,.7-9.435l.024-.158c.13-.868.26-1.728.371-2.578a7.208,7.208,0,0,1,.207-.913,2.472,2.472,0,0,0,.034-2,3.165,3.165,0,0,0-2.245-1.011c-1.118-.178-1.6.35-1.9,2.064l-.306,1.734-.881-1.525a6.7,6.7,0,0,0-1.807-2.039c-1.962-1.6-3.028-1.789-5.819-2.105-2.377-.268-5.43.891-8.179,3.11a14.7,14.7,0,0,0-5.709,9.639c-.744,7.428,2.767,12.754,8.944,13.566a10.89,10.89,0,0,0,11.5-5.739l.988-1.936.222,2.163a7.908,7.908,0,0,0,1.689,4.646,6.958,6.958,0,0,0,5.279,2.545l.165,0c5.28,0,7.628-6.726,8.638-9.614C1124.671,48.682,1123.35,41.224,1118.144,35.724Zm-18.417,19.8A5.759,5.759,0,0,1,1094.6,58.7a5.271,5.271,0,0,1-.923-.08,4.687,4.687,0,0,1-3.913-4.237c-.476-3.743,3.032-9.845,6.94-10.579a10.011,10.011,0,0,1,1.8-.173,3.883,3.883,0,0,1,1.827.341l.485.267h0C1103.553,46.9,1101.237,52.649,1099.726,55.52Z" transform="translate(-1074.139 -27.568)" fill="#94cbea"/>
</svg>
