<svg xmlns="http://www.w3.org/2000/svg" width="80.598" height="64.683" viewBox="0 0 80.598 64.683">
  <g id="Group_341" data-name="Group 341" transform="translate(-1058.423 -262.48)">
    <path id="Path_1354" data-name="Path 1354" d="M1112.775,323.879c-1.709-8.066-3.9-16.047-5.862-24.048-1.888-7.715-3.223-16.065-6.676-23.2a1.314,1.314,0,0,0-.692-.689,1.083,1.083,0,0,0-1.86.723c-1.363,8.2-2.527,16.454-3.807,24.675q-.961,6.17-1.96,12.332c-.637,3.937-1.672,8.024-1.878,12.02a1.322,1.322,0,0,0,2.611.4c1.053-3.66,1.365-7.784,1.973-11.574q.989-6.166,1.939-12.339c1-6.492,2.008-13,2.879-19.519.613,1.993,1.121,4.025,1.61,6.056q1.441,5.993,2.895,11.984c1.944,8.005,3.672,16.117,5.862,24.048a1.547,1.547,0,1,0,2.966-.876Z" fill="#6d9dbf"/>
    <path id="Path_1355" data-name="Path 1355" d="M1093.239,277.352a4,4,0,0,0,.54,1.377,7.955,7.955,0,0,0,2.045,1.941c4.13,3.058,10.619-.028,8.435-5.754a7.881,7.881,0,0,0-2.065-2.819C1098.566,268.668,1092.248,272.386,1093.239,277.352Z" fill="#6d9dbf"/>
    <path id="Path_1356" data-name="Path 1356" d="M1086.629,268.562c.344-.276.095-.76-.234-.886-4.159-1.606-8.956,2.83-10.041,6.649-1.4,4.93.412,11.06,5.305,13.363,1.8.847,4.07-1.537,2.284-2.959-3.106-2.473-5.164-5.29-4.137-9.453C1080.682,271.723,1084.1,270.593,1086.629,268.562Z" fill="#6d9dbf"/>
    <path id="Path_1357" data-name="Path 1357" d="M1070.979,262.483c-7.314.706-11.693,7.668-12.423,14.559-.834,7.872,2.252,15.233,9.186,19.319,2.087,1.229,3.995-2.051,1.891-3.236-11.167-6.287-10.708-24.488,1.519-29.364C1071.777,263.512,1071.77,262.407,1070.979,262.483Z" fill="#6d9dbf"/>
    <path id="Path_1358" data-name="Path 1358" d="M1110.815,268.924c-.344-.276-.095-.76.234-.886,4.159-1.606,8.956,2.83,10.041,6.649,1.4,4.93-.412,11.06-5.305,13.363-1.8.847-4.07-1.537-2.284-2.959,3.106-2.473,5.164-5.29,4.137-9.453C1116.762,272.085,1113.347,270.955,1110.815,268.924Z" fill="#6d9dbf"/>
    <path id="Path_1359" data-name="Path 1359" d="M1126.465,262.845c7.314.706,11.693,7.668,12.423,14.559.834,7.872-2.252,15.233-9.186,19.319-2.087,1.229-3.995-2.051-1.891-3.236,11.167-6.287,10.708-24.488-1.519-29.364C1125.668,263.874,1125.675,262.769,1126.465,262.845Z" fill="#6d9dbf"/>
    <path id="Path_1360" data-name="Path 1360" d="M1106.93,308.843c-2.313.012-4.626.106-6.939.143-2.022.033-4.221-.264-6.086.6a.278.278,0,0,0,0,.477c1.563.847,3.342.731,5.095.808,2.637.115,5.292.166,7.93.076a1.052,1.052,0,0,0,0-2.1Z" fill="#6d9dbf"/>
    <path id="Path_1361" data-name="Path 1361" d="M1104.74,296.452a32.681,32.681,0,0,0-8.153-.189.215.215,0,0,0-.193-.051l-.5.122a.97.97,0,0,0,0,1.858,32.4,32.4,0,0,0,8.517.668C1105.713,298.776,1106.18,296.675,1104.74,296.452Z" fill="#6d9dbf"/>
  </g>
</svg>
