<svg xmlns="http://www.w3.org/2000/svg" width="115.249" height="147.163" viewBox="0 0 115.249 147.163">
  <g id="Group_2158" data-name="Group 2158" transform="translate(-413.215 -528.897)">
    <path id="Path_9645" data-name="Path 9645" d="M470.042,673.06a53.888,53.888,0,0,1-53.827-53.827V531.9H525.464v87.336a53.888,53.888,0,0,1-53.827,53.827Z" fill="#fff"/>
    <path id="Path_9646" data-name="Path 9646" d="M522.464,534.9v84.337a50.884,50.884,0,0,1-50.826,50.826h-1.6a50.884,50.884,0,0,1-50.827-50.827V534.9H522.464m6-6H413.215v90.337a56.891,56.891,0,0,0,56.827,56.826h1.6a56.891,56.891,0,0,0,56.826-56.827V528.9Z" fill="#1f1f1f"/>
  </g>
</svg>
