<svg xmlns="http://www.w3.org/2000/svg" width="174.967" height="114.315" viewBox="0 0 174.967 114.315">
  <g id="Group_2172" data-name="Group 2172" transform="translate(-1245.693 -1376.612)">
    <path id="Path_9690" data-name="Path 9690" d="M1245.693,1490.927v-53.262c0-10.688,10.534-20.96,28.9-28.184a33.344,33.344,0,0,0,14.054-10.606c11.007-14.148,27.237-22.262,44.529-22.262s33.522,8.114,44.529,22.263a33.338,33.338,0,0,0,14.054,10.606c18.366,7.224,28.9,17.5,28.9,28.184v53.262Z" fill="#1f1f1f"/>
    <path id="Path_9691" data-name="Path 9691" d="M1245.693,1490.927v-53.262c0-10.688,10.534-20.96,28.9-28.184a33.344,33.344,0,0,0,14.054-10.606c11.007-14.148,27.237-22.262,44.529-22.262s33.522,8.114,44.529,22.263a33.338,33.338,0,0,0,14.054,10.606c18.366,7.224,28.9,17.5,28.9,28.184v53.262Z" fill="#1f1f1f"/>
    <path id="Path_9692" data-name="Path 9692" d="M1413.66,1483.927H1252.693v-46.262c0-7.433,9.373-15.735,24.462-21.67a40.344,40.344,0,0,0,17.018-12.823c9.671-12.431,23.887-19.56,39-19.56s29.334,7.13,39,19.561a40.348,40.348,0,0,0,17.017,12.821c15.089,5.935,24.462,14.238,24.462,21.671Zm-158.967-2H1411.66v-44.262c0-6.492-9.1-14.267-23.194-19.81A42.361,42.361,0,0,1,1370.6,1404.4c-9.289-11.94-22.931-18.789-37.426-18.789s-28.136,6.848-37.426,18.788a42.352,42.352,0,0,1-17.863,13.456c-14.09,5.541-23.194,13.316-23.194,19.808Z" fill="#fff"/>
    <path id="Path_9693" data-name="Path 9693" d="M1418.16,1488.427H1248.193v-50.762c0-9.464,10.211-19.131,27.315-25.857a35.848,35.848,0,0,0,15.112-11.4c10.529-13.534,26.04-21.3,42.556-21.3s32.026,7.763,42.556,21.3a35.853,35.853,0,0,0,15.112,11.4c17.1,6.726,27.315,16.393,27.315,25.857Zm-166.967-3H1415.16v-47.762c0-8.186-9.5-16.808-25.413-23.066a38.834,38.834,0,0,1-16.382-12.347c-9.957-12.8-24.605-20.14-40.188-20.14s-30.23,7.34-40.188,20.139a38.833,38.833,0,0,1-16.382,12.348c-15.913,6.259-25.413,14.882-25.413,23.067Z" fill="#fff"/>
  </g>
</svg>
