<svg xmlns="http://www.w3.org/2000/svg" width="30.486" height="28.933" viewBox="0 0 30.486 28.933">
  <g id="Group_411" data-name="Group 411" transform="translate(-995.18 -704.681)">
    <path id="Path_1649" data-name="Path 1649" d="M1025.626,708.936c-.005-1,.307-3.052-.724-3.8-.844-.611-5.173-.44-6.359-.422-2.126.031-4.252,0-6.377.045-4.795.1-8.638-.177-13.428-.005a11.894,11.894,0,0,0-2.621.393c-1.011.429-.706,1.915-.7,2.741.036,6.223.015,11.327-.139,17.549-.063,2.548-.254,3.886.185,5.644a2.984,2.984,0,0,0,1.059,1.845c1.1.7,4.036.586,5.518.568,6.984-.086,13.734.359,20.687-.078a4.468,4.468,0,0,0,1.425-.244c1.058-.447,1.372-2.448,1.361-3.313-.084-6.78.129-10.286.129-16.628C1025.641,711.793,1025.636,711,1025.626,708.936Z" fill="#5e5e5e"/>
    <path id="Path_1650" data-name="Path 1650" d="M1024,709.137c0-.7.273-2.128-.646-2.648-.752-.426-4.61-.306-5.667-.294-1.895.022-3.79,0-5.684.031-4.273.071-7.7-.124-11.968,0a13.348,13.348,0,0,0-2.336.274c-.9.3-.629,1.335-.625,1.911.032,4.338.014,7.9-.124,12.234a10.952,10.952,0,0,0,.165,3.935,2.032,2.032,0,0,0,.944,1.286,9.414,9.414,0,0,0,3.3.407c.017.661-.018.965-.006,1.913,0,.38-.089.435.173.633a1.214,1.214,0,0,0,.632.208c.41.049,1.249.063,2.037.065.01.61,0,.938.037,1.863.012.288-.1.438.076.636a.7.7,0,0,0,.435.208,20.1,20.1,0,0,0,2.267.064c2.87-.01,5.643.04,8.5-.009.2,0,.412-.008.586-.028.435-.05.564-.276.559-.373-.035-.764.053-1.159.053-1.875,0-.162,0-.251-.006-.484v-.005c.366,0,.728,0,1.095-.007.294,0,.6-.008.851-.028.632-.05.819-.276.812-.373-.05-.764.077-1.159.077-1.875,0-.162,0-.251-.009-.484a.208.208,0,0,1,.005-.044c.627-.019,1.255-.04,1.886-.071a4.992,4.992,0,0,0,1.27-.17c.943-.312,1.223-1.707,1.213-2.309-.075-4.726.115-7.171.115-11.592C1024.013,711.128,1024.01,710.579,1024,709.137Z" fill="#303030"/>
    <g id="Group_410" data-name="Group 410">
      <path id="Path_1651" data-name="Path 1651" d="M1000.682,710.277c0-.754.007-1.359,0-2.113,0-.09-.007-.335-.015-.412-.016-.159-.067-.148-.1-.147-.232.006-.333,0-.661.015-.1,0-.145-.04-.211.029a.282.282,0,0,0-.069.167c-.026.173-.022.635-.021.868,0,1.1-.013,2.161,0,3.255,0,.078,0,.158.009.224.016.167.091.216.124.214.253-.013.385.02.622.02l.161,0c.037,0,.114.048.142-.114.023-.133.016-.814.016-1C1000.683,710.945,1000.684,710.611,1000.682,710.277Z" fill="#f7f7f7"/>
      <path id="Path_1652" data-name="Path 1652" d="M1002.752,710.277c0-.754.007-1.359,0-2.113,0-.09-.007-.335-.015-.412-.016-.159-.066-.148-.1-.147-.233.006-.333,0-.661.015-.1,0-.145-.04-.211.029a.283.283,0,0,0-.069.167c-.026.173-.022.635-.021.868,0,1.1-.013,2.161,0,3.255,0,.078,0,.158.009.224.017.167.091.216.124.214.253-.013.385.02.622.02l.161,0c.037,0,.114.048.142-.114.023-.133.016-.814.016-1C1002.752,710.945,1002.753,710.611,1002.752,710.277Z" fill="#f7f7f7"/>
      <path id="Path_1653" data-name="Path 1653" d="M1004.774,710.277c0-.754.007-1.359,0-2.113,0-.09-.007-.335-.015-.412-.016-.159-.067-.148-.1-.147-.232.006-.333,0-.661.015-.1,0-.145-.04-.211.029a.283.283,0,0,0-.069.167c-.026.173-.022.635-.021.868,0,1.1-.013,2.161,0,3.255,0,.078,0,.158.009.224.016.167.091.216.124.214.253-.013.385.02.622.02l.161,0c.037,0,.114.048.142-.114.023-.133.016-.814.016-1C1004.774,710.945,1004.776,710.611,1004.774,710.277Z" fill="#f7f7f7"/>
      <path id="Path_1654" data-name="Path 1654" d="M1006.843,710.277c0-.754.007-1.359,0-2.113,0-.09-.007-.335-.015-.412-.016-.159-.067-.148-.1-.147-.233.006-.333,0-.661.015-.1,0-.145-.04-.211.029a.283.283,0,0,0-.069.167c-.026.173-.022.635-.021.868,0,1.1-.013,2.161,0,3.255,0,.078,0,.158.009.224.017.167.091.216.124.214.253-.013.385.02.622.02l.16,0c.037,0,.114.048.142-.114.023-.133.016-.814.016-1C1006.844,710.945,1006.845,710.611,1006.843,710.277Z" fill="#f7f7f7"/>
      <path id="Path_1655" data-name="Path 1655" d="M1008.96,710.277c0-.754.007-1.359,0-2.113,0-.09-.007-.335-.015-.412-.016-.159-.067-.148-.1-.147-.233.006-.333,0-.661.015-.1,0-.145-.04-.211.029a.282.282,0,0,0-.069.167c-.026.173-.022.635-.021.868,0,1.1-.013,2.161,0,3.255,0,.078,0,.158.009.224.017.167.091.216.124.214.253-.013.385.02.622.02l.16,0c.037,0,.114.048.142-.114.023-.133.016-.814.016-1C1008.96,710.945,1008.961,710.611,1008.96,710.277Z" fill="#f7f7f7"/>
      <path id="Path_1656" data-name="Path 1656" d="M1011.029,710.277c0-.754.007-1.359,0-2.113,0-.09-.007-.335-.015-.412-.016-.159-.067-.148-.1-.147-.232.006-.333,0-.661.015-.1,0-.145-.04-.211.029a.283.283,0,0,0-.069.167c-.026.173-.022.635-.021.868,0,1.1-.013,2.161,0,3.255,0,.078,0,.158.009.224.016.167.091.216.124.214.253-.013.385.02.622.02l.161,0c.037,0,.114.048.142-.114.023-.133.016-.814.016-1C1011.029,710.945,1011.031,710.611,1011.029,710.277Z" fill="#f7f7f7"/>
      <path id="Path_1657" data-name="Path 1657" d="M1013.051,710.277c0-.754.007-1.359,0-2.113,0-.09-.007-.335-.015-.412-.016-.159-.067-.148-.1-.147-.233.006-.333,0-.661.015-.1,0-.145-.04-.211.029a.282.282,0,0,0-.069.167c-.026.173-.022.635-.021.868,0,1.1-.013,2.161,0,3.255,0,.078,0,.158.009.224.016.167.091.216.124.214.253-.013.385.02.622.02l.161,0c.037,0,.114.048.142-.114.023-.133.016-.814.016-1C1013.052,710.945,1013.053,710.611,1013.051,710.277Z" fill="#f7f7f7"/>
      <path id="Path_1658" data-name="Path 1658" d="M1015.121,710.277c0-.754.007-1.359,0-2.113,0-.09-.007-.335-.015-.412-.016-.159-.067-.148-.1-.147-.232.006-.333,0-.661.015-.1,0-.145-.04-.211.029a.282.282,0,0,0-.069.167c-.026.173-.022.635-.021.868,0,1.1-.013,2.161,0,3.255,0,.078,0,.158.009.224.016.167.091.216.124.214.253-.013.385.02.622.02l.161,0c.037,0,.114.048.142-.114.023-.133.016-.814.016-1C1015.121,710.945,1015.122,710.611,1015.121,710.277Z" fill="#f7f7f7"/>
      <path id="Path_1659" data-name="Path 1659" d="M1017.2,710.287c0-.754.007-1.359,0-2.113,0-.09-.007-.335-.015-.412-.016-.159-.066-.148-.1-.147-.233.006-.333,0-.661.015-.1,0-.145-.04-.211.029a.283.283,0,0,0-.069.167c-.026.173-.022.635-.021.868,0,1.1-.013,2.161,0,3.255,0,.078,0,.158.009.224.016.167.091.216.124.214.253-.013.385.02.622.02l.161,0c.037,0,.114.048.142-.114.023-.133.016-.814.016-1C1017.2,710.956,1017.2,710.621,1017.2,710.287Z" fill="#f7f7f7"/>
      <path id="Path_1660" data-name="Path 1660" d="M1019.271,710.287c0-.754.007-1.359,0-2.113,0-.09-.007-.335-.015-.412-.016-.159-.067-.148-.1-.147-.232.006-.333,0-.661.015-.1,0-.145-.04-.211.029a.282.282,0,0,0-.069.167c-.026.173-.022.635-.021.868,0,1.1-.013,2.161,0,3.255,0,.078,0,.158.009.224.016.167.091.216.124.214.253-.013.385.02.622.02l.161,0c.037,0,.114.048.142-.114.023-.133.016-.814.016-1C1019.272,710.956,1019.273,710.621,1019.271,710.287Z" fill="#f7f7f7"/>
      <path id="Path_1661" data-name="Path 1661" d="M1021.294,710.287c0-.754.007-1.359,0-2.113,0-.09-.007-.335-.015-.412-.016-.159-.067-.148-.1-.147-.233.006-.333,0-.661.015-.1,0-.145-.04-.211.029a.282.282,0,0,0-.069.167c-.026.173-.022.635-.021.868,0,1.1-.013,2.161,0,3.255,0,.078,0,.158.009.224.017.167.091.216.124.214.253-.013.385.02.622.02l.16,0c.037,0,.114.048.142-.114.023-.133.016-.814.016-1C1021.294,710.956,1021.3,710.621,1021.294,710.287Z" fill="#f7f7f7"/>
    </g>
  </g>
</svg>
