<svg xmlns="http://www.w3.org/2000/svg" width="90.281" height="92.043" viewBox="0 0 90.281 92.043">
  <g id="Group_2235" data-name="Group 2235" transform="translate(-691.609 -960.169)">
    <path id="Path_10314" data-name="Path 10314" d="M737.231,977.434a.573.573,0,0,1-1.016,0c-4.334-8.317-3.813-17.265.508-17.265S741.567,969.113,737.231,977.434Z" fill="#1f1f1f"/>
    <path id="Path_10315" data-name="Path 10315" d="M696.117,995.49a.573.573,0,0,1-.992.28c-3.6-4.036-4.621-9.011-2.2-9.694S697.076,990.167,696.117,995.49Z" fill="#1f1f1f"/>
    <path id="Path_10316" data-name="Path 10316" d="M777.381,995.49a.573.573,0,0,0,.992.28c3.6-4.036,4.621-9.011,2.2-9.694S776.422,990.167,777.381,995.49Z" fill="#1f1f1f"/>
    <path id="Path_10317" data-name="Path 10317" d="M745.755,1015.886a.538.538,0,0,1,0,.762,38,38,0,0,0-8.5,13.739.538.538,0,0,1-1,0,38,38,0,0,0-8.5-13.739.538.538,0,0,1,0-.762,38.031,38.031,0,0,0,8.5-13.74.538.538,0,0,1,1,0A38.033,38.033,0,0,0,745.755,1015.886Z" fill="#1f1f1f"/>
    <path id="Path_10318" data-name="Path 10318" d="M701.111,1014.849l4.839,16.84a41.443,41.443,0,0,1,5.792-10.71.538.538,0,0,0-.264-.833,36.914,36.914,0,0,1-10.367-5.3Z" fill="#1f1f1f"/>
    <path id="Path_10319" data-name="Path 10319" d="M736.749,1045.881c-6.658,0-18.991-.579-27.985-4.391l1.649,5.76c6.585,3.758,17.266,4.963,26.336,4.963s19.751-1.2,26.339-4.963l1.649-5.764C755.74,1045.3,743.407,1045.881,736.749,1045.881Zm40.342-47.423a.538.538,0,0,0-.895-.531c-6.755,6.653-12.705,11-22.044,13.1-7.227-7.219-12.718-17.043-16.888-31.129a.538.538,0,0,0-1.031,0c-4.17,14.086-9.661,23.91-16.884,31.129-9.342-2.107-15.3-6.452-22.048-13.1a.538.538,0,0,0-.895.531l2.743,9.555c5.254,4.932,10.254,8.42,17.07,10.5a.538.538,0,0,1,.263.85c-4.725,5.911-6.861,11.98-8.432,19.638l.077.269.679.226c8.733,3.95,21.254,4.541,27.943,4.541s19.21-.591,27.943-4.541l.034-.015.66-.265.061-.215c-1.571-7.658-3.711-13.727-8.436-19.638a.538.538,0,0,1,.263-.85c6.816-2.083,11.817-5.571,17.074-10.5ZM737.253,1038a.538.538,0,0,1-1.007,0c-3.419-9.144-7.721-16.022-13.135-21.354a.538.538,0,0,1,0-.766c5.414-5.335,9.716-12.213,13.135-21.357a.538.538,0,0,1,1.007,0c3.419,9.144,7.721,16.023,13.135,21.357a.538.538,0,0,1,0,.766c-5.414,5.331-9.716,12.21-13.136,21.354Z" fill="#1f1f1f"/>
    <path id="Path_10320" data-name="Path 10320" d="M767.547,1031.689l4.839-16.84a36.967,36.967,0,0,1-10.368,5.3.538.538,0,0,0-.264.833,41.448,41.448,0,0,1,5.793,10.71Z" fill="#1f1f1f"/>
  </g>
</svg>
