<svg xmlns="http://www.w3.org/2000/svg" width="251.195" height="152.069" viewBox="0 0 251.195 152.069">
  <g id="Group_2225" data-name="Group 2225" transform="translate(-293.527 -1209.528)">
    <path id="Path_10272" data-name="Path 10272" d="M333.715,1332.887l14.781-8.534,2.049.549,3.081-1.779.549-2.049.057-.033,28.616-14.447,12.939-7.47.868-2.576.613-.354a2.611,2.611,0,0,0,3.881-2.24L468.2,1255.24c.828,1.951.979,4.047-.133,5.411a6.156,6.156,0,0,0,4.323-3.9,6.8,6.8,0,0,0,8.481-4.9,6.156,6.156,0,0,0,5.54-1.793c-1.656.26-3.422-.913-4.734-2.6l4.911-2.836,3.224.864,4.019-2.32.864-3.224,2.186-1.262c3.11,4.132,9.086,6.175,13.56,3.592.822-12.75,31.213-29.948,34.278-32.745-3.955,1.256-34.045,18.976-45.5,13.313-4.473,2.583-5.693,8.78-3.669,13.539l-2.185,1.262-3.224-.864-4.019,2.32-.864,3.224-4.929,2.846c-.828-1.951-.979-4.048.133-5.411a6.156,6.156,0,0,0-4.323,3.9,6.8,6.8,0,0,0-8.481,4.9,6.155,6.155,0,0,0-5.54,1.793c1.657-.26,3.422.913,4.735,2.6l-67.01,38.688a2.607,2.607,0,0,0-3.936,2.273l-.585.338-2.665-.536-12.939,7.47-26.823,17.56-.053.031-2.049-.549L347.716,1320l-.549,2.049-14.781,8.534c-3.374-.182-9.627-.357-14.023.493-6.292,1.216-24.836,9.392-24.836,9.392l17.67,3.882-5.473,17.243s16.353-11.972,20.552-16.812C329.21,1341.4,332.185,1335.9,333.715,1332.887Z" fill="#1f1f1f"/>
    <path id="Path_10273" data-name="Path 10273" d="M504.535,1332.887l-14.781-8.534-2.048.549-3.081-1.779-.549-2.049-.057-.033L455.4,1306.595l-12.939-7.47-.868-2.576-.613-.354a2.611,2.611,0,0,1-3.881-2.24l-67.056-38.715c-.828,1.951-.979,4.047.133,5.411a6.156,6.156,0,0,1-4.323-3.9,6.8,6.8,0,0,1-8.481-4.9,6.156,6.156,0,0,1-5.54-1.793c1.656.26,3.422-.913,4.734-2.6l-4.911-2.836-3.224.864-4.019-2.32-.864-3.224-2.186-1.262c-3.11,4.132-9.086,6.175-13.56,3.592-.822-12.75-31.213-29.948-34.278-32.745,3.955,1.256,34.045,18.976,45.5,13.313,4.474,2.583,5.693,8.78,3.669,13.539l2.185,1.262,3.224-.864,4.018,2.32.864,3.224,4.929,2.846c.828-1.951.979-4.048-.133-5.411a6.156,6.156,0,0,1,4.323,3.9,6.8,6.8,0,0,1,8.481,4.9,6.156,6.156,0,0,1,5.54,1.793c-1.656-.26-3.422.913-4.734,2.6l67.01,38.688a2.607,2.607,0,0,1,3.936,2.273l.585.338,2.665-.536,12.939,7.47,26.823,17.56.053.031,2.049-.549,3.081,1.779.549,2.049,14.781,8.534c3.374-.182,9.627-.357,14.023.493,6.292,1.216,24.836,9.392,24.836,9.392l-17.669,3.882,5.473,17.243s-16.352-11.972-20.552-16.812C509.04,1341.4,506.065,1335.9,504.535,1332.887Z" fill="#1f1f1f"/>
  </g>
</svg>
