<svg xmlns="http://www.w3.org/2000/svg" width="31.417" height="65.537" viewBox="0 0 31.417 65.537">
  <g id="Group_349" data-name="Group 349" transform="translate(-988.283 -262.047)">
    <path id="Path_1392" data-name="Path 1392" d="M1011.5,289.572c-1.558.058-3.275.8-4.667.991-.63.087-.9-.876-.266-.964,1.537-.211,3.264-.92,4.905-1q-.078-2.735-.157-5.471c-1.622.069-3.241.193-4.865.206a.5.5,0,0,1,0-1c1.615-.012,3.225-.135,4.837-.2q-.105-3.664-.21-7.329c-1.872.146-3.747.266-5.627.283a.5.5,0,0,1,0-1c1.87-.017,3.733-.136,5.6-.281-.109-3.39-.431-7.085-2.875-9.4a8.661,8.661,0,0,0-3.141-1.824,6.921,6.921,0,0,0-5.691.182,6.07,6.07,0,0,0-2.355,2.734,16.7,16.7,0,0,0-1.091,6.658q-.016.6-.031,1.195a11.682,11.682,0,0,1,3.723.258.5.5,0,0,1-.266.964,10.8,10.8,0,0,0-3.483-.227q-.105,4-.21,8h4.826a.5.5,0,0,1,0,1h-4.852q-.055,2.09-.11,4.179c-.021.8-.03,1.615-.006,2.435,1.655.141,3.3.361,4.968.386a.5.5,0,0,1,0,1c-1.648-.025-3.281-.241-4.92-.382.175,2.478.777,4.869,2.547,6.519,2.312,2.154,5.806,2.259,8.966,2.24a4.467,4.467,0,0,0,1.689-.228,3.337,3.337,0,0,0,1.438-1.307c1.457-2.2,1.433-5.037,1.357-7.679Q1011.509,290.033,1011.5,289.572Z" fill="#3c484c"/>
    <path id="Path_1393" data-name="Path 1393" d="M1003.066,287.849c-2.846-4.06-3.928-9.644-4.621-14.456-.259-1.8-.4-3.575-.512-5.386a8.765,8.765,0,0,0-.489-2.827c-.081.148-.159.3-.23.453a16.7,16.7,0,0,0-1.09,6.658l-.4,15.365c-.093,3.54,0,7.543,2.589,9.957,2.312,2.154,5.806,2.259,8.966,2.24a4.469,4.469,0,0,0,1.689-.228,3.338,3.338,0,0,0,1.438-1.307,9.923,9.923,0,0,0,1.372-5.258,12.661,12.661,0,0,1-8.706-5.211Z" opacity="0.13"/>
    <path id="Path_1394" data-name="Path 1394" d="M1019.691,283.952c-.017-1.911-3.217-1.913-3.212,0,.019,7.579-.958,18.8-11.909,18.609a17.52,17.52,0,0,1-11.5-5.063c-3.245-3.327-2.139-9.464-2.17-13.576-.011-1.4-2.313-1.4-2.35,0-.133,5.027-1.237,10.882,2.305,15.153,2.591,3.124,7.186,5.338,11.478,6.054-.229,5.579-.417,11.159-.786,16.732a15.808,15.808,0,0,0-3.119.624c-1.739.161-3.231.816-3.851,2.729a1.819,1.819,0,0,0,1.845,2.236q6.195.211,12.389.088c.953-.019,1.989-.781,1.889-1.743-.255-2.453-2.6-3.585-5.329-3.922a158.984,158.984,0,0,0,.349-16.5,13.415,13.415,0,0,0,10.575-5.592C1019.722,295.253,1019.739,289.239,1019.691,283.952Z" fill="#3c484c"/>
  </g>
</svg>
