<svg xmlns="http://www.w3.org/2000/svg" width="44.817" height="58.784" viewBox="0 0 44.817 58.784">
  <g id="Group_352" data-name="Group 352" transform="translate(-34.032 -341.164)">
    <path id="Path_1395" data-name="Path 1395" d="M40.653,352.127c-.077-.687-.161-1.389-.255-2.116-1.058-.1-2.742.1-3.8,0-.087.849-.163,1.7-.245,2.55a32.845,32.845,0,0,1,4.3-.434Z" fill="#a84749"/>
    <path id="Path_1396" data-name="Path 1396" d="M40.418,356.254c.205-.005.422-.013.636-.021-.1-1.124-.205-2.278-.335-3.485a32.212,32.212,0,0,0-4.429.46c-.1,1.09-.2,2.182-.293,3.273C37.522,356.291,39.1,356.287,40.418,356.254Z" fill="#a84749"/>
    <path id="Path_1397" data-name="Path 1397" d="M41.527,362.147c-.142-1.748-.27-3.486-.421-5.294-.233.009-.466.019-.687.026-1.341.043-2.944.037-4.478.238q-.243,2.794-.448,5.59C37.5,362.46,39.511,362.3,41.527,362.147Z" fill="#a84749"/>
    <path id="Path_1398" data-name="Path 1398" d="M42.083,368.013l-.223-2.176c-.107-1.043-.2-2.059-.281-3.071-2.049.15-4.1.319-6.131.574q-.187,2.549-.342,5.1C37.432,368.4,39.758,368.217,42.083,368.013Z" fill="#a84749"/>
    <path id="Path_1399" data-name="Path 1399" d="M43.323,380.1l-.6-5.874c-2.647.091-5.295.182-7.943.24q-.155,3.139-.264,6.279C37.451,380.547,40.384,380.255,43.323,380.1Z" fill="#a84749"/>
    <path id="Path_1400" data-name="Path 1400" d="M44.1,387.629l-.709-6.911c-2.967.158-5.927.456-8.893.651q-.126,3.631-.2,7.264C37.571,388.415,40.827,387.947,44.1,387.629Z" fill="#a84749"/>
    <path id="Path_1401" data-name="Path 1401" d="M34.29,389.257c-.039,2.238-.066,4.475-.068,6.713a51.83,51.83,0,0,0,10.684-.443l-.747-7.28C40.867,388.567,37.588,389.039,34.29,389.257Z" fill="#a84749"/>
    <path id="Path_1402" data-name="Path 1402" d="M42.656,373.6q-.255-2.483-.51-4.966c-2.359.207-4.718.394-7.08.433-.1,1.59-.176,3.18-.256,4.771C37.426,373.779,40.041,373.689,42.656,373.6Z" fill="#a84749"/>
    <path id="Path_1403" data-name="Path 1403" d="M44.094,347.024c-.053-.2-.033-.411-.092-.608-.217-.721-1.219-.743-1.962-.617a.83.83,0,1,1-1.656.056,6.705,6.705,0,0,1-2.7,1.675,2.344,2.344,0,0,1-2.616-3.741,7.213,7.213,0,0,1,2.273-1.907,4.315,4.315,0,0,1,1.56-.687,1.532,1.532,0,0,1,1.52.568c.151.233.213.515.362.75a1.2,1.2,0,0,0,1.551.387,1.87,1.87,0,0,1,2.06-1.509,2.18,2.18,0,0,1,1.779,1.938,2.354,2.354,0,0,1-.705,1.886,4.431,4.431,0,0,0,1.75-.075,1.641,1.641,0,0,1-.009,2.208,2.135,2.135,0,0,1-2.257.473,1.288,1.288,0,0,1-.855-.8Z" fill="#6d9dbf"/>
    <path id="Path_1404" data-name="Path 1404" d="M78.606,395.963c.44-.9.147-3.285.147-4.322l0-11.244c0-2.02.3-4.289-.452-6a25.467,25.467,0,0,0-1.864-2.933l-6.677-10.82a3.846,3.846,0,0,0-1.912-.864c-.871,5.518-.43,12.167-.4,17.817q.048,9.023.541,18.027c.056,1.02,7.548.5,8.324.5.409,0,1.816.346,2.122.077a.762.762,0,0,0,.175-.242Z" fill="#527597"/>
    <path id="Path_1405" data-name="Path 1405" d="M65.636,391.383q0-6.072,0-12.145c0-2.181.3-4.633-.452-6.48a27.919,27.919,0,0,0-1.864-3.167L56.638,357.9a3.715,3.715,0,0,0-1.912-.934c-.861,5.889-.441,12.968-.4,19.024l-5.065,5.023a17.19,17.19,0,0,0-1.864,1.795c-.747,1.047-.451,2.436-.452,3.672l0,6.882c0,.634-.293,2.092.147,2.646a.564.564,0,0,0,.175.148,9.272,9.272,0,0,0,2.122-.047c.516,0,4,.139,6.294.05,1.968.423,6.893.066,7.514.066.409,0,1.816.374,2.122.083a.826.826,0,0,0,.175-.262C65.929,395.075,65.636,392.5,65.636,391.383Z" fill="#527597"/>
    <g id="Group_350" data-name="Group 350">
      <path id="Path_1406" data-name="Path 1406" d="M53.12,389.473l-3.371-.167-.163,2.853,3.555-.026Q53.131,390.8,53.12,389.473Z" fill="#e3e5e3"/>
      <path id="Path_1407" data-name="Path 1407" d="M58.033,389.44l-3.371-.167q-.081,1.426-.163,2.853l3.555-.026Q58.044,390.77,58.033,389.44Z" fill="#e3e5e3"/>
      <path id="Path_1408" data-name="Path 1408" d="M53.131,385.644l-3.371-.167L49.6,388.33l3.555-.026Q53.142,386.974,53.131,385.644Z" fill="#e3e5e3"/>
      <path id="Path_1409" data-name="Path 1409" d="M58.044,385.611l-3.371-.167L54.51,388.3l3.555-.026Q58.055,386.941,58.044,385.611Z" fill="#e3e5e3"/>
      <path id="Path_1410" data-name="Path 1410" d="M62.968,389.473l-3.371-.167-.163,2.853,3.555-.026Q62.979,390.8,62.968,389.473Z" fill="#e3e5e3"/>
      <path id="Path_1411" data-name="Path 1411" d="M62.979,385.644l-3.371-.167-.163,2.853L63,388.3Q62.99,386.974,62.979,385.644Z" fill="#e3e5e3"/>
    </g>
    <g id="Group_351" data-name="Group 351">
      <path id="Path_1412" data-name="Path 1412" d="M72.456,389.784l-2.962-.147q-.071,1.253-.143,2.507l3.124-.023Z" fill="#e3e5e3"/>
      <path id="Path_1413" data-name="Path 1413" d="M76.774,389.755l-2.962-.147-.143,2.507,3.124-.023Z" fill="#e3e5e3"/>
      <path id="Path_1414" data-name="Path 1414" d="M72.466,386.419l-2.962-.147q-.072,1.253-.143,2.507l3.124-.023Z" fill="#e3e5e3"/>
      <path id="Path_1415" data-name="Path 1415" d="M76.784,386.39l-2.962-.147-.143,2.507,3.124-.023Q76.793,387.559,76.784,386.39Z" fill="#e3e5e3"/>
    </g>
    <path id="Path_1416" data-name="Path 1416" d="M78.455,398.42c-9.3.5-18.615.823-27.926,1.152l-6.477.228c-3.339.118-6.684.235-10.02.058l.013-1.359L78.33,397.24Z" fill="#3c484c"/>
  </g>
</svg>
