<svg xmlns="http://www.w3.org/2000/svg" width="212.475" height="148.345" viewBox="0 0 212.475 148.345">
  <g id="Group_2169" data-name="Group 2169" transform="translate(-198.746 -21.24)">
    <path id="Path_9680" data-name="Path 9680" d="M304.984,169.586c-1.9-2.447-8.269-9.676-17.1-9.676-4.008,0-7.919,1.664-12.447,3.59-6.054,2.576-12.915,5.495-22.29,5.495-14.168,0-29.225-8.557-29.225-24.415v-.7h-.7a8.927,8.927,0,0,1-8.917-8.917v-.7h-.7a7.322,7.322,0,0,1-7.314-7.314,14.749,14.749,0,0,1,.786-4.549,31.141,31.141,0,0,0,1.352-9.88c0-8.832-7.229-15.2-9.676-17.1,2.447-1.9,9.676-8.27,9.676-17.1a31.145,31.145,0,0,0-1.352-9.881,14.746,14.746,0,0,1-.786-4.549,7.322,7.322,0,0,1,7.314-7.314h.7v-.7a8.927,8.927,0,0,1,8.917-8.917h.7v-.7c0-15.858,15.057-24.415,29.225-24.415,9.375,0,16.236,2.919,22.29,5.495,4.529,1.927,8.439,3.59,12.447,3.59,8.832,0,15.2-7.229,17.1-9.676,1.9,2.447,8.27,9.676,17.1,9.676,4.009,0,7.919-1.664,12.447-3.59,6.053-2.576,12.915-5.495,22.29-5.495,14.168,0,29.225,8.557,29.225,24.415v.7h.7a8.927,8.927,0,0,1,8.917,8.917v.7h.7a7.322,7.322,0,0,1,7.313,7.313,14.746,14.746,0,0,1-.786,4.549,31.149,31.149,0,0,0-1.352,9.881c0,8.832,7.228,15.2,9.676,17.1-2.447,1.9-9.676,8.269-9.676,17.1a31.145,31.145,0,0,0,1.352,9.88,14.748,14.748,0,0,1,.786,4.549,7.322,7.322,0,0,1-7.313,7.314h-.7v.7a8.927,8.927,0,0,1-8.917,8.917h-.7v.7c0,15.858-15.057,24.415-29.225,24.415-9.375,0-16.236-2.919-22.29-5.495-4.529-1.926-8.439-3.59-12.447-3.59C313.254,159.91,306.886,167.139,304.984,169.586Z" fill="#1f1f1f"/>
    <path id="Path_9681" data-name="Path 9681" d="M304.984,169.586c-1.9-2.447-8.269-9.676-17.1-9.676-4.008,0-7.919,1.664-12.447,3.59-6.054,2.576-12.915,5.495-22.29,5.495-14.168,0-29.225-8.557-29.225-24.415v-.7h-.7a8.927,8.927,0,0,1-8.917-8.917v-.7h-.7a7.322,7.322,0,0,1-7.314-7.314,14.749,14.749,0,0,1,.786-4.549,31.141,31.141,0,0,0,1.352-9.88c0-8.832-7.229-15.2-9.676-17.1,2.447-1.9,9.676-8.27,9.676-17.1a31.145,31.145,0,0,0-1.352-9.881,14.746,14.746,0,0,1-.786-4.549,7.322,7.322,0,0,1,7.314-7.314h.7v-.7a8.927,8.927,0,0,1,8.917-8.917h.7v-.7c0-15.858,15.057-24.415,29.225-24.415,9.375,0,16.236,2.919,22.29,5.495,4.529,1.927,8.439,3.59,12.447,3.59,8.832,0,15.2-7.229,17.1-9.676,1.9,2.447,8.27,9.676,17.1,9.676,4.009,0,7.919-1.664,12.447-3.59,6.053-2.576,12.915-5.495,22.29-5.495,14.168,0,29.225,8.557,29.225,24.415v.7h.7a8.927,8.927,0,0,1,8.917,8.917v.7h.7a7.322,7.322,0,0,1,7.313,7.313,14.746,14.746,0,0,1-.786,4.549,31.149,31.149,0,0,0-1.352,9.881c0,8.832,7.228,15.2,9.676,17.1-2.447,1.9-9.676,8.269-9.676,17.1a31.145,31.145,0,0,0,1.352,9.88,14.748,14.748,0,0,1,.786,4.549,7.322,7.322,0,0,1-7.313,7.314h-.7v.7a8.927,8.927,0,0,1-8.917,8.917h-.7v.7c0,15.858-15.057,24.415-29.225,24.415-9.375,0-16.236-2.919-22.29-5.495-4.529-1.926-8.439-3.59-12.447-3.59C313.254,159.91,306.886,167.139,304.984,169.586Z" fill="#1f1f1f"/>
    <path id="Path_9682" data-name="Path 9682" d="M356.823,165c-8.558,0-14.74-2.63-20.72-5.174-4.73-2.012-9.193-3.911-14.018-3.911-7.239,0-12.927,3.838-16.424,7.059l-.677.624-.677-.624c-3.5-3.22-9.185-7.059-16.424-7.059-4.823,0-9.286,1.9-14.01,3.908C267.89,162.364,261.706,165,253.145,165c-12.229,0-25.225-7.155-25.225-20.415v-4.7h-4.7a4.922,4.922,0,0,1-4.917-4.917v-4.7h-4.7a3.317,3.317,0,0,1-3.313-3.314,10.983,10.983,0,0,1,.627-3.433,35.08,35.08,0,0,0,1.511-11c0-7.239-3.838-12.927-7.059-16.424l-.624-.677.624-.677c3.22-3.5,7.059-9.185,7.059-16.424a35.07,35.07,0,0,0-1.509-10.989,11,11,0,0,1-.629-3.44,3.318,3.318,0,0,1,3.313-3.314h4.7v-4.7a4.922,4.922,0,0,1,4.917-4.917h4.7v-4.7c0-13.26,13-20.415,25.225-20.415,8.56,0,14.744,2.631,20.724,5.176,4.728,2.011,9.192,3.91,14.014,3.91,7.239,0,12.927-3.839,16.424-7.059l.677-.624.677.624c3.5,3.22,9.185,7.059,16.424,7.059,4.822,0,9.282-1.9,14-3.905,5.986-2.547,12.173-5.18,20.733-5.18,12.228,0,25.225,7.155,25.225,20.415v4.7h4.7a4.922,4.922,0,0,1,4.917,4.917v4.7h4.7a3.318,3.318,0,0,1,3.314,3.314,10.96,10.96,0,0,1-.627,3.434,35.087,35.087,0,0,0-1.511,11c0,7.239,3.838,12.927,7.059,16.424l.624.677-.624.677c-3.22,3.5-7.059,9.185-7.059,16.424a35.063,35.063,0,0,0,1.509,10.988,11,11,0,0,1,.629,3.441,3.317,3.317,0,0,1-3.313,3.314h-4.7v4.7a4.922,4.922,0,0,1-4.917,4.917h-4.7v4.7C382.048,157.84,369.051,165,356.823,165ZM322.085,153.91c5.232,0,9.878,1.977,14.8,4.069,5.8,2.467,11.791,5.016,19.94,5.016,11.259,0,23.225-6.454,23.225-18.415v-6.7h6.7a2.92,2.92,0,0,0,2.917-2.917v-6.7h6.7a1.315,1.315,0,0,0,1.314-1.314,9.267,9.267,0,0,0-.55-2.883,36.864,36.864,0,0,1-1.588-11.546c0-7.427,3.662-13.3,6.979-17.1-3.318-3.8-6.979-9.674-6.979-17.1a36.86,36.86,0,0,1,1.587-11.544,9.266,9.266,0,0,0,.55-2.885,1.315,1.315,0,0,0-1.313-1.314h-6.7v-6.7a2.92,2.92,0,0,0-2.917-2.916h-6.7v-6.7c0-11.961-11.966-18.415-23.225-18.415-8.151,0-14.148,2.552-19.947,5.02-4.918,2.091-9.561,4.066-14.79,4.066-7.427,0-13.3-3.662-17.1-6.98-3.8,3.318-9.674,6.98-17.1,6.98-5.229,0-9.876-1.977-14.8-4.069-5.8-2.467-11.79-5.017-19.942-5.017-11.259,0-23.225,6.454-23.225,18.415v6.7h-6.7a2.92,2.92,0,0,0-2.917,2.917v6.7h-6.7a1.315,1.315,0,0,0-1.314,1.314,9.279,9.279,0,0,0,.55,2.883,36.864,36.864,0,0,1,1.588,11.546c0,7.427-3.662,13.3-6.98,17.1,3.318,3.8,6.98,9.674,6.98,17.1a36.854,36.854,0,0,1-1.587,11.545,9.29,9.29,0,0,0-.55,2.885,1.315,1.315,0,0,0,1.313,1.314h6.7v6.7a2.92,2.92,0,0,0,2.917,2.917h6.7v6.7c0,11.961,11.966,18.415,23.225,18.415,8.153,0,14.146-2.55,19.942-5.017,4.92-2.092,9.565-4.068,14.8-4.068,7.427,0,13.3,3.662,17.1,6.979C308.783,157.572,314.659,153.91,322.085,153.91Z" fill="#fff"/>
  </g>
</svg>
