<svg xmlns="http://www.w3.org/2000/svg" width="20.784" height="38.64" viewBox="0 0 20.784 38.64">
  <g id="Group_291" data-name="Group 291" transform="translate(-396.807 -475.388)">
    <g id="Group_285" data-name="Group 285">
      <path id="Path_1009" data-name="Path 1009" d="M409.809,497.271c1.375-2.15,2.127-4.382,1.031-6.825-.91-2.02-2.888-1.215-4.582-1.582-3.148-.677-1.045-4.945-.8-6.823a9.222,9.222,0,0,0-1.746-6.566c-.2-.266-1.376.132-1.144.442a9.134,9.134,0,0,1,1.551,7.08c-.365,1.818-1.408,3.664-.269,5.406.825,1.264,2.453,1.132,3.752,1.105,1.664-.032,2.267,1.512,2.547,2.9.345,1.717-.565,3.516-1.455,4.913-.26.4.943.231,1.118-.047Z" fill="#9c9b9b"/>
      <path id="Path_1010" data-name="Path 1010" d="M409.445,497.131c.216-2.895-1.538-6.339-4.781-4.62-2.569,1.364-2.728-1.744-3.214-3.379a6.824,6.824,0,0,0-3.557-3.936c-.285-.136-1.408.312-.995.508a6.642,6.642,0,0,1,3.5,4.376c.27,1.1.409,2.823,1.685,3.265a3.56,3.56,0,0,0,3.034-.459c2.575-1.455,3.22,3.078,3.108,4.569-.016.231,1.193.072,1.222-.325Z" fill="#9c9b9b"/>
    </g>
    <g id="Group_286" data-name="Group 286">
      <path id="Path_1011" data-name="Path 1011" d="M417.275,496.386a2.54,2.54,0,1,1-2.54-2.538A2.54,2.54,0,0,1,417.275,496.386Z" fill="#fff"/>
      <path id="Path_1012" data-name="Path 1012" d="M414.736,499.243a2.856,2.856,0,1,1,2.855-2.857,2.856,2.856,0,0,1-2.855,2.857Zm0-5.079a2.223,2.223,0,1,0,2.223,2.222,2.223,2.223,0,0,0-2.223-2.222Z" fill="#6f6f6e"/>
    </g>
    <g id="Group_287" data-name="Group 287">
      <path id="Path_1013" data-name="Path 1013" d="M414.93,489.384a1.368,1.368,0,1,1-1.367-1.368A1.368,1.368,0,0,1,414.93,489.384Z" fill="#fff"/>
      <path id="Path_1014" data-name="Path 1014" d="M413.563,491.067a1.685,1.685,0,1,1,1.683-1.684,1.685,1.685,0,0,1-1.683,1.684Zm0-2.736a1.051,1.051,0,1,0,1.051,1.052,1.051,1.051,0,0,0-1.051-1.052Z" fill="#6f6f6e"/>
    </g>
    <path id="Path_1015" data-name="Path 1015" d="M408.879,510.671a1.687,1.687,0,0,1-1.685-1.685v-9.041a1.684,1.684,0,1,1,3.367,0v9.041a1.686,1.686,0,0,1-1.682,1.685Zm0-11.775a1.05,1.05,0,0,0-1.051,1.049v9.041a1.051,1.051,0,1,0,2.1,0v-9.041a1.05,1.05,0,0,0-1.051-1.048Z" fill="#9c9b9b"/>
    <g id="Group_288" data-name="Group 288">
      <path id="Path_1016" data-name="Path 1016" d="M413.114,501.172a.919.919,0,1,1-.919-.916.919.919,0,0,1,.919.916Z" fill="#fff"/>
      <path id="Path_1017" data-name="Path 1017" d="M412.2,502.249a1.076,1.076,0,1,1,1.078-1.077A1.076,1.076,0,0,1,412.2,502.249Zm0-1.839a.763.763,0,1,0,.761.761.763.763,0,0,0-.761-.761Z" fill="#6f6f6e"/>
    </g>
    <path id="Path_1018" data-name="Path 1018" d="M413.381,513.329c0,.385-2.224.7-4.968.7s-4.967-.314-4.967-.7,2.223-.7,4.967-.7S413.381,512.946,413.381,513.329Z" fill="#9c9b9b" opacity="0.22"/>
  </g>
</svg>
