<svg xmlns="http://www.w3.org/2000/svg" width="172.003" height="121.206" viewBox="0 0 172.003 121.206">
  <g id="Group_2153" data-name="Group 2153" transform="translate(-1441.24 -1373.166)">
    <ellipse id="Ellipse_117" data-name="Ellipse 117" cx="86.002" cy="60.603" rx="86.002" ry="60.603" transform="translate(1441.24 1373.166)" fill="#1f1f1f"/>
    <ellipse id="Ellipse_118" data-name="Ellipse 118" cx="86.002" cy="60.603" rx="86.002" ry="60.603" transform="translate(1441.24 1373.166)" fill="#1f1f1f"/>
    <path id="Path_9635" data-name="Path 9635" d="M1527.242,1487.372c-32.234,0-51.782-3.646-63.383-11.819-10.948-7.715-15.619-20.211-15.619-41.784s4.671-34.068,15.619-41.782c11.6-8.175,31.147-11.82,63.383-11.82s51.782,3.646,63.382,11.82c10.948,7.714,15.619,20.21,15.619,41.782s-4.671,34.069-15.619,41.784C1579.024,1483.727,1559.478,1487.372,1527.242,1487.372Zm0-105.206c-31.8,0-50.989,3.533-62.23,11.455-10.354,7.295-14.771,19.3-14.771,40.147s4.418,32.854,14.771,40.149c11.241,7.922,30.435,11.454,62.23,11.454s50.989-3.532,62.23-11.454c10.354-7.3,14.771-19.3,14.771-40.149s-4.418-32.853-14.771-40.147C1578.23,1385.7,1559.038,1382.166,1527.242,1382.166Z" fill="#fff"/>
    <path id="Path_9636" data-name="Path 9636" d="M1527.242,1491.872c-33.364,0-52.929-3.679-65.419-12.3-12.506-8.632-18.083-22.759-18.083-45.8s5.577-37.17,18.083-45.8c12.49-8.621,32.055-12.3,65.419-12.3s52.928,3.679,65.418,12.3c12.506,8.633,18.083,22.759,18.083,45.8s-5.577,37.17-18.083,45.8C1580.17,1488.193,1560.605,1491.872,1527.242,1491.872Zm0-113.206c-32.272,0-51.923,3.63-63.715,11.769-11.767,8.122-16.787,21.082-16.787,43.334s5.021,35.212,16.787,43.334c11.792,8.14,31.442,11.77,63.715,11.77s51.922-3.63,63.714-11.77c11.767-8.122,16.787-21.082,16.787-43.334s-5.02-35.212-16.787-43.334C1579.165,1382.3,1559.515,1378.666,1527.242,1378.666Z" fill="#fff"/>
  </g>
</svg>
