<svg xmlns="http://www.w3.org/2000/svg" width="110.738" height="118.23" viewBox="0 0 110.738 118.23">
  <g id="Group_2210" data-name="Group 2210" transform="translate(-517.534 -1508.078)">
    <path id="Path_9915" data-name="Path 9915" d="M584.454,1564.091c17.522,2.231,34.458,2.386,43.817-24.628-4.867,4.054-14.614,5.741-24.812,8.287,7.3-7.558,13.639-15.156,19.583-17.344-28.074-5.4-36.408,9.343-43.237,25.633,9.287-25.371,1.7-35.415-6.9-47.962-8.6,12.547-16.19,22.59-6.9,47.962-6.829-16.29-15.163-31.034-43.237-25.633,5.944,2.188,12.279,9.785,19.583,17.344-10.2-2.546-19.945-4.233-24.812-8.287,9.359,27.014,26.3,26.859,43.817,24.628-26.616,4.643-31.521,16.235-38.085,29.959,15.167,1.177,27.658,2.725,44.987-18-10.693,14.059-19.3,28.649-.58,50.261-1.077-6.242,2.335-15.527,5.229-25.631,2.894,10.1,6.306,19.39,5.229,25.631,18.715-21.612,10.113-36.2-.58-50.261,17.329,20.728,29.82,19.18,44.987,18C615.975,1580.326,611.07,1568.734,584.454,1564.091Zm26.406-28.188c-5.719,5.667-12,13.03-19.2,18.659,8.474-3.42,17.991-5.178,25.759-7.3-9.159,14.505-22.467,14.81-36.108,13.272C586.8,1547.955,593.719,1536.581,610.861,1535.9ZM572.9,1520.4c12.46,12.943,4.671,31.116,0,39.647C568.232,1551.513,560.443,1533.339,572.9,1520.4Zm3.211,45.337a3.211,3.211,0,1,1-3.211-3.211,3.211,3.211,0,0,1,3.211,3.211Zm-47.729-18.469c7.768,2.119,17.285,3.877,25.758,7.3-7.2-5.629-13.479-12.992-19.2-18.659,17.141.679,24.059,12.052,29.547,24.634-13.64,1.537-26.949,1.233-36.107-13.272Zm5.55,40.626c4.979-17.262,24.612-19.6,34.335-19.824C563.218,1576.377,551.373,1592.21,533.935,1587.891Zm45.528,25.119c-2.049-7.787-5.284-16.908-6.56-25.956-1.276,9.048-4.511,18.169-6.56,25.956-7.983-15.184-1.592-26.862,6.56-37.906,8.152,11.044,14.543,22.722,6.56,37.906Zm-1.927-44.943c9.723.22,29.357,2.562,34.335,19.824-17.438,4.319-29.283-11.513-34.335-19.824Z" fill="#1f1f1f"/>
    <path id="Path_9916" data-name="Path 9916" d="M556.707,1533.625s-.609-15.782-10.939-15.209C537.283,1518.888,551.794,1525.877,556.707,1533.625Z" fill="#1f1f1f"/>
    <path id="Path_9917" data-name="Path 9917" d="M545.787,1612.38c4.651,7.112,3.448-8.949,7.7-17.078C553.489,1595.3,540.125,1603.72,545.787,1612.38Z" fill="#1f1f1f"/>
    <path id="Path_9918" data-name="Path 9918" d="M608.512,1567.25s13.972,7.364,18.64-1.869C630.986,1557.8,617.678,1566.87,608.512,1567.25Z" fill="#1f1f1f"/>
    <path id="Path_9919" data-name="Path 9919" d="M600.037,1518.417c-10.33-.574-10.939,15.209-10.939,15.209C594.011,1525.877,608.522,1518.888,600.037,1518.417Z" fill="#1f1f1f"/>
    <path id="Path_9920" data-name="Path 9920" d="M537.294,1567.25c-9.166-.381-22.475-9.453-18.64-1.869C523.321,1574.615,537.294,1567.25,537.294,1567.25Z" fill="#1f1f1f"/>
    <path id="Path_9921" data-name="Path 9921" d="M592.316,1595.3c4.253,8.129,3.051,24.19,7.7,17.078C605.68,1603.72,592.316,1595.3,592.316,1595.3Z" fill="#1f1f1f"/>
  </g>
</svg>
