<svg xmlns="http://www.w3.org/2000/svg" width="181.006" height="123.814" viewBox="0 0 181.006 123.814">
  <g id="Group_2159" data-name="Group 2159" transform="translate(-1044.105 -1371.862)">
    <path id="Path_9647" data-name="Path 9647" d="M1082.687,1495.677a26.754,26.754,0,0,1-25.969-20.876l-11.992-54.507a26.59,26.59,0,0,1,24.36-32.255q1.16-.07,2.456-.141c12.572-.7,35.935-2,63.065-16.036,27.131,14.033,50.489,15.334,63.058,16.035q1.3.073,2.464.141a26.59,26.59,0,0,1,24.36,32.255L1212.5,1474.8a26.753,26.753,0,0,1-25.969,20.876Z" fill="#1f1f1f"/>
    <path id="Path_9648" data-name="Path 9648" d="M1082.687,1495.677a26.754,26.754,0,0,1-25.969-20.876l-11.992-54.507a26.59,26.59,0,0,1,24.36-32.255q1.16-.07,2.456-.141c12.572-.7,35.935-2,63.065-16.036,27.131,14.033,50.489,15.334,63.058,16.035q1.3.073,2.464.141a26.59,26.59,0,0,1,24.36,32.255L1212.5,1474.8a26.753,26.753,0,0,1-25.969,20.876Z" fill="#1f1f1f"/>
    <path id="Path_9649" data-name="Path 9649" d="M1186.53,1488.677H1082.687a19.711,19.711,0,0,1-19.132-15.382l-11.991-54.506a19.592,19.592,0,0,1,17.947-23.764l2.427-.139c12.359-.689,35.357-1.973,62.235-14.979l.436-.211.436.211c26.879,13.007,49.874,14.29,62.228,14.979.9.051,1.688.095,2.437.14a19.591,19.591,0,0,1,17.945,23.764l-11.991,54.507a19.71,19.71,0,0,1-19.132,15.38Zm-51.922-106.759c-27.051,12.985-50.127,14.271-62.556,14.965l-2.424.139a17.592,17.592,0,0,0-16.112,21.338l11.991,54.506a17.7,17.7,0,0,0,17.179,13.812H1186.53a17.7,17.7,0,0,0,17.179-13.811l11.991-54.507a17.591,17.591,0,0,0-16.113-21.338c-.745-.045-1.534-.089-2.373-.136-12.48-.7-35.552-1.983-62.605-14.968Z" fill="#fff"/>
    <path id="Path_9650" data-name="Path 9650" d="M1186.53,1493.177H1082.687a24.239,24.239,0,0,1-23.527-18.914l-11.991-54.507a24.091,24.091,0,0,1,22.07-29.223l2.444-.14c12.385-.692,35.433-1.977,62.255-15.386l.671-.335.671.335c26.823,13.409,49.865,14.694,62.245,15.385q1.3.073,2.456.142a24.091,24.091,0,0,1,22.068,29.222l-11.991,54.507a24.238,24.238,0,0,1-23.527,18.914Zm-51.922-115.152c-27.09,13.375-50.261,14.667-62.756,15.364l-2.437.139a21.094,21.094,0,0,0-19.317,25.584l11.991,54.507a21.221,21.221,0,0,0,20.6,16.559H1186.53a21.219,21.219,0,0,0,20.6-16.559l11.991-54.507a21.093,21.093,0,0,0-19.321-25.583c-.767-.047-1.578-.093-2.44-.14-12.494-.7-35.66-1.989-62.749-15.364Z" fill="#fff"/>
  </g>
</svg>
