<svg xmlns="http://www.w3.org/2000/svg" xmlns:xlink="http://www.w3.org/1999/xlink" width="93.06" height="95.124" viewBox="0 0 93.06 95.124">
  <defs>
    <radialGradient id="radial-gradient" cx="0.5" cy="0.5" r="0.502" gradientTransform="translate(0.004) scale(0.992 1)" gradientUnits="objectBoundingBox">
      <stop offset="0" stop-color="#46d4ff"/>
      <stop offset="1" stop-color="#86e3ff"/>
    </radialGradient>
  </defs>
  <g id="Group_2429" data-name="Group 2429" transform="translate(-273.662 -118.04)">
    <path id="Path_11173" data-name="Path 11173" d="M307.793,204.439a38.765,38.765,0,0,0,5.358-11.992,55.06,55.06,0,0,1-25.645-13.217c-8.018-7.236-12.617-15.627-12.617-23.022a31.461,31.461,0,0,1,2.973-13.021,37.553,37.553,0,0,1,8.722-11.894,43.3,43.3,0,0,1,14.208-8.673,57.853,57.853,0,0,1,38.8,0,43.3,43.3,0,0,1,14.208,8.674,37.553,37.553,0,0,1,8.722,11.894,31.46,31.46,0,0,1,2.973,13.021c0,7.429-4.634,15.851-12.713,23.109-7.769,6.979-17.461,11.819-26.663,13.33a73.872,73.872,0,0,1-16.728,13.589l-5.109,2.931Z" fill="url(#radial-gradient)"/>
    <path id="Path_11174" data-name="Path 11174" d="M320.192,120.5c28.632,0,44.074,19.288,44.074,35.71,0,15.009-19.887,32.413-38.783,35.3-6.865,8.022-16.7,13.667-16.7,13.667a39.948,39.948,0,0,0,5.879-13.706c-18.823-2.994-38.541-20.312-38.541-35.257,0-16.421,15.442-35.71,44.074-35.71m0-2.456a56.016,56.016,0,0,0-19.833,3.428,44.521,44.521,0,0,0-14.608,8.921,38.774,38.774,0,0,0-9,12.282,32.7,32.7,0,0,0-3.085,13.534,25.612,25.612,0,0,0,3.7,12.606,46.817,46.817,0,0,0,9.327,11.328,60.025,60.025,0,0,0,12.9,8.844,51.594,51.594,0,0,0,12.029,4.4,36.451,36.451,0,0,1-4.807,10.325l-7.023,9.457L310,207.3a75.685,75.685,0,0,0,16.75-13.516,50.262,50.262,0,0,0,13.865-4.707A60.032,60.032,0,0,0,353.6,180.23a46.947,46.947,0,0,0,9.4-11.364,25.644,25.644,0,0,0,3.725-12.658,32.7,32.7,0,0,0-3.085-13.534,38.774,38.774,0,0,0-9-12.282,44.521,44.521,0,0,0-14.608-8.921,56.016,56.016,0,0,0-19.832-3.428Z" fill="#fff"/>
  </g>
</svg>
