<svg xmlns="http://www.w3.org/2000/svg" width="51.383" height="42.377" viewBox="0 0 51.383 42.377">
  <g id="Group_211" data-name="Group 211" transform="translate(-409.918 -273.629)">
    <path id="Path_949" data-name="Path 949" d="M429.567,316.006l-1.891-7.26s-15.929-.065-17.483-10.186,3.108-25.7,23.311-24.9,30.379,10.6,27.234,18.516-8.351,19.433-25.129,17.242Z" fill="#a84749"/>
    <g id="Group_210" data-name="Group 210">
      <path id="Path_950" data-name="Path 950" d="M434.022,298.713s-.307-.4-.822-4.1-1.409-11.5-.651-13.438c0,0,.112-.51,1.327-.412s2.881.246,2.8,1.314-.082,6.257-.5,11.855c-.08,1.079-.667,4.266-.667,4.266S435.9,299.036,434.022,298.713Z" fill="#fff"/>
      <path id="Path_951" data-name="Path 951" d="M435.547,300.3a1.333,1.333,0,0,0-.939-.419,2.195,2.195,0,0,0-.53.057,1.614,1.614,0,0,0-1.21,1.091,1.882,1.882,0,0,0,.295,1.587,1.728,1.728,0,0,0,1.292.768c.03,0,.061,0,.091,0a1.332,1.332,0,0,0,1.332-1.283l.031-.841a1.333,1.333,0,0,0-.362-.963Z" fill="#fff"/>
    </g>
  </g>
</svg>
