<svg xmlns="http://www.w3.org/2000/svg" width="99.781" height="100.87" viewBox="0 0 99.781 100.87">
  <g id="Group_2237" data-name="Group 2237" transform="translate(-686.859 -1258.529)">
    <path id="Path_10321" data-name="Path 10321" d="M746.714,1280.587a28.582,28.582,0,0,0-19.928,0c-2.766-6.419,12.064-8.985,18.179-4.794C746.737,1277,747.544,1278.668,746.714,1280.587Z" fill="#1f1f1f"/>
    <g id="Group_2236" data-name="Group 2236">
      <path id="Path_10322" data-name="Path 10322" d="M766.863,1341.825c-.7,2.233-.267.852-2.377,7.516-4.288,1.6-9.354.447-11.934-2.658-3.72,4.489-12.068,4.5-15.8,0-3.741,4.5-12.084,4.491-15.806,0-2.554,3.075-7.6,4.269-11.93,2.658-2.144-6.772-1.673-5.283-2.377-7.516a58.1,58.1,0,0,0,7.116,1.167c11.526,1.216,33.934,1.273,45.994,0A58.079,58.079,0,0,0,766.863,1341.825Z" fill="#1f1f1f"/>
      <path id="Path_10323" data-name="Path 10323" d="M763.255,1353.229l-1.214,3.837s-9.643,2.334-25.291,2.334-25.291-2.334-25.291-2.334l-1.214-3.837c3.852.946,8.29-.142,10.7-3.042,3.72,4.488,12.064,4.5,15.806,0,3.734,4.505,12.083,4.488,15.8,0C754.977,1353.107,759.43,1354.168,763.255,1353.229Z" fill="#1f1f1f"/>
    </g>
    <path id="Path_10324" data-name="Path 10324" d="M758.75,1313.251h0a141.218,141.218,0,0,1-9.909,28.875q-4.966.19-10.937.2c9.284-13.425,18.409-43.807-1.159-43.807s-10.442,30.382-1.159,43.807c-3.975-.008-7.63-.075-10.937-.2a141.221,141.221,0,0,1-9.909-28.875h0a41,41,0,0,1-1.151-10.984l0-.008c.566-12.889,9.723-21.882,23.155-21.882,13.5,0,22.583,9.016,23.155,21.878,0,0,0,.008-.008.012a41.01,41.01,0,0,1-1.147,10.985Z" fill="#1f1f1f"/>
    <path id="Path_10325" data-name="Path 10325" d="M715.078,1341.532a55.652,55.652,0,0,1-8.049-1.238l-2.714-.562c-6.1-5.285-15.371-14.754-17.044-24.777-2.531-15.181,7.167-18.274,13.635-18.274a17.028,17.028,0,0,1,11.214,4.153,38.49,38.49,0,0,0,.858,11.645c-6.084-2-12.933,1.606-11.51,10.771C702.586,1330.461,710.446,1337.779,715.078,1341.532Z" fill="#1f1f1f"/>
    <path id="Path_10326" data-name="Path 10326" d="M786.229,1314.956c-1.673,10.023-10.941,19.493-17.044,24.777a79.574,79.574,0,0,1-10.763,1.8c4.632-3.754,12.491-11.072,13.611-18.282,1.262-8.152-3.92-11.309-8.125-11.309a10.774,10.774,0,0,0-3.386.538c.21-1.06.4-2.124.562-3.184a33.911,33.911,0,0,0,.3-8.461,17.037,17.037,0,0,1,11.214-4.153C779.057,1296.681,788.756,1299.775,786.229,1314.956Z" fill="#1f1f1f"/>
    <path id="Path_10327" data-name="Path 10327" d="M745.1,1269.768a9.834,9.834,0,0,1-.783,3.843,20.043,20.043,0,0,0-15.134,0,9.834,9.834,0,0,1-.783-3.845c0-3.554,4.2-8.014,7.336-10.848a1.512,1.512,0,0,1,2.027,0C740.9,1261.753,745.1,1266.214,745.1,1269.768Z" fill="#1f1f1f"/>
  </g>
</svg>
