<svg xmlns="http://www.w3.org/2000/svg" width="195.156" height="138.455" viewBox="0 0 195.156 138.455">
  <g id="Group_2168" data-name="Group 2168" transform="translate(-1021.017 -26.185)">
    <path id="Path_9677" data-name="Path 9677" d="M1118.6,164.641c-14.662,0-56.112-4.91-76.7-10.563a11.535,11.535,0,0,0-15.345-14.333c-3.321-10.813-5.532-28.452-5.532-44.331s2.211-33.518,5.532-44.331a11.408,11.408,0,0,0,4.418.877,11.536,11.536,0,0,0,10.926-15.21c20.589-5.653,62.04-10.563,76.7-10.563s56.111,4.91,76.7,10.563a11.535,11.535,0,0,0,15.345,14.334c3.32,10.812,5.532,28.45,5.532,44.331s-2.211,33.519-5.532,44.331a11.412,11.412,0,0,0-4.418-.876,11.536,11.536,0,0,0-10.926,15.21C1174.707,159.73,1133.257,164.641,1118.6,164.641Z" fill="#1f1f1f"/>
    <path id="Path_9678" data-name="Path 9678" d="M1118.6,164.641c-14.662,0-56.112-4.91-76.7-10.563a11.535,11.535,0,0,0-15.345-14.333c-3.321-10.813-5.532-28.452-5.532-44.331s2.211-33.518,5.532-44.331a11.408,11.408,0,0,0,4.418.877,11.536,11.536,0,0,0,10.926-15.21c20.589-5.653,62.04-10.563,76.7-10.563s56.111,4.91,76.7,10.563a11.535,11.535,0,0,0,15.345,14.334c3.32,10.812,5.532,28.45,5.532,44.331s-2.211,33.519-5.532,44.331a11.412,11.412,0,0,0-4.418-.876,11.536,11.536,0,0,0-10.926,15.21C1174.707,159.73,1133.257,164.641,1118.6,164.641Z" fill="#1f1f1f"/>
    <path id="Path_9679" data-name="Path 9679" d="M1118.6,160.641c-12.752,0-49.782-4.175-71.333-9.32l-.766-.183,0-.787a15.554,15.554,0,0,0-15.527-15.482c-.262,0-.52.006-.78.019l-.826.04-.194-.8c-2.56-10.636-4.149-25.469-4.149-38.709s1.59-28.072,4.149-38.708l.194-.8.826.04q.388.019.78.019A15.553,15.553,0,0,0,1046.5,40.476l0-.787.766-.183c21.553-5.145,58.583-9.32,71.333-9.32s49.779,4.175,71.333,9.32l.766.183,0,.787a15.553,15.553,0,0,0,15.527,15.483c.262,0,.52-.006.78-.019l.826-.04.194.8c2.559,10.634,4.149,25.466,4.149,38.709s-1.59,28.071-4.149,38.709l-.194.8-.826-.04c-.26-.013-.519-.019-.78-.019a15.554,15.554,0,0,0-15.527,15.482l0,.787-.766.183C1168.377,156.465,1131.347,160.641,1118.6,160.641Zm-70.121-11.089c21.522,5.033,57.608,9.089,70.121,9.089s48.6-4.056,70.121-9.089a17.56,17.56,0,0,1,17.507-16.684h.041a181.426,181.426,0,0,0,0-74.91h-.041a17.561,17.561,0,0,1-17.508-16.685c-21.524-5.033-57.609-9.089-70.12-9.089s-48.6,4.056-70.12,9.089a17.561,17.561,0,0,1-17.508,16.685h-.041a181.387,181.387,0,0,0,0,74.91h.041a17.56,17.56,0,0,1,17.507,16.684Z" fill="#fff"/>
  </g>
</svg>
