<svg xmlns="http://www.w3.org/2000/svg" width="21.683" height="27.132" viewBox="0 0 21.683 27.132">
  <g id="Group_499" data-name="Group 499" transform="translate(-91.985 -702.047)">
    <g id="Group_496" data-name="Group 496">
      <rect id="Rectangle_283" data-name="Rectangle 283" width="4.775" height="0.513" transform="translate(103.63 707.891) rotate(-44.923)" fill="#575756"/>
      <g id="Group_493" data-name="Group 493">
        <path id="Path_1700" data-name="Path 1700" d="M107.917,705.42a1.023,1.023,0,1,1,0-1.446A1.024,1.024,0,0,1,107.917,705.42Z" fill="#fff"/>
        <path id="Path_1701" data-name="Path 1701" d="M107.191,705.874a1.176,1.176,0,1,1,.831-.346A1.176,1.176,0,0,1,107.191,705.874Zm0-2.048a.872.872,0,1,0,.618.255.872.872,0,0,0-.618-.255Z" fill="#3c3c3b"/>
      </g>
      <g id="Group_494" data-name="Group 494">
        <path id="Path_1702" data-name="Path 1702" d="M105.166,707.788c0,.841-1.2,1.521-2.682,1.521s-2.679-.68-2.679-1.521,1.2-1.521,2.679-1.521S105.166,706.949,105.166,707.788Z" fill="#3c3c3b"/>
        <path id="Path_1703" data-name="Path 1703" d="M102.484,709.84c-1.8,0-3.208-.9-3.208-2.052s1.41-2.05,3.208-2.05,3.211.9,3.211,2.05S104.285,709.84,102.484,709.84Zm0-3.046c-1.211,0-2.151.533-2.151.994s.94.992,2.151.992,2.154-.533,2.154-.992-.94-.994-2.154-.994Z" fill="#3c3c3b"/>
      </g>
      <rect id="Rectangle_284" data-name="Rectangle 284" width="0.699" height="6.526" transform="translate(96.824 703.902) rotate(-44.955)" fill="#3c3c3b"/>
      <g id="Group_495" data-name="Group 495">
        <path id="Path_1704" data-name="Path 1704" d="M98.06,702.667a1.4,1.4,0,1,1-.989-.41,1.4,1.4,0,0,1,.989.41Z" fill="#fff"/>
        <path id="Path_1705" data-name="Path 1705" d="M97.071,705.263a1.608,1.608,0,1,1,1.134-.471A1.608,1.608,0,0,1,97.071,705.263Zm0-2.8a1.193,1.193,0,1,0,1.1.737,1.193,1.193,0,0,0-1.1-.737Z" fill="#3c3c3b"/>
      </g>
    </g>
    <path id="Path_1706" data-name="Path 1706" d="M98.776,710.048l1.489-1.891-1.991-1.842,3.224,1.466.385-1.95.8,2L104,705.966l.85,1.935,1.9-1.056-2.22,2.43a4.86,4.86,0,0,0-5.759.773Z" fill="#93c01f"/>
    <path id="Path_1707" data-name="Path 1707" d="M102.507,707.5h.634a10.717,10.717,0,0,1,7.011,2.819,11.217,11.217,0,0,1,2.263,2.925,8.992,8.992,0,0,1,.692,1.659l-.06.03h-4.055l-.89-1.221a6.945,6.945,0,0,0-5.022-2.354h-.211c-.02,0-.029-.01-.029-.03l-.061.03h-.21a6.934,6.934,0,0,0-6.726,6.727v.149a.264.264,0,0,1-.029.121.27.27,0,0,1,.029.121v.121a6.814,6.814,0,0,0,1.644,4.282,7.031,7.031,0,0,0,5.322,2.473,6.961,6.961,0,0,0,5.655-2.865,2.714,2.714,0,0,0,.212-.3h-7.208c-.041,0-.061-.026-.061-.076v-3.724c0-.04.021-.059.061-.059h12.137c.041.008.061.028.061.059v.333a10.712,10.712,0,0,1-1.96,5.882,11.81,11.81,0,0,1-2.8,2.742,10.656,10.656,0,0,1-5.7,1.838h-.693a10.655,10.655,0,0,1-7.071-2.88,10.118,10.118,0,0,1-2.021-2.562,10.233,10.233,0,0,1-1.432-5.079v-.635a10.7,10.7,0,0,1,2.85-7.044,11.618,11.618,0,0,1,3.045-2.32,10.761,10.761,0,0,1,4.627-1.16Z" fill="#93c01f"/>
    <path id="Path_1708" data-name="Path 1708" d="M108.265,718.435l-6.571-4.141-.21-.161-.143,7.947Z" fill="#3f3f3e"/>
  </g>
</svg>
