<svg xmlns="http://www.w3.org/2000/svg" width="18.913" height="35.802" viewBox="0 0 18.913 35.802">
  <g id="Group_404" data-name="Group 404" transform="translate(-517.43 -184.801)">
    <path id="Path_1323" data-name="Path 1323" d="M526.053,185.376a.5.5,0,1,1-.333-.194.5.5,0,0,1,.333.194Z" fill="none" stroke="#868686" stroke-miterlimit="10" stroke-width="0.75"/>
    <path id="Path_1324" data-name="Path 1324" d="M518.161,192.027a.649.649,0,0,1-.52-.258.656.656,0,0,1,.123-.915.669.669,0,0,1,.916.126.652.652,0,0,1-.519,1.047Zm0-1a.35.35,0,0,0-.278.561.355.355,0,0,0,.488.067.344.344,0,0,0,.068-.489.349.349,0,0,0-.278-.138Z" fill="#868686"/>
    <path id="Path_1325" data-name="Path 1325" d="M522.654,186.7a.5.5,0,1,1-.332-.2.5.5,0,0,1,.332.2Z" fill="none" stroke="#868686" stroke-miterlimit="10" stroke-width="0.75"/>
    <g id="Group_387" data-name="Group 387">
      <g id="Group_382" data-name="Group 382">
        <path id="Path_1326" data-name="Path 1326" d="M524.549,211.361a1.384,1.384,0,1,1-1.381-1.386,1.384,1.384,0,0,1,1.381,1.386Z" fill="#fff"/>
        <path id="Path_1327" data-name="Path 1327" d="M523.168,212.946a1.587,1.587,0,1,1,1.583-1.585,1.587,1.587,0,0,1-1.583,1.585Zm0-2.769a1.182,1.182,0,1,0,1.179,1.184,1.182,1.182,0,0,0-1.179-1.184Z" fill="#6f6f6e"/>
      </g>
      <g id="Group_383" data-name="Group 383">
        <path id="Path_1328" data-name="Path 1328" d="M523.671,216.465a2.217,2.217,0,1,1-.649-1.57,2.218,2.218,0,0,1,.649,1.57Z" fill="#fff"/>
        <path id="Path_1329" data-name="Path 1329" d="M521.452,218.886a2.421,2.421,0,1,1,2.42-2.42,2.421,2.421,0,0,1-2.42,2.42Zm0-4.438a2.017,2.017,0,1,0,2.016,2.018,2.017,2.017,0,0,0-2.016-2.018Z" fill="#6f6f6e"/>
      </g>
      <g id="Group_384" data-name="Group 384">
        <path id="Path_1330" data-name="Path 1330" d="M526.473,214.245a.957.957,0,1,1-.958-.958.957.957,0,0,1,.958.958Z" fill="#fff"/>
        <path id="Path_1331" data-name="Path 1331" d="M525.515,215.4a1.16,1.16,0,1,1,1.16-1.16,1.16,1.16,0,0,1-1.16,1.16Zm0-1.916a.756.756,0,1,0,.756.756.756.756,0,0,0-.756-.756Z" fill="#6f6f6e"/>
      </g>
      <g id="Group_385" data-name="Group 385">
        <path id="Path_1332" data-name="Path 1332" d="M530.365,217.077a2.037,2.037,0,1,1-2.039-2.036,2.037,2.037,0,0,1,2.039,2.036Z" fill="#fff"/>
        <path id="Path_1333" data-name="Path 1333" d="M528.326,219.315a2.238,2.238,0,1,1,2.237-2.237,2.238,2.238,0,0,1-2.237,2.237Zm0-4.071a1.833,1.833,0,1,0,1.833,1.834A1.833,1.833,0,0,0,528.326,215.244Z" fill="#6f6f6e"/>
      </g>
      <path id="Path_1334" data-name="Path 1334" d="M535.745,220.6l-16.845-.221a1.828,1.828,0,0,1-1.289-1.233c-.61-1.661.023-5.388,6.5-13.7l.27-2.45H523.8a1.662,1.662,0,1,1,0-3.325h6.676a1.662,1.662,0,1,1,0,3.325h-.586l-.023,1.987c.733.96,8.571,11.406,5.941,15.523ZM523.8,200.077a1.259,1.259,0,1,0,0,2.518h1.039l-.333,3.013-.036.044c-6.721,8.609-6.946,12.055-6.483,13.344a1.451,1.451,0,0,0,.958.985l16.58.215c2.36-4.063-5.937-14.909-6.024-15.019l-.042-.056.029-2.526h.986a1.259,1.259,0,1,0,0-2.518Z" fill="#6f6f6e"/>
      <g id="Group_386" data-name="Group 386">
        <path id="Path_1335" data-name="Path 1335" d="M533.95,218.035a.957.957,0,1,1-.956-.957A.957.957,0,0,1,533.95,218.035Z" fill="#fff"/>
        <path id="Path_1336" data-name="Path 1336" d="M532.994,219.2a1.16,1.16,0,1,1,1.16-1.161,1.16,1.16,0,0,1-1.16,1.161Zm0-1.916a.756.756,0,1,0,.756.755.756.756,0,0,0-.756-.755Z" fill="#6f6f6e"/>
      </g>
    </g>
    <g id="Group_388" data-name="Group 388">
      <path id="Path_1337" data-name="Path 1337" d="M528.922,195.579a2.035,2.035,0,1,1-2.035-2.036,2.035,2.035,0,0,1,2.035,2.036Z" fill="#fff"/>
      <path id="Path_1338" data-name="Path 1338" d="M526.886,197.767a2.187,2.187,0,1,1,2.186-2.187A2.187,2.187,0,0,1,526.886,197.767Zm0-4.071a1.884,1.884,0,1,0,1.882,1.884,1.884,1.884,0,0,0-1.882-1.884Z" fill="#6f6f6e"/>
    </g>
    <g id="Group_389" data-name="Group 389">
      <path id="Path_1339" data-name="Path 1339" d="M529.88,190.981a.956.956,0,1,1-.28-.678.957.957,0,0,1,.28.678Z" fill="#fff"/>
      <path id="Path_1340" data-name="Path 1340" d="M528.922,192.09a1.11,1.11,0,1,1,1.107-1.109A1.11,1.11,0,0,1,528.922,192.09Zm0-1.917a.807.807,0,1,0,.807.808.807.807,0,0,0-.807-.808Z" fill="#6f6f6e"/>
    </g>
    <path id="Path_1341" data-name="Path 1341" d="M529.489,186.379a.958.958,0,1,1-1.342-.182A.958.958,0,0,1,529.489,186.379Z" fill="#fff" stroke="#6f6f6e" stroke-miterlimit="10" stroke-width="0.75"/>
    <g id="Group_390" data-name="Group 390">
      <path id="Path_1342" data-name="Path 1342" d="M526.492,188.972a1.383,1.383,0,1,1-.8-.69,1.384,1.384,0,0,1,.8.69Z" fill="#fff"/>
      <path id="Path_1343" data-name="Path 1343" d="M525.258,191.133a1.542,1.542,0,1,1,.692-.166,1.512,1.512,0,0,1-.692.166Zm0-2.769a1.218,1.218,0,0,0-.554.133,1.231,1.231,0,1,0,.554-.133Z" fill="#6f6f6e"/>
    </g>
    <g id="Group_391" data-name="Group 391">
      <path id="Path_1344" data-name="Path 1344" d="M521.847,190.983a.955.955,0,1,1-.632-.369.958.958,0,0,1,.632.369Z" fill="#fff"/>
      <path id="Path_1345" data-name="Path 1345" d="M521.088,192.673a1.108,1.108,0,0,1-.671-1.993,1.133,1.133,0,0,1,1.553.211,1.115,1.115,0,0,1-.211,1.556,1.1,1.1,0,0,1-.671.227Zm0-1.917a.807.807,0,1,0,.764.549.81.81,0,0,0-.764-.549Z" fill="#6f6f6e"/>
    </g>
    <path id="Path_1346" data-name="Path 1346" d="M526.053,185.376a.5.5,0,1,1-.333-.194.5.5,0,0,1,.333.194Z" fill="none" stroke="#868686" stroke-miterlimit="10" stroke-width="0.75"/>
    <path id="Path_1347" data-name="Path 1347" d="M518.161,192.027a.649.649,0,0,1-.52-.258.656.656,0,0,1,.123-.915.669.669,0,0,1,.916.126.652.652,0,0,1-.519,1.047Zm0-1a.35.35,0,0,0-.278.561.355.355,0,0,0,.488.067.344.344,0,0,0,.068-.489.349.349,0,0,0-.278-.138Z" fill="#868686"/>
    <path id="Path_1348" data-name="Path 1348" d="M522.654,186.7a.5.5,0,1,1-.332-.2.5.5,0,0,1,.332.2Z" fill="none" stroke="#868686" stroke-miterlimit="10" stroke-width="0.75"/>
    <g id="Group_397" data-name="Group 397">
      <g id="Group_392" data-name="Group 392">
        <path id="Path_1349" data-name="Path 1349" d="M524.549,211.361a1.384,1.384,0,1,1-1.381-1.386,1.384,1.384,0,0,1,1.381,1.386Z" fill="#fff"/>
        <path id="Path_1350" data-name="Path 1350" d="M523.168,212.946a1.587,1.587,0,1,1,1.583-1.585,1.587,1.587,0,0,1-1.583,1.585Zm0-2.769a1.182,1.182,0,1,0,1.179,1.184,1.182,1.182,0,0,0-1.179-1.184Z" fill="#6f6f6e"/>
      </g>
      <g id="Group_393" data-name="Group 393">
        <path id="Path_1351" data-name="Path 1351" d="M523.671,216.465a2.217,2.217,0,1,1-.649-1.57,2.218,2.218,0,0,1,.649,1.57Z" fill="#fff"/>
        <path id="Path_1352" data-name="Path 1352" d="M521.452,218.886a2.421,2.421,0,1,1,2.42-2.42,2.421,2.421,0,0,1-2.42,2.42Zm0-4.438a2.017,2.017,0,1,0,2.016,2.018,2.017,2.017,0,0,0-2.016-2.018Z" fill="#6f6f6e"/>
      </g>
      <g id="Group_394" data-name="Group 394">
        <path id="Path_1353" data-name="Path 1353" d="M526.473,214.245a.957.957,0,1,1-.958-.958.957.957,0,0,1,.958.958Z" fill="#fff"/>
        <path id="Path_1354" data-name="Path 1354" d="M525.515,215.4a1.16,1.16,0,1,1,1.16-1.16,1.16,1.16,0,0,1-1.16,1.16Zm0-1.916a.756.756,0,1,0,.756.756.756.756,0,0,0-.756-.756Z" fill="#6f6f6e"/>
      </g>
      <g id="Group_395" data-name="Group 395">
        <path id="Path_1355" data-name="Path 1355" d="M530.365,217.077a2.037,2.037,0,1,1-2.039-2.036,2.037,2.037,0,0,1,2.039,2.036Z" fill="#fff"/>
        <path id="Path_1356" data-name="Path 1356" d="M528.326,219.315a2.238,2.238,0,1,1,2.237-2.237,2.238,2.238,0,0,1-2.237,2.237Zm0-4.071a1.833,1.833,0,1,0,1.833,1.834A1.833,1.833,0,0,0,528.326,215.244Z" fill="#6f6f6e"/>
      </g>
      <path id="Path_1357" data-name="Path 1357" d="M535.745,220.6l-16.845-.221a1.828,1.828,0,0,1-1.289-1.233c-.61-1.661.023-5.388,6.5-13.7l.27-2.45H523.8a1.662,1.662,0,1,1,0-3.325h6.676a1.662,1.662,0,1,1,0,3.325h-.586l-.023,1.987c.733.96,8.571,11.406,5.941,15.523ZM523.8,200.077a1.259,1.259,0,1,0,0,2.518h1.039l-.333,3.013-.036.044c-6.721,8.609-6.946,12.055-6.483,13.344a1.451,1.451,0,0,0,.958.985l16.58.215c2.36-4.063-5.937-14.909-6.024-15.019l-.042-.056.029-2.526h.986a1.259,1.259,0,1,0,0-2.518Z" fill="#6f6f6e"/>
      <g id="Group_396" data-name="Group 396">
        <path id="Path_1358" data-name="Path 1358" d="M533.95,218.035a.957.957,0,1,1-.956-.957A.957.957,0,0,1,533.95,218.035Z" fill="#fff"/>
        <path id="Path_1359" data-name="Path 1359" d="M532.994,219.2a1.16,1.16,0,1,1,1.16-1.161,1.16,1.16,0,0,1-1.16,1.161Zm0-1.916a.756.756,0,1,0,.756.755.756.756,0,0,0-.756-.755Z" fill="#6f6f6e"/>
      </g>
    </g>
    <g id="Group_398" data-name="Group 398">
      <path id="Path_1360" data-name="Path 1360" d="M528.922,195.579a2.035,2.035,0,1,1-2.035-2.036,2.035,2.035,0,0,1,2.035,2.036Z" fill="#fff"/>
      <path id="Path_1361" data-name="Path 1361" d="M526.886,197.767a2.187,2.187,0,1,1,2.186-2.187A2.187,2.187,0,0,1,526.886,197.767Zm0-4.071a1.884,1.884,0,1,0,1.882,1.884,1.884,1.884,0,0,0-1.882-1.884Z" fill="#6f6f6e"/>
    </g>
    <g id="Group_399" data-name="Group 399">
      <path id="Path_1362" data-name="Path 1362" d="M529.88,190.981a.956.956,0,1,1-.28-.678.957.957,0,0,1,.28.678Z" fill="#fff"/>
      <path id="Path_1363" data-name="Path 1363" d="M528.922,192.09a1.11,1.11,0,1,1,1.107-1.109A1.11,1.11,0,0,1,528.922,192.09Zm0-1.917a.807.807,0,1,0,.807.808.807.807,0,0,0-.807-.808Z" fill="#6f6f6e"/>
    </g>
    <path id="Path_1364" data-name="Path 1364" d="M529.489,186.379a.958.958,0,1,1-1.342-.182A.958.958,0,0,1,529.489,186.379Z" fill="#fff" stroke="#6f6f6e" stroke-miterlimit="10" stroke-width="0.75"/>
    <g id="Group_400" data-name="Group 400">
      <path id="Path_1365" data-name="Path 1365" d="M526.492,188.972a1.383,1.383,0,1,1-.8-.69,1.384,1.384,0,0,1,.8.69Z" fill="#fff"/>
      <path id="Path_1366" data-name="Path 1366" d="M525.258,191.133a1.542,1.542,0,1,1,.692-.166,1.512,1.512,0,0,1-.692.166Zm0-2.769a1.218,1.218,0,0,0-.554.133,1.231,1.231,0,1,0,.554-.133Z" fill="#6f6f6e"/>
    </g>
    <g id="Group_401" data-name="Group 401">
      <path id="Path_1367" data-name="Path 1367" d="M521.847,190.983a.955.955,0,1,1-.632-.369.958.958,0,0,1,.632.369Z" fill="#fff"/>
      <path id="Path_1368" data-name="Path 1368" d="M521.088,192.673a1.108,1.108,0,0,1-.671-1.993,1.133,1.133,0,0,1,1.553.211,1.115,1.115,0,0,1-.211,1.556,1.1,1.1,0,0,1-.671.227Zm0-1.917a.807.807,0,1,0,.764.549.81.81,0,0,0-.764-.549Z" fill="#6f6f6e"/>
    </g>
  </g>
</svg>
