<svg xmlns="http://www.w3.org/2000/svg" xmlns:xlink="http://www.w3.org/1999/xlink" width="104.806" height="102.897" viewBox="0 0 104.806 102.897">
  <defs>
    <radialGradient id="radial-gradient" cx="0.745" cy="0.973" r="1.035" gradientTransform="translate(0.132) scale(0.736 1)" gradientUnits="objectBoundingBox">
      <stop offset="0" stop-color="#ffb326"/>
      <stop offset="1" stop-color="#ffc966"/>
    </radialGradient>
    <radialGradient id="radial-gradient-2" cx="0.751" cy="0.988" r="1.07" gradientTransform="translate(0.135) scale(0.73 1)" xlink:href="#radial-gradient"/>
    <radialGradient id="radial-gradient-3" cx="1.963" cy="0.078" r="5.346" gradientTransform="translate(0.166) scale(0.668 1)" xlink:href="#radial-gradient"/>
    <radialGradient id="radial-gradient-4" cx="2.148" cy="-0.007" r="6.427" gradientTransform="translate(0.187) scale(0.626 1)" xlink:href="#radial-gradient"/>
    <radialGradient id="radial-gradient-5" cx="3.064" cy="-0.98" r="7.413" gradientTransform="translate(0.133) scale(0.735 1)" xlink:href="#radial-gradient"/>
    <radialGradient id="radial-gradient-6" cx="3.596" cy="-1.43" r="9.67" gradientTransform="translate(0.16) scale(0.68 1)" xlink:href="#radial-gradient"/>
    <radialGradient id="radial-gradient-7" cx="4.939" cy="-2.124" r="8.978" gradientTransform="translate(0.031) scale(0.938 1)" xlink:href="#radial-gradient"/>
    <radialGradient id="radial-gradient-8" cx="6.545" cy="-3.157" r="12.513" gradientTransform="translate(0.042) scale(0.917 1)" xlink:href="#radial-gradient"/>
  </defs>
  <g id="Group_2416" data-name="Group 2416" transform="translate(-385.164 -235.566)">
    <g id="Group_2412" data-name="Group 2412">
      <path id="Path_11131" data-name="Path 11131" d="M485.9,278.309c1.194-1.957,4.267-7.814,2.085-13.113a12.4,12.4,0,0,0-7.039-6.867,15.405,15.405,0,0,0-3.506-.942,8.332,8.332,0,0,0-4.665-6.1,10.327,10.327,0,0,0-4.951-1.214,13.188,13.188,0,0,0-4.135.7,22.247,22.247,0,0,0-4.06-6.137c-3.112-3.357-8.832-7.437-18.406-7.8-.462-.017-.925-.027-1.378-.027a26.339,26.339,0,0,0-14.6,4.016,24.164,24.164,0,0,0-7.164,7.238l-.242,0a8.808,8.808,0,0,0-7.625,4.174q-.479-.022-.949-.022a16.847,16.847,0,0,0-9.678,2.9c-5.166,3.522-6.582,9.776-6.916,11.823a12.279,12.279,0,0,0-3.147,2.778c-1.615,2-3.462,5.535-3.082,11.04.348,5.022,2.6,7.835,4.434,9.309a10.97,10.97,0,0,0,3.013,1.722,7.078,7.078,0,0,0,3.756,6.323,9.9,9.9,0,0,0,4.739,1.311,7.524,7.524,0,0,0,1.383-.126,10.409,10.409,0,0,0,.984,2.35,11.774,11.774,0,0,0,7.475,5.433,17.728,17.728,0,0,0,4.661.63,18.082,18.082,0,0,0,8.584-2.193,13.773,13.773,0,0,0,2.077,2.237,12.889,12.889,0,0,0,1.692,1.238,11.793,11.793,0,0,0,3.86,1.515,9.855,9.855,0,0,0,1.94.191h.171a10.783,10.783,0,0,0,1.949-.215,14.692,14.692,0,0,0,5.945-2.861,15.663,15.663,0,0,0,11.348,4.552,21.091,21.091,0,0,0,5.091-.656,14.938,14.938,0,0,0,9.351-6.349,13.035,13.035,0,0,0,1.515-3.323,22.9,22.9,0,0,0,3.074.208h0c3.582,0,8.5-.86,11.62-4.959a15.853,15.853,0,0,0,2.823-13.223,21.079,21.079,0,0,0-2.024-5.551Zm-1.778,18.031c-2.817,3.706-7.361,4.474-10.643,4.474a20,20,0,0,1-4.013-.384s-.89,7.551-10.225,9.885a19.733,19.733,0,0,1-4.793.619,14.093,14.093,0,0,1-11.226-5.051,13.282,13.282,0,0,1-7.723,3.564c-.154.009-.307.012-.463.012a8.643,8.643,0,0,1-1.7-.167,10.592,10.592,0,0,1-3.7-1.515,12.11,12.11,0,0,1-3.8-3.938,16.481,16.481,0,0,1-13.293,2.045c-7.5-2.045-7.839-8.18-7.839-8.18a5.094,5.094,0,0,1-2.324.48,8.646,8.646,0,0,1-4.151-1.162,6.087,6.087,0,0,1-3.069-6.135s-6.887-1.359-7.5-10.225c-.681-9.885,6.135-12.953,6.135-12.953s.774-7.7,6.476-11.588a15.718,15.718,0,0,1,8.986-2.688c.578,0,1.135.027,1.665.074a7.479,7.479,0,0,1,6.909-4.225,8.532,8.532,0,0,1,.9.047c2.965-4.885,9.139-11.3,21.115-11.3q.654,0,1.33.026c17.725.682,21.815,14.316,21.815,14.316a11.768,11.768,0,0,1,4.833-1.068,9.129,9.129,0,0,1,4.369,1.068c4.431,2.386,4.089,6.135,4.089,6.135s7.694.182,10.567,7.158c2.386,5.794-2.386,12.611-2.386,12.611S490.6,287.818,484.124,296.34Z" fill="url(#radial-gradient)"/>
      <path id="Path_11132" data-name="Path 11132" d="M487.3,278.345a23.4,23.4,0,0,0,1.557-3.354c1.386-3.766,1.478-7.315.264-10.263a13.594,13.594,0,0,0-7.715-7.538,16.667,16.667,0,0,0-2.934-.872,8.471,8.471,0,0,0-.275-.856,10.03,10.03,0,0,0-4.838-5.253,11.531,11.531,0,0,0-5.533-1.362,14.081,14.081,0,0,0-3.474.448,23.914,23.914,0,0,0-3.819-5.5,24.4,24.4,0,0,0-7.411-5.436,30.011,30.011,0,0,0-11.85-2.762c-.477-.018-.955-.028-1.425-.028a27.549,27.549,0,0,0-15.274,4.213,25.274,25.274,0,0,0-7.157,7.045,10.074,10.074,0,0,0-7.858,4.147c-.1,0-.2,0-.3,0a18.053,18.053,0,0,0-10.37,3.115c-5.133,3.5-6.823,9.469-7.334,12.088a13.639,13.639,0,0,0-2.991,2.754c-1.755,2.17-3.76,5.994-3.352,11.9.377,5.466,2.866,8.554,4.889,10.182a12.249,12.249,0,0,0,2.606,1.607,9.354,9.354,0,0,0,.19,1.126,8.154,8.154,0,0,0,4.155,5.431,11.1,11.1,0,0,0,5.327,1.463c.183,0,.361-.006.533-.016a11.664,11.664,0,0,0,.767,1.621,12.976,12.976,0,0,0,8.218,6.008,18.976,18.976,0,0,0,4.984.673,19.394,19.394,0,0,0,8.251-1.878c.233.273.495.559.787.851a14.945,14.945,0,0,0,1.227,1.1,13.844,13.844,0,0,0,1.734,1.191,12.908,12.908,0,0,0,3.973,1.508,11,11,0,0,0,2.021.212c.053,0,.107,0,.16,0a11.51,11.51,0,0,0,1.827-.147,12.188,12.188,0,0,0,1.528-.341,16.047,16.047,0,0,0,4.612-2.228,17.046,17.046,0,0,0,11.444,4.191,22.3,22.3,0,0,0,5.388-.693,16.14,16.14,0,0,0,10.089-6.88,14.385,14.385,0,0,0,1.33-2.65c.648.06,1.4.1,2.224.1a19.3,19.3,0,0,0,6.3-.981,13.11,13.11,0,0,0,6.3-4.462,17.044,17.044,0,0,0,3.047-14.219,22.516,22.516,0,0,0-1.826-5.262Zm-13.82,22.468a20,20,0,0,1-4.013-.384s-.89,7.551-10.225,9.885a19.733,19.733,0,0,1-4.793.619,14.093,14.093,0,0,1-11.226-5.051,13.282,13.282,0,0,1-7.723,3.564c-.154.009-.307.012-.463.012a8.642,8.642,0,0,1-1.7-.167,10.593,10.593,0,0,1-3.7-1.515,12.111,12.111,0,0,1-3.8-3.938,16.481,16.481,0,0,1-13.293,2.045c-7.5-2.045-7.839-8.18-7.839-8.18a5.094,5.094,0,0,1-2.324.48,8.646,8.646,0,0,1-4.151-1.162,6.087,6.087,0,0,1-3.069-6.135s-6.887-1.359-7.5-10.225c-.681-9.885,6.135-12.953,6.135-12.953s.774-7.7,6.476-11.588a15.718,15.718,0,0,1,8.986-2.688c.578,0,1.135.027,1.665.074a7.479,7.479,0,0,1,6.909-4.225,8.532,8.532,0,0,1,.9.047c2.966-4.885,9.139-11.3,21.115-11.3q.654,0,1.33.026c17.725.682,21.815,14.316,21.815,14.316a11.768,11.768,0,0,1,4.833-1.068,9.129,9.129,0,0,1,4.369,1.068c4.431,2.386,4.089,6.135,4.089,6.135s7.694.182,10.567,7.158c2.386,5.794-2.386,12.611-2.386,12.611s6.135,9.543-.341,18.065c-2.817,3.707-7.36,4.474-10.643,4.474Z" fill="#fff"/>
      <path id="Path_11133" data-name="Path 11133" d="M484.466,278.275s6.135,9.543-.341,18.065c-2.817,3.706-7.361,4.474-10.643,4.474a20,20,0,0,1-4.013-.384s-.89,7.551-10.225,9.885a19.733,19.733,0,0,1-4.793.619,14.093,14.093,0,0,1-11.226-5.051,13.282,13.282,0,0,1-7.723,3.564c-.154.009-.307.012-.463.012a8.643,8.643,0,0,1-1.7-.167,10.592,10.592,0,0,1-3.7-1.515,12.11,12.11,0,0,1-3.8-3.938,16.481,16.481,0,0,1-13.293,2.045c-7.5-2.045-7.839-8.18-7.839-8.18a5.094,5.094,0,0,1-2.324.48,8.646,8.646,0,0,1-4.151-1.162,6.087,6.087,0,0,1-3.069-6.135s-6.887-1.359-7.5-10.225c-.681-9.885,6.135-12.953,6.135-12.953s.774-7.7,6.476-11.588a15.718,15.718,0,0,1,8.986-2.688c.578,0,1.135.027,1.665.074a7.479,7.479,0,0,1,6.909-4.225,8.532,8.532,0,0,1,.9.047c2.966-4.885,9.139-11.3,21.115-11.3q.654,0,1.33.026c17.725.682,21.815,14.316,21.815,14.316a11.769,11.769,0,0,1,4.833-1.068,9.129,9.129,0,0,1,4.369,1.068c4.431,2.386,4.089,6.135,4.089,6.135s7.694.182,10.567,7.158C489.237,271.457,484.466,278.275,484.466,278.275Z" fill="url(#radial-gradient-2)"/>
    </g>
    <g id="Group_2413" data-name="Group 2413">
      <path id="Path_11134" data-name="Path 11134" d="M441.117,316.916a14.234,14.234,0,0,0-7.681-7.068,14.507,14.507,0,0,0-5.111-.9c-3.523,0-7.668,1.284-8.44,4.1-.577,2.1.884,4.364,3.08,6.217a17.175,17.175,0,0,0,1.5,1.131,18.818,18.818,0,0,0,4.758,2.329,16.682,16.682,0,0,0,1.725.436h0c.6.119,1.212.212,1.826.275a18.291,18.291,0,0,0,1.886.1c3.437,0,5.786-1.009,6.613-2.844a4.741,4.741,0,0,0-.159-3.787Zm-.96,3.282c-.68,1.509-2.964,2.121-5.5,2.121a17.91,17.91,0,0,1-3.12-.285,16.206,16.206,0,0,1-1.951-.473,17.427,17.427,0,0,1-4.725-2.375c-2.5-1.772-4.28-4.038-3.8-5.8.53-1.935,3.748-3.2,7.256-3.2A13.276,13.276,0,0,1,433,311c4.486,1.709,8.339,6.583,7.157,9.2Z" fill="url(#radial-gradient-3)"/>
      <path id="Path_11135" data-name="Path 11135" d="M442.251,316.447a13.849,13.849,0,0,0-3.858-5.021c-.4-.337-.809-.657-1.235-.955a16,16,0,0,0-1.657-1.024c-.154.009-.307.012-.463.012a8.641,8.641,0,0,1-1.7-.167,10.592,10.592,0,0,1-3.7-1.515c-.435-.034-.873-.052-1.313-.052-.26,0-.521.006-.779.017-.549.027-1.093.079-1.622.157a13.431,13.431,0,0,0-3.308.9c-2.655,1.132-3.594,2.765-3.916,3.936-.592,2.16.4,4.588,2.789,6.859q.112.107.228.214c.286.262.588.517.9.766.47.372.97.731,1.49,1.067.106,0,.212-.006.319-.006a7.958,7.958,0,0,1,3.117.61,8.077,8.077,0,0,1,2.764,2.048c.58.13,1.175.235,1.776.312.494.065.991.113,1.486.141.366.02.731.031,1.09.031,3.95,0,6.7-1.266,7.734-3.567a5.845,5.845,0,0,0-.143-4.761Zm-2.095,3.751c-.68,1.509-2.964,2.121-5.5,2.121a17.916,17.916,0,0,1-3.12-.285,16.206,16.206,0,0,1-1.951-.473,17.427,17.427,0,0,1-4.725-2.375c-2.5-1.772-4.28-4.038-3.8-5.8.53-1.935,3.748-3.2,7.256-3.2.185,0,.373,0,.56.011A13.065,13.065,0,0,1,433,311a12.131,12.131,0,0,1,1.88.916C438.488,314.058,441.168,317.955,440.156,320.2Z" fill="#fff"/>
      <path id="Path_11136" data-name="Path 11136" d="M440.156,320.2c-.68,1.509-2.964,2.121-5.5,2.121a17.916,17.916,0,0,1-3.12-.285,16.206,16.206,0,0,1-1.951-.473,17.427,17.427,0,0,1-4.725-2.375c-2.5-1.772-4.28-4.038-3.8-5.8.53-1.935,3.748-3.2,7.256-3.2A13.275,13.275,0,0,1,433,311C437.486,312.7,441.338,317.579,440.156,320.2Z" fill="url(#radial-gradient-4)"/>
    </g>
    <g id="Group_2414" data-name="Group 2414">
      <path id="Path_11137" data-name="Path 11137" d="M432.767,325.973a6.99,6.99,0,0,0-.681-1.37,8.938,8.938,0,0,0-1.135-1.432h0a8.716,8.716,0,0,0-6.484-2.765h-.037a9.5,9.5,0,0,0-1.809.167c-1.912.368-3.309,1.33-3.74,2.655-.458,1.41.232,2.9,1.391,4.173a10.487,10.487,0,0,0,1.251,1.155h0a11.381,11.381,0,0,0,2.855,1.652c.254.1.521.188.794.266a11.359,11.359,0,0,0,1.647.349,11,11,0,0,0,1.5.107c2.19,0,3.755-.709,4.408-1.993a3.686,3.686,0,0,0,.036-2.962Zm-1.131,2.4c-.475.935-1.812,1.323-3.314,1.323a10.249,10.249,0,0,1-2.45-.311,9.286,9.286,0,0,1-1.054-.329,10.088,10.088,0,0,1-2.82-1.7c-1.386-1.176-2.318-2.629-1.951-3.755.377-1.163,2.11-1.9,4.062-1.968.106,0,.212-.006.319-.006a7.958,7.958,0,0,1,3.117.61,8.077,8.077,0,0,1,2.764,2.048C431.531,325.67,432.177,327.313,431.635,328.378Z" fill="url(#radial-gradient-5)"/>
      <path id="Path_11138" data-name="Path 11138" d="M433.922,325.557a7.4,7.4,0,0,0-.351-.813,8.934,8.934,0,0,0-.794-1.3,10.688,10.688,0,0,0-1.235-1.412,16.2,16.2,0,0,1-1.951-.473,17.428,17.428,0,0,1-4.725-2.375c-.145-.007-.29-.01-.436-.01a10.851,10.851,0,0,0-1.464.1,9.069,9.069,0,0,0-1.476.318,5.368,5.368,0,0,0-3.777,3.255,5.236,5.236,0,0,0,1.252,4.914c.145.182.3.363.469.544.139.15.284.3.434.441a12.26,12.26,0,0,0,1.229,1.034c.06,0,.119,0,.179,0a3.6,3.6,0,0,1,3.13,1.742,12.07,12.07,0,0,0,1.525.4,12.5,12.5,0,0,0,1.326.19c.36.033.716.05,1.065.05,2.676,0,4.63-.947,5.5-2.665a4.819,4.819,0,0,0,.1-3.934Zm-8.051,3.832a9.28,9.28,0,0,1-1.054-.329,10.087,10.087,0,0,1-2.82-1.7c-1.386-1.176-2.318-2.629-1.951-3.755.377-1.163,2.11-1.9,4.062-1.968.106,0,.212-.006.319-.006a7.958,7.958,0,0,1,3.117.61,8.076,8.076,0,0,1,2.764,2.048c1.222,1.379,1.868,3.022,1.326,4.087-.475.935-1.812,1.323-3.314,1.323a10.244,10.244,0,0,1-2.449-.31Z" fill="#fff"/>
      <path id="Path_11139" data-name="Path 11139" d="M431.635,328.378c-.475.935-1.812,1.323-3.314,1.323a10.249,10.249,0,0,1-2.45-.311,9.286,9.286,0,0,1-1.054-.329,10.088,10.088,0,0,1-2.82-1.7c-1.386-1.176-2.318-2.629-1.951-3.755.377-1.163,2.11-1.9,4.062-1.968.106,0,.212-.006.319-.006a7.958,7.958,0,0,1,3.117.61,8.077,8.077,0,0,1,2.764,2.048C431.531,325.67,432.177,327.313,431.635,328.378Z" fill="url(#radial-gradient-6)"/>
    </g>
    <g id="Group_2415" data-name="Group 2415">
      <path id="Path_11140" data-name="Path 11140" d="M425.93,331.915a4.8,4.8,0,0,0-.758-1.443,4.889,4.889,0,0,0-1.9-1.514,4.963,4.963,0,0,0-1.746-.4h0c-.082,0-.163-.006-.246-.006a5.032,5.032,0,0,0-1.409.2,4.138,4.138,0,0,0-2.633,2.172,4.538,4.538,0,0,0,4.227,6.317A4.641,4.641,0,0,0,426,334.168a3.894,3.894,0,0,0-.069-2.252Zm-1.112,1.916a3.435,3.435,0,0,1-3.357,2.176,3.312,3.312,0,0,1-3.118-4.561,3.112,3.112,0,0,1,2.753-1.666c.06,0,.119,0,.179,0a3.6,3.6,0,0,1,3.13,1.742,2.911,2.911,0,0,1,.413,2.312Z" fill="url(#radial-gradient-7)"/>
      <path id="Path_11141" data-name="Path 11141" d="M427.257,332.106a5.611,5.611,0,0,0-.437-1.284c-.058-.125-.123-.248-.192-.371a6.173,6.173,0,0,0-.756-1.061,9.28,9.28,0,0,1-1.054-.329,10.087,10.087,0,0,1-2.82-1.7,6.164,6.164,0,0,0-.723-.042,6.423,6.423,0,0,0-1,.079,5.9,5.9,0,0,0-1.307.362,5.292,5.292,0,0,0-2.839,2.629,5.4,5.4,0,0,0-.145,4.225,5.96,5.96,0,0,0,2.439,3.012,5.8,5.8,0,0,0,3.042.835,6.492,6.492,0,0,0,3.394-.965,5.261,5.261,0,0,0,2.326-3A5.014,5.014,0,0,0,427.257,332.106Zm-2.439,1.725a3.435,3.435,0,0,1-3.357,2.176,3.311,3.311,0,0,1-3.118-4.561,3.112,3.112,0,0,1,2.753-1.666c.06,0,.119,0,.179,0a3.6,3.6,0,0,1,3.13,1.742,2.911,2.911,0,0,1,.413,2.312Z" fill="#fff"/>
      <path id="Path_11142" data-name="Path 11142" d="M424.818,333.831a3.435,3.435,0,0,1-3.357,2.176,3.312,3.312,0,0,1-3.118-4.561,3.112,3.112,0,0,1,2.753-1.666c.06,0,.119,0,.179,0a3.6,3.6,0,0,1,3.13,1.742,2.911,2.911,0,0,1,.413,2.312Z" fill="url(#radial-gradient-8)"/>
    </g>
  </g>
</svg>
