<svg xmlns="http://www.w3.org/2000/svg" width="32.421" height="45.274" viewBox="0 0 32.421 45.274">
  <g id="Group_354" data-name="Group 354" transform="translate(-324.668 -517.074)">
    <path id="Path_1417" data-name="Path 1417" d="M327.574,527.306c0,.046-.007.092-.01.137q-.682,11.617-.348,23.263.084,2.908.231,5.814c.06,1.188-.69,4.349.142,5.265,1,1.1,6.668.247,8.207.247h13.21c1.163,0,4.078.555,5.034-.344,1.044-.982.433-4.086.434-5.409q.011-13.286.023-26.571a8.038,8.038,0,0,0-.61-3.775c-4.178-.188-8.319.142-12.55-.085-4.358-.234-8.754-.355-13.026.692a1.036,1.036,0,0,0-.575.281.862.862,0,0,0-.162.486Z" fill="#6d9dbf"/>
    <g id="Group_353" data-name="Group 353">
      <path id="Path_1418" data-name="Path 1418" d="M330.476,529.792a24.233,24.233,0,0,0,.052,3.377q-.02,2.683-.029,5.366-.018,5.369.008,10.737c.013,2.742-.433,5.469-.233,8.21a2.958,2.958,0,0,0,.754,2.081,2.74,2.74,0,0,0,1.684.526,1.132,1.132,0,0,0,1.488-1.078c.348-2.143-.009-4.3.133-6.42.148-2.22.039-4.483.04-6.71l0-14.076c0-1.219.283-2.31-.7-3-.455-.321-2.394-.513-2.8-.054a2,2,0,0,0-.4,1.045Z" opacity="0.1"/>
      <path id="Path_1419" data-name="Path 1419" d="M338.773,529.792a24.234,24.234,0,0,0,.052,3.377q-.02,2.683-.029,5.366-.018,5.369.008,10.737c.013,2.742-.433,5.469-.233,8.21a2.958,2.958,0,0,0,.754,2.081,2.74,2.74,0,0,0,1.684.526,1.132,1.132,0,0,0,1.488-1.078c.348-2.143-.009-4.3.133-6.42.148-2.22.039-4.483.04-6.71l0-14.076c0-1.219.283-2.31-.7-3-.455-.321-2.394-.513-2.8-.054a2,2,0,0,0-.4,1.045Z" opacity="0.1"/>
      <path id="Path_1420" data-name="Path 1420" d="M347.071,529.792a24.23,24.23,0,0,0,.052,3.377q-.02,2.683-.029,5.366-.018,5.369.008,10.737c.013,2.742-.433,5.469-.233,8.21a2.958,2.958,0,0,0,.754,2.081,2.74,2.74,0,0,0,1.684.526,1.132,1.132,0,0,0,1.488-1.078c.348-2.143-.009-4.3.133-6.42.148-2.22.039-4.483.04-6.71l0-14.076c0-1.219.283-2.31-.7-3-.455-.321-2.394-.513-2.8-.054a2,2,0,0,0-.4,1.045Z" opacity="0.1"/>
    </g>
    <path id="Path_1421" data-name="Path 1421" d="M356.88,524.235q.014-1.363.027-2.725c0-.132-.013-.27-.72-.387-3.276-.013-6.536,0-9.818,0-.586-2.862-3.108-4.32-6.1-4-2.277.241-5.206,1.558-5.351,3.985-.841,0-1.681,0-2.522,0-2.377.012-5.328.545-7.553-.305a3.065,3.065,0,0,0-.059.437c-.078,1.155.329,2.6-.12,3.383a.659.659,0,0,0,.469.18c1.18.113,7.873.025,9.69.025h15.6c1.374,0,4.814.057,5.943-.035C357.6,524.688,356.879,524.37,356.88,524.235ZM336.01,521.1a5.286,5.286,0,0,1,3.841-2.384,3.765,3.765,0,0,1,4.728,2.405c-1.066,0-2.134,0-3.208-.007Q338.69,521.1,336.01,521.1Z" fill="#6d9dbf"/>
  </g>
</svg>
