<svg xmlns="http://www.w3.org/2000/svg" width="46.5" height="38.756" viewBox="0 0 46.5 38.756">
  <g id="Group_217" data-name="Group 217" transform="translate(-128.167 -440.084)">
    <path id="Path_993" data-name="Path 993" d="M172.52,464.433a8.74,8.74,0,0,0-2.355-3.03,4.22,4.22,0,0,0-.961-.519c.363-4.462-1.955-8.88-4.21-12.864a18.931,18.931,0,0,0-2.918-4.214c-2.689-2.679-6.709-3.495-10.5-3.678-4.921-.238-10.074.449-14.183,3.167a10.507,10.507,0,0,0-4.514,5.663,15.414,15.414,0,0,0-.379,4.266l.032,7.209a9.063,9.063,0,0,0-2.218,2.909,15.485,15.485,0,0,0-2.126,6.6,7.288,7.288,0,0,0,2.637,6.179,8.979,8.979,0,0,0,2.541,1.214c1.287.425,2.8.7,3.918-.07,1.382-.95,1.433-2.94,1.31-4.613-.176-2.419-.413-4.837-.409-7.263a13.55,13.55,0,0,0-.185-3.072,3.672,3.672,0,0,0-1.691-2.469,3.023,3.023,0,0,0-2.084-.23A15.52,15.52,0,0,1,135,453.23a13.508,13.508,0,0,1,10.084-8.236,17.485,17.485,0,0,1,12.934,2.93,20.7,20.7,0,0,1,8.547,13s-.025.009-.037.016a3.673,3.673,0,0,0-1.691,2.469,13.545,13.545,0,0,0-.186,3.073c0,2.426-.233,4.844-.409,7.263-.122,1.673-.072,3.662,1.311,4.613,1.117.768,2.631.494,3.918.07a8.985,8.985,0,0,0,2.541-1.215,7.288,7.288,0,0,0,2.637-6.179A15.485,15.485,0,0,0,172.52,464.433Z" fill="#1a5e73"/>
    <path id="Path_994" data-name="Path 994" d="M137.36,460.816a21.77,21.77,0,0,0-.293,3.477,51.538,51.538,0,0,0,.146,7.4c.357,1.94.141,4.431.5,5.2s1.221-.311,1.221-3.258-.359-6.4-.359-8.7S138.012,459.423,137.36,460.816Z" fill="#97a8b2"/>
    <path id="Path_995" data-name="Path 995" d="M165.5,461.871a1.361,1.361,0,0,0-1.4,1.415c-.011,1.437-.514,6.468-.658,8.193s-.59,5.663,1.394,6.137,1.481-9.084,1.409-10.665S166.478,463.331,165.5,461.871Z" fill="#97a8b2"/>
  </g>
</svg>
