<svg xmlns="http://www.w3.org/2000/svg" width="58.915" height="61.756" viewBox="0 0 58.915 61.756">
  <g id="Group_323" data-name="Group 323" transform="translate(-311.421 -103.953)">
    <g id="Group_321" data-name="Group 321">
      <g id="Group_320" data-name="Group 320">
        <path id="Path_1258" data-name="Path 1258" d="M356.907,137.8c-3.045.061-10.011.2-10.02-.317a.16.16,0,0,0-.319,0l-.121.539a.33.33,0,0,0,.282.49c3.367.2,6.786.118,10.169.073a2.048,2.048,0,0,0,2.015,1.684l.255-.012a2.04,2.04,0,1,0,0-4.08l-.255-.011a2.045,2.045,0,0,0-2,1.634Z" fill="#65a8df"/>
        <path id="Path_1259" data-name="Path 1259" d="M360.523,144.777c-3.045.061-10.011.2-10.02-.317a.159.159,0,0,0-.319,0l-.121.539a.33.33,0,0,0,.282.49c3.367.2,6.786.118,10.169.073a2.048,2.048,0,0,0,2.015,1.684l.255-.012a2.04,2.04,0,0,0,0-4.08l-.255-.011a2.045,2.045,0,0,0-2,1.634Z" fill="#65a8df"/>
        <path id="Path_1260" data-name="Path 1260" d="M365.237,132.434c-3.612.072-11.877.238-11.888-.376a.189.189,0,0,0-.378,0l-.144.639a.392.392,0,0,0,.334.581c3.995.233,8.051.14,12.065.086a2.429,2.429,0,0,0,2.391,2l.3-.014a2.42,2.42,0,1,0-.006-4.84l-.3-.013a2.426,2.426,0,0,0-2.374,1.938Z" fill="#65a8df"/>
        <path id="Path_1261" data-name="Path 1261" d="M361.1,126.259c-3.612.072-11.877.238-11.888-.376a.189.189,0,0,0-.378,0l-.144.639a.391.391,0,0,0,.334.581c3.995.233,8.051.14,12.065.086a2.429,2.429,0,0,0,2.391,2l.3-.014a2.42,2.42,0,1,0-.006-4.84l-.3-.013A2.426,2.426,0,0,0,361.1,126.259Z" fill="#65a8df"/>
        <path id="Path_1262" data-name="Path 1262" d="M330.861,157.209c-.066-3.5-.217-11.493.377-11.5a.183.183,0,0,0,0-.366l-.619-.14a.379.379,0,0,0-.563.323c-.23,3.865-.145,7.79-.1,11.675a2.351,2.351,0,0,0-1.937,2.311q.007.146.013.293a2.342,2.342,0,1,0,4.684,0c0-.1.009-.2.013-.293a2.348,2.348,0,0,0-1.873-2.3Z" fill="#65a8df"/>
        <path id="Path_1263" data-name="Path 1263" d="M336.4,151.063c-.058-3.1-.193-10.176.334-10.186a.162.162,0,0,0,0-.324l-.548-.124a.335.335,0,0,0-.5.286c-.2,3.422-.128,6.9-.086,10.337a2.081,2.081,0,0,0-1.715,2.046l.012.259a2.074,2.074,0,1,0,4.147,0c0-.086.008-.173.012-.259a2.079,2.079,0,0,0-1.658-2.036Z" fill="#65a8df"/>
        <path id="Path_1264" data-name="Path 1264" d="M342.562,160.776c-.066-3.5-.217-11.493.377-11.5a.183.183,0,0,0,0-.366l-.619-.14a.379.379,0,0,0-.563.323c-.23,3.865-.145,7.79-.1,11.675a2.351,2.351,0,0,0-1.937,2.311l.013.293a2.342,2.342,0,1,0,4.684,0c0-.1.009-.2.013-.293a2.348,2.348,0,0,0-1.873-2.3Z" fill="#65a8df"/>
        <path id="Path_1265" data-name="Path 1265" d="M331.352,114.5c-.072,3.82-.238,12.56.412,12.572a.2.2,0,1,1,0,.4l-.676.153a.414.414,0,0,1-.615-.353c-.251-4.224-.158-8.513-.106-12.759a2.569,2.569,0,0,1-2.116-2.526q.008-.16.015-.32a2.559,2.559,0,1,1,5.119,0c0,.107.01.213.014.32a2.566,2.566,0,0,1-2.046,2.513Z" fill="#65a8df"/>
        <path id="Path_1266" data-name="Path 1266" d="M337.777,118.193c-.071,3.75-.233,12.329.4,12.34a.2.2,0,0,1,0,.393l-.664.15a.406.406,0,0,1-.6-.346c-.247-4.146-.155-8.356-.1-12.524a2.522,2.522,0,0,1-2.077-2.479q.007-.157.014-.314a2.512,2.512,0,1,1,5.024,0c0,.1.01.209.014.314a2.519,2.519,0,0,1-2.009,2.467Z" fill="#65a8df"/>
        <path id="Path_1267" data-name="Path 1267" d="M342.161,109.346c-.072,3.82-.238,12.56.412,12.572a.2.2,0,1,1,0,.4l-.676.153a.414.414,0,0,1-.615-.353c-.251-4.224-.158-8.513-.106-12.759a2.569,2.569,0,0,1-2.116-2.526l.015-.32a2.559,2.559,0,1,1,5.119,0c0,.107.01.213.014.32a2.566,2.566,0,0,1-2.046,2.513Z" fill="#65a8df"/>
        <path id="Path_1268" data-name="Path 1268" d="M349.263,117.97c-.053,2.813-.175,9.249.3,9.258a.147.147,0,0,1,0,.294l-.5.113a.3.3,0,0,1-.453-.26c-.185-3.111-.116-6.269-.078-9.4a1.892,1.892,0,0,1-1.559-1.86q.006-.118.011-.235a1.885,1.885,0,1,1,3.769,0c0,.079.007.157.011.236a1.89,1.89,0,0,1-1.507,1.851Z" fill="#65a8df"/>
        <path id="Path_1269" data-name="Path 1269" d="M321.964,125.438c2.57-.112,8.45-.369,8.469.068a.135.135,0,0,0,.269-.007l.092-.458a.279.279,0,0,0-.248-.408c-2.847-.1-5.733.036-8.59.141a1.73,1.73,0,0,0-1.735-1.382l-.215.015a1.723,1.723,0,0,0,.085,3.445l.215,0A1.728,1.728,0,0,0,321.964,125.438Z" fill="#65a8df"/>
        <path id="Path_1270" data-name="Path 1270" d="M349.034,154.86c-.083-2.377-.275-7.814.129-7.828a.125.125,0,0,0,0-.249l-.422-.088a.258.258,0,0,0-.379.226c-.113,2.631-.012,5.3.064,7.941a1.6,1.6,0,0,0-1.292,1.593l.012.2a1.593,1.593,0,1,0,3.185-.052c0-.066,0-.133.006-.2A1.6,1.6,0,0,0,349.034,154.86Z" fill="#65a8df"/>
        <path id="Path_1271" data-name="Path 1271" d="M317.315,145.51c2.57-.112,8.45-.369,8.469.068a.135.135,0,0,0,.269-.007l.092-.458a.279.279,0,0,0-.248-.408c-2.847-.1-5.733.036-8.59.141a1.73,1.73,0,0,0-1.735-1.382l-.215.015a1.723,1.723,0,1,0,.085,3.445l.215,0a1.728,1.728,0,0,0,1.658-1.419Z" fill="#65a8df"/>
        <path id="Path_1272" data-name="Path 1272" d="M316.912,131.407c3.878-.169,12.751-.557,12.78.1a.2.2,0,0,0,.406-.01l.138-.691a.421.421,0,0,0-.374-.616c-4.3-.149-8.651.054-12.962.213a2.61,2.61,0,0,0-2.618-2.086l-.324.023a2.6,2.6,0,1,0,.129,5.2l.325.007A2.607,2.607,0,0,0,316.912,131.407Z" fill="#65a8df"/>
        <path id="Path_1273" data-name="Path 1273" d="M322.522,138.663c3.6-.157,11.827-.517,11.853.1a.189.189,0,0,0,.377-.009l.128-.641a.39.39,0,0,0-.347-.571c-3.985-.138-8.024.05-12.022.2a2.421,2.421,0,0,0-2.429-1.935l-.3.021a2.412,2.412,0,1,0,.119,4.822l.3.006A2.418,2.418,0,0,0,322.522,138.663Z" fill="#65a8df"/>
        <path id="Path_1274" data-name="Path 1274" d="M326.752,148.666a2.269,2.269,0,0,0,1.875.754,107.39,107.39,0,0,0,21.476-.75,1.8,1.8,0,0,0,1.864-2,110.117,110.117,0,0,0,.953-21.419,2.047,2.047,0,0,0-.169-.848,1.965,1.965,0,0,0-1.083-.791c-4.357-1.753-9.2-1.664-13.9-1.549l-8.991.221a2.473,2.473,0,0,0-1.074.188c-.734.374-.9,1.332-.97,2.153a151.949,151.949,0,0,0-.229,22.983A2.241,2.241,0,0,0,326.752,148.666Z" fill="#65a8df"/>
      </g>
      <path id="Path_1275" data-name="Path 1275" d="M350.513,126.288a.416.416,0,0,0-.407-.407q-10.217-.82-20.457-1.261c-.464-.02-.53.582-.209.783a.162.162,0,0,0-.041.084c-.523,7.115-.576,14.288-.846,21.417a.274.274,0,0,0,.271.271A187.459,187.459,0,0,0,348.617,147a.372.372,0,0,0,.357-.272,98.181,98.181,0,0,0,1.539-20.439Zm-2.884,20.036c-3.293.219-6.6.314-9.9.367-1.65.026-3.3.019-4.951,0-1.711-.016-3.7.545-3.625-1.737.214-6.48.613-12.987.591-19.471l0-.007q9.7.385,19.388,1.138C350.507,126.725,349.655,146.19,347.629,146.324Z" fill="#f1f1f2" opacity="0.42"/>
    </g>
    <g id="Group_322" data-name="Group 322">
      <path id="Path_1276" data-name="Path 1276" d="M338.344,129.928c-.113-.573-.92-.492-1.076,0-1.26,3.958-2.362,7.964-3.259,12.019a.3.3,0,0,0,.58.16q.721-2.356,1.456-4.707c.782.148,1.563.322,2.348.454.169,1.346.334,2.694.509,4.043.093.715,1.2.762,1.156,0a87.414,87.414,0,0,0-1.713-11.969Zm-2.078,6.772q.678-2.156,1.372-4.307c.218,1.369.4,2.741.582,4.114C337.568,136.562,336.917,136.638,336.266,136.7Z" fill="#f1f1f2"/>
      <path id="Path_1277" data-name="Path 1277" d="M343.963,141.412c-.083-2.389-.07-4.783-.159-7.173a12.556,12.556,0,0,0-.175-3.526.6.6,0,0,0-.052-1.133,3.207,3.207,0,0,0-.867-.011.6.6,0,0,0-.568.745.628.628,0,0,0,.592.434l.072,0a103.642,103.642,0,0,1,.081,10.473c-.705,0-.712,1.216.059,1.209l.59-.005a.607.607,0,0,0,.427-1.017Z" fill="#f1f1f2"/>
    </g>
  </g>
</svg>
