<svg xmlns="http://www.w3.org/2000/svg" width="71.747" height="71.747" viewBox="0 0 71.747 71.747">
  <g id="Group_53" data-name="Group 53" transform="translate(-926.26 -440.225)">
    <g id="Group_45" data-name="Group 45">
      <path id="Path_359" data-name="Path 359" d="M950.574,447.534a2.291,2.291,0,1,1,3.165-.69,2.291,2.291,0,0,1-3.165.69Z" fill="#75d1f7"/>
      <path id="Path_360" data-name="Path 360" d="M953.817,450.691a1.6,1.6,0,1,1,1.2.217,1.6,1.6,0,0,1-1.2-.217Z" fill="#75d1f7"/>
      <path id="Path_361" data-name="Path 361" d="M956.778,446.071a3.171,3.171,0,1,1,2.392.432,3.175,3.175,0,0,1-2.392-.432Z" fill="#75d1f7"/>
      <path id="Path_362" data-name="Path 362" d="M953.027,442.871a1.056,1.056,0,1,1,1.461-.318A1.056,1.056,0,0,1,953.027,442.871Z" fill="#75d1f7"/>
      <path id="Path_363" data-name="Path 363" d="M950.956,449.911a.685.685,0,1,1,.947-.2.685.685,0,0,1-.947.2Z" fill="#75d1f7"/>
      <path id="Path_364" data-name="Path 364" d="M955.02,447.086a.663.663,0,1,1,.916-.2.663.663,0,0,1-.916.2Z" fill="#75d1f7"/>
      <path id="Path_365" data-name="Path 365" d="M960.955,448.753a1.587,1.587,0,1,1,2.192-.477,1.587,1.587,0,0,1-2.192.477Z" fill="#75d1f7"/>
      <path id="Path_366" data-name="Path 366" d="M963,445.7a1.137,1.137,0,1,1,.858.155A1.138,1.138,0,0,1,963,445.7Z" fill="#75d1f7"/>
      <path id="Path_367" data-name="Path 367" d="M957.64,450.973a1.59,1.59,0,1,1,2.2-.478,1.59,1.59,0,0,1-2.2.478Z" fill="#75d1f7"/>
      <path id="Path_368" data-name="Path 368" d="M965.457,452.49a2.558,2.558,0,1,1,1.928.348A2.56,2.56,0,0,1,965.457,452.49Z" fill="#75d1f7"/>
      <path id="Path_369" data-name="Path 369" d="M960.937,452.512a1.23,1.23,0,1,1,1.7-.37,1.23,1.23,0,0,1-1.7.37Z" fill="#75d1f7"/>
      <path id="Path_370" data-name="Path 370" d="M965.464,447.294a.812.812,0,1,1,.613.112.813.813,0,0,1-.613-.112Z" fill="#75d1f7"/>
      <path id="Path_371" data-name="Path 371" d="M968.886,456.207a1.509,1.509,0,1,1,2.083-.454,1.509,1.509,0,0,1-2.083.454Z" fill="#75d1f7"/>
      <path id="Path_372" data-name="Path 372" d="M970.3,452.885a.6.6,0,1,1,.833-.181.6.6,0,0,1-.833.181Z" fill="#75d1f7"/>
      <path id="Path_373" data-name="Path 373" d="M966.4,454.887a.752.752,0,1,1,.569.1.754.754,0,0,1-.569-.1Z" fill="#75d1f7"/>
      <path id="Path_374" data-name="Path 374" d="M971.925,457.542a1.068,1.068,0,1,1,1.475-.322,1.068,1.068,0,0,1-1.475.322Z" fill="#75d1f7"/>
      <path id="Path_375" data-name="Path 375" d="M973.135,459.758a.607.607,0,1,1,.838-.182A.607.607,0,0,1,973.135,459.758Z" fill="#75d1f7"/>
      <path id="Path_376" data-name="Path 376" d="M974.068,460.945a.441.441,0,1,1,.61-.133.441.441,0,0,1-.61.133Z" fill="#75d1f7"/>
      <path id="Path_377" data-name="Path 377" d="M973.741,458.253a.3.3,0,1,1,.419-.092.3.3,0,0,1-.419.092Z" fill="#75d1f7"/>
      <path id="Path_378" data-name="Path 378" d="M963.778,453.879a.658.658,0,1,1,.5.091.66.66,0,0,1-.5-.091Z" fill="#75d1f7"/>
      <path id="Path_379" data-name="Path 379" d="M963.06,450.344a.616.616,0,1,1,.464.083.615.615,0,0,1-.464-.083Z" fill="#75d1f7"/>
    </g>
    <g id="Group_46" data-name="Group 46">
      <path id="Path_380" data-name="Path 380" d="M933.762,464.074a2.291,2.291,0,1,1,1.75-2.726,2.291,2.291,0,0,1-1.75,2.726Z" fill="#bbd64c"/>
      <path id="Path_381" data-name="Path 381" d="M938.287,464.015a1.6,1.6,0,1,1,1.222-1.9,1.6,1.6,0,0,1-1.222,1.9Z" fill="#bbd64c"/>
      <path id="Path_382" data-name="Path 382" d="M937.116,458.653a3.175,3.175,0,1,1,2.424-3.778,3.175,3.175,0,0,1-2.424,3.778Z" fill="#bbd64c"/>
      <path id="Path_383" data-name="Path 383" d="M932.2,459.04a1.053,1.053,0,1,1,.665-.46A1.055,1.055,0,0,1,932.2,459.04Z" fill="#bbd64c"/>
      <path id="Path_384" data-name="Path 384" d="M935.712,465.485a.686.686,0,1,1,.524-.815.686.686,0,0,1-.524.815Z" fill="#bbd64c"/>
      <path id="Path_385" data-name="Path 385" d="M936.588,460.615a.662.662,0,1,1,.417-.289A.662.662,0,0,1,936.588,460.615Z" fill="#bbd64c"/>
      <path id="Path_386" data-name="Path 386" d="M941.964,457.6a1.588,1.588,0,1,1,1-.694,1.588,1.588,0,0,1-1,.694Z" fill="#bbd64c"/>
      <path id="Path_387" data-name="Path 387" d="M941.251,453.994a1.138,1.138,0,1,1,.868-1.355,1.138,1.138,0,0,1-.868,1.355Z" fill="#bbd64c"/>
      <path id="Path_388" data-name="Path 388" d="M941.19,461.51a1.589,1.589,0,1,1,1-.695A1.59,1.59,0,0,1,941.19,461.51Z" fill="#bbd64c"/>
      <path id="Path_389" data-name="Path 389" d="M947.789,457.056a2.56,2.56,0,1,1,1.956-3.046,2.56,2.56,0,0,1-1.956,3.046Z" fill="#bbd64c"/>
      <path id="Path_390" data-name="Path 390" d="M944.609,460.269a1.23,1.23,0,1,1,.94-1.465,1.23,1.23,0,0,1-.94,1.465Z" fill="#bbd64c"/>
      <path id="Path_391" data-name="Path 391" d="M944.121,453.378a.814.814,0,1,1,.513-.356A.815.815,0,0,1,944.121,453.378Z" fill="#bbd64c"/>
      <path id="Path_392" data-name="Path 392" d="M952.842,457.261a1.509,1.509,0,1,1,1.153-1.8,1.509,1.509,0,0,1-1.153,1.8Z" fill="#bbd64c"/>
      <path id="Path_393" data-name="Path 393" d="M951.5,453.911a.6.6,0,1,1,.461-.719.6.6,0,0,1-.461.719Z" fill="#bbd64c"/>
      <path id="Path_394" data-name="Path 394" d="M950.151,458.086a.755.755,0,1,1,.575-.9.755.755,0,0,1-.575.9Z" fill="#bbd64c"/>
      <path id="Path_395" data-name="Path 395" d="M955.935,456.053a1.066,1.066,0,1,1,.671-.466,1.067,1.067,0,0,1-.671.466Z" fill="#bbd64c"/>
      <path id="Path_396" data-name="Path 396" d="M958.358,456.766a.606.606,0,1,1,.381-.265.607.607,0,0,1-.381.265Z" fill="#bbd64c"/>
      <path id="Path_397" data-name="Path 397" d="M959.857,456.945a.439.439,0,1,1,.278-.192.441.441,0,0,1-.278.192Z" fill="#bbd64c"/>
      <path id="Path_398" data-name="Path 398" d="M957.723,455.272a.3.3,0,1,1,.231-.36.3.3,0,0,1-.231.36Z" fill="#bbd64c"/>
      <path id="Path_399" data-name="Path 399" d="M947.586,459.226a.661.661,0,1,1,.5-.786.661.661,0,0,1-.5.786Z" fill="#bbd64c"/>
      <path id="Path_400" data-name="Path 400" d="M944.576,457.232a.615.615,0,1,1,.471-.731.615.615,0,0,1-.471.731Z" fill="#bbd64c"/>
    </g>
    <g id="Group_47" data-name="Group 47">
      <path id="Path_401" data-name="Path 401" d="M933.569,487.659a2.291,2.291,0,1,1-.69-3.168A2.291,2.291,0,0,1,933.569,487.659Z" fill="#f7d92d"/>
      <path id="Path_402" data-name="Path 402" d="M936.727,484.417a1.6,1.6,0,1,1-.481-2.21,1.6,1.6,0,0,1,.481,2.21Z" fill="#f7d92d"/>
      <path id="Path_403" data-name="Path 403" d="M932.106,481.453a3.172,3.172,0,1,1,.432-2.391,3.174,3.174,0,0,1-.432,2.391Z" fill="#f7d92d"/>
      <path id="Path_404" data-name="Path 404" d="M928.905,485.2a1.055,1.055,0,1,1-.317-1.456,1.055,1.055,0,0,1,.317,1.456Z" fill="#f7d92d"/>
      <path id="Path_405" data-name="Path 405" d="M935.946,487.276a.684.684,0,1,1,.093-.517.686.686,0,0,1-.093.517Z" fill="#f7d92d"/>
      <path id="Path_406" data-name="Path 406" d="M933.122,483.213a.661.661,0,1,1,.091-.5.663.663,0,0,1-.091.5Z" fill="#f7d92d"/>
      <path id="Path_407" data-name="Path 407" d="M934.789,477.278a1.588,1.588,0,1,1-.478-2.193,1.588,1.588,0,0,1,.478,2.193Z" fill="#f7d92d"/>
      <path id="Path_408" data-name="Path 408" d="M931.735,475.234a1.136,1.136,0,1,1,.156-.858,1.137,1.137,0,0,1-.156.858Z" fill="#f7d92d"/>
      <path id="Path_409" data-name="Path 409" d="M937.009,480.592a1.59,1.59,0,1,1-.479-2.2,1.59,1.59,0,0,1,.479,2.2Z" fill="#f7d92d"/>
      <path id="Path_410" data-name="Path 410" d="M938.525,472.778a2.557,2.557,0,1,1,.35-1.93A2.561,2.561,0,0,1,938.525,472.778Z" fill="#f7d92d"/>
      <path id="Path_411" data-name="Path 411" d="M938.547,477.294a1.226,1.226,0,1,1,.168-.926A1.23,1.23,0,0,1,938.547,477.294Z" fill="#f7d92d"/>
      <path id="Path_412" data-name="Path 412" d="M933.33,472.768a.812.812,0,1,1,.111-.612.814.814,0,0,1-.111.612Z" fill="#f7d92d"/>
      <path id="Path_413" data-name="Path 413" d="M942.244,469.348a1.509,1.509,0,1,1-.455-2.085,1.509,1.509,0,0,1,.455,2.085Z" fill="#f7d92d"/>
      <path id="Path_414" data-name="Path 414" d="M938.921,467.931a.6.6,0,1,1-.182-.833.6.6,0,0,1,.182.833Z" fill="#f7d92d"/>
      <path id="Path_415" data-name="Path 415" d="M940.923,471.835a.754.754,0,1,1-.228-1.041.754.754,0,0,1,.228,1.041Z" fill="#f7d92d"/>
      <path id="Path_416" data-name="Path 416" d="M943.576,466.309a1.067,1.067,0,1,1-.322-1.475A1.067,1.067,0,0,1,943.576,466.309Z" fill="#f7d92d"/>
      <path id="Path_417" data-name="Path 417" d="M945.794,465.1a.6.6,0,1,1,.082-.456A.606.606,0,0,1,945.794,465.1Z" fill="#f7d92d"/>
      <path id="Path_418" data-name="Path 418" d="M946.981,464.164a.44.44,0,1,1,.06-.332.441.441,0,0,1-.06.332Z" fill="#f7d92d"/>
      <path id="Path_419" data-name="Path 419" d="M944.288,464.491a.3.3,0,1,1-.091-.417A.3.3,0,0,1,944.288,464.491Z" fill="#f7d92d"/>
      <path id="Path_420" data-name="Path 420" d="M939.916,474.455a.661.661,0,1,1-.2-.912.661.661,0,0,1,.2.912Z" fill="#f7d92d"/>
      <path id="Path_421" data-name="Path 421" d="M936.379,475.172a.615.615,0,1,1-.185-.849.615.615,0,0,1,.185.849Z" fill="#f7d92d"/>
    </g>
    <g id="Group_48" data-name="Group 48">
      <path id="Path_422" data-name="Path 422" d="M950.109,504.471a2.29,2.29,0,1,1-1-1.441,2.291,2.291,0,0,1,1,1.441Z" fill="#f4912b"/>
      <path id="Path_423" data-name="Path 423" d="M950.05,499.945a1.6,1.6,0,1,1-.7-1.005A1.6,1.6,0,0,1,950.05,499.945Z" fill="#f4912b"/>
      <path id="Path_424" data-name="Path 424" d="M944.688,501.117a3.175,3.175,0,1,1-3.778-2.426,3.175,3.175,0,0,1,3.778,2.426Z" fill="#f4912b"/>
      <path id="Path_425" data-name="Path 425" d="M945.075,506.032a1.056,1.056,0,1,1-1.255-.806,1.056,1.056,0,0,1,1.255.806Z" fill="#f4912b"/>
      <path id="Path_426" data-name="Path 426" d="M951.52,502.519a.682.682,0,1,1-.3-.431.686.686,0,0,1,.3.431Z" fill="#f4912b"/>
      <path id="Path_427" data-name="Path 427" d="M946.65,501.643a.663.663,0,1,1-.788-.508.663.663,0,0,1,.788.508Z" fill="#f4912b"/>
      <path id="Path_428" data-name="Path 428" d="M943.632,496.269a1.587,1.587,0,1,1-1.89-1.215,1.587,1.587,0,0,1,1.89,1.215Z" fill="#f4912b"/>
      <path id="Path_429" data-name="Path 429" d="M940.027,496.981a1.136,1.136,0,1,1-.5-.715,1.138,1.138,0,0,1,.5.715Z" fill="#f4912b"/>
      <path id="Path_430" data-name="Path 430" d="M947.546,497.042a1.588,1.588,0,1,1-.695-1,1.59,1.59,0,0,1,.695,1Z" fill="#f4912b"/>
      <path id="Path_431" data-name="Path 431" d="M943.091,490.443a2.557,2.557,0,1,1-1.117-1.611A2.56,2.56,0,0,1,943.091,490.443Z" fill="#f4912b"/>
      <path id="Path_432" data-name="Path 432" d="M946.3,493.623a1.23,1.23,0,1,1-1.465-.939A1.23,1.23,0,0,1,946.3,493.623Z" fill="#f4912b"/>
      <path id="Path_433" data-name="Path 433" d="M939.414,494.111a.815.815,0,1,1-.971-.623.815.815,0,0,1,.971.623Z" fill="#f4912b"/>
      <path id="Path_434" data-name="Path 434" d="M943.295,485.39a1.509,1.509,0,1,1-1.795-1.153A1.509,1.509,0,0,1,943.295,485.39Z" fill="#f4912b"/>
      <path id="Path_435" data-name="Path 435" d="M939.944,486.738a.6.6,0,1,1-.262-.381A.6.6,0,0,1,939.944,486.738Z" fill="#f4912b"/>
      <path id="Path_436" data-name="Path 436" d="M944.121,488.082a.754.754,0,1,1-.9-.576.754.754,0,0,1,.9.576Z" fill="#f4912b"/>
      <path id="Path_437" data-name="Path 437" d="M942.087,482.3a1.064,1.064,0,1,1-.465-.672,1.066,1.066,0,0,1,.465.672Z" fill="#f4912b"/>
      <path id="Path_438" data-name="Path 438" d="M942.8,479.875a.606.606,0,1,1-.722-.464.606.606,0,0,1,.722.464Z" fill="#f4912b"/>
      <path id="Path_439" data-name="Path 439" d="M942.98,478.374a.44.44,0,1,1-.192-.277.441.441,0,0,1,.192.277Z" fill="#f4912b"/>
      <path id="Path_440" data-name="Path 440" d="M941.309,480.509a.3.3,0,1,1-.361-.231A.3.3,0,0,1,941.309,480.509Z" fill="#f4912b"/>
      <path id="Path_441" data-name="Path 441" d="M945.262,490.647a.662.662,0,1,1-.787-.5.662.662,0,0,1,.787.5Z" fill="#f4912b"/>
      <path id="Path_442" data-name="Path 442" d="M943.268,493.655a.614.614,0,1,1-.268-.388.615.615,0,0,1,.268.388Z" fill="#f4912b"/>
    </g>
    <g id="Group_49" data-name="Group 49">
      <path id="Path_443" data-name="Path 443" d="M973.7,504.664a2.289,2.289,0,1,1-1.726-.313,2.291,2.291,0,0,1,1.726.313Z" fill="#ee326b"/>
      <path id="Path_444" data-name="Path 444" d="M970.451,501.5a1.6,1.6,0,1,1-2.209.481,1.6,1.6,0,0,1,2.209-.481Z" fill="#ee326b"/>
      <path id="Path_445" data-name="Path 445" d="M967.489,506.125a3.175,3.175,0,1,1-4.389.955,3.175,3.175,0,0,1,4.389-.955Z" fill="#ee326b"/>
      <path id="Path_446" data-name="Path 446" d="M971.239,509.326a1.057,1.057,0,1,1-1.458.318A1.057,1.057,0,0,1,971.239,509.326Z" fill="#ee326b"/>
      <path id="Path_447" data-name="Path 447" d="M973.313,502.286a.686.686,0,1,1-.947.207.686.686,0,0,1,.947-.207Z" fill="#ee326b"/>
      <path id="Path_448" data-name="Path 448" d="M969.248,505.109a.663.663,0,1,1-.914.2.663.663,0,0,1,.914-.2Z" fill="#ee326b"/>
      <path id="Path_449" data-name="Path 449" d="M963.313,503.444a1.586,1.586,0,1,1-1.2-.217,1.587,1.587,0,0,1,1.2.217Z" fill="#ee326b"/>
      <path id="Path_450" data-name="Path 450" d="M961.27,506.5a1.137,1.137,0,1,1-1.572.342A1.137,1.137,0,0,1,961.27,506.5Z" fill="#ee326b"/>
      <path id="Path_451" data-name="Path 451" d="M966.628,501.222a1.59,1.59,0,1,1-2.2.478,1.59,1.59,0,0,1,2.2-.478Z" fill="#ee326b"/>
      <path id="Path_452" data-name="Path 452" d="M958.812,499.707a2.559,2.559,0,1,1-1.929-.348,2.561,2.561,0,0,1,1.929.348Z" fill="#ee326b"/>
      <path id="Path_453" data-name="Path 453" d="M963.33,499.683a1.23,1.23,0,1,1-1.7.372,1.23,1.23,0,0,1,1.7-.372Z" fill="#ee326b"/>
      <path id="Path_454" data-name="Path 454" d="M958.8,504.9a.814.814,0,1,1-.614-.111.815.815,0,0,1,.614.111Z" fill="#ee326b"/>
      <path id="Path_455" data-name="Path 455" d="M955.383,495.988a1.507,1.507,0,1,1-1.137-.2,1.508,1.508,0,0,1,1.137.2Z" fill="#ee326b"/>
      <path id="Path_456" data-name="Path 456" d="M953.968,499.312a.6.6,0,1,1-.455-.082.6.6,0,0,1,.455.082Z" fill="#ee326b"/>
      <path id="Path_457" data-name="Path 457" d="M957.87,497.308a.754.754,0,1,1-1.041.228.754.754,0,0,1,1.041-.228Z" fill="#ee326b"/>
      <path id="Path_458" data-name="Path 458" d="M952.344,494.656a1.067,1.067,0,1,1-.8-.145,1.067,1.067,0,0,1,.8.145Z" fill="#ee326b"/>
      <path id="Path_459" data-name="Path 459" d="M951.133,492.439a.6.6,0,1,1-.455-.083.605.605,0,0,1,.455.083Z" fill="#ee326b"/>
      <path id="Path_460" data-name="Path 460" d="M950.2,491.25a.439.439,0,1,1-.332-.06A.442.442,0,0,1,950.2,491.25Z" fill="#ee326b"/>
      <path id="Path_461" data-name="Path 461" d="M950.528,493.943a.3.3,0,1,1-.42.091.3.3,0,0,1,.42-.091Z" fill="#ee326b"/>
      <path id="Path_462" data-name="Path 462" d="M960.491,498.317a.661.661,0,1,1-.5-.09A.661.661,0,0,1,960.491,498.317Z" fill="#ee326b"/>
      <path id="Path_463" data-name="Path 463" d="M961.207,501.854a.614.614,0,1,1-.463-.085.615.615,0,0,1,.463.085Z" fill="#ee326b"/>
    </g>
    <g id="Group_50" data-name="Group 50">
      <path id="Path_464" data-name="Path 464" d="M990.508,488.122a2.291,2.291,0,1,1-1.752,2.728A2.291,2.291,0,0,1,990.508,488.122Z" fill="#ef4343"/>
      <path id="Path_465" data-name="Path 465" d="M985.981,488.181a1.6,1.6,0,1,1-1.006.7,1.6,1.6,0,0,1,1.006-.7Z" fill="#ef4343"/>
      <path id="Path_466" data-name="Path 466" d="M987.152,493.543a3.175,3.175,0,1,1-2.424,3.779A3.175,3.175,0,0,1,987.152,493.543Z" fill="#ef4343"/>
      <path id="Path_467" data-name="Path 467" d="M992.067,493.157a1.056,1.056,0,1,1-.806,1.256A1.056,1.056,0,0,1,992.067,493.157Z" fill="#ef4343"/>
      <path id="Path_468" data-name="Path 468" d="M988.557,486.712a.685.685,0,1,1-.524.815.685.685,0,0,1,.524-.815Z" fill="#ef4343"/>
      <path id="Path_469" data-name="Path 469" d="M987.68,491.582a.662.662,0,1,1-.417.289.663.663,0,0,1,.417-.289Z" fill="#ef4343"/>
      <path id="Path_470" data-name="Path 470" d="M982.3,494.6a1.585,1.585,0,1,1-1,.692A1.587,1.587,0,0,1,982.3,494.6Z" fill="#ef4343"/>
      <path id="Path_471" data-name="Path 471" d="M983.018,498.2a1.138,1.138,0,1,1-.869,1.354,1.138,1.138,0,0,1,.869-1.354Z" fill="#ef4343"/>
      <path id="Path_472" data-name="Path 472" d="M983.079,490.686a1.588,1.588,0,1,1-1,.694,1.59,1.59,0,0,1,1-.694Z" fill="#ef4343"/>
      <path id="Path_473" data-name="Path 473" d="M976.48,495.139a2.561,2.561,0,1,1-1.957,3.048,2.561,2.561,0,0,1,1.957-3.048Z" fill="#ef4343"/>
      <path id="Path_474" data-name="Path 474" d="M979.659,491.928a1.231,1.231,0,1,1-.94,1.465,1.231,1.231,0,0,1,.94-1.465Z" fill="#ef4343"/>
      <path id="Path_475" data-name="Path 475" d="M980.148,498.82a.811.811,0,1,1-.512.355.814.814,0,0,1,.512-.355Z" fill="#ef4343"/>
      <path id="Path_476" data-name="Path 476" d="M971.426,494.937a1.506,1.506,0,1,1-.949.658,1.508,1.508,0,0,1,.949-.658Z" fill="#ef4343"/>
      <path id="Path_477" data-name="Path 477" d="M972.773,498.287a.6.6,0,1,1-.38.264.6.6,0,0,1,.38-.264Z" fill="#ef4343"/>
      <path id="Path_478" data-name="Path 478" d="M974.118,494.111a.755.755,0,1,1-.576.9A.755.755,0,0,1,974.118,494.111Z" fill="#ef4343"/>
      <path id="Path_479" data-name="Path 479" d="M968.334,496.143a1.067,1.067,0,1,1-.816,1.27,1.067,1.067,0,0,1,.816-1.27Z" fill="#ef4343"/>
      <path id="Path_480" data-name="Path 480" d="M965.91,495.431a.606.606,0,1,1-.463.721A.606.606,0,0,1,965.91,495.431Z" fill="#ef4343"/>
      <path id="Path_481" data-name="Path 481" d="M964.411,495.252a.44.44,0,1,1-.277.192.441.441,0,0,1,.277-.192Z" fill="#ef4343"/>
      <path id="Path_482" data-name="Path 482" d="M966.545,496.923a.3.3,0,1,1-.23.36.305.305,0,0,1,.23-.36Z" fill="#ef4343"/>
      <path id="Path_483" data-name="Path 483" d="M976.683,492.971a.661.661,0,1,1-.5.786.661.661,0,0,1,.5-.786Z" fill="#ef4343"/>
      <path id="Path_484" data-name="Path 484" d="M979.69,494.965a.614.614,0,1,1-.386.268.615.615,0,0,1,.386-.268Z" fill="#ef4343"/>
    </g>
    <g id="Group_51" data-name="Group 51">
      <path id="Path_485" data-name="Path 485" d="M990.7,464.538a2.293,2.293,0,1,1,.69,3.167,2.293,2.293,0,0,1-.69-3.167Z" fill="#81469b"/>
      <path id="Path_486" data-name="Path 486" d="M987.541,467.782a1.6,1.6,0,1,1,.482,2.207,1.6,1.6,0,0,1-.482-2.207Z" fill="#81469b"/>
      <path id="Path_487" data-name="Path 487" d="M992.161,470.744a3.175,3.175,0,1,1,.955,4.386,3.175,3.175,0,0,1-.955-4.386Z" fill="#81469b"/>
      <path id="Path_488" data-name="Path 488" d="M995.363,466.994a1.056,1.056,0,1,1,.317,1.459,1.056,1.056,0,0,1-.317-1.459Z" fill="#81469b"/>
      <path id="Path_489" data-name="Path 489" d="M988.322,464.921a.685.685,0,1,1,.206.946A.685.685,0,0,1,988.322,464.921Z" fill="#81469b"/>
      <path id="Path_490" data-name="Path 490" d="M991.146,468.984a.663.663,0,1,1,.2.916.663.663,0,0,1-.2-.916Z" fill="#81469b"/>
      <path id="Path_491" data-name="Path 491" d="M989.48,474.919a1.586,1.586,0,1,1-.216,1.2,1.587,1.587,0,0,1,.216-1.2Z" fill="#81469b"/>
      <path id="Path_492" data-name="Path 492" d="M992.533,476.962a1.138,1.138,0,1,1,.341,1.571,1.138,1.138,0,0,1-.341-1.571Z" fill="#81469b"/>
      <path id="Path_493" data-name="Path 493" d="M987.259,471.6a1.59,1.59,0,1,1,.481,2.2,1.59,1.59,0,0,1-.481-2.2Z" fill="#81469b"/>
      <path id="Path_494" data-name="Path 494" d="M985.742,479.419a2.56,2.56,0,1,1,.77,3.538,2.56,2.56,0,0,1-.77-3.538Z" fill="#81469b"/>
      <path id="Path_495" data-name="Path 495" d="M985.721,474.9a1.229,1.229,0,1,1-.167.927,1.23,1.23,0,0,1,.167-.927Z" fill="#81469b"/>
      <path id="Path_496" data-name="Path 496" d="M990.938,479.427a.814.814,0,1,1-.111.614.814.814,0,0,1,.111-.614Z" fill="#81469b"/>
      <path id="Path_497" data-name="Path 497" d="M982.025,482.849a1.507,1.507,0,1,1-.2,1.137,1.508,1.508,0,0,1,.2-1.137Z" fill="#81469b"/>
      <path id="Path_498" data-name="Path 498" d="M985.349,484.265a.6.6,0,1,1-.083.455.6.6,0,0,1,.083-.455Z" fill="#81469b"/>
      <path id="Path_499" data-name="Path 499" d="M983.345,480.361a.753.753,0,1,1-.1.569.754.754,0,0,1,.1-.569Z" fill="#81469b"/>
      <path id="Path_500" data-name="Path 500" d="M980.693,485.888a1.065,1.065,0,1,1-.146.8A1.067,1.067,0,0,1,980.693,485.888Z" fill="#81469b"/>
      <path id="Path_501" data-name="Path 501" d="M978.475,487.1a.6.6,0,1,1-.083.457.606.606,0,0,1,.083-.457Z" fill="#81469b"/>
      <path id="Path_502" data-name="Path 502" d="M977.288,488.032a.441.441,0,1,1,.132.609.441.441,0,0,1-.132-.609Z" fill="#81469b"/>
      <path id="Path_503" data-name="Path 503" d="M979.98,487.7a.3.3,0,1,1,.091.42.3.3,0,0,1-.091-.42Z" fill="#81469b"/>
      <path id="Path_504" data-name="Path 504" d="M984.354,477.743a.657.657,0,1,1-.091.5.66.66,0,0,1,.091-.5Z" fill="#81469b"/>
      <path id="Path_505" data-name="Path 505" d="M987.889,477.023a.616.616,0,1,1,.185.852.616.616,0,0,1-.185-.852Z" fill="#81469b"/>
    </g>
    <g id="Group_52" data-name="Group 52">
      <path id="Path_506" data-name="Path 506" d="M974.158,447.725a2.291,2.291,0,1,1,2.727,1.75A2.291,2.291,0,0,1,974.158,447.725Z" fill="#536bb2"/>
      <path id="Path_507" data-name="Path 507" d="M974.219,452.25a1.6,1.6,0,1,1,.7,1.006,1.6,1.6,0,0,1-.7-1.006Z" fill="#536bb2"/>
      <path id="Path_508" data-name="Path 508" d="M979.579,451.08a3.175,3.175,0,1,1,3.778,2.426,3.175,3.175,0,0,1-3.778-2.426Z" fill="#536bb2"/>
      <path id="Path_509" data-name="Path 509" d="M979.193,446.163a1.053,1.053,0,1,1,.46.665,1.055,1.055,0,0,1-.46-.665Z" fill="#536bb2"/>
      <path id="Path_510" data-name="Path 510" d="M972.747,449.676a.685.685,0,1,1,.817.525.685.685,0,0,1-.817-.525Z" fill="#536bb2"/>
      <path id="Path_511" data-name="Path 511" d="M977.617,450.554a.664.664,0,1,1,.789.506.664.664,0,0,1-.789-.506Z" fill="#536bb2"/>
      <path id="Path_512" data-name="Path 512" d="M980.636,455.928a1.588,1.588,0,1,1,1.89,1.215,1.588,1.588,0,0,1-1.89-1.215Z" fill="#536bb2"/>
      <path id="Path_513" data-name="Path 513" d="M984.24,455.214a1.138,1.138,0,1,1,1.354.869A1.138,1.138,0,0,1,984.24,455.214Z" fill="#536bb2"/>
      <path id="Path_514" data-name="Path 514" d="M976.724,455.154a1.587,1.587,0,1,1,.693,1,1.59,1.59,0,0,1-.693-1Z" fill="#536bb2"/>
      <path id="Path_515" data-name="Path 515" d="M981.177,461.752a2.559,2.559,0,1,1,1.118,1.61,2.56,2.56,0,0,1-1.118-1.61Z" fill="#536bb2"/>
      <path id="Path_516" data-name="Path 516" d="M977.965,458.575a1.23,1.23,0,1,1,1.464.939A1.23,1.23,0,0,1,977.965,458.575Z" fill="#536bb2"/>
      <path id="Path_517" data-name="Path 517" d="M984.856,458.086a.815.815,0,1,1,.969.621.814.814,0,0,1-.969-.621Z" fill="#536bb2"/>
      <path id="Path_518" data-name="Path 518" d="M980.973,466.806a1.507,1.507,0,1,1,.659.949,1.509,1.509,0,0,1-.659-.949Z" fill="#536bb2"/>
      <path id="Path_519" data-name="Path 519" d="M984.323,465.458a.6.6,0,1,1,.718.461A.6.6,0,0,1,984.323,465.458Z" fill="#536bb2"/>
      <path id="Path_520" data-name="Path 520" d="M980.148,464.116a.753.753,0,1,1,.329.474.755.755,0,0,1-.329-.474Z" fill="#536bb2"/>
      <path id="Path_521" data-name="Path 521" d="M982.179,469.9a1.067,1.067,0,1,1,1.27.815,1.067,1.067,0,0,1-1.27-.815Z" fill="#536bb2"/>
      <path id="Path_522" data-name="Path 522" d="M981.467,472.323a.6.6,0,1,1,.265.38A.606.606,0,0,1,981.467,472.323Z" fill="#536bb2"/>
      <path id="Path_523" data-name="Path 523" d="M981.288,473.823a.44.44,0,1,1,.192.277.441.441,0,0,1-.192-.277Z" fill="#536bb2"/>
      <path id="Path_524" data-name="Path 524" d="M982.96,471.686a.3.3,0,1,1,.132.191A.3.3,0,0,1,982.96,471.686Z" fill="#536bb2"/>
      <path id="Path_525" data-name="Path 525" d="M979.007,461.55a.661.661,0,1,1,.787.5A.661.661,0,0,1,979.007,461.55Z" fill="#536bb2"/>
      <path id="Path_526" data-name="Path 526" d="M981,458.542a.614.614,0,1,1,.269.387A.616.616,0,0,1,981,458.542Z" fill="#536bb2"/>
    </g>
  </g>
</svg>
