<svg xmlns="http://www.w3.org/2000/svg" width="102.196" height="79.509" viewBox="0 0 102.196 79.509">
  <g id="Group_2241" data-name="Group 2241" transform="translate(-919.453 -1067.968)">
    <path id="Path_10334" data-name="Path 10334" d="M971.04,1068.318a.548.548,0,0,0-1.022,0,36.278,36.278,0,0,1-5.612,9.423.549.549,0,0,0,.093.8,16.752,16.752,0,0,1,5.513,6.483.571.571,0,0,0,1.035,0,16.751,16.751,0,0,1,5.513-6.484.548.548,0,0,0,.093-.8,36.282,36.282,0,0,1-5.612-9.423Z" fill="#1f1f1f"/>
    <path id="Path_10335" data-name="Path 10335" d="M950.566,1089.119a.548.548,0,0,0-1.014,0,27.127,27.127,0,0,1-3.923,6.527.549.549,0,0,0,.093.791,12.378,12.378,0,0,1,3.846,4.475.548.548,0,0,0,.984,0,12.377,12.377,0,0,1,3.846-4.475.548.548,0,0,0,.093-.791,27.12,27.12,0,0,1-3.923-6.527Z" fill="#1f1f1f"/>
    <path id="Path_10336" data-name="Path 10336" d="M990.491,1089.363a.548.548,0,0,1,1.014,0,27.127,27.127,0,0,0,3.923,6.527.549.549,0,0,1-.093.791,12.4,12.4,0,0,0-3.826,4.436.571.571,0,0,1-1.022,0,12.393,12.393,0,0,0-3.827-4.437.548.548,0,0,1-.093-.791,27.131,27.131,0,0,0,3.924-6.527Z" fill="#1f1f1f"/>
    <g id="Group_2240" data-name="Group 2240">
      <path id="Path_10337" data-name="Path 10337" d="M1002.184,1122.011c-4.291-3.127-8.945-15.124-10.654-19.592a.589.589,0,0,0-1.091-.023c-1.288,2.993-4.405,9.889-5.43,9.889-3.433,0-11.717-20.2-13.93-25.754a.593.593,0,0,0-1.1,0c-2.213,5.555-10.5,25.754-13.93,25.754-1.032,0-4.188-7-5.458-9.954a.548.548,0,0,0-1.017.025c-1.528,4.093-6.4,16.52-10.7,19.655-4.831,3.526-12.351,5.118-18.844,5.3a.591.591,0,0,0-.433.973,33.48,33.48,0,0,1,2.795,3.77l.192.034a309.847,309.847,0,0,0,95.894,0l.192-.034a33.574,33.574,0,0,1,2.852-3.838.548.548,0,0,0-.4-.9C1014.6,1127.144,1007.038,1125.553,1002.184,1122.011Zm-51.159,7.833a.644.644,0,0,1-1.181,0,13.281,13.281,0,0,0-4.774-5.463.548.548,0,0,1-.136-.761,38.842,38.842,0,0,0,5.129-12.51.382.382,0,0,1,.745,0,38.893,38.893,0,0,0,5.13,12.51.548.548,0,0,1-.136.76,13.3,13.3,0,0,0-4.776,5.464Zm20.288,1.214a.645.645,0,0,1-1.208,0c-1.67-4.494-5.008-7.58-8.308-9.847a.548.548,0,0,1-.137-.768c4.491-6.352,7.563-15.83,8.674-21.5a.381.381,0,0,1,.749,0c1.11,5.666,4.184,15.143,8.677,21.5a.549.549,0,0,1-.137.769c-3.3,2.267-6.638,5.352-8.31,9.847Zm19.9-1.212a.644.644,0,0,1-1.181,0,13.3,13.3,0,0,0-4.777-5.465.548.548,0,0,1-.136-.76,38.866,38.866,0,0,0,5.131-12.507.382.382,0,0,1,.745,0,38.842,38.842,0,0,0,5.128,12.507.548.548,0,0,1-.136.76,13.286,13.286,0,0,0-4.773,5.465Z" fill="#1f1f1f"/>
      <path id="Path_10338" data-name="Path 10338" d="M970.531,1139.019h0a288.214,288.214,0,0,1-46.389-3.74,22.183,22.183,0,0,1,1.739,5.72c19.216-.139,37.907,2.4,44.1,6.318a1.038,1.038,0,0,0,1.109,0c6.19-3.914,24.881-6.456,44.1-6.318a22.185,22.185,0,0,1,1.739-5.72,288.226,288.226,0,0,1-46.389,3.74Z" fill="#1f1f1f"/>
    </g>
  </g>
</svg>
