<svg xmlns="http://www.w3.org/2000/svg" width="330.008" height="110.11" viewBox="0 0 330.008 110.11">
  <g id="Group_2183" data-name="Group 2183" transform="translate(-610.09 -1730.986)">
    <path id="Path_9717" data-name="Path 9717" d="M900.241,1841.1l9.454-22.642a1.856,1.856,0,0,1,2.02-1.117l28.384,4.725a186.345,186.345,0,0,0-40.823-52.978v9.3a1.854,1.854,0,0,1-.035.343c-.007.038-.019.074-.028.112a1.81,1.81,0,0,1-.066.212c-.016.04-.033.08-.051.119a1.867,1.867,0,0,1-.1.185c-.021.035-.042.07-.066.1a1.816,1.816,0,0,1-.151.183c-.021.023-.039.047-.061.069a1.867,1.867,0,0,1-.255.21c-.018.013-.039.021-.058.033a1.867,1.867,0,0,1-.232.126c-.039.018-.079.03-.119.045s-.086.036-.132.049l-40.86,11.517a141.91,141.91,0,0,1,43.18,49.409Z" fill="#1f1f1f"/>
    <path id="Path_9718" data-name="Path 9718" d="M610.09,1822.061l28.381-4.725a1.859,1.859,0,0,1,2.02,1.118l9.451,22.642a141.976,141.976,0,0,1,43.179-49.41l-40.853-11.516c-.046-.013-.088-.033-.132-.05s-.08-.027-.119-.044a1.836,1.836,0,0,1-.233-.126c-.019-.012-.039-.021-.058-.033a1.859,1.859,0,0,1-.254-.21c-.022-.021-.04-.046-.061-.069a1.845,1.845,0,0,1-.151-.183c-.024-.033-.044-.068-.066-.1a1.825,1.825,0,0,1-.1-.185c-.018-.039-.035-.078-.051-.118a1.83,1.83,0,0,1-.066-.213c-.01-.037-.021-.073-.028-.111a1.849,1.849,0,0,1-.035-.344v-9.3a186.2,186.2,0,0,0-40.824,52.981Z" fill="#1f1f1f"/>
    <path id="Path_9719" data-name="Path 9719" d="M687.976,1780.239H666.214l26.834,7.565Z" fill="#1f1f1f"/>
    <path id="Path_9720" data-name="Path 9720" d="M857.135,1787.8l26.839-7.565H862.208Z" fill="#1f1f1f"/>
    <path id="Path_9721" data-name="Path 9721" d="M895.559,1776.522v-45.536H654.631v45.536Z" fill="#1f1f1f"/>
  </g>
</svg>
