<svg xmlns="http://www.w3.org/2000/svg" width="316.928" height="147.642" viewBox="0 0 316.928 147.642">
  <g id="Group_2191" data-name="Group 2191" transform="translate(-1691.356 -1620.349)">
    <path id="Path_9761" data-name="Path 9761" d="M1720.93,1745.785a1.858,1.858,0,0,1-.442,2.671l-29.132,19.535h66.669l-25.547-16.029a1.863,1.863,0,0,1-.2-.15c-.014-.012-.03-.021-.044-.034a1.84,1.84,0,0,1-.267-.3c-.007-.01-.018-.017-.025-.028s-.018-.037-.029-.054a1.846,1.846,0,0,1-.153-.288c-.011-.027-.025-.053-.035-.081a1.855,1.855,0,0,1-.1-.378c0-.027,0-.054-.006-.081a1.849,1.849,0,0,1,0-.322c0-.036,0-.07.01-.106a1.856,1.856,0,0,1,.091-.392l8.705-23.918H1705.7Z" fill="#1f1f1f"/>
    <path id="Path_9762" data-name="Path 9762" d="M1967.061,1637.307c.022.018.046.034.068.053a1.841,1.841,0,0,1,.266.3c.005.007.012.012.017.019s.016.033.026.049a1.856,1.856,0,0,1,.158.3c.012.028.025.055.036.083a1.861,1.861,0,0,1,.1.38c0,.021,0,.042,0,.063a1.852,1.852,0,0,1,0,.337c0,.034-.005.068-.01.1a1.857,1.857,0,0,1-.091.392l-8.418,23.128h34.722l-15.228-19.951a1.858,1.858,0,0,1,.442-2.671l29.131-19.535h-66.93l25.557,16.841a1.816,1.816,0,0,1,.149.117Z" fill="#1f1f1f"/>
    <path id="Path_9763" data-name="Path 9763" d="M1953.421,1702.656l-53.078-16.183h-154.41l53.078,16.183Z" fill="#1f1f1f"/>
    <path id="Path_9764" data-name="Path 9764" d="M1936.1,1621.336l-5.659,15.547h29.251Z" fill="#1f1f1f"/>
    <path id="Path_9765" data-name="Path 9765" d="M1763.524,1767.053l5.39-14.807h-28.99Z" fill="#1f1f1f"/>
    <path id="Path_9766" data-name="Path 9766" d="M1751.463,1706.373l-15.344,42.156h211.772l15.344-42.156Z" fill="#1f1f1f"/>
    <path id="Path_9767" data-name="Path 9767" d="M1947.891,1682.756l15.344-42.156H1751.463l-15.344,42.156Z" fill="#1f1f1f"/>
  </g>
</svg>
