<svg xmlns="http://www.w3.org/2000/svg" xmlns:xlink="http://www.w3.org/1999/xlink" width="81.011" height="107.486" viewBox="0 0 81.011 107.486">
  <defs>
    <radialGradient id="radial-gradient" cx="0.706" cy="0.721" r="0.775" gradientTransform="translate(-0.151) scale(1.302 1)" gradientUnits="objectBoundingBox">
      <stop offset="0" stop-color="#6b7ace"/>
      <stop offset="1" stop-color="#b2b9f9"/>
    </radialGradient>
  </defs>
  <g id="Group_2430" data-name="Group 2430" transform="translate(-274.952 -7.203)">
    <path id="Path_11175" data-name="Path 11175" d="M298.99,105.96a45.74,45.74,0,0,0,7.225-19.222c-6.916-.378-20.468-1.6-24.327-5.461-1.882-1.882-3.347-6.225-4.355-12.909a144.779,144.779,0,0,1-1.35-20.661,144.779,144.779,0,0,1,1.35-20.661c1.008-6.684,2.473-11.027,4.355-12.909s6.225-3.347,12.909-4.355a158.761,158.761,0,0,1,41.321,0c6.684,1.008,11.027,2.473,12.909,4.355s3.347,6.225,4.355,12.909a144.779,144.779,0,0,1,1.35,20.661,144.779,144.779,0,0,1-1.35,20.661c-1.008,6.684-2.473,11.027-4.355,12.909C345,85.3,330.484,86.463,323.733,86.788c-3.054,4.91-7.811,9.89-14.152,14.81a86.124,86.124,0,0,1-8.993,6.158l-5.109,2.932Z" fill="url(#radial-gradient)"/>
    <path id="Path_11176" data-name="Path 11176" d="M315.457,9.661c14.569,0,29.138,1.782,32.7,5.345,7.127,7.127,7.127,58.275,0,65.4-2.942,2.942-13.384,4.669-25.135,5.183-7.128,11.965-23.047,21.1-23.047,21.1a46.616,46.616,0,0,0,7.615-21.114c-11.628-.529-21.918-2.252-24.835-5.169-7.127-7.127-7.127-58.275,0-65.4,3.564-3.564,18.132-5.345,32.7-5.345m0-2.456a146.015,146.015,0,0,0-20.844,1.364c-7.047,1.063-11.493,2.6-13.594,4.7s-3.638,6.548-4.7,13.594a146.011,146.011,0,0,0-1.364,20.844,146.02,146.02,0,0,0,1.364,20.844c1.063,7.047,2.6,11.493,4.7,13.594,1.766,1.766,5.173,3.125,10.415,4.153A105.717,105.717,0,0,0,304.8,87.887a46.4,46.4,0,0,1-3.677,11.819,35.686,35.686,0,0,1-3.12,5.525l-7.024,9.458,10.221-5.867a87.53,87.53,0,0,0,9.134-6.253,78.369,78.369,0,0,0,7.835-6.911,49.406,49.406,0,0,0,6.261-7.674,110.962,110.962,0,0,0,14.935-1.661c5.308-1.031,8.753-2.4,10.533-4.176,2.1-2.1,3.638-6.548,4.7-13.594a146.029,146.029,0,0,0,1.364-20.844A146.029,146.029,0,0,0,354.6,26.864c-1.062-7.047-2.6-11.493-4.7-13.594s-6.547-3.638-13.594-4.7a146.017,146.017,0,0,0-20.844-1.364Z" fill="#fff"/>
  </g>
</svg>
