<svg xmlns="http://www.w3.org/2000/svg" xmlns:xlink="http://www.w3.org/1999/xlink" width="32.317" height="30.717" viewBox="0 0 32.317 30.717">
  <defs>
    <linearGradient id="linear-gradient" x1="0.046" y1="-0.721" x2="1.401" y2="2.46" gradientUnits="objectBoundingBox">
      <stop offset="0" stop-color="#fff"/>
      <stop offset="1" stop-color="#1d1d1b"/>
    </linearGradient>
    <linearGradient id="linear-gradient-2" x1="-0.493" y1="-3.772" x2="1.398" y2="4.582" xlink:href="#linear-gradient"/>
  </defs>
  <g id="Group_462" data-name="Group 462" transform="translate(-88.835 -620.114)">
    <path id="Path_1583" data-name="Path 1583" d="M91.34,626.635A18.748,18.748,0,0,1,102,623.478c8.7,0,15.786,5.38,15.786,11.995a9.8,9.8,0,0,1-2.027,5.867l2.556,2.158a13.12,13.12,0,0,0,2.832-8.025c0-8.471-8.591-15.356-19.148-15.356a21.809,21.809,0,0,0-13.169,4.219" fill="url(#linear-gradient)"/>
    <path id="Path_1584" data-name="Path 1584" d="M91.162,635.255c0,3.254,2.15,6.118,5.363,7.688a13.028,13.028,0,0,0,5.725,1.3c6.114,0,11.088-4.021,11.088-8.962,0-4.138-3.482-7.624-8.2-8.654l-.58,2.573c3.541.754,6.146,3.191,6.146,6.084,0,3.49-3.792,6.328-8.451,6.328a10.569,10.569,0,0,1-4.446-.956c-2.4-1.119-4-3.107-4-5.372a5.568,5.568,0,0,1,2.273-4.3,9.436,9.436,0,0,1,4.6-1.91l1.285,2.094.579-2.929h.031l.589-2.25c-.3-.023-.6.149-.91.149a12.441,12.441,0,0,0-8.126,2.967,8.237,8.237,0,0,0-2.963,6.158" fill="#93c01f"/>
    <path id="Path_1585" data-name="Path 1585" d="M113.668,643.547l-.006-.008-.217-.181-1.693-1.432.516,2.6a.324.324,0,0,0,.036.026,18.852,18.852,0,0,1-10.3,2.915,19.759,19.759,0,0,1-7.246-1.344c-.59,1.056-1.156,2.056-1.663,2.938A22.9,22.9,0,0,0,102,650.829a21.446,21.446,0,0,0,14.246-5.107Z" fill="url(#linear-gradient-2)"/>
  </g>
</svg>
