<svg xmlns="http://www.w3.org/2000/svg" width="134.725" height="157.03" viewBox="0 0 134.725 157.03">
  <g id="Group_2181" data-name="Group 2181" transform="translate(-683.436 -523.964)">
    <path id="Path_9710" data-name="Path 9710" d="M750.8,677.857c-31.2-9.739-63.594-45.587-64.333-89.425-.295-17.507,1.639-33.032,5.749-46.143a5.946,5.946,0,0,1,5.705-4.172,5.866,5.866,0,0,1,3.816,1.407,28.139,28.139,0,0,0,17.658,6.848c11.477,0,23.876-7.308,31.405-18.357,7.53,11.05,19.928,18.357,31.406,18.357a28.141,28.141,0,0,0,17.659-6.848,5.865,5.865,0,0,1,3.815-1.407,5.947,5.947,0,0,1,5.706,4.173c4.109,13.109,6.043,28.634,5.748,46.143C814.394,632.27,782,668.118,750.8,677.857Z" fill="#fff"/>
    <path id="Path_9711" data-name="Path 9711" d="M750.8,533.014c8.167,9.965,20.171,16.357,31.406,16.357a31.176,31.176,0,0,0,19.588-7.552,2.829,2.829,0,0,1,1.886-.7,2.922,2.922,0,0,1,2.843,2.07c4.013,12.8,5.9,28.009,5.611,45.2-.426,25.3-11.375,44.5-20.485,56.158-11.249,14.393-26.049,25.3-40.848,30.167-14.8-4.864-29.6-15.774-40.848-30.167-9.11-11.656-20.059-30.862-20.486-56.158-.289-17.186,1.6-32.392,5.611-45.2a2.922,2.922,0,0,1,2.843-2.07,2.827,2.827,0,0,1,1.885.7,31.178,31.178,0,0,0,19.589,7.552c11.234,0,23.239-6.392,31.406-16.357m0-9.051a1.745,1.745,0,0,0-1.491.839c-6.858,11.107-18.881,18.569-29.915,18.569a25.1,25.1,0,0,1-15.727-6.144,8.831,8.831,0,0,0-5.747-2.111,8.933,8.933,0,0,0-8.568,6.275c-4.2,13.416-6.185,29.26-5.885,47.091.769,45.655,34.806,82.847,67.333,92.51,32.527-9.664,66.564-46.855,67.333-92.51.3-17.83-1.68-33.674-5.885-47.091a8.933,8.933,0,0,0-8.568-6.275,8.832,8.832,0,0,0-5.747,2.111,25.1,25.1,0,0,1-15.727,6.144c-11.034,0-23.057-7.462-29.915-18.569A1.745,1.745,0,0,0,750.8,523.964Z" fill="#1f1f1f"/>
  </g>
</svg>
