<svg xmlns="http://www.w3.org/2000/svg" width="57.5" height="50.993" viewBox="0 0 57.5 50.993">
  <g id="Group_319" data-name="Group 319" transform="translate(-217.399 -517.815)">
    <path id="Path_1235" data-name="Path 1235" d="M247.931,563.126l.039-.479c-1.361-.931-3.754-.628-5.2-.158-1.549.5-1.551,1.461-1.53,3.065a3.249,3.249,0,0,0,.792,2.521,3.316,3.316,0,0,0,1.995.557l1.881.11a1.3,1.3,0,0,0,1.687-1.472Z" fill="#2f3f47"/>
    <path id="Path_1236" data-name="Path 1236" d="M249.592,563.126q-.02-.239-.039-.479c1.361-.931,3.754-.628,5.2-.158,1.549.5,1.551,1.461,1.53,3.065a3.25,3.25,0,0,1-.792,2.521,3.316,3.316,0,0,1-1.994.557l-1.882.111a1.3,1.3,0,0,1-1.687-1.472Z" fill="#2f3f47"/>
    <path id="Path_1237" data-name="Path 1237" d="M237.964,559.676a6.233,6.233,0,0,0-.991.307,1.622,1.622,0,0,0-.637.407,1.779,1.779,0,0,0-.33,1,12.521,12.521,0,0,0-.066,1.424,2.25,2.25,0,0,0,.241,1.16,2.178,2.178,0,0,0,1.4.831,16.108,16.108,0,0,0,3.139.373,119.315,119.315,0,0,0,19.1-.611,1.127,1.127,0,0,0,.728-.265,1.05,1.05,0,0,0,.2-.411,4.055,4.055,0,0,0-.162-3.467c-.611-.841-1.731-.361-2.586-.373-.87-.012-1.744-.081-2.614-.118q-2.541-.11-5.083-.2-3.583-.128-7.168-.219a21.777,21.777,0,0,0-5.179.163Z" fill="#537082"/>
    <path id="Path_1238" data-name="Path 1238" d="M251.65,537c4.324.016,8.647.115,12.97.2a40.88,40.88,0,0,0-.761-6.859c-.857-3.942-2.824-7.8-6.138-10.1-5.085-3.53-13.141-3.07-18.617.425a12.7,12.7,0,0,0-5.126,5.95,28.909,28.909,0,0,0-1.595,8.92c-.024.4-.045.8-.066,1.2C238.752,536.5,245.219,536.98,251.65,537Z" fill="#537082"/>
    <path id="Path_1239" data-name="Path 1239" d="M251.3,538.16c-6.338-.01-12.7-.466-19.04-.241a118.063,118.063,0,0,0,.868,20.627,5.02,5.02,0,0,0,.9,2.661c.96,1.147,2.628.639,3.917.642,2.183,0,4.425.1,6.617.143a92.807,92.807,0,0,0,12.4-.359c1.96-.219,5.924.378,6.868-1.38.772-1.439.454-4.343.572-5.953q.207-2.842.3-5.69.167-5.128-.038-10.26C260.212,538.263,255.758,538.167,251.3,538.16Z" fill="#d9924e"/>
    <g id="Group_313" data-name="Group 313">
      <path id="Path_1240" data-name="Path 1240" d="M266.272,549.293a.455.455,0,0,0,.1-.3q.326-4.287.541-8.582a.613.613,0,0,0-.7-.821l-1.907-.024a66.654,66.654,0,0,0-.485,9.8l2.123.014A.456.456,0,0,0,266.272,549.293Z" fill="#2f3f47"/>
      <g id="Group_310" data-name="Group 310">
        <path id="Path_1241" data-name="Path 1241" d="M269.572,555.88a1.577,1.577,0,0,1,.358-.656,1.5,1.5,0,0,1,.53-.28,15,15,0,0,1,2.465-.653,8.335,8.335,0,0,1,1.743,1.581.822.822,0,0,1,.21.383.863.863,0,0,1-.04.34l-.983,3.812a5.736,5.736,0,0,1-1.451.013l.551-2.317c.175-.737.306-1.631-.249-2.146l-1.7.443a.687.687,0,0,0-.277.118.673.673,0,0,0-.176.322,15.506,15.506,0,0,0-.539,2.225l-1.082-.3a8.171,8.171,0,0,1,.636-2.888Z" fill="#2f3f47"/>
        <path id="Path_1242" data-name="Path 1242" d="M273.956,554.765a.207.207,0,0,0,.048-.108l.315-1.388a16.023,16.023,0,0,0-2.2-.345,5.431,5.431,0,0,0-.219,1.186.241.241,0,0,0,.2.319,10.908,10.908,0,0,0,1.689.365.207.207,0,0,0,.173-.029Z" fill="#516770"/>
      </g>
      <g id="Group_312" data-name="Group 312">
        <path id="Path_1243" data-name="Path 1243" d="M274.68,552.961c.436-.728.086-2.659.081-3.442a14.139,14.139,0,0,0-.257-3.171,4.752,4.752,0,0,0-1.587-2.7,5.481,5.481,0,0,0-1.607-.809,12.16,12.16,0,0,0-5.381-.572.682.682,0,0,0-.4.142.691.691,0,0,0-.159.423,10.63,10.63,0,0,0-.168,1.839c.05,1.05-.169.76.6,1.066a20.671,20.671,0,0,0,2.366.194,19.808,19.808,0,0,1,2.31.713,2.158,2.158,0,0,1,1.252.814,2.083,2.083,0,0,1,.2.8,41.267,41.267,0,0,1,.256,4.982c0,.284,2.124.141,2.41-.177A.71.71,0,0,0,274.68,552.961Z" fill="#eeca2e"/>
        <g id="Group_311" data-name="Group 311" opacity="0.15">
          <path id="Path_1244" data-name="Path 1244" d="M271.07,543.331a8.35,8.35,0,0,1-.715,2.8.151.151,0,0,0,.261.152,6.193,6.193,0,0,0,1.051-2.954C271.706,542.952,271.1,542.945,271.07,543.331Z" fill="#272525"/>
          <path id="Path_1245" data-name="Path 1245" d="M272.65,544.037a4.039,4.039,0,0,1-1.292,2.27.115.115,0,0,0,.139.18,3.792,3.792,0,0,0,1.229-.935,2.927,2.927,0,0,0,.573-1.427C273.337,543.754,272.718,543.673,272.65,544.037Z" fill="#272525"/>
        </g>
      </g>
    </g>
    <path id="Path_1246" data-name="Path 1246" d="M231.251,539.647a.456.456,0,0,0-.1.3q-.326,4.287-.541,8.582a.613.613,0,0,0,.7.821l1.907.024a66.642,66.642,0,0,0,.485-9.8l-2.123-.014a.456.456,0,0,0-.328.084Z" fill="#2f3f47"/>
    <g id="Group_317" data-name="Group 317">
      <g id="Group_314" data-name="Group 314">
        <path id="Path_1247" data-name="Path 1247" d="M223.246,536.127a1.576,1.576,0,0,1-.028.747,1.5,1.5,0,0,1-.35.487,15.021,15.021,0,0,1-1.918,1.681,8.339,8.339,0,0,1-2.264-.642.822.822,0,0,1-.359-.249.86.86,0,0,1-.115-.323l-.814-3.851a5.742,5.742,0,0,1,1.294-.657l.537,2.321c.171.737.451,1.6,1.177,1.812l1.322-1.151a.686.686,0,0,0,.2-.229.672.672,0,0,0,.015-.367,15.5,15.5,0,0,0-.506-2.232l1.1-.215A8.168,8.168,0,0,1,223.246,536.127Z" fill="#2f3f47"/>
        <path id="Path_1248" data-name="Path 1248" d="M219.814,539.073a.207.207,0,0,0,.005.118l.335,1.384a16.039,16.039,0,0,0,2.127-.671,5.436,5.436,0,0,0-.331-1.159.241.241,0,0,0-.318-.2,10.918,10.918,0,0,0-1.676.423A.206.206,0,0,0,219.814,539.073Z" fill="#516770"/>
      </g>
      <g id="Group_316" data-name="Group 316">
        <path id="Path_1249" data-name="Path 1249" d="M219.969,541.011c-.067.846,1.105,2.42,1.457,3.12a14.139,14.139,0,0,0,1.64,2.726,4.752,4.752,0,0,0,2.62,1.708,5.48,5.48,0,0,0,1.8.01,12.158,12.158,0,0,0,5.074-1.879.681.681,0,0,0,.3-.306.691.691,0,0,0-.046-.449,10.629,10.629,0,0,0-.667-1.722c-.511-.918-.187-.756-1.012-.688a20.71,20.71,0,0,0-2.206.878,19.826,19.826,0,0,1-2.387.388,2.157,2.157,0,0,1-1.483-.173,2.086,2.086,0,0,1-.541-.63,41.282,41.282,0,0,1-2.443-4.349c-.124-.256-1.965.818-2.081,1.23A.709.709,0,0,0,219.969,541.011Z" fill="#eeca2e"/>
        <g id="Group_315" data-name="Group 315" opacity="0.15">
          <path id="Path_1250" data-name="Path 1250" d="M227.483,548.034a8.354,8.354,0,0,1-.6-2.827.151.151,0,0,0-.3-.021,6.193,6.193,0,0,0,.371,3.113C227.081,548.656,227.631,548.39,227.483,548.034Z" fill="#272525"/>
          <path id="Path_1251" data-name="Path 1251" d="M225.753,548.1a4.039,4.039,0,0,1,.148-2.607.115.115,0,0,0-.2-.1,3.793,3.793,0,0,0-.685,1.383,2.928,2.928,0,0,0,.121,1.533C225.263,548.662,225.854,548.46,225.753,548.1Z" fill="#272525"/>
        </g>
      </g>
    </g>
    <g id="Group_318" data-name="Group 318">
      <path id="Path_1252" data-name="Path 1252" d="M235.212,530.25a2.82,2.82,0,0,0,.2,1.154c.419.9,1.537,1.186,2.515,1.349a58.8,58.8,0,0,0,16.973.548,7.487,7.487,0,0,0,2.165-.513,2.821,2.821,0,0,0,1.541-1.533,4.25,4.25,0,0,0,.172-1.393l.017-1.438a1.611,1.611,0,0,0-.078-.638,1.248,1.248,0,0,0-.474-.525,5.456,5.456,0,0,0-2.58-.708c-5.969-.6-12.007-1.122-17.952-.318a1.18,1.18,0,0,0-.686.25,3.531,3.531,0,0,1-.247.276,1.862,1.862,0,0,1-.615.192c-.583.188-.785.9-.857,1.508A13.546,13.546,0,0,0,235.212,530.25Z" fill="#2f3f47"/>
      <path id="Path_1253" data-name="Path 1253" d="M242.694,531.125a2.064,2.064,0,0,0,.186-1.194,1.257,1.257,0,0,0-.237-.692c-.33-.4-.935-.347-1.442-.442a1.9,1.9,0,0,0-1.005.991,1.62,1.62,0,0,0-.13.842,1.406,1.406,0,0,0,2.628.5Z" fill="#eaf1f2" opacity="0.2"/>
      <path id="Path_1254" data-name="Path 1254" d="M252.518,531.125a2.064,2.064,0,0,0,.186-1.194,1.257,1.257,0,0,0-.238-.692c-.33-.4-.935-.347-1.442-.442a1.9,1.9,0,0,0-1.005.991,1.618,1.618,0,0,0-.13.843,1.406,1.406,0,0,0,2.628.5Z" fill="#eaf1f2" opacity="0.2"/>
    </g>
    <path id="Path_1255" data-name="Path 1255" d="M254.755,549.464a.8.8,0,0,0,.1-.547c-.217-3.683.223-7.052.006-10.735-2.9.1-6.464-.118-9.367-.021A13.26,13.26,0,0,1,242.2,538q-.179,5.634-.129,11.272a86.469,86.469,0,0,0,12.056.407.8.8,0,0,0,.627-.213Z" fill="#b4c7ba"/>
    <path id="Path_1256" data-name="Path 1256" d="M246.459,551.126a.088.088,0,0,0,.079.061c0-.02,0-.04,0-.06C246.591,551.093,246.445,551.061,246.459,551.126Z" fill="#b4c7ba"/>
    <path id="Path_1257" data-name="Path 1257" d="M246.459,554.607a.088.088,0,0,0,.079.061c0-.02,0-.04,0-.06C246.591,554.575,246.445,554.542,246.459,554.607Z" fill="#b4c7ba"/>
  </g>
</svg>
