<svg xmlns="http://www.w3.org/2000/svg" width="47.64" height="39.628" viewBox="0 0 47.64 39.628">
  <g id="Group_200" data-name="Group 200" transform="translate(-885.441 -111.359)">
    <path id="Path_911" data-name="Path 911" d="M891.453,139.063s-10.156-7.611-4.067-17.506,17-11.671,26.64-9.2c11.9,3.049,18.771,7.189,19.024,14.04s-.757,17.74-14.458,18.5c0,0-7.611.761-11.163,0l-2.283,6.089-3.045-7.611S893.73,141.255,891.453,139.063Z" fill="#998675"/>
    <g id="Group_199" data-name="Group 199">
      <path id="Path_912" data-name="Path 912" d="M899.409,129.865a1.9,1.9,0,0,1,2.182.5,1.939,1.939,0,0,1-1.806,3.219,1.877,1.877,0,0,1-.376-3.72Z" fill="#fff"/>
      <path id="Path_913" data-name="Path 913" d="M912.968,131.306a2.083,2.083,0,0,1-.546,2.5,2.32,2.32,0,0,1-3.9-1.973,2.261,2.261,0,0,1,4.446-.525Z" fill="#fff"/>
      <path id="Path_914" data-name="Path 914" d="M921.45,129.869a2.122,2.122,0,0,1,1.169,2.15c-.048,1.681-2.369,2.723-3.879.761S919.253,128.507,921.45,129.869Z" fill="#fff"/>
    </g>
  </g>
</svg>
