<svg xmlns="http://www.w3.org/2000/svg" width="73.66" height="73.705" viewBox="0 0 73.66 73.705">
  <g id="Group_117" data-name="Group 117" transform="translate(-1065.841 -1073.471)">
    <path id="Path_676" data-name="Path 676" d="M1117.923,1116.628V1073.48l21.573,21.573Z" fill="#0a7ec2"/>
    <path id="Path_677" data-name="Path 677" d="M1108.967,1125.573l30.506-30.53v30.53Z" fill="#214292"/>
    <path id="Path_678" data-name="Path 678" d="M1096.34,1125.552h43.145l-21.573,21.573Z" fill="#7d439a"/>
    <path id="Path_679" data-name="Path 679" d="M1087.414,1116.595l30.509,30.508h-30.509Z" fill="#a54499"/>
    <path id="Path_680" data-name="Path 680" d="M1087.414,1103.968v43.147l-21.573-21.573Z" fill="#ef4136"/>
    <path id="Path_681" data-name="Path 681" d="M1096.37,1095.043l-30.509,30.509v-30.509Z" fill="#f26725"/>
    <path id="Path_682" data-name="Path 682" d="M1109,1095.043h-43.147l21.574-21.572Z" fill="#f99f1f"/>
    <path id="Path_683" data-name="Path 683" d="M1117.923,1104l-30.509-30.511h30.509Z" fill="#2dabe2"/>
    <g id="Group_116" data-name="Group 116" opacity="0.1">
      <path id="Path_684" data-name="Path 684" d="M1117.928,1116.653l21.573-21.573-2.791-2.792Z" fill="#010101"/>
      <path id="Path_685" data-name="Path 685" d="M1108.94,1125.61h30.509v-3.946Z" fill="#010101"/>
      <path id="Path_686" data-name="Path 686" d="M1096.34,1125.552l21.572,21.573,2.791-2.791Z" fill="#010101"/>
      <path id="Path_687" data-name="Path 687" d="M1087.41,1116.675l.023,30.5h3.741Z" fill="#010101"/>
      <path id="Path_688" data-name="Path 688" d="M1087.42,1103.994l-21.553,21.584,2.645,2.646Z" fill="#010101"/>
      <path id="Path_689" data-name="Path 689" d="M1096.37,1095.087l-30.5.021v3.741Z" fill="#010101"/>
      <path id="Path_690" data-name="Path 690" d="M1109,1095.043l-21.584-21.554-2.645,2.647Z" fill="#010101"/>
      <path id="Path_691" data-name="Path 691" d="M1117.935,1104v-30.509h-3.949Z" fill="#010101"/>
    </g>
  </g>
</svg>
