<svg xmlns="http://www.w3.org/2000/svg" width="53.714" height="66.427" viewBox="0 0 53.714 66.427">
  <g id="Group_57" data-name="Group 57" transform="translate(-495.369 -442.885)">
    <path id="Path_540" data-name="Path 540" d="M536.577,445.717c-2.7-1.4-8.376-2.384-11.989-2.734a7.942,7.942,0,0,1,1.582,4.315,23.513,23.513,0,0,0-3.02,2.061,10.826,10.826,0,0,1-.291-6.427c-.814-.029-22.268-.044-27.49-.047v66.427H516.2C500.446,485.262,514.389,450.882,536.577,445.717Zm-21.148-.867a12.894,12.894,0,0,1,4.076,7.818q-1.92,1.964-3.933,4.314-2.3-5.035-.144-12.133Zm-9.064,8.68a14.489,14.489,0,0,1,6.9,6.906,56.719,56.719,0,0,0-3.356,6.521q-3.788-5.082-3.549-13.427Z" fill="#5d4a8d"/>
    <path id="Path_541" data-name="Path 541" d="M536.817,445.906c-2.749,1.149-7.99,4.5-9.447,6.665a10.36,10.36,0,0,1,6.474,1.1c-2.813,2.59-6.064,3.634-9.591,2.351a52.084,52.084,0,0,0-3.356,4.986c3.5-1.655,8.407-1.037,11.8.72-3.357,3.323-7.1,5.624-13.907,3.74-.544,1.405-2.006,4.693-2.111,6.762,5.247-2.878,11.206-1.551,15.49.528-4.291,4.881-11.2,6.69-16.449,4.747-.65,1.656-.937,8.228-.383,10.359,7.961.224,29.113.726,32.994-16.131S540.045,447.375,536.817,445.906Z" fill="#98c93e"/>
  </g>
</svg>
