<svg xmlns="http://www.w3.org/2000/svg" width="37.965" height="26.775" viewBox="0 0 37.965 26.775">
  <g id="Group_41" data-name="Group 41" transform="translate(-206.294 -35.297)">
    <g id="Group_38" data-name="Group 38">
      <path id="Path_141" data-name="Path 141" d="M210.985,51.193a4.689,4.689,0,1,0,4.688,4.689,4.689,4.689,0,0,0-4.688-4.689Zm0,7.75a3.061,3.061,0,1,1,3.059-3.061,3.061,3.061,0,0,1-3.059,3.061Z" fill="#009ee2"/>
      <path id="Path_142" data-name="Path 142" d="M217.908,57.58a2.246,2.246,0,1,0,2.246,2.246,2.246,2.246,0,0,0-2.246-2.246Zm0,3.272a1.025,1.025,0,1,1,1.025-1.026,1.025,1.025,0,0,1-1.025,1.026Z" fill="#009ee2"/>
      <path id="Path_143" data-name="Path 143" d="M238.468,55.483a8.693,8.693,0,0,0,1.107-8.141c-1.554-4.179-4.735,5.707-8.785,8.5l-.044-.02c-4.372-2-.562-11.1-2.562-6.728a8.69,8.69,0,0,0,.1,7.448c-3.762-.461-6.5-7.107-5.022-3.13a8.7,8.7,0,0,0,6.789,5.563,8.71,8.71,0,0,0,13.971-2.635C245.155,53.85,242.111,54.679,238.468,55.483Z" fill="#009ee2"/>
      <path id="Path_144" data-name="Path 144" d="M222.106,52.9c0-3.153,2.519-7.222,4.409-10.6l.082.059a.5.5,0,0,0,.563-.794l-.173-.122a14.9,14.9,0,0,0,1.48-3.411,1.579,1.579,0,1,0-2.234-2.23,11.821,11.821,0,0,0-5.3,1.357l-.323-.228a.441.441,0,0,0-.585.182.458.458,0,0,0-.011.582,11.843,11.843,0,0,0-1.507,1.154c.845.413,1.444.752,1.444.752-3.506,2.73-1.253,5.174-4.611,3.867a11.9,11.9,0,0,0,6.087,15,1.782,1.782,0,0,1,.145.295c.708,1.9-3.144,3.48-1.243,2.772a3.669,3.669,0,0,0,2.292-2.586,11.851,11.851,0,0,0,3.838.633C233.027,59.582,222.106,59.466,222.106,52.9Z" fill="#009ee2"/>
      <path id="Path_145" data-name="Path 145" d="M215.214,43.2c3.17,1.245,1.047-1.039,4.322-3.59,0,0-5.834-3.3-6.422-1.577S212.044,41.956,215.214,43.2Z" fill="#009ee2"/>
      <path id="Path_146" data-name="Path 146" d="M224.831,45.787c-.062.112-.125.221-.19.323.9,1.069,1.784.613,2.471.152.53-.357-.441-1.81-1.078-2.658Z" fill="#009ee2"/>
    </g>
  </g>
</svg>
