<svg xmlns="http://www.w3.org/2000/svg" xmlns:xlink="http://www.w3.org/1999/xlink" width="113.733" height="86.677" viewBox="0 0 113.733 86.677">
  <defs>
    <radialGradient id="radial-gradient" cx="0.748" cy="0.839" r="0.941" gradientTransform="translate(0.122) scale(0.757 1)" gradientUnits="objectBoundingBox">
      <stop offset="0" stop-color="#fcd24c"/>
      <stop offset="1" stop-color="#fcff94"/>
    </radialGradient>
  </defs>
  <g id="Group_2417" data-name="Group 2417" transform="translate(-373.918 -401.4)">
    <path id="Path_11143" data-name="Path 11143" d="M444,486.849a22.37,22.37,0,0,1-15.458-6.175A22.441,22.441,0,0,1,392.4,467.155a18.137,18.137,0,0,1-3.31-35.762,22.452,22.452,0,0,1,22.322-20.159c.575,0,1.158.023,1.74.068a18.137,18.137,0,0,1,30.659-.455,20.295,20.295,0,0,1,27.506,15.114,21.212,21.212,0,0,1-5.092,41.5,22.441,22.441,0,0,1-22.231,19.39Z" fill="url(#radial-gradient)"/>
    <path id="Path_11144" data-name="Path 11144" d="M428.626,403.856a16.9,16.9,0,0,1,14.7,8.543,19.066,19.066,0,0,1,26.912,14.535,19.983,19.983,0,0,1-5.028,39.322h-.081a21.209,21.209,0,0,1-36.518,12.752,21.21,21.21,0,0,1-35.151-13.06l-.179,0a16.908,16.908,0,0,1-3.035-33.541,21.21,21.21,0,0,1,21.171-19.945,21.431,21.431,0,0,1,2.406.137,16.9,16.9,0,0,1,14.808-8.743m0-2.456a19.379,19.379,0,0,0-16.119,8.633q-.55-.026-1.1-.026a23.686,23.686,0,0,0-23.442,20.411,19.363,19.363,0,0,0,3.41,37.9,23.669,23.669,0,0,0,37.09,13.961,23.67,23.67,0,0,0,38.817-13.657,22.442,22.442,0,0,0,5.091-43.606,21.534,21.534,0,0,0-28.1-15.65,19.345,19.345,0,0,0-15.65-7.961Z" fill="#fff"/>
  </g>
</svg>
