<svg xmlns="http://www.w3.org/2000/svg" width="118.983" height="55.924" viewBox="0 0 118.983 55.924">
  <g id="Group_2383" data-name="Group 2383" transform="translate(-794.157 -702)">
    <path id="Path_11058" data-name="Path 11058" d="M828.752,710.71a2.594,2.594,0,1,0-2.594-2.592A2.594,2.594,0,0,0,828.752,710.71Z" fill="#1f1f1f"/>
    <path id="Path_11059" data-name="Path 11059" d="M796.753,717.616a2.594,2.594,0,1,0,2.592,2.595,2.594,2.594,0,0,0-2.592-2.595Z" fill="#1f1f1f"/>
    <path id="Path_11060" data-name="Path 11060" d="M853.65,707.182a2.591,2.591,0,1,0-2.549-2.593A2.591,2.591,0,0,0,853.65,707.182Z" fill="#1f1f1f"/>
    <path id="Path_11061" data-name="Path 11061" d="M810.234,716.127a2.593,2.593,0,1,0-2.592-2.592A2.593,2.593,0,0,0,810.234,716.127Z" fill="#1f1f1f"/>
    <path id="Path_11062" data-name="Path 11062" d="M878.553,710.71a2.594,2.594,0,1,0-2.594-2.592,2.594,2.594,0,0,0,2.594,2.592Z" fill="#1f1f1f"/>
    <path id="Path_11063" data-name="Path 11063" d="M891.909,756.608c-6.335-2.437-23.943-5.832-38.259-5.839-14.312.008-31.92,3.4-38.253,5.839a.687.687,0,0,0-.393.883.7.7,0,0,0,.882.392c6.231-2.4,23.6-5.743,37.764-5.749s31.535,3.35,37.766,5.749a.7.7,0,0,0,.883-.392.683.683,0,0,0-.391-.883Z" fill="#1f1f1f"/>
    <path id="Path_11064" data-name="Path 11064" d="M910.55,717.616a2.594,2.594,0,1,0,2.591,2.595,2.594,2.594,0,0,0-2.591-2.595Z" fill="#1f1f1f"/>
    <path id="Path_11065" data-name="Path 11065" d="M853.925,734.6c-.057,0-.113,0-.168,0-.033,0-.069,0-.106,0s-.068,0-.106,0c-.054,0-.112,0-.166,0l.005,0c-15.912.106-35.326,4.306-43.121,7.522a108.139,108.139,0,0,1,4.938,13.1c6.664-2.463,24.188-5.813,38.449-5.818s31.789,3.355,38.451,5.818a107.975,107.975,0,0,1,4.943-13.1c-7.8-3.216-27.213-7.416-43.124-7.522Z" fill="#1f1f1f"/>
    <path id="Path_11066" data-name="Path 11066" d="M897.071,716.127a2.593,2.593,0,1,0-2.593-2.593A2.593,2.593,0,0,0,897.071,716.127Z" fill="#1f1f1f"/>
    <path id="Path_11067" data-name="Path 11067" d="M907.873,724.409a.692.692,0,0,0-.349-.1.673.673,0,0,0-.587.338c-1.038,1.764-3.278,4.726-6.619,4.726a6.389,6.389,0,0,1-2.365-.478c-2.618-1.047-3.5-4.807-2.36-10.057a.685.685,0,0,0-.444-.79.7.7,0,0,0-.839.355c-1.67,3.53-5.343,7.333-9.45,7.333a6.369,6.369,0,0,1-1.376-.149c-3.763-.837-5.681-4.8-5.261-10.877a.68.68,0,0,0-.542-.713.688.688,0,0,0-.781.438c-2.8,7.888-9.172,8.5-11.057,8.5a8.829,8.829,0,0,1-1.533-.129c-6.007-1.072-9.194-4.807-10.026-11.755a.636.636,0,0,0-1.269,0c-.832,6.947-4.017,10.682-10.024,11.755a8.843,8.843,0,0,1-1.533.129c-1.885,0-8.256-.615-11.056-8.5a.692.692,0,0,0-.784-.438.679.679,0,0,0-.539.713c.42,6.076-1.5,10.04-5.262,10.877a6.375,6.375,0,0,1-1.375.149c-4.107,0-7.777-3.8-9.452-7.333a.694.694,0,0,0-.836-.355.684.684,0,0,0-.446.791c1.14,5.249.26,9.009-2.359,10.057a6.4,6.4,0,0,1-2.364.478c-3.342,0-5.581-2.961-6.621-4.726a.678.678,0,0,0-.932-.243.686.686,0,0,0-.316.415.678.678,0,0,0,.074.519,12.386,12.386,0,0,0,3.709,4.128c1.611,2.4,4.506,6.8,5.6,8.96,8.173-3.41,28.535-7.911,45.154-7.922,16.623.01,36.986,4.512,45.156,7.922,1.088-2.156,3.985-6.562,5.6-8.96a12.4,12.4,0,0,0,3.709-4.128.681.681,0,0,0-.24-.934Z" fill="#1f1f1f"/>
    <path id="Path_11068" data-name="Path 11068" d="M898.986,740c-7.5-3.39-28.369-8.116-45.336-8.124-16.965.008-37.831,4.734-45.336,8.124a.673.673,0,0,0-.356.38.681.681,0,0,0,.015.52.7.7,0,0,0,.9.343c7.39-3.338,27.987-7.995,44.772-8s37.385,4.664,44.773,8a.7.7,0,0,0,.908-.343.69.69,0,0,0,.014-.52A.673.673,0,0,0,898.986,740Z" fill="#1f1f1f"/>
  </g>
</svg>
