<svg xmlns="http://www.w3.org/2000/svg" width="62.897" height="42.644" viewBox="0 0 62.897 42.644">
  <g id="Group_284" data-name="Group 284" transform="translate(-119.968 -189.672)">
    <g id="Group_282" data-name="Group 282">
      <path id="Path_1142" data-name="Path 1142" d="M122.36,216.326c.8-.223.974-1.263.94-2.089-.067-1.613-.265-3.5.935-4.578a3.689,3.689,0,0,1,2.523-.768c.9.007,1.8.167,2.7.123a6.33,6.33,0,0,0,.456-2.275c-3.083-1.165-6.74.4-8.667,3.074A6.325,6.325,0,0,0,120,212.784a3.766,3.766,0,0,0,.937,3.01A1.521,1.521,0,0,0,122.36,216.326Z" fill="#2f3f47"/>
      <g id="Group_269" data-name="Group 269">
        <path id="Path_1143" data-name="Path 1143" d="M166.106,220.165a2.011,2.011,0,0,0,1.1-.126,1.068,1.068,0,0,0,.452-1.35q-1.015-.114-2.035-.162a1.129,1.129,0,0,0-.874.209c-.309.311-.165.832-.259,1.26Q165.3,220.1,166.106,220.165Z" fill="#2f3f47"/>
        <path id="Path_1144" data-name="Path 1144" d="M153.982,217.916a6.052,6.052,0,0,0,2.365,2.19,11.066,11.066,0,0,0,3.162.835c1.827.294,3.788.576,5.464-.076a1.123,1.123,0,0,0,.543-.361.986.986,0,0,0,.121-.525l.084-2.116a9.3,9.3,0,0,1-4.087-2.287,21.438,21.438,0,0,1-1.867-3.049,4.029,4.029,0,0,0-3.04-2.026,3.5,3.5,0,0,0-2.832,1.417A5.2,5.2,0,0,0,153.982,217.916Z" fill="#eaf1f2"/>
        <path id="Path_1145" data-name="Path 1145" d="M174.057,216.694a1.684,1.684,0,0,0-2.353.369,3.249,3.249,0,0,1-.43.647,1.635,1.635,0,0,1-1.045.3l-3.746.2q.045,1.159.09,2.318a.449.449,0,0,0,.566.516,35.593,35.593,0,0,0,3.613-.185,5.154,5.154,0,0,0,2.337-.654,2.856,2.856,0,0,0,.969-3.516Z" fill="#eaf1f2"/>
        <g id="Group_268" data-name="Group 268">
          <g id="Group_267" data-name="Group 267">
            <path id="Path_1146" data-name="Path 1146" d="M164.172,220.5a1.4,1.4,0,0,0,.32-.2,1.062,1.062,0,0,0,.337-.383,1.281,1.281,0,0,0,.084-.4l.015-.146a.97.97,0,0,0,.006-.225.942.942,0,0,0-.3-.5,1.43,1.43,0,0,0-.331-.274.9.9,0,0,0-.915.071,1.236,1.236,0,0,0-.488.8,1.173,1.173,0,0,0,.352,1.113.933.933,0,0,0,.925.139Z" fill="#272525" opacity="0.2"/>
            <path id="Path_1147" data-name="Path 1147" d="M164.012,220.333a1.4,1.4,0,0,0,.32-.2,1.063,1.063,0,0,0,.337-.383,1.276,1.276,0,0,0,.084-.4l.015-.146a.975.975,0,0,0,.006-.225.942.942,0,0,0-.3-.5,1.432,1.432,0,0,0-.331-.274.9.9,0,0,0-.915.071,1.235,1.235,0,0,0-.488.8,1.172,1.172,0,0,0,.352,1.113.933.933,0,0,0,.925.139Z" fill="#83959e"/>
          </g>
          <path id="Path_1148" data-name="Path 1148" d="M163.786,219.551a.5.5,0,0,0,.226-.2.309.309,0,0,0,.052-.091.237.237,0,0,0-.014-.152.433.433,0,0,0-.37-.275.379.379,0,0,0-.373.256.673.673,0,0,0,.139.349.332.332,0,0,0,.34.113Z" opacity="0.2"/>
        </g>
      </g>
      <path id="Path_1149" data-name="Path 1149" d="M160.69,210.755c-.935-1.8-2.29-2.405-4.072-3.016s-3.588-1.091-5.4-1.548c-3.632-.917-7.307-1.631-10.98-2.344a16.13,16.13,0,0,0-6.7-.345c-3.7.85-6.877,4.489-7.645,8.732s.923,8.81,4.06,11c2.055,1.435,4.395,1.724,6.762,2.043a35.832,35.832,0,0,0,6.622.369c6.185-.3,16.38-.888,18.151-9.853a8.124,8.124,0,0,0-.6-4.618Q160.794,210.955,160.69,210.755Z" fill="#e2eced"/>
      <path id="Path_1150" data-name="Path 1150" d="M160.1,215.711a2.783,2.783,0,0,0-.568-2.358,3.152,3.152,0,0,0-2.2-.629,15.383,15.383,0,0,1-4.387-.379,27.031,27.031,0,0,0-3.467-1.3c1.5,2.835,4.116,4.886,6.661,6.842a3.233,3.233,0,0,0,1.273.7,2.06,2.06,0,0,0,1.943-.82A4.083,4.083,0,0,0,160.1,215.711Z" fill="#2f3f47"/>
      <g id="Group_272" data-name="Group 272">
        <path id="Path_1151" data-name="Path 1151" d="M166.094,199.355a13.7,13.7,0,0,1,1.12,8.76,10.452,10.452,0,0,1-5.1,6.975,9.841,9.841,0,0,1-4.721,1.081,10.832,10.832,0,0,1-9.241-5.568,10.372,10.372,0,0,1,.77-10.917,10.757,10.757,0,0,1,2.286-2.169,12.576,12.576,0,0,1,10.512-1.894,6.72,6.72,0,0,1,2.718,1.356,7.315,7.315,0,0,1,1.655,2.375Z" fill="#eaf1f2"/>
        <path id="Path_1152" data-name="Path 1152" d="M147.406,205.448a6.425,6.425,0,0,0,.451,1.254,10.03,10.03,0,0,0,5.386,4.778,13.473,13.473,0,0,0,13.67-1.775,3.836,3.836,0,0,0,1.355-3.426,17.059,17.059,0,0,0-.561-4.012c-.167-.633-.542-1.385-1.2-1.36a1.606,1.606,0,0,0-.658.234c-2.41,1.257-5.1,1.619-7.707,2.136a15,15,0,0,1-7.81-.169c-1-.362-1.638-1.322-2.564-.275A2.9,2.9,0,0,0,147.406,205.448Z" fill="#2f3f47"/>
        <g id="Group_270" data-name="Group 270">
          <path id="Path_1153" data-name="Path 1153" d="M153.523,198.9c.278-.3.541-.8.238-1.073.018.106-.156.109-.25.057-1.923-1.061-2.649-3.587-4.542-4.7a35.211,35.211,0,0,0-.945,7.636c-.008.584.133,1.337.708,1.437a1.228,1.228,0,0,0,.773-.215,16.011,16.011,0,0,0,4.017-3.143Z" fill="#eaf1f2"/>
          <path id="Path_1154" data-name="Path 1154" d="M149.579,195.192a10.45,10.45,0,0,1,2.26,3.178,4.99,4.99,0,0,0-2.078.966Q149.67,197.264,149.579,195.192Z" fill="#2f3f47"/>
        </g>
        <g id="Group_271" data-name="Group 271">
          <path id="Path_1155" data-name="Path 1155" d="M161.449,196.786c.38-.153.83-.489.674-.867-.029.1-.187.032-.25-.055-1.284-1.782-.86-4.375-2.1-6.191a35.21,35.21,0,0,0-4.12,6.5c-.257.524-.452,1.266.025,1.6a1.228,1.228,0,0,0,.791.137A16.007,16.007,0,0,0,161.449,196.786Z" fill="#eaf1f2"/>
          <path id="Path_1156" data-name="Path 1156" d="M159.471,191.744a10.45,10.45,0,0,1,.683,3.84,4.991,4.991,0,0,0-2.292-.016Z" fill="#2f3f47"/>
        </g>
      </g>
      <g id="Group_276" data-name="Group 276">
        <path id="Path_1157" data-name="Path 1157" d="M153.1,218.822a3.675,3.675,0,0,0-4.709-.886,4.5,4.5,0,0,0-2,4.531,2.429,2.429,0,0,0,.977,1.728,2.511,2.511,0,0,0,1.572.259,5.983,5.983,0,0,0,3.864-1.988,3.448,3.448,0,0,0,.736-1.232,2.815,2.815,0,0,0-.445-2.412Z" fill="#272525" opacity="0.12"/>
        <g id="Group_275" data-name="Group 275">
          <path id="Path_1158" data-name="Path 1158" d="M159.91,227.376a2.011,2.011,0,0,0,1.1-.126,1.068,1.068,0,0,0,.452-1.35q-1.014-.114-2.035-.162a1.129,1.129,0,0,0-.874.209c-.309.311-.165.832-.259,1.26Q159.1,227.312,159.91,227.376Z" fill="#2f3f47"/>
          <path id="Path_1159" data-name="Path 1159" d="M147.786,225.127a6.054,6.054,0,0,0,2.365,2.19,11.067,11.067,0,0,0,3.162.835c1.827.294,3.788.576,5.464-.076a1.123,1.123,0,0,0,.543-.361.986.986,0,0,0,.121-.525l.084-2.116a9.3,9.3,0,0,1-4.087-2.287,21.431,21.431,0,0,1-1.866-3.049,4.028,4.028,0,0,0-3.04-2.026,3.5,3.5,0,0,0-2.832,1.417A5.2,5.2,0,0,0,147.786,225.127Z" fill="#eaf1f2"/>
          <path id="Path_1160" data-name="Path 1160" d="M167.861,223.9a1.684,1.684,0,0,0-2.353.369,3.244,3.244,0,0,1-.43.647,1.635,1.635,0,0,1-1.045.3l-3.747.2q.045,1.159.09,2.318a.449.449,0,0,0,.566.516,35.564,35.564,0,0,0,3.613-.185,5.155,5.155,0,0,0,2.337-.654,2.856,2.856,0,0,0,.969-3.516Z" fill="#eaf1f2"/>
          <g id="Group_274" data-name="Group 274">
            <g id="Group_273" data-name="Group 273">
              <path id="Path_1161" data-name="Path 1161" d="M157.976,227.713a1.405,1.405,0,0,0,.32-.2,1.062,1.062,0,0,0,.337-.383,1.28,1.28,0,0,0,.084-.4l.015-.146a.97.97,0,0,0,.006-.225.941.941,0,0,0-.3-.5,1.426,1.426,0,0,0-.331-.274.9.9,0,0,0-.915.071,1.236,1.236,0,0,0-.488.8,1.172,1.172,0,0,0,.352,1.113.933.933,0,0,0,.925.139Z" fill="#272525" opacity="0.2"/>
              <path id="Path_1162" data-name="Path 1162" d="M157.817,227.544a1.4,1.4,0,0,0,.32-.2,1.064,1.064,0,0,0,.337-.383,1.277,1.277,0,0,0,.084-.4l.015-.146a.976.976,0,0,0,.006-.225.942.942,0,0,0-.3-.5,1.429,1.429,0,0,0-.331-.274.9.9,0,0,0-.915.071,1.236,1.236,0,0,0-.488.8,1.173,1.173,0,0,0,.352,1.113.933.933,0,0,0,.925.139Z" fill="#83959e"/>
            </g>
            <path id="Path_1163" data-name="Path 1163" d="M157.59,226.761a.5.5,0,0,0,.226-.2.312.312,0,0,0,.052-.091.237.237,0,0,0-.014-.152.433.433,0,0,0-.37-.275.379.379,0,0,0-.373.256.673.673,0,0,0,.139.349.332.332,0,0,0,.34.113Z" opacity="0.2"/>
          </g>
        </g>
      </g>
      <g id="Group_279" data-name="Group 279">
        <g id="Group_278" data-name="Group 278">
          <path id="Path_1164" data-name="Path 1164" d="M129.371,217.787a3.057,3.057,0,0,0-.6.662c-1.164,1.785.682,2.527,2.031,3.156l1.755.818a4.9,4.9,0,0,0,3.04.671c1.093-.252,1.411-1.7,1.549-2.7a3.07,3.07,0,0,0-.58-2.408,4.27,4.27,0,0,0-.8-.683,5.713,5.713,0,0,0-1.5-.84,5.039,5.039,0,0,0-3.759.6,5.889,5.889,0,0,0-1.135.724Z" fill="#272525" opacity="0.12"/>
          <g id="Group_277" data-name="Group 277">
            <path id="Path_1165" data-name="Path 1165" d="M130.771,226.148a.773.773,0,0,0-.162-.337.64.64,0,0,0-.159-.128l-.025-.024a1.947,1.947,0,0,0-.9-.406,2.882,2.882,0,0,0-1.137-.02l-.13-.024a.364.364,0,0,0-.475.205l-.035.056a1.688,1.688,0,0,0-.308.23,2.8,2.8,0,0,0-.6,2.348,1.047,1.047,0,0,0,.819,1.125,8.642,8.642,0,0,0,1.265.334,1.053,1.053,0,0,0,.565-.006.393.393,0,0,0,.264-.447c-.058-.183-.276-.264-.38-.425-.16-.246,0-.575.187-.8l.007-.008a1.05,1.05,0,0,0,.53-.423l.019-.028C130.538,227.08,130.927,226.811,130.771,226.148Z" fill="#2f3f47"/>
            <path id="Path_1166" data-name="Path 1166" d="M127.467,221.715c.709-2.029,1.865-4.03,3.8-4.76a4.191,4.191,0,0,1,5.281,2.108c.735,1.917-.32,4.034-1.507,5.708a8.17,8.17,0,0,1-1.846,2.007c-1.764,1.253-3.743.273-5.434-.672a2.053,2.053,0,0,1-.933-.811,1.908,1.908,0,0,1-.022-1.217,20.588,20.588,0,0,1,.657-2.362Z" fill="#eaf1f2"/>
          </g>
        </g>
        <path id="Path_1167" data-name="Path 1167" d="M136.308,227.484a1.684,1.684,0,0,0-2.372-.21,3.243,3.243,0,0,1-.573.524,1.636,1.636,0,0,1-1.088.042l-2.166-.416c-.569-.109-1.135-.283-1.538.266a2.57,2.57,0,0,0-.343.8c-.163.539-.421,1.373.316,1.556a35.588,35.588,0,0,0,3.551.691,5.155,5.155,0,0,0,2.426-.071,2.856,2.856,0,0,0,1.788-3.179Z" fill="#eaf1f2"/>
      </g>
      <g id="Group_281" data-name="Group 281">
        <g id="Group_280" data-name="Group 280">
          <path id="Path_1168" data-name="Path 1168" d="M129.354,226.251a1,1,0,0,0,.119-.239.755.755,0,0,0,.058-.358.907.907,0,0,0-.1-.271l-.046-.094a.7.7,0,0,0-.081-.138.669.669,0,0,0-.372-.187,1.018,1.018,0,0,0-.3-.04.638.638,0,0,0-.524.388.878.878,0,0,0,.008.666.833.833,0,0,0,.632.537.663.663,0,0,0,.61-.266Z" fill="#272525" opacity="0.2"/>
          <path id="Path_1169" data-name="Path 1169" d="M129.194,226.209a1,1,0,0,0,.119-.239.754.754,0,0,0,.058-.358.91.91,0,0,0-.1-.271l-.046-.094a.694.694,0,0,0-.081-.138.669.669,0,0,0-.372-.187,1.012,1.012,0,0,0-.3-.04.638.638,0,0,0-.524.388.878.878,0,0,0,.008.666.833.833,0,0,0,.631.537.663.663,0,0,0,.61-.266Z" fill="#83959e"/>
        </g>
        <path id="Path_1170" data-name="Path 1170" d="M128.762,225.823a.358.358,0,0,0,.061-.206.22.22,0,0,0,0-.074.168.168,0,0,0-.066-.086.307.307,0,0,0-.327-.026.269.269,0,0,0-.128.3.477.477,0,0,0,.215.158A.236.236,0,0,0,128.762,225.823Z" opacity="0.2"/>
      </g>
    </g>
    <g id="Group_283" data-name="Group 283">
      <path id="Path_1171" data-name="Path 1171" d="M173.832,223.966a.327.327,0,0,0,.06-.022q.109.091.219.176a.24.24,0,0,0-.046.465,1.513,1.513,0,0,0,1.183-.229,2.292,2.292,0,0,0,.84.189c2.129.463,4.423-1.395,5.175-3.357a5.467,5.467,0,0,0-.16-3.86,3.679,3.679,0,0,0-.91-1.268,4.4,4.4,0,0,0-3.9-2.182.115.115,0,0,0,0,.229,3.757,3.757,0,0,1,2.273.922.158.158,0,0,0-.031.135,4.325,4.325,0,0,0-1.085-.742.164.164,0,0,0-.226.112,3.93,3.93,0,0,0-1.191-.408,4.334,4.334,0,0,0-2.609.444.136.136,0,0,0-.206-.046,5.366,5.366,0,0,0-.693.592,7.04,7.04,0,0,0-1.35.74c-.112.079-.011.263.107.189a6.768,6.768,0,0,1,.8-.427,5.425,5.425,0,0,0-.329.479,6.837,6.837,0,0,0-.9.592c-.048.038-.006.122.049.087.221-.137.447-.261.677-.374q-.083.16-.155.326c-.124.054-.247.108-.368.167-.191.092-.025.371.163.288l.038-.016a5.522,5.522,0,0,0-.2.8l-.072.032c-.079-.324-.147-.651-.2-.981-.027-.163-.267-.094-.241.068.056.344.12.685.194,1.023-.167.078-.331.16-.494.249-.133.073-.016.263.116.2s.292-.128.44-.187q.08.342.173.68c0,.056.006.112.008.168-.139-.027-.191.2-.046.265l.064.025q.013.147.032.3c-.259-.055-.516-.118-.771-.2-.167-.052-.237.214-.072.268.295.1.592.175.889.244.007.039.015.079.023.118-.152-.036-.3-.075-.456-.119-.185-.054-.26.235-.079.294q.3.1.61.178a6.922,6.922,0,0,0,.306.967c-.155.11-.028.36.132.3.023.049.046.1.071.148l-.049.035c-.3.223,0,.74.29.511l.05-.037a4.1,4.1,0,0,0,1,1.087c.01.155.154.311.313.245l.04-.019c.025.014.051.025.076.039a5,5,0,0,1-1.339,2.312,3.925,3.925,0,0,0,.574-.254,2.674,2.674,0,0,0,1.186-1.966Zm-1.954-6.643.068-.032.039.036q-.022.158-.039.316l-.119.038c.013-.121.029-.241.05-.359Zm-.07,1.331c-.012-.205-.014-.412-.006-.617l.112-.03c-.016.233-.024.466-.02.7l-.087-.052Zm.1.851q-.042-.231-.069-.472l.071.048c.01.146.027.291.048.436l-.051-.012Zm.094.453c-.011-.046-.021-.095-.032-.142l.041.009c.009.046.018.091.029.136Zm4.375-2.561c-.086-.015-.173-.028-.259-.041l-.006-.008q.1-.242.179-.495c.049.079.1.157.146.238-.019.1-.039.2-.061.306Zm.127,1.451c.01.02.017.042.027.063q-.139.059-.278.114l-.014-.026c.02-.053.04-.105.059-.158.037-.063.073-.127.108-.192.032.067.067.132.1.2Zm-.344-.671c-.005.016-.011.032-.017.048-.055.1-.113.2-.173.3q-.12-.206-.245-.41c.059-.1.114-.2.168-.3l.069.013c.069.115.134.233.2.349Zm-1.742-.5q.221.472.43.947l-.035.046c-.388-.177-.765-.373-1.134-.58q-.024-.191-.042-.383c.26-.021.52-.032.781-.029Zm-.816-.376q-.019-.267-.028-.535.188-.035.377-.06.134.273.265.546-.308.014-.615.048Zm2.212-.579c-.015.053-.031.106-.048.159-.049-.062-.1-.125-.149-.186.066.008.132.018.2.027Zm-.062-1.005c.079.009.157.018.235.032,0,.027-.005.053-.008.079l-.141-.005c-.03-.035-.058-.071-.087-.1Zm-.574,1.54q-.2-.3-.408-.607c.12,0,.241,0,.361.007q.252.307.481.634c-.145-.014-.29-.026-.434-.033Zm.568,1.6c-.036.05-.072.1-.109.149-.056-.021-.112-.04-.167-.062q-.063-.134-.129-.267.091-.121.175-.245.117.211.23.425Zm-.627-.625q-.139-.274-.282-.546c.087,0,.173.013.259.02.057.1.115.191.171.287q-.071.12-.147.238Zm.051,1.149q-.17.046-.342.085l-.109-.049c.053-.057.106-.115.158-.172q.145.067.291.131Zm.069-3.557c-.133.005-.265.016-.4.026-.047-.046-.1-.089-.143-.134a4.479,4.479,0,0,1,.774-.026c.034.042.07.084.1.127-.117,0-.232,0-.337.007Zm-.429,1.415c-.071,0-.141,0-.212,0q-.155-.287-.311-.573l.158-.01q.183.29.364.582Zm.486,3.5.037-.007.088.027a10.355,10.355,0,0,1-.822.952c-.016-.034-.033-.067-.048-.1a7.34,7.34,0,0,0,.745-.871Zm-.948.355c-.02-.058-.041-.117-.06-.175l.079-.058c.074-.006.147-.012.22-.02q-.117.13-.24.254Zm1.551.358q.051.174.1.35c-.048.041-.1.084-.145.124l-.03.014q-.264.158-.525.321a9.208,9.208,0,0,0,.6-.809Zm-.814-6.23a7.176,7.176,0,0,0-.877.062c-.061-.051-.12-.1-.183-.154a.134.134,0,0,0-.087-.025,6.891,6.891,0,0,1,2.055.047c0,.031,0,.063,0,.094a4.8,4.8,0,0,0-.912-.024Zm-.766.558c.039.037.077.076.116.114q-.3.036-.595.09a.138.138,0,0,0-.056.01c-.072.014-.144.026-.215.041v-.029a4.632,4.632,0,0,1,.75-.227Zm-.636,4.6.024.107-.161,0,.136-.112Zm.192,1.15q-.058-.12-.111-.243l.132-.091c.026.083.052.164.08.245-.034.029-.067.06-.1.089Zm.1-1.92-.04,0q-.025-.111-.048-.223c.064.039.128.076.192.113l-.1.1Zm-.173-.648c-.018-.1-.033-.2-.049-.3.24.144.486.276.737.4-.052.06-.1.12-.158.178q-.268-.132-.53-.278Zm.371,3c.016.037.034.074.051.112l-.038.035q-.033-.051-.064-.1l.05-.043Zm-.056-1.6.059-.006-.05.037Zm.392,3.342a.341.341,0,0,0-.052-.047c-.119-.085-.233-.175-.345-.269l.058-.043q.178.154.362.292a.292.292,0,0,0-.023.067Zm.035.361a.357.357,0,0,0,.038-.131l.007.007c.035.031.071.057.107.085-.051.014-.1.027-.151.038Zm.849-.325c-.044-.017-.089-.035-.133-.056a.239.239,0,0,0-.033-.187.25.25,0,0,0,.015-.041,3.388,3.388,0,0,0,.282.215l-.131.068Zm.46-.52a2.844,2.844,0,0,1-.449-.347,7.357,7.357,0,0,0,.774-.318q.066.3.122.6l-.02.01a.25.25,0,0,0-.427.059Zm.215.67c.063-.039.124-.079.186-.12a.23.23,0,0,0,.065.122,2.388,2.388,0,0,1-.251,0Zm.243-2.9c.118.026.236.052.356.074.006.022.014.044.02.066q-.119.132-.244.257c-.042-.133-.086-.265-.132-.4Zm.494.576c.006.025.012.049.018.074-.068.048-.137.092-.207.137q.1-.1.189-.212Zm0,1.208q-.05-.248-.11-.494c.077-.044.152-.091.227-.138.027.157.049.316.066.477l-.184.155Zm.132-5.4c.039-.115.076-.231.111-.348l.057.019.034.008q-.03.237-.072.471l-.005.017-.034-.008c-.031-.054-.061-.107-.092-.16Zm.909,1.912.06-.033c-.006.029-.013.059-.019.088l-.017.009Zm.066,2.322c-.01-.059-.019-.118-.031-.177l.024-.022c.008.062.014.124.021.187Zm.078,1.265c.006-.087.008-.176.009-.265,0,.085,0,.17,0,.256Zm.255-2.562.007-.029.015,0Zm.3,2.183q-.023-.3-.062-.606l.02-.018c.024.161.049.323.077.485a.231.231,0,0,0,.033.087l-.069.052Zm.164-4.266a.31.31,0,0,0-.06-.166,5.519,5.519,0,0,0,0-.8,2.233,2.233,0,0,1,.325.6,3.1,3.1,0,0,1,.148.7c-.188.141-.381.273-.578.4,0-.027.01-.054.014-.082.07-.044.141-.086.211-.132a.3.3,0,0,0-.057-.517Zm.074,1.545-.138-.018q-.037-.125-.075-.248c.193-.116.383-.238.569-.368,0,.048,0,.1,0,.144a.126.126,0,0,0-.012.053,2.163,2.163,0,0,1-.031.338.611.611,0,0,0-.046-.063c-.052-.062-.143.03-.088.091a.352.352,0,0,1,.064.1l-.136-.017a.306.306,0,0,0-.1-.014Zm.45,1.712q-.1.139-.208.264-.011-.185-.033-.372a.318.318,0,0,0,.24.108Zm1.419-1.853a6.486,6.486,0,0,0,.194-1.584,5.151,5.151,0,0,1-.052,2.761,4.943,4.943,0,0,1-1.772,2.346,5.742,5.742,0,0,0,1.294-1.852,4.537,4.537,0,0,0,.337-1.671Zm-.808.756h0a5.847,5.847,0,0,1-.315.637c.042-.189.081-.386.114-.587l.027,0a.247.247,0,0,0,.173-.052Zm-.125-.508c0-.035.007-.07.01-.1a4.933,4.933,0,0,0,.1-.581,4.02,4.02,0,0,1,.048.8.27.27,0,0,0-.163-.114Zm-.411-4.108a4.921,4.921,0,0,1,.782,1.322,2.952,2.952,0,0,1,.153.565c-.043-.1-.089-.2-.139-.3a7.962,7.962,0,0,0-1.4-2.03c.2.142.4.289.6.443Zm-.91.3a3.372,3.372,0,0,1,.342.433,4.148,4.148,0,0,0-.359-.3,3.163,3.163,0,0,0-.179-.336c.066.066.132.134.2.2Zm-.51,1.248a.2.2,0,0,0,.275.035,5.279,5.279,0,0,1-.045.747l-.037.022c-.075-.186-.153-.37-.235-.553-.014-.118-.03-.236-.047-.353.03.034.059.066.089.1Zm-.188,2.965.012.05-.037-.006Zm-.2-1.844,0,0c-.035-.076-.072-.152-.108-.227l.117.042c0,.06,0,.121,0,.182Zm-.031-2.877a.167.167,0,0,0-.015.03l-.033-.01,0-.038Zm-.031,1.869.06.139c0,.03,0,.06,0,.09l-.115-.034c.017-.065.036-.13.052-.2Zm.039,2.033.021.072-.021.01-.116-.027c.039-.017.077-.037.116-.055Zm.01,3.665.006.042a3.014,3.014,0,0,1-.58.257c-.006-.042-.01-.085-.016-.127.073-.057.144-.117.214-.176a.292.292,0,0,0,.375,0Zm-.24-1.978q.012.069.024.138l-.047.039c-.018-.062-.036-.126-.055-.187l.079.01Zm-.087-2.54,0-.018.005.014Zm.017-3.154,0,.05q-.217-.063-.437-.112l-.021-.007-.007-.076c.154.044.308.093.462.145ZM176.714,218c.062.017.124.038.187.056-.043.118-.087.236-.135.353-.042-.079-.083-.159-.127-.237.025-.057.051-.115.075-.173Zm-.2-2.732.011,0,.005.074-.016,0c0-.024,0-.048,0-.072Zm-.027.6.044.012-.044-.006Zm-.557-1.346a3.3,3.3,0,0,1,.523.148l0,.031-.081-.014a.3.3,0,0,0-.231-.039,6.646,6.646,0,0,0-2.22.045,3.851,3.851,0,0,1,2-.171Zm-3.149.828a6.366,6.366,0,0,1,1.107-.236c-.1.031-.161.144-.064.225l.01.009a6.925,6.925,0,0,0-.856.218.11.11,0,0,0-.164.052c-.066.023-.132.05-.2.076a.108.108,0,0,0-.009-.146q.083-.1.171-.2Zm.15,2.051q0-.24,0-.48.171-.05.344-.09c0,.171.007.341.014.512-.121.018-.242.036-.362.059Zm.382.339c0,.05.006.1.01.149l-.211-.125c.067-.009.134-.016.2-.024Zm.053.675c.01.105.021.21.033.316q-.2-.119-.389-.246c-.014-.114-.028-.229-.039-.344q.2.141.4.274Zm-.488,1.592c-.113,0-.226-.006-.339-.01l-.022-.077c.117.017.234.032.351.043Zm-.358-3.989c.079-.027.158-.051.238-.075l-.009.067q-.13.083-.256.174l.027-.165Zm-.155,1.095c.092-.035.185-.068.279-.1-.01.15-.016.3-.019.451l-.277-.176c.006-.058.011-.116.018-.175Zm-.059.8c.094-.021.188-.043.282-.061l.034.027c0,.117.006.234.011.35q-.167-.118-.33-.243c0-.025,0-.049,0-.073Zm.346.618q.023.311.067.622-.192-.1-.384-.2c-.024-.237-.035-.476-.035-.716q.173.15.352.292Zm-.518,1.9c-.013-.04-.025-.08-.037-.121l.033,0,.006.023c.01.033.022.065.033.1Zm.2.551c-.024-.056-.046-.113-.068-.169l.04,0c.02.047.041.094.061.141Zm.059-1.575c.13.081.262.16.395.236-.118-.009-.236-.02-.354-.036-.014-.066-.028-.133-.04-.2Zm.153,2.025q-.035-.067-.068-.136l.039-.027c.024.045.047.09.072.135Zm.115-1.065c.1.008.2.016.307.021.008.032.017.063.025.1l-.018.015q-.133,0-.265-.013c-.017-.039-.034-.077-.05-.117ZM173,222.17c-.058-.083-.114-.167-.168-.252l.055-.037c.056.085.115.168.174.25Zm.043-1.058c-.032-.051-.061-.1-.091-.157l.1-.074.065,0c.015.05.031.1.047.15Zm.117-1.752q-.056-.258-.1-.519.192.14.389.272c.019.134.037.268.06.4q-.175-.075-.35-.155Zm.154.629.146,0h0c-.048,0-.1,0-.145,0Zm.015,2.611.067-.043c.037.043.074.084.112.126l-.066.048c-.038-.043-.076-.087-.113-.131Z" fill="#997082"/>
      <path id="Path_1172" data-name="Path 1172" d="M169.766,225.35a.236.236,0,0,0,0,.33,1.98,1.98,0,0,0,1.948.609C171.677,225.207,170.772,224.318,169.766,225.35Z" fill="#997082"/>
      <path id="Path_1173" data-name="Path 1173" d="M182.6,230.732c-1.636.458-3.865,1.7-5.129.167a3.858,3.858,0,0,0-3.027-1.3c-.815-.053-1.66.09-2.476.116a4.608,4.608,0,0,1-2.856-1.058c1.239-.3,2.365-.916,2.565-1.893a1.922,1.922,0,0,0,.032-.222A9.973,9.973,0,0,1,170,227.677a12.581,12.581,0,0,1-1.495.569c-.072-.048-.143-.1-.216-.143a2.076,2.076,0,0,0-2.409.113.24.24,0,0,0,.056.433,5.354,5.354,0,0,0,2.524.127c.029.016.059.029.087.048a6.5,6.5,0,0,0,4.7,1.286,6,6,0,0,1,3.186.426c.558.268.958,1.255,1.52,1.682.271.206.808.034,1.086-.028,1.233-.273,2.453-.7,3.667-1.05a.212.212,0,0,0-.113-.408Z" fill="#997082"/>
      <path id="Path_1174" data-name="Path 1174" d="M171.714,226.289a1.986,1.986,0,0,1-.008.248c.134-.114.25-.233.368-.351a2.873,2.873,0,0,1-.361.1Z" fill="#997082"/>
    </g>
  </g>
</svg>
