<svg xmlns="http://www.w3.org/2000/svg" width="35.843" height="48.453" viewBox="0 0 35.843 48.453">
  <path id="Path_1451" data-name="Path 1451" d="M358.8,626.586c.048-1.458-1.938-2.836-3.8-4.014-.171-.108-.317-.2-.427-.274-2.808-1.877-5.825-3.529-8.742-5.126-2.043-1.12-4.156-2.278-6.168-3.5-.469-.283-1.6-1.091-3.042-2.114-7.454-5.3-11.491-7.939-12.854-7.657a.907.907,0,0,0-.6.414c-.456.753-.071,2.179.482,3.965.1.307.174.561.21.714l1.924,8.426c1.07,4.7,1.628,8.685,2.219,12.9.306,2.182.621,4.43,1.017,6.821a.623.623,0,0,0,.021.233c.014.051.028.1.043.154q.039.237.08.474a.637.637,0,0,0,.1.243c.28,1.248.486,2.719.689,4.151a37.345,37.345,0,0,0,.97,5.224.629.629,0,0,0,1.045.263,13.05,13.05,0,0,0,2.091-3.185,18.48,18.48,0,0,1,1.111-1.922c.74-1.054,1.39-2.177,2.018-3.263.6-1.042,1.222-2.112,1.918-3.11.757,1.808,1.648,3.751,2.658,5.789.235.474.575,1.38.968,2.429,1.44,3.834,2.649,6.822,4.009,7.528a1.6,1.6,0,0,0,.75.185,4.294,4.294,0,0,0,2.3-1.105,5.184,5.184,0,0,1,1-.648c.713-.265,4.3-1.653,4.86-2.939a1.011,1.011,0,0,0,.021-.813.628.628,0,0,0-.068-.123c-.977-1.372-1.856-2.578-2.765-3.827-.58-.8-1.173-1.609-1.811-2.495-.868-1.2-1.714-2.451-2.532-3.66-.671-.991-1.342-1.982-2.034-2.963-.2-.282-.423-.542-.644-.8a4.285,4.285,0,0,1-.816-1.162,32.165,32.165,0,0,0,9.244-1.737C357.353,628.819,358.76,627.745,358.8,626.586Z" transform="translate(-322.957 -603.882)" fill="#404151"/>
</svg>
