<svg xmlns="http://www.w3.org/2000/svg" width="310.158" height="88.174" viewBox="0 0 310.158 88.174">
  <g id="Group_2190" data-name="Group 2190" transform="translate(-405.442 -1895.826)">
    <path id="Path_9756" data-name="Path 9756" d="M429.54,1959.842a1.858,1.858,0,0,1,0,2.78L405.442,1984H477.9l-34.031-17.382c-.021-.011-.036-.028-.057-.04a1.844,1.844,0,0,1-.309-.216c-.024-.021-.049-.038-.072-.059a1.86,1.86,0,0,1-.282-.345c-.018-.029-.032-.059-.048-.089a1.832,1.832,0,0,1-.145-.331c-.013-.039-.026-.076-.036-.116a1.844,1.844,0,0,1-.064-.459v-26.5h-37.41Z" fill="#1f1f1f"/>
    <path id="Path_9757" data-name="Path 9757" d="M691.5,1919.984a1.858,1.858,0,0,1,0-2.78l24.1-21.378H642.878l34.326,18.244c.019.01.034.027.052.038a1.862,1.862,0,0,1,.312.225c.018.016.039.03.057.047a1.859,1.859,0,0,1,.276.345c.019.031.034.064.052.1a1.833,1.833,0,0,1,.139.321c.013.039.026.076.036.116a1.851,1.851,0,0,1,.062.453v25.652H715.6Z" fill="#1f1f1f"/>
    <path id="Path_9758" data-name="Path 9758" d="M483.761,1966.822H452.434l31.327,16Z" fill="#1f1f1f"/>
    <path id="Path_9759" data-name="Path 9759" d="M637.28,1913.852h31.595l-31.595-16.793Z" fill="#1f1f1f"/>
    <path id="Path_9760" data-name="Path 9760" d="M446.568,1917.568V1963.1h227.9v-45.537Z" fill="#1f1f1f"/>
  </g>
</svg>
