<svg xmlns="http://www.w3.org/2000/svg" width="194.994" height="85.85" viewBox="0 0 194.994 85.85">
  <g id="Group_2148" data-name="Group 2148" transform="translate(-1633.823 -1390.844)">
    <path id="Path_9619" data-name="Path 9619" d="M1731.32,1476.694c-8.5,0-33.176-6.978-55.007-15.553-27-10.608-42.49-20.585-42.49-27.372s15.487-16.763,42.49-27.371c21.831-8.576,46.507-15.553,55.007-15.553s33.176,6.978,55.007,15.553c27,10.608,42.49,20.585,42.49,27.371s-15.487,16.764-42.49,27.372C1764.5,1469.717,1739.82,1476.694,1731.32,1476.694Z" fill="#1f1f1f"/>
    <path id="Path_9620" data-name="Path 9620" d="M1731.32,1476.694c-8.5,0-33.176-6.978-55.007-15.553-27-10.608-42.49-20.585-42.49-27.372s15.487-16.763,42.49-27.371c21.831-8.576,46.507-15.553,55.007-15.553s33.176,6.978,55.007,15.553c27,10.608,42.49,20.585,42.49,27.371s-15.487,16.764-42.49,27.372C1764.5,1469.717,1739.82,1476.694,1731.32,1476.694Z" fill="#1f1f1f"/>
    <path id="Path_9621" data-name="Path 9621" d="M1731.319,1469.694c-6.664,0-29.842-6.188-52.447-15.069-27.115-10.652-35.1-17.678-37.274-20.2l-.562-.652.562-.652c2.176-2.526,10.163-9.553,37.274-20.2,22.607-8.88,45.785-15.068,52.447-15.068s29.84,6.188,52.447,15.068c27.108,10.649,35.1,17.676,37.275,20.2l.562.652-.562.652c-2.175,2.526-10.16,9.552-37.275,20.2C1761.162,1463.506,1737.984,1469.694,1731.319,1469.694Zm-87.6-35.926c2.81,2.85,11.3,9.335,35.885,19,22.4,8.8,45.233,14.931,51.717,14.931s29.319-6.132,51.717-14.931c24.59-9.66,33.076-16.146,35.886-19-2.812-2.85-11.3-9.336-35.886-18.994-22.4-8.8-45.233-14.93-51.717-14.93s-29.316,6.132-51.717,14.93c-24.586,9.659-33.073,16.144-35.885,18.994Z" fill="#fff"/>
    <path id="Path_9622" data-name="Path 9622" d="M1731.319,1474.194c-7.215,0-30.672-6.18-54.093-15.38-30.19-11.861-40.9-20.905-40.9-25.046s10.713-13.184,40.9-25.045c23.423-9.2,46.88-15.379,54.093-15.379s30.67,6.18,54.093,15.379c30.191,11.862,40.9,20.905,40.9,25.045s-10.713,13.183-40.9,25.046C1761.993,1468.015,1738.535,1474.194,1731.319,1474.194Zm-92-40.386c.013,0,2.772,7.979,39,22.213,23.1,9.076,46.055,15.173,53,15.173s29.894-6.1,53-15.173c36.242-14.238,38.993-22.219,39-22.293h0c-.013,0-2.772-7.978-39-22.212-23.105-9.075-46.057-15.172-53-15.172s-29.89,6.1-53,15.172C1642.083,1425.754,1639.332,1433.734,1639.321,1433.809Z" fill="#fff"/>
  </g>
</svg>
