<svg xmlns="http://www.w3.org/2000/svg" width="284.809" height="175.665" viewBox="0 0 284.809 175.665">
  <g id="Group_2198" data-name="Group 2198" transform="translate(-1265.75 -1803.885)">
    <path id="Path_9802" data-name="Path 9802" d="M1464.279,1971.1c8.784,5.532,19.75,8.453,31.9,8.453,19.942,0,40.817-7.825,54.378-20.173a120.886,120.886,0,0,1-28.475-6.252,1.859,1.859,0,0,1-.888-2.806,133.408,133.408,0,0,0,10.357-17.5c-9.222,6.867-21.5,10.8-34.39,10.8-1.286,0-2.556-.044-3.808-.125v2.955a1.848,1.848,0,0,1-.042.373c-.007.035-.018.069-.027.1a1.855,1.855,0,0,1-.089.257c-.015.034-.028.068-.045.1a1.878,1.878,0,0,1-.177.287c-.006.008-.011.018-.017.026a1.84,1.84,0,0,1-.257.263c-.01.009-.018.02-.028.029Z" fill="#1f1f1f"/>
    <path id="Path_9803" data-name="Path 9803" d="M1484.214,1950.007q-7.95,1.716-15.971,3.072l-3.691,12.995Z" fill="#1f1f1f"/>
    <path id="Path_9804" data-name="Path 9804" d="M1265.75,1824.059a120.871,120.871,0,0,1,28.475,6.252,1.858,1.858,0,0,1,.888,2.805,133.431,133.431,0,0,0-10.356,17.5c9.222-6.867,21.5-10.8,34.389-10.8,1.085,0,2.158.032,3.22.089v-9.6a1.848,1.848,0,0,1,.06-.452c.012-.049.034-.093.05-.141a1.859,1.859,0,0,1,.115-.277,1.721,1.721,0,0,1,.093-.147,1.639,1.639,0,0,1,.3-.349c.032-.03.058-.065.093-.093s.085-.051.127-.078.054-.048.086-.067l28.352-16.6c-8.717-5.373-19.539-8.2-31.509-8.2C1300.186,1803.885,1279.311,1811.71,1265.75,1824.059Z" fill="#1f1f1f"/>
    <path id="Path_9805" data-name="Path 9805" d="M1347.283,1833.114l4.827-16.994-22.913,13.417Q1338.191,1831.561,1347.283,1833.114Z" fill="#1f1f1f"/>
    <path id="Path_9806" data-name="Path 9806" d="M1407.86,1905.193a358.5,358.5,0,0,0,44.354-2.769q15.346-8.654,30.476-19a362.33,362.33,0,0,1-74.82,7.827h-.009q-16.824,0-33.6-1.574a308.385,308.385,0,0,1-39.069,8.063,358.658,358.658,0,0,0,72.667,7.451Z" fill="#1f1f1f"/>
    <path id="Path_9807" data-name="Path 9807" d="M1407.86,1908.91a362.239,362.239,0,0,1-81.73-9.349l-.047,45.426a358.67,358.67,0,0,0,81.778,9.459h.009a358.423,358.423,0,0,0,81.725-9.449l.043-45.447a362.348,362.348,0,0,1-81.778,9.36Z" fill="#1f1f1f"/>
    <path id="Path_9808" data-name="Path 9808" d="M1326.083,1832.642v45.436a358.671,358.671,0,0,0,81.778,9.46h.009a358.432,358.432,0,0,0,81.721-9.449l.047-45.447a361.94,361.94,0,0,1-163.555,0Z" fill="#1f1f1f"/>
  </g>
</svg>
