<svg xmlns="http://www.w3.org/2000/svg" width="52.24" height="50.697" viewBox="0 0 52.24 50.697">
  <g id="Group_333" data-name="Group 333" transform="translate(-598.95 -105.825)">
    <path id="Path_1329" data-name="Path 1329" d="M602.244,116.013c-.144,5.416.39,11.81.4,17l.049,23.26c3.072-.014,3.889.955,3.986-5.59q.111-7.475.137-14.953c.008-2.494-.084-29.912-.269-29.9l-4.024.16C602.435,109.328,602.333,112.67,602.244,116.013Z" fill="#44484f"/>
    <path id="Path_1330" data-name="Path 1330" d="M616.083,116.22c-.144,5.416.39,11.81.4,17l.049,23.26c3.072-.014,3.889.955,3.986-5.59q.111-7.475.137-14.953c.008-2.494-.084-29.912-.268-29.9l-4.024.16C616.274,109.534,616.172,112.877,616.083,116.22Z" fill="#44484f"/>
    <path id="Path_1331" data-name="Path 1331" d="M630.451,116.013c-.144,5.416.39,11.81.4,17l.049,23.26c3.072-.014,3.889.955,3.986-5.59q.111-7.475.137-14.953c.008-2.494-.084-29.912-.269-29.9l-4.024.16C630.642,109.328,630.54,112.67,630.451,116.013Z" fill="#44484f"/>
    <path id="Path_1332" data-name="Path 1332" d="M643.993,116.22c-.144,5.416.39,11.81.4,17l.049,23.26c3.072-.014,3.889.955,3.986-5.59q.111-7.475.137-14.953c.008-2.494-.084-29.912-.268-29.9l-4.024.16C644.184,109.534,644.082,112.877,643.993,116.22Z" fill="#44484f"/>
    <path id="Path_1333" data-name="Path 1333" d="M601.406,141a3.326,3.326,0,0,0-1.721.505c-1.44,1.1-.284,3.381-.488,5.183a57.765,57.765,0,0,1,9.6-.363l-.027-6.082Z" fill="#61aa99"/>
    <path id="Path_1334" data-name="Path 1334" d="M630.259,141.737a3.326,3.326,0,0,0-1.721.505c-1.44,1.1-.284,3.381-.488,5.183a57.776,57.776,0,0,1,9.6-.363l-.027-6.082Z" fill="#f9dd3a"/>
    <path id="Path_1335" data-name="Path 1335" d="M643.8,129.9a3.326,3.326,0,0,0-1.721.505c-1.44,1.1-.284,3.381-.488,5.183a57.768,57.768,0,0,1,9.6-.363l-.027-6.082Z" fill="#6d9dbf"/>
    <path id="Path_1336" data-name="Path 1336" d="M615.891,124.5a3.326,3.326,0,0,0-1.721.505c-1.44,1.1-.284,3.381-.488,5.183a57.778,57.778,0,0,1,9.6-.363l-.027-6.082Z" fill="#a84749"/>
  </g>
</svg>
