<svg xmlns="http://www.w3.org/2000/svg" width="20.207" height="27.75" viewBox="0 0 20.207 27.75">
  <g id="Group_329" data-name="Group 329" transform="translate(-457.471 -35.308)">
    <path id="Path_1161" data-name="Path 1161" d="M474.373,55.115a8.459,8.459,0,1,1-8.442-8.974,8.723,8.723,0,0,1,8.442,8.974Z" fill="#de1f2b"/>
    <g id="Group_326" data-name="Group 326">
      <path id="Path_1162" data-name="Path 1162" d="M466.558,46.013l-.746.931-5.07,6.328,7.592-2.879,1.555,4.723,1.266-6.271,5.858-.722-7.371-4.207,2.318-8.507L467.136,44.5l-5.713-2.782" fill="#fff"/>
      <path id="Path_1163" data-name="Path 1163" d="M469.938,55.953,468.2,50.672l-8.119,3.079,6.307-7.871.335.268L461.4,52.793l7.069-2.681,1.369,4.167,1.136-5.628,5.372-.662-6.954-3.97,1.856-6.812-4.021,7.574-5.9-2.874.187-.386,5.527,2.693,4.727-8.906.4.156-2.275,8.348,7.785,4.444-6.343.783Z"/>
    </g>
  </g>
</svg>
