<svg xmlns="http://www.w3.org/2000/svg" width="75.296" height="75.296" viewBox="0 0 75.296 75.296">
  <g id="Group_22" data-name="Group 22" transform="translate(-484.578 -186.892)">
    <path id="Path_284" data-name="Path 284" d="M542.345,244.6l-1.244-1.25,7.757-7.753v-.021l11.016-11.028-9.275-9.262v9.228h-1.741V197.907h-13.1l6.513,6.524-1.25,1.244-7.762-7.768h-.021l-11.029-11.015-9.261,9.275h9.238v1.74H495.607v13.116l6.506-6.516,1.254,1.25-7.76,7.765h0l-11.029,11.03,9.26,9.261v-9.239h1.769v26.583h13.061l-6.5-6.5,1.248-1.255,7.755,7.75h.018l11.028,11.03,9.262-9.261h-9.228v-1.769h26.611V238.1Z" fill="#38404d"/>
    <g id="Group_21" data-name="Group 21">
      <path id="Path_285" data-name="Path 285" d="M516.794,229.645,507.907,214.9a17.246,17.246,0,0,0-2.184,14.748Zm0,0" fill="#8ac641"/>
      <path id="Path_286" data-name="Path 286" d="M520.526,217.227h17.325a17.324,17.324,0,0,0-11.742-9.5Zm0,0" fill="#b364a7"/>
      <path id="Path_287" data-name="Path 287" d="M514.967,222.573l8.938-15.207c-.556-.054-1.117-.085-1.688-.085a17.23,17.23,0,0,0-12.939,5.852Zm0,0" fill="#51c7ee"/>
      <path id="Path_288" data-name="Path 288" d="M518.5,241.407c.344-.6,5.538-9.673,5.538-9.673H506.525C508.824,236.726,513.623,239.954,518.5,241.407Z" fill="#ffcf35"/>
      <path id="Path_289" data-name="Path 289" d="M527.617,219.313l8.727,15.146a17.215,17.215,0,0,0,2.326-15.146Zm0,0" fill="#eb2043"/>
      <path id="Path_290" data-name="Path 290" d="M529.4,226.579,520.7,241.741c.5.044,1.005.072,1.514.072a17.216,17.216,0,0,0,12.725-5.61Zm0,0" fill="#f78f28"/>
    </g>
  </g>
</svg>
