<svg xmlns="http://www.w3.org/2000/svg" width="190.813" height="148.345" viewBox="0 0 190.813 148.345">
  <g id="Group_2164" data-name="Group 2164" transform="translate(-1411.261 -21.24)">
    <path id="Path_9663" data-name="Path 9663" d="M1473.987,155.475h-16.5a28.78,28.78,0,0,1-28.748-28.747v-.668h-1.006a36.74,36.74,0,0,1,0-61.293h1.006V64.1a28.78,28.78,0,0,1,28.748-28.747h16.5l32.68-14.111,32.681,14.111h16.5A28.78,28.78,0,0,1,1584.592,64.1v.668h1.007a36.74,36.74,0,0,1,0,61.293h-1.007v.668a28.78,28.78,0,0,1-28.747,28.748h-16.5l-32.681,14.111Z" fill="#1f1f1f"/>
    <path id="Path_9664" data-name="Path 9664" d="M1473.987,155.475h-16.5a28.78,28.78,0,0,1-28.748-28.747v-.668h-1.006a36.74,36.74,0,0,1,0-61.293h1.006V64.1a28.78,28.78,0,0,1,28.748-28.747h16.5l32.68-14.111,32.681,14.111h16.5A28.78,28.78,0,0,1,1584.592,64.1v.668h1.007a36.74,36.74,0,0,1,0,61.293h-1.007v.668a28.78,28.78,0,0,1-28.747,28.748h-16.5l-32.681,14.111Z" fill="#1f1f1f"/>
    <path id="Path_9665" data-name="Path 9665" d="M1506.668,165.229l-31.854-13.754h-17.322a24.775,24.775,0,0,1-24.747-24.747v-4.663l-3.765,0-.264-.192a32.736,32.736,0,0,1,0-52.911l.263-.192h3.767V64.1a24.775,24.775,0,0,1,24.747-24.747h17.322L1506.668,25.6l31.854,13.754h17.322A24.775,24.775,0,0,1,1580.591,64.1v4.668h3.766l.264.192a32.736,32.736,0,0,1,0,52.908l-.264.192h-3.766v4.668a24.775,24.775,0,0,1-24.747,24.748h-17.322Zm-77.033-45.167,5.109,0v6.661a22.773,22.773,0,0,0,22.747,22.747h17.736l31.44,13.575,31.44-13.575h17.736a22.773,22.773,0,0,0,22.747-22.748V120.06h5.11a30.735,30.735,0,0,0,0-49.293h-5.11V64.1a22.773,22.773,0,0,0-22.747-22.747h-17.736l-31.44-13.576-31.44,13.576h-17.736A22.773,22.773,0,0,0,1434.744,64.1v6.668h-5.111a30.736,30.736,0,0,0,0,49.294Z" fill="#fff"/>
  </g>
</svg>
