<svg xmlns="http://www.w3.org/2000/svg" width="49.46" height="48.63" viewBox="0 0 49.46 48.63">
  <g id="Group_296" data-name="Group 296" transform="translate(-611.86 -602.21)">
    <path id="Path_1196" data-name="Path 1196" d="M646.492,609.157l-.523-.1a4.275,4.275,0,0,1-1.42-.474,1.945,1.945,0,0,1-1.395-.7,2,2,0,0,1-.754-.761,2.047,2.047,0,0,1-1.385-.6,2.353,2.353,0,0,1-.634-1.535,1.449,1.449,0,0,1-.432-.216,4.644,4.644,0,0,1-1-1.047,1.994,1.994,0,0,1-.406-.556l-.033-.066a2.519,2.519,0,0,1-.2-.556c-9.779-.409-25.96-.724-25.988.842-.082,4.585-.641,45.761-.406,46.345.641,1.588,33.882,1.468,34.19-.335C646.346,648.01,647.143,621.486,646.492,609.157Z" fill="#e3e5e3"/>
    <path id="Path_1197" data-name="Path 1197" d="M640.23,612.694a138.468,138.468,0,0,1-21.526.426c-.112-.006-.111.166,0,.174a149.467,149.467,0,0,0,21.526-.047C640.584,613.221,640.581,612.659,640.23,612.694Z" fill="#919191"/>
    <path id="Path_1198" data-name="Path 1198" d="M639.665,617.563q-10.007-.118-20.011,0a.122.122,0,0,0,0,.244q10,.275,20.011.306a.273.273,0,0,0,0-.546Z" fill="#919191"/>
    <path id="Path_1199" data-name="Path 1199" d="M638.706,623.049c-6.468-.195-13-.164-19.462.031a.125.125,0,0,0,0,.25c6.464.3,12.991.446,19.462.361a.321.321,0,0,0,0-.642Z" fill="#919191"/>
    <path id="Path_1200" data-name="Path 1200" d="M638.841,628.19c-6.817-.267-13.614.065-20.422.367-.144.006-.145.23,0,.225,6.8-.245,13.619.033,20.422.2a.4.4,0,0,0,0-.8Z" fill="#919191"/>
    <path id="Path_1201" data-name="Path 1201" d="M640.348,633.857c-7.225.193-14.422.572-21.654.348-.347-.011-.347.529,0,.54a203.478,203.478,0,0,0,21.654-.091C640.852,634.615,640.866,633.843,640.348,633.857Z" fill="#919191"/>
    <path id="Path_1202" data-name="Path 1202" d="M640.214,639.73c-7.313-.031-14.62.316-21.93.449a.209.209,0,0,0,0,.418c7.309-.053,14.621.108,21.93-.108a.379.379,0,0,0,0-.758Z" fill="#919191"/>
    <path id="Path_1203" data-name="Path 1203" d="M639.355,608.742c.611.084,3.406.254,7.134.41l-8.168-6.613C638.516,606.247,638.843,608.671,639.355,608.742Z" fill="#d6d6d6"/>
    <g id="Group_295" data-name="Group 295">
      <path id="Path_1204" data-name="Path 1204" d="M647.091,637.009c1.333-1.117,13.145-12.665,14.121-14.1.642-.945-1.764-3.319-2.387-2.772-2.3,2.022-12.512,12.022-16.731,16.276-.553.557,1.693,3.127,2.252,2.956a25.762,25.762,0,0,0,2.745-2.357Z" fill="#5e7493"/>
      <path id="Path_1205" data-name="Path 1205" d="M644.5,639.292c.237.13-3.773,1.233-4.042.934s1.565-4,1.635-3.816a6.686,6.686,0,0,0,2.406,2.882Z" fill="#d2ccc6"/>
      <path id="Path_1206" data-name="Path 1206" d="M641.683,640.144c-.267.048-1.121.221-1.225.081a2.635,2.635,0,0,1,.37-1.279C640.917,639.09,641.824,640.119,641.683,640.144Z"/>
    </g>
  </g>
</svg>
