<svg xmlns="http://www.w3.org/2000/svg" width="54.288" height="46.075" viewBox="0 0 54.288 46.075">
  <g id="Group_377" data-name="Group 377" transform="translate(-597.928 -436.423)">
    <path id="Path_1478" data-name="Path 1478" d="M652.07,447.27a12.457,12.457,0,0,0-.414-1.994,6,6,0,0,0-.9-.537c-.04-.019-.148-.052-.208-.072-.033-.006-.067-.016-.1-.024-.111.052-.225.1-.335.159l-4.643,3.787-3.933-.427a22.307,22.307,0,0,1,.214-4.64,30.26,30.26,0,0,1,4.146-3.671,1.826,1.826,0,0,1,.519-.569.887.887,0,0,1,.075-.052c.013-.022.033-.052.063-.093.013-.021.023-.04.045-.077-.011-.1-.036-.268-.036-.3a4.917,4.917,0,0,0-.246-.747,13.445,13.445,0,0,0-1.985-1.2,9.444,9.444,0,0,0-5.2-.049c-1.518.421-4.154,2.717-4.888,3.6s-1.68,5.1-1.422,7.674c0,0-1.489.823-1.939,1.175-3.248,2.54-6.759,4.689-10.222,6.9-1.735,1.107-3.466,2.223-5.146,3.417-.708.5-2.953,2.81-3.735,2.734-9.105-.883-12.153,3.263-13.534,9.024a8.859,8.859,0,0,0-.164,4c.251,0,6.535-4.664,6.746-4.413s3.045.97,3.3,1.377a7.577,7.577,0,0,1,.294,3.349c-.255.4-5.266,4.778-5.331,5.125,2.35,1.592,4.75,3.093,9.924-.129,5.455-3.4,5.125-8.151,5.573-9.592.645-2.078,3.875-3.511,5.49-4.651a125.515,125.515,0,0,1,11.717-7.861c.539-.3,3.682-2.581,3.682-2.581l1.758.507c1.759.506,4.6-.555,5.2-.943s3.575-1.768,4.786-3.132S652.286,449.128,652.07,447.27Z" fill="#537082"/>
    <path id="Path_1479" data-name="Path 1479" d="M633.848,456.121a15.858,15.858,0,0,1-1.718,1.229l-8.655,5.965c-1.684,1.154-3.515,1.894-5.236,3.018a1.745,1.745,0,0,1-2.447-.56l-.019-.031c-1.439-2.324,2.968-5.246,4.527-6.058a82.991,82.991,0,0,0,10.567-6.507c1.157-.842,2.172-1.363,3.181-.19a2.107,2.107,0,0,1-.2,3.133Z" opacity="0.16"/>
  </g>
</svg>
