<svg xmlns="http://www.w3.org/2000/svg" width="277.291" height="61.938" viewBox="0 0 277.291 61.938">
  <g id="Group_2187" data-name="Group 2187" transform="translate(-1711.175 -1923.644)">
    <path id="Path_9739" data-name="Path 9739" d="M1750.09,1967.06a1.834,1.834,0,0,1-.154-.13,2.737,2.737,0,0,1-.308-.384,1.85,1.85,0,0,1-.137-.3c-.019-.052-.045-.1-.06-.153a1.854,1.854,0,0,1-.072-.5v-21.925h-38.184l21.608,19.168a1.859,1.859,0,0,1,0,2.781l-21.608,19.168h66.257l-27.224-17.632C1750.164,1967.131,1750.131,1967.092,1750.09,1967.06Z" fill="#1f1f1f"/>
    <path id="Path_9740" data-name="Path 9740" d="M1922.209,1984.791h66.257l-21.608-19.168a1.859,1.859,0,0,1,0-2.781l21.608-19.168h-38.184V1965.6a1.84,1.84,0,0,1-.072.5c-.015.053-.041.1-.06.153a1.748,1.748,0,0,1-.6.812c-.041.031-.074.071-.118.1Z" fill="#1f1f1f"/>
    <path id="Path_9741" data-name="Path 9741" d="M1781.861,1979.207q-6.435-1.947-12.8-4.266l12.8,8.291Z" fill="#1f1f1f"/>
    <path id="Path_9742" data-name="Path 9742" d="M1930.58,1974.941q-6.365,2.32-12.8,4.266v4.025Z" fill="#1f1f1f"/>
    <path id="Path_9743" data-name="Path 9743" d="M1753.076,1964.4a231.558,231.558,0,0,0,193.489,0v-40.76a235.17,235.17,0,0,1-193.489,0Z" fill="#1f1f1f"/>
  </g>
</svg>
