<svg xmlns="http://www.w3.org/2000/svg" xmlns:xlink="http://www.w3.org/1999/xlink" width="100.859" height="76.144" viewBox="0 0 100.859 76.144">
  <defs>
    <linearGradient id="linear-gradient" x1="0.323" y1="0.729" x2="0.855" y2="0.048" gradientUnits="objectBoundingBox">
      <stop offset="0" stop-color="#f15c27"/>
      <stop offset="1" stop-color="#fde963"/>
    </linearGradient>
    <linearGradient id="linear-gradient-2" x1="0.288" y1="1.034" x2="0.895" y2="0.064" gradientUnits="objectBoundingBox">
      <stop offset="0" stop-color="#048fbd"/>
      <stop offset="1" stop-color="#91b8e2"/>
    </linearGradient>
  </defs>
  <g id="Group_110" data-name="Group 110" transform="translate(-1344.517 -1072.251)">
    <path id="Path_665" data-name="Path 665" d="M1427.551,1101.6v-15.8h-10.412v6.411l-22.193-19.963-25.785,23.2,3.773-1.533,1.078,2.149,4.77-1.937-1.078-2.149,8.352-3.393c7.455-3.028,15.99-.328,18.2.729,2.3,1.1,2.014,3.97-.174,3.673s-5.576-.813-8.787.489c-2.02.821-5.371,2.82-4.346,4.863l4.84,9.641a6.037,6.037,0,0,1,3.121,2.824l18.869,37.591h9.77v-30.778h17.824Z" fill="url(#linear-gradient)"/>
    <path id="Path_666" data-name="Path 666" d="M1387.258,1111.012l-5.783-11.521-4.77,1.938,1.074,2.142-7.156,2.907-4.27-8.5-21.836,19.644H1362.3v30.778h41.559L1387.35,1115.5a5.162,5.162,0,0,1-.092-4.488ZM1376.7,1136.92h-5.486v-4.905h5.486Zm0-6.131h-5.486v-4.9h5.486Zm6.814,6.131h-5.451v-4.905h5.451Zm0-6.131h-5.451v-4.9h5.451Z" fill="url(#linear-gradient-2)"/>
  </g>
</svg>
