<svg xmlns="http://www.w3.org/2000/svg" width="67.963" height="105.175" viewBox="0 0 67.963 105.175">
  <path id="Path_257" data-name="Path 257" d="M146.52,338.126c-2.737,5.021-5.014,10.995-2.98,16.339,3.533,9.28,17.962,11.548,19.811,21.3.867,4.574-1.513,9.043-2.911,13.484s-1.327,10.272,2.692,12.624c3.868,2.264,8.761-.194,12.238-3.022A55.8,55.8,0,0,0,195.6,359.206c.385-6.908-.494-14.094,2-20.546,3.121-8.064,11.138-13.861,12.826-22.341a16.457,16.457,0,0,0-3.593-13.711c-9.83-11.459-24.782-.63-34.189,6.113a88.565,88.565,0,0,0-26.128,29.405Z" transform="translate(-142.759 -297.589)" fill="#b49180"/>
</svg>
