<svg xmlns="http://www.w3.org/2000/svg" xmlns:xlink="http://www.w3.org/1999/xlink" width="95.234" height="76.265" viewBox="0 0 95.234 76.265">
  <defs>
    <linearGradient id="linear-gradient" x1="0.642" y1="1.198" x2="0.479" y2="0.148" gradientUnits="objectBoundingBox">
      <stop offset="0" stop-color="#f26822"/>
      <stop offset="1" stop-color="#ffcd05"/>
    </linearGradient>
    <linearGradient id="linear-gradient-2" x1="0.69" y1="1.437" x2="-0.494" y2="-4.413" xlink:href="#linear-gradient"/>
    <linearGradient id="linear-gradient-3" x1="0.621" y1="1.097" x2="-0.563" y2="-4.753" xlink:href="#linear-gradient"/>
  </defs>
  <g id="Group_92" data-name="Group 92" transform="translate(-1501.858 -575.783)">
    <rect id="Rectangle_5" data-name="Rectangle 5" width="10.102" height="10.162" transform="translate(1509.781 575.783)" fill="#ffca32"/>
    <rect id="Rectangle_6" data-name="Rectangle 6" width="8.925" height="8.866" transform="translate(1542.118 586.237)" fill="#ffca32"/>
    <rect id="Rectangle_7" data-name="Rectangle 7" width="16.346" height="16.227" transform="translate(1520.383 586.534)" fill="#8c8c8c"/>
    <rect id="Rectangle_8" data-name="Rectangle 8" width="7.923" height="7.833" transform="translate(1501.858 585.944)" fill="#686969"/>
    <g id="Group_91" data-name="Group 91">
      <path id="Path_621" data-name="Path 621" d="M1595.748,580.179l-11.706,2.738-3.637,9.86v.471h-26.094v6.185h-12.4V607.8H1520.3l4.383,19h43.126l-2.441,6.36h-36v6.068H1569.6l19.123-50.537,8.365-2.583Z" fill="url(#linear-gradient)"/>
      <path id="Path_622" data-name="Path 622" d="M1544.32,646.749a5.3,5.3,0,1,1-5.3-5.3,5.3,5.3,0,0,1,5.3,5.3Z" fill="url(#linear-gradient-2)"/>
      <path id="Path_623" data-name="Path 623" d="M1562.875,646.749a5.3,5.3,0,1,1-5.3-5.3,5.3,5.3,0,0,1,5.3,5.3Z" fill="url(#linear-gradient-3)"/>
    </g>
  </g>
</svg>
