<svg xmlns="http://www.w3.org/2000/svg" width="76.994" height="76.993" viewBox="0 0 76.994 76.993">
  <g id="Group_2" data-name="Group 2" transform="translate(-209.561 -54.722)">
    <path id="Path_77" data-name="Path 77" d="M256.08,65.881V77.838l-6.888-6.9-9.157,17.926,6.237-34.146Z" fill="#38bdb0"/>
    <path id="Path_78" data-name="Path 78" d="M240.038,120.555V108.6l6.886,6.9,9.157-17.926-6.236,34.147Z" fill="#f26b68"/>
    <path id="Path_79" data-name="Path 79" d="M275.395,101.255H263.437l6.9-6.9L252.408,85.2l34.147,6.242Z" fill="#fbaf3c"/>
    <path id="Path_80" data-name="Path 80" d="M220.722,85.212h11.957l-6.9,6.88,17.926,9.153-34.147-6.23Z" fill="#525f67"/>
    <path id="Path_81" data-name="Path 81" d="M273.06,79.561l-8.454,8.455.005-9.748-19.149,6.2,28.554-19.737Z" fill="#a1cd3a"/>
    <path id="Path_82" data-name="Path 82" d="M223.057,106.877l8.455-8.455-.006,9.746,19.149-6.2L222.1,121.7Z" fill="#99a3aa"/>
    <path id="Path_83" data-name="Path 83" d="M261.7,118.231l-8.455-8.455H263l-6.2-19.153,19.732,28.559Z" fill="#ed75a4"/>
    <path id="Path_84" data-name="Path 84" d="M234.39,68.227l8.454,8.456-9.741-.012,6.2,19.146L219.566,67.268Z" fill="#6178aa"/>
  </g>
</svg>
