<svg xmlns="http://www.w3.org/2000/svg" width="42.686" height="26.493" viewBox="0 0 42.686 26.493">
  <g id="Group_224" data-name="Group 224" transform="translate(-887.918 -530.043)">
    <path id="Path_1022" data-name="Path 1022" d="M888.009,533.451s-.383-2.82,2.3-2.82a185.4,185.4,0,0,1,29.491,0s10.671-.648,10.793,1.112-.7,15.612,0,21.357c0,0-.261,2.866-2.942,2.773s-18.767.419-27.959.61-11.528,0-11.7-2.873S888.009,539.91,888.009,533.451Z" fill="#aa6a64"/>
    <path id="Path_1023" data-name="Path 1023" d="M891.385,532.263s-1.234.17-1.277,1.276a67.731,67.731,0,0,0,0,8.042,58.037,58.037,0,0,1-.123,8.085s-.047.511.336.511,9.915.085,18.425,0,17.957-.3,18.723-.3.723-.383.723-.638.128-11.361,0-13.148.157-3.319.057-3.532-14.44,0-16.269,0S892.789,532.391,891.385,532.263Z" fill="#ebefeb"/>
    <path id="Path_1024" data-name="Path 1024" d="M898.375,538.944s-1.139.51-1.224,1.106-.723,2.085.255,3.106,1.234,1.149,4,1.106,8.383-.071,11.787.007,5.532.038,6.723-.346,1.746-2.81,1.086-4.044-1.873-1.489-3.437-1.319-11.35.468-13.138.383S898.8,538.716,898.375,538.944Z" fill="#5d5d5d"/>
    <path id="Path_1025" data-name="Path 1025" d="M919.916,543.923c1.192-.384,1.746-2.81,1.086-4.044s-1.873-1.489-3.437-1.319c-.5.055-1.849.122-3.506.186l-.2.175a2.45,2.45,0,0,0-.989,1.851,3.644,3.644,0,0,0,1.227,3.515,21.137,21.137,0,0,0,5.815-.364Z" fill="#4d4d4d"/>
    <path id="Path_1026" data-name="Path 1026" d="M906.172,538.954c-.792.008-1.409.005-1.745-.011-1.787-.085-5.629-.228-6.052,0,0,0-1.139.51-1.224,1.106s-.723,2.085.255,3.106,1.234,1.149,4,1.106c1.314-.02,3.27-.037,5.328-.041a6.176,6.176,0,0,0,.811-2.766C907.544,540.382,906.172,538.954,906.172,538.954Z" fill="#4d4d4d"/>
    <path id="Path_1027" data-name="Path 1027" d="M923.724,551.752s-6.766-.128-11.106,0-17.361,0-17.361,0c-1.147,1.529-2.927,4.68-2.933,4.69,1.742.128,4.128.108,7.367.041,8.2-.171,21.89-.6,26.65-.62a28.144,28.144,0,0,1-1.787-3.218C924.235,551.752,923.724,551.752,923.724,551.752Z" fill="#5d5d5d"/>
    <path id="Path_1028" data-name="Path 1028" d="M897.958,554.261a.415.415,0,0,0,0,.778C898.6,555.451,898.6,554.169,897.958,554.261Z" fill="#fff"/>
    <path id="Path_1029" data-name="Path 1029" d="M902.279,553.807s-.87.6,0,.952S903.057,553.741,902.279,553.807Z" fill="#fff"/>
    <path id="Path_1030" data-name="Path 1030" d="M917.288,553.285s-.916.494,0,.957S918.2,553.193,917.288,553.285Z" fill="#fff"/>
    <path id="Path_1031" data-name="Path 1031" d="M889.714,554.021s-.916.494,0,.957S890.63,553.929,889.714,554.021Z" fill="#915350"/>
    <path id="Path_1032" data-name="Path 1032" d="M927.971,554.22s.6.848.95-.117S927.767,553.322,927.971,554.22Z" fill="#915350"/>
    <path id="Path_1033" data-name="Path 1033" d="M920.811,554.313s-.733.467.183.714S921.727,554.267,920.811,554.313Z" fill="#fff"/>
    <path id="Path_1034" data-name="Path 1034" d="M899.7,539.284s-2.1.128-2.094,2.085,1.2,2.3,2.435,2.255a2.351,2.351,0,0,0,2.287-2.169C902.3,540.39,901.619,539.241,899.7,539.284Z" fill="#fff"/>
    <path id="Path_1035" data-name="Path 1035" d="M917.728,539.156s-1.992-.1-2.44,1.592a2.342,2.342,0,0,0,2.44,2.786,2.389,2.389,0,0,0,2.188-2.189A2.323,2.323,0,0,0,917.728,539.156Z" fill="#fff"/>
  </g>
</svg>
