<svg xmlns="http://www.w3.org/2000/svg" width="116.211" height="46.641" viewBox="0 0 116.211 46.641">
  <g id="Group_2391" data-name="Group 2391" transform="translate(-1223.527 -890.912)">
    <path id="Path_11122" data-name="Path 11122" d="M1334.565,911.243a3.015,3.015,0,1,0,2.62,2.99,2.826,2.826,0,0,0-2.62-2.99Z" fill="#1f1f1f"/>
    <path id="Path_11123" data-name="Path 11123" d="M1334.565,908.7a4.907,4.907,0,0,0-3.015,1.05v-.28a22.745,22.745,0,0,0-3.679-12.8c-2.551-3.711-6.027-5.755-9.788-5.755s-7.239,2.044-9.79,5.755a22.732,22.732,0,0,0-3.681,12.8v1.177c-4.61-.511-8.173-1.962-10.516-4.828v6.143h-4.166c-.114-2.873-.428-5.227-.946-5.227a2.235,2.235,0,0,0-2.4,2.02v3.206H1225.8a2.275,2.275,0,1,0,0,4.55h3.727v1.346h1.579v2h-1.579V927.5h1.579V923h1.858v4.5h2V923h1.859v4.5h1.817v-7.647h-1.675v-2h1.675v-1.346h47.943V920.2a2.236,2.236,0,0,0,2.4,2.02c.545,0,.867-2.625.964-5.713h4.147v6.145c2.344-2.869,5.906-4.319,10.516-4.83V919a22.735,22.735,0,0,0,3.681,12.8c2.551,3.711,6.028,5.755,9.79,5.755s7.237-2.044,9.788-5.755a22.747,22.747,0,0,0,3.678-12.8v-.28a4.9,4.9,0,0,0,3.015,1.05,5.55,5.55,0,0,0,0-11.074ZM1327,919c0,7.591-4.083,14-8.917,14s-8.918-6.413-8.918-14v-9.534c0-7.591,4.084-14,8.918-14s8.917,6.412,8.917,14Zm7.565-1.778a3.015,3.015,0,1,1,2.62-2.988,2.824,2.824,0,0,1-2.62,2.988Z" fill="#1f1f1f"/>
  </g>
</svg>
