<svg xmlns="http://www.w3.org/2000/svg" width="34.002" height="48.618" viewBox="0 0 34.002 48.618">
  <path id="Path_926" data-name="Path 926" d="M67.842,190.133c-4.646-4.468-9.8-5.548-17.22-3.613-10.252,2.67-12.606,12.992-10.453,21.452a40.416,40.416,0,0,0,4.493,9.992c.465.825.933,1.655,1.391,2.5a58.073,58.073,0,0,0,3.887,5.986c.412.58.825,1.16,1.235,1.753.82,1.182,1.828,2.8,2.718,4.234.341.547.667,1.072.964,1.543a.507.507,0,0,0,.7.158l.023-.014a.5.5,0,0,0,.217-.116c2.909-2.6,5.6-6.594,7.56-9.509l.6-.894c.609-.9,1.273-1.828,1.957-2.786,3.488-4.885,7.44-10.422,7.519-16.213C73.519,198.652,71.636,193.783,67.842,190.133ZM50.429,208.842a7.781,7.781,0,0,1-3.417-5.671,9.681,9.681,0,0,1,2.582-7.341,8.868,8.868,0,0,1,6.491-3.175.516.516,0,0,0,.094,0c4.878-.287,8.243,4.552,8.935,9.251.526,3.571-.422,7.746-4.657,8.754a13.4,13.4,0,0,1-10.028-1.821Z" transform="translate(-39.439 -185.601)" fill="#a84749"/>
</svg>
