<svg xmlns="http://www.w3.org/2000/svg" width="67.157" height="31.68" viewBox="0 0 67.157 31.68">
  <g id="Group_425" data-name="Group 425" transform="translate(-307.3 -705.14)">
    <path id="Path_1693" data-name="Path 1693" d="M334.414,724.635c-1.328,3.706-1.065,7.819-2.247,11.575a.608.608,0,0,1-.653.52,12.645,12.645,0,0,1-1.295.085,1.1,1.1,0,0,1-.607-.114,1.031,1.031,0,0,1-.382-.7,9.479,9.479,0,0,1-.138-1.74q-.088-5.076-.176-10.153c-.013-.757-.026-1.516.033-2.271a3.09,3.09,0,0,1,.2-.995,2.688,2.688,0,0,1,1.3-1.236,9.812,9.812,0,0,1,4.891-.712c.613.024,1.434-.016,1.448.8.012.709-.745,1.529-1.075,2.124a19.017,19.017,0,0,0-1.309,2.813Z" fill="#333"/>
    <path id="Path_1694" data-name="Path 1694" d="M348.559,724.326c1.373,3.706,1.1,7.819,2.322,11.575a.793.793,0,0,0,.192.357.843.843,0,0,0,.482.162q.666.076,1.338.085a1.167,1.167,0,0,0,.627-.113,1.023,1.023,0,0,0,.395-.7,9.189,9.189,0,0,0,.142-1.74q.091-5.076.182-10.153c.013-.757.027-1.516-.034-2.271a3,3,0,0,0-.211-.995,2.74,2.74,0,0,0-1.348-1.236,10.442,10.442,0,0,0-5.054-.712c-.634.024-1.482-.016-1.5.8-.013.709.769,1.53,1.111,2.124A18.754,18.754,0,0,1,348.559,724.326Z" fill="#333"/>
    <path id="Path_1695" data-name="Path 1695" d="M320.222,719.1q-1.915.049-3.826-.023c-.829-.031-.356-.193-.407-.947-.053-.782-.1-1.565-.144-2.348-.081-1.4-.133-2.811-.185-4.217a4.288,4.288,0,0,1-1.044.144h-.331c.082,2.141.174,4.282.311,6.421.048.752-.094,2,.858,2.262a17.666,17.666,0,0,0,4.768.105.7.7,0,0,0,0-1.4Z" fill="#e2eced"/>
    <path id="Path_1696" data-name="Path 1696" d="M367.242,712.333q-.009-.265-.018-.531a12.666,12.666,0,0,1-1.282-.08q.017.606.035,1.211.069,2.4.139,4.809l.035,1.2a1.14,1.14,0,0,0-.9-.136q-1.4.018-2.8.046c-.91.019-.91,1.442,0,1.413a20.791,20.791,0,0,0,4.409-.255c.878-.229.583-1.693.563-2.27Q367.333,715.038,367.242,712.333Z" fill="#e2eced"/>
    <g id="Group_421" data-name="Group 421">
      <path id="Path_1697" data-name="Path 1697" d="M322.964,709.727a3.712,3.712,0,0,0-2.01-.917,23.88,23.88,0,0,0-5.432-.294,34.047,34.047,0,0,0-5.385.51c-.678.128-2.172.373-2.562.988-.013.012-.031.021-.043.034a.637.637,0,0,0-.213.544.683.683,0,0,0,.194.645c.509.567,1.672.638,2.578.674a37.774,37.774,0,0,0,7.223.1c1.443-.046,6.1.183,5.987-1.668A.84.84,0,0,0,322.964,709.727Z" fill="#e2eced"/>
      <path id="Path_1698" data-name="Path 1698" d="M315.569,711.2a19.993,19.993,0,0,1-4.993-.2,8.679,8.679,0,0,1-1.04-.282c-.379-.131-.863-.172-.263-.791a2,2,0,0,1,.668-.314,9.351,9.351,0,0,1,2.492-.427c.049,0,.05-.08,0-.077a7.781,7.781,0,0,0-3.011.572c-.39.192-.935.584-.462,1.007a3.133,3.133,0,0,0,1.173.4,10.933,10.933,0,0,0,1.619.277,26.938,26.938,0,0,0,3.817.03C315.693,711.393,315.694,711.2,315.569,711.2Z" fill="#fff"/>
      <path id="Path_1699" data-name="Path 1699" d="M321.62,710c-.2-.609-1-.752-1.533-.88a7.289,7.289,0,0,0-2.809-.194c-.056.008-.032.093.024.085a6.55,6.55,0,0,1,3.662.556c.577.309.315.959-.118,1.325a2.8,2.8,0,0,1-.892.393,6.4,6.4,0,0,1-1.694.3c-.132.008-.135.211,0,.208C319.04,711.777,322.056,711.326,321.62,710Z" fill="#fff"/>
      <path id="Path_1700" data-name="Path 1700" d="M314.376,710.64c-.945-.038-1.895-.013-2.839-.075-.255-.017-.646.076-.606-.292.015-.135.7-.321.8-.355a5.614,5.614,0,0,1,1.6-.3c.061,0,.062-.1,0-.1a4.338,4.338,0,0,0-2.764.837.069.069,0,0,0-.018.068c.125.318.71.269.989.285.942.056,1.9.086,2.839.067a.069.069,0,0,0,0-.138Z" fill="#fff"/>
      <path id="Path_1701" data-name="Path 1701" d="M319.542,710.065c-.155-.482-.825-.648-1.245-.735a8.815,8.815,0,0,0-2.75.022c-.054.006-.056.091,0,.086a8.077,8.077,0,0,1,2.84.076,1.847,1.847,0,0,1,.679.283c.492.4-.2,1-.657,1.165a4.739,4.739,0,0,1-1.543.121.1.1,0,1,0,0,.2C317.488,711.288,319.928,711.269,319.542,710.065Z" fill="#fff"/>
      <path id="Path_1702" data-name="Path 1702" d="M317.586,710.036c-.071-.245-.375-.247-.574-.3a.088.088,0,0,0-.047.169c.163.044.64.043.265.432a1.328,1.328,0,0,1-.611.174,4.785,4.785,0,0,1-1.072.007c-.054,0-.054.08,0,.084a2.833,2.833,0,0,0,1.875-.2.341.341,0,0,0,.164-.363Z" fill="#fff"/>
      <path id="Path_1703" data-name="Path 1703" d="M315.387,709.664a3,3,0,0,0-.885.1.063.063,0,0,0,0,.12l.077.023a.086.086,0,0,0,0,.144.439.439,0,0,0,.105.036.515.515,0,0,0,.475-.016l.091-.019c.11-.024.415-.052.422-.224C315.682,709.676,315.493,709.667,315.387,709.664Z" fill="#fff"/>
    </g>
    <g id="Group_422" data-name="Group 422">
      <path id="Path_1704" data-name="Path 1704" d="M358.5,710c-.109,1.846,4.532,1.617,5.971,1.663a37.69,37.69,0,0,0,7.2-.1,3.942,3.942,0,0,0,2.571-.672.681.681,0,0,0,.193-.644.636.636,0,0,0-.213-.542c-.012-.013-.03-.022-.043-.034-.389-.613-1.879-.859-2.555-.986a33.947,33.947,0,0,0-5.371-.508,23.816,23.816,0,0,0-5.418.293,3.7,3.7,0,0,0-2,.914A.838.838,0,0,0,358.5,710Z" fill="#e2eced"/>
      <path id="Path_1705" data-name="Path 1705" d="M366.21,710.857a19.943,19.943,0,0,0,4.98-.2,8.631,8.631,0,0,0,1.037-.281c.378-.131.861-.171.262-.789a2,2,0,0,0-.666-.313,9.333,9.333,0,0,0-2.486-.426c-.049,0-.05-.08,0-.077a7.762,7.762,0,0,1,3,.57c.389.192.933.582.461,1a3.124,3.124,0,0,1-1.17.4,10.914,10.914,0,0,1-1.614.276,26.85,26.85,0,0,1-3.807.03C366.086,711.045,366.086,710.852,366.21,710.857Z" fill="#fff"/>
      <path id="Path_1706" data-name="Path 1706" d="M360.175,709.657c.2-.608,1-.75,1.529-.878a7.267,7.267,0,0,1,2.8-.194c.056.008.032.093-.023.085a6.533,6.533,0,0,0-3.652.555c-.575.308-.314.957.118,1.322a2.8,2.8,0,0,0,.89.392,6.387,6.387,0,0,0,1.689.3c.132.008.134.211,0,.207C362.748,711.428,359.741,710.978,360.175,709.657Z" fill="#fff"/>
      <path id="Path_1707" data-name="Path 1707" d="M367.4,710.293c.943-.038,1.889-.013,2.831-.075.254-.017.644.075.6-.291-.015-.135-.7-.32-.794-.354a5.6,5.6,0,0,0-1.6-.3c-.061,0-.062-.1,0-.1a4.327,4.327,0,0,1,2.757.835.069.069,0,0,1,.018.068c-.124.317-.708.268-.986.285-.939.056-1.891.086-2.831.067a.069.069,0,1,1,0-.137Z" fill="#fff"/>
      <path id="Path_1708" data-name="Path 1708" d="M362.247,709.72c.154-.48.823-.647,1.241-.733a8.793,8.793,0,0,1,2.743.022c.054.006.056.091,0,.086a8.056,8.056,0,0,0-2.833.076,1.843,1.843,0,0,0-.677.283c-.491.4.2,1,.655,1.162a4.723,4.723,0,0,0,1.539.121.1.1,0,1,1,0,.2C364.3,710.94,361.862,710.921,362.247,709.72Z" fill="#fff"/>
      <path id="Path_1709" data-name="Path 1709" d="M364.2,709.691c.07-.245.374-.247.572-.3a.087.087,0,0,1,.046.168c-.162.044-.639.043-.264.431a1.325,1.325,0,0,0,.61.173,4.774,4.774,0,0,0,1.069.007c.054,0,.054.08,0,.084a2.825,2.825,0,0,1-1.87-.2.34.34,0,0,1-.163-.363Z" fill="#fff"/>
      <path id="Path_1710" data-name="Path 1710" d="M366.1,709.486c.007.171.311.2.421.223l.09.019a.514.514,0,0,0,.474.016.441.441,0,0,0,.1-.036.086.086,0,0,0,0-.144l.077-.023a.062.062,0,0,0,0-.119,2.992,2.992,0,0,0-.883-.1C366.286,709.323,366.1,709.332,366.1,709.486Z" fill="#fff"/>
    </g>
    <path id="Path_1711" data-name="Path 1711" d="M354.336,708.676l-.015-.447a10.636,10.636,0,0,1-1.079-.067l.029,1.02q.059,2.024.117,4.048.015.506.029,1.012a.96.96,0,0,0-.757-.114q-1.179.015-2.357.038a.6.6,0,0,0,0,1.189,17.509,17.509,0,0,0,3.711-.215c.739-.192.49-1.425.474-1.911Z" fill="#e2eced"/>
    <g id="Group_423" data-name="Group 423">
      <path id="Path_1712" data-name="Path 1712" d="M346.978,706.711c-.092,1.554,3.815,1.361,5.026,1.4a31.721,31.721,0,0,0,6.064-.084,3.319,3.319,0,0,0,2.164-.566.573.573,0,0,0,.163-.542.536.536,0,0,0-.179-.457c-.01-.011-.026-.018-.036-.029-.327-.516-1.582-.723-2.151-.83a28.573,28.573,0,0,0-4.521-.428,20.049,20.049,0,0,0-4.561.247,3.118,3.118,0,0,0-1.687.77.705.705,0,0,0-.281.518Z" fill="#e2eced"/>
      <path id="Path_1713" data-name="Path 1713" d="M353.467,707.434a16.788,16.788,0,0,0,4.192-.17,7.289,7.289,0,0,0,.873-.237c.318-.11.724-.144.221-.664a1.681,1.681,0,0,0-.561-.264,7.853,7.853,0,0,0-2.093-.358c-.041,0-.042-.067,0-.065a6.534,6.534,0,0,1,2.528.48c.328.161.785.49.388.845a2.63,2.63,0,0,1-.985.338,9.175,9.175,0,0,1-1.359.233,22.6,22.6,0,0,1-3.205.025C353.363,707.592,353.362,707.429,353.467,707.434Z" fill="#fff"/>
      <path id="Path_1714" data-name="Path 1714" d="M348.387,706.424c.168-.511.843-.631,1.287-.739a6.119,6.119,0,0,1,2.358-.163c.047.007.027.079-.02.072a5.5,5.5,0,0,0-3.074.467c-.484.26-.264.805.1,1.113a2.359,2.359,0,0,0,.749.33,5.383,5.383,0,0,0,1.422.254c.111.007.113.178,0,.174C350.553,707.915,348.021,707.536,348.387,706.424Z" fill="#fff"/>
      <path id="Path_1715" data-name="Path 1715" d="M354.469,706.96c.794-.032,1.591-.011,2.384-.063.214-.014.542.063.509-.245-.012-.114-.588-.269-.668-.3a4.711,4.711,0,0,0-1.346-.254c-.051,0-.052-.082,0-.08a3.641,3.641,0,0,1,2.32.7.058.058,0,0,1,.015.057c-.1.267-.6.226-.83.24-.791.047-1.591.072-2.384.056a.058.058,0,0,1,0-.116Z" fill="#fff"/>
      <path id="Path_1716" data-name="Path 1716" d="M350.131,706.477c.13-.4.693-.544,1.045-.617a7.4,7.4,0,0,1,2.309.018c.046.005.047.077,0,.073a6.786,6.786,0,0,0-2.385.064,1.552,1.552,0,0,0-.57.238c-.413.336.167.844.551.978a3.972,3.972,0,0,0,1.3.1.084.084,0,0,1,0,.169C351.856,707.5,349.807,707.488,350.131,706.477Z" fill="#fff"/>
      <path id="Path_1717" data-name="Path 1717" d="M351.774,706.453c.059-.206.315-.208.482-.253a.074.074,0,0,1,.039.142c-.137.037-.538.036-.223.362a1.116,1.116,0,0,0,.513.146,4.02,4.02,0,0,0,.9.006c.045,0,.045.067,0,.071a2.379,2.379,0,0,1-1.574-.169.286.286,0,0,1-.137-.305Z" fill="#fff"/>
      <path id="Path_1718" data-name="Path 1718" d="M353.377,706.28c.005.144.262.168.354.188l.076.016a.432.432,0,0,0,.4.014.369.369,0,0,0,.088-.03.072.072,0,0,0,0-.121l.065-.019a.052.052,0,0,0,0-.1,2.52,2.52,0,0,0-.743-.086C353.531,706.143,353.373,706.151,353.377,706.28Z" fill="#fff"/>
    </g>
    <path id="Path_1719" data-name="Path 1719" d="M330.2,708.676l.015-.447a10.657,10.657,0,0,0,1.079-.067q-.015.51-.029,1.02-.059,2.024-.117,4.048l-.029,1.012a.959.959,0,0,1,.757-.115q1.178.015,2.357.039a.595.595,0,0,1,0,1.189,17.5,17.5,0,0,1-3.711-.215c-.739-.193-.49-1.425-.474-1.911Z" fill="#e2eced"/>
    <g id="Group_424" data-name="Group 424">
      <path id="Path_1720" data-name="Path 1720" d="M337.273,706.193a3.118,3.118,0,0,0-1.688-.77,20.053,20.053,0,0,0-4.561-.247,28.567,28.567,0,0,0-4.521.428c-.569.107-1.824.313-2.151.83-.011.01-.026.018-.036.029a.536.536,0,0,0-.179.457.573.573,0,0,0,.163.542,3.319,3.319,0,0,0,2.164.566,31.731,31.731,0,0,0,6.064.084c1.211-.039,5.118.154,5.026-1.4a.706.706,0,0,0-.281-.518Z" fill="#e2eced"/>
      <path id="Path_1721" data-name="Path 1721" d="M331.064,707.434a16.787,16.787,0,0,1-4.192-.17,7.315,7.315,0,0,1-.873-.237c-.318-.11-.724-.144-.221-.664a1.681,1.681,0,0,1,.561-.264,7.851,7.851,0,0,1,2.093-.358c.041,0,.042-.067,0-.065a6.535,6.535,0,0,0-2.528.48c-.328.161-.785.49-.388.845a2.634,2.634,0,0,0,.985.338,9.16,9.16,0,0,0,1.359.233,22.566,22.566,0,0,0,3.2.025C331.169,707.592,331.169,707.429,331.064,707.434Z" fill="#fff"/>
      <path id="Path_1722" data-name="Path 1722" d="M336.145,706.424c-.168-.511-.843-.631-1.287-.739a6.119,6.119,0,0,0-2.358-.163c-.047.007-.027.078.02.072a5.5,5.5,0,0,1,3.074.467c.484.26.264.805-.1,1.113a2.358,2.358,0,0,1-.749.33,5.378,5.378,0,0,1-1.422.254c-.111.007-.113.177,0,.174C333.978,707.915,336.51,707.536,336.145,706.424Z" fill="#fff"/>
      <path id="Path_1723" data-name="Path 1723" d="M330.063,706.96c-.794-.032-1.591-.011-2.384-.063-.214-.014-.542.063-.509-.245.012-.114.588-.269.668-.3a4.713,4.713,0,0,1,1.346-.254c.051,0,.052-.082,0-.08a3.641,3.641,0,0,0-2.321.7.058.058,0,0,0-.015.057c.1.267.6.226.83.24.791.047,1.592.072,2.384.056a.058.058,0,1,0,0-.116Z" fill="#fff"/>
      <path id="Path_1724" data-name="Path 1724" d="M334.4,706.477c-.13-.4-.693-.544-1.045-.617a7.4,7.4,0,0,0-2.309.018c-.046.005-.047.077,0,.073a6.784,6.784,0,0,1,2.385.064,1.554,1.554,0,0,1,.57.238c.414.336-.167.844-.551.978a3.972,3.972,0,0,1-1.3.1.084.084,0,0,0,0,.169C332.676,707.5,334.724,707.488,334.4,706.477Z" fill="#fff"/>
      <path id="Path_1725" data-name="Path 1725" d="M332.758,706.453c-.059-.206-.315-.208-.482-.253a.073.073,0,0,0-.039.142c.137.037.538.036.222.363a1.116,1.116,0,0,1-.513.146,4.02,4.02,0,0,1-.9.006c-.045,0-.045.067,0,.071a2.379,2.379,0,0,0,1.574-.169.286.286,0,0,0,.137-.305Z" fill="#fff"/>
      <path id="Path_1726" data-name="Path 1726" d="M330.912,706.14a2.519,2.519,0,0,0-.743.086.052.052,0,0,0,0,.1l.065.019a.072.072,0,0,0,0,.121.37.37,0,0,0,.088.03.432.432,0,0,0,.4-.014l.076-.016c.093-.02.349-.044.354-.188C331.159,706.151,331,706.143,330.912,706.14Z" fill="#fff"/>
    </g>
    <path id="Path_1727" data-name="Path 1727" d="M369.25,715.4a4.837,4.837,0,0,0-1.448-.438l-5.14-.975c-.1-.084-.2-.166-.283-.244a3.911,3.911,0,0,0-1.161-.924,52.214,52.214,0,0,0-4.78-2.51,10.531,10.531,0,0,0-1.863-.7,4.919,4.919,0,0,0-2.691-.751c-1.545.007-3.095.023-4.566-.081l-13.993.078a7.844,7.844,0,0,0-4.065,1.116,33.641,33.641,0,0,0-3.452,1.628,26.751,26.751,0,0,1-2.562,1.1,13.312,13.312,0,0,0-1.529.486,5.4,5.4,0,0,0-.864.336c-1.7.048-3.7,1.134-5.126,1.766a8.876,8.876,0,0,0-2.416,1.435,3.581,3.581,0,0,0-1.261,2.442,1.77,1.77,0,0,0,.445,1.321,2.588,2.588,0,0,0,1.783.528q3.483.132,6.969.108c.052.021.1.053.152.07a3.88,3.88,0,0,0,1.2.118q1.44-.011,2.879-.053a2.689,2.689,0,0,0,1.984-.65,2.362,2.362,0,0,0,1.928,1.78,8.04,8.04,0,0,0,1.542.14q10.554.278,21.126.088a6.255,6.255,0,0,0,2.029-.257,1.863,1.863,0,0,0,1.2-1.666c.016-.1.026-.2.041-.3a1.551,1.551,0,0,0,.091.248,2.381,2.381,0,0,0,2.1.833q1.439.046,2.879.058a5.614,5.614,0,0,0,.751-.042c1.4.022,2.871-.139,4.255-.025a8.626,8.626,0,0,0,2.636-.068,3.506,3.506,0,0,0,2.224-1.5,3.418,3.418,0,0,0-1.014-4.5Z" fill="#333"/>
    <path id="Path_1728" data-name="Path 1728" d="M340.509,725.411a1.017,1.017,0,0,0,.8.22l.578-.008a.534.534,0,0,0,.417-.129.528.528,0,0,0,.091-.281l.1-.781a.132.132,0,0,0-.016-.1.131.131,0,0,0-.08-.033c-.374-.061-1.565-.37-1.889-.157C340.252,724.3,340.288,725.163,340.509,725.411Z" fill="#e2eced"/>
    <path id="Path_1729" data-name="Path 1729" d="M336.6,724.038a.481.481,0,0,0,.078.279.46.46,0,0,0,.25.129,10.422,10.422,0,0,0,2.563.252q3.116.03,6.227-.209a.845.845,0,0,0,.508-.153.788.788,0,0,0,.207-.438,5.379,5.379,0,0,0,.1-1.631.238.238,0,0,0-.07-.178.242.242,0,0,0-.144-.032l-7.24-.053a5.056,5.056,0,0,0-2.092.278C336.249,722.612,336.551,723.339,336.6,724.038Z" fill="#97a8b2"/>
    <path id="Path_1730" data-name="Path 1730" d="M333.862,713.139c-.537.453-.136,1.672-.136,2.194a3.728,3.728,0,0,0-.049,1.032c.141.485.53.453,1.193.539a27.87,27.87,0,0,0,3.758.146c1.654-.01,3.31-.029,4.964-.029.722,0,1.424.039,2.151,0,.787-.038,1.616-.23,2.394-.23,1.12-.167,1.106-.673,1.175-1.439a8.658,8.658,0,0,0,.021-2.372q-5.142.041-10.285.048h-2.463a10.073,10.073,0,0,0-2.549,0,.661.661,0,0,0-.175.105Z" fill="#97a8b2"/>
    <path id="Path_1731" data-name="Path 1731" d="M337.783,714.239a1.687,1.687,0,0,0-.064.689,32.749,32.749,0,0,1,6.253.068q0-.353,0-.706a.1.1,0,0,0-.032-.089.178.178,0,0,0-.092-.021A49.7,49.7,0,0,0,337.783,714.239Z" fill="#fff"/>
    <path id="Path_1732" data-name="Path 1732" d="M337.266,727.445a2.374,2.374,0,0,1,.128-1.035c.347-.777,1.361-.943,2.211-.966a30.869,30.869,0,0,1,4.6.216,1.7,1.7,0,0,1,.636.166,1.61,1.61,0,0,1,.6,1.457,11.06,11.06,0,0,1,0,3.072,1.335,1.335,0,0,1-.34.6,1.451,1.451,0,0,1-.826.265,52.778,52.778,0,0,1-6.064,0c-.747-.015-.84-.409-.869-1.092C337.3,729.233,337.286,728.338,337.266,727.445Z" fill="#97a8b2"/>
    <path id="Path_1733" data-name="Path 1733" d="M337.443,727.484a2.124,2.124,0,0,1,.121-.953c.329-.715,1.289-.867,2.1-.889a30.114,30.114,0,0,1,4.355.2,1.651,1.651,0,0,1,.6.152,1.462,1.462,0,0,1,.566,1.341,9.885,9.885,0,0,1,0,2.827,1.219,1.219,0,0,1-.322.555,1.4,1.4,0,0,1-.783.244,51.5,51.5,0,0,1-5.746,0c-.708-.014-.8-.376-.823-1.005C337.473,729.13,337.461,728.306,337.443,727.484Z" fill="#e2eced"/>
    <path id="Path_1734" data-name="Path 1734" d="M344.691,727.727a1.847,1.847,0,0,0-.267-.479,1.413,1.413,0,0,0-.256-.473.623.623,0,0,0-.225-.329,2.2,2.2,0,0,0-3,.172,2.312,2.312,0,0,0-.122,2.919,2.278,2.278,0,0,0,2.893.715,2.121,2.121,0,0,0,.978-2.524Z" fill="#7d7d7d"/>
    <path id="Path_1735" data-name="Path 1735" d="M344.246,727.512a1.85,1.85,0,0,0-3.3-.543l-.007.017a1.953,1.953,0,0,0,.31,2.605c.023.019.048.026.071.042a1.815,1.815,0,0,0,2.921-2.122Z" fill="#bdbdbd"/>
    <path id="Path_1736" data-name="Path 1736" d="M342.906,728.1c-.031-.27-.272-.536-.581-.333l-.051.034a.394.394,0,0,0-.078.607l.088.109C342.562,728.859,343.033,728.459,342.906,728.1Z" fill="#7d7d7d"/>
    <path id="Path_1737" data-name="Path 1737" d="M338.227,726.477h0q0,.208,0,.415a1.813,1.813,0,0,0,.425-.014l.02-.4Z" fill="#7d7d7d"/>
    <path id="Path_1738" data-name="Path 1738" d="M338.961,726.494v-.017c0,.133,0,.266,0,.4a2.514,2.514,0,0,0,.431-.009,1.4,1.4,0,0,0,.018-.371Z" fill="#7d7d7d"/>
    <path id="Path_1739" data-name="Path 1739" d="M360.7,717.458a.26.26,0,0,1,.359-.2l1.282.257q-.64,1.868-1.429,3.682a.711.711,0,0,1-.343.425.664.664,0,0,1-.219.031c-.257.006-1.036.077-1.152-.194-.107-.25.316-1.006.407-1.253Q360.115,718.819,360.7,717.458Z" fill="#97a8b2"/>
    <path id="Path_1740" data-name="Path 1740" d="M364.1,717.723c.058-.116.134-.245.261-.268a.425.425,0,0,1,.19.025l.848.245a.2.2,0,0,1,.119.069.188.188,0,0,1,.009.135,4.921,4.921,0,0,1-.136.506q-.5,1.6-1.087,3.173a.244.244,0,0,1-.291.2c-.294,0-1.14.131-1.34-.124s.164-.935.253-1.187a24.757,24.757,0,0,1,1.173-2.767Z" fill="#97a8b2"/>
    <path id="Path_1741" data-name="Path 1741" d="M318.258,717.5a.154.154,0,0,1,.134-.219l1.1-.315a.516.516,0,0,1,.322-.021c.158.06.214.251.249.416q.389,1.854.6,3.74a.074.074,0,0,1-.075.1c-.305.056-.893.237-1.178.055-.262-.168-.347-.728-.437-1A21.028,21.028,0,0,1,318.258,717.5Z" fill="#97a8b2"/>
    <path id="Path_1742" data-name="Path 1742" d="M322.464,719l-.4-2.266a4.363,4.363,0,0,1,1.373-.293.205.205,0,0,1,.129.023.212.212,0,0,1,.068.141,39.5,39.5,0,0,1,.646,4.9c-.336.02-.682.067-1.019.062-.394-.005-.335-.147-.418-.537C322.7,720.351,322.584,719.673,322.464,719Z" fill="#97a8b2"/>
  </g>
</svg>
