<svg xmlns="http://www.w3.org/2000/svg" width="112.324" height="104.709" viewBox="0 0 112.324 104.709">
  <g id="Group_2216" data-name="Group 2216" transform="translate(-1875.963 -1514.838)">
    <path id="Path_10198" data-name="Path 10198" d="M1932.125,1514.838c-6.679,8.736-15.791,18.1-18.949,27.943a17.883,17.883,0,0,0-.822,4.091c-1.444,18.022,11.629,22.419,13.736,41.691v.012c1.309.869,4.385.957,6.035.963s4.727-.094,6.036-.963v-.012c2.108-19.272,15.181-23.669,13.737-41.691a17.876,17.876,0,0,0-.822-4.092C1947.917,1532.937,1938.806,1523.575,1932.125,1514.838Zm0,1.1a.617.617,0,0,1,0-.446.6.6,0,0,1,0,.446Zm0,71.765c-2.7.036-3.627-.521-4.24-7-1.084-11.445-7.591-17.563-7.591-28.478,0-6.92,7.32-14.106,11.831-19.167,4.511,5.06,11.831,12.247,11.831,19.167,0,10.916-6.507,17.034-7.591,28.478-.614,6.475-1.539,7.032-4.241,7Z" fill="#1f1f1f"/>
    <path id="Path_10199" data-name="Path 10199" d="M1912.354,1546.873a17.876,17.876,0,0,1,.822-4.092c-5.765-6.322-19.126-18.867-37.212-12.064,25.219,10.279,16.5,46.34,47.045,56.919.986.34,2.008.652,3.076.939,0-.006.006-.006.006-.012C1923.983,1569.292,1910.909,1564.895,1912.354,1546.873Zm-19.441-4.863a29.088,29.088,0,0,1,4.767,1.73,22.129,22.129,0,0,1,11.817,13.454c3.717,11.835,11.747,19.41,14.322,29.006-23.044-9.76-23.044-36.328-30.906-44.191Z" fill="#1f1f1f"/>
    <path id="Path_10200" data-name="Path 10200" d="M1951.9,1546.873a17.876,17.876,0,0,0-.822-4.092c5.765-6.322,19.125-18.867,37.212-12.064-25.219,10.279-16.5,46.34-47.045,56.919-.986.34-2.008.652-3.076.939,0-.006-.006-.006-.006-.012C1940.269,1569.292,1953.342,1564.895,1951.9,1546.873Zm19.441-4.863a29.1,29.1,0,0,0-4.767,1.73,22.129,22.129,0,0,0-11.818,13.454c-3.717,11.835-11.747,19.41-14.322,29.006,23.044-9.76,23.044-36.328,30.906-44.191Z" fill="#1f1f1f"/>
    <path id="Path_10201" data-name="Path 10201" d="M1932.125,1589.538c-1.65-.006-4.726-.094-6.035-.963v-.012l-.006.012c-3.616,6.046-12.68,9.434-11.565,16.149.293,1.743,1.62,3.188,3.428,4.538,4.62,3.446,9.937,6.76,14.177,10.285,4.241-3.524,9.558-6.839,14.178-10.285,1.808-1.35,3.135-2.794,3.428-4.538,1.115-6.716-7.948-10.1-11.565-16.149l-.006-.012v.012C1936.852,1589.444,1933.776,1589.532,1932.125,1589.538Zm0,22.062c-1.333-1.23-5.233-3.612-8.467-6.435a5.147,5.147,0,0,1-1.845-3.218,4.535,4.535,0,0,1,1.142-3.431c1.936-2.391,3.852-4.57,4.982-5.966a3.134,3.134,0,0,1,2.686-1.422h3a3.133,3.133,0,0,1,2.686,1.422c1.13,1.4,3.047,3.575,4.982,5.966a4.534,4.534,0,0,1,1.142,3.431,5.147,5.147,0,0,1-1.845,3.218c-3.234,2.823-7.134,5.2-8.467,6.435Z" fill="#1f1f1f"/>
    <path id="Path_10202" data-name="Path 10202" d="M1923.008,1587.636c-16.766,1.016-23.775,22-37.9,18.292,7.9,7.226,24.256,11.7,32.839,3.334-1.808-1.35-3.135-2.794-3.428-4.538-1.115-6.716,7.948-10.1,11.565-16.149C1925.016,1588.288,1923.994,1587.977,1923.008,1587.636Zm-6.817,7.19c-2.22,2.056-3.075,4.244-4.059,7.442a7.265,7.265,0,0,1-6.4,5.535,12.523,12.523,0,0,1-8.795-1.661c8.98-3.936,13.223-14.577,26.139-17.283-.615,1.292-3.692,3.006-6.889,5.966Z" fill="#1f1f1f"/>
    <path id="Path_10203" data-name="Path 10203" d="M1941.243,1587.636c16.766,1.016,23.775,22,37.9,18.292-7.9,7.226-24.256,11.7-32.839,3.334,1.808-1.35,3.135-2.794,3.428-4.538,1.115-6.716-7.948-10.1-11.565-16.149C1939.235,1588.288,1940.257,1587.977,1941.243,1587.636Zm6.817,7.19c2.22,2.056,3.075,4.244,4.059,7.442a7.265,7.265,0,0,0,6.4,5.535,12.524,12.524,0,0,0,8.8-1.661c-8.98-3.936-13.224-14.577-26.139-17.283.615,1.292,3.692,3.006,6.888,5.966Z" fill="#1f1f1f"/>
    <path id="Path_10204" data-name="Path 10204" d="M1912.421,1527.253c1.041,4.422.88,8.243-.359,8.534s-3.087-3.057-4.127-7.479-.88-8.243.359-8.534S1911.38,1522.831,1912.421,1527.253Z" fill="#1f1f1f"/>
    <ellipse id="Ellipse_122" data-name="Ellipse 122" cx="8.225" cy="2.305" rx="8.225" ry="2.305" transform="matrix(0.229, -0.973, 0.973, 0.229, 1949.953, 1535.256)" fill="#1f1f1f"/>
  </g>
</svg>
