<svg xmlns="http://www.w3.org/2000/svg" width="181.024" height="119.282" viewBox="0 0 181.024 119.282">
  <g id="Group_2171" data-name="Group 2171" transform="translate(-421.688 -1374.128)">
    <path id="Path_9686" data-name="Path 9686" d="M512.2,1493.41c-22.579-5.224-48.7-23.114-58.9-30.574-19.789-14.478-31.615-27.132-31.615-31v-25.88a17.18,17.18,0,0,1,10.922-16.075c18.451-7.283,57.237-15.75,79.59-15.75s61.139,8.466,79.59,15.75a17.18,17.18,0,0,1,10.922,16.075v25.88c0,3.849-11.589,16.4-30.983,30.745C550.391,1478.361,528.7,1489.592,512.2,1493.41Z" fill="#1f1f1f"/>
    <path id="Path_9687" data-name="Path 9687" d="M512.2,1493.41c-22.579-5.224-48.7-23.114-58.9-30.574-19.789-14.478-31.615-27.132-31.615-31v-25.88a17.18,17.18,0,0,1,10.922-16.075c18.451-7.283,57.237-15.75,79.59-15.75s61.139,8.466,79.59,15.75a17.18,17.18,0,0,1,10.922,16.075v25.88c0,3.849-11.589,16.4-30.983,30.745C550.391,1478.361,528.7,1489.592,512.2,1493.41Z" fill="#1f1f1f"/>
    <path id="Path_9688" data-name="Path 9688" d="M512.2,1486.205l-.252-.066c-20.951-5.464-45.1-22.067-54.512-28.953-17.037-12.465-26.442-22.381-28.607-26l-.142-.236v-24.992a10.218,10.218,0,0,1,6.492-9.563c17.511-6.913,55.772-15.262,77.02-15.262s59.509,8.349,77.02,15.262a10.218,10.218,0,0,1,6.492,9.563v25.008l-.139.235c-2.116,3.591-11.32,13.413-28.006,25.754-19.687,14.562-39.776,25.2-55.115,29.189Zm-81.513-55.822c1.763,2.725,9.693,11.848,27.929,25.19,9.28,6.789,33.024,23.12,53.584,28.564,15.069-3.978,34.795-14.461,54.176-28.795,17.854-13.205,25.611-22.238,27.334-24.937v-24.453a8.23,8.23,0,0,0-5.226-7.7c-17.351-6.849-55.248-15.121-76.286-15.121s-58.935,8.272-76.286,15.121a8.231,8.231,0,0,0-5.226,7.7Z" fill="#fff"/>
    <path id="Path_9689" data-name="Path 9689" d="M512.2,1490.843l-.358-.088c-21.947-5.394-47.217-22.732-57.064-29.937-19.222-14.064-29.419-25.277-30.52-28.747l-.07-.222v-25.9a14.694,14.694,0,0,1,9.339-13.75c18.247-7.2,56.588-15.575,78.672-15.575s60.426,8.373,78.673,15.575a14.694,14.694,0,0,1,9.339,13.75v25.9l-.067.218c-1.07,3.442-11.055,14.561-29.9,28.5-20.613,15.246-41.639,26.248-57.686,30.187Zm-85.012-59.5c1.02,2.313,9.529,12.541,29.362,27.051,9.648,7.061,34.305,23.99,55.65,29.355,15.63-3.922,36.106-14.692,56.258-29.6,19.44-14.377,27.763-24.511,28.753-26.8v-25.4a11.71,11.71,0,0,0-7.441-10.959c-18-7.106-55.808-15.366-77.571-15.366s-59.569,8.26-77.571,15.366a11.71,11.71,0,0,0-7.441,10.959Z" fill="#fff"/>
  </g>
</svg>
