<svg xmlns="http://www.w3.org/2000/svg" width="28.358" height="34.79" viewBox="0 0 28.358 34.79">
  <g id="Group_530" data-name="Group 530" transform="translate(-571.471 -703.986)">
    <path id="Path_1833" data-name="Path 1833" d="M594.846,725.595v-4.24l-14.4-14.569H573.6a2.016,2.016,0,0,0-2.128,1.882v16.926a2.014,2.014,0,0,0,2.128,1.878h19.122A2.015,2.015,0,0,0,594.846,725.595Z" fill="#93c01f"/>
    <path id="Path_1834" data-name="Path 1834" d="M575.271,705.866l0,4.234,14.368,14.593,6.855.011a2.017,2.017,0,0,0,2.131-1.874l.029-16.928a2.018,2.018,0,0,0-2.126-1.882l-19.126-.03a2.009,2.009,0,0,0-2.128,1.876Z" fill="#3c3c3b"/>
    <g id="Group_529" data-name="Group 529">
      <path id="Path_1840" data-name="Path 1840" d="M576.484,736.881v1.865h-.244v-1.865Z" fill="#868686"/>
      <path id="Path_1841" data-name="Path 1841" d="M582.19,736.9a2.594,2.594,0,0,1,.461-.038.76.76,0,0,1,.523.155.511.511,0,0,1,.162.391.558.558,0,0,1-.142.4.778.778,0,0,1-.571.2.857.857,0,0,1-.195-.017v.748h-.24Zm.24.9a.839.839,0,0,0,.2.017c.293,0,.47-.144.47-.395s-.178-.368-.444-.368a.879.879,0,0,0-.225.021Z" fill="#868686"/>
      <path id="Path_1842" data-name="Path 1842" d="M587.154,738.453a.832.832,0,0,0,.431.121c.246,0,.391-.13.391-.319,0-.17-.1-.274-.354-.365-.3-.113-.493-.274-.493-.535a.536.536,0,0,1,.6-.5.831.831,0,0,1,.41.09l-.066.2a.672.672,0,0,0-.353-.089c-.251,0-.35.153-.35.28,0,.174.113.261.372.361.316.121.472.274.472.548s-.21.538-.652.538a.931.931,0,0,1-.474-.123Z" fill="#868686"/>
      <path id="Path_1843" data-name="Path 1843" d="M592.9,736.881v1.105c0,.416.187.593.435.593.274,0,.455-.181.455-.593v-1.105h.244v1.09c0,.574-.3.8-.709.8-.38,0-.669-.216-.669-.8v-1.1Z" fill="#868686"/>
      <path id="Path_1844" data-name="Path 1844" d="M599.547,737.926c-.015-.261-.03-.576-.03-.8h-.007c-.064.217-.138.452-.234.707l-.331.907h-.181l-.3-.888a7.535,7.535,0,0,1-.213-.726h0c-.008.234-.023.542-.038.826l-.049.8h-.231l.13-1.865h.308l.318.9c.077.229.138.435.187.629h.006c.051-.187.115-.393.2-.629l.333-.9h.306l.117,1.865h-.238Z" fill="#868686"/>
    </g>
  </g>
</svg>
