<svg xmlns="http://www.w3.org/2000/svg" xmlns:xlink="http://www.w3.org/1999/xlink" width="157.125" height="97.33" viewBox="0 0 157.125 97.33">
  <defs>
    <radialGradient id="radial-gradient" cx="0.756" cy="0.779" r="1.124" gradientTransform="translate(0.157) scale(0.687 1)" gradientUnits="objectBoundingBox">
      <stop offset="0" stop-color="#6b7ace"/>
      <stop offset="1" stop-color="#b2b9f9"/>
    </radialGradient>
  </defs>
  <g id="Group_2423" data-name="Group 2423" transform="translate(-270.169 -329.709)">
    <path id="Path_11155" data-name="Path 11155" d="M283.119,396.463l-.947.477Z" fill="#fff"/>
    <path id="Path_11156" data-name="Path 11156" d="M283.119,396.463l-.947.477Z"/>
    <path id="Path_11157" data-name="Path 11157" d="M272.354,373.558l-2.186-.108Z" fill="#fff"/>
    <path id="Path_11158" data-name="Path 11158" d="M272.354,373.558l-2.186-.108Z"/>
    <path id="Path_11159" data-name="Path 11159" d="M400.266,384.074c2.287-7.176,27.028-10.625,27.028-10.625s-23.232.828-25.084-7.069,15.4-13.935,15.4-13.935-21.274,7.526-25.5,2.519,4.443-16.172,4.443-16.172-15,11.6-20.753,8.763-4.156-15.891-4.156-15.891-8.747,12.7-16.869,12.224-15.4-14.18-15.4-14.18-3.585,13.174-10.513,15.891-27.964-6.807-27.964-6.807,8.744,11.232,4.443,16.172-24.886-3.252-24.886-3.252,16.1,7.894,13.691,15.647c-1.939,6.232-21.8,6.2-21.8,6.2s21.833,1.961,23.508,8.225c1.752,6.553-12.743,14.68-12.743,14.68s18.336-8.641,22.228-4.527c4.5,4.758-4.443,16.172-4.443,16.172s18.537-9.995,20.63-8.477-.489,6.6-.489,6.6a38.874,38.874,0,0,1,7.214-3.024,54.271,54.271,0,0,1-8.791,23.833s14.393-8.26,23.507-19.759a115.663,115.663,0,0,1,9.853,9.707s1.5-11.837,7.264-14.185,26.962,9.051,26.962,9.051-8.678-9.847-4.944-14.541,28.714,2.9,28.714,2.9S397.979,391.251,400.266,384.074Z" fill="#fff"/>
    <path id="Path_11160" data-name="Path 11160" d="M326.384,419.461A58.435,58.435,0,0,0,330.7,403.5l.446-3.7-3.577,1.052c-.97.285-1.9.612-2.769.946a4.7,4.7,0,0,0-1.821-4.155,3.528,3.528,0,0,0-2.118-.625c-1.3,0-4.006.473-12.517,4.559q-.464.223-.919.444c1.75-3.977,2.676-8.637-.29-11.773a7.13,7.13,0,0,0-5.4-1.878,25.473,25.473,0,0,0-5.8.834c2.2-2.853,2.973-5.549,2.3-8.055-.8-2.981-3.956-5.27-9.837-7.077,4.6-1.328,7.264-3.3,8.1-5.983.991-3.187-.014-6.5-2.989-9.874a34.628,34.628,0,0,0,6.688.79c3.291,0,5.583-.794,7-2.427,3.01-3.458,1.7-8.555-.263-12.658,5.614,2.119,13.385,4.625,18.745,4.625a11.109,11.109,0,0,0,4.082-.657c3.466-1.359,6.55-4.784,9.167-10.179.4-.819.753-1.621,1.066-2.375.625.9,1.341,1.864,2.133,2.838,4.216,5.182,8.424,7.931,12.508,8.17.2.012.4.017.593.017,3.982,0,8.332-2.3,12.93-6.825q.485-.478.938-.952c.368,4.3,1.694,9.243,5.623,11.178a7.322,7.322,0,0,0,3.262.7h0c2.911,0,6.782-1.365,11.524-4.06-1.25,3.516-1.633,7.347.73,10.149,1.471,1.744,3.967,2.592,7.631,2.591a33.959,33.959,0,0,0,4.528-.346c-2.831,3.186-3.07,6.054-2.578,8.148.523,2.23,2.113,4.07,4.727,5.468a24.956,24.956,0,0,0,6.386,2.189c-7.644,2.422-11.909,5.29-13.006,8.73-1.137,3.568.179,7.6,3.913,12a70.545,70.545,0,0,0-14.145-2.006c-3.788,0-6.174.781-7.508,2.458-2.255,2.835-1.567,6.587-.075,9.914q-.838-.384-1.722-.775c-7.348-3.248-12.836-4.894-16.311-4.894a7.636,7.636,0,0,0-2.915.5c-3.082,1.255-5.5,4.439-7.195,9.464-.217.643-.407,1.275-.573,1.878-1.863-1.916-4.323-4.329-6.833-6.461l-1.936-1.644-1.578,1.991a79.157,79.157,0,0,1-14.664,13.706Z" fill="url(#radial-gradient)"/>
  </g>
</svg>
