<svg xmlns="http://www.w3.org/2000/svg" width="405.005" height="95.75" viewBox="0 0 405.005 95.75">
  <g id="Group_2188" data-name="Group 2188" transform="translate(-7.996 -1776.801)">
    <path id="Path_9744" data-name="Path 9744" d="M54.369,1840.441c-.013-.021-.025-.042-.037-.064a1.861,1.861,0,0,1-.182-.411c0-.016-.007-.032-.011-.047a1.855,1.855,0,0,1-.068-.48v-19.781a416.545,416.545,0,0,1-44.592-23.82c6.68,10.668,13.526,21.285,20.408,31.647a1.859,1.859,0,0,1-.875,2.761C22,1832.968,14.95,1835.5,8,1837.782a412.8,412.8,0,0,0,68.7,34.7L54.4,1840.5C54.391,1840.483,54.382,1840.461,54.369,1840.441Z" fill="#1f1f1f"/>
    <path id="Path_9745" data-name="Path 9745" d="M344.127,1872.551A412.875,412.875,0,0,0,413,1837.783c-6.957-2.287-14.009-4.815-21.015-7.536a1.859,1.859,0,0,1-.875-2.761c6.877-10.355,13.723-20.972,20.407-31.647a416.522,416.522,0,0,1-45.541,24.252v19.348a1.854,1.854,0,0,1-.078.527c-.015.05-.045.095-.064.144a1.838,1.838,0,0,1-.16.335c-.006.009-.008.02-.014.03Z" fill="#1f1f1f"/>
    <path id="Path_9746" data-name="Path 9746" d="M79.841,1852.246c-6.17-2.5-12.3-5.181-18.317-8.029l18.317,26.277Z" fill="#1f1f1f"/>
    <path id="Path_9747" data-name="Path 9747" d="M358.744,1844.113c-5.783,2.74-11.663,5.331-17.588,7.749v18.447Z" fill="#1f1f1f"/>
    <path id="Path_9748" data-name="Path 9748" d="M316.9,1856.8c5.548-1.816,11.052-3.763,16.408-5.823,9.8-3.768,19.532-8.035,28.952-12.692v-43.1c-8.621,4.2-17.493,8.073-26.426,11.547v14.607a1.843,1.843,0,0,1-.051.411c-.006.026-.011.051-.018.076a1.854,1.854,0,0,1-.146.375c0,.007,0,.016-.009.023Z" fill="#1f1f1f"/>
    <path id="Path_9749" data-name="Path 9749" d="M84.429,1822.206a1.854,1.854,0,0,1-.146-.375c-.007-.025-.012-.051-.018-.076a1.849,1.849,0,0,1-.051-.411v-14.607c-8.933-3.474-17.806-7.343-26.426-11.547v43.1c9.42,4.656,19.154,8.923,28.952,12.692,5.359,2.062,10.863,4.009,16.408,5.823l-18.709-34.574C84.434,1822.221,84.433,1822.213,84.429,1822.206Z" fill="#1f1f1f"/>
    <path id="Path_9750" data-name="Path 9750" d="M105.127,1829.993q-7.571-2.4-15.055-5.161l15.055,27.82Z" fill="#1f1f1f"/>
    <path id="Path_9751" data-name="Path 9751" d="M329.977,1824.832q-7.483,2.757-15.054,5.161v22.659Z" fill="#1f1f1f"/>
    <path id="Path_9752" data-name="Path 9752" d="M87.93,1820.066a343.459,343.459,0,0,0,244.188,0V1776.8a347.175,347.175,0,0,1-244.188,0v43.265Z" fill="#1f1f1f"/>
  </g>
</svg>
