<svg xmlns="http://www.w3.org/2000/svg" width="51.008" height="45.89" viewBox="0 0 51.008 45.89">
  <g id="Group_398" data-name="Group 398" transform="translate(-692.66 -692.16)">
    <path id="Path_1604" data-name="Path 1604" d="M732.723,703.607a6.039,6.039,0,0,1,.377-1.917,1.763,1.763,0,0,1,1.781-.926c2.366.216,4.075.416,4.51,1.044s.015,2.114-.668,4.593c-.4,1.446-.88,3.2-1.381,5.407-1.444-1.647-2.924-3.239-4.435-4.862-.257-.276-.518-.558-.778-.838A6.17,6.17,0,0,0,732.723,703.607Z" fill="#7e9ea8"/>
    <path id="Path_1605" data-name="Path 1605" d="M724.167,737.928a51.817,51.817,0,0,1-8.441-.11c-.676-.047-1.362-.09-2.051-.13a.538.538,0,0,0,.159-.5,29.774,29.774,0,0,1-.4-9.276c.057-.376.088-3.49.112-3.733a4.351,4.351,0,0,1,.066-.519,5.177,5.177,0,0,1,1.115-.254l.5-.088a40.364,40.364,0,0,1,12.021-.225c-.236,1.952-.926,6.926-1.1,9.113-.151,1.885-.293,3.666-.467,5.262a.538.538,0,0,0,.1.369C725.1,737.867,724.543,737.892,724.167,737.928Z" fill="#e6eeef"/>
    <path id="Path_1606" data-name="Path 1606" d="M736.742,727.036l.024.829a19.551,19.551,0,0,0,.4,2.727c.337,1.772.756,3.978.282,4.9-.922,1.8-7.447,2.163-10.762,2.3a.535.535,0,0,0,.073-.212c.176-1.612.319-3.4.47-5.293.19-2.373.895-7.545,1.161-9.585a.547.547,0,0,0-.449-.609,41.05,41.05,0,0,0-12.916.143l-.49.087c-1.635.287-1.947.384-2.079,1.744-.022.227-.051,3.323-.1,3.674a36.467,36.467,0,0,0,.415,9.671.531.531,0,0,0,.113.224c-1.073-.053-2.152-.086-3.229-.072-.273,0-.711.031-1.251.066-1.617.1-6.537.417-7.188-.527-.323-.47-.036-2.6.1-3.628.077-.573.143-1.067.151-1.386a62.411,62.411,0,0,1,.655-8.257.524.524,0,0,0-.01-.159,5.769,5.769,0,0,0,1.892-.718c1.651-1.029,3.425-3.842,4.99-6.322.7-1.118,1.371-2.174,1.873-2.8.874-1.091,1.6-2.017,2.234-2.826a35.16,35.16,0,0,1,5.955-6.459,2.712,2.712,0,0,1,2.039-.868c.972.157,1.792,1.486,2.66,2.893.157.254.316.513.48.771a79.629,79.629,0,0,0,5.417,7.612c.662.843,1.369,1.744,2.2,2.852.3.391.619.855.971,1.357a29.548,29.548,0,0,0,3.9,4.8.514.514,0,0,0-.044.171C736.667,724.479,736.7,725.6,736.742,727.036Z" fill="#537082"/>
    <path id="Path_1607" data-name="Path 1607" d="M742.408,724.325a2.14,2.14,0,0,1-1.666.67c-2.847-.487-5.261-3.935-7.023-6.452-.359-.513-.69-.986-.992-1.387-.84-1.115-1.551-2.021-2.217-2.869a77.831,77.831,0,0,1-5.354-7.522c-.162-.255-.318-.509-.473-.759-1-1.625-1.95-3.161-3.415-3.4a2.4,2.4,0,0,0-.387-.031,4.054,4.054,0,0,0-2.529,1.14,36.5,36.5,0,0,0-6.113,6.623c-.632.806-1.356,1.729-2.227,2.816-.541.675-1.191,1.706-1.944,2.9-1.427,2.264-3.2,5.083-4.643,5.979-1.99,1.242-5.63.7-8.843.229-.669-.1-1.31-.193-1.921-.27,4.648-6.505,14.192-19.009,22.8-27.806.247-.252.468-.505.68-.747.875-1,1.344-1.472,2.436-1.208,1.623.391,4.313,4.295,5.919,6.626.63.914,1.127,1.636,1.468,2.034,2.14,2.5,4.176,4.682,6.143,6.8,4.317,4.64,8.05,8.651,11.561,14.4A3.688,3.688,0,0,1,742.408,724.325Z" fill="#7e9ea8"/>
  </g>
</svg>
