<svg xmlns="http://www.w3.org/2000/svg" width="73.874" height="46.619" viewBox="0 0 73.874 46.619">
  <g id="Group_145" data-name="Group 145" transform="translate(-81.108 -959.359)">
    <g id="Group_143" data-name="Group 143">
      <path id="Path_757" data-name="Path 757" d="M100.289,991.768a4.95,4.95,0,0,1,2.282.552l8.356-11.265a4.984,4.984,0,1,1,9.163-1.193l7.041,4.484a4.985,4.985,0,0,1,7.615.406l4.964-3.241-2.227-2.91s6.384-1.006,8.1-1.273c-2.852-7.932-10.772-9.926-16.556-3.729-1.119-6.412-10.168-17.036-24.013-13.555s-16.53,19.892-12.28,27.243a15.433,15.433,0,0,1-3.912-8.185,14.094,14.094,0,0,0-7.707,12.734l14.487,3.23v.045l.007.008a4.953,4.953,0,0,1,4.685-3.35Z" fill="#00b698"/>
      <path id="Path_758" data-name="Path 758" d="M117.439,978.567a2.207,2.207,0,1,1-2.207-2.206A2.207,2.207,0,0,1,117.439,978.567Z" fill="#00b698"/>
    </g>
    <g id="Group_144" data-name="Group 144">
      <path id="Path_759" data-name="Path 759" d="M148.033,981.692c.063-1.389.5-4.82.5-4.82l-4.912,9.87-2.138-2.957-5.738,3.742c0,.075.005.151.005.228a4.985,4.985,0,1,1-9.878-.947l-7.154-4.613a4.986,4.986,0,0,1-5.708.852l-8.375,11.265a4.985,4.985,0,1,1-9.109,3.917L81.4,994.882c1.3,7.208,8.542,11.052,12.916,11.052.394.031,47.892.045,47.892.045a12.848,12.848,0,0,0,12.69-11.442C155.613,988.125,151.513,983.994,148.033,981.692Z" fill="#f15c54"/>
      <path id="Path_760" data-name="Path 760" d="M102.541,996.828a2.207,2.207,0,1,1-2.206-2.207,2.207,2.207,0,0,1,2.206,2.207Z" fill="#f15c54"/>
      <path id="Path_761" data-name="Path 761" d="M132.915,987.789a2.207,2.207,0,1,1-2.207-2.207A2.207,2.207,0,0,1,132.915,987.789Z" fill="#f15c54"/>
    </g>
  </g>
</svg>
