<svg xmlns="http://www.w3.org/2000/svg" width="28.682" height="23.296" viewBox="0 0 28.682 23.296">
  <g id="Group_294" data-name="Group 294" transform="translate(-29.97 -556)">
    <path id="Path_1039" data-name="Path 1039" d="M55.351,556H42.825c-2.209,0-3.325,1.115-3.325,3.348v1.086h-.034v13.378a.651.651,0,0,1-.73.745H34.913a.652.652,0,0,1-.731-.745L34.189,556H29.97v19.995c0,2.207,1.144,3.3,3.408,3.3h6.867c2.264,0,3.408-1.094,3.408-3.3V560.9a.638.638,0,0,1,.726-.682H47L46.889,579.3h4.34l-.078-19.073h2.671a.653.653,0,0,1,.727.729L54.371,579.3h4.281V559.374C58.652,557.114,57.559,556,55.351,556Z" fill="#93c01f"/>
  </g>
</svg>
