<svg xmlns="http://www.w3.org/2000/svg" width="185.577" height="138.456" viewBox="0 0 185.577 138.456">
  <g id="Group_2165" data-name="Group 2165" transform="translate(-1608.111 -26.185)">
    <path id="Path_9666" data-name="Path 9666" d="M1700.9,164.641c-10.612-12.536-31.608-21.234-51.453-21.234a57.443,57.443,0,0,0-18.511,2.866,23.578,23.578,0,0,0-22.824-22.553V67.106a23.578,23.578,0,0,0,22.824-22.553,57.452,57.452,0,0,0,18.511,2.866c19.845,0,40.841-8.7,51.453-21.233,10.613,12.537,31.609,21.234,51.453,21.233a57.455,57.455,0,0,0,18.511-2.866,23.578,23.578,0,0,0,22.824,22.553V123.72a23.578,23.578,0,0,0-22.824,22.553,57.446,57.446,0,0,0-18.511-2.866C1732.508,143.407,1711.511,152.1,1700.9,164.641Z" fill="#1f1f1f"/>
    <path id="Path_9667" data-name="Path 9667" d="M1700.9,164.641c-10.612-12.536-31.608-21.234-51.453-21.234a57.443,57.443,0,0,0-18.511,2.866,23.578,23.578,0,0,0-22.824-22.553V67.106a23.578,23.578,0,0,0,22.824-22.553,57.452,57.452,0,0,0,18.511,2.866c19.845,0,40.841-8.7,51.453-21.233,10.613,12.537,31.609,21.234,51.453,21.233a57.455,57.455,0,0,0,18.511-2.866,23.578,23.578,0,0,0,22.824,22.553V123.72a23.578,23.578,0,0,0-22.824,22.553,57.446,57.446,0,0,0-18.511-2.866C1732.508,143.407,1711.511,152.1,1700.9,164.641Z" fill="#1f1f1f"/>
    <path id="Path_9668" data-name="Path 9668" d="M1700.9,158.778l-.684-.642c-12.132-11.378-32.06-18.73-50.769-18.73a64.91,64.91,0,0,0-14.224,1.514l-.938.211-.247-.93a27.8,27.8,0,0,0-21.126-19.939l-.8-.164V70.725l.8-.164a27.8,27.8,0,0,0,21.126-19.938l.247-.929.938.211a64.951,64.951,0,0,0,14.224,1.514c18.709,0,38.637-7.353,50.768-18.73l.684-.642.684.642c12.133,11.378,32.061,18.73,50.77,18.73a64.977,64.977,0,0,0,14.225-1.514l.938-.211.247.929a27.8,27.8,0,0,0,21.126,19.939l.8.164V120.1l-.8.164a27.8,27.8,0,0,0-21.126,19.939l-.247.93-.938-.211a64.927,64.927,0,0,0-14.225-1.514c-18.709,0-38.637,7.352-50.77,18.73Zm-51.452-21.371c19.138,0,38.751,7.124,51.452,18.64,12.7-11.516,32.316-18.64,51.453-18.64a67.479,67.479,0,0,1,13.739,1.363,29.838,29.838,0,0,1,21.6-20.29V72.345a29.837,29.837,0,0,1-21.6-20.29,67.538,67.538,0,0,1-13.739,1.363c-19.137,0-38.751-7.123-51.453-18.64-12.7,11.515-32.314,18.639-51.452,18.64a67.515,67.515,0,0,1-13.738-1.362,29.84,29.84,0,0,1-21.6,20.289V118.48a29.841,29.841,0,0,1,21.6,20.29,67.464,67.464,0,0,1,13.738-1.363Z" fill="#fff"/>
  </g>
</svg>
