<svg xmlns="http://www.w3.org/2000/svg" width="20.405" height="25.28" viewBox="0 0 20.405 25.28">
  <g id="Group_308" data-name="Group 308" transform="translate(-275.648 -552.759)">
    <path id="Path_1077" data-name="Path 1077" d="M278.215,570.114a72.974,72.974,0,0,0,16.167,0s2.238-4.085-2.856-6.634a5.861,5.861,0,0,1-2.241-6.107s1.361-4.172-1.317-4.614h-3.034s-1.58.053-1.58,2.111c0,.219,1.1,6.2-2.064,8.478a5.673,5.673,0,0,0-3.075,6.766Z" fill="#009ee2"/>
    <path id="Path_1078" data-name="Path 1078" d="M296.052,576.478a1.728,1.728,0,0,1-1.859,1.555H277.506a1.729,1.729,0,0,1-1.858-1.555v-2.007a1.725,1.725,0,0,1,1.858-1.551h16.687a1.723,1.723,0,0,1,1.859,1.551Z" fill="#009ee2"/>
  </g>
</svg>
