<svg xmlns="http://www.w3.org/2000/svg" width="23.259" height="29.678" viewBox="0 0 23.259 29.678">
  <g id="Group_266" data-name="Group 266" transform="translate(-150.673 -478.869)">
    <path id="Path_935" data-name="Path 935" d="M173.931,506.023v-24.63a2.46,2.46,0,0,0-2.388-2.524H157.808a2.46,2.46,0,0,0-2.387,2.524v16.229l-4.747,8.675,4.747-2.079v1.8a2.459,2.459,0,0,0,2.387,2.524h13.735A2.46,2.46,0,0,0,173.931,506.023Zm-9.651-12.312A3.285,3.285,0,0,1,161,490.425V485.8a3.282,3.282,0,0,1,3.283-3.282h4.379a3.282,3.282,0,0,1,3.282,3.282v4.619a3.285,3.285,0,0,1-3.282,3.286ZM161,502.684a2.736,2.736,0,1,1,2.736,2.736A2.736,2.736,0,0,1,161,502.684Z" fill="#e5332b"/>
  </g>
</svg>
