<svg xmlns="http://www.w3.org/2000/svg" width="31.255" height="23.151" viewBox="0 0 31.255 23.151">
  <g id="Group_426" data-name="Group 426" transform="translate(-571.58 -116.314)">
    <rect id="Rectangle_279" data-name="Rectangle 279" width="5.988" height="9.649" transform="translate(584.156 129.816)" fill="#c6c6c5"/>
    <rect id="Rectangle_280" data-name="Rectangle 280" width="12.036" height="13.793" transform="translate(581.131 121.636)" fill="#c6c6c5"/>
    <rect id="Rectangle_281" data-name="Rectangle 281" width="1.273" height="2.418" transform="translate(583.774 126.114)" fill="#3c3c3b"/>
    <rect id="Rectangle_282" data-name="Rectangle 282" width="1.276" height="2.418" transform="translate(589.258 126.114)" fill="#3c3c3b"/>
    <path id="Path_1447" data-name="Path 1447" d="M602.775,116.314H600.4l.043,7.782a.379.379,0,0,1-.421.42h-1.542v-5.8h-2.4v5.8h-1.517a.364.364,0,0,1-.387-.224v2.665h6.729a1.7,1.7,0,0,0,1.908-1.949Z" fill="#b3b3b3"/>
    <path id="Path_1448" data-name="Path 1448" d="M571.642,116.314h2.371l-.044,7.782a.379.379,0,0,0,.421.42h1.542v-5.8h2.4v5.8h1.517a.364.364,0,0,0,.387-.224v2.665h-6.729a1.7,1.7,0,0,1-1.908-1.949Z" fill="#b3b3b3"/>
  </g>
</svg>
