<svg xmlns="http://www.w3.org/2000/svg" width="62.943" height="62.95" viewBox="0 0 62.943 62.95">
  <g id="Group_101" data-name="Group 101" transform="translate(-86.574 -1078.852)">
    <path id="Path_649" data-name="Path 649" d="M149.517,1110.322a31.471,31.471,0,1,1-31.471-31.471,31.472,31.472,0,0,1,31.471,31.471Z" fill="#b6d9e5"/>
    <g id="Group_100" data-name="Group 100">
      <path id="Path_650" data-name="Path 650" d="M148.256,1119.172c-4.339-4.65-10.812-11.387-15.383-15.785q-15.842-15.407-29.943-4.846c-4.793-1.15-6.917-.084-7.538,2.484a3.523,3.523,0,0,0,1.656,3.6,77.587,77.587,0,0,1,7.039,5.592c-.024.018-.049.035-.074.051a22.114,22.114,0,0,1-4.438,1.152c-2.527.455-3.231,1.779-2.2,4.1,3.88,7.49,16.218,9.959,23.193,8.117-3.272,1.822-7.662,2.318-13.254,1.49l2.595,15.6a31.507,31.507,0,0,0,38.342-21.561Z" fill="#e9f0f4"/>
      <path id="Path_651" data-name="Path 651" d="M132.873,1103.387q-15.842-15.407-29.943-4.846c-4.793-1.15-6.917-.084-7.538,2.484a3.523,3.523,0,0,0,1.656,3.6,77.3,77.3,0,0,1,7.041,5.59,17.3,17.3,0,0,1-4.079,1.133,53.9,53.9,0,0,0,10.169.75,50.54,50.54,0,0,0,14.908-2.379l13.783,24.2a31.481,31.481,0,0,0,9.381-14.732C144.093,1114.666,138.06,1108.377,132.873,1103.387Z" fill="#92abb7"/>
      <g id="Group_99" data-name="Group 99">
        <path id="Path_652" data-name="Path 652" d="M127.969,1104.32a1.871,1.871,0,1,1-.547-1.324,1.872,1.872,0,0,1,.547,1.324Z" fill="#7c949b"/>
        <path id="Path_653" data-name="Path 653" d="M101.052,1102.566c-3.824-1.932-4.667-.3-4,2.063a77.3,77.3,0,0,1,7.041,5.59,17.3,17.3,0,0,1-4.079,1.133,51.19,51.19,0,0,0,25.076-1.629,96.9,96.9,0,0,1-24.035-7.156Z" fill="#7c949b"/>
      </g>
    </g>
  </g>
</svg>
