<svg xmlns="http://www.w3.org/2000/svg" width="189.275" height="148.345" viewBox="0 0 189.275 148.345">
  <g id="Group_2152" data-name="Group 2152" transform="translate(-1799.725 -21.24)">
    <path id="Path_9632" data-name="Path 9632" d="M1894.357,169.586a18.559,18.559,0,0,0-16.778-10.687h-30.21a17.246,17.246,0,0,1-17.249-17.253v-.671h-.675a17.315,17.315,0,0,1-17.3-17.3V113a17.411,17.411,0,0,0-.43-3.911,18.521,18.521,0,0,0-11.995-13.654,18.65,18.65,0,0,0,12-13.7,17.4,17.4,0,0,0,.428-3.9V67.155a17.315,17.315,0,0,1,17.3-17.295h.675v-.675a17.176,17.176,0,0,1,5.074-12.221,16.963,16.963,0,0,1,12.175-5.074h30.21a18.577,18.577,0,0,0,16.779-10.65,18.617,18.617,0,0,0,16.824,10.65h30.164a17.324,17.324,0,0,1,17.3,17.3v.675h.675a17.314,17.314,0,0,1,17.3,17.295V77.837a18.248,18.248,0,0,0,.429,3.951A18.635,18.635,0,0,0,1989,95.433a18.485,18.485,0,0,0-11.962,13.62,18.235,18.235,0,0,0-.427,3.945v10.681a17.315,17.315,0,0,1-17.3,17.3h-.675v.675a17.246,17.246,0,0,1-17.3,17.249h-30.164A18.6,18.6,0,0,0,1894.357,169.586Z" fill="#1f1f1f"/>
    <path id="Path_9633" data-name="Path 9633" d="M1894.357,169.586a18.559,18.559,0,0,0-16.778-10.687h-30.21a17.246,17.246,0,0,1-17.249-17.253v-.671h-.675a17.315,17.315,0,0,1-17.3-17.3V113a17.411,17.411,0,0,0-.43-3.911,18.521,18.521,0,0,0-11.995-13.654,18.65,18.65,0,0,0,12-13.7,17.4,17.4,0,0,0,.428-3.9V67.155a17.315,17.315,0,0,1,17.3-17.295h.675v-.675a17.176,17.176,0,0,1,5.074-12.221,16.963,16.963,0,0,1,12.175-5.074h30.21a18.577,18.577,0,0,0,16.779-10.65,18.617,18.617,0,0,0,16.824,10.65h30.164a17.324,17.324,0,0,1,17.3,17.3v.675h.675a17.314,17.314,0,0,1,17.3,17.295V77.837a18.248,18.248,0,0,0,.429,3.951A18.635,18.635,0,0,0,1989,95.433a18.485,18.485,0,0,0-11.962,13.62,18.235,18.235,0,0,0-.427,3.945v10.681a17.315,17.315,0,0,1-17.3,17.3h-.675v.675a17.246,17.246,0,0,1-17.3,17.249h-30.164A18.6,18.6,0,0,0,1894.357,169.586Z" fill="#1f1f1f"/>
    <path id="Path_9634" data-name="Path 9634" d="M1894.359,162.379l-.712-.723a22.7,22.7,0,0,0-16.068-6.757h-30.21a13.247,13.247,0,0,1-13.25-13.249v-4.675h-4.675a13.31,13.31,0,0,1-13.295-13.3V113a21.371,21.371,0,0,0-.534-4.813,22.6,22.6,0,0,0-6.984-12.026l-.824-.742.822-.744a22.857,22.857,0,0,0,7-12.109,21.3,21.3,0,0,0,.515-4.729V67.155a13.31,13.31,0,0,1,13.295-13.295h4.675V49.186a13.2,13.2,0,0,1,3.9-9.392,13.034,13.034,0,0,1,9.348-3.9h30.21a22.73,22.73,0,0,0,16.069-6.743l.711-.72.712.72a22.806,22.806,0,0,0,16.11,6.743h30.164a13.324,13.324,0,0,1,13.295,13.3v4.675h4.675a13.31,13.31,0,0,1,13.3,13.295V77.837a22.224,22.224,0,0,0,.524,4.821,22.762,22.762,0,0,0,6.973,12.018l.821.743-.822.742a22.731,22.731,0,0,0-6.983,12.063,22.021,22.021,0,0,0-.513,4.775v10.681a13.311,13.311,0,0,1-13.3,13.3h-4.675v4.675a13.246,13.246,0,0,1-13.295,13.25h-30.164a22.77,22.77,0,0,0-16.109,6.758Zm-83.6-66.965a24.581,24.581,0,0,1,6.81,12.339,23.374,23.374,0,0,1,.581,5.245v10.681a11.307,11.307,0,0,0,11.295,11.3h6.675v6.675a11.246,11.246,0,0,0,11.25,11.25h30.21a24.714,24.714,0,0,1,16.782,6.66,24.788,24.788,0,0,1,16.82-6.66h30.164a11.245,11.245,0,0,0,11.295-11.249v-6.675h6.675a11.308,11.308,0,0,0,11.3-11.3V113a24.074,24.074,0,0,1,.559-5.2,24.743,24.743,0,0,1,6.811-12.382,24.745,24.745,0,0,1-6.8-12.332,24.21,24.21,0,0,1-.57-5.247V67.155a11.308,11.308,0,0,0-11.3-11.294h-6.675V49.186a11.324,11.324,0,0,0-11.295-11.3h-30.164a24.82,24.82,0,0,1-16.82-6.646,24.749,24.749,0,0,1-16.782,6.646h-30.21a11.053,11.053,0,0,0-7.929,3.312,11.222,11.222,0,0,0-3.321,7.983v6.675h-6.675a11.307,11.307,0,0,0-11.295,11.294V77.837a23.3,23.3,0,0,1-.562,5.162,24.852,24.852,0,0,1-6.83,12.416Z" fill="#fff"/>
  </g>
</svg>
