<svg xmlns="http://www.w3.org/2000/svg" width="63.492" height="55.877" viewBox="0 0 63.492 55.877">
  <g id="Group_142" data-name="Group 142" transform="translate(-216.313 -954.717)">
    <path id="Path_754" data-name="Path 754" d="M264.884,954.764H220.829a4.66,4.66,0,0,0-3.4,1.109,4.584,4.584,0,0,0-1.1,3.369V987.83a4.57,4.57,0,0,0,1.1,3.362,4.658,4.658,0,0,0,3.4,1.1h44.056a3.9,3.9,0,0,0,4.464-4.465V959.242a3.909,3.909,0,0,0-4.464-4.479Zm1.359,33.066a1.2,1.2,0,0,1-1.359,1.33H220.829a1.228,1.228,0,0,1-1.4-1.33V959.242a1.237,1.237,0,0,1,1.4-1.344h44.056a1.212,1.212,0,0,1,1.359,1.344Z" fill="#ed1e85"/>
    <path id="Path_755" data-name="Path 755" d="M274.585,966.364H240.747c-3.48,0-5.167,1.708-5.167,5.25v24.559c0,3.479,1.688,5.183,5.167,5.183h33.838a5.386,5.386,0,0,0,3.927-1.287,5.311,5.311,0,0,0,1.277-3.9V971.614C279.789,968.072,278.1,966.364,274.585,966.364Zm2.1,29.809a2.039,2.039,0,0,1-.55,1.533,2.159,2.159,0,0,1-1.549.515H240.747a1.82,1.82,0,0,1-2.033-2.048V971.614c0-1.4.693-2.146,2.033-2.146h33.838a1.917,1.917,0,0,1,2.1,2.146Z" fill="#5e368a"/>
    <path id="Path_756" data-name="Path 756" d="M242.32,977.787H231.542a5.389,5.389,0,0,0-3.927,1.278,5.3,5.3,0,0,0-1.278,3.891v22.449a5.229,5.229,0,0,0,1.277,3.906,5.343,5.343,0,0,0,3.929,1.263H242.32a5.355,5.355,0,0,0,3.934-1.263,5.23,5.23,0,0,0,1.284-3.906V982.956a5.3,5.3,0,0,0-1.285-3.891,5.4,5.4,0,0,0-3.933-1.278Zm2.127,27.618a2.008,2.008,0,0,1-.564,1.518,2.19,2.19,0,0,1-1.563.5H231.542a2.142,2.142,0,0,1-1.543-.5,2,2,0,0,1-.544-1.518V982.956a2.038,2.038,0,0,1,.544-1.533,2.143,2.143,0,0,1,1.543-.517H242.32a2.19,2.19,0,0,1,1.563.517,2.043,2.043,0,0,1,.564,1.533Z" fill="#42bfee"/>
  </g>
</svg>
