<svg xmlns="http://www.w3.org/2000/svg" width="48.281" height="49.436" viewBox="0 0 48.281 49.436">
  <path id="Path_928" data-name="Path 928" d="M933.367,207.421a.575.575,0,0,0-.461-.384l-17.288-2.391a.288.288,0,0,1-.235-.2q-1.224-4-2.437-8l-.039-.127a97.43,97.43,0,0,0-3.317-9.693.579.579,0,0,0-.469-.35.6.6,0,0,0-.58.335c-2.583,5.476-5.044,11.116-7.315,16.761a.291.291,0,0,1-.264.185l-1.165.022c-4.693.1-9.447.314-14.133.628a.589.589,0,0,0-.517.421.606.606,0,0,0,.2.646l11.467,9.136a.3.3,0,0,1,.094.338c-2.015,5.626-3.891,11.38-5.579,17.1a.6.6,0,0,0,.189.634.569.569,0,0,0,.643.054l11.878-6.9c1.252-.728,2.542-1.476,3.829-2.2a.279.279,0,0,1,.313.026L921.641,234.2a7.226,7.226,0,0,0,2.549,1.5.575.575,0,0,0,.568-.17.611.611,0,0,0,.129-.595c-1.8-5.67-3.6-11.4-5.35-17.025a.3.3,0,0,1,.152-.361c4.793-2.363,9.754-5.15,13.563-9.519a.608.608,0,0,0,.114-.6Z" transform="translate(-885.12 -186.275)" fill="#e2c549"/>
</svg>
