<svg xmlns="http://www.w3.org/2000/svg" width="176.041" height="148.345" viewBox="0 0 176.041 148.345">
  <g id="Group_2151" data-name="Group 2151" transform="translate(-838.94 -21.24)">
    <path id="Path_9629" data-name="Path 9629" d="M926.96,169.586C922,159.97,908.868,157.395,896.153,154.9c-12.759-2.5-24.81-4.867-28.178-13.849l-.122-.324-.34-.067c-14.626-2.873-17.269-15.666-19.6-26.954-1.654-8.006-3.223-15.6-8.974-18.294,5.751-2.69,7.321-10.288,8.974-18.294,2.331-11.287,4.974-24.081,19.6-26.954l.34-.067.122-.324c3.368-8.982,15.419-11.346,28.178-13.848C908.868,33.431,922,30.856,926.96,21.24c4.962,9.616,18.092,12.191,30.807,14.685,12.759,2.5,24.81,4.867,28.178,13.848l.122.324.34.067c14.626,2.873,17.268,15.666,19.6,26.954,1.653,8.006,3.223,15.6,8.974,18.294-5.751,2.69-7.321,10.288-8.974,18.294-2.331,11.287-4.974,24.081-19.6,26.954l-.34.067-.122.324c-3.368,8.982-15.419,11.346-28.178,13.849C945.052,157.395,931.922,159.97,926.96,169.586Z" fill="#1f1f1f"/>
    <path id="Path_9630" data-name="Path 9630" d="M926.96,169.586C922,159.97,908.868,157.395,896.153,154.9c-12.759-2.5-24.81-4.867-28.178-13.849l-.122-.324-.34-.067c-14.626-2.873-17.269-15.666-19.6-26.954-1.654-8.006-3.223-15.6-8.974-18.294,5.751-2.69,7.321-10.288,8.974-18.294,2.331-11.287,4.974-24.081,19.6-26.954l.34-.067.122-.324c3.368-8.982,15.419-11.346,28.178-13.848C908.868,33.431,922,30.856,926.96,21.24c4.962,9.616,18.092,12.191,30.807,14.685,12.759,2.5,24.81,4.867,28.178,13.848l.122.324.34.067c14.626,2.873,17.268,15.666,19.6,26.954,1.653,8.006,3.223,15.6,8.974,18.294-5.751,2.69-7.321,10.288-8.974,18.294-2.331,11.287-4.974,24.081-19.6,26.954l-.34.067-.122.324c-3.368,8.982-15.419,11.346-28.178,13.849C945.052,157.395,931.922,159.97,926.96,169.586Z" fill="#1f1f1f"/>
    <path id="Path_9631" data-name="Path 9631" d="M926.96,162.778l-.689-.655c-7.145-6.792-18.938-9.106-29.343-11.147-11.635-2.282-22.622-4.437-25.207-11.329l-.91-2.414-2.523-.5c-11.157-2.191-13.858-11.262-16.456-23.836-1.269-6.146-2.582-12.5-5.956-16.876l-.472-.611.472-.611c3.375-4.373,4.687-10.729,5.956-16.875,2.6-12.576,5.3-21.646,16.454-23.838l2.526-.5.908-2.407c2.586-6.9,13.572-9.052,25.2-11.334,10.408-2.042,22.2-4.355,29.35-11.148l.689-.655.689.655C934.8,35.5,946.59,37.81,957,39.851c11.632,2.282,22.619,4.438,25.2,11.328l.91,2.414,2.524.5c11.157,2.192,13.857,11.262,16.455,23.838,1.271,6.148,2.584,12.5,5.957,16.874l.471.611-.471.611c-3.374,4.372-4.687,10.726-5.956,16.87-2.6,12.578-5.3,21.65-16.454,23.842l-2.526.5-.908,2.407c-2.586,6.9-13.572,9.053-25.2,11.334-10.41,2.042-22.2,4.357-29.35,11.149ZM847.911,95.413c3.319,4.684,4.62,10.982,5.88,17.081,2.593,12.553,4.889,20.316,14.883,22.279l3.616.713,1.3,3.457c2.193,5.847,12.648,7.9,23.718,10.069,10.356,2.032,22.051,4.327,29.649,11.03,7.6-6.7,19.294-9,29.649-11.03,11.072-2.172,21.526-4.222,23.721-10.077l1.3-3.45,3.618-.712c9.993-1.963,12.288-9.728,14.881-22.284,1.26-6.1,2.56-12.394,5.88-17.077-3.318-4.683-4.62-10.98-5.88-17.077-2.593-12.557-4.889-20.321-14.883-22.284l-3.617-.712-1.3-3.457c-2.192-5.847-12.647-7.9-23.716-10.069-10.356-2.031-22.052-4.326-29.652-11.03-7.6,6.7-19.3,9-29.653,11.031-11.068,2.171-21.521,4.222-23.716,10.075l-1.3,3.45-3.618.713c-9.992,1.963-12.288,9.727-14.881,22.28C852.531,84.431,851.23,90.729,847.911,95.413Z" fill="#fff"/>
  </g>
</svg>
