<svg xmlns="http://www.w3.org/2000/svg" width="98.124" height="41.012" viewBox="0 0 98.124 41.012">
  <path id="Path_254" data-name="Path 254" d="M289.891,281.894c21.273-2.328,42.505,8.705,55.641,28.912-15.883,9.844-33.679,12.016-50.861,11.775-9.069-.127-18.213-.906-26.664-4.479a38.921,38.921,0,0,1-20.6-19.986l75.72,8.655c-4.507-.515-9.124-2.7-13.563-3.787q-7.1-1.734-14.3-2.975a213.189,213.189,0,0,0-29.3-2.993c-5.422-.178-10.848-.069-16.285.076C261.985,289.348,276.479,283.362,289.891,281.894Z" transform="translate(-247.407 -281.587)" fill="#778980"/>
</svg>
