<svg xmlns="http://www.w3.org/2000/svg" width="66.757" height="74.934" viewBox="0 0 66.757 74.934">
  <path id="Path_261" data-name="Path 261" d="M290.15,398.788c-10.578,1.958-20.992,7.474-26.405,16.771-4.075,7-4.962,15.513-3.853,23.535s4.083,15.662,7.334,23.079c1.756,4.007,4.063,8.4,8.258,9.638,4.4,1.3,9.169-1.647,11.449-5.632s2.656-8.742,2.937-13.324.564-9.329,2.7-13.394c2.3-4.385,6.5-7.459,10.866-9.806s9.029-4.135,13.192-6.818,7.9-6.486,9.11-11.289C330.349,393.218,299.992,396.966,290.15,398.788Z" transform="translate(-259.452 -397.19)" fill="#b49180"/>
</svg>
