<svg xmlns="http://www.w3.org/2000/svg" width="132.825" height="118.391" viewBox="0 0 132.825 118.391">
  <g id="Group_2378" data-name="Group 2378" transform="translate(-1184.496 -945.638)">
    <path id="Path_11026" data-name="Path 11026" d="M1315.988,953.41a4.552,4.552,0,1,0-7.673-2.281l-2.655-2.654a19.044,19.044,0,0,1-1.011,4.5l-27.49-3.226a3.656,3.656,0,0,0-4.106,4.106l2.993,25.509a2.054,2.054,0,0,0-2.152.5,1.994,1.994,0,0,0-.079,2.816l1.245,1.245-2.1,2.1-.093-.095a2.047,2.047,0,0,0-2.894,2.9l.093.095-61.908,61.908a2.82,2.82,0,1,0,3.972,3.975l.63-.629,7.477,7.477.521.522,1.6,1.6a1.012,1.012,0,0,0,1.42-.077l1.053-1.053a1.012,1.012,0,0,0,.077-1.421l-1.6-1.6,2.045-2.044,1.606,1.6a1.009,1.009,0,0,0,1.418-.077l1.054-1.053a1.011,1.011,0,0,0,.075-1.42l-1.6-1.6-.522-.522-7.476-7.477,54.135-54.134.094.093a2.048,2.048,0,1,0,2.9-2.9l-.093-.095,2.094-2.1,1.247,1.245a1.994,1.994,0,0,0,2.818-.081,2.057,2.057,0,0,0,.5-2.15l25.51,2.994a3.658,3.658,0,0,0,4.105-4.1l-3.225-27.492a19.111,19.111,0,0,1,4.495-1.012l-2.655-2.655a4.552,4.552,0,0,0,4.156-1.234ZM1281.9,981.055l-2.985-25.444,25.443,2.985,2.985,25.443Z" fill="#1f1f1f"/>
    <path id="Path_11027" data-name="Path 11027" d="M1189.99,954.644l-2.656,2.655a19.114,19.114,0,0,1,4.495,1.012L1188.6,985.8a3.658,3.658,0,0,0,4.1,4.1l25.512-2.994a2.045,2.045,0,0,0,.5,2.15,1.991,1.991,0,0,0,2.816.081l1.246-1.245,2.1,2.1-.1.095a2.048,2.048,0,1,0,2.9,2.9l.094-.093,54.135,54.134-7.475,7.477-.524.522-1.6,1.6a1.01,1.01,0,0,0,.076,1.42l1.054,1.053a1.011,1.011,0,0,0,1.42.077l1.6-1.6,2.045,2.044-1.6,1.6a1.013,1.013,0,0,0,.075,1.421l1.054,1.053a1.013,1.013,0,0,0,1.421.077l1.6-1.6.521-.522,7.479-7.477.627.629a2.82,2.82,0,1,0,3.973-3.975l-61.907-61.908.093-.095a2.048,2.048,0,0,0-2.9-2.9l-.092.095-2.1-2.1,1.245-1.245a1.992,1.992,0,0,0-.082-2.816,2.051,2.051,0,0,0-2.151-.5l2.995-25.509a3.657,3.657,0,0,0-4.106-4.106l-27.49,3.227a19.07,19.07,0,0,1-1.012-4.5l-2.656,2.654a4.552,4.552,0,1,0-3.513,3.516Zm4.482,29.4,2.984-25.443,25.444-2.985-2.986,25.444Z" fill="#1f1f1f"/>
  </g>
</svg>
