<svg xmlns="http://www.w3.org/2000/svg" width="181.069" height="129.495" viewBox="0 0 181.069 129.495">
  <g id="Group_2166" data-name="Group 2166" transform="translate(-842.455 -1369.021)">
    <path id="Path_9669" data-name="Path 9669" d="M932.989,1498.516c-12.491-12.688-25.983-14.17-35.086-14.17-4.211,0-8.313.357-11.933.672-3.137.273-6.1.531-8.727.531-5.669,0-8.929-1.254-10.9-4.193-5.5-8.2-13.775-24.745-18.948-40.5-4.481-13.651-8.2-31.4-.457-38.453,11.085-10.1,26.9-12.4,42.184-14.629,17.717-2.583,34.469-5.025,43.868-18.751,9.4,13.726,26.151,16.168,43.868,18.751,15.289,2.229,31.1,4.533,42.184,14.629,7.741,7.05,4.023,24.8-.457,38.453-5.173,15.757-13.448,32.3-18.948,40.5-1.972,2.939-5.231,4.193-10.9,4.193h0c-2.626,0-5.589-.258-8.726-.531-3.62-.315-7.723-.672-11.935-.672C958.972,1484.347,945.48,1485.828,932.989,1498.516Z" fill="#1f1f1f"/>
    <path id="Path_9670" data-name="Path 9670" d="M932.989,1498.516c-12.491-12.688-25.983-14.17-35.086-14.17-4.211,0-8.313.357-11.933.672-3.137.273-6.1.531-8.727.531-5.669,0-8.929-1.254-10.9-4.193-5.5-8.2-13.775-24.745-18.948-40.5-4.481-13.651-8.2-31.4-.457-38.453,11.085-10.1,26.9-12.4,42.184-14.629,17.717-2.583,34.469-5.025,43.868-18.751,9.4,13.726,26.151,16.168,43.868,18.751,15.289,2.229,31.1,4.533,42.184,14.629,7.741,7.05,4.023,24.8-.457,38.453-5.173,15.757-13.448,32.3-18.948,40.5-1.972,2.939-5.231,4.193-10.9,4.193h0c-2.626,0-5.589-.258-8.726-.531-3.62-.315-7.723-.672-11.935-.672C958.972,1484.347,945.48,1485.828,932.989,1498.516Z" fill="#1f1f1f"/>
    <path id="Path_9671" data-name="Path 9671" d="M932.989,1489.08l-.615-.48a53.573,53.573,0,0,0-34.471-11.253c-4.513,0-8.762.369-12.51.7-3,.262-5.835.509-8.15.509-3.4,0-4.5-.57-4.761-.745l-.319-.216-.047-.192c-5.11-7.641-13.162-23.774-18.07-38.727-6.208-18.907-5.169-28.566-2.4-31.093,9.5-8.653,23.573-10.705,38.472-12.877,15.225-2.22,30.969-4.514,42.206-14.427l.662-.583.662.583c11.238,9.914,26.977,12.207,42.2,14.425,14.9,2.173,28.98,4.227,38.481,12.878,2.773,2.527,3.811,12.188-2.394,31.094-4.925,15-13.007,31.179-18.111,38.786a1.3,1.3,0,0,1-.176.224l-.181.146c-.344.218-1.493.725-4.728.725-2.331,0-5.144-.246-8.12-.506-3.763-.327-8.028-.7-12.542-.7A53.574,53.574,0,0,0,933.6,1488.6ZM897.9,1475.347a55.506,55.506,0,0,1,35.086,11.2,55.506,55.506,0,0,1,35.086-11.2c4.6,0,8.912.375,12.716.706,2.933.256,5.7.5,7.947.5a11.548,11.548,0,0,0,3.55-.377c4.98-7.482,12.9-23.369,17.745-38.126,6.331-19.289,4.7-27.4,2.947-28.992-9.047-8.239-22.83-10.25-37.422-12.378-15.219-2.217-30.946-4.508-42.57-14.332-11.623,9.822-27.355,12.115-42.579,14.334-14.587,2.127-28.365,4.136-37.413,12.377-1.407,1.281-3.619,8.985,2.949,28.991,4.832,14.722,12.73,30.575,17.767,38.14a11.961,11.961,0,0,0,3.53.363c2.228,0,5.018-.243,7.973-.5,3.794-.33,8.088-.7,12.688-.7Z" fill="#fff"/>
    <path id="Path_9672" data-name="Path 9672" d="M932.989,1495.007l-1-.883c-12.412-11-25.4-12.277-34.091-12.277-4.318,0-8.462.36-12.119.679-3.1.271-6.024.525-8.542.525-4.8,0-7.354-.895-8.824-3.086-5.406-8.06-13.547-24.349-18.649-39.89-6.009-18.3-6.417-31.027-1.149-35.825,10.517-9.578,25.937-11.827,40.849-14,15.767-2.3,32.065-4.673,42.42-15.848l1.1-1.187,1.1,1.188c10.354,11.175,26.648,13.549,42.406,15.846,14.921,2.176,30.346,4.426,40.862,14,5.268,4.8,4.859,17.521-1.149,35.825-5.1,15.544-13.243,31.833-18.648,39.89-1.47,2.192-4.026,3.086-8.822,3.086-2.523,0-5.429-.255-8.506-.522-3.685-.32-7.852-.682-12.157-.682-8.69,0-21.68,1.272-34.091,12.277Zm-35.086-16.16c8.948,0,22.218,1.284,35.086,12.171,12.868-10.887,26.138-12.171,35.086-12.171,4.435,0,8.669.367,12.406.691,3.021.264,5.864.512,8.257.513,5.151,0,5.947-1.187,6.33-1.758,5.291-7.886,13.272-23.867,18.29-39.153,5.454-16.618,6.194-28.832,1.98-32.671-9.838-8.961-24.8-11.144-39.271-13.254-15.746-2.294-32.008-4.665-43.078-15.638-11.07,10.973-27.336,13.344-43.082,15.639-14.471,2.11-29.429,4.292-39.267,13.253-4.216,3.839-3.476,16.053,1.98,32.671,5.017,15.283,13,31.266,18.29,39.153.383.57,1.179,1.758,6.333,1.758,2.387,0,5.25-.25,8.281-.514,3.716-.323,7.93-.691,12.378-.691Z" fill="#fff"/>
  </g>
</svg>
