<svg xmlns="http://www.w3.org/2000/svg" width="38.553" height="23.786" viewBox="0 0 38.553 23.786">
  <g id="Group_129" data-name="Group 129" transform="translate(-386.965 -116.61)">
    <path id="Path_513" data-name="Path 513" d="M386.965,138.7s6.083-6.619,19.36-5.956c0,0,11.085,1.323,19.193,7.652a41.545,41.545,0,0,0-20.02-5.418,36.495,36.495,0,0,0-18.533,3.97" fill="#7eba48"/>
    <path id="Path_514" data-name="Path 514" d="M398.323,116.805a5.626,5.626,0,0,0-1.214-.191,4.565,4.565,0,0,0-1.169.1,4.314,4.314,0,0,0-1.107.413,5.016,5.016,0,0,0-1.031.742,7.7,7.7,0,0,0-1.73,2.541,14.625,14.625,0,0,0-.939,3,20.389,20.389,0,0,0-.355,2.53c-.051.664-.051,1.1-.051,1.16l2.692.071a13.693,13.693,0,0,1,.084-1.418,16.534,16.534,0,0,1,.326-1.941,11.215,11.215,0,0,1,.652-2,5.362,5.362,0,0,1,1.044-1.606,3.148,3.148,0,0,1,.611-.487,2.674,2.674,0,0,1,.671-.288,2.79,2.79,0,0,1,.727-.1,3.645,3.645,0,0,1,.784.083,2.772,2.772,0,0,1,1.706,1.174,7.021,7.021,0,0,1,.983,2.287,20.266,20.266,0,0,1,.505,2.989c.109,1.068.171,2.2.213,3.317.006.137.01.268.015.392s.009.24.015.35.01.214.016.31.012.187.02.269.013.16.019.249.01.184.015.285.01.208.014.319.01.227.014.348c.028.672.062,1.525.152,2.418a14.4,14.4,0,0,0,.477,2.628,4.3,4.3,0,0,0,1.052,1.933,1.8,1.8,0,0,0,1.786.405,4.171,4.171,0,0,0,2.006-1.177,5.312,5.312,0,0,0,1.05-1.729,9.2,9.2,0,0,0,.471-1.783c.092-.547.132-1.024.16-1.341,0-.033.007-.066.009-.1s.006-.062.008-.092.006-.054.008-.078,0-.044.008-.06c0-.038.009-.079.014-.127s.009-.1.012-.15.009-.118.014-.186.01-.145.017-.229q.1-1.494.258-2.611a15.1,15.1,0,0,1,.352-1.842,10.361,10.361,0,0,1,.439-1.627c.16-.229.333-.873.517-.873h.026c.1,0,.19.6.264.667a2.787,2.787,0,0,1,.188.567,4.639,4.639,0,0,1,.132.648c.036.211.065.537.092.846l.006.1c.006.056.01.135.013.2s.007.151.009.231.006.164.008.25,0,.177.006.267c.01.408.022.928.061,1.476a10.182,10.182,0,0,0,.241,1.63,3.089,3.089,0,0,0,.567,1.257,1.046,1.046,0,0,0,1.007.385,1.4,1.4,0,0,0,.743-.371,2.526,2.526,0,0,0,.552-.814,5.507,5.507,0,0,0,.364-1.211,10.858,10.858,0,0,0,.176-1.581,5.682,5.682,0,0,1,.071-.733,1.6,1.6,0,0,1,.13-.437.489.489,0,0,1,.181-.21.432.432,0,0,1,.228-.05.243.243,0,0,1,.127.027.22.22,0,0,1,.087.13c.024.07.266.172.281.319s.263.342.263.6v.2c0,.182-.192.457-.16.767a6.894,6.894,0,0,0,.051.965,2.347,2.347,0,0,0,.279.8.548.548,0,0,0,.533.28.953.953,0,0,0,.482-.194,1.06,1.06,0,0,0,.292-.371,2.251,2.251,0,0,0,.166-.483c.039-.171.064-.35.087-.526,0-.02,0-.04.008-.058a.439.439,0,0,0,.006-.056c0-.017.007-.036.008-.052s0-.033.008-.048c.006-.031.01-.063.015-.094s.01-.064.014-.1.01-.064.014-.095.008-.063.012-.094c.022-.158.04-.287.06-.395a1.457,1.457,0,0,1,.067-.253.3.3,0,0,1,.1-.138.267.267,0,0,1,.157-.041.5.5,0,0,1,.14.01.122.122,0,0,1,.075.062.505.505,0,0,1,.044.143c.01.065.019.149.03.257,0,.029.006.059.011.089s.006.062.01.094.008.064.013.1.01.067.013.1a.552.552,0,0,1,.01.059q.005.029.007.059c0,.02.006.04.01.06s0,.04.008.061c.019.143.044.317.078.5a3.189,3.189,0,0,0,.142.526,1.112,1.112,0,0,0,.246.4.447.447,0,0,0,.376.126.515.515,0,0,0,.333-.237,1.963,1.963,0,0,0,.244-.5,4.693,4.693,0,0,0,.163-.615c.044-.207.072-.407.091-.577l-.523-.321c-.006.045-.017.122-.034.213s-.036.195-.062.294a1.584,1.584,0,0,1-.091.262c-.036.069-.074.115-.115.118a.2.2,0,0,1-.109-.017.169.169,0,0,1-.068-.092.969.969,0,0,1-.049-.2c-.015-.087-.03-.2-.047-.333,0-.025-.008-.049-.009-.073s-.008-.047-.009-.072l-.012-.069c0-.025-.008-.047-.009-.07s-.006-.035-.008-.054a.578.578,0,0,1-.008-.061c0-.019,0-.041-.008-.062s0-.045-.006-.068c-.015-.131-.032-.291-.06-.457a2.78,2.78,0,0,0-.127-.5,1.117,1.117,0,0,0-.249-.406.642.642,0,0,0-.433-.182.6.6,0,0,0-.462.188,1.4,1.4,0,0,0-.3.5,3.853,3.853,0,0,0-.174.621c-.04.209-.068.405-.089.561,0,.027-.008.053-.012.079s-.007.051-.01.074-.006.048-.01.07l-.01.062c0,.03-.01.06-.014.088s-.009.058-.013.085-.008.056-.01.081-.008.053-.011.078-.008.057-.012.086-.009.059-.011.085-.009.051-.013.069a.133.133,0,0,1-.012.04.106.106,0,0,1-.018.025.276.276,0,0,1-.057.044.469.469,0,0,1-.107.046.837.837,0,0,1-.175.029.148.148,0,0,1-.124-.049.533.533,0,0,1-.1-.216c-.032-.108.754-.254.729-.453s.752-.449.752-.761v-.173c0-.181-.835-.423-.86-.684s-.476-.546-.545-.808-.372-.507-.512-.691a1,1,0,0,0-.669-.33,1.048,1.048,0,0,0-.455.067,1.14,1.14,0,0,0-.475.38,2.689,2.689,0,0,0-.4.89,7.362,7.362,0,0,0-.222,1.584,8.026,8.026,0,0,1-.136,1.2,2.573,2.573,0,0,1-.236.7.878.878,0,0,1-.3.339.7.7,0,0,1-.32.1.472.472,0,0,1-.41-.144,1.206,1.206,0,0,1-.255-.547,6.028,6.028,0,0,1-.137-.973q-.045-.594-.06-1.414c0-.1,0-.206-.009-.3s0-.193-.008-.283-.006-.179-.011-.263-.01-.166-.016-.246l-.006-.059c-.015-.188-.041-.472-.087-.794a6.824,6.824,0,0,0-.231-1.039,3.062,3.062,0,0,0-.478-.957c-.215-.27-.491-1.044-.85-1.114-.006,0-.011-.576-.018-.576h-.052c-.532,0-.964.78-1.317,1.29a8.658,8.658,0,0,0-.841,2.391,23.666,23.666,0,0,0-.452,2.762c-.1.855-.156,1.705-.2,2.259,0,.053-.009.144-.011.2s-.008.123-.011.169-.008.1-.01.133-.006.066-.008.082c0,.036-.009.075-.013.114s-.009.08-.013.12-.008.085-.012.128-.008.089-.011.136c-.04.439-.087.88-.166,1.3a4.986,4.986,0,0,1-.356,1.171,2.61,2.61,0,0,1-.694.927,2.76,2.76,0,0,1-1.22.558.834.834,0,0,1-.791-.215,2.288,2.288,0,0,1-.523-1.015,10.426,10.426,0,0,1-.307-1.762c-.074-.706-.123-1.522-.157-2.437-.006-.125-.01-.246-.014-.362s-.01-.23-.015-.337-.011-.212-.018-.31-.013-.2-.02-.286c0-.06-.01-.132-.013-.211s-.009-.168-.012-.264-.009-.2-.012-.3-.009-.219-.011-.336c-.03-.813-.068-1.9-.176-3.085a24.081,24.081,0,0,0-.593-3.7,10.289,10.289,0,0,0-1.437-3.375,5.072,5.072,0,0,0-2.9-2.087" fill="#333"/>
  </g>
</svg>
