<svg xmlns="http://www.w3.org/2000/svg" width="66.994" height="66.995" viewBox="0 0 66.994 66.995">
  <g id="Group_148" data-name="Group 148" transform="translate(-351.847 -949.172)">
    <g id="Group_146" data-name="Group 146">
      <path id="Path_762" data-name="Path 762" d="M386.379,1002.282H384.23v-11.2a26.359,26.359,0,0,1-8.95,5.361v19.723h20.13V996.437a25.641,25.641,0,0,1-9.03-5.467Z" fill="#187b44"/>
      <path id="Path_763" data-name="Path 763" d="M418.841,972.6H405.127a56.1,56.1,0,0,1-12.42,11.957c14.237-2.865,24.9.862,24.9.862s-10.1,5.547-25.078,4.751a12.9,12.9,0,0,1,6.871,7.32,6.974,6.974,0,0,0-.965-4.76h20.407Z" fill="#187b44"/>
    </g>
    <g id="Group_147" data-name="Group 147">
      <path id="Path_764" data-name="Path 764" d="M388.338,980A54.986,54.986,0,0,1,411.157,962.1l.008-.008s-7.084.625-15.756,5.952V949.172h-8.9A57.342,57.342,0,0,1,388.338,980Z" fill="#74c045"/>
      <path id="Path_765" data-name="Path 765" d="M382.357,980a57.278,57.278,0,0,1,1.837-30.824h-8.915v18.883c-8.672-5.334-15.769-5.958-15.769-5.958A54.841,54.841,0,0,1,382.357,980Z" fill="#74c045"/>
      <path id="Path_766" data-name="Path 766" d="M378.154,990.175c-14.98.795-25.074-4.752-25.074-4.752s10.66-3.727,24.9-.861A56.107,56.107,0,0,1,365.559,972.6H351.847v20.131h20.425a6.967,6.967,0,0,0-.966,4.76,12.844,12.844,0,0,1,6.849-7.321Z" fill="#74c045"/>
    </g>
  </g>
</svg>
