<svg xmlns="http://www.w3.org/2000/svg" width="63.314" height="56.982" viewBox="0 0 63.314 56.982">
  <path id="Path_299" data-name="Path 299" d="M543.327,65.782a12.081,12.081,0,0,1,5.77-11.84c3.775-2.183,8.782-2.314,11.708-5.546,2.615-2.889,2.613-7.193,2.92-11.077s1.565-8.361,5.2-9.758c3.763-1.445,7.746,1.229,10.891,3.751L600.257,47.7c3.7,2.969,7.817,7.539,5.728,11.8-1.649,3.364-6.09,3.987-9.24,6.017-5.158,3.325-6.6,10.324-11.083,14.518-4.324,4.048-10.931,4.838-16.7,3.491C561.1,81.694,544.621,74.993,543.327,65.782Z" transform="translate(-543.235 -27.153)" fill="#284654"/>
</svg>
