<svg xmlns="http://www.w3.org/2000/svg" width="114.45" height="114.45" viewBox="0 0 114.45 114.45">
  <g id="Group_2212" data-name="Group 2212" transform="translate(-1120.475 -1509.968)">
    <path id="Path_9932" data-name="Path 9932" d="M1154.789,1621.978c4.621-.974,6.756-7.048,6.894-16.485C1155.062,1612.218,1152.237,1618,1154.789,1621.978Z" fill="#1f1f1f"/>
    <path id="Path_9933" data-name="Path 9933" d="M1122.761,1589.73c3.956,2.579,9.761-.206,16.531-6.781C1129.855,1583.022,1123.766,1585.116,1122.761,1589.73Z" fill="#1f1f1f"/>
    <path id="Path_9934" data-name="Path 9934" d="M1122.916,1544.281c.974,4.621,7.048,6.756,16.485,6.894C1132.675,1544.554,1126.889,1541.729,1122.916,1544.281Z" fill="#1f1f1f"/>
    <path id="Path_9935" data-name="Path 9935" d="M1155.163,1512.253c-2.579,3.956.206,9.761,6.781,16.531C1161.871,1519.347,1159.777,1513.259,1155.163,1512.253Z" fill="#1f1f1f"/>
    <path id="Path_9936" data-name="Path 9936" d="M1200.612,1512.408c-4.621.974-6.756,7.048-6.894,16.484C1200.339,1522.168,1203.164,1516.382,1200.612,1512.408Z" fill="#1f1f1f"/>
    <path id="Path_9937" data-name="Path 9937" d="M1232.64,1544.655c-3.956-2.579-9.761.206-16.531,6.781C1225.546,1551.363,1231.635,1549.269,1232.64,1544.655Z" fill="#1f1f1f"/>
    <path id="Path_9938" data-name="Path 9938" d="M1232.485,1590.1c-.974-4.621-7.048-6.756-16.484-6.894C1222.725,1589.832,1228.511,1592.656,1232.485,1590.1Z" fill="#1f1f1f"/>
    <path id="Path_9939" data-name="Path 9939" d="M1200.238,1622.132c2.579-3.956-.206-9.761-6.781-16.531C1193.53,1615.038,1195.624,1621.127,1200.238,1622.132Z" fill="#1f1f1f"/>
    <path id="Path_9940" data-name="Path 9940" d="M1216.1,1583.252" fill="#1f1f1f"/>
    <path id="Path_9941" data-name="Path 9941" d="M1216.209,1551.4" fill="#1f1f1f"/>
    <path id="Path_9942" data-name="Path 9942" d="M1193.76,1528.793" fill="#1f1f1f"/>
    <path id="Path_9943" data-name="Path 9943" d="M1161.9,1528.684" fill="#1f1f1f"/>
    <path id="Path_9944" data-name="Path 9944" d="M1139.3,1551.133" fill="#1f1f1f"/>
    <path id="Path_9945" data-name="Path 9945" d="M1139.192,1582.99" fill="#1f1f1f"/>
    <path id="Path_9946" data-name="Path 9946" d="M1161.641,1605.593" fill="#1f1f1f"/>
    <path id="Path_9947" data-name="Path 9947" d="M1193.5,1605.7" fill="#1f1f1f"/>
    <path id="Path_9948" data-name="Path 9948" d="M1216.1,1583.252" fill="#1f1f1f"/>
    <path id="Path_9949" data-name="Path 9949" d="M1216.209,1551.4" fill="#1f1f1f"/>
    <path id="Path_9950" data-name="Path 9950" d="M1193.76,1528.793" fill="#1f1f1f"/>
    <path id="Path_9951" data-name="Path 9951" d="M1161.9,1528.684" fill="#1f1f1f"/>
    <path id="Path_9952" data-name="Path 9952" d="M1139.3,1551.133" fill="#1f1f1f"/>
    <path id="Path_9953" data-name="Path 9953" d="M1139.192,1582.99" fill="#1f1f1f"/>
    <path id="Path_9954" data-name="Path 9954" d="M1161.641,1605.593" fill="#1f1f1f"/>
    <path id="Path_9955" data-name="Path 9955" d="M1193.5,1605.7" fill="#1f1f1f"/>
    <path id="Path_9956" data-name="Path 9956" d="M1216.1,1583.252" fill="#1f1f1f"/>
    <path id="Path_9957" data-name="Path 9957" d="M1216.209,1551.4" fill="#1f1f1f"/>
    <path id="Path_9958" data-name="Path 9958" d="M1193.76,1528.793" fill="#1f1f1f"/>
    <path id="Path_9959" data-name="Path 9959" d="M1161.9,1528.684" fill="#1f1f1f"/>
    <path id="Path_9960" data-name="Path 9960" d="M1139.3,1551.133" fill="#1f1f1f"/>
    <path id="Path_9961" data-name="Path 9961" d="M1139.192,1582.99" fill="#1f1f1f"/>
    <path id="Path_9962" data-name="Path 9962" d="M1161.641,1605.593" fill="#1f1f1f"/>
    <path id="Path_9963" data-name="Path 9963" d="M1193.5,1605.7" fill="#1f1f1f"/>
    <path id="Path_9964" data-name="Path 9964" d="M1216.1,1583.252" fill="#1f1f1f"/>
    <path id="Path_9965" data-name="Path 9965" d="M1216.209,1551.4" fill="#1f1f1f"/>
    <path id="Path_9966" data-name="Path 9966" d="M1193.76,1528.793" fill="#1f1f1f"/>
    <path id="Path_9967" data-name="Path 9967" d="M1161.9,1528.684" fill="#1f1f1f"/>
    <path id="Path_9968" data-name="Path 9968" d="M1139.3,1551.133" fill="#1f1f1f"/>
    <path id="Path_9969" data-name="Path 9969" d="M1139.192,1582.99" fill="#1f1f1f"/>
    <path id="Path_9970" data-name="Path 9970" d="M1161.641,1605.593" fill="#1f1f1f"/>
    <path id="Path_9971" data-name="Path 9971" d="M1193.5,1605.7" fill="#1f1f1f"/>
    <path id="Path_9972" data-name="Path 9972" d="M1216.1,1583.252" fill="#1f1f1f"/>
    <path id="Path_9973" data-name="Path 9973" d="M1216.209,1551.4" fill="#1f1f1f"/>
    <path id="Path_9974" data-name="Path 9974" d="M1193.76,1528.793" fill="#1f1f1f"/>
    <path id="Path_9975" data-name="Path 9975" d="M1161.9,1528.684" fill="#1f1f1f"/>
    <path id="Path_9976" data-name="Path 9976" d="M1139.3,1551.133" fill="#1f1f1f"/>
    <path id="Path_9977" data-name="Path 9977" d="M1139.192,1582.99" fill="#1f1f1f"/>
    <path id="Path_9978" data-name="Path 9978" d="M1161.641,1605.593" fill="#1f1f1f"/>
    <path id="Path_9979" data-name="Path 9979" d="M1193.5,1605.7" fill="#1f1f1f"/>
    <path id="Path_9980" data-name="Path 9980" d="M1216.1,1583.252" fill="#1f1f1f"/>
    <path id="Path_9981" data-name="Path 9981" d="M1216.209,1551.4" fill="#1f1f1f"/>
    <path id="Path_9982" data-name="Path 9982" d="M1193.76,1528.793" fill="#1f1f1f"/>
    <path id="Path_9983" data-name="Path 9983" d="M1161.9,1528.684" fill="#1f1f1f"/>
    <path id="Path_9984" data-name="Path 9984" d="M1139.3,1551.133" fill="#1f1f1f"/>
    <path id="Path_9985" data-name="Path 9985" d="M1139.192,1582.99" fill="#1f1f1f"/>
    <path id="Path_9986" data-name="Path 9986" d="M1161.641,1605.593" fill="#1f1f1f"/>
    <path id="Path_9987" data-name="Path 9987" d="M1193.5,1605.7" fill="#1f1f1f"/>
    <path id="Path_9988" data-name="Path 9988" d="M1216.1,1583.252" fill="#1f1f1f"/>
    <path id="Path_9989" data-name="Path 9989" d="M1216.209,1551.4" fill="#1f1f1f"/>
    <path id="Path_9990" data-name="Path 9990" d="M1193.76,1528.793" fill="#1f1f1f"/>
    <path id="Path_9991" data-name="Path 9991" d="M1161.9,1528.684" fill="#1f1f1f"/>
    <path id="Path_9992" data-name="Path 9992" d="M1139.3,1551.133" fill="#1f1f1f"/>
    <path id="Path_9993" data-name="Path 9993" d="M1139.192,1582.99" fill="#1f1f1f"/>
    <path id="Path_9994" data-name="Path 9994" d="M1161.641,1605.593" fill="#1f1f1f"/>
    <path id="Path_9995" data-name="Path 9995" d="M1193.5,1605.7" fill="#1f1f1f"/>
    <path id="Path_9996" data-name="Path 9996" d="M1216.1,1583.252" fill="#1f1f1f"/>
    <path id="Path_9997" data-name="Path 9997" d="M1216.209,1551.4" fill="#1f1f1f"/>
    <path id="Path_9998" data-name="Path 9998" d="M1193.76,1528.793" fill="#1f1f1f"/>
    <path id="Path_9999" data-name="Path 9999" d="M1161.9,1528.684" fill="#1f1f1f"/>
    <path id="Path_10000" data-name="Path 10000" d="M1139.3,1551.133" fill="#1f1f1f"/>
    <path id="Path_10001" data-name="Path 10001" d="M1139.192,1582.99" fill="#1f1f1f"/>
    <path id="Path_10002" data-name="Path 10002" d="M1161.641,1605.593" fill="#1f1f1f"/>
    <path id="Path_10003" data-name="Path 10003" d="M1193.5,1605.7" fill="#1f1f1f"/>
    <path id="Path_10004" data-name="Path 10004" d="M1216.1,1583.252" fill="#1f1f1f"/>
    <path id="Path_10005" data-name="Path 10005" d="M1216.209,1551.4" fill="#1f1f1f"/>
    <path id="Path_10006" data-name="Path 10006" d="M1193.76,1528.793" fill="#1f1f1f"/>
    <path id="Path_10007" data-name="Path 10007" d="M1161.9,1528.684" fill="#1f1f1f"/>
    <path id="Path_10008" data-name="Path 10008" d="M1139.3,1551.133" fill="#1f1f1f"/>
    <path id="Path_10009" data-name="Path 10009" d="M1139.192,1582.99" fill="#1f1f1f"/>
    <path id="Path_10010" data-name="Path 10010" d="M1161.641,1605.593" fill="#1f1f1f"/>
    <path id="Path_10011" data-name="Path 10011" d="M1193.5,1605.7" fill="#1f1f1f"/>
    <path id="Path_10012" data-name="Path 10012" d="M1216.1,1583.252" fill="#1f1f1f"/>
    <path id="Path_10013" data-name="Path 10013" d="M1216.209,1551.4" fill="#1f1f1f"/>
    <path id="Path_10014" data-name="Path 10014" d="M1193.76,1528.793" fill="#1f1f1f"/>
    <path id="Path_10015" data-name="Path 10015" d="M1161.9,1528.684" fill="#1f1f1f"/>
    <path id="Path_10016" data-name="Path 10016" d="M1139.3,1551.133" fill="#1f1f1f"/>
    <path id="Path_10017" data-name="Path 10017" d="M1139.192,1582.99" fill="#1f1f1f"/>
    <path id="Path_10018" data-name="Path 10018" d="M1161.641,1605.593" fill="#1f1f1f"/>
    <path id="Path_10019" data-name="Path 10019" d="M1193.5,1605.7" fill="#1f1f1f"/>
    <path id="Path_10020" data-name="Path 10020" d="M1216.1,1583.252" fill="#1f1f1f"/>
    <path id="Path_10021" data-name="Path 10021" d="M1216.209,1551.4" fill="#1f1f1f"/>
    <path id="Path_10022" data-name="Path 10022" d="M1193.76,1528.793" fill="#1f1f1f"/>
    <path id="Path_10023" data-name="Path 10023" d="M1161.9,1528.684" fill="#1f1f1f"/>
    <path id="Path_10024" data-name="Path 10024" d="M1139.3,1551.133" fill="#1f1f1f"/>
    <path id="Path_10025" data-name="Path 10025" d="M1139.192,1582.99" fill="#1f1f1f"/>
    <path id="Path_10026" data-name="Path 10026" d="M1161.641,1605.593" fill="#1f1f1f"/>
    <path id="Path_10027" data-name="Path 10027" d="M1193.5,1605.7" fill="#1f1f1f"/>
    <path id="Path_10028" data-name="Path 10028" d="M1216.1,1583.252" fill="#1f1f1f"/>
    <path id="Path_10029" data-name="Path 10029" d="M1216.209,1551.4" fill="#1f1f1f"/>
    <path id="Path_10030" data-name="Path 10030" d="M1193.76,1528.793" fill="#1f1f1f"/>
    <path id="Path_10031" data-name="Path 10031" d="M1161.9,1528.684" fill="#1f1f1f"/>
    <path id="Path_10032" data-name="Path 10032" d="M1139.3,1551.133" fill="#1f1f1f"/>
    <path id="Path_10033" data-name="Path 10033" d="M1139.192,1582.99" fill="#1f1f1f"/>
    <path id="Path_10034" data-name="Path 10034" d="M1161.641,1605.593" fill="#1f1f1f"/>
    <path id="Path_10035" data-name="Path 10035" d="M1193.5,1605.7" fill="#1f1f1f"/>
    <path id="Path_10036" data-name="Path 10036" d="M1216.1,1583.252" fill="#1f1f1f"/>
    <path id="Path_10037" data-name="Path 10037" d="M1216.209,1551.4" fill="#1f1f1f"/>
    <path id="Path_10038" data-name="Path 10038" d="M1193.76,1528.793" fill="#1f1f1f"/>
    <path id="Path_10039" data-name="Path 10039" d="M1161.9,1528.684" fill="#1f1f1f"/>
    <path id="Path_10040" data-name="Path 10040" d="M1139.3,1551.133" fill="#1f1f1f"/>
    <path id="Path_10041" data-name="Path 10041" d="M1139.192,1582.99" fill="#1f1f1f"/>
    <path id="Path_10042" data-name="Path 10042" d="M1161.641,1605.593" fill="#1f1f1f"/>
    <path id="Path_10043" data-name="Path 10043" d="M1193.5,1605.7" fill="#1f1f1f"/>
    <path id="Path_10044" data-name="Path 10044" d="M1216.1,1583.252" fill="#1f1f1f"/>
    <path id="Path_10045" data-name="Path 10045" d="M1216.209,1551.4" fill="#1f1f1f"/>
    <path id="Path_10046" data-name="Path 10046" d="M1193.76,1528.793" fill="#1f1f1f"/>
    <path id="Path_10047" data-name="Path 10047" d="M1161.9,1528.684" fill="#1f1f1f"/>
    <path id="Path_10048" data-name="Path 10048" d="M1139.3,1551.133" fill="#1f1f1f"/>
    <path id="Path_10049" data-name="Path 10049" d="M1139.192,1582.99" fill="#1f1f1f"/>
    <path id="Path_10050" data-name="Path 10050" d="M1161.641,1605.593" fill="#1f1f1f"/>
    <path id="Path_10051" data-name="Path 10051" d="M1193.5,1605.7" fill="#1f1f1f"/>
    <path id="Path_10052" data-name="Path 10052" d="M1216.1,1583.252" fill="#1f1f1f"/>
    <path id="Path_10053" data-name="Path 10053" d="M1216.209,1551.4" fill="#1f1f1f"/>
    <path id="Path_10054" data-name="Path 10054" d="M1193.76,1528.793" fill="#1f1f1f"/>
    <path id="Path_10055" data-name="Path 10055" d="M1161.9,1528.684" fill="#1f1f1f"/>
    <path id="Path_10056" data-name="Path 10056" d="M1139.3,1551.133" fill="#1f1f1f"/>
    <path id="Path_10057" data-name="Path 10057" d="M1139.192,1582.99" fill="#1f1f1f"/>
    <path id="Path_10058" data-name="Path 10058" d="M1161.641,1605.593" fill="#1f1f1f"/>
    <path id="Path_10059" data-name="Path 10059" d="M1193.5,1605.7" fill="#1f1f1f"/>
    <path id="Path_10060" data-name="Path 10060" d="M1216.1,1583.252" fill="#1f1f1f"/>
    <path id="Path_10061" data-name="Path 10061" d="M1216.209,1551.4" fill="#1f1f1f"/>
    <path id="Path_10062" data-name="Path 10062" d="M1193.76,1528.793" fill="#1f1f1f"/>
    <path id="Path_10063" data-name="Path 10063" d="M1161.9,1528.684" fill="#1f1f1f"/>
    <path id="Path_10064" data-name="Path 10064" d="M1139.3,1551.133" fill="#1f1f1f"/>
    <path id="Path_10065" data-name="Path 10065" d="M1139.192,1582.99" fill="#1f1f1f"/>
    <path id="Path_10066" data-name="Path 10066" d="M1161.641,1605.593" fill="#1f1f1f"/>
    <path id="Path_10067" data-name="Path 10067" d="M1193.5,1605.7" fill="#1f1f1f"/>
    <path id="Path_10068" data-name="Path 10068" d="M1216.1,1583.252" fill="#1f1f1f"/>
    <path id="Path_10069" data-name="Path 10069" d="M1216.209,1551.4" fill="#1f1f1f"/>
    <path id="Path_10070" data-name="Path 10070" d="M1193.76,1528.793" fill="#1f1f1f"/>
    <path id="Path_10071" data-name="Path 10071" d="M1161.9,1528.684" fill="#1f1f1f"/>
    <path id="Path_10072" data-name="Path 10072" d="M1139.3,1551.133" fill="#1f1f1f"/>
    <path id="Path_10073" data-name="Path 10073" d="M1139.192,1582.99" fill="#1f1f1f"/>
    <path id="Path_10074" data-name="Path 10074" d="M1161.641,1605.593" fill="#1f1f1f"/>
    <path id="Path_10075" data-name="Path 10075" d="M1193.5,1605.7" fill="#1f1f1f"/>
    <path id="Path_10076" data-name="Path 10076" d="M1216.1,1583.252" fill="#1f1f1f"/>
    <path id="Path_10077" data-name="Path 10077" d="M1216.209,1551.4" fill="#1f1f1f"/>
    <path id="Path_10078" data-name="Path 10078" d="M1193.76,1528.793" fill="#1f1f1f"/>
    <path id="Path_10079" data-name="Path 10079" d="M1161.9,1528.684" fill="#1f1f1f"/>
    <path id="Path_10080" data-name="Path 10080" d="M1139.3,1551.133" fill="#1f1f1f"/>
    <path id="Path_10081" data-name="Path 10081" d="M1139.192,1582.99" fill="#1f1f1f"/>
    <path id="Path_10082" data-name="Path 10082" d="M1161.641,1605.593" fill="#1f1f1f"/>
    <path id="Path_10083" data-name="Path 10083" d="M1193.5,1605.7" fill="#1f1f1f"/>
    <path id="Path_10084" data-name="Path 10084" d="M1216.1,1583.252" fill="#1f1f1f"/>
    <path id="Path_10085" data-name="Path 10085" d="M1216.209,1551.4" fill="#1f1f1f"/>
    <path id="Path_10086" data-name="Path 10086" d="M1193.76,1528.793" fill="#1f1f1f"/>
    <path id="Path_10087" data-name="Path 10087" d="M1161.9,1528.684" fill="#1f1f1f"/>
    <path id="Path_10088" data-name="Path 10088" d="M1139.3,1551.133" fill="#1f1f1f"/>
    <path id="Path_10089" data-name="Path 10089" d="M1139.192,1582.99" fill="#1f1f1f"/>
    <path id="Path_10090" data-name="Path 10090" d="M1161.641,1605.593" fill="#1f1f1f"/>
    <path id="Path_10091" data-name="Path 10091" d="M1193.5,1605.7" fill="#1f1f1f"/>
    <path id="Path_10092" data-name="Path 10092" d="M1216.1,1583.252" fill="#1f1f1f"/>
    <path id="Path_10093" data-name="Path 10093" d="M1216.209,1551.4" fill="#1f1f1f"/>
    <path id="Path_10094" data-name="Path 10094" d="M1193.76,1528.793" fill="#1f1f1f"/>
    <path id="Path_10095" data-name="Path 10095" d="M1161.9,1528.684" fill="#1f1f1f"/>
    <path id="Path_10096" data-name="Path 10096" d="M1139.3,1551.133" fill="#1f1f1f"/>
    <path id="Path_10097" data-name="Path 10097" d="M1139.192,1582.99" fill="#1f1f1f"/>
    <path id="Path_10098" data-name="Path 10098" d="M1161.641,1605.593" fill="#1f1f1f"/>
    <path id="Path_10099" data-name="Path 10099" d="M1193.5,1605.7" fill="#1f1f1f"/>
    <path id="Path_10100" data-name="Path 10100" d="M1216.1,1583.252" fill="#1f1f1f"/>
    <path id="Path_10101" data-name="Path 10101" d="M1216.209,1551.4" fill="#1f1f1f"/>
    <path id="Path_10102" data-name="Path 10102" d="M1193.76,1528.793" fill="#1f1f1f"/>
    <path id="Path_10103" data-name="Path 10103" d="M1161.9,1528.684" fill="#1f1f1f"/>
    <path id="Path_10104" data-name="Path 10104" d="M1139.3,1551.133" fill="#1f1f1f"/>
    <path id="Path_10105" data-name="Path 10105" d="M1139.192,1582.99" fill="#1f1f1f"/>
    <path id="Path_10106" data-name="Path 10106" d="M1161.641,1605.593" fill="#1f1f1f"/>
    <path id="Path_10107" data-name="Path 10107" d="M1193.5,1605.7" fill="#1f1f1f"/>
    <path id="Path_10108" data-name="Path 10108" d="M1216.1,1583.252" fill="#1f1f1f"/>
    <path id="Path_10109" data-name="Path 10109" d="M1216.209,1551.4" fill="#1f1f1f"/>
    <path id="Path_10110" data-name="Path 10110" d="M1193.76,1528.793" fill="#1f1f1f"/>
    <path id="Path_10111" data-name="Path 10111" d="M1161.9,1528.684" fill="#1f1f1f"/>
    <path id="Path_10112" data-name="Path 10112" d="M1139.3,1551.133" fill="#1f1f1f"/>
    <path id="Path_10113" data-name="Path 10113" d="M1139.192,1582.99" fill="#1f1f1f"/>
    <path id="Path_10114" data-name="Path 10114" d="M1161.641,1605.593" fill="#1f1f1f"/>
    <path id="Path_10115" data-name="Path 10115" d="M1193.5,1605.7" fill="#1f1f1f"/>
    <path id="Path_10116" data-name="Path 10116" d="M1216.1,1583.252" fill="#1f1f1f"/>
    <path id="Path_10117" data-name="Path 10117" d="M1216.209,1551.4" fill="#1f1f1f"/>
    <path id="Path_10118" data-name="Path 10118" d="M1193.76,1528.793" fill="#1f1f1f"/>
    <path id="Path_10119" data-name="Path 10119" d="M1161.9,1528.684" fill="#1f1f1f"/>
    <path id="Path_10120" data-name="Path 10120" d="M1139.3,1551.133" fill="#1f1f1f"/>
    <path id="Path_10121" data-name="Path 10121" d="M1139.192,1582.99" fill="#1f1f1f"/>
    <path id="Path_10122" data-name="Path 10122" d="M1161.641,1605.593" fill="#1f1f1f"/>
    <path id="Path_10123" data-name="Path 10123" d="M1193.5,1605.7" fill="#1f1f1f"/>
    <path id="Path_10124" data-name="Path 10124" d="M1216.1,1583.252" fill="#1f1f1f"/>
    <path id="Path_10125" data-name="Path 10125" d="M1216.209,1551.4" fill="#1f1f1f"/>
    <path id="Path_10126" data-name="Path 10126" d="M1193.76,1528.793" fill="#1f1f1f"/>
    <path id="Path_10127" data-name="Path 10127" d="M1161.9,1528.684" fill="#1f1f1f"/>
    <path id="Path_10128" data-name="Path 10128" d="M1139.3,1551.133" fill="#1f1f1f"/>
    <path id="Path_10129" data-name="Path 10129" d="M1139.192,1582.99" fill="#1f1f1f"/>
    <path id="Path_10130" data-name="Path 10130" d="M1161.641,1605.593" fill="#1f1f1f"/>
    <path id="Path_10131" data-name="Path 10131" d="M1193.5,1605.7" fill="#1f1f1f"/>
    <path id="Path_10132" data-name="Path 10132" d="M1216.1,1583.252" fill="#1f1f1f"/>
    <path id="Path_10133" data-name="Path 10133" d="M1216.209,1551.4" fill="#1f1f1f"/>
    <path id="Path_10134" data-name="Path 10134" d="M1193.76,1528.793" fill="#1f1f1f"/>
    <path id="Path_10135" data-name="Path 10135" d="M1161.9,1528.684" fill="#1f1f1f"/>
    <path id="Path_10136" data-name="Path 10136" d="M1139.3,1551.133" fill="#1f1f1f"/>
    <path id="Path_10137" data-name="Path 10137" d="M1139.192,1582.99" fill="#1f1f1f"/>
    <path id="Path_10138" data-name="Path 10138" d="M1161.641,1605.593" fill="#1f1f1f"/>
    <path id="Path_10139" data-name="Path 10139" d="M1193.5,1605.7" fill="#1f1f1f"/>
    <path id="Path_10140" data-name="Path 10140" d="M1216.1,1583.252" fill="#1f1f1f"/>
    <path id="Path_10141" data-name="Path 10141" d="M1216.209,1551.4" fill="#1f1f1f"/>
    <path id="Path_10142" data-name="Path 10142" d="M1193.76,1528.793" fill="#1f1f1f"/>
    <path id="Path_10143" data-name="Path 10143" d="M1161.9,1528.684" fill="#1f1f1f"/>
    <path id="Path_10144" data-name="Path 10144" d="M1139.3,1551.133" fill="#1f1f1f"/>
    <path id="Path_10145" data-name="Path 10145" d="M1139.192,1582.99" fill="#1f1f1f"/>
    <path id="Path_10146" data-name="Path 10146" d="M1161.641,1605.593" fill="#1f1f1f"/>
    <path id="Path_10147" data-name="Path 10147" d="M1193.5,1605.7" fill="#1f1f1f"/>
    <path id="Path_10148" data-name="Path 10148" d="M1216.1,1583.252" fill="#1f1f1f"/>
    <path id="Path_10149" data-name="Path 10149" d="M1216.209,1551.4" fill="#1f1f1f"/>
    <path id="Path_10150" data-name="Path 10150" d="M1193.76,1528.793" fill="#1f1f1f"/>
    <path id="Path_10151" data-name="Path 10151" d="M1161.9,1528.684" fill="#1f1f1f"/>
    <path id="Path_10152" data-name="Path 10152" d="M1139.3,1551.133" fill="#1f1f1f"/>
    <path id="Path_10153" data-name="Path 10153" d="M1139.192,1582.99" fill="#1f1f1f"/>
    <path id="Path_10154" data-name="Path 10154" d="M1161.641,1605.593" fill="#1f1f1f"/>
    <path id="Path_10155" data-name="Path 10155" d="M1193.5,1605.7" fill="#1f1f1f"/>
    <path id="Path_10156" data-name="Path 10156" d="M1216.1,1583.252" fill="#1f1f1f"/>
    <path id="Path_10157" data-name="Path 10157" d="M1216.209,1551.4" fill="#1f1f1f"/>
    <path id="Path_10158" data-name="Path 10158" d="M1193.76,1528.793" fill="#1f1f1f"/>
    <path id="Path_10159" data-name="Path 10159" d="M1161.9,1528.684" fill="#1f1f1f"/>
    <path id="Path_10160" data-name="Path 10160" d="M1139.3,1551.133" fill="#1f1f1f"/>
    <path id="Path_10161" data-name="Path 10161" d="M1139.192,1582.99" fill="#1f1f1f"/>
    <path id="Path_10162" data-name="Path 10162" d="M1161.641,1605.593" fill="#1f1f1f"/>
    <path id="Path_10163" data-name="Path 10163" d="M1193.5,1605.7" fill="#1f1f1f"/>
    <path id="Path_10164" data-name="Path 10164" d="M1216.1,1583.252" fill="#1f1f1f"/>
    <path id="Path_10165" data-name="Path 10165" d="M1216.209,1551.4" fill="#1f1f1f"/>
    <path id="Path_10166" data-name="Path 10166" d="M1193.76,1528.793" fill="#1f1f1f"/>
    <path id="Path_10167" data-name="Path 10167" d="M1161.9,1528.684" fill="#1f1f1f"/>
    <path id="Path_10168" data-name="Path 10168" d="M1139.3,1551.133" fill="#1f1f1f"/>
    <path id="Path_10169" data-name="Path 10169" d="M1139.192,1582.99" fill="#1f1f1f"/>
    <path id="Path_10170" data-name="Path 10170" d="M1120.475,1567c7.63,5.046-8.36,18.628,24.2,13.741-26.615,19.39-5.693,17.83-7.581,26.78,8.963-1.827,7.261,19.084,26.831-7.4-5.109,32.53,8.582,16.633,13.576,24.3,5.046-7.63,18.628,8.36,13.741-24.2,19.39,26.615,17.83,5.693,26.78,7.581-1.827-8.963,19.084-7.26-7.4-26.831,32.53,5.109,16.633-8.582,24.3-13.576-7.63-5.046,8.36-18.628-24.2-13.741,26.615-19.39,5.693-17.83,7.581-26.78-8.963,1.827-7.261-19.084-26.831,7.4,5.109-32.53-8.582-16.633-13.576-24.3-5.046,7.63-18.628-8.36-13.741,24.2-19.39-26.615-17.83-5.693-26.78-7.581,1.827,8.963-19.084,7.261,7.4,26.831C1112.242,1548.313,1128.14,1562,1120.475,1567Zm50.6-2.577c-25.732-10.96-27.688-22.287-13.96-17.956-4.237-13.758,7.077-11.724,17.861,14.082-10.446-25.945-3.819-35.338,2.826-22.568,6.732-12.725,13.294-3.287,2.672,22.587,10.96-25.732,22.287-27.688,17.956-13.959,13.758-4.238,11.724,7.076-14.082,17.861,25.945-10.446,35.338-3.819,22.568,2.826,12.725,6.732,3.287,13.294-22.587,2.672,25.732,10.96,27.688,22.287,13.959,17.956,4.238,13.758-7.076,11.724-17.861-14.082,10.446,25.945,3.819,35.338-2.826,22.568-6.732,12.725-13.294,3.287-2.672-22.587-10.96,25.732-22.287,27.688-17.956,13.959-13.758,4.238-11.724-7.076,14.082-17.861-25.945,10.446-35.338,3.819-22.568-2.826-12.724-6.732-3.286-13.294,22.587-2.672Z" fill="#1f1f1f"/>
    <circle id="Ellipse_120" data-name="Ellipse 120" cx="11.64" cy="11.64" r="11.64" transform="translate(1161.247 1567.194) rotate(-45)" fill="#1f1f1f"/>
  </g>
</svg>
