<svg xmlns="http://www.w3.org/2000/svg" width="55.645" height="38.794" viewBox="0 0 55.645 38.794">
  <g id="Group_378" data-name="Group 378" transform="translate(-502.517 -440.065)">
    <path id="Path_1480" data-name="Path 1480" d="M513.8,442.782c0-.019,0-.037.005-.059l-.018.059Z" fill="#537082"/>
    <path id="Path_1481" data-name="Path 1481" d="M558.031,467.5c.267-6.269.07-13.143-.092-17.03Z" fill="none"/>
    <path id="Path_1482" data-name="Path 1482" d="M513.81,442.723c.048-.57.08-2.072-.869-2.4-1.178-.41-6.913-.239-7.258-.1-.156.063-.251.515-.3,1.026-.1,1.224,1.014,1.51,1.774,1.566,1.881-.007,4.136-.018,6.632-.031Z" fill="#537082"/>
    <path id="Path_1483" data-name="Path 1483" d="M557.786,447.332s-.1-1.339-.193-2.5c-.073-.51-.5-1.83-2.933-1.462a28.9,28.9,0,0,1-3.272.108c-6.17-.07-11.041.06-11.664.063s-9.437-.154-9.644-.152-8.4.3-11.041.471-8.033.2-9.328.31-5.7.083-6.842.4c-.616,1.351-.236,4.3-.231,5.238s.023,13.685.024,13.893.02,13.634.23,14.1,28.885,1.346,42.051.912c3.976.2,8.335.37,11.859-.825a52.282,52.282,0,0,0,1.23-10.388l-.092-17.03C557.858,448.535,557.786,447.332,557.786,447.332Zm-26.469,23.984c-12.138-.344-14.311-7.368-13.828-12.439s3.545-10.91,10.715-10.208c7.7.753,14.384,4.867,14.412,10.071s.841,12.917-11.3,12.575Zm22.933-21.992c-1.522-.268-9.676.467-10.715.058s-.216-2.073-.02-3.734c.118-.708,11.4-1.444,11.407-.062s.848,4.005-.673,3.737Z" fill="#537082"/>
    <path id="Path_1484" data-name="Path 1484" d="M528.2,448.669c-7.17-.7-10.229,5.137-10.715,10.208s1.69,12.095,13.828,12.439,11.328-7.37,11.3-12.575S535.9,449.422,528.2,448.669Zm12.988,15.642c-1.212,7.036-14.714,6.98-19.485,3.138s-3.249-10.6-.083-15.188c1.755-2.543,8.739-2.4,12.741-1.651S542.4,457.275,541.192,464.312Z" fill="#4b5054"/>
    <path id="Path_1485" data-name="Path 1485" d="M534.365,450.61c-4-.751-10.986-.892-12.741,1.651-3.166,4.588-4.689,11.343.083,15.188s18.273,3.9,19.485-3.138S538.37,451.363,534.365,450.61Zm-3.519,16.672c-7.695-.218-9.073-4.672-8.766-7.885s2.247-6.917,6.793-6.472c4.879.478,9.118,3.086,9.136,6.386s.534,8.188-7.163,7.972Z" fill="#e6e6e6"/>
    <path id="Path_1486" data-name="Path 1486" d="M528.873,452.924c-4.545-.444-6.485,3.258-6.793,6.472s1.071,7.668,8.766,7.885,7.18-4.672,7.163-7.972S533.753,453.4,528.873,452.924Z" fill="#4b5054"/>
    <path id="Path_1487" data-name="Path 1487" d="M543.514,445.648c-.2,1.661-1.021,3.325.02,3.734s9.193-.326,10.715-.058.68-2.355.672-3.737S543.632,444.94,543.514,445.648Zm10.564,2.817c-.213.442-2.369-.184-3.249.017a38.48,38.48,0,0,1-7,.038c.015-1.13.015-1.13.013-2.211a20.935,20.935,0,0,1,4.138-.751c5.356-.19,6.36.694,6.36.694A10.138,10.138,0,0,1,554.078,448.465Z" fill="#4b5054"/>
    <path id="Path_1488" data-name="Path 1488" d="M547.98,445.559a20.934,20.934,0,0,0-4.138.751c0,1.081,0,1.081-.013,2.211a38.48,38.48,0,0,0,7-.038c.881-.2,3.037.424,3.249-.017a10.135,10.135,0,0,0,.261-2.212S553.335,445.368,547.98,445.559Z" fill="#eebe47"/>
  </g>
</svg>
