<svg xmlns="http://www.w3.org/2000/svg" width="297.05" height="297.049" viewBox="0 0 297.05 297.049">
  <g id="Group_2264" data-name="Group 2264" transform="translate(-1342.531 -1068.638)">
    <path id="Path_10395" data-name="Path 10395" d="M1529.477,1295.377a2.433,2.433,0,0,0-2.04,1.106v-2.009a10.18,10.18,0,0,1-2.083,1.318l-9.178-11.62a1.957,1.957,0,0,0-3.106,0l-8.518,10.782a1.1,1.1,0,0,0-1.006-.623,1.065,1.065,0,0,0-1.094,1.034v.943h-1.586v-.071a1.1,1.1,0,0,0-2.191,0v.071h-46.838a1.509,1.509,0,1,0,0,3.007h.475v7.265a.54.54,0,0,0,.567.508h.8a.541.541,0,0,0,.566-.508v-1.213h1.548v1.213a.539.539,0,0,0,.565.508h.8a.54.54,0,0,0,.566-.508v-7.265h40.957v.072a1.1,1.1,0,0,0,2.191,0v-.072h1.586v.943a1.065,1.065,0,0,0,1.094,1.034,1.1,1.1,0,0,0,1.006-.622l8.518,10.783a1.958,1.958,0,0,0,3.106,0l9.178-11.619a10.184,10.184,0,0,1,2.084,1.318v-2.01a2.435,2.435,0,1,0,2.04-3.764Zm-14.855,13.19-8.5-10.755,8.5-10.754,8.5,10.754Z" fill="#1f1f1f"/>
    <g id="Group_2259" data-name="Group 2259">
      <path id="Path_10396" data-name="Path 10396" d="M1440.708,1205.3a30.591,30.591,0,0,1-3.3-14.7,13.73,13.73,0,0,0-.935,4.735c-.167,5.251-2.763,13.924-4.438,18.707.038-.281,4.056-12.618,3.547-20.818s-7.939-16.287-11.6-15.326c-3.774.992-10.89,9.89-10.656,15.773,1.1,2.71,5.322,7.388,5.409,7.828-1.331-1.026-4.483-2.713-6.29-5.656,1.066,2.991,2.926,17.5,6.525,25.672,4.021,4.476,15.14,12.3,20.179,14.1-5.325-1.6-10.734-4.022-13.614-6.127-3.076-2.247-5.776-4.019-7.712-3.837,1.984.538,2.738,1.491,6.162,8.779s12.108,20.245,15.9,23.726c4.643,2.589,17.9,5.564,21.034,5.252h0c-3.046.75-11.807-1.791-17.56-.527,3-.474,5.186,2.945,8.476,5.792s15.023,5.2,19.71,4.225c-2.789,1.072-9.55,1.067-9.55,1.067,2.89.368,9.145,3.022,9.145,3.022s4.292-.369,6.045-.541c.047.028.1.057.143.087-1.716.687-2.173,1.322-2.043,2.41.252-1.091,2.409-1.28,4.193-1.175a65.646,65.646,0,0,0,12.328,5.3,51.868,51.868,0,0,0,8.522,1.9c1.08.141,1.9.2,2.39.227.958.05,1,.02,1.108-.062l.033-.024.027-.03.153-.176-.087-.215c-.091-.22-.26-.237-.565-.267-3-.3-11.743-1.759-23.15-8.557a6.822,6.822,0,0,1-1.49-4.05l-.63,2.49a45.821,45.821,0,0,0-1.717-5.787c-.589-1.074-4.028-6.08-5.219-9.23,0,0,.648,6.078-.133,9.69,0,0,.133-9.69-1.548-12.475s-7.907-10-8.308-12.479a32.875,32.875,0,0,1-1.149,7.42c.078-3.844.811-8.177-3.08-13.1s-7.354-11.929-6.472-14.1c-2.277,2.708-4.833,9.663-6.243,12.48a139.831,139.831,0,0,0,4.17-13.458C1447.868,1221.918,1444.547,1212.786,1440.708,1205.3Zm62.883,79.537h0c-.066.05-18.392.073-37.917-17.4-15.373-13.753-29.158-36.551-34.8-53.545,6.546,16.823,21.115,39.868,35.944,52.69,20.527,17.75,36.852,18.161,36.772,18.25Z" fill="#1f1f1f"/>
      <path id="Path_10397" data-name="Path 10397" d="M1491.137,1282.646a3.244,3.244,0,0,0-.412-.053.2.2,0,0,1-.088-.026c-7.286,2.314-12.084,2.3-12.117,2.272h0a44.646,44.646,0,0,0,11.25-2.715c-.191-.067-.375-.148-.56-.231a46.094,46.094,0,0,1-10.489,2.536c-.306.03-.474.047-.566.267l-.088.215.154.176.026.03.033.024c.109.082.15.112,1.108.062.494-.027,1.309-.086,2.39-.227a51.881,51.881,0,0,0,8.523-1.9c.343-.106.7-.22,1.059-.34C1491.286,1282.705,1491.211,1282.676,1491.137,1282.646Z" fill="#1f1f1f"/>
      <path id="Path_10398" data-name="Path 10398" d="M1556.575,1229.492c-2.879,2.1-8.288,4.531-13.614,6.127,5.038-1.8,16.158-9.624,20.179-14.1,3.6-8.168,5.46-22.682,6.525-25.672-1.806,2.943-4.96,4.63-6.29,5.656.087-.44,4.306-5.118,5.409-7.828.235-5.883-6.88-14.78-10.655-15.773-3.656-.961-11.088,7.124-11.6,15.326s3.509,20.538,3.546,20.818c-1.674-4.783-4.271-13.455-4.437-18.707a13.762,13.762,0,0,0-.933-4.735,30.615,30.615,0,0,1-3.306,14.7c-3.839,7.484-7.161,16.616-7.711,17.972a139.756,139.756,0,0,0,4.169,13.458c-1.41-2.817-3.967-9.773-6.243-12.48.882,2.172-2.58,9.18-6.471,14.1s-3.159,9.254-3.081,13.1a32.889,32.889,0,0,1-1.149-7.42c-.4,2.478-6.627,9.7-8.307,12.479s-1.548,12.475-1.548,12.475c-.782-3.612-.134-9.69-.134-9.69-1.191,3.149-4.629,8.156-5.219,9.23a45.793,45.793,0,0,0-1.718,5.787l-.63-2.49a6.824,6.824,0,0,1-1.489,4.05,72.9,72.9,0,0,1-11.076,5.433q.236.127.475.252a83.742,83.742,0,0,0,24.021-14.968c14.831-12.822,29.4-35.867,35.943-52.69-5.64,16.994-19.426,39.792-34.8,53.545a71.982,71.982,0,0,1-24.072,14.545l.193.081c.047.016.093.036.164.067l.158.051.025.013a67.405,67.405,0,0,0,9.723-4.428c1.783-.105,3.941.084,4.194,1.175.127-1.087-.328-1.723-2.044-2.41.048-.03.095-.059.143-.087,1.753.173,6.045.541,6.045.541s6.256-2.653,9.145-3.022c0,0-6.76,0-9.551-1.067,4.688.973,16.421-1.379,19.71-4.225s5.474-6.265,8.478-5.792c-5.754-1.264-14.516,1.278-17.561.527h0c3.138.311,16.391-2.663,21.036-5.252,3.792-3.481,12.476-16.438,15.9-23.726s4.178-8.241,6.163-8.779C1562.351,1225.474,1559.653,1227.245,1556.575,1229.492Z" fill="#1f1f1f"/>
    </g>
    <path id="Path_10399" data-name="Path 10399" d="M1561.166,1161.258h-15.324l-6.76,5.634h-39.964v-.363a1.342,1.342,0,0,0-2.678,0v.363h-.936v-.363a1.342,1.342,0,0,0-2.678,0v.363h-.936v-.363a1.342,1.342,0,0,0-2.678,0v.363h-33.178l-2.381-2.163-2.381,2.163h-13.7a25.6,25.6,0,0,0,5.02-5.155c-7.711,4.493-17.792,5.286-21.648,5.814,3.857.529,13.938,1.322,21.648,5.815a25.543,25.543,0,0,0-4.544-4.777h13.136l2.466,2.241,2.467-2.241h33.091v.363a1.342,1.342,0,0,0,2.678,0v-.363h.936v.363a1.342,1.342,0,0,0,2.678,0v-.363h.936v.363a1.342,1.342,0,0,0,2.678,0v-.363h39.87l6.854,5.712h15.324l-7.825-6.522Zm-2.713.824-5.848,4.874h-2.4l5.849-4.874Zm-4.7,0-5.849,4.874h-2.4l5.85-4.874Zm-7.1,0h2.4l-5.848,4.874h-2.4Zm0,11.395-5.849-4.874h2.4l5.848,4.874Zm4.7,0-5.85-4.874h2.4l5.849,4.874Zm7.1,0h-2.4l-5.849-4.874h2.4Z" fill="#1f1f1f"/>
    <g id="Group_2260" data-name="Group 2260">
      <path id="Path_10400" data-name="Path 10400" d="M1510.764,1319.7a2.964,2.964,0,0,0-2.012,3.548,2.686,2.686,0,1,0,5.189-.99,2.963,2.963,0,0,0-3.177-2.558Z" fill="#1f1f1f"/>
      <path id="Path_10401" data-name="Path 10401" d="M1536.873,1310.99a2.959,2.959,0,0,0-1.006,3.951,2.686,2.686,0,1,0,4.744-2.322A2.96,2.96,0,0,0,1536.873,1310.99Z" fill="#1f1f1f"/>
      <path id="Path_10402" data-name="Path 10402" d="M1559.818,1295.7a2.963,2.963,0,0,0,.059,4.081,2.69,2.69,0,1,0,3.98-3.487,2.963,2.963,0,0,0-4.038-.594Z" fill="#1f1f1f"/>
      <path id="Path_10403" data-name="Path 10403" d="M1582.056,1274.475a2.688,2.688,0,1,0,1.627,2.479,2.679,2.679,0,0,0-1.627-2.479Z" fill="#1f1f1f"/>
      <path id="Path_10404" data-name="Path 10404" d="M1593.891,1248.694a2.684,2.684,0,1,0,2.22,1.961A2.675,2.675,0,0,0,1593.891,1248.694Z" fill="#1f1f1f"/>
      <path id="Path_10405" data-name="Path 10405" d="M1598.526,1220.688a2.692,2.692,0,1,0,2.658,1.317A2.683,2.683,0,0,0,1598.526,1220.688Z" fill="#1f1f1f"/>
      <path id="Path_10406" data-name="Path 10406" d="M1497.05,1321.381a2.965,2.965,0,0,0-2.47,3.252,2.692,2.692,0,1,0,5.288-.3,2.962,2.962,0,0,0-2.818-2.953Z" fill="#1f1f1f"/>
      <path id="Path_10407" data-name="Path 10407" d="M1524.108,1316.215a2.962,2.962,0,0,0-1.521,3.783,2.685,2.685,0,1,0,5.008-1.67,2.962,2.962,0,0,0-3.487-2.113Z" fill="#1f1f1f"/>
      <path id="Path_10408" data-name="Path 10408" d="M1548.844,1304.111a2.964,2.964,0,0,0-.477,4.052,2.688,2.688,0,1,0,4.4-2.932,2.962,2.962,0,0,0-3.924-1.12Z" fill="#1f1f1f"/>
      <path id="Path_10409" data-name="Path 10409" d="M1573.678,1285.983a2.69,2.69,0,1,0,1.285,2.673,2.68,2.68,0,0,0-1.285-2.673Z" fill="#1f1f1f"/>
      <path id="Path_10410" data-name="Path 10410" d="M1588.835,1261.973a2.686,2.686,0,1,0,1.94,2.24A2.677,2.677,0,0,0,1588.835,1261.973Z" fill="#1f1f1f"/>
      <path id="Path_10411" data-name="Path 10411" d="M1597.137,1234.858a2.686,2.686,0,1,0,2.462,1.65,2.676,2.676,0,0,0-2.462-1.65Z" fill="#1f1f1f"/>
      <path id="Path_10412" data-name="Path 10412" d="M1634.429,1227.186a17.948,17.948,0,0,1-3.709-4.033,11.65,11.65,0,0,1,0-11.98,17.943,17.943,0,0,1,3.708-4.033c2.7-2.3,5.417-4.072,5.131-6.684s-3.338-3.745-6.477-5.393a17.992,17.992,0,0,1-4.508-3.122,11.71,11.71,0,0,1-2.661-11.707,18,18,0,0,1,2.714-4.765c2.118-2.844,4.369-5.187,3.5-7.67s-4.092-2.909-7.522-3.813c-3.452-.913-7.059-2.266-9.191-6.72a10.926,10.926,0,0,1-1.117-6.124,17.945,17.945,0,0,1,1.58-5.25c1.428-3.245,3.1-6.029,1.7-8.255s-4.636-1.917-8.179-2.03c-3.568-.119-7.385-.63-10.453-4.5a10.915,10.915,0,0,1-2.447-5.72,17.98,17.98,0,0,1,.377-5.467c.673-3.479,1.687-6.564-.165-8.424s-4.945-.838-8.424-.165a17.926,17.926,0,0,1-5.467.377,10.907,10.907,0,0,1-5.719-2.447c-3.865-3.068-4.377-6.886-4.5-10.453-.113-3.543.19-6.774-2.03-8.179s-5.01.276-8.254,1.7a17.968,17.968,0,0,1-5.25,1.579,10.924,10.924,0,0,1-6.125-1.117c-4.455-2.132-5.808-5.74-6.721-9.191-.9-3.429-1.331-6.648-3.812-7.522s-4.826,1.387-7.671,3.5a17.979,17.979,0,0,1-4.766,2.714,11.711,11.711,0,0,1-11.706-2.661,17.951,17.951,0,0,1-3.121-4.507c-1.649-3.139-2.784-6.181-5.394-6.477s-4.386,2.432-6.682,5.131a17.956,17.956,0,0,1-4.033,3.708,11.649,11.649,0,0,1-11.981,0,17.934,17.934,0,0,1-4.033-3.708c-2.3-2.7-4.073-5.417-6.683-5.131s-3.746,3.338-5.393,6.477a17.978,17.978,0,0,1-3.122,4.507,11.71,11.71,0,0,1-11.707,2.661,17.993,17.993,0,0,1-4.765-2.714c-2.844-2.117-5.186-4.369-7.671-3.5s-2.908,4.093-3.811,7.522c-.914,3.451-2.267,7.058-6.72,9.191a10.933,10.933,0,0,1-6.125,1.117,17.927,17.927,0,0,1-5.25-1.58c-3.245-1.428-6.028-3.1-8.255-1.7s-1.917,4.636-2.03,8.179c-.119,3.567-.632,7.384-4.5,10.452a10.913,10.913,0,0,1-5.72,2.447,17.944,17.944,0,0,1-5.467-.377c-3.479-.672-6.564-1.687-8.424.165s-.838,4.945-.165,8.424a17.9,17.9,0,0,1,.377,5.467,10.912,10.912,0,0,1-2.447,5.719c-3.068,3.866-6.885,4.378-10.452,4.5-3.544.113-6.775-.19-8.18,2.03s.275,5.01,1.7,8.255a17.943,17.943,0,0,1,1.579,5.25,10.929,10.929,0,0,1-1.116,6.125c-2.133,4.454-5.74,5.807-9.192,6.72-3.429.9-6.647,1.331-7.522,3.813s1.387,4.826,3.505,7.67a18,18,0,0,1,2.714,4.765,11.716,11.716,0,0,1-2.661,11.707,18,18,0,0,1-4.508,3.122c-3.14,1.647-6.181,2.783-6.478,5.393s2.432,4.387,5.131,6.684a17.936,17.936,0,0,1,3.708,4.033,11.648,11.648,0,0,1,0,11.98,17.946,17.946,0,0,1-3.708,4.033c-2.7,2.3-5.417,4.072-5.131,6.683s3.338,3.745,6.478,5.393a18,18,0,0,1,4.507,3.122,11.717,11.717,0,0,1,2.661,11.707,18,18,0,0,1-2.715,4.765c-2.118,2.844-4.369,5.187-3.5,7.671s4.093,2.908,7.522,3.812c3.452.913,7.059,2.266,9.192,6.72a10.927,10.927,0,0,1,1.116,6.124,17.936,17.936,0,0,1-1.579,5.25c-1.429,3.244-3.1,6.028-1.7,8.255s4.636,1.917,8.18,2.03c3.567.119,7.384.631,10.452,4.5a10.914,10.914,0,0,1,2.447,5.72,17.933,17.933,0,0,1-.377,5.467c-.673,3.479-1.687,6.564.165,8.424s4.945.838,8.424.166a17.943,17.943,0,0,1,5.467-.377,10.911,10.911,0,0,1,5.719,2.447c3.865,3.068,4.378,6.886,4.5,10.453.113,3.543-.19,6.774,2.03,8.179s5.01-.275,8.255-1.7a17.934,17.934,0,0,1,5.25-1.579,10.92,10.92,0,0,1,6.125,1.117c4.453,2.132,5.806,5.739,6.72,9.19.9,3.43,1.332,6.649,3.811,7.523s4.826-1.388,7.671-3.5a18,18,0,0,1,4.765-2.714,11.712,11.712,0,0,1,11.707,2.661,17.987,17.987,0,0,1,3.122,4.507c1.647,3.139,2.784,6.181,5.393,6.478s4.386-2.432,6.683-5.131a17.919,17.919,0,0,1,4.033-3.709,11.651,11.651,0,0,1,11.981,0,17.942,17.942,0,0,1,4.033,3.709c2.3,2.7,4.072,5.417,6.682,5.131s3.746-3.339,5.393-6.478a18,18,0,0,1,3.122-4.507,11.712,11.712,0,0,1,11.706-2.661,17.99,17.99,0,0,1,4.766,2.715c2.844,2.118,5.186,4.368,7.671,3.5s2.909-4.092,3.812-7.522c.914-3.452,2.266-7.059,6.721-9.191a10.923,10.923,0,0,1,6.124-1.117,17.939,17.939,0,0,1,5.25,1.579c3.244,1.428,6.029,3.1,8.255,1.7s1.917-4.635,2.03-8.179c.12-3.567.632-7.384,4.5-10.453a10.911,10.911,0,0,1,5.719-2.447,17.943,17.943,0,0,1,5.467.377c3.479.673,6.564,1.687,8.424-.166s.838-4.945.165-8.423a17.944,17.944,0,0,1-.377-5.468,10.906,10.906,0,0,1,2.447-5.72c3.068-3.866,6.885-4.378,10.453-4.5,3.542-.113,6.774.189,8.179-2.03s-.276-5.01-1.7-8.255a17.976,17.976,0,0,1-1.579-5.25,10.926,10.926,0,0,1,1.117-6.124c2.132-4.455,5.74-5.807,9.191-6.721,3.429-.9,6.647-1.331,7.522-3.812s-1.387-4.826-3.5-7.671a17.993,17.993,0,0,1-2.714-4.765,11.711,11.711,0,0,1,2.661-11.707,17.98,17.98,0,0,1,4.508-3.121c3.139-1.647,6.181-2.784,6.477-5.393S1637.127,1229.482,1634.429,1227.186Zm-27.243,38.077a126.106,126.106,0,1,1,9.534-48.1,126.106,126.106,0,0,1-9.534,48.1Z" fill="#1f1f1f"/>
      <path id="Path_10413" data-name="Path 10413" d="M1388.522,1236.871a2.962,2.962,0,0,0-3.547-2.013,2.686,2.686,0,1,0,.99,5.189A2.961,2.961,0,0,0,1388.522,1236.871Z" fill="#1f1f1f"/>
      <path id="Path_10414" data-name="Path 10414" d="M1393.276,1261.973a2.676,2.676,0,1,0,2.92-.115A2.686,2.686,0,0,0,1393.276,1261.973Z" fill="#1f1f1f"/>
      <path id="Path_10415" data-name="Path 10415" d="M1408.433,1285.983a2.68,2.68,0,1,0,2.791-.871A2.69,2.69,0,0,0,1408.433,1285.983Z" fill="#1f1f1f"/>
      <path id="Path_10416" data-name="Path 10416" d="M1433.267,1304.111a2.962,2.962,0,0,0-3.924,1.12,2.688,2.688,0,1,0,4.4,2.932A2.962,2.962,0,0,0,1433.267,1304.111Z" fill="#1f1f1f"/>
      <path id="Path_10417" data-name="Path 10417" d="M1458,1316.215a2.961,2.961,0,0,0-3.486,2.113,2.684,2.684,0,1,0,5.007,1.67,2.961,2.961,0,0,0-1.521-3.783Z" fill="#1f1f1f"/>
      <path id="Path_10418" data-name="Path 10418" d="M1485.061,1321.381a2.963,2.963,0,0,0-2.818,2.953,2.692,2.692,0,1,0,5.289.3,2.965,2.965,0,0,0-2.47-3.252Z" fill="#1f1f1f"/>
      <path id="Path_10419" data-name="Path 10419" d="M1383.884,1225.975a2.691,2.691,0,1,0-2.789-1.009A2.682,2.682,0,0,0,1383.884,1225.975Z" fill="#1f1f1f"/>
      <path id="Path_10420" data-name="Path 10420" d="M1392,1250.215a2.962,2.962,0,0,0-3.783-1.521,2.685,2.685,0,1,0,1.67,5.009,2.962,2.962,0,0,0,2.113-3.487Z" fill="#1f1f1f"/>
      <path id="Path_10421" data-name="Path 10421" d="M1400.056,1274.474a2.679,2.679,0,1,0,2.881-.5,2.688,2.688,0,0,0-2.881.5Z" fill="#1f1f1f"/>
      <path id="Path_10422" data-name="Path 10422" d="M1422.293,1295.7a2.962,2.962,0,0,0-4.038.594,2.689,2.689,0,1,0,3.979,3.487A2.963,2.963,0,0,0,1422.293,1295.7Z" fill="#1f1f1f"/>
      <path id="Path_10423" data-name="Path 10423" d="M1445.239,1310.99a2.96,2.96,0,0,0-3.739,1.629,2.686,2.686,0,1,0,4.744,2.322,2.96,2.96,0,0,0-1.005-3.951Z" fill="#1f1f1f"/>
      <path id="Path_10424" data-name="Path 10424" d="M1471.347,1319.7a2.963,2.963,0,0,0-3.176,2.558,2.686,2.686,0,1,0,5.188.99,2.963,2.963,0,0,0-2.012-3.548Z" fill="#1f1f1f"/>
      <path id="Path_10425" data-name="Path 10425" d="M1470.169,1108.459a2.889,2.889,0,0,0-2,3.613,2.676,2.676,0,1,0,5.188-.991,2.889,2.889,0,0,0-3.19-2.622Z" fill="#1f1f1f"/>
      <path id="Path_10426" data-name="Path 10426" d="M1442.478,1117.694a2.89,2.89,0,0,0-.977,4.012,2.676,2.676,0,1,0,4.744-2.322,2.888,2.888,0,0,0-3.767-1.69Z" fill="#1f1f1f"/>
      <path id="Path_10427" data-name="Path 10427" d="M1418.153,1133.9a2.89,2.89,0,0,0,.1,4.13,2.68,2.68,0,1,0,3.979-3.487,2.891,2.891,0,0,0-4.081-.643Z" fill="#1f1f1f"/>
      <path id="Path_10428" data-name="Path 10428" d="M1402.988,1155.45a2.679,2.679,0,1,0,1.57,2.467A2.688,2.688,0,0,0,1402.988,1155.45Z" fill="#1f1f1f"/>
      <path id="Path_10429" data-name="Path 10429" d="M1388.22,1185.631a2.685,2.685,0,1,0-2.221-1.962A2.676,2.676,0,0,0,1388.22,1185.631Z" fill="#1f1f1f"/>
      <path id="Path_10430" data-name="Path 10430" d="M1383.584,1213.637a2.692,2.692,0,1,0-2.657-1.318,2.683,2.683,0,0,0,2.657,1.318Z" fill="#1f1f1f"/>
      <path id="Path_10431" data-name="Path 10431" d="M1484.707,1106.673a2.891,2.891,0,0,0-2.464,3.318,2.682,2.682,0,1,0,5.288-.3,2.893,2.893,0,0,0-2.824-3.018Z" fill="#1f1f1f"/>
      <path id="Path_10432" data-name="Path 10432" d="M1456.016,1112.152a2.887,2.887,0,0,0-1.5,3.845,2.674,2.674,0,1,0,5.007-1.67,2.888,2.888,0,0,0-3.507-2.176Z" fill="#1f1f1f"/>
      <path id="Path_10433" data-name="Path 10433" d="M1429.784,1124.987a2.891,2.891,0,0,0-.441,4.107,2.679,2.679,0,1,0,4.4-2.932,2.889,2.889,0,0,0-3.961-1.174Z" fill="#1f1f1f"/>
      <path id="Path_10434" data-name="Path 10434" d="M1407.79,1144.26a2.892,2.892,0,0,0,.643,4.082,2.68,2.68,0,1,0,3.487-3.98,2.891,2.891,0,0,0-4.13-.1Z" fill="#1f1f1f"/>
      <path id="Path_10435" data-name="Path 10435" d="M1395.6,1167.607a2.676,2.676,0,1,0,1.884,2.235A2.686,2.686,0,0,0,1395.6,1167.607Z" fill="#1f1f1f"/>
      <path id="Path_10436" data-name="Path 10436" d="M1384.974,1199.467a2.686,2.686,0,1,0-2.462-1.65,2.676,2.676,0,0,0,2.462,1.65Z" fill="#1f1f1f"/>
      <path id="Path_10437" data-name="Path 10437" d="M1576.185,1132.033a119.992,119.992,0,1,0,26.129,39.048A119.992,119.992,0,0,0,1576.185,1132.033Zm22.188,129.576a116.56,116.56,0,1,1,8.807-44.447,116.56,116.56,0,0,1-8.807,44.447Z" fill="#1f1f1f"/>
      <path id="Path_10438" data-name="Path 10438" d="M1596.146,1194.278a2.686,2.686,0,1,0,2.9.628A2.676,2.676,0,0,0,1596.146,1194.278Z" fill="#1f1f1f"/>
      <path id="Path_10439" data-name="Path 10439" d="M1588.835,1172.353a2.676,2.676,0,1,0-2.92.115,2.686,2.686,0,0,0,2.92-.115Z" fill="#1f1f1f"/>
      <path id="Path_10440" data-name="Path 10440" d="M1570.191,1144.362a2.69,2.69,0,1,0,2.819-.924,2.68,2.68,0,0,0-2.819.924Z" fill="#1f1f1f"/>
      <path id="Path_10441" data-name="Path 10441" d="M1552.327,1124.987a2.89,2.89,0,0,0-3.959,1.175,2.678,2.678,0,1,0,4.4,2.932,2.889,2.889,0,0,0-.441-4.107Z" fill="#1f1f1f"/>
      <path id="Path_10442" data-name="Path 10442" d="M1526.095,1112.152a2.888,2.888,0,0,0-3.508,2.176,2.675,2.675,0,1,0,5.008,1.67,2.886,2.886,0,0,0-1.5-3.845Z" fill="#1f1f1f"/>
      <path id="Path_10443" data-name="Path 10443" d="M1497.4,1106.673a2.892,2.892,0,0,0-2.823,3.019,2.682,2.682,0,1,0,5.288.3,2.892,2.892,0,0,0-2.465-3.318Z" fill="#1f1f1f"/>
      <path id="Path_10444" data-name="Path 10444" d="M1598.228,1208.35a2.692,2.692,0,1,0,2.79,1.009,2.682,2.682,0,0,0-2.79-1.009Z" fill="#1f1f1f"/>
      <path id="Path_10445" data-name="Path 10445" d="M1590.108,1184.11a2.961,2.961,0,0,0,3.783,1.521,2.684,2.684,0,1,0-1.67-5.008,2.962,2.962,0,0,0-2.113,3.487Z" fill="#1f1f1f"/>
      <path id="Path_10446" data-name="Path 10446" d="M1579.124,1155.45a2.688,2.688,0,1,0,2.914-.546,2.678,2.678,0,0,0-2.914.546Z" fill="#1f1f1f"/>
      <path id="Path_10447" data-name="Path 10447" d="M1563.957,1133.9a2.89,2.89,0,0,0-4.08.643,2.68,2.68,0,1,0,3.98,3.487,2.89,2.89,0,0,0,.1-4.13Z" fill="#1f1f1f"/>
      <path id="Path_10448" data-name="Path 10448" d="M1539.633,1117.694a2.889,2.889,0,0,0-3.767,1.69,2.676,2.676,0,1,0,4.745,2.322,2.888,2.888,0,0,0-.978-4.012Z" fill="#1f1f1f"/>
      <path id="Path_10449" data-name="Path 10449" d="M1511.942,1108.459a2.89,2.89,0,0,0-3.19,2.622,2.676,2.676,0,1,0,5.189.991,2.89,2.89,0,0,0-2-3.613Z" fill="#1f1f1f"/>
    </g>
    <rect id="Rectangle_655" data-name="Rectangle 655" width="92.034" height="1.834" transform="translate(1445.039 1187.636)" fill="#1f1f1f"/>
    <rect id="Rectangle_656" data-name="Rectangle 656" width="92.034" height="1.834" transform="translate(1445.039 1204.642)" fill="#1f1f1f"/>
    <g id="Group_2261" data-name="Group 2261">
      <path id="Path_10450" data-name="Path 10450" d="M1448.029,1202.829v-11.521h1.1v10.307h4.17v1.214Z" fill="#1f1f1f"/>
      <path id="Path_10451" data-name="Path 10451" d="M1463.1,1197.052a7.284,7.284,0,0,1-1.148,4.35,4.06,4.06,0,0,1-6.413.027,7.355,7.355,0,0,1-1.134-4.393,7.254,7.254,0,0,1,1.138-4.362,3.774,3.774,0,0,1,3.233-1.548,3.709,3.709,0,0,1,3.181,1.576,7.283,7.283,0,0,1,1.144,4.35Zm-7.532,0a6.354,6.354,0,0,0,.818,3.55,2.937,2.937,0,0,0,4.749,0,8.231,8.231,0,0,0,0-7.08,2.654,2.654,0,0,0-2.363-1.2,2.7,2.7,0,0,0-2.389,1.209,6.288,6.288,0,0,0-.818,3.518Z" fill="#1f1f1f"/>
      <path id="Path_10452" data-name="Path 10452" d="M1466.311,1198.037v4.792h-1.1v-11.521h2.592a3.556,3.556,0,0,1,2.57.811,3.275,3.275,0,0,1,.83,2.443,3.042,3.042,0,0,1-1.9,3.089l2.566,5.178h-1.3l-2.288-4.792Zm0-1.151h1.506a2.275,2.275,0,0,0,1.706-.563,2.343,2.343,0,0,0,.543-1.69,2.137,2.137,0,0,0-.552-1.648,2.589,2.589,0,0,0-1.775-.5h-1.429Z" fill="#1f1f1f"/>
      <path id="Path_10453" data-name="Path 10453" d="M1478.666,1202.829H1473.4v-11.521h5.269v1.189h-4.17v3.712h3.917v1.182H1474.5v4.24h4.17Z" fill="#1f1f1f"/>
      <path id="Path_10454" data-name="Path 10454" d="M1484.943,1202.829l-3.206-10.213h-.053q.091,1.213.091,2.884v7.329h-1.014v-11.521h1.655l2.994,9.5h.052l3.018-9.5h1.642v11.521h-1.1V1195.4q0-1.276.091-2.773h-.052l-3.232,10.2Z" fill="#1f1f1f"/>
      <path id="Path_10455" data-name="Path 10455" d="M1496.153,1202.829v-11.521h1.1v11.521Z" fill="#1f1f1f"/>
      <path id="Path_10456" data-name="Path 10456" d="M1505.836,1194.665a3.557,3.557,0,0,1-.979,2.691,3.885,3.885,0,0,1-2.8.942h-1.113v4.531h-1.1v-11.521h2.449Q1505.835,1191.308,1505.836,1194.665Zm-4.894,2.482h.989a3.165,3.165,0,0,0,2.115-.575,2.343,2.343,0,0,0,.652-1.844,2.194,2.194,0,0,0-.614-1.7,2.776,2.776,0,0,0-1.914-.559h-1.229Z" fill="#1f1f1f"/>
      <path id="Path_10457" data-name="Path 10457" d="M1513.149,1199.763a3.092,3.092,0,0,1-.906,2.371,3.438,3.438,0,0,1-2.456.851,5.183,5.183,0,0,1-2.586-.528v-1.292a5.952,5.952,0,0,0,1.268.473,5.528,5.528,0,0,0,1.357.174,2.375,2.375,0,0,0,1.655-.509,1.822,1.822,0,0,0,.556-1.415,2.144,2.144,0,0,0-.2-.981,2.022,2.022,0,0,0-.66-.705,8.451,8.451,0,0,0-1.406-.733,4.435,4.435,0,0,1-1.885-1.363,3.453,3.453,0,0,1-.565-2.057,2.8,2.8,0,0,1,.82-2.119,3.008,3.008,0,0,1,2.173-.788,5.425,5.425,0,0,1,2.592.63l-.344,1.166a4.982,4.982,0,0,0-2.274-.6,1.926,1.926,0,0,0-1.365.457,1.648,1.648,0,0,0-.492,1.268,2.3,2.3,0,0,0,.182.981,1.9,1.9,0,0,0,.612.7,6.948,6.948,0,0,0,1.315.7,5.072,5.072,0,0,1,2.046,1.388A3.1,3.1,0,0,1,1513.149,1199.763Z" fill="#1f1f1f"/>
      <path id="Path_10458" data-name="Path 10458" d="M1522.219,1191.308v7.454a4.572,4.572,0,0,1-.976,3.1,3.365,3.365,0,0,1-2.684,1.126,3.227,3.227,0,0,1-2.64-1.134,4.774,4.774,0,0,1-.934-3.121v-7.422h1.1v7.518a3.359,3.359,0,0,0,.647,2.214,2.335,2.335,0,0,0,1.9.772,2.264,2.264,0,0,0,1.843-.777,3.392,3.392,0,0,0,.646-2.226v-7.5Z" fill="#1f1f1f"/>
      <path id="Path_10459" data-name="Path 10459" d="M1528.9,1202.829l-3.207-10.213h-.051q.09,1.213.091,2.884v7.329h-1.015v-11.521h1.654l2.994,9.5h.052l3.017-9.5h1.643v11.521h-1.1V1195.4q0-1.276.09-2.773h-.051l-3.233,10.2Z" fill="#1f1f1f"/>
    </g>
    <path id="Path_10460" data-name="Path 10460" d="M1525.091,1136.18c-.124-3.213.373-5.268,1.117-6.218-.87-.307-4.347,1.335-5.34,4.548s1.988,5.011.5,7.966c-.5-9.637-7.7-6.682-7.826-2.569-.092,3.092,2.982,3.725,2.574,4.848,1.455-.035-.338-3.306.666-4.25s2.971.687,3.468,2.871c-.87,0-1.617,2.313-1.041,3.534a4,4,0,0,1-1.353,1.558,75.5,75.5,0,0,0-23.135-4.916,5.1,5.1,0,0,1-1.081-1.651c1.38-.2,2.14-1.567.766-3,1.358.107,2.849-1.05.614-2.591-.374-1.671.87-4.167,1.8-3.947s1.162.883.548,2.094-.738,2.892.443,3.465c-.434-1.1.559-1.611,2.174-2.511s3.094-7.713-1.635-9c-1.844-.5-3.21,1.81-3.21,1.81.5-3.084-3.478-7.086-3.54-9.132-.063,2.046-4.036,6.048-3.538,9.132,0,0-1.367-2.312-3.21-1.81-4.73,1.292-3.25,8.106-1.634,9s2.607,1.413,2.173,2.511c1.181-.573,1.056-2.255.443-3.465s-.382-1.873.55-2.094,2.173,2.276,1.8,3.947c-2.237,1.541-.746,2.7.614,2.591-1.375,1.434-.614,2.805.765,3a5.137,5.137,0,0,1-1.081,1.652,75.1,75.1,0,0,0-23.758,5.167,3.7,3.7,0,0,1-1.821-1.809c.575-1.221-.17-3.534-1.04-3.534.5-2.184,2.465-3.815,3.468-2.871s-.789,4.215.665,4.25c-.406-1.123,2.668-1.755,2.575-4.848-.125-4.112-7.329-7.067-7.825,2.569-1.491-2.955,1.491-4.755.5-7.966s-4.469-4.855-5.34-4.548c.743.95,1.241,3,1.116,6.218a9.183,9.183,0,0,0,2.8,7.03c-.315,1.45-.145,3.435,1.635,4.305a8.534,8.534,0,0,1-.208,2.921,2.807,2.807,0,0,0-.417.328c-1.435,1.47.789,2.318.789,2.318a34.353,34.353,0,0,1,.671,4.683c-.807.457-2.237,1.549.391,2.462,2.629-1.664,11.73-6.067,28.92-6.067,15.724,0,26.291,4.4,28.921,6.067,2.629-.913,1.2-2.005.391-2.462a34.587,34.587,0,0,1,.67-4.683s2.228-.848.79-2.318a7.265,7.265,0,0,0-1.651-1.027,9.359,9.359,0,0,1-.062-2.222c1.779-.87,1.948-2.856,1.634-4.305a9.18,9.18,0,0,0,2.8-7.03Zm-59.413,18.706a1.362,1.362,0,1,1,1.317-1.361,1.338,1.338,0,0,1-1.317,1.361Zm25.922-3.545a2.443,2.443,0,1,1,2.362-2.441,2.4,2.4,0,0,1-2.362,2.441Zm25.922,3.545a1.362,1.362,0,1,1,1.317-1.361,1.339,1.339,0,0,1-1.317,1.361Z" fill="#1f1f1f"/>
    <g id="Group_2263" data-name="Group 2263">
      <path id="Path_10461" data-name="Path 10461" d="M1491.182,1255.512l-1.017-18.466-16.394,8.56,15.484-10.114-15.61-9.918,16.5,8.353.785-18.477,1.016,18.465,16.394-8.559-15.484,10.114,15.61,9.916-16.5-8.352Z" fill="#1f1f1f"/>
      <g id="Group_2262" data-name="Group 2262">
        <path id="Path_10462" data-name="Path 10462" d="M1480.071,1255.643l10.571-18.579.025,3.92-10.6,14.659m-4.222,6.563,15.242-21.087-.036-5.638Z" fill="#1f1f1f"/>
        <path id="Path_10463" data-name="Path 10463" d="M1491.055,1235.481Z" fill="#1f1f1f"/>
        <path id="Path_10464" data-name="Path 10464" d="M1491.055,1235.481h0l.036,5.638h0l15.506,20.893-15.542-26.531Z" fill="#1f1f1f"/>
        <path id="Path_10465" data-name="Path 10465" d="M1491.055,1235.481l-4.865,2.851h0l-10.341,23.874h0l15.206-26.725Z" fill="#1f1f1f"/>
        <path id="Path_10466" data-name="Path 10466" d="M1468.1,1236.049l21.375-.135-3.382,1.981-17.993-1.846m-7.794-.375,25.882,2.657,4.864-2.85-30.746.193Z" fill="#1f1f1f"/>
        <path id="Path_10467" data-name="Path 10467" d="M1491.055,1235.481Z" fill="#1f1f1f"/>
        <path id="Path_10468" data-name="Path 10468" d="M1491.055,1235.481Z" fill="#1f1f1f"/>
        <path id="Path_10469" data-name="Path 10469" d="M1491.055,1235.481Z" fill="#1f1f1f"/>
        <path id="Path_10470" data-name="Path 10470" d="M1479.087,1215.887l10.8,18.444-3.406-1.939-7.4-16.505m-3.573-6.937,10.64,23.742,4.9,2.789h0l-15.54-26.53Z" fill="#1f1f1f"/>
        <rect id="Rectangle_657" data-name="Rectangle 657" height="0.001" transform="translate(1491.055 1235.48)" fill="#1f1f1f"/>
        <path id="Path_10471" data-name="Path 10471" d="M1475.715,1208.882l-.39.164h0l.378-.191-.188.095Z" fill="#1f1f1f"/>
        <path id="Path_10472" data-name="Path 10472" d="M1491.055,1235.481Z" fill="#1f1f1f"/>
        <path id="Path_10473" data-name="Path 10473" d="M1491.055,1235.481Z" fill="#1f1f1f"/>
        <path id="Path_10474" data-name="Path 10474" d="M1491.055,1235.481l-4.9-2.788-25.847,2.982,30.747-.194Z" fill="#1f1f1f"/>
        <path id="Path_10475" data-name="Path 10475" d="M1491.02,1229.843l-15.505-20.893h0l15.54,26.529Z" fill="#1f1f1f"/>
        <path id="Path_10476" data-name="Path 10476" d="M1491.055,1235.481Z" fill="#1f1f1f"/>
        <path id="Path_10477" data-name="Path 10477" d="M1491.444,1229.979l10.6-14.659-10.572,18.579-.024-3.919m-.424-.136.035,5.637h0l15.206-26.724h0l-15.24,21.087Z" fill="#1f1f1f"/>
        <path id="Path_10478" data-name="Path 10478" d="M1475.515,1208.95h0Z" fill="#1f1f1f"/>
        <path id="Path_10479" data-name="Path 10479" d="M1491.055,1235.481l4.9,2.788,25.848-2.981-30.748.193Z" fill="#1f1f1f"/>
        <path id="Path_10480" data-name="Path 10480" d="M1492.219,1236.63l3.407,1.939,7.4,16.506-10.8-18.445m-1.165-1.149,15.542,26.531h0l-10.641-23.743-4.9-2.788Z" fill="#1f1f1f"/>
        <path id="Path_10481" data-name="Path 10481" d="M1506.462,1208.824h0l-.2-.067.189.1h0l-.191-.1-.2-.067.2.066-.188-.094.188.095Z" fill="#1f1f1f"/>
        <path id="Path_10482" data-name="Path 10482" d="M1495.92,1232.631h0l10.34-23.874-15.2,26.724Z" fill="#1f1f1f"/>
        <path id="Path_10483" data-name="Path 10483" d="M1492.633,1235.048l3.382-1.981,17.994,1.847-21.376.134m-1.578.433,30.748-.193-25.883-2.657-4.865,2.85Z" fill="#1f1f1f"/>
        <path id="Path_10484" data-name="Path 10484" d="M1506.461,1208.824h0l-.4-.134Z" fill="#1f1f1f"/>
      </g>
    </g>
  </g>
</svg>
