<svg xmlns="http://www.w3.org/2000/svg" width="36.436" height="39.906" viewBox="0 0 36.436 39.906">
  <g id="Group_214" data-name="Group 214" transform="translate(-611.867 -700.933)">
    <path id="Path_982" data-name="Path 982" d="M622.817,718.785a.83.83,0,0,1-.242-.036A20.124,20.124,0,0,1,616.6,715.9a12.2,12.2,0,0,1-3.357-3.587,8.925,8.925,0,0,1-1.181-6.609c.479-1.927,2.6-2.551,4.3-2.735a15.758,15.758,0,0,1,3.246.015.83.83,0,0,1-.2,1.647,14.246,14.246,0,0,0-2.889-.01,5.8,5.8,0,0,0-1.95.506,1.535,1.535,0,0,0-.893.977,7.23,7.23,0,0,0,1,5.358,10.561,10.561,0,0,0,2.908,3.1,18.487,18.487,0,0,0,5.484,2.606.83.83,0,0,1-.242,1.624Z" fill="#d1b339"/>
    <path id="Path_983" data-name="Path 983" d="M638.118,719.491a.83.83,0,0,1-.494-1.5,30.272,30.272,0,0,0,7.641-7.526c1.358-2.152,1.474-3.666,1.333-4.557a2.31,2.31,0,0,0-1.2-1.845,7.683,7.683,0,0,0-3.685.016.83.83,0,1,1-.414-1.607,9.438,9.438,0,0,1,4.623.016,3.88,3.88,0,0,1,2.314,3.158c.186,1.172.065,3.113-1.568,5.7a31.844,31.844,0,0,1-8.058,7.975A.825.825,0,0,1,638.118,719.491Z" fill="#d1b339"/>
    <path id="Path_984" data-name="Path 984" d="M638.922,721.023c1.911-3.059,4.124-11.407,4.023-13.519s.31-5.309,0-5.873-1.815-.564-1.815-.564-7.688.3-10.582,0-11.192,0-11.192,0-1.609.5-1.609,1.609-.05,8.863,2.263,14.036c2.181,4.878,4.719,7.162,7.531,8.063,0,.049.006.1.012.149,0,0,.4.636.5,3.224a44.748,44.748,0,0,1-.5,7.717c-.2.6-2.313,1.006-5.23,1.609a9.152,9.152,0,0,0-1.408,2.466c-.1.752.7.651,1.207.651s8.046.446,15.991.14c0,0,1.408-.034,1.81-.791s-1.106-1.863-1.81-2.668-4.425-.5-5.23-1.408c0,0-.161-7.592.021-11.161C635.364,724.083,637.817,722.793,638.922,721.023Z" fill="#e2c549"/>
    <path id="Path_985" data-name="Path 985" d="M633.944,738.631c-2.313-.151-7.543,0-9.655,0-1.341,0-2.12.046-2.789.05a7.176,7.176,0,0,0-.41.747c1.754.008,6.085-.084,8.831-.043,3.319.05,8.9,0,9.6,0a1.848,1.848,0,0,0,.4-.045,2.729,2.729,0,0,0-.49-.721C637.894,738.672,635.444,738.729,633.944,738.631Z" fill="#d1b339"/>
  </g>
</svg>
