<svg xmlns="http://www.w3.org/2000/svg" width="67.949" height="58.987" viewBox="0 0 67.949 58.987">
  <g id="Group_407" data-name="Group 407" transform="translate(-21.367 -695.623)">
    <g id="Group_406" data-name="Group 406">
      <path id="Path_1622" data-name="Path 1622" d="M48.2,739.351a1.035,1.035,0,0,1,.31.4.438.438,0,0,1-.019.3c-.493,1.445-.935,5.123-1.534,6.474a3.443,3.443,0,0,1-.787,1.249c-.161.137-.476,0-.68-.294a11.641,11.641,0,0,1-.6-1.731,3.979,3.979,0,0,0-1.3-1.785,1.758,1.758,0,0,0-.765-.225,23.933,23.933,0,0,1-3.06-.3A3.185,3.185,0,0,1,37.1,740.7v-.036a19.307,19.307,0,0,1,.777-4.224.82.82,0,0,0,.008-.323,1.164,1.164,0,0,0-.175-.382,3.349,3.349,0,0,0-1.4-1.089l-1.639-.818c-.416-.208-.651-.849-.37-1.012a6.087,6.087,0,0,1,1.419-.417,28.778,28.778,0,0,1,3.667-.385,3.3,3.3,0,0,1,2.237.337,5.036,5.036,0,0,1,1.323,1.607,18.772,18.772,0,0,0,2.247,2.942,28.461,28.461,0,0,0,3.008,2.455Z" fill="#fcdd9f"/>
      <path id="Path_1623" data-name="Path 1623" d="M56.035,713.379A52.037,52.037,0,0,1,72.5,702.973a14.18,14.18,0,0,1,3.876-1.259c1.235-.109,4.157-.049,5.229,1.262,1.024,1.252.616,4.1-.456,5.918-.619,1.046-1.22,2.348-1.931,3.373-4.671,6.739-6.315,9.29-11.808,14.941a71.653,71.653,0,0,1-13.072,9.728c-1.333.734-3.748,2.076-5.729,1.194a10.1,10.1,0,0,1-2.982-2.53c-1.1-1.071.05.1-1.05-.972-1-.977-2.72-2.794-2.354-4.488.3-1.389,3.333-5.819,4.215-6.87a76.985,76.985,0,0,1,9.594-9.891Z" fill="#aa6a64"/>
      <path id="Path_1624" data-name="Path 1624" d="M75.548,715.16c.191.176.407.4.407.626s-.253.34-.487.271a1.754,1.754,0,0,1-.641-.441c-1.065-1-2.04-2.105-3.011-3.207l-2.152-2.44a11.488,11.488,0,0,1-2.121-3c-.249-.6.621-.628.968-.245.572.632,1.039,1.458,1.548,2.145a52.617,52.617,0,0,0,3.417,4.2C74.138,713.795,74.828,714.5,75.548,715.16Z" fill="#fff"/>
      <path id="Path_1625" data-name="Path 1625" d="M63.34,728.355a1.262,1.262,0,0,0,.605.371c.237.04.524-.111.529-.35-3.069-2.92-5.864-6.1-8.64-9.291-.31-.357-1.545-2.222-2.1-1.937-.47.241.352,1.06.537,1.3,1.3,1.674,2.644,3.3,4.067,4.874Q60.721,725.949,63.34,728.355Z" fill="#fff"/>
      <path id="Path_1626" data-name="Path 1626" d="M65.8,713.1a3.339,3.339,0,0,0-1.368.392,3.412,3.412,0,0,0-1.535,3.72,4.3,4.3,0,0,0,2.89,2.961,2.253,2.253,0,0,0,.864.13,1.93,1.93,0,0,0,.771-.254,4.5,4.5,0,0,0,1.607-1.761,4.6,4.6,0,0,0,.579-1.418C70.016,714.711,67.82,712.951,65.8,713.1Z" fill="#fff"/>
      <path id="Path_1627" data-name="Path 1627" d="M66.849,715.083a1.665,1.665,0,0,0-1.531-.053,1.4,1.4,0,0,0-.647.885,1.977,1.977,0,0,0,.07,1.109,1.64,1.64,0,0,0,.647.882,1.684,1.684,0,0,0,.649.216,2.037,2.037,0,0,0,1.608-.4C68.684,716.838,67.82,715.568,66.849,715.083Z" fill="#537082"/>
      <path id="Path_1628" data-name="Path 1628" d="M41.166,728.921a2.253,2.253,0,0,1-.542.557,2.351,2.351,0,0,1-1.316.225,28.159,28.159,0,0,0-5.331.422,3.453,3.453,0,0,1-1.254.074,1.088,1.088,0,0,1-.9-.784,1.476,1.476,0,0,1,.361-1.066,18.83,18.83,0,0,1,1.185-1.472,43.924,43.924,0,0,1,6.621-6.656,29.83,29.83,0,0,1,5.1-3.011,18.993,18.993,0,0,1,4.26-1.555c.983-.206,2.573-.553,1.779.908a22.944,22.944,0,0,1-2.837,3.506q-1.709,2.03-3.377,4.094Q43.014,726.521,41.166,728.921Z" fill="#537082"/>
      <path id="Path_1629" data-name="Path 1629" d="M64.359,730.953a.9.9,0,0,1,.71-.206c.349.106.427.557.442.922a4.541,4.541,0,0,1-.139,1.666,5.975,5.975,0,0,1-1.1,1.64c-.7.895-1.235,1.909-1.9,2.828a23.617,23.617,0,0,1-2.563,2.826,53.418,53.418,0,0,1-6.653,5.89,4.329,4.329,0,0,1-2.081.93,1.662,1.662,0,0,1-1.785-1.132,2.455,2.455,0,0,1,.041-.92,34.125,34.125,0,0,1,.874-4.07,4.844,4.844,0,0,1,.533-1.444,4.244,4.244,0,0,1,1.451-1.047,61.3,61.3,0,0,0,7.974-4.895C61.584,732.919,62.884,731.9,64.359,730.953Z" fill="#537082"/>
      <path id="Path_1630" data-name="Path 1630" d="M81.437,704.625c.049.046.126.092.174.045a.131.131,0,0,0,.028-.094,2.324,2.324,0,0,0-.528-1.535,2.02,2.02,0,0,0-.666-.513c-.185-.089-.613-.274-.819-.184-.245.107.215.535.319.665q.327.41.682.8Q81.017,704.23,81.437,704.625Z" fill="#537082"/>
      <path id="Path_1631" data-name="Path 1631" d="M83.553,700.362a.8.8,0,0,1,.238-.676,1,1,0,0,1,.518-.246.8.8,0,0,1,.431.026.9.9,0,0,1,.35.28,1.274,1.274,0,0,1,.316.713.731.731,0,0,1-.328.678.765.765,0,0,1-.311.092,1.187,1.187,0,0,1-1.215-.867Z" fill="#537082"/>
      <path id="Path_1632" data-name="Path 1632" d="M81.4,702.536l.452.482q1.012-.925,2.019-1.857s-.233-.282-.254-.306c-.12-.135-.1-.132-.254-.034a7.411,7.411,0,0,0-.674.549Q82.023,701.931,81.4,702.536Z" fill="#537082"/>
      <path id="Path_1633" data-name="Path 1633" d="M87.6,697.288a11.494,11.494,0,0,0-1.713,1.751c-.054.068.046.158.111.1.615-.517,1.253-1.016,1.9-1.49C88.149,697.474,87.84,697.093,87.6,697.288Z" fill="#666"/>
      <path id="Path_1634" data-name="Path 1634" d="M89.058,699.912a6.516,6.516,0,0,1-1.307.16,3.376,3.376,0,0,0-1.247.222c-.119.052-.055.212.061.206a10.358,10.358,0,0,0,2.619-.161C89.425,700.26,89.3,699.853,89.058,699.912Z" fill="#666"/>
      <path id="Path_1635" data-name="Path 1635" d="M85.1,698.162a8.037,8.037,0,0,0-.031-1.148c-.024-.4-.049-.8-.1-1.2-.038-.3-.477-.219-.458.074.026.4.081.8.137,1.2a7.574,7.574,0,0,0,.208,1.12C84.9,698.329,85.095,698.281,85.1,698.162Z" fill="#666"/>
      <path id="Path_1636" data-name="Path 1636" d="M83.308,698.709a6.289,6.289,0,0,0-.542-.831,4.868,4.868,0,0,0-.649-.789c-.226-.2-.469.145-.331.357a5.776,5.776,0,0,0,.676.744,7.6,7.6,0,0,0,.68.656.113.113,0,0,0,.166-.137Z" fill="#666"/>
      <path id="Path_1637" data-name="Path 1637" d="M87.295,703.515a9.828,9.828,0,0,0-1.64-1.713c-.105-.086-.26.078-.164.177a14.113,14.113,0,0,1,1.479,1.8C87.122,704,87.458,703.733,87.295,703.515Z" fill="#666"/>
    </g>
    <path id="Path_1638" data-name="Path 1638" d="M35.134,743.529q-5.927,3.815-11.764,7.758c-.128.086-.014.289.122.209q6.072-3.562,12.055-7.26C35.995,743.959,35.577,743.244,35.134,743.529Z" fill="#ebefeb"/>
    <path id="Path_1639" data-name="Path 1639" d="M33.687,740.295q-6.068,2.372-12.191,4.6c-.224.081-.136.429.1.362A124.358,124.358,0,0,0,33.909,741.1C34.4,740.9,34.189,740.1,33.687,740.295Z" fill="#ebefeb"/>
    <path id="Path_1640" data-name="Path 1640" d="M38.2,745.68a26.9,26.9,0,0,1-7.47,8.746c-.1.078.028.231.132.17a21.241,21.241,0,0,0,7.93-8.571C39,745.635,38.406,745.288,38.2,745.68Z" fill="#ebefeb"/>
  </g>
</svg>
