<svg xmlns="http://www.w3.org/2000/svg" width="43.491" height="42.5" viewBox="0 0 43.491 42.5">
  <path id="Path_917" data-name="Path 917" d="M233.694,462.575s-7.223-3.542-8.64-.509-.837,7.671,4.9,8.506a8.8,8.8,0,0,0,9.254-5.426c2.316-4.957,6.51-17.777,6.51-17.777s.735-2.008,5.811-.308a35.4,35.4,0,0,1,8.115,3.792s3.045,1.423,2.143,3.353-3.075,12.336-5.191,14.706-4.417-1.392-6.742,2.9.669,9.383,4.6,8.87,10.049-21.507,10.049-21.507,5.117-12.39,2.764-13.825-14.654-6.847-19.4-7.051c0,0-2.806-.639-3.791,1.672S235.994,463.395,233.694,462.575Z" transform="translate(-224.402 -438.212)" fill="#a84749"/>
</svg>
