<svg xmlns="http://www.w3.org/2000/svg" width="71.786" height="45.194" viewBox="0 0 71.786 45.194">
  <g id="Group_306" data-name="Group 306" transform="translate(-20.548 -28.758)">
    <path id="Path_1228" data-name="Path 1228" d="M71.4,73.948c-1.817,0-3.662-.058-5.448-.113-1.523-.048-3.041-.094-4.547-.107-2.736-.024-5.514-.174-8.2-.319-1.3-.07-2.6-.14-3.9-.2-1.106-.048-2.183-.066-3.242-.085a42.43,42.43,0,0,1-8.977-.8c-.549-.126-2.292-.287-3.692-.418-.825-.076-1.582-.147-2.042-.2a6.878,6.878,0,0,1-1.938.29h0a6.691,6.691,0,0,1-4.872-2.237A16.169,16.169,0,0,1,20.548,59.4c.085-3.24,4.541-7.8,7.7-9.642,2.311-1.343,6.321-1.764,8.08-1.886-.513-3.395.7-7.125,3.474-10.589,4.473-5.594,12.042-9.133,18.174-8.434A18.785,18.785,0,0,1,71.85,38.49a17.1,17.1,0,0,1,2.2,12.332,8.893,8.893,0,0,1,3.037-.445,17.362,17.362,0,0,1,5.412.854c4.483,1.748,6.661,4.137,9.11,7.936,1.859,2.88-.17,8.294-2.348,11.094-1.77,2.274-4.611,2.554-7.359,2.825-.8.078-1.63.161-2.414.291A48.666,48.666,0,0,1,71.4,73.948Z" fill="#6c99b9"/>
    <path id="Path_1229" data-name="Path 1229" d="M52.072,71.88V64.794h-4.9l8.184-9.858,7.226,11.193H57.793V71.88Z" fill="#fff"/>
  </g>
</svg>
