<svg xmlns="http://www.w3.org/2000/svg" width="107.893" height="74.766" viewBox="0 0 107.893 74.766">
  <g id="Group_2239" data-name="Group 2239" transform="translate(-799.704 -772.349)">
    <path id="Path_10332" data-name="Path 10332" d="M905.985,780.65a35.967,35.967,0,0,1-14.122,7.383,37.581,37.581,0,0,1,6.146,8.453c4.421,8.446-5.138,15.3-16.479,12.676-6.6-1.527-14.185-9.909-8.22-15.935a35.891,35.891,0,0,1,9.622-6.888.381.381,0,0,0,.058-.645,35.834,35.834,0,0,1-10.973-13.136.382.382,0,0,0-.645-.058,35.835,35.835,0,0,1-13.136,10.973.382.382,0,0,0-.058.645,35.867,35.867,0,0,1,8.241,8.487c5.98,8.722-6.3,17.256-12.768,17.256s-18.751-8.535-12.768-17.256a35.851,35.851,0,0,1,8.238-8.487.381.381,0,0,0-.058-.645A35.834,35.834,0,0,1,835.926,772.5a.382.382,0,0,0-.645.058,35.8,35.8,0,0,1-10.97,13.136.382.382,0,0,0,.058.645,35.886,35.886,0,0,1,9.622,6.888c5.962,6.026-1.615,14.408-8.224,15.935-11.337,2.619-20.9-4.23-16.475-12.676a37.169,37.169,0,0,1,5.722-8,.381.381,0,0,0-.173-.624,35.734,35.734,0,0,1-13.525-7.21q-.486-.409-.972-.843a.384.384,0,0,0-.627.386l1.108,4.139,3.82,14.267,9.128,34.078.3.046c11.351,1.7,28.862,2.612,39.574,2.612s28.219-.915,39.57-2.612l.3-.046,9.128-34.075,3.82-14.27h0l1.108-4.139a.384.384,0,0,0-.627-.386Q906.472,780.241,905.985,780.65ZM802.74,785.965a21.74,21.74,0,0,0,6.81,3.528.382.382,0,0,1,.161.624,21.782,21.782,0,0,0-4.189,6.227Zm60.378-1.407a.381.381,0,0,1,.058-.641,21.979,21.979,0,0,0,7.756-6.476.381.381,0,0,1,.641.058,21.947,21.947,0,0,0,6.476,7.753.382.382,0,0,1-.057.642,21.983,21.983,0,0,0-7.753,6.479.382.382,0,0,1-.642-.057,22.018,22.018,0,0,0-6.479-7.757Zm-33.812,1.335a.381.381,0,0,1-.057-.641,21.954,21.954,0,0,0,6.479-7.752.382.382,0,0,1,.642-.058,21.932,21.932,0,0,0,7.756,6.475.382.382,0,0,1,.058.642,21.991,21.991,0,0,0-6.479,7.756.382.382,0,0,1-.642.058,21.969,21.969,0,0,0-7.756-6.479Zm-16.006,39.5-2.831-10.574a21.777,21.777,0,0,0,6.949,3.621.357.357,0,0,1,.15.584A21.809,21.809,0,0,0,813.3,825.394Zm11.023-3.347a4.025,4.025,0,1,1,4.029-4.025,4.025,4.025,0,0,1-4.029,4.025Zm15.721,2.249a.357.357,0,0,1-.6.054,22.007,22.007,0,0,0-7.813-6.527.357.357,0,0,1-.054-.6,21.986,21.986,0,0,0,6.526-7.813.357.357,0,0,1,.6-.054,21.973,21.973,0,0,0,7.81,6.527.357.357,0,0,1,.054.6,21.949,21.949,0,0,0-6.523,7.814Zm13.491-3.779a4.025,4.025,0,1,1,4.025-4.025A4.025,4.025,0,0,1,853.534,820.517Zm14.324,3.833a.357.357,0,0,1-.6-.054,21.953,21.953,0,0,0-6.508-7.8.372.372,0,0,1,.056-.626,21.945,21.945,0,0,0,7.778-6.5.372.372,0,0,1,.625.057,21.947,21.947,0,0,0,6.5,7.778.372.372,0,0,1-.057.626,21.951,21.951,0,0,0-7.793,6.516Zm15.117-2.3A4.025,4.025,0,1,1,887,818.022a4.025,4.025,0,0,1-4.025,4.025ZM894,825.394a21.772,21.772,0,0,0-4.25-6.351.372.372,0,0,1,.157-.608,21.807,21.807,0,0,0,6.927-3.614Zm7.782-29.046a21.938,21.938,0,0,0-4.25-6.294.326.326,0,0,1,.138-.533,21.819,21.819,0,0,0,6.894-3.555Z" fill="#1f1f1f"/>
    <path id="Path_10333" data-name="Path 10333" d="M853.65,838.282a324.572,324.572,0,0,1-39.051-2.524l1.919,7.163c6.275,2.545,25.474,4.194,37.132,4.194s30.857-1.649,37.133-4.194l1.919-7.163a324.554,324.554,0,0,1-39.051,2.524Z" fill="#1f1f1f"/>
  </g>
</svg>
