<svg xmlns="http://www.w3.org/2000/svg" width="103.951" height="82.448" viewBox="0 0 103.951 82.448">
  <g id="Group_2243" data-name="Group 2243" transform="translate(-801.675 -964.967)">
    <path id="Path_10344" data-name="Path 10344" d="M864.835,1035.907a13.379,13.379,0,0,0-21.866.566,13.37,13.37,0,0,0-19.326-1.289,34.116,34.116,0,0,1,.387,5.24c3.151,2.559,16.518,6.991,29.621,6.991s26.47-4.432,29.621-6.991a34.116,34.116,0,0,1,.387-5.24A13.372,13.372,0,0,0,864.835,1035.907Zm-32.224,5.594a2.462,2.462,0,1,1,2.458-2.462,2.462,2.462,0,0,1-2.458,2.462Zm21.04,3.527a4.676,4.676,0,1,1,4.674-4.675,4.676,4.676,0,0,1-4.674,4.675Zm21.039-3.527a2.458,2.458,0,1,1,1.742-.72,2.462,2.462,0,0,1-1.742.72Z" fill="#1f1f1f"/>
    <path id="Path_10345" data-name="Path 10345" d="M905.626,1020.041a9.853,9.853,0,0,1-.214,2.045.671.671,0,0,1-1.213.232,8.052,8.052,0,0,0-6.7-3.565c-4.5,0-9.706,3.7-12.4,10.842a13.363,13.363,0,0,0-18.66-2.283,13.374,13.374,0,0,0-24.887.562,13.361,13.361,0,0,0-19.337,1.721c-2.7-7.14-7.907-10.842-12.4-10.842a8.052,8.052,0,0,0-6.548,3.344.8.8,0,0,1-1.43-.326,9.851,9.851,0,0,1-.153-1.73,9.983,9.983,0,0,1,10.027-9.94,9.218,9.218,0,0,1,1.251.082,9.644,9.644,0,0,1-.082-1.277,10,10,0,0,1,9.758-10.216,9.31,9.31,0,0,1,1.731.162.8.8,0,0,1,.324,1.423,8.3,8.3,0,0,0-3.318,6.7c0,4.384,3.352,7.773,6.875,7.929,6.134.265,9.576-3.743,9.576-8.365s-4.291-8.361-9.576-8.361a.67.67,0,0,1-.544-1.062c2.753-3.827,6.746-6.238,11.189-6.238,7.337,0,13.442,6.555,14.764,15.237,2.348-15.416,17.835-20.4,25.958-9a.67.67,0,0,1-.546,1.06h0c-5.285,0-9.576,3.739-9.576,8.361s3.441,8.63,9.576,8.365c3.523-.156,6.875-3.546,6.875-7.929a8.288,8.288,0,0,0-3.531-6.856.671.671,0,0,1,.233-1.207,9.284,9.284,0,0,1,2.036-.225,10,10,0,0,1,9.758,10.216,9.634,9.634,0,0,1-.082,1.277,9.205,9.205,0,0,1,1.251-.082,9.983,9.983,0,0,1,10.026,9.941Z" fill="#1f1f1f"/>
    <path id="Path_10346" data-name="Path 10346" d="M860.232,990.662a13.581,13.581,0,0,0-6.581,8.812,13.581,13.581,0,0,0-6.581-8.812c.336-6.54,2.529-18.1,5.793-25.191a.867.867,0,0,1,1.575,0C857.692,972.538,859.9,984.088,860.232,990.662Z" fill="#1f1f1f"/>
    <path id="Path_10347" data-name="Path 10347" d="M846.41,984.349c-.229,1.2-.535,3.247-.659,4.469-.013.033-.113,1.072-.115,1.106a16.066,16.066,0,0,0-5.806-1.411,5.455,5.455,0,0,1,6.581-4.164Z" fill="#1f1f1f"/>
    <path id="Path_10348" data-name="Path 10348" d="M867.472,988.513a16.065,16.065,0,0,0-5.806,1.411c0-.035-.1-1.073-.115-1.106-.115-1.143-.415-3.185-.659-4.469a5.455,5.455,0,0,1,6.581,4.164Z" fill="#1f1f1f"/>
  </g>
</svg>
