<svg xmlns="http://www.w3.org/2000/svg" width="28.84" height="28.84" viewBox="0 0 28.84 28.84">
  <g id="Group_435" data-name="Group 435" transform="translate(-572.078 -328.923)">
    <path id="Path_1482" data-name="Path 1482" d="M586.5,357.763a14.42,14.42,0,1,1,14.421-14.421A14.42,14.42,0,0,1,586.5,357.763Zm0-25.866a11.445,11.445,0,1,0,11.445,11.445A11.445,11.445,0,0,0,586.5,331.9Z" fill="#ececec"/>
    <path id="Path_1483" data-name="Path 1483" d="M580.324,348.267a6.055,6.055,0,0,0,2.925,1.157c.981,0,1.351-.874,1.585-1.669a3.461,3.461,0,0,1,.185-.533s.093-.143.1-.168c.028-.026.068-.063.083-.079l.068-.034a.755.755,0,0,0,.1-.022c.064,0,.127,0,.187.006.11.01.123.01.038,0,.066.013.132.026.2.042a5.327,5.327,0,0,1,.644.2c.026.009.134.055.193.078l.083.038c.308.152.609.33.911.494a7.576,7.576,0,0,0,2.237.917,2.18,2.18,0,0,0,2.33-.885,2.755,2.755,0,0,0-.094-2.955,11.029,11.029,0,0,0-1.988-1.85,9.822,9.822,0,0,1-1.768-1.991,1.918,1.918,0,0,1-.335-.963.616.616,0,0,1,.1-.327.507.507,0,0,0,.042-.078c0,.007,0,.01.036-.015.008,0,.03-.018.072-.043a.294.294,0,0,1,.04-.013.456.456,0,0,0,.051-.018h.062c.008,0,.232.018.178,0a1.728,1.728,0,0,1,.389.123,1.634,1.634,0,0,1,.714.586c.667,1.087,1.9,3.082,3.427,2.535v-3.342a2.207,2.207,0,0,0-2.2-2.207h-8.828a2.206,2.206,0,0,0-2.2,2.207v8.511C580.027,348.076,580.175,348.175,580.324,348.267Z" fill="#93c01f"/>
  </g>
</svg>
