<svg xmlns="http://www.w3.org/2000/svg" width="45.4" height="40.573" viewBox="0 0 45.4 40.573">
  <g id="Group_202" data-name="Group 202" transform="translate(-1076.019 -190.708)">
    <path id="Path_919" data-name="Path 919" d="M1106.532,220.05c5.549.353,8.373-.925,11.024-1.413.565-.1,1.51-.261,2.63-.443a18.131,18.131,0,0,0,1.217-7.328,28.7,28.7,0,0,0-.482-3.827c-4.2.338-4.282,2.237-8.062,3.959-4.167,1.9-8.548.221-8.258-2.6s.063-3.885-3.469-11.552a10.789,10.789,0,0,1-1.2-5.956c-4.557-.274-8.338-.151-8.338-.151s-7.136.861-11.537,6.111a9.8,9.8,0,0,1,6.207,4.838c2.5,4.238-3.565,6.974,0,9.315s3.918,9.4,3.918,12.583a8.9,8.9,0,0,1-2.157,5.895,31.073,31.073,0,0,0,6.648,1.522c.986.123,1.932.195,2.858.24a22.875,22.875,0,0,1,.857-5.184C1099.719,221.463,1100.983,219.7,1106.532,220.05Z" fill="#6d9dbf"/>
    <path id="Path_920" data-name="Path 920" d="M1086.265,211c-3.565-2.341,2.5-5.077,0-9.315a9.8,9.8,0,0,0-6.207-4.838,13.986,13.986,0,0,0-2.944,5.9c-2.158,9.251-2.314,22,10.911,26.734a8.9,8.9,0,0,0,2.157-5.895C1090.182,220.4,1089.829,213.339,1086.265,211Z" fill="#98b99d"/>
    <path id="Path_921" data-name="Path 921" d="M1101.131,196.842c3.532,7.667,3.758,8.727,3.469,11.552s4.091,4.5,8.258,2.6c3.781-1.722,3.866-3.62,8.062-3.959-1.4-7.25-5.543-13.386-11.613-14.893a54.32,54.32,0,0,0-9.374-1.261,10.789,10.789,0,0,0,1.2,5.956Z" fill="#98b99d"/>
    <path id="Path_922" data-name="Path 922" d="M1120.186,218.195c-1.12.181-2.065.338-2.63.443-2.651.488-5.475,1.766-11.024,1.413s-6.813,1.413-8.144,6a22.861,22.861,0,0,0-.857,5.184C1110.523,231.875,1117.549,225.145,1120.186,218.195Z" fill="#98b99d"/>
  </g>
</svg>
