<svg xmlns="http://www.w3.org/2000/svg" xmlns:xlink="http://www.w3.org/1999/xlink" width="67.766" height="67.767" viewBox="0 0 67.766 67.767">
  <defs>
    <linearGradient id="linear-gradient" x1="0.254" y1="0.956" x2="0.781" y2="-0.021" gradientUnits="objectBoundingBox">
      <stop offset="0" stop-color="#088f87"/>
      <stop offset="1" stop-color="#e4e53a"/>
    </linearGradient>
  </defs>
  <path id="Path_268" data-name="Path 268" d="M1275.515,69.261a33.881,33.881,0,1,0,9.924,23.958,33.881,33.881,0,0,0-9.924-23.958Zm5.8,12.424H1271.08l7.347-5.672a31.744,31.744,0,0,1,2.887,5.672ZM1267.6,65.636a32.061,32.061,0,0,1,5.105,3.7l-6.372,2.2Zm6.712,5.225a32.277,32.277,0,0,1,3,3.53l-13.9,10.729,2.431-11.336Zm-21.833-9.543a31.779,31.779,0,0,1,8.609,1.438l-8.609,11.26Zm-1.966.005v6.791l-4.566-6.316a31.832,31.832,0,0,1,4.566-.475Zm-14.747,4.171,1.3,6.043-6.569-2.271a32.125,32.125,0,0,1,5.272-3.772Zm-6.888,5.3,8.667,2.994,2.432,11.336L1225.9,74.256a32.3,32.3,0,0,1,2.971-3.466Zm-4.094,5.083,7.527,5.812H1221.8a31.674,31.674,0,0,1,2.981-5.812Zm-5.14,17.347c0-.875.037-1.742.106-2.6l8.215,4.795-8.052,1.947a31.994,31.994,0,0,1-.269-4.142Zm25.481,31.263a32.007,32.007,0,0,1-24.9-25.175l10.187-2.464,15.512,9.054Zm.9-20.806-6.738-3.933-4.74-12.177-1.832.713,3.842,9.872-16.559-9.665a31.807,31.807,0,0,1,1.114-4.835h13.748L1246.5,92.64Zm5.537,21.458a31.987,31.987,0,0,1-4.477-.315l1.449-33.111-6.146-4.729-4.813-22.442a31.6,31.6,0,0,1,6.272-2.29l6.667,9.222v9.415l-5.735-5.627-1.378,1.4,7.113,6.977v3.289h1.966V77.253l10.561-13.813q1.413.546,2.759,1.221L1261,86.98l-8.346,6.444,1.2,1.556,1.126-.869,1.323,30.67a32,32,0,0,1-4.754.353Zm5.335-32.495,11.643-8.989h13.472a31.5,31.5,0,0,1,1.136,4.984l-16.3,9.517,3.841-9.872-1.831-.713-4.74,12.177-6.738,3.933Zm1.372,31.783-.8-18.525,15.512-9.054,9.923,2.4a32.006,32.006,0,0,1-24.634,25.178Zm17.162-29.009,7.953-4.643q.092,1.211.093,2.448a32.14,32.14,0,0,1-.259,4.078Z" transform="translate(-1217.672 -59.337)" fill="url(#linear-gradient)"/>
</svg>
