<svg xmlns="http://www.w3.org/2000/svg" xmlns:xlink="http://www.w3.org/1999/xlink" width="141.676" height="79.285" viewBox="0 0 141.676 79.285">
  <defs>
    <radialGradient id="radial-gradient" cx="0.861" cy="0.623" r="1.383" gradientTransform="translate(0.234) scale(0.532 1)" gradientUnits="objectBoundingBox">
      <stop offset="0" stop-color="#46d4ff"/>
      <stop offset="1" stop-color="#86e3ff"/>
    </radialGradient>
  </defs>
  <g id="Group_2427" data-name="Group 2427" transform="translate(-11.531 -10.337)">
    <path id="Path_11169" data-name="Path 11169" d="M65.369,80.891A45.175,45.175,0,0,0,72.4,62.722c-12.346-.16-23.805-.524-32.4-1.03-14.16-.834-16.14-1.77-16.764-2.346-2.175-1.352-4.363-6.368-5.833-10.4a88.816,88.816,0,0,1-4.231-16.087c-1.051-6.977.153-8.714.713-9.3.457-.661,1.571-1.229,4.959-1.986,2.492-.557,6.028-1.168,10.512-1.816,8.467-1.224,19.954-2.537,33.218-3.8,28.105-2.667,56.54-4.39,72.442-4.39,12.335,0,14.58.947,15.333,1.972,1.5,1.43,1.963,4.753,1.413,10.144a108.738,108.738,0,0,1-4.928,21.473c-1.861,5.56-4.651,12.477-7.467,14.2-.59.537-1.834,1.1-5.709,1.65-2.761.39-6.576.726-11.34,1-8.57.491-19.968.77-33,.808a60.92,60.92,0,0,1-13.8,14.054,84.779,84.779,0,0,1-8.553,5.827l-5.11,2.932Z" fill="url(#radial-gradient)"/>
    <path id="Path_11170" data-name="Path 11170" d="M135.016,12.793c8.334,0,13.759.461,14.4,1.554,4.983,4.153-5.077,40.961-10.8,44.021-1.966,2.189-25.027,3.157-49.961,3.215-7.288,11.427-22.3,20.041-22.3,20.041a46.081,46.081,0,0,0,7.452-20.111C48.7,61.219,25.554,60.065,24,58.367,19.52,56.035,11.27,27.86,14.859,24.313c1.743-3.669,85.752-11.521,120.157-11.521m0-2.456c-15.937,0-44.418,1.725-72.559,4.4-13.284,1.26-24.792,2.575-33.278,3.8-4.514.653-8.081,1.27-10.6,1.833-3.413.763-4.937,1.4-5.679,2.452a7.066,7.066,0,0,0-1.358,4.434,31.215,31.215,0,0,0,.419,5.785,90.116,90.116,0,0,0,4.292,16.325,53.329,53.329,0,0,0,2.961,6.819,10.935,10.935,0,0,0,3.334,4.178c.818.652,2.271,1.13,6.054,1.608,2.758.349,6.57.668,11.33.948,8.276.488,19.2.843,31.016,1.012a46.065,46.065,0,0,1-3.579,10.986,34.912,34.912,0,0,1-2.985,5.246l-7.025,9.459,10.222-5.868a86.174,86.174,0,0,0,8.69-5.918,63.23,63.23,0,0,0,13.707-13.8c12.78-.046,23.965-.324,32.414-.808,4.8-.275,8.646-.614,11.441-1.009,3.859-.545,5.406-1.136,6.275-1.878,1.375-.88,2.7-2.644,4.149-5.5A71.809,71.809,0,0,0,148,45.543a110.053,110.053,0,0,0,4.985-21.737,31.7,31.7,0,0,0,.115-6.415,7.488,7.488,0,0,0-1.844-4.686c-.89-1.094-2.581-1.649-5.905-1.987-2.479-.252-5.955-.38-10.333-.38Z" fill="#fff"/>
  </g>
</svg>
