<svg xmlns="http://www.w3.org/2000/svg" xmlns:xlink="http://www.w3.org/1999/xlink" width="20.996" height="24.496" viewBox="0 0 20.996 24.496">
  <defs>
    <linearGradient id="linear-gradient" y1="0.5" x2="1" y2="0.5" gradientUnits="objectBoundingBox">
      <stop offset="0" stop-color="#e20613"/>
      <stop offset="1" stop-color="#bd1622"/>
    </linearGradient>
    <linearGradient id="linear-gradient-2" x1="0.5" y1="0.593" x2="0.5" y2="-0.119" xlink:href="#linear-gradient"/>
  </defs>
  <g id="Group_126" data-name="Group 126" transform="translate(-396.636 -39.384)">
    <path id="Path_501" data-name="Path 501" d="M411.47,49.265a1.983,1.983,0,1,1-1.983-1.981,1.983,1.983,0,0,1,1.983,1.981Z" fill="url(#linear-gradient)"/>
    <path id="Path_502" data-name="Path 502" d="M399.735,61.786c1.1.5,1.977,1.74,3.072,2.015a1.367,1.367,0,0,0,.661.063c-.189.017.015-.019.121-.04l.118-.053c-.014-.018.115-.161.039-.018h0a.525.525,0,0,1,.036-.06c0-.02.006-.052.012-.1-.035.217-.023-.275-.022-.261a3.354,3.354,0,0,0-.136-.4,13.718,13.718,0,0,1-.593-2.316,21.42,21.42,0,0,0-.588-2.473c-.5-1.678-1.013-3.338-1.368-5.053-.342-1.653-.383-3.368-.784-5a1.319,1.319,0,0,1,.915-1.613c2.884-.569,5.814-.435,8.717-.789a2.985,2.985,0,0,1,.294-.054c.111-.02.224-.038.336-.055a4.964,4.964,0,0,1,.862-.09,2.443,2.443,0,0,1,1.8.639,3.277,3.277,0,0,1,.419,2.908c-.478,2.346-1.214,4.634-1.5,7.02-.278,2.273-.319,4.55-.759,6.79.115.008.235.015.358.016.152,0,.3.008.457,0,.053,0,.092-.007.114-.006l.04-.012c.006-.01.009-.017.015-.027a6.493,6.493,0,0,0,.47-1.514c.124-.554.286-1.1.409-1.652.24-1.07.583-2.231,1.851-2.418a8.919,8.919,0,0,1,2.258.115c.091.008.181.015.272.025V39.384h-21V61.667a3.973,3.973,0,0,1,3.1.119Z" fill="url(#linear-gradient-2)"/>
  </g>
</svg>
