<svg xmlns="http://www.w3.org/2000/svg" width="106.111" height="91.562" viewBox="0 0 106.111 91.562">
  <g id="Group_2242" data-name="Group 2242" transform="translate(-800.595 -1263.183)">
    <path id="Path_10339" data-name="Path 10339" d="M878.114,1337.951a3.625,3.625,0,0,1-3.763.321l-1.991-.994a3.624,3.624,0,0,0-3.7.277l-1.8,1.263a3.625,3.625,0,0,1-3.8.224l-1.958-1.056a3.625,3.625,0,0,0-3.668.134l-1.859,1.184a3.625,3.625,0,0,1-3.84.034l-1.889-1.156a3.625,3.625,0,0,0-3.653-.077l-1.939,1.077a3.625,3.625,0,0,1-3.837-.2l-1.805-1.262a3.625,3.625,0,0,0-3.662-.289l-2,.975a3.625,3.625,0,0,1-3.791-.384l-.5-.382a51.965,51.965,0,0,1,1.92,14.216s7.65,2.886,23.078,2.886,23.078-2.886,23.078-2.886a51.92,51.92,0,0,1,1.95-14.322Zm-42.4,9.894a1.63,1.63,0,1,1,1.628-1.628,1.63,1.63,0,0,1-1.628,1.628Zm7.275,1.632a2.634,2.634,0,1,1,2.632-2.636,2.634,2.634,0,0,1-2.632,2.636Zm14.8-2.511a4.264,4.264,0,1,1-4.264-4.264,4.264,4.264,0,0,1,4.264,4.264Zm6.521,2.511a2.634,2.634,0,1,1,2.636-2.635,2.634,2.634,0,0,1-2.636,2.635Zm7.275-1.632a1.626,1.626,0,1,1,1.155-.475,1.63,1.63,0,0,1-1.155.475Z" fill="#1f1f1f"/>
    <path id="Path_10340" data-name="Path 10340" d="M853.651,1291.154c-2.257,3.385-6.775,5.393-6.775,11.539,0,6.646,5.646,9.532,6.775,12.542,1.129-3.011,6.771-5.9,6.771-12.542C860.422,1296.547,855.908,1294.54,853.651,1291.154Zm0,0c-2.257,3.385-6.775,5.393-6.775,11.539,0,6.646,5.646,9.532,6.775,12.542,1.129-3.011,6.771-5.9,6.771-12.542C860.422,1296.547,855.908,1294.54,853.651,1291.154Zm0,0c-2.257,3.385-6.775,5.393-6.775,11.539,0,6.646,5.646,9.532,6.775,12.542,1.129-3.011,6.771-5.9,6.771-12.542C860.422,1296.547,855.908,1294.54,853.651,1291.154Zm0,0c-2.257,3.385-6.775,5.393-6.775,11.539,0,6.646,5.646,9.532,6.775,12.542,1.129-3.011,6.771-5.9,6.771-12.542C860.422,1296.547,855.908,1294.54,853.651,1291.154Zm0,0c-2.257,3.385-6.775,5.393-6.775,11.539,0,6.646,5.646,9.532,6.775,12.542,1.129-3.011,6.771-5.9,6.771-12.542C860.422,1296.547,855.908,1294.54,853.651,1291.154Zm0,0c-2.257,3.385-6.775,5.393-6.775,11.539,0,6.646,5.646,9.532,6.775,12.542,1.129-3.011,6.771-5.9,6.771-12.542C860.422,1296.547,855.908,1294.54,853.651,1291.154Zm38.756,11.539c-11.289,0-15.174,13.546-20.317,13.546-1.378,0-3.011-.454-3.011-2.636,0-5.268,11.539-7.65,11.539-16.178,0-13.334-23.04-13.057-26.524-24.229a9.89,9.89,0,0,1-.443-2.988,9.887,9.887,0,0,1-.443,2.988c-3.484,11.172-26.524,10.9-26.524,24.229,0,8.528,11.539,10.91,11.539,16.178,0,2.181-1.632,2.636-3.011,2.636-5.143,0-9.032-13.546-20.317-13.546-9.661,0-14.3,6.271-14.3,12.417a17.093,17.093,0,0,1,4.548-.629c8.778,0,17.246,7.112,21.855,18.344l2.191,1.568a3.625,3.625,0,0,0,3.776.271l1.967-1.018a3.625,3.625,0,0,1,3.7.221l1.817,1.234a3.625,3.625,0,0,0,3.8.166l1.934-1.08a3.625,3.625,0,0,1,3.686.089l1.869,1.165a3.625,3.625,0,0,0,3.822.009l1.875-1.157a3.625,3.625,0,0,1,3.683-.073l1.921,1.082a3.625,3.625,0,0,0,3.815-.159l1.818-1.234a3.625,3.625,0,0,1,3.694-.224l1.965,1.011a3.625,3.625,0,0,0,3.784-.286l2.184-1.58c4.609-11.236,13.073-18.348,21.855-18.348a17.09,17.09,0,0,1,4.548.629C906.706,1308.964,902.063,1302.693,892.406,1302.693Zm-61.833,24.331c-3.635-7.464-8.3-12.213-13-14.516-5.945-2.916-9.43-1.378-10.081-2.291-.629-.879,1.5-3.548,6.911-3.548,7.582,0,16.178,9.554,16.178,19.707Q830.584,1326.7,830.573,1327.024Zm23.078-.25c-1.594-8.278-14.924-12.929-14.924-25.085,0-10.41,12.164-9.657,14.924-18.939,2.761,9.282,14.924,8.528,14.924,18.939C868.575,1313.846,855.245,1318.5,853.651,1326.774Zm46.156-16.557c-.651.913-4.139-.625-10.081,2.291-4.692,2.3-9.361,7.051-13,14.516q-.011-.324-.011-.648c0-10.153,8.6-19.707,16.178-19.707C898.3,1306.67,900.435,1309.339,899.806,1310.218Zm-52.93-7.525c0,6.646,5.646,9.532,6.775,12.542,1.129-3.011,6.771-5.9,6.771-12.542,0-6.146-4.514-8.153-6.771-11.539-2.257,3.386-6.775,5.393-6.775,11.539Zm6.775-11.539c-2.257,3.385-6.775,5.393-6.775,11.539,0,6.646,5.646,9.532,6.775,12.542,1.129-3.011,6.771-5.9,6.771-12.542,0-6.146-4.514-8.153-6.772-11.539Zm0,0c-2.257,3.385-6.775,5.393-6.775,11.539,0,6.646,5.646,9.532,6.775,12.542,1.129-3.011,6.771-5.9,6.771-12.542,0-6.146-4.514-8.153-6.772-11.539Zm0,0c-2.257,3.385-6.775,5.393-6.775,11.539,0,6.646,5.646,9.532,6.775,12.542,1.129-3.011,6.771-5.9,6.771-12.542,0-6.146-4.514-8.153-6.772-11.539Zm0,0c-2.257,3.385-6.775,5.393-6.775,11.539,0,6.646,5.646,9.532,6.775,12.542,1.129-3.011,6.771-5.9,6.771-12.542,0-6.146-4.514-8.153-6.772-11.539Zm0,0c-2.257,3.385-6.775,5.393-6.775,11.539,0,6.646,5.646,9.532,6.775,12.542,1.129-3.011,6.771-5.9,6.771-12.542,0-6.146-4.514-8.153-6.772-11.539Zm0,0c-2.257,3.385-6.775,5.393-6.775,11.539,0,6.646,5.646,9.532,6.775,12.542,1.129-3.011,6.771-5.9,6.771-12.542,0-6.146-4.514-8.153-6.772-11.539Z" fill="#1f1f1f"/>
    <path id="Path_10341" data-name="Path 10341" d="M858.667,1268.2a5.017,5.017,0,1,1-5.017-5.017,5.017,5.017,0,0,1,5.017,5.017Z" fill="#1f1f1f"/>
    <path id="Path_10342" data-name="Path 10342" d="M860.422,1302.693c0,6.646-5.643,9.532-6.771,12.542-1.128-3.011-6.775-5.9-6.775-12.542,0-6.146,4.518-8.153,6.775-11.539C855.908,1294.54,860.422,1296.547,860.422,1302.693Z" fill="#1f1f1f"/>
    <path id="Path_10343" data-name="Path 10343" d="M860.422,1302.693c0,6.646-5.643,9.532-6.771,12.542-1.128-3.011-6.775-5.9-6.775-12.542,0-6.146,4.518-8.153,6.775-11.539C855.908,1294.54,860.422,1296.547,860.422,1302.693Z" fill="#1f1f1f"/>
  </g>
</svg>
