<svg xmlns="http://www.w3.org/2000/svg" width="64.779" height="63.816" viewBox="0 0 64.779 63.816">
  <path id="Path_255" data-name="Path 255" d="M158.7,31.236c-6.453,4.2-10.54,11.549-11.515,19.185a36.972,36.972,0,0,0,4.682,22.225c2.759,5.02,6.66,9.645,11.886,11.992,6.072,2.727,13.057,2.063,19.674,1.345A60.241,60.241,0,0,0,196.3,83.631a20.232,20.232,0,0,0,10.511-7.447c2.55-3.8,3.228-8.516,3.84-13.053.765-5.662,1.53-11.4.839-17.071A33.683,33.683,0,0,0,199.04,23.853c-3.333-2.558-7.893.264-11.9.892-4.61.723-9.278.986-13.894,1.666C168.159,27.162,163.06,28.4,158.7,31.236Z" transform="translate(-146.979 -22.799)" fill="#bc4e4f"/>
</svg>
