<svg xmlns="http://www.w3.org/2000/svg" width="38.395" height="48.066" viewBox="0 0 38.395 48.066">
  <g id="Group_388" data-name="Group 388" transform="translate(-1079.525 -519.252)">
    <g id="Group_386" data-name="Group 386">
      <path id="Path_1512" data-name="Path 1512" d="M1117.884,562.078q-.384-18.812-.759-37.625c-.016-.769.375-3.564-.084-4.122-.753-.914-3.068-.611-4.08-.586-2.065.05-4.109.086-6.18.054q-11.687-.182-23.369-.443c-1.339-.028-2.554-.366-3.145.358a2.018,2.018,0,0,0-.368,1.17c-.648,9.844-.255,19.856-.272,29.716-.006,3.4-.008,6.8.013,10.2.007,1.108.008,2.216.035,3.324.064,2.7,3.691,2.321,5.661,2.532q5.357.574,10.753.649a116.364,116.364,0,0,0,13.481-.6c2.084-.214,5.082-.1,7.01-.936C1118.18,565.084,1117.916,563.7,1117.884,562.078Z" fill="#505659"/>
      <path id="Path_1513" data-name="Path 1513" d="M1082.143,528.213a.338.338,0,0,0,.229.132,10.925,10.925,0,0,0,2.9.308l-.028-4.557-2.967-.119a25.159,25.159,0,0,0-.181,4.012.468.468,0,0,0,.046.223Z" fill="#f2f2f2"/>
      <path id="Path_1514" data-name="Path 1514" d="M1082.143,535a.338.338,0,0,0,.229.132,10.921,10.921,0,0,0,2.9.308l-.028-4.558-2.967-.119a25.173,25.173,0,0,0-.181,4.012.472.472,0,0,0,.046.224Z" fill="#f2f2f2"/>
      <path id="Path_1515" data-name="Path 1515" d="M1082.143,541.787a.338.338,0,0,0,.229.132,10.928,10.928,0,0,0,2.9.308l-.028-4.558-2.967-.119a25.157,25.157,0,0,0-.181,4.012.465.465,0,0,0,.045.224Z" fill="#f2f2f2"/>
      <path id="Path_1516" data-name="Path 1516" d="M1082.143,548.574a.337.337,0,0,0,.229.132,10.925,10.925,0,0,0,2.9.308l-.028-4.557-2.967-.119a25.159,25.159,0,0,0-.181,4.012.468.468,0,0,0,.046.223Z" fill="#f2f2f2"/>
      <path id="Path_1517" data-name="Path 1517" d="M1082.143,555.361a.339.339,0,0,0,.229.132,10.921,10.921,0,0,0,2.9.308l-.028-4.557-2.967-.119a25.172,25.172,0,0,0-.181,4.012.472.472,0,0,0,.046.224Z" fill="#f2f2f2"/>
      <path id="Path_1518" data-name="Path 1518" d="M1082.143,562.148a.338.338,0,0,0,.229.132,10.929,10.929,0,0,0,2.9.308l-.028-4.558-2.967-.119a25.157,25.157,0,0,0-.181,4.012.467.467,0,0,0,.045.224Z" fill="#f2f2f2"/>
      <path id="Path_1519" data-name="Path 1519" d="M1112.049,528.213a.338.338,0,0,0,.229.132,10.925,10.925,0,0,0,2.9.308l-.028-4.557-2.967-.119a25.158,25.158,0,0,0-.181,4.012.471.471,0,0,0,.046.224Z" fill="#f2f2f2"/>
      <path id="Path_1520" data-name="Path 1520" d="M1112.049,535a.338.338,0,0,0,.229.132,10.923,10.923,0,0,0,2.9.308q-.014-2.279-.028-4.557l-2.967-.119a25.144,25.144,0,0,0-.181,4.012.47.47,0,0,0,.046.224Z" fill="#f2f2f2"/>
      <path id="Path_1521" data-name="Path 1521" d="M1112.049,541.787a.338.338,0,0,0,.229.132,10.929,10.929,0,0,0,2.9.308q-.014-2.279-.028-4.558l-2.967-.119a25.157,25.157,0,0,0-.181,4.012.471.471,0,0,0,.046.224Z" fill="#f2f2f2"/>
      <path id="Path_1522" data-name="Path 1522" d="M1112.049,548.574a.337.337,0,0,0,.229.132,10.925,10.925,0,0,0,2.9.308l-.028-4.557-2.967-.119a25.158,25.158,0,0,0-.181,4.012.471.471,0,0,0,.046.224Z" fill="#f2f2f2"/>
      <path id="Path_1523" data-name="Path 1523" d="M1112.049,555.361a.339.339,0,0,0,.229.132,10.923,10.923,0,0,0,2.9.308q-.014-2.279-.028-4.557l-2.967-.119a25.144,25.144,0,0,0-.181,4.012A.468.468,0,0,0,1112.049,555.361Z" fill="#f2f2f2"/>
      <path id="Path_1524" data-name="Path 1524" d="M1112.049,562.148a.338.338,0,0,0,.229.132,10.931,10.931,0,0,0,2.9.308q-.014-2.279-.028-4.558l-2.967-.119a25.157,25.157,0,0,0-.181,4.012.471.471,0,0,0,.046.224Z" fill="#f2f2f2"/>
    </g>
    <g id="Group_387" data-name="Group 387">
      <path id="Path_1525" data-name="Path 1525" d="M1108.208,543.3q.012-7.18-.089-14.36l-18.862-.005q-.053,7.166.013,14.331C1095.583,543.293,1101.9,543.355,1108.208,543.3Z" fill="#c06169"/>
      <path id="Path_1526" data-name="Path 1526" d="M1108.208,560.452q.012-7.18-.089-14.36l-18.862-.005q-.053,7.166.013,14.331C1095.583,560.448,1101.9,560.511,1108.208,560.452Z" fill="#7cb8b7"/>
    </g>
  </g>
</svg>
