<svg xmlns="http://www.w3.org/2000/svg" xmlns:xlink="http://www.w3.org/1999/xlink" width="27.75" height="20.271" viewBox="0 0 27.75 20.271">
  <defs>
    <linearGradient id="linear-gradient" x1="-0.328" y1="-0.498" x2="2.659" y2="3.036" gradientUnits="objectBoundingBox">
      <stop offset="0" stop-color="#009ee2"/>
      <stop offset="1" stop-color="#1d70b7"/>
    </linearGradient>
  </defs>
  <g id="Group_429" data-name="Group 429" transform="translate(-572.695 -192.223)">
    <path id="Path_1459" data-name="Path 1459" d="M600.445,199.248a4.9,4.9,0,0,0-8.471-3.353,6.938,6.938,0,0,0-6.232-3.669,6.7,6.7,0,0,0-6.853,5.765l-.036,0a6.158,6.158,0,1,0,2.364,11.845,4.273,4.273,0,0,0,3.8,2.658,4.14,4.14,0,0,0,3.48-2.081,6.885,6.885,0,0,0,10.931-8.181,4.875,4.875,0,0,0,1.018-2.984Zm-7.021,11.164a4.351,4.351,0,0,1-4.106-2.921c0-.01,0-.021,0-.031a5.886,5.886,0,0,0-.234-1.631,4.305,4.305,0,0,1,.646-2.069,6.611,6.611,0,0,0,1.665-1.551c.062-.032.123-.06.183-.087a4.351,4.351,0,1,1,1.844,8.29Z" fill="url(#linear-gradient)"/>
  </g>
</svg>
