<svg xmlns="http://www.w3.org/2000/svg" width="35.956" height="48.735" viewBox="0 0 35.956 48.735">
  <g id="Group_305" data-name="Group 305" transform="translate(-986.014 -352.274)">
    <path id="Path_1224" data-name="Path 1224" d="M1019.937,354.392c.026-.4.231-1.681-.069-1.99-.324-.335-1.309.085-1.7.169l-4.183.887-8.366,1.775c1.877,1.541,3.556,2.607,5.32,4.277-.421.611-.858,1.566-1.323,2.124a72.315,72.315,0,0,1-8.116,8.831,37.917,37.917,0,0,1-10.712,6.026,18.427,18.427,0,0,1-4.772,1.142c.035,0,1.026.584,1.242.632a9.432,9.432,0,0,0,3.759.142c.331-.069,3.089-.741,3.089-1.048a54.163,54.163,0,0,0,11.732-6.836c2.84-2.172,5.43-4.649,8.165-6.945a24.982,24.982,0,0,1,3.824,2.876c.3.276.812.552,1.06.226a.737.737,0,0,0,.1-.436,76.418,76.418,0,0,1,.484-8.192C1019.635,356.836,1019.859,355.612,1019.937,354.392Z" fill="#61aa99"/>
    <path id="Path_1225" data-name="Path 1225" d="M997.612,390.031c.009-.8.029-1.595,0-2.392a6.132,6.132,0,0,0-.268-2.229c-.324-.729-1.218-.714-2.055-.711l-3.332.013a1.114,1.114,0,0,0-.255.03c-.462-.052-1.006.164-1.059.636a9.214,9.214,0,0,0-.055,1.161,4.494,4.494,0,0,0-.049,1.772q.172,1.8.347,3.609a32.26,32.26,0,0,1,.259,3.609,10.735,10.735,0,0,0,.174,1.8,4.332,4.332,0,0,1,.128,1.1,7.224,7.224,0,0,0-.12.966.824.824,0,0,0,.538.728,11.488,11.488,0,0,0,4.744.688c.537-.031,1.01-.332,1-.78Q997.549,395.029,997.612,390.031Z" fill="#d9924e"/>
    <path id="Path_1226" data-name="Path 1226" d="M1008.856,379.378a.783.783,0,0,0-.789-.73,25.79,25.79,0,0,0-4.752.108.783.783,0,0,0-.692.582.725.725,0,0,0,.125.959,45.451,45.451,0,0,0-.046,4.87c.035.825-.037,1.676-.058,2.507s.069,1.672.011,2.507c-.112,1.622.02,3.25-.062,4.875-.043.838.042,1.668-.033,2.507-.038.426.026.831.015,1.254a3,3,0,0,0,.04.9.774.774,0,0,0,.545,1.116,19.875,19.875,0,0,0,4.56.087.78.78,0,0,0,.784-.725c.088-.875.158-1.754.235-2.63.07-.8.255-1.552.3-2.357q.139-2.636.165-5.275Q1009.253,384.65,1008.856,379.378Z" fill="#6d9dbf"/>
    <path id="Path_1227" data-name="Path 1227" d="M1021.914,372.1a.792.792,0,0,0-.772-.772,29.084,29.084,0,0,0-6.737-.045.751.751,0,0,0-1.114.831,8.326,8.326,0,0,1-.045,1.188c0,.371.009.74.033,1.112.036.561.1,1.121.182,1.677q.681,11.878,1.362,23.756a.929.929,0,0,0,.909.909,25.586,25.586,0,0,0,5.564-.471.924.924,0,0,0,.674-.885C1021.865,390.3,1021.6,381.189,1021.914,372.1Z" fill="#f9dd3a"/>
  </g>
</svg>
