<svg xmlns="http://www.w3.org/2000/svg" width="292.734" height="125.544" viewBox="0 0 292.734 125.544">
  <g id="Group_2193" data-name="Group 2193" transform="translate(-1023.194 -1860.617)">
    <path id="Path_9773" data-name="Path 9773" d="M1315.927,1897.241l-27.96-7.252a1.859,1.859,0,0,1-1.264-2.477l10.533-26.9-78.485,40.053,52.822,19.205Z" fill="#1f1f1f"/>
    <path id="Path_9774" data-name="Path 9774" d="M1052.417,1887.513a1.858,1.858,0,0,1-1.264,2.477l-27.96,7.252,44.353,22.634,52.823-19.205-78.485-40.053Z" fill="#1f1f1f"/>
    <path id="Path_9775" data-name="Path 9775" d="M1119.951,1904.777l-58.049,21.106q18.257,5.127,36.532,8.542Z" fill="#1f1f1f"/>
    <path id="Path_9776" data-name="Path 9776" d="M1219.17,1904.777l21.517,29.648q18.309-3.41,36.531-8.542Z" fill="#1f1f1f"/>
    <path id="Path_9777" data-name="Path 9777" d="M1266.571,1973.718c4.642-14.881,9.306-29.958,13.883-44.879a387.558,387.558,0,0,1-221.787,0c4.583,14.939,9.247,30.014,13.884,44.879a384.389,384.389,0,0,0,194.02,0Z" fill="#1f1f1f"/>
  </g>
</svg>
