<svg xmlns="http://www.w3.org/2000/svg" width="53.408" height="87.523" viewBox="0 0 53.408 87.523">
  <path id="Path_274" data-name="Path 274" d="M455.309,141.125a38.276,38.276,0,0,0-.918,7.934c-.19,17.769,14.689,45.47,36.088,42.907,5.151-.617,10.159-4.34,10.992-9.462,1.678-10.323-9.218-10.492-16.085-12.384-9.516-2.622-16.581-12.528-16.557-22.244.024-10.024,6.328-20.608,17-21.74,5.378-.57,10.442,3.072,15.809,2.626,9.072-.755,6.384-13.813,2.905-18.775-7.2-10.263-19.96-3.653-27.954,1.841C466.325,118.881,458,129.047,455.309,141.125Z" transform="translate(-454.389 -104.609)" fill="#ecb462"/>
</svg>
