<svg xmlns="http://www.w3.org/2000/svg" width="62.793" height="39.233" viewBox="0 0 62.793 39.233">
  <g id="Group_383" data-name="Group 383" transform="translate(-783.134 -439.841)">
    <path id="Path_1497" data-name="Path 1497" d="M845.38,478.593a2.018,2.018,0,0,1-1.484.438c-4.548.167-9.217-.212-13.789-.227q-7.182-.023-14.364.039c-9.457.066-19.035.187-28.416.188-3.633,0-3.9-.713-3.981-4.264q-.224-10.252-.08-20.507c.053-3.738-.039-9.126-.054-13.188a1.018,1.018,0,0,1,1.047-1.022c2.22.061,7.329.195,9.027.18,7.848-.071,15.721.253,23.569.379,7.189.115,14.276-.3,21.448-.57,2.028-.077,4.054.071,6.089.071,1.543.077,1.337.24,1.367,1.8q.037,1.984.07,3.967.117,7.63.087,15.262-.029,7.615-.2,15.228C845.686,477.49,845.739,478.192,845.38,478.593Z" fill="#e6eeef"/>
    <path id="Path_1498" data-name="Path 1498" d="M842.643,477.274l-.849-.256c-3.58-1.079-7.209-2.031-10.756-3.213a35.911,35.911,0,0,1-6.336-2.982q-.45-.256-.892-.524c-5.387-3.26-11.117-5.839-16.227-9.553-2.779-2.02-5.483-4.146-8.35-6.042-4.268-2.823-8.639-5.5-12.4-8.974-.6-.552-1.266-1.027-1.874-1.568a4.2,4.2,0,0,1-1.454-1.808,21.083,21.083,0,0,0-.077,3.767q-.033,1.987-.066,3.974c-.042,2.615-.078,5.231-.088,7.846q-.029,7.631.087,15.262c.023,1.5-.2,3.163.429,4.565a2.051,2.051,0,0,0,.379.6,1.942,1.942,0,0,0,1.32.5c.473.029.923.126,1.4.14,1.333.04,2.668.085,4,.034,7.172-.272,14.259-.686,21.448-.57,7.848.126,15.721.45,23.569.379,1.7-.015,6.479.05,8.7.111.425.012.834-.117.656-.589-.206-.546-.955-.6-1.44-.742Z" fill="#6c99b9" opacity="0.09" style="mix-blend-mode: multiply;isolation: isolate"/>
    <path id="Path_1499" data-name="Path 1499" d="M845.385,443.7c-.247.027-.689.041-1.486.044-4.554.017-9.229-.021-13.807-.023q-7.191,0-14.383,0c-9.469.007-19.06.019-28.454.019-3.637,0-3.908-.071-3.986-.425a5.724,5.724,0,0,1-.08-2.046,8.67,8.67,0,0,0-.055-1.316,2.722,2.722,0,0,1,1.048-.1c2.223.006,7.339.019,9.039.018,7.858-.007,15.742.025,23.6.038,7.2.012,14.295-.03,21.476-.057,2.031-.008,4.059.007,6.1.007,1.545.008,1.339.024,1.368.18.025.132.05.264.07.4a7.99,7.99,0,0,1,.087,1.523,8.342,8.342,0,0,1-.2,1.519C845.692,443.589,845.745,443.659,845.385,443.7Z" fill="#cddee0"/>
    <path id="Path_1500" data-name="Path 1500" d="M818.586,461.465a11.833,11.833,0,0,0,3.646-2.6,15.431,15.431,0,0,0-3.882-2.705,92.252,92.252,0,0,0-8.323-3.99q.172,6.847.228,13.7Q814.434,463.69,818.586,461.465Z" fill="#aa4a4d"/>
    <g id="Group_381" data-name="Group 381">
      <path id="Path_1501" data-name="Path 1501" d="M841.325,474.275a11.817,11.817,0,0,1-2.355.038H789.456a1.446,1.446,0,0,1-.9-.137c-.35-.286.1-.41.534-.4,1.5.031,3.014,0,4.515,0h45.127c.589,0,2.846-.223,2.808.333C841.534,474.183,841.454,474.237,841.325,474.275Z" opacity="0.13"/>
      <path id="Path_1502" data-name="Path 1502" d="M802.973,473.773H793.6c-1.5,0-3.015.031-4.515,0-.438-.009-.884.114-.534.4a1.445,1.445,0,0,0,.9.137h13.532Q802.98,474.042,802.973,473.773Z" opacity="0.42"/>
      <path id="Path_1503" data-name="Path 1503" d="M841.776,473.255a1.17,1.17,0,0,0-.457.072q-.03.609-.024,1.219h.489Q841.78,473.9,841.776,473.255Z" fill="#4e6a7c"/>
      <path id="Path_1504" data-name="Path 1504" d="M788.911,473.4a1.168,1.168,0,0,0-.457.072q-.03.609-.024,1.219h.489Q788.915,474.044,788.911,473.4Z" fill="#4e6a7c"/>
    </g>
    <g id="Group_382" data-name="Group 382">
      <path id="Path_1505" data-name="Path 1505" d="M843.938,441.513a.918.918,0,0,0-.382-.221.6.6,0,0,0-.671.273.586.586,0,0,0,.023.617.628.628,0,1,0,1.03-.669Z" fill="#6c99b9"/>
      <path id="Path_1506" data-name="Path 1506" d="M841.589,441.513a.917.917,0,0,0-.382-.221.6.6,0,0,0-.671.273.586.586,0,0,0,.023.617.628.628,0,1,0,1.03-.669Z" fill="#6c99b9"/>
      <path id="Path_1507" data-name="Path 1507" d="M839.295,441.513a.918.918,0,0,0-.382-.221.6.6,0,0,0-.671.273.586.586,0,0,0,.023.617.628.628,0,1,0,1.03-.669Z" fill="#6c99b9"/>
    </g>
  </g>
</svg>
