<svg xmlns="http://www.w3.org/2000/svg" width="30.973" height="40.689" viewBox="0 0 30.973 40.689">
  <g id="Group_368" data-name="Group 368" transform="translate(-135.931 -607.762)">
    <path id="Path_1445" data-name="Path 1445" d="M152.765,607.992a13.611,13.611,0,0,1,7.061.56,7.908,7.908,0,0,1,4.081,4.947,32.381,32.381,0,0,1,1.077,6.51c.28,2.415,1.036,4.895,1.149,7.3-1.337-1.644-2.307-2.989-4.34-3.885a17.32,17.32,0,0,0-6.69-1.4h-.026c-.543-.035-1.1-.058-1.665-.074-1.067-.171-2.071-.665-1.074-2.026l-.031.016a3.081,3.081,0,0,0,.462-.905c.8-2.363.407-7.083-1.392-7.134C151,610.474,150.8,608.382,152.765,607.992Z" fill="#537082"/>
    <path id="Path_1446" data-name="Path 1446" d="M151.478,619.567h0c-.8-.058-1.018-1.055-1.244-2.8s-.13-3.723.484-4.059a1.132,1.132,0,0,1,.407-.14c.887-.107,1.353,1.269,1.489,3.125C152.769,617.813,152.273,619.626,151.478,619.567Z" fill="#e6e6e6"/>
    <path id="Path_1447" data-name="Path 1447" d="M136.006,621.8a33.3,33.3,0,0,1,1.172-6.8c.5-1.787,1.25-3.653,2.8-4.674a7.783,7.783,0,0,1,2.313-.926,31.669,31.669,0,0,1,4.01-.794,5.783,5.783,0,0,1,2.384-.148,2.047,2.047,0,0,1,1.134,1.067c.152.28.9,2.481.647,2.6-1.233.6-.9,2.25-.646,5.123.149,1.664.677,2.72,1.271,3.058a2.416,2.416,0,0,1-1.944,1.748c-3.89.357-11.6,1.671-12.532,6.473a4.038,4.038,0,0,1-.542-1.4,33.235,33.235,0,0,1-.07-5.325Z" fill="#537082"/>
    <path id="Path_1448" data-name="Path 1448" d="M165.945,642.479a5.281,5.281,0,0,1-.443,1.085,6.188,6.188,0,0,1-1.811,1.9c-3.4,2.488-7.836,3.089-12.048,2.969a20.852,20.852,0,0,1-6.139-.947,10.458,10.458,0,0,1-5.058-3.483c-1.61-2.152-2.077-4.923-2.5-7.578l-.537-3.4a17.726,17.726,0,0,1-.507-2.856c.04-1.573,1.582-3.3,2.747-4.191a14.23,14.23,0,0,1,4.651-2.185,29.679,29.679,0,0,1,14.6-.566,11.232,11.232,0,0,1,3.6,1.306,10.366,10.366,0,0,1,2.2,1.937c.315.351,1.583,1.332,1.663,1.78a35.445,35.445,0,0,1-.2,13.312C166.1,641.87,166.034,642.178,165.945,642.479Z" fill="#537082"/>
  </g>
</svg>
