<svg xmlns="http://www.w3.org/2000/svg" width="49.158" height="45.251" viewBox="0 0 49.158 45.251">
  <g id="Group_417" data-name="Group 417" transform="translate(-412.07 -692.309)">
    <path id="Path_1679" data-name="Path 1679" d="M443.023,736.422c-.65-4.252-1.978-8.391-2.416-12.67a6.643,6.643,0,0,0-1.079-3.743c-1.039-1.221-2.826-1.4-4.426-1.488a3.674,3.674,0,0,0-1.837.212,3.136,3.136,0,0,0-1.418,2.364c-.205,1.1-.22,2.234-.317,3.354-.323,3.727-1.55,7.312-2.218,10.993-.5,2.752,3.235,2.02,4.958,2.047q3.869.061,7.737-.088c.385-.015.851-.084,1-.44a1.015,1.015,0,0,0,.017-.542Z" fill="#eaeaea"/>
    <path id="Path_1680" data-name="Path 1680" d="M412.217,726.806a4.733,4.733,0,0,0,.429,2.088c.715,1.274,2.33,1.435,3.7,1.446,10.328.077,20.881.553,31.193.009,3.128-.165,6.775-.155,9.757-1.173a5.688,5.688,0,0,0,2.6-1.56c1.154-1.36,1.3-4.5,1.267-6.359-.169-8.743.427-16.556-.326-25.268a4.418,4.418,0,0,0-.411-1.789c-.746-1.333-3.838-1.5-5.273-1.5-11.252-.027-17.958-.73-27.594-.183-2.386.135-4.769-.442-7.132-.066-1.64.261-5.523.35-6.757,1.625-1.01,1.044-1.632,5.258-1.6,6.742q.09,3.993.214,7.984C412.472,714.806,411.913,720.808,412.217,726.806Z" fill="#3d3d3d"/>
    <path id="Path_1681" data-name="Path 1681" d="M460.676,726.022a3.33,3.33,0,0,1-.78,1.593,5.689,5.689,0,0,1-2.6,1.56c-2.982,1.018-6.629,1.008-9.757,1.173-10.312.544-20.865.068-31.193-.009-1.371-.01-2.987-.172-3.7-1.445a4.732,4.732,0,0,1-.429-2.088Z" fill="#f7f7f7"/>
    <path id="Path_1682" data-name="Path 1682" d="M414.372,721.611a3.243,3.243,0,0,0,.377,1.629c.64.991,2.46.7,3.7.7,9.352,0,18.906.317,28.246-.165,2.834-.146,5.778.249,8.484-.562a5.444,5.444,0,0,0,2.362-1.234c1.053-1.069,1.2-3.526,1.183-4.975-.1-6.83.481-12.8-.153-19.605a3.036,3.036,0,0,0-.362-1.4c-.668-1.038-3.467-1.148-4.767-1.143-10.189.041-16.26-.6-24.99-.125-2.161.119-4.316-.319-6.458-.012-1.487.213-5,.3-6.128,1.307-.921.821-1.506,4.117-1.484,5.276q.059,3.119.15,6.237C414.67,712.234,414.13,716.926,414.372,721.611Z" fill="#fff"/>
    <path id="Path_1683" data-name="Path 1683" d="M451.438,736.163c-11.772.212-20.743-.263-31.335.144q-.01.606-.021,1.211l-.249.03q15.784.051,31.571-.11A2.865,2.865,0,0,0,451.438,736.163Z" fill="#d6d6d6"/>
  </g>
</svg>
