<svg xmlns="http://www.w3.org/2000/svg" xmlns:xlink="http://www.w3.org/1999/xlink" width="34.523" height="35.201" viewBox="0 0 34.523 35.201">
  <defs>
    <linearGradient id="linear-gradient" x1="0.57" y1="2.131" x2="0.478" y2="0.1" gradientUnits="objectBoundingBox">
      <stop offset="0.352" stop-color="#38a9e0"/>
      <stop offset="1" stop-color="#1d70b7"/>
    </linearGradient>
    <linearGradient id="linear-gradient-2" x1="0.533" y1="1.154" x2="0.439" y2="-0.348" gradientUnits="objectBoundingBox">
      <stop offset="0" stop-color="#38a9e0"/>
      <stop offset="1" stop-color="#1d70b7"/>
    </linearGradient>
    <linearGradient id="linear-gradient-3" x1="0.568" y1="2.207" x2="0.35" y2="-1.816" xlink:href="#linear-gradient-2"/>
    <linearGradient id="linear-gradient-4" x1="0.647" y1="2.139" x2="0.37" y2="-1.884" xlink:href="#linear-gradient-2"/>
  </defs>
  <g id="Group_138" data-name="Group 138" transform="translate(-392.175 -258.652)">
    <path id="Path_575" data-name="Path 575" d="M408.6,258.809a4.548,4.548,0,0,0-.98-.154,3.685,3.685,0,0,0-.946.081,3.541,3.541,0,0,0-.895.333,4.065,4.065,0,0,0-.834.6,6.245,6.245,0,0,0-1.4,2.054,11.972,11.972,0,0,0-.759,2.427,16.5,16.5,0,0,0-.286,2.045c-.042.536-.039,2.676-.039,2.728l2.218-.026c0-.271-.028-2.38.023-2.853a13.58,13.58,0,0,1,.263-1.569,9.156,9.156,0,0,1,.527-1.62,4.364,4.364,0,0,1,.843-1.3,2.671,2.671,0,0,1,.495-.394,2.222,2.222,0,0,1,.542-.232,2.362,2.362,0,0,1,.588-.079,3.021,3.021,0,0,1,.634.068,2.243,2.243,0,0,1,1.379.95,5.643,5.643,0,0,1,.793,1.848,16.258,16.258,0,0,1,.409,2.417c.088.862.139,1.775.173,2.68,0,.111.009.216.011.317s.008.194.012.283.008.173.013.251.01.149.016.217.01.128.014.2.008.149.013.232.008.168.011.257.009.184.011.281c.023.544.05,1.233.123,1.955a11.609,11.609,0,0,0,.385,2.124,3.472,3.472,0,0,0,.85,1.562,1.45,1.45,0,0,0,1.443.328,3.366,3.366,0,0,0,1.621-.951,4.3,4.3,0,0,0,.849-1.4,7.581,7.581,0,0,0,.381-1.44c.074-.442.107-.829.127-1.085,0-.026,0-.053.009-.079s0-.05,0-.074,0-.044.007-.064,0-.035.006-.049c0-.03.008-.063.012-.1s.006-.077.01-.123.007-.095.01-.149.01-.117.014-.185q.085-1.206.209-2.11a11.729,11.729,0,0,1,.285-1.489c.106-.391.225-.1.353-.293s.269.315.418.315h.021c.084,0,.154-.534.216-.481s.11-.16.151-.054a.781.781,0,0,1,.106.269c.029.17.054.305.076.553l0,.017c0,.043.008.078.011.131s0,.106.007.169,0,.127.007.2,0,.14,0,.211c.008.332.016.749.05,1.193a8.3,8.3,0,0,0,.194,1.313,2.512,2.512,0,0,0,.458,1.016.846.846,0,0,0,.814.312,1.138,1.138,0,0,0,.6-.3,2.025,2.025,0,0,0,.446-.659,4.505,4.505,0,0,0,.295-.978,8.945,8.945,0,0,0,.142-1.279,4.612,4.612,0,0,1,.058-.592,1.233,1.233,0,0,1,.1-.352.382.382,0,0,1,.147-.17.335.335,0,0,1,.183-.04.2.2,0,0,1,.1.022.189.189,0,0,1,.072.1c.017.057-.208.14-.195.259s-.21.276-.21.482v.158c0,.148.266.371.291.621a6.528,6.528,0,0,0,.253.781,1.94,1.94,0,0,0,.329.644.52.52,0,0,0,.485.227.886.886,0,0,0,.414-.156.9.9,0,0,0,.249-.3,1.685,1.685,0,0,0,.138-.39,3.985,3.985,0,0,0,.077-.426l.006-.046a.364.364,0,0,0,.006-.044.349.349,0,0,0,.007-.042.226.226,0,0,1,.008-.039l.011-.076.011-.077c.006-.027.008-.053.011-.077s.006-.05.011-.077c.017-.125.03-.229.047-.316a1.06,1.06,0,0,1,.055-.207.235.235,0,0,1,.081-.11.229.229,0,0,1,.127-.034.384.384,0,0,1,.113.01.1.1,0,0,1,.062.049.389.389,0,0,1,.034.116c.008.052.015.121.025.207,0,.024.006.047.008.073s.006.05.009.074.006.052.01.079.008.053.013.08a.457.457,0,0,0,.008.047.368.368,0,0,0,.006.047l.006.049a.461.461,0,0,1,.008.049c.017.115.034.256.062.4a2.6,2.6,0,0,0,.115.425.856.856,0,0,0,.2.322.355.355,0,0,0,.3.1.414.414,0,0,0,.27-.191,1.586,1.586,0,0,0,.2-.406,3.9,3.9,0,0,0,.132-.5c.032-.167.057-.329.072-.467l-.423-.26c0,.037-.013.1-.026.173s-.03.158-.051.236a1.124,1.124,0,0,1-.074.212c-.028.057-.059.094-.093.1a.145.145,0,0,1-.089-.014.137.137,0,0,1-.055-.073.878.878,0,0,1-.04-.159c-.011-.07-.025-.159-.038-.269,0-.02-.006-.04-.008-.057s-.006-.038-.007-.058-.006-.038-.01-.058-.006-.037-.008-.056a.339.339,0,0,1-.006-.044.21.21,0,0,1-.006-.047.5.5,0,0,0-.008-.053.3.3,0,0,0-.006-.054c-.012-.107-.025-.236-.047-.369a2.116,2.116,0,0,0-.1-.4.847.847,0,0,0-.2-.328.513.513,0,0,0-.348-.147.486.486,0,0,0-.374.151,1.155,1.155,0,0,0-.242.4,3.112,3.112,0,0,0-.14.5c-.034.169-.057.329-.073.453,0,.022-.006.044-.008.064s-.006.042-.009.06-.006.037-.01.056-.006.035-.008.05-.008.049-.013.072-.006.046-.009.069-.006.044-.01.065-.006.043-.01.062a.457.457,0,0,1-.009.069c0,.024-.006.048-.008.069s-.008.042-.011.057a.1.1,0,0,1-.009.031.127.127,0,0,1-.015.021.264.264,0,0,1-.045.036.314.314,0,0,1-.087.037.614.614,0,0,1-.142.023.111.111,0,0,1-.1-.039.408.408,0,0,1-.085-.174c-.025-.087.374-.207.355-.367s.372-.363.372-.616v-.138c0-.147-.44-.344-.461-.555s-.264-.441-.321-.653a1.816,1.816,0,0,0-.353-.557.744.744,0,0,0-.514-.267.767.767,0,0,0-.352.054.906.906,0,0,0-.376.307,2.136,2.136,0,0,0-.321.718,6.065,6.065,0,0,0-.18,1.28,6.418,6.418,0,0,1-.108.971,2,2,0,0,1-.191.57.7.7,0,0,1-.242.274.592.592,0,0,1-.259.085.382.382,0,0,1-.331-.117.972.972,0,0,1-.207-.442,5.09,5.09,0,0,1-.111-.785c-.025-.322-.038-.7-.047-1.143q0-.127-.006-.246c0-.078,0-.154-.007-.229s-.007-.145-.01-.212-.009-.135-.013-.2l0-.047c-.012-.152-.032-.382-.07-.642a5.459,5.459,0,0,0-.188-.84,2.455,2.455,0,0,0-.384-.773c-.176-.219-.4-.009-.688-.065-.006,0-.01.37-.016.37h-.041c-.429,0-.779-.2-1.064.208a4.264,4.264,0,0,0-.679,1.514,15.782,15.782,0,0,0-.364,2.022c-.082.691-.128,1.275-.159,1.723,0,.043-.008.062-.01.1s-.007.072-.009.111-.006.067-.008.094,0,.047-.007.06c0,.029-.008.059-.01.089s-.007.062-.01.094-.007.067-.009.1-.007.071-.009.11c-.033.355-.071.711-.135,1.05a3.961,3.961,0,0,1-.288.945,2.1,2.1,0,0,1-.561.749,2.224,2.224,0,0,1-.985.452.674.674,0,0,1-.64-.174,1.849,1.849,0,0,1-.423-.82,8.339,8.339,0,0,1-.248-1.425c-.06-.57-.1-1.229-.128-1.969,0-.1-.007-.2-.011-.293s-.008-.185-.011-.272-.008-.172-.014-.252-.01-.157-.015-.23c0-.05-.009-.108-.012-.172s-.007-.136-.009-.212-.007-.16-.009-.246-.009-.178-.012-.273c-.023-.657-.055-1.537-.14-2.492a19.445,19.445,0,0,0-.481-2.99,8.322,8.322,0,0,0-1.161-2.727,4.1,4.1,0,0,0-2.346-1.686" fill="url(#linear-gradient)"/>
    <path id="Path_576" data-name="Path 576" d="M412.654,286.9c-1.829,3.87-4.813,4.73-8.181,4.73a9.861,9.861,0,0,1-10.068-9.807,9.97,9.97,0,0,1,10.068-9.939,10.831,10.831,0,0,1,6.463,2.464l-.378-2.98a11.5,11.5,0,0,0-6.085-1.6,12.32,12.32,0,0,0-12.3,12.307c0,6.781,5.517,11.784,12.3,11.784,4.663,0,8.727-3.087,10.813-6.957Z" fill="url(#linear-gradient-2)"/>
    <path id="Path_577" data-name="Path 577" d="M407.233,283.564c-.041-1.106-.081-2.432-.081-3.785h-.027c-.3,1.176-.684,2.487-1.039,3.566l-1.12,3.593H403.34l-.983-3.551c-.3-1.093-.6-2.392-.834-3.608h-.027c-.04,1.244-.095,2.664-.149,3.813l-.178,3.5h-1.926l.587-9.208H402.6l.9,3.087c.3,1.052.573,2.2.779,3.279h.055c.246-1.066.559-2.268.875-3.306l.969-3.061h2.732l.492,9.208h-2.023Z" fill="url(#linear-gradient-3)"/>
    <path id="Path_578" data-name="Path 578" d="M413.134,287.089v-3.77l-2.911-5.437h2.391l.929,2.214c.287.669.491,1.16.711,1.762h.027c.206-.573.423-1.107.7-1.762l.929-2.214h2.336l-3.033,5.369v3.839Z" fill="url(#linear-gradient-4)"/>
  </g>
</svg>
