<svg xmlns="http://www.w3.org/2000/svg" width="39.124" height="46.8" viewBox="0 0 39.124 46.8">
  <g id="Group_369" data-name="Group 369" transform="translate(-889.699 -436.062)">
    <path id="Path_1449" data-name="Path 1449" d="M910.354,451.511a11.637,11.637,0,0,0-1.535-.741c-1.12,1.635-2.5,5.336-.382,7.123,0,.008,0,.018,0,.026.2.06.391.117.588.185a4.175,4.175,0,0,1,2.73,3.888,8.573,8.573,0,0,1-.468,4.75,37.006,37.006,0,0,1-1.5,4.656c-1.411,3.635-3.571,7.286-8.054,5.639-3.324-1.22-6.916-3.358-4.562-11.514.971-3.36,2.335-5.483,3.937-6.718A20.514,20.514,0,0,1,902.4,451c-2.768,1.42-4.979,4.426-6.814,7.492-3.328,5.559-9.927,17.861-2.469,21.992s15.346,3.863,21.489-8.836S915.457,454.441,910.354,451.511Z" fill="#537082"/>
    <path id="Path_1450" data-name="Path 1450" d="M923.87,437.51c-5.143-2.2-11.621-3.582-18.092,8.952-5.454,10.566-3.322,16.716,1.914,20.37,2.183-2.366,3.045-4.868,1.69-6.655q-.31-.185-.607-.381c-3.793-2.5-2.154-6.41-.108-9.726s6.77-10.252,10.8-7.5,5.889,6.967.844,13.775c-.362.49-.716.93-1.065,1.337a11.383,11.383,0,0,1-.112,3.936c-.124.811-.264,1.551-.332,2.078a18.778,18.778,0,0,1-.783,3.534c3.989-3.3,7.057-10.027,8.669-13.927C929.166,447.314,930.805,440.476,923.87,437.51Z" fill="#537082"/>
  </g>
</svg>
