<svg xmlns="http://www.w3.org/2000/svg" width="41.148" height="110.286" viewBox="0 0 41.148 110.286">
  <path id="Path_264" data-name="Path 264" d="M381.048,277.305c.012,2.123.114,4.474,1.594,5.995,1.21,1.243,3.038,1.6,4.746,1.9l21.549,3.766c2.86.5,6.029.944,8.477-.616,3.306-2.105,3.676-6.7,3.695-10.619l.387-82.574a30.4,30.4,0,0,0-.772-8.559,10.259,10.259,0,0,0-5.116-6.617c-2.736-1.282-5.932-.829-8.915-.349l-16.443,2.645a16.952,16.952,0,0,0-6.3,1.88c-4.739,2.917-3.39,9.518-3.363,14.168l.112,19.17.226,38.722Q380.987,266.762,381.048,277.305Z" transform="translate(-380.39 -179.146)" fill="#6881a4"/>
</svg>
