<svg xmlns="http://www.w3.org/2000/svg" width="45.111" height="41.445" viewBox="0 0 45.111 41.445">
  <g id="Group_389" data-name="Group 389" transform="translate(-886.706 -607.387)">
    <path id="Path_1527" data-name="Path 1527" d="M931.813,619.5c.019-4.037-.041-8.075-.212-12.112l-44.843,0c-.084,4.029-.061,8.058.03,12.087C901.8,619.5,916.807,619.552,931.813,619.5Z" fill="#537082"/>
    <path id="Path_1528" data-name="Path 1528" d="M931.813,633.972c.019-4.037-.041-8.075-.212-12.112l-44.843,0c-.084,4.029-.061,8.058.03,12.087C901.8,633.969,916.807,634.022,931.813,633.972Z" fill="#537082"/>
    <path id="Path_1529" data-name="Path 1529" d="M931.813,648.811c.019-4.037-.041-8.075-.212-12.112l-44.843,0c-.084,4.029-.061,8.058.03,12.087C901.8,648.808,916.807,648.86,931.813,648.811Z" fill="#537082"/>
    <path id="Path_1530" data-name="Path 1530" d="M927.122,615.608q0-1.076-.025-2.152h-5.265c-.01.716-.007,1.432,0,2.148C923.6,615.608,925.361,615.617,927.122,615.608Z" fill="#e6eeef"/>
    <path id="Path_1531" data-name="Path 1531" d="M927.122,629q0-1.076-.025-2.153h-5.265c-.01.716-.007,1.432,0,2.148C923.6,629,925.361,629.008,927.122,629Z" fill="#e6eeef"/>
    <path id="Path_1532" data-name="Path 1532" d="M927.122,644.739q0-1.076-.025-2.153h-5.265c-.01.716-.007,1.432,0,2.148C923.6,644.738,925.361,644.747,927.122,644.739Z" fill="#e6eeef"/>
    <path id="Path_1533" data-name="Path 1533" d="M921.837,644.739a11.426,11.426,0,0,0-.152-2.153H889.618a12.311,12.311,0,0,0,.022,2.148Q905.739,644.74,921.837,644.739Z" opacity="0.2"/>
    <path id="Path_1534" data-name="Path 1534" d="M921.837,629a11.421,11.421,0,0,0-.152-2.153H889.618a12.311,12.311,0,0,0,.022,2.148Q905.739,629,921.837,629Z" opacity="0.2"/>
    <path id="Path_1535" data-name="Path 1535" d="M922.378,615.608a11.419,11.419,0,0,0-.152-2.152H890.159a12.3,12.3,0,0,0,.022,2.148Q906.28,615.61,922.378,615.608Z" opacity="0.2"/>
  </g>
</svg>
