<svg xmlns="http://www.w3.org/2000/svg" xmlns:xlink="http://www.w3.org/1999/xlink" width="34.33" height="19.216" viewBox="0 0 34.33 19.216">
  <defs>
    <linearGradient id="linear-gradient" x1="0.432" y1="2.807" x2="0.605" y2="-2.895" gradientUnits="objectBoundingBox">
      <stop offset="0" stop-color="#009ee2"/>
      <stop offset="1" stop-color="#1d70b7"/>
    </linearGradient>
  </defs>
  <g id="Group_240" data-name="Group 240" transform="translate(-268.434 -406.653)">
    <path id="Path_856" data-name="Path 856" d="M299.064,409.935a3.694,3.694,0,0,0-2.931,5.948l-2.649,2.421a1.406,1.406,0,0,0-.623-.149h-3.576a1.409,1.409,0,0,0-.632.155l-2.908-2.73a2.058,2.058,0,0,0,.794-1.62v-5.236a2.071,2.071,0,0,0-2.071-2.071h-5.235a2.072,2.072,0,0,0-2.071,2.071v5.236a2.06,2.06,0,0,0,.81,1.631l-4.5,3.877-.051-.006H269.85a1.416,1.416,0,0,0-1.416,1.415v3.579a1.415,1.415,0,0,0,1.416,1.413h3.576a1.414,1.414,0,0,0,1.415-1.413v-3.579a1.416,1.416,0,0,0-.217-.75l4.755-4.1h5.02l3.5,3.286a1.429,1.429,0,0,0-.024.255v3.577a1.414,1.414,0,0,0,1.415,1.415h3.576a1.415,1.415,0,0,0,1.416-1.415V419.57a1.43,1.43,0,0,0-.027-.27l2.8-2.564a3.7,3.7,0,1,0,2.01-6.8Z" fill="url(#linear-gradient)"/>
  </g>
</svg>
