<svg xmlns="http://www.w3.org/2000/svg" width="24.128" height="29.176" viewBox="0 0 24.128 29.176">
  <g id="Group_270" data-name="Group 270" transform="translate(-213.58 -479.172)">
    <g id="Group_267" data-name="Group 267">
      <path id="Path_946" data-name="Path 946" d="M237.012,485.625c-.235-1.855-.029-4.637-.1-6.328a21.7,21.7,0,0,0-4.62,0c-.11,1.1.2,2.137,0,3.012h-4.117c.015-.667-.168-2.286-.1-3.012a21.463,21.463,0,0,0-4.621,0v3.012a33.725,33.725,0,0,1-4.218-.1V479.3a41.89,41.89,0,0,0-4.62-.1v6.428C222.014,485.625,229.947,485.624,237.012,485.625Z"/>
      <path id="Path_947" data-name="Path 947" d="M237.615,505.31c-.454-.14-1.519-.123-1.307-.6-.392.3-.808.1-1.2-.1-.771-5.774-1.355-11.441-2.01-17.376H218.23c-.685,5.491-1.512,11.785-2.009,17.478-.964.1-1.709.433-2.612.6.06,1.028-.089,2.281,0,3.014,2.619-.064,6.357.13,9.14-.1.505-2.651-.932-6.874.6-8.539a3.275,3.275,0,0,1,4.217-.2c-.111.21-.107.213.1.1,1.607,1.54.454,5.842.8,8.639a83.842,83.842,0,0,0,9.141,0,11.551,11.551,0,0,0,0-2.914ZM222.95,494.262h-2.209c.059-2.241-.638-5.173,1.908-4.319C223.259,490.81,223.092,492.978,222.95,494.262Zm5.323,0v-3.917c.424-.578,1.242-.455,2.111-.3.427,1.081.014,3,.3,4.219Z"/>
    </g>
  </g>
</svg>
