<svg xmlns="http://www.w3.org/2000/svg" width="24.263" height="51.067" viewBox="0 0 24.263 51.067">
  <g id="Group_327" data-name="Group 327" transform="translate(-234.015 -351.106)">
    <g id="Group_324" data-name="Group 324">
      <path id="Path_1278" data-name="Path 1278" d="M235.122,362.628h22.565s-1.956-7.694-2.178-8.335-19.147,0-19.147,0L234.623,362a.513.513,0,0,0,.5.626Z" fill="#3c3d3d"/>
      <path id="Path_1279" data-name="Path 1279" d="M255.415,354.008c-.319-1.311-.588-2.395-.66-2.618-.206-.641-17.844,0-17.844,0l-.52,2.474C242.732,353.862,249.074,353.879,255.415,354.008Z" fill="#3c3d3d"/>
    </g>
    <g id="Group_325" data-name="Group 325">
      <path id="Path_1280" data-name="Path 1280" d="M235.229,391.519h22.444c.061,0,.108.047.093.1-.24.871-1.944,7.054-2.15,7.605-.221.593-19.147,0-19.147,0l-1.74-7.129a.485.485,0,0,1,.5-.578Z" fill="#3c3d3d"/>
      <path id="Path_1281" data-name="Path 1281" d="M255.521,399.489c-.319,1.212-.587,2.214-.66,2.421-.206.593-17.844,0-17.844,0l-.52-2.287C242.839,399.625,249.18,399.608,255.521,399.489Z" fill="#3c3d3d"/>
    </g>
    <path id="Path_1282" data-name="Path 1282" d="M234.427,389.817a2.034,2.034,0,0,0,.34,1.2,1.435,1.435,0,0,0,1.195.338c7.176-.231,14.18-.05,21.349-.263a.535.535,0,0,0,.521-.488,189.637,189.637,0,0,0-.21-28.75c-7.767.044-15.113-1.534-22.9,0a177.959,177.959,0,0,0-.3,27.962Z" fill="#333"/>
    <path id="Path_1283" data-name="Path 1283" d="M236.724,387.5a1.717,1.717,0,0,0,.275,1,1.142,1.142,0,0,0,.967.28l17.815-.589a155.477,155.477,0,0,0-.285-23.869c-6.286.036-12.231-1.272-18.532,0a151.12,151.12,0,0,0-.24,23.182Z" fill="#666"/>
    <g id="Group_326" data-name="Group 326" opacity="0.31">
      <path id="Path_1284" data-name="Path 1284" d="M238.737,375.3a3.486,3.486,0,0,1,.389-1.8,1.177,1.177,0,0,1,1.044-.647,1.112,1.112,0,0,1,.979.625,3.448,3.448,0,0,1,.372,1.755,3.688,3.688,0,0,1-.381,1.8,1.149,1.149,0,0,1-1.028.684,1.127,1.127,0,0,1-1-.662,3.55,3.55,0,0,1-.377-1.759Zm.516-.042a3.525,3.525,0,0,0,.233,1.444q.233.5.635.5a.719.719,0,0,0,.655-.512,3.66,3.66,0,0,0,.23-1.454,3.468,3.468,0,0,0-.217-1.381.7.7,0,0,0-.651-.482.717.717,0,0,0-.651.471,3.307,3.307,0,0,0-.234,1.413Z" fill="#fff"/>
      <path id="Path_1285" data-name="Path 1285" d="M242.176,375.3a3.487,3.487,0,0,1,.389-1.8,1.177,1.177,0,0,1,1.044-.647,1.112,1.112,0,0,1,.979.626,3.448,3.448,0,0,1,.373,1.754,3.688,3.688,0,0,1-.381,1.8,1.149,1.149,0,0,1-1.028.684,1.127,1.127,0,0,1-1-.662,3.55,3.55,0,0,1-.377-1.759Zm.516-.042a3.526,3.526,0,0,0,.233,1.444q.233.5.635.5a.719.719,0,0,0,.655-.512,3.659,3.659,0,0,0,.23-1.454,3.468,3.468,0,0,0-.217-1.381.7.7,0,0,0-.651-.482.717.717,0,0,0-.651.471,3.306,3.306,0,0,0-.234,1.413Z" fill="#fff"/>
      <path id="Path_1286" data-name="Path 1286" d="M245.78,374.129a.655.655,0,0,1,.111-.4.373.373,0,0,1,.6,0,.585.585,0,0,1,.111.357.636.636,0,0,1-.115.4.377.377,0,0,1-.311.145.338.338,0,0,1-.287-.145.6.6,0,0,1-.107-.362Zm0,3.083a.658.658,0,0,1,.111-.4.373.373,0,0,1,.6,0,.587.587,0,0,1,.111.357.633.633,0,0,1-.115.4.376.376,0,0,1-.311.145.337.337,0,0,1-.287-.145A.593.593,0,0,1,245.78,377.212Z" fill="#fff"/>
      <path id="Path_1287" data-name="Path 1287" d="M247.336,375.3a3.487,3.487,0,0,1,.389-1.8,1.177,1.177,0,0,1,1.044-.647,1.112,1.112,0,0,1,.979.625,3.449,3.449,0,0,1,.372,1.755,3.688,3.688,0,0,1-.381,1.8,1.15,1.15,0,0,1-1.028.683,1.127,1.127,0,0,1-1-.662,3.549,3.549,0,0,1-.377-1.759Zm.516-.042a3.525,3.525,0,0,0,.233,1.444q.233.5.635.5a.719.719,0,0,0,.655-.512,3.661,3.661,0,0,0,.229-1.454,3.468,3.468,0,0,0-.217-1.381.7.7,0,0,0-.651-.482.717.717,0,0,0-.651.471,3.306,3.306,0,0,0-.234,1.413Z" fill="#fff"/>
      <path id="Path_1288" data-name="Path 1288" d="M250.775,375.3a3.486,3.486,0,0,1,.389-1.8,1.177,1.177,0,0,1,1.044-.647,1.112,1.112,0,0,1,.979.625,3.448,3.448,0,0,1,.372,1.755,3.688,3.688,0,0,1-.381,1.8,1.15,1.15,0,0,1-1.028.683,1.127,1.127,0,0,1-1-.662,3.549,3.549,0,0,1-.377-1.759Zm.516-.042a3.526,3.526,0,0,0,.234,1.444q.233.5.635.5a.719.719,0,0,0,.655-.512,3.661,3.661,0,0,0,.229-1.454,3.468,3.468,0,0,0-.217-1.381.7.7,0,0,0-.651-.482.717.717,0,0,0-.651.471,3.306,3.306,0,0,0-.234,1.413Z" fill="#fff"/>
    </g>
    <path id="Path_1289" data-name="Path 1289" d="M251.88,380.8c-3.764.023-7.534-.007-11.3.106a.121.121,0,0,0,.008.241c3.764.066,7.534-.009,11.3-.032a.157.157,0,1,0-.01-.315Z" fill="#fff" opacity="0.11"/>
  </g>
</svg>
