<svg xmlns="http://www.w3.org/2000/svg" width="25.146" height="22.509" viewBox="0 0 25.146 22.509">
  <g id="Group_375" data-name="Group 375" transform="translate(-513.771 -40.741)">
    <g id="Group_372" data-name="Group 372">
      <path id="Path_1290" data-name="Path 1290" d="M533.46,42.191c0-.8-.455-1.45-1.018-1.45H520.286c-.561,0-1.018.649-1.018,1.45V52.367c0,.8.457,1.449,1.018,1.449h7.222l5.952-6.341Z" fill="#f29100"/>
      <path id="Path_1291" data-name="Path 1291" d="M535.34,44.67v.8l.752-.8Z" fill="#f29100"/>
      <path id="Path_1292" data-name="Path 1292" d="M525.8,54.944h-6.018a2.438,2.438,0,0,1-2.437-2.44V44.67h-2.243a1.334,1.334,0,0,0-1.334,1.335V61.918a1.334,1.334,0,0,0,1.334,1.333h3.547l7.152-7.618Z" fill="#f29100"/>
      <path id="Path_1293" data-name="Path 1293" d="M533.46,52.367V47.475l-5.952,6.341h4.933C533.005,53.817,533.46,53.167,533.46,52.367Z" fill="#f29100"/>
      <path id="Path_1294" data-name="Path 1294" d="M533.46,52.367V47.475l-5.952,6.341h4.933C533.005,53.817,533.46,53.167,533.46,52.367Z" fill="#fff" opacity="0.25"/>
      <path id="Path_1295" data-name="Path 1295" d="M532.9,54.944h-6.016v6.974a1.333,1.333,0,0,0,1.332,1.333h9.365a1.332,1.332,0,0,0,1.334-1.333V46.005a1.333,1.333,0,0,0-1.334-1.335h-1.491l-.752.8V52.5a2.438,2.438,0,0,1-2.438,2.44Z" fill="#f29100"/>
      <path id="Path_1296" data-name="Path 1296" d="M532.9,54.944h-6.016v6.974a1.333,1.333,0,0,0,1.332,1.333h9.365a1.332,1.332,0,0,0,1.334-1.333V46.005a1.333,1.333,0,0,0-1.334-1.335h-1.491l-.752.8V52.5a2.438,2.438,0,0,1-2.438,2.44Z" fill="#fff" opacity="0.25"/>
      <path id="Path_1297" data-name="Path 1297" d="M525.8,61.918V55.633l-7.152,7.618h5.82a1.334,1.334,0,0,0,1.332-1.333Z" fill="#f29100"/>
      <path id="Path_1298" data-name="Path 1298" d="M525.8,61.918V55.633l-7.152,7.618h5.82a1.334,1.334,0,0,0,1.332-1.333Z" fill="#fff" opacity="0.25"/>
    </g>
  </g>
</svg>
