<svg xmlns="http://www.w3.org/2000/svg" width="126.872" height="146.155" viewBox="0 0 126.872 146.155">
  <g id="Group_2157" data-name="Group 2157" transform="translate(-27.764 -529.401)">
    <path id="Path_9643" data-name="Path 9643" d="M91.2,670.161C84.888,662.186,74.795,657.9,64.192,653.4c-16.614-7.05-32.3-13.708-32.3-34.925,0-11.239,3.7-17.952,7.284-24.444,3.364-6.1,6.541-11.861,5.347-19.838-1.155-7.72-5.555-14.747-13.088-20.917l8.409-19.588c13.645,7.459,32.127,11.694,51.36,11.694s37.715-4.234,51.359-11.693l8.409,19.587c-7.533,6.169-11.932,13.2-13.088,20.916-1.194,7.977,1.983,13.737,5.346,19.836,3.582,6.494,7.285,13.207,7.285,24.446,0,21.217-15.69,27.875-32.3,34.923C107.606,657.9,97.513,662.186,91.2,670.161Z" fill="#fff"/>
    <path id="Path_9644" data-name="Path 9644" d="M41.325,537.84c13.732,6.75,31.491,10.547,49.875,10.547s36.143-3.8,49.875-10.546l6.266,14.594c-7.076,6.3-11.249,13.457-12.427,21.319-1.344,8.981,2.23,15.461,5.687,21.73,3.4,6.159,6.91,12.528,6.91,23,0,19.231-14.121,25.223-30.476,32.163-9.38,3.981-19.007,8.066-25.836,15.014-6.829-6.948-16.457-11.034-25.84-15.015C49.01,643.7,34.889,637.71,34.889,618.479c0-10.467,3.513-16.836,6.912-23,3.456-6.267,7.03-12.747,5.686-21.728-1.176-7.862-5.351-15.016-12.427-21.319l6.266-14.594M38.419,529.4,27.764,554.217c8.023,6.024,12.661,12.893,13.788,20.424,1.043,6.974-1.761,12.057-5.007,17.944-3.589,6.507-7.657,13.882-7.657,25.893,0,23.2,17.35,30.565,34.129,37.685,11.728,4.977,22.828,9.687,28.183,19.392,5.355-9.7,16.455-14.415,28.183-19.392,16.779-7.12,34.129-14.483,34.129-37.685,0-12.012-4.068-19.387-7.657-25.893-3.247-5.887-6.051-10.971-5.007-17.944,1.128-7.532,5.766-14.4,13.788-20.424L143.982,529.4c-13.415,8.259-32.6,12.985-52.782,12.985S51.834,537.661,38.419,529.4Z" fill="#1f1f1f"/>
  </g>
</svg>
