<svg xmlns="http://www.w3.org/2000/svg" width="39.208" height="47.22" viewBox="0 0 39.208 47.22">
  <path id="Path_929" data-name="Path 929" d="M833.35,218.144a.53.53,0,0,0-.286,0c-.254.065-1.162,1.7-1.49,1.983a3.046,3.046,0,0,1-2.125.811,3.606,3.606,0,0,1-1.6-.587,7.485,7.485,0,0,1-3.047-4.825c-.395-2.573,1.372-5.051,3.55-6.475a4.2,4.2,0,0,1,2.836-.852c2.049.143,1.529-.064,1.415-1.977-.164-2.752.148-4.9-.044-7.674a.5.5,0,0,0-.645-.558,36.409,36.409,0,0,0-4.838.445,17.668,17.668,0,0,1-4.977.221c-1.415-.29-.879-1.455-.758-2.657a7.868,7.868,0,0,0-.6-4.312,6.539,6.539,0,0,0-2.261-2.6c-3.608-2.467-8.372-2.446-11.163,1.337a7.709,7.709,0,0,0-1.544,5.2c.143,1.772,1.109,2.369,1.778,3.891-1.37.68-6.539.388-8.058.437-.967.031-2.687-.319-3.546.222-1.31.826-1.037,3.028-.86,4.316a58.23,58.23,0,0,1,.542,5.953c.014.37.312,2.834,1.262,1.394a5.014,5.014,0,0,1,1.971-1.749c2.38-1.186,6.153-.61,6.943,2.2.735,2.616,1.4,5.973-.053,8.435-1.152,1.959-4.368,3.734-6.678,2.764-.387-.163-2.964-1.266-2.816-.03a51.966,51.966,0,0,1,.31,7.371,7.514,7.514,0,0,0,.422,3.063,1.166,1.166,0,0,0,.525.63,1.452,1.452,0,0,0,.725.056c4.77-.4,9.61-.326,14.432-.36,6.529,0,13.128.161,19.651-.108,1.583-.065,1.75-.263,1.807-1.754.06-1.561-.1-3.164-.15-4.726-.083-2.621-.169-4.6-.25-7.224C833.7,219.781,833.946,218.327,833.35,218.144Z" transform="translate(-794.927 -187.386)" fill="#8ca380"/>
</svg>
