<svg xmlns="http://www.w3.org/2000/svg" width="44.906" height="45.239" viewBox="0 0 44.906 45.239">
  <g id="Group_221" data-name="Group 221" transform="translate(-318.424 -430.994)">
    <g id="Group_219" data-name="Group 219">
      <g id="Group_218" data-name="Group 218">
        <path id="Path_996" data-name="Path 996" d="M319.761,448.715a1.951,1.951,0,0,0-.438,3.5q14.458,11.1,27.335,22.2c1.107.954,2.428,1.979,3.912,1.8a5.093,5.093,0,0,0,2.476-1.311l9.572-7.7a1.914,1.914,0,0,0,.035-2.947,238.938,238.938,0,0,0-27.649-21.443,2.665,2.665,0,0,0-2.761-.127A94.325,94.325,0,0,1,319.761,448.715Z" fill="#666"/>
        <path id="Path_997" data-name="Path 997" d="M325.516,450.5a1.377,1.377,0,0,0-.294,2.451q10.05,7.79,19.186,15.738A3.94,3.94,0,0,0,347.2,470a3.614,3.614,0,0,0,1.779-.908l6.946-5.43a1.36,1.36,0,0,0,.033-2.116,170.591,170.591,0,0,0-19.817-15.284,1.862,1.862,0,0,0-1.944-.073,65.683,65.683,0,0,1-8.684,4.31Z" fill="#fff"/>
      </g>
      <path id="Path_998" data-name="Path 998" d="M334.914,448.049a1.34,1.34,0,0,0-.665-.25,1.309,1.309,0,0,0-.61.212,11.172,11.172,0,0,0-1.164.721c-.379.275-.729.588-1.115.854-.3.208-.621.387-.941.565l-2.145,1.194A4.366,4.366,0,0,0,327.2,452a1.669,1.669,0,0,0-.29.408,15.019,15.019,0,0,0,1.527,1.366c.3.243.713.794,1.157.728.268-.04.544-.351.754-.51l.146-.111.293,1.17a9.273,9.273,0,0,0,.3-1.475c.007-.051.009-.1.015-.154l.248-.188q1.433-1.089,2.856-2.19a6.946,6.946,0,0,1,1.139-.733c.143-.073,1.25-1.03,1.271-1.012a20.848,20.848,0,0,0-1.7-1.253Z" fill="#ccc"/>
      <path id="Path_999" data-name="Path 999" d="M345.45,455.1c-.3-.049-.6-.135-.9-.21.335-.324.683-.633,1.005-.969l-1.452-.879a.553.553,0,0,0-.218-.092.561.561,0,0,0-.415.215c-.821.794-2.015,1.441-2.837,2.235-.67.649-.851.838-1.8,1.821.37.258,1.3,1.083,1.667,1.341a1.779,1.779,0,0,1,.661-.724c.965-.731,1.88-1.524,2.769-2.346a3.174,3.174,0,0,0,.673-.036,2.15,2.15,0,0,0,.847-.356Z" fill="#b8cdd8"/>
      <path id="Path_1000" data-name="Path 1000" d="M337,453.193l-.842-.628a.314.314,0,0,0-.134-.069.308.308,0,0,0-.208.073c-1.462.982-2.947,2.164-4.372,3.2.228.186,1.01.81,1.238,1a.412.412,0,0,0,.2.109.418.418,0,0,0,.317-.173c.055-.056.114-.108.169-.165l.266,1.063a9.282,9.282,0,0,0,.3-1.475c.008-.05.009-.1.015-.153C334.93,455,335.941,454.068,337,453.193Z" fill="#ccc"/>
      <path id="Path_1001" data-name="Path 1001" d="M344.047,460.672l-1.1-.906a.2.2,0,0,0-.309-.016l-2.181,1.563a4.906,4.906,0,0,0-1.419,1.336,11.816,11.816,0,0,0,1.167,1.009.413.413,0,0,0,.186.1.384.384,0,0,0,.218-.057,3.374,3.374,0,0,0,.518-.343l.38.523c.037.051.089.109.151.1.026-.371.045-.743.061-1.115A24.842,24.842,0,0,0,344.047,460.672Z" fill="#ccc"/>
      <path id="Path_1002" data-name="Path 1002" d="M351.917,460.615l1-1.175-1.84-1.07a.359.359,0,0,0-.168-.063.352.352,0,0,0-.2.082c-1.95,1.357-3.238,3.475-5.057,5a.238.238,0,0,0-.106.156.232.232,0,0,0,.057.136,16.422,16.422,0,0,0,1.561,1.884q1.573-1.368,3.059-2.831a3.263,3.263,0,0,0,.914-1.258,5.107,5.107,0,0,0,1.3.068c.059-.173-.136-.32-.3-.4s-.363-.216-.315-.392a.391.391,0,0,1,.09-.143Z" fill="#b8cdd8"/>
    </g>
    <g id="Group_220" data-name="Group 220">
      <path id="Path_1003" data-name="Path 1003" d="M331.288,437.274a34.924,34.924,0,0,1-4.031-3.7c-.552-.639.369-1.529.956-.907,1.254,1.327,2.392,2.744,3.722,4C332.36,437.06,331.718,437.637,331.288,437.274Z" fill="#666"/>
      <path id="Path_1004" data-name="Path 1004" d="M333.795,435.777a10.778,10.778,0,0,1,.839-4.339c.335-.777,1.6-.459,1.3.377a23.93,23.93,0,0,0-1.138,4.112C334.694,436.509,333.794,436.332,333.795,435.777Z" fill="#666"/>
      <path id="Path_1005" data-name="Path 1005" d="M336.6,437.155a26.812,26.812,0,0,1,3.446-4.912c.524-.651,1.647-.021,1.14.7a27.464,27.464,0,0,1-3.863,4.8.472.472,0,0,1-.723-.587Z" fill="#666"/>
    </g>
  </g>
</svg>
