<svg xmlns="http://www.w3.org/2000/svg" width="25.374" height="24.465" viewBox="0 0 25.374 24.465">
  <g id="Group_432" data-name="Group 432" transform="translate(-574.521 -265.492)">
    <path id="Path_1470" data-name="Path 1470" d="M592.87,265.492H582.55a7.023,7.023,0,0,0-7.025,7.024V282.84a7.128,7.128,0,0,0,.051.806,3.972,3.972,0,0,1,3.452.1l1.857-1.858a8.538,8.538,0,1,1,1.2,1.605l-1.576,1.577a3.977,3.977,0,0,1-.042,4.482,7.027,7.027,0,0,0,2.08.313h10.32a7.023,7.023,0,0,0,7.025-7.02V272.516a7.024,7.024,0,0,0-7.026-7.024Z" fill="#2b2523"/>
    <path id="Path_1471" data-name="Path 1471" d="M579.564,286.012a2.68,2.68,0,1,0-.673,3.346,2.691,2.691,0,0,0,.673-3.346Z" fill="#bd1622"/>
  </g>
</svg>
