<svg xmlns="http://www.w3.org/2000/svg" width="26.723" height="21.529" viewBox="0 0 26.723 21.529">
  <g id="Group_305" data-name="Group 305" transform="translate(-212.202 -555.015)">
    <path id="Path_1064" data-name="Path 1064" d="M230.872,569.392a.7.7,0,0,0,.07-.977l-4.465-4.465a4.582,4.582,0,0,0,3.133-3.705c.006-.04.01-.079.015-.123h.247a.463.463,0,0,0,0-.907h-.2a.5.5,0,0,0-.039-.032,4.578,4.578,0,0,0-9.122.032h-.233a.463.463,0,0,0,0,.907h.248a4.58,4.58,0,0,0,3.223,3.853l.046.042-4.015,4.013c-.2.2-.114.6.189.9s.706.387.9.191l1.248-1.249v3.775a1.17,1.17,0,0,0,.934,1.143v2.742a1.009,1.009,0,1,0,2.018,0v-2.721h.555v2.721a1.008,1.008,0,1,0,2.016,0v-2.766a1.167,1.167,0,0,0,.841-1.119V568.2l1.407,1.255a.692.692,0,0,0,.975-.066Zm-3.811-11.609a.422.422,0,1,1-.421.423.422.422,0,0,1,.421-.423Zm-3.691.845a.419.419,0,1,1,.3-.123.422.422,0,0,1-.3.123Zm2.815,3.136a1.127,1.127,0,0,1-.8,1.1.544.544,0,0,1-.077,0,.663.663,0,0,1-.15-.017c-.014,0-.029-.01-.044-.013a.392.392,0,0,1-.093-.04,1.048,1.048,0,0,1-.479-.565,1.653,1.653,0,0,1-.088-.3,1.748,1.748,0,0,1-.036-.357c0-.712.4-1.291.89-1.291s.886.578.886,1.291a1.689,1.689,0,0,1-.008.174l.018,0Z" fill="#b3b3b3"/>
    <path id="Path_1065" data-name="Path 1065" d="M218.653,572.421a.4.4,0,0,0,.039-.563l-2.573-2.57a2.645,2.645,0,0,0,1.806-2.139c0-.021.006-.045.008-.07h.143a.266.266,0,0,0,0-.521h-.114a.125.125,0,0,0-.022-.019,2.638,2.638,0,0,0-5.257.019h-.134a.266.266,0,0,0,0,.521h.144a2.641,2.641,0,0,0,1.857,2.222l.025.021-2.314,2.315c-.112.115-.066.346.109.519s.407.223.52.108l.719-.716v2.173a.677.677,0,0,0,.539.661v1.58a.581.581,0,1,0,1.162,0V574.4h.32v1.566a.582.582,0,1,0,1.163,0v-1.595a.674.674,0,0,0,.484-.646v-1.984l.811.724a.4.4,0,0,0,.564-.039Zm-2.2-6.689a.244.244,0,1,1-.243.244.244.244,0,0,1,.243-.244Zm-2.128.487a.244.244,0,1,1,.243-.244.244.244,0,0,1-.243.244Zm1.624,1.808a.649.649,0,0,1-.462.629c-.014,0-.029.006-.044.006a.346.346,0,0,1-.086-.013l-.026-.008-.054-.021a.622.622,0,0,1-.276-.329.8.8,0,0,1-.05-.172.946.946,0,0,1-.021-.2c0-.41.23-.744.512-.744s.511.334.511.744c0,.032,0,.068,0,.1l.01,0Z" fill="#b3b3b3"/>
    <path id="Path_1066" data-name="Path 1066" d="M238.789,572.421a.4.4,0,0,0,.039-.563l-2.572-2.57a2.643,2.643,0,0,0,1.805-2.139c0-.021.006-.045.008-.07h.144a.266.266,0,0,0,0-.521H238.1a.114.114,0,0,0-.023-.019,2.638,2.638,0,0,0-5.257.019h-.134a.266.266,0,0,0,0,.521h.144a2.644,2.644,0,0,0,1.857,2.222l.027.021-2.314,2.315c-.113.115-.066.346.109.519s.406.223.521.108l.72-.716v2.173a.678.678,0,0,0,.538.661v1.58a.581.581,0,0,0,1.162,0V574.4h.321v1.566a.581.581,0,0,0,1.162,0v-1.595a.673.673,0,0,0,.484-.646v-1.984l.811.724A.4.4,0,0,0,238.789,572.421Zm-2.2-6.689a.244.244,0,1,1-.242.244.244.244,0,0,1,.242-.244Zm-2.128.487a.244.244,0,1,1,.243-.244.244.244,0,0,1-.243.244Zm1.624,1.808a.648.648,0,0,1-.462.629c-.014,0-.028.006-.043.006a.332.332,0,0,1-.086-.013l-.024-.007a.55.55,0,0,1-.055-.021.62.62,0,0,1-.277-.329.843.843,0,0,1-.05-.172,1.014,1.014,0,0,1-.02-.2c0-.41.229-.744.512-.744s.51.334.51.744c0,.032,0,.068,0,.1l.009,0Z" fill="#b3b3b3"/>
  </g>
</svg>
