<svg xmlns="http://www.w3.org/2000/svg" width="198.582" height="108.515" viewBox="0 0 198.582 108.515">
  <g id="Group_2149" data-name="Group 2149" transform="translate(-623.292 -1379.512)">
    <path id="Path_9623" data-name="Path 9623" d="M722.583,1488.027c-8.413,0-17.208-1.069-28.516-3.465-20.629-4.372-66.474-29.058-70.775-31.39v-38.8c4.307-2.335,50.147-27.018,70.775-31.39,11.308-2.4,20.1-3.465,28.516-3.465s17.207,1.069,28.516,3.465c20.628,4.372,66.469,29.056,70.775,31.39v38.8c-4.307,2.335-50.148,27.019-70.775,31.39C739.791,1486.958,731,1488.027,722.583,1488.027Z" fill="#1f1f1f"/>
    <path id="Path_9624" data-name="Path 9624" d="M722.583,1488.027c-8.413,0-17.208-1.069-28.516-3.465-20.629-4.372-66.474-29.058-70.775-31.39v-38.8c4.307-2.335,50.147-27.018,70.775-31.39,11.308-2.4,20.1-3.465,28.516-3.465s17.207,1.069,28.516,3.465c20.628,4.372,66.469,29.056,70.775,31.39v38.8c-4.307,2.335-50.148,27.019-70.775,31.39C739.791,1486.958,731,1488.027,722.583,1488.027Z" fill="#1f1f1f"/>
    <path id="Path_9625" data-name="Path 9625" d="M722.583,1481.027c-7.9,0-16.249-1.022-27.065-3.313-13.718-2.908-42.414-16.6-64.7-28.446l-.531-.282v-30.433l.531-.282c22.281-11.846,50.978-25.538,64.7-28.446,10.809-2.291,19.156-3.312,27.065-3.312s16.255,1.021,27.064,3.313c13.719,2.908,42.416,16.6,64.7,28.446l.531.282v30.433l-.531.282c-22.28,11.845-50.977,25.538-64.7,28.446C738.832,1480,730.485,1481.027,722.583,1481.027Zm-90.291-33.244c22.084,11.716,50.234,25.132,63.642,27.974,10.673,2.262,18.892,3.27,26.649,3.27s15.976-1.009,26.649-3.27c13.409-2.842,41.559-16.258,63.642-27.974v-28.028c-22.083-11.716-50.232-25.132-63.642-27.974-10.667-2.262-18.886-3.27-26.649-3.27s-15.982,1.008-26.649,3.27c-13.408,2.842-41.558,16.258-63.642,27.974Z" fill="#fff"/>
    <path id="Path_9626" data-name="Path 9626" d="M722.583,1485.527c-8.23,0-16.865-1.052-28-3.411-14.727-3.121-45.836-18.117-68-30.012l-.79-.424v-35.823l.79-.424c22.165-11.894,53.274-26.889,68-30.012,11.13-2.358,19.765-3.41,28-3.41s16.866,1.052,28,3.41c14.729,3.123,45.838,18.118,68,30.012l.791.424v35.823l-.791.424c-22.164,11.894-53.273,26.889-68,30.012C739.448,1484.476,730.813,1485.527,722.583,1485.527Zm-93.791-35.642c21.934,11.73,52.17,26.277,66.416,29.3,10.92,2.314,19.363,3.347,27.375,3.347s16.455-1.032,27.375-3.347c14.25-3.02,44.484-17.566,66.416-29.3v-32.231c-21.932-11.729-52.167-26.276-66.416-29.3-10.919-2.313-19.361-3.346-27.375-3.346s-16.458,1.032-27.375,3.346c-14.248,3.02-44.484,17.566-66.416,29.3Z" fill="#fff"/>
  </g>
</svg>
