<svg xmlns="http://www.w3.org/2000/svg" xmlns:xlink="http://www.w3.org/1999/xlink" width="89.967" height="68.669" viewBox="0 0 89.967 68.669">
  <defs>
    <linearGradient id="linear-gradient" x1="0.292" y1="1.167" x2="0.718" y2="0.054" gradientUnits="objectBoundingBox">
      <stop offset="0" stop-color="#065ca8"/>
      <stop offset="1" stop-color="#47c2f1"/>
    </linearGradient>
  </defs>
  <path id="Path_581" data-name="Path 581" d="M1284.272,730.956V713.675h-8.116v9.792l-24.6-22.6-44.983,41.317h12.174v27.351h27.273V755.17a1.053,1.053,0,0,1,.986-1.1h1.437v-7.113a1.08,1.08,0,0,1,.806-1.074l20.9-4.414v-7.175h-2.234V738.5a1.03,1.03,0,0,1-.975,1.083H1231.97a1.091,1.091,0,0,1-1.05-1.083v-9.584a1.121,1.121,0,0,1,1.05-1.114h34.969a1.061,1.061,0,0,1,.976,1.114v3.48h4.153v10.28a1.015,1.015,0,0,1-.753.765l-20.89,4.416v6.209h1.48a1.021,1.021,0,0,1,.941,1.1v14.363h31.426V742.183h12.268Zm-52.062,29.181h-4.877v-5.471h4.877Zm1.226-12.344h4.939v5.47h-4.939Zm0,6.873h4.939v5.471h-4.939Zm-1.226-6.873v5.47h-4.877v-5.47Z" transform="translate(-1206.573 -700.865)" fill="url(#linear-gradient)"/>
</svg>
