<svg xmlns="http://www.w3.org/2000/svg" width="58.34" height="48.712" viewBox="0 0 58.34 48.712">
  <g id="Group_198" data-name="Group 198" transform="translate(-406.447 -26.997)">
    <path id="Path_907" data-name="Path 907" d="M430.822,61.754s3.75-2.143,7.769,1.875,1.607,12.59-6.429,12.055S422.786,64.433,430.822,61.754Z" fill="#65a8df"/>
    <path id="Path_908" data-name="Path 908" d="M418.405,59.5s6.253-8.236,19.618-6.1c6.1.976,11.01,2.26,13.333,4.952.347.4.9.238,1.762-1.19s3.714-5.857,2.857-6.428A33.441,33.441,0,0,0,437.27,44.6c-13.008-.261-17.865,4.286-23.007,8.428a14.28,14.28,0,0,0,.714,2.184C415.405,56.168,417.766,60.29,418.405,59.5Z" fill="#65a8df"/>
    <path id="Path_909" data-name="Path 909" d="M411.138,43.905s7.7-10.168,26.124-9.167S459.975,42.6,459.975,42.6s.572.286,1.286-.571,3.428-5.781,3.428-5.781a1.15,1.15,0,0,0-.571-1.506c-1-.427-7.428-7.427-19.857-7.713s-27.428,1.427-37.57,9.218a2.326,2.326,0,0,0,0,2.077c.571,1,1.762,3.053,1.762,3.053S410.347,44.8,411.138,43.905Z" fill="#65a8df"/>
  </g>
</svg>
