<svg xmlns="http://www.w3.org/2000/svg" width="95.988" height="80.872" viewBox="0 0 95.988 80.872">
  <g id="Group_42" data-name="Group 42" transform="translate(-1346.952 -307.229)">
    <path id="Path_338" data-name="Path 338" d="M1385.622,383.609h3.3l.215-3.064-3.381.078Z" fill="#ce3b3a"/>
    <path id="Path_339" data-name="Path 339" d="M1426.618,387.549h2.311l.129-1.89h-2.311Z" fill="#ce3b3a"/>
    <path id="Path_340" data-name="Path 340" d="M1429.786,387.708h2.311l.127-2.049h-2.4Z" fill="#ce3b3a"/>
    <path id="Path_341" data-name="Path 341" d="M1426.747,384.87h2.311l.043-1.971h-2.227Z" fill="#ce3b3a"/>
    <path id="Path_342" data-name="Path 342" d="M1429.913,384.87h2.311l.129-2.067-2.311.028Z" fill="#ce3b3a"/>
    <path id="Path_343" data-name="Path 343" d="M1407.489,374.7l13.481,13.052,9.244-15.638,8.043,15.984h4.683l-11.058-21.848Z" fill="#ce3b3a"/>
    <path id="Path_344" data-name="Path 344" d="M1394.651,373.163l-6.845-11.169-27.389,9.694L1346.952,388.1h25.063l15.1-20.478,9.543,20.168.084.31h23.965l.129-.393h.129l-16.391-12.687Z" fill="#ce3b3a"/>
    <path id="Path_345" data-name="Path 345" d="M1402.7,325.619V320.87l-6.068-3.767v-9.874h-1.815v9.746l-5.673,3.723v4.836l6.414-4.408Z" fill="#ce3b3a"/>
    <path id="Path_346" data-name="Path 346" d="M1387.724,336.874l8.055-5.52,8.184,5.52V349.5l.865-.471a.482.482,0,0,1,.176-.171.343.343,0,0,0,.1-.085c1.6-1.084,3.19-2.154,4.766-3.21v-12.71l-14.154-9.371-13.984,9.371v9.029l5.99,3.852Z" fill="#ce3b3a"/>
    <path id="Path_347" data-name="Path 347" d="M1385.366,387.549h3.338l.213-2.916h-3.3Z" fill="#ce3b3a"/>
    <path id="Path_348" data-name="Path 348" d="M1381.087,383.609h3.295l.215-3h-3.383Z" fill="#ce3b3a"/>
    <path id="Path_349" data-name="Path 349" d="M1380.829,387.549h3.252l.256-2.916h-3.465Z" fill="#ce3b3a"/>
    <path id="Path_350" data-name="Path 350" d="M1395.763,355.146l6.15-4.279V337.9l-6.15-4.193Z" fill="#e86b6b"/>
    <path id="Path_351" data-name="Path 351" d="M1403.8,371.665c.789.142,1.832.314,2.916.514l2.916-1.241V356.986l8.174-5.478,8.3,5.478v8.261l5.754-2.311v-9.929l-14.051-9.414-14.01,9.414Z" fill="#4e525f"/>
    <path id="Path_352" data-name="Path 352" d="M1365.89,354.034l8.052-5.521,8.264,5.521v6.846l5.912-2.311v-8.515l-14.182-9.458-13.878,9.458v18.7l5.832-2.054Z" fill="#4e525f"/>
    <path id="Path_353" data-name="Path 353" d="M1417.755,368.113l6.306-2.183v-7.874l-6.306-4.15Z" fill="#787d91"/>
    <path id="Path_354" data-name="Path 354" d="M1373.931,363.876l6.3-2.267v-6.463l-6.3-4.279Z" fill="#787d91"/>
  </g>
</svg>
