<svg xmlns="http://www.w3.org/2000/svg" width="54.364" height="51.857" viewBox="0 0 54.364 51.857">
  <g id="Group_205" data-name="Group 205" transform="translate(-976.805 -185.066)">
    <path id="Path_932" data-name="Path 932" d="M1031.048,204.707c-1.719-2.576-4.363-4.365-6.9-6.185l-.005,0-.086-.062-.231-.168-.459-.338q-.456-.34-.9-.691-.208-.164-.412-.333c-.073-.06-.145-.119-.216-.18-.016-.014-.04-.032-.064-.051,1.445-.877,2.867-1.775,4.235-2.756a57.97,57.97,0,0,0,4.7-3.741.874.874,0,0,0,.2-1,1.016,1.016,0,0,0-.9-.564q-5.424-.568-10.891-.617-5.435-.047-10.856.424-3.054.266-6.089.693a.947.947,0,0,0-.143,0c-.5.021-1.025.405-.982.918q.456,5.446.595,10.911.039,1.551.052,3.1a.966.966,0,0,0,.982.918q5.364.008,10.726.177,5.384.171,10.76.507,3.016.188,6.029.428a.925.925,0,0,0,.848-1.381Z" fill="#7eb7bf"/>
    <path id="Path_933" data-name="Path 933" d="M1013.526,191.98c-.048-.839-.119-1.678-.218-2.512-.055-.465-.116-.929-.187-1.391a6.777,6.777,0,0,0-.217-1.14,1.757,1.757,0,0,0-.895-1.067,3.5,3.5,0,0,0-1.223-.272q-1.206-.1-2.415-.173-4.873-.292-9.759-.115-2.419.087-4.833.29a3.139,3.139,0,0,0-2.307.764,4.3,4.3,0,0,0-.656,2.551,59.871,59.871,0,0,0-.07,8.457q-.019,1.305,0,2.611c.008.571.013,1.143.04,1.714a1.784,1.784,0,0,0,.933,1.694,4.432,4.432,0,0,0,1.682.194q.83.021,1.661.034,1.661.025,3.323.015,3.323-.021,6.643-.186,3.744-.185,7.477-.552a.925.925,0,0,0,.877-.918,93.055,93.055,0,0,0,.145-10Z" fill="#95cee3"/>
    <path id="Path_934" data-name="Path 934" d="M980.487,235.643c-1,.015-1.361-1.522-.5-2.1l8.493-5.719a3.688,3.688,0,0,1,4.043-.012q.036.022.071.047l7.572,5.413c.827.591.476,2.074-.495,2.088Z" fill="#a58f8f"/>
    <path id="Path_935" data-name="Path 935" d="M990.57,229.57h0a.926.926,0,0,1-.941-.905V185.971a.926.926,0,0,1,.941-.905h0a.926.926,0,0,1,.941.905v42.693a.926.926,0,0,1-.941.906Z" fill="#a58f8f"/>
    <path id="Path_936" data-name="Path 936" d="M1002.665,236.923H978.476a1.645,1.645,0,0,1-1.671-1.608h0a1.645,1.645,0,0,1,1.671-1.608h24.189a1.645,1.645,0,0,1,1.671,1.608h0A1.645,1.645,0,0,1,1002.665,236.923Z" fill="#a58f8f"/>
  </g>
</svg>
