<svg xmlns="http://www.w3.org/2000/svg" xmlns:xlink="http://www.w3.org/1999/xlink" width="63.806" height="58.989" viewBox="0 0 63.806 58.989">
  <defs>
    <linearGradient id="linear-gradient" x1="0.137" y1="1.175" x2="0.762" y2="0.013" gradientUnits="objectBoundingBox">
      <stop offset="0" stop-color="#e4268a"/>
      <stop offset="1" stop-color="#fdb72b"/>
    </linearGradient>
  </defs>
  <path id="Path_293" data-name="Path 293" d="M416.775,200.57c-2.6-8.226-15.347-7.037-30,2.049q.762.509,1.527,1.045c12-7.29,21.933-8.939,23.722-3.277,1.314,4.155-2.064,11.3-8.324,18.869a94.608,94.608,0,0,0-12.922-11.9c-17.36-13.238-33.864-16.278-36.862-6.789-1.819,5.754,1.746,14.793,8.7,23.97-6.959,9.177-10.523,18.216-8.7,23.971,2.684,8.492,16.183,6.95,31.432-2.956,15.25,9.906,28.748,11.448,31.431,2.956,1.82-5.754-1.746-14.794-8.7-23.97C415.029,215.363,418.595,206.324,416.775,200.57Zm-58.108-.183c1.859-5.883,12.516-3.872,25.141,4.16q-1.936,1.318-3.895,2.811a94.576,94.576,0,0,0-12.922,11.9c-6.261-7.573-9.639-14.714-8.325-18.869Zm-1.941,42.167c-1.2-3.792,1.511-10.073,6.752-16.9A92.19,92.19,0,0,0,378.351,240.5c-11.042,6.229-19.941,7.377-21.625,2.049Zm57.234,0c-2.168,6.861-16.3,2.984-31.573-8.66a96.209,96.209,0,0,1-14.449-13.512,98.183,98.183,0,0,1,12.508-11.335q2.474-1.887,4.9-3.5,2.414,1.61,4.9,3.5a98.114,98.114,0,0,1,12.507,11.335A96.228,96.228,0,0,1,388.3,233.894q-.637.485-1.271.953c2.37,1.649,4.691,3.1,6.922,4.343a91.625,91.625,0,0,0,13.259-13.534c5.241,6.825,7.949,13.105,6.75,16.9Z" transform="translate(-353.441 -195.046)" fill="url(#linear-gradient)"/>
</svg>
