<svg xmlns="http://www.w3.org/2000/svg" width="133.115" height="65.962" viewBox="0 0 133.115 65.962">
  <g id="Group_2390" data-name="Group 2390" transform="translate(-1857.489 -888.872)">
    <path id="Path_11099" data-name="Path 11099" d="M1875.573,934.77l-.007-.078a1.855,1.855,0,0,1-.414.043c-1.174,0-2.821-.914-1.924-2.452-.027.017-.053.044-.079.062a3.366,3.366,0,0,1-.656-.457,2.21,2.21,0,0,0-.084,2.267,3.261,3.261,0,0,0,2.743,1.417,2.717,2.717,0,0,0,.6-.064,1.947,1.947,0,0,0,.462-.172.822.822,0,0,0-.644-.565Z" fill="#1f1f1f"/>
    <path id="Path_11100" data-name="Path 11100" d="M1975.036,932.291a1.492,1.492,0,0,1-1.215,2.443,1.349,1.349,0,0,1-.307-.034l-.016.07a.817.817,0,0,0-.639.559,1.88,1.88,0,0,0,.462.186,2.281,2.281,0,0,0,.5.056,2.321,2.321,0,0,0,1.939-3.7l-.048-.085a3.115,3.115,0,0,1-.675.5Z" fill="#1f1f1f"/>
    <path id="Path_11101" data-name="Path 11101" d="M1971.6,925.353q.289-.083.569-.2a5.986,5.986,0,0,1-.569.2Z" fill="#1f1f1f"/>
    <path id="Path_11102" data-name="Path 11102" d="M1972.289,925.1c.137-.058.267-.12.392-.185C1972.556,924.984,1972.425,925.046,1972.289,925.1Z" fill="#1f1f1f"/>
    <path id="Path_11103" data-name="Path 11103" d="M1968.812,925.407a3.68,3.68,0,0,0,.645.138,3.682,3.682,0,0,1-.645-.138Z" fill="#1f1f1f"/>
    <path id="Path_11104" data-name="Path 11104" d="M1970.985,925.493q.24-.043.472-.1C1971.3,925.43,1971.146,925.464,1970.985,925.493Z" fill="#1f1f1f"/>
    <path id="Path_11105" data-name="Path 11105" d="M1972.832,924.834c.108-.062.207-.126.3-.192C1973.039,924.708,1972.94,924.772,1972.832,924.834Z" fill="#1f1f1f"/>
    <path id="Path_11106" data-name="Path 11106" d="M1970.325,925.57c.152-.009.3-.023.455-.044C1970.628,925.547,1970.478,925.561,1970.325,925.57Z" fill="#1f1f1f"/>
    <path id="Path_11107" data-name="Path 11107" d="M1973.251,924.558a2.5,2.5,0,0,0,.317-.283A2.5,2.5,0,0,1,1973.251,924.558Z" fill="#1f1f1f"/>
    <path id="Path_11108" data-name="Path 11108" d="M1970.131,925.58a4.161,4.161,0,0,1-.45-.02c.119.01.239.025.356.025C1970.07,925.584,1970.1,925.58,1970.131,925.58Z" fill="#1f1f1f"/>
    <path id="Path_11109" data-name="Path 11109" d="M1972.1,951.885l-.256-.041-.186-.178c-.056-.053-5.674-5.311-16.4-7.747-12.543-2.848-29.978-2.88-30.715-2.88-6.7,0-20.709.607-30.726,2.88-10.725,2.436-16.342,7.694-16.4,7.745l-.188.179-.255.041a1.466,1.466,0,0,1-.277.021,2.085,2.085,0,0,1-.426-.063c-.648,1.648.236,3.472.947,2.876,6.311-5.3,18.786-10.858,47.322-10.858s41,5.556,47.313,10.858c.711.6,1.6-1.23.956-2.877a2.147,2.147,0,0,1-.436.064,1.666,1.666,0,0,1-.276-.021Z" fill="#1f1f1f"/>
    <path id="Path_11110" data-name="Path 11110" d="M1972.864,948.66l-.015.026c.1.079.192.159.27.229a1.212,1.212,0,0,1-.745,2.154.81.81,0,0,1-.141-.009s-5.679-5.434-16.791-7.957-26.233-2.9-30.9-2.9-19.8.378-30.91,2.9-16.791,7.957-16.791,7.957a.726.726,0,0,1-.133.009h-.009a1.209,1.209,0,0,1-.737-2.154c.079-.071.176-.151.272-.229l-.026-.026a2.8,2.8,0,0,0,.346-1.268c-.387.283-.68.511-.846.645-.107.089-.213.175-.3.252a2.077,2.077,0,0,0-.6,2.312,1.934,1.934,0,0,0,1.464,1.241,2.076,2.076,0,0,0,.426.063,1.459,1.459,0,0,0,.277-.021l.255-.041.188-.179c.055-.052,5.672-5.31,16.4-7.745,10.017-2.273,24.026-2.88,30.726-2.88.737,0,18.172.033,30.715,2.88,10.726,2.436,16.344,7.694,16.4,7.747l.186.178.256.041a1.674,1.674,0,0,0,.276.021,2.143,2.143,0,0,0,.437-.064,1.94,1.94,0,0,0,1.455-1.239,2.08,2.08,0,0,0-.6-2.319c-.077-.07-.184-.156-.29-.244-.169-.136-.464-.366-.858-.652a2.832,2.832,0,0,0,.345,1.272Z" fill="#1f1f1f"/>
    <path id="Path_11111" data-name="Path 11111" d="M1879.267,925.407c.007,0,.013-.005.021-.007v0Z" fill="#1f1f1f"/>
    <path id="Path_11112" data-name="Path 11112" d="M1878.4,925.559c-.147.01-.294.02-.441.017.032,0,.063.006.094.006C1878.168,925.582,1878.282,925.567,1878.4,925.559Z" fill="#1f1f1f"/>
    <path id="Path_11113" data-name="Path 11113" d="M1879.267,925.407a3.679,3.679,0,0,1-.64.135,3.686,3.686,0,0,0,.64-.135Z" fill="#1f1f1f"/>
    <path id="Path_11114" data-name="Path 11114" d="M1874.965,924.643c.093.065.192.128.3.19C1875.157,924.771,1875.055,924.708,1874.965,924.643Z" fill="#1f1f1f"/>
    <path id="Path_11115" data-name="Path 11115" d="M1877.314,925.522c.146.021.293.034.441.043C1877.607,925.557,1877.46,925.543,1877.314,925.522Z" fill="#1f1f1f"/>
    <path id="Path_11116" data-name="Path 11116" d="M1874.529,924.275a2.352,2.352,0,0,0,.316.283A2.348,2.348,0,0,1,1874.529,924.275Z" fill="#1f1f1f"/>
    <path id="Path_11117" data-name="Path 11117" d="M1875.93,925.158c.179.07.367.136.563.193C1876.3,925.294,1876.109,925.228,1875.93,925.158Z" fill="#1f1f1f"/>
    <path id="Path_11118" data-name="Path 11118" d="M1875.417,924.919c.121.063.248.124.382.181C1875.665,925.043,1875.536,924.982,1875.417,924.919Z" fill="#1f1f1f"/>
    <path id="Path_11119" data-name="Path 11119" d="M1876.64,925.387c.152.039.3.075.464.1C1876.944,925.461,1876.792,925.426,1876.64,925.387Z" fill="#1f1f1f"/>
    <path id="Path_11120" data-name="Path 11120" d="M1973.5,934.77l.017-.07a1.034,1.034,0,0,1-.4-.184,44.282,44.282,0,0,0-17.177-7.824c-11.612-2.655-23.446-3.032-31.4-3.032s-19.8.378-31.411,3.032a44.264,44.264,0,0,0-17.169,7.824.912.912,0,0,1-.4.176l.007.078a.822.822,0,0,1,.643.565,10.409,10.409,0,0,1,.369,2.846c.133,1.89,0,7.191,0,8.58a5.967,5.967,0,0,1-.033.632,2.794,2.794,0,0,1-.345,1.268l.026.026a43.588,43.588,0,0,1,16.9-7.6c11.613-2.647,23.454-3.033,31.411-3.033s19.788.386,31.4,3.033a43.661,43.661,0,0,1,16.907,7.6l.015-.026a2.834,2.834,0,0,1-.345-1.272c-.018-.187-.031-.39-.031-.627,0-1.39-.124-6.69,0-8.58a10.351,10.351,0,0,1,.371-2.852.818.818,0,0,1,.639-.559Z" fill="#1f1f1f"/>
    <path id="Path_11121" data-name="Path 11121" d="M1988.971,911.317c-.958-.879-4.035-1.917-6.057-.642,0-3.191-3.077-3.613-4.457-1.591s-.326,3.287-.853,4.782c-.21-1.389.106-3.612-1.8-3.825-2.012-.229-3.085,1.8-2.979,3.6-.422-3.077-3.57-3.34-4.783-1.8a2.984,2.984,0,0,0,1.389,4.467c-.64.1-2.672,1.265-1.916,3.183,1.169,2.97,3.719,1.168,4.572.958s2.012.527-.748,2.233a4.6,4.6,0,0,1-3.156.624,4.369,4.369,0,0,1-3.533-2.646c-.537-1.8-.431-2.549-2.611-1.046-2.383,1.636-9.785.263-8.562-7.578.291-1.9,1.3-2.136,1.749-.616.6,2.039,1.977,4.14,3.9,2.841,1.468-1,1.081-2.383.994-3.175,1.38,1.345,4.941.836,5.318-2.03s-2.945-4.265-4.625-3.315c.291-.747,1.046-2-.149-3.323a2.349,2.349,0,0,0-3.894.976c-.239,1.521-1.32.958-1.32.958a1.4,1.4,0,0,1-.368-1.152c.15-.985,1.424-1.855,2.962-1.759,2.127.142,4.264-2.04,3.34-4.166-.941-2.188-3.129-1.512-4.166-.888a3.286,3.286,0,1,0-5.53-.861c-.8-.915-2.683-2.224-4.238-.432-1.53,1.76-.157,4.483,1.909,4.994a2.726,2.726,0,0,1,2.3,2.531,1.42,1.42,0,0,1-.71,1.028s-1.2.2-.968-1.319-1.864-3.014-3.42-2.109c-1.529.887-1.2,2.32-1.152,3.112-1.309-1.407-4.888-1.081-5.406,1.759a2.75,2.75,0,0,0-.043.808,3.363,3.363,0,0,0,4.49,2.743c-.332.72-1.115,1.925-.017,3.323,1.425,1.828,3.394.246,4.581-1.513.818-1.221,1.652-.843,1.521.758a3.114,3.114,0,0,1-.044.361c-1.222,7.84-8.526,6.751-10.46,4.605-2.524-2.779-2.269-.4-4.247,1.38a6.171,6.171,0,0,1-6.513.589c-2.014-.993-3.641-3.191-3.641-7.085,0-2.03,1.018-2.435,1.723-.932.958,2.03,2.741,3.99,4.526,2.329,1.372-1.283.748-2.664.528-3.473,1.653,1.177,5.283.071,5.2-2.971s-3.754-3.965-5.354-2.708c.185-.817.765-2.259-.694-3.438-1.46-1.2-3.9.027-3.9,1.654s-1.213,1.212-1.213,1.212a1.483,1.483,0,0,1-.572-1.143c0-1.056,1.2-2.154,2.806-2.3,2.232-.2,4.1-2.823,2.8-4.9-1.337-2.119-3.507-1.055-4.492-.237a3.465,3.465,0,1,0-5.9,0c-.976-.818-3.148-1.882-4.485.237-1.3,2.073.572,4.695,2.8,4.9,1.61.15,2.807,1.248,2.807,2.3a1.479,1.479,0,0,1-.572,1.143s-1.222.4-1.222-1.212-2.435-2.85-3.9-1.654c-1.45,1.179-.879,2.621-.694,3.438-1.59-1.257-5.274-.334-5.345,2.708s3.552,4.149,5.2,2.971c-.221.808-.844,2.189.518,3.473,1.794,1.66,3.579-.3,4.529-2.329.711-1.5,1.722-1.1,1.722.932,0,8.36-7.49,8.9-10.153,6.5-1.979-1.785-1.724-4.159-4.238-1.38-1.942,2.145-9.238,3.235-10.46-4.605a2.96,2.96,0,0,1-.045-.361c-.132-1.6.7-1.978,1.521-.758,1.186,1.758,3.147,3.341,4.58,1.513,1.1-1.4.309-2.6-.017-3.323a3.367,3.367,0,0,0,4.492-2.743,3.18,3.18,0,0,0-.045-.808c-.518-2.84-4.1-3.166-5.415-1.759.052-.792.387-2.224-1.151-3.112a2.347,2.347,0,0,0-3.411,2.109c.229,1.521-.967,1.319-.967,1.319a1.422,1.422,0,0,1-.712-1.028,2.727,2.727,0,0,1,2.3-2.531c2.057-.511,3.429-3.235,1.909-4.994-1.556-1.792-3.437-.483-4.237.432a3.287,3.287,0,1,0-5.53.861c-1.038-.624-3.234-1.3-4.175.888-.916,2.127,1.22,4.308,3.349,4.166,1.539-.1,2.814.774,2.954,1.767a1.378,1.378,0,0,1-.361,1.143s-1.08.563-1.318-.958a2.357,2.357,0,0,0-3.9-.976c-1.187,1.319-.44,2.575-.149,3.323-1.672-.95-4.984.458-4.615,3.315s3.937,3.375,5.318,2.03c-.1.792-.475,2.173.993,3.175,1.917,1.3,3.306-.8,3.9-2.841.439-1.52,1.45-1.284,1.749.616,1.222,7.841-6.188,9.214-8.562,7.578-2.188-1.5-2.083-.756-2.61,1.046a4.417,4.417,0,0,1-3.771,2.674,4.584,4.584,0,0,1-2.92-.651c-2.768-1.706-1.6-2.445-.746-2.233s3.4,2.012,4.57-.958c.748-1.917-1.275-3.078-1.915-3.183a2.979,2.979,0,0,0,1.379-4.467c-1.2-1.537-4.353-1.274-4.782,1.8.114-1.8-.959-3.833-2.973-3.6-1.907.212-1.59,2.435-1.8,3.825-.536-1.5.528-2.768-.851-4.782s-4.466-1.6-4.466,1.591c-2.014-1.275-5.089-.237-6.048.642-1.169,1.053-2.664,4.035-.642,4.035s5.109-.545,8.185,1.378c3.366,2.11,6.848,7.57,6.9,11.183v.079c-.953.857-2.568,2.558-1.077,3.9a3.368,3.368,0,0,0,.656.457c.025-.017.052-.045.079-.062,2.161-1.723,7.164-5.6,17.766-8.431,7.938-2.125,20.747-2.733,27.992-2.91,2.549-.06,4.4-.071,5.125-.071,2.76,0,22.259.106,32.992,2.98s15.719,6.8,17.846,8.493c.027-.017.062-.036.088-.053a3.111,3.111,0,0,0,.675-.5c1.309-1.317-.262-2.957-1.186-3.8v-.079c.053-3.613,3.526-9.072,6.9-11.183,3.075-1.924,6.162-1.378,8.183-1.378S1990.139,912.37,1988.971,911.317Zm-127.312,2.6c1.626-.325,4.748-.062,5.916,1.3a18.949,18.949,0,0,1,.519-4.809c-.326,1.432-.132,4.87,1.17,6.5a11.516,11.516,0,0,0-7.6-2.988Zm62.83,1.537c.185,1.487,2.083,3.226,4.475,3.913a7.155,7.155,0,0,0,.747.176,29.009,29.009,0,0,0-10.452,0c2.742-.51,5.019-2.452,5.23-4.088Zm26.98,1.171c0,2.013,2.981,3.824,4.255,4.562-2.558-.738-7.437-1.055-9.671-1.275,2.233-.211,4.888-1.486,5.415-3.287Zm17.345,8.781a3.685,3.685,0,0,0,.644.138c.075.01.15.01.225.014a4.148,4.148,0,0,0,.45.02c.065,0,.129-.006.194-.01.152-.009.3-.023.455-.044.07-.01.136-.02.205-.033q.24-.043.472-.1c.046-.013.1-.022.14-.036a6.013,6.013,0,0,0,.569-.2c.043-.015.079-.036.122-.054.136-.058.267-.12.392-.185l.152-.085c.108-.062.207-.126.3-.192.041-.029.081-.056.118-.084a2.5,2.5,0,0,0,.317-.283c-.536,1.062-.106,3.613-.106,3.613a23.982,23.982,0,0,0-4.65-2.48,2.571,2.571,0,0,1-.624-.263c.086.035.307.123.623.263Zm-22.076-15.938a2.968,2.968,0,0,1,1.178-2.365,34.086,34.086,0,0,1-4.314-1.081,33.946,33.946,0,0,1,4.438.29,2.982,2.982,0,0,1-.4-2.619,3,3,0,0,0,3.56,2.7s1.318,0,1.81-2.471c.088-.457.159-.878.2-1.275.309-2.593-.411-3.6-2.1-4.219a2.939,2.939,0,0,1,2.365,1.178,41.824,41.824,0,0,1,1.186-4.3h.036a41.083,41.083,0,0,1-.194,4.464,2.966,2.966,0,0,1,2.618-.413c-1.845.079-2.847.862-3.331,3.613-.052.325-.1.669-.149,1.045-.291,2.507.976,2.911.976,2.911a3,3,0,0,0,4.21-1.486,2.981,2.981,0,0,1-1.187,2.365,34.571,34.571,0,0,1,4.316,1.08,34.074,34.074,0,0,1-4.447-.291,2.982,2.982,0,0,1,.411,2.622,2.991,2.991,0,0,0-3.551-2.7c-1.309.14-1.907,1.258-2.259,3.279-.027.141-.053.281-.08.432.053-.309.089-.59.114-.862.2-1.785-.087-2.893-1.2-3.384a3,3,0,0,0-4.2,1.484Zm-24.394-2.215a3.157,3.157,0,0,0-4.141,2.223,3.117,3.117,0,0,1,.851-2.654,36.6,36.6,0,0,1-4.676-.423,36.547,36.547,0,0,1,4.676-.421,3.137,3.137,0,0,1-.852-2.664,3.156,3.156,0,0,0,4.141,2.233s1.39-.212,1.5-2.866c.017-.4.017-.773.007-1.117-.06-2.945-.975-3.922-2.881-4.3a3.138,3.138,0,0,1,2.663.844,43.924,43.924,0,0,1,.527-4.668h.036a44.852,44.852,0,0,1,.536,4.668,3.11,3.11,0,0,1,2.656-.844c-1.908.377-2.822,1.353-2.884,4.307-.009.335-.009.712.008,1.108.106,2.654,1.495,2.866,1.495,2.866,1.592.431,3.719-.106,4.141-2.233a3.13,3.13,0,0,1-.853,2.664,36.52,36.52,0,0,1,4.677.421,36.594,36.594,0,0,1-4.677.423,3.109,3.109,0,0,1,.852,2.654c-.422-2.117-2.549-2.654-4.141-2.223-1.344.35-1.783,1.617-1.818,3.78-.01.114-.01.237-.01.36,0,.307.01.624.018.959h-.036c.009-.335.017-.652.017-.959,0-.123,0-.246-.009-.368-.036-2.163-.476-3.421-1.821-3.772Zm-25.714,9.372c.527,1.8,3.183,3.076,5.416,3.287-2.233.22-7.121.536-9.669,1.275,1.273-.738,4.252-2.549,4.252-4.562Zm-2.9-8.106a3,3,0,0,0-3.561,2.7,2.972,2.972,0,0,1,.413-2.621,34.041,34.041,0,0,1-4.448.29,34.584,34.584,0,0,1,4.325-1.08,2.95,2.95,0,0,1-1.186-2.365,3,3,0,0,0,4.21,1.486s1.266-.4.975-2.911c-.044-.369-.087-.72-.149-1.036-.483-2.76-1.494-3.543-3.331-3.622a2.942,2.942,0,0,1,2.61.413,41.9,41.9,0,0,1-.185-4.464h.036a41.116,41.116,0,0,1,1.177,4.3,2.959,2.959,0,0,1,2.364-1.178c-1.678.615-2.4,1.626-2.092,4.219.045.386.115.818.2,1.275.484,2.471,1.813,2.471,1.813,2.471a3,3,0,0,0,3.56-2.7,2.968,2.968,0,0,1-.414,2.619,34.161,34.161,0,0,1,4.45-.29,34.189,34.189,0,0,1-4.326,1.081,2.958,2.958,0,0,1,1.187,2.365,3.008,3.008,0,0,0-4.211-1.484c-1.118.491-1.39,1.6-1.2,3.384.026.272.061.554.114.862-.028-.142-.044-.274-.071-.406-.353-2.038-.942-3.164-2.259-3.3ZM1879.9,925.144a2.5,2.5,0,0,1-.612.256c-.008,0-.014.006-.021.007a24.122,24.122,0,0,0-4.633,2.48s.421-2.551-.1-3.613a2.347,2.347,0,0,0,.316.283c.037.029.079.056.12.085.09.065.192.128.3.19.049.029.1.058.154.087.12.063.248.124.382.181.045.018.086.039.132.058.179.07.367.136.563.193.047.013.1.024.147.036.152.039.3.075.464.1.069.013.139.022.211.032.146.021.293.034.441.043.068,0,.135.01.2.011.148,0,.295-.007.441-.017.075-.007.152-.007.228-.017a3.684,3.684,0,0,0,.64-.135l.02-.009C1879.592,925.273,1879.814,925.178,1879.9,925.144Zm-6.549-11.288a7.225,7.225,0,0,1,.65,2.786,41.578,41.578,0,0,1,4.036-3.183,37,37,0,0,1-2.663,3.447,7.8,7.8,0,0,1,3.11,1.231,5.978,5.978,0,0,0-6.363,1.108,6.251,6.251,0,0,0,1.229-5.389Zm96.667,5.037a7.859,7.859,0,0,1,3.121-1.23,37.2,37.2,0,0,1-2.663-3.446,40.514,40.514,0,0,1,4.026,3.183,7.383,7.383,0,0,1,.65-2.788,6.263,6.263,0,0,0,1.24,5.389,6,6,0,0,0-6.374-1.108Zm9.23-1.23c1.3-1.626,1.5-5.063,1.169-6.5a19.285,19.285,0,0,1,.519,4.81c1.168-1.363,4.289-1.627,5.907-1.3a11.457,11.457,0,0,0-7.6,2.988Z" fill="#1f1f1f"/>
  </g>
</svg>
