<svg xmlns="http://www.w3.org/2000/svg" width="259.806" height="169.531" viewBox="0 0 259.806 169.531">
  <g id="Group_2200" data-name="Group 2200" transform="translate(-1143.469 -174.848)">
    <path id="Path_9816" data-name="Path 9816" d="M1266.845,327.334c0,3.027,6.528,17.046,6.528,17.046s6.527-14.019,6.527-17.046c0-3.578-6.527-12.206-6.527-12.206S1266.845,323.756,1266.845,327.334Z" fill="#1f1f1f"/>
    <path id="Path_9817" data-name="Path 9817" d="M1277.321,300.6c0-1.831-3.949-10.312-3.949-10.312s-3.949,8.48-3.949,10.312c0,2.164,3.949,7.384,3.949,7.384S1277.321,302.763,1277.321,300.6Z" fill="#1f1f1f"/>
    <path id="Path_9818" data-name="Path 9818" d="M1270.323,316.92c1.339-2.778,2.266-5.216,2.266-5.216s-.777-2.49-1.944-5.344a44.379,44.379,0,0,0-1.993-4.287,19.91,19.91,0,0,0-1.125-1.85c-.192-.275-.385-.531-.578-.764q-.146-.175-.291-.331l-.146-.151-.118-.15a30.046,30.046,0,0,0-3.157-2.915l-4.809-4.071c-.407-.349-.81-.675-1.193-1.02l-1.09-1.043L1254.3,288c-.522-.514-.957-.895-1.236-1.224l-.444-.485.1.674c.07.427.166,1.064.309,1.8.287,1.465.726,3.461,1.3,5.567.285,1.053.6,2.132.937,3.184.168.526.341,1.044.517,1.548q.27.731.545,1.409a19.041,19.041,0,0,0,2.005,3.959,8.843,8.843,0,0,0,1.315,1.292c.273.222.573.465.888.679s.648.42,1,.63a49.259,49.259,0,0,0,4.705,2.436c.971.374,1.906.716,2.75,1.015-1.359-.03-3.861-.109-7.218-.471l-1.865-.169-2.021-.308-2.176-.331-.357-.054-.071-.4c-.19-1.031-.464-2.412-.777-3.932-.632-3.069-1.4-6.53-2.417-8.192a14.617,14.617,0,0,0-1.087-1.4c-.48-.6-1.066-1.291-1.708-2.031l-2.046-2.322-2.042-2.56-.973-1.219c-.157-.2-.314-.387-.462-.585l-.427-.6-1.473-2.093-.991-1.413c-.119-.163-.2-.308-.263-.4l-.09-.146s-.047.993-.031,2.478.073,3.545.246,5.727c.086,1.091.2,2.214.336,3.313.15,1.068.328,2.1.521,3.061a19.157,19.157,0,0,0,1.245,4.278,7.824,7.824,0,0,0,1.058,1.511,22.612,22.612,0,0,0,1.649,1.618c.622.558,1.307,1.129,2.02,1.694.358.276.715.579,1.089.825l1.118.737c.793.513,1.573,1,2.293,1.433l-3.681-.8c-1.736-.452-3.536-1-5.419-1.523-.474-.122-.938-.289-1.407-.459l-1.421-.5-1.06-.376c0-1.063-.008-2.7-.056-4.479-.049-1.514-.094-3.21-.22-4.717a14.909,14.909,0,0,0-.672-3.769,11.535,11.535,0,0,0-.814-1.566c-.381-.637-.815-1.46-1.314-2.3l-1.584-2.669c-.282-.442-.528-.964-.792-1.441l-.771-1.443-.74-1.385c-.237-.453-.479-.867-.677-1.321l-1.092-2.345-.736-1.586-.2-.433-.065-.161-.134.664c-.08.42-.192,1.024-.317,1.766-.251,1.483-.55,3.518-.764,5.7-.1,1.085-.206,2.238-.247,3.313s-.055,2.134-.038,3.113a19.368,19.368,0,0,0,.45,4.446,12.211,12.211,0,0,0,2.1,3.56c.509.666,1.077,1.357,1.672,2.046s1.26,1.292,1.9,1.915,1.276,1.2,1.869,1.736l.263.235c-.6-.255-1.2-.522-1.818-.778-.989-.433-2.009-.836-3.011-1.309-2.442-1.2-4.945-2.486-7.433-3.926.193-1.044.488-2.7.771-4.505.118-.759.233-1.545.335-2.325s.211-1.59.284-2.345a14.889,14.889,0,0,0,.007-3.842c-.151-.829-.774-2.3-1.439-4.2l-1.113-2.934c-.2-.493-.379-1.027-.555-1.56l-.528-1.573c-.344-1.037-.687-2.015-.978-2.939l-.72-2.536-.666-2.353s-1.364,3.609-2.495,7.878a57.242,57.242,0,0,0-1.337,6.307,19.682,19.682,0,0,0-.311,4.474,7.063,7.063,0,0,0,.491,1.763,23.153,23.153,0,0,0,.97,2.114c.384.748.822,1.53,1.287,2.317.488.753,1.014,1.495,1.533,2.217.634.867,1.253,1.712,1.83,2.441-.679-.429-1.355-.868-2.026-1.327a89.215,89.215,0,0,1-9.1-6.828c.369-.993.951-2.595,1.545-4.361.949-2.9,2.068-6.331,2.018-8.306a11.807,11.807,0,0,0-.249-1.78l-.251-1.216-.273-1.416c-.389-1.982-.926-4.2-1.276-6.423l-.551-3.108c-.152-.982-.262-1.9-.369-2.659l-.336-2.485s-1.86,3.42-3.6,7.5c-.446,1.026-.856,2.062-1.232,3.082s-.726,2.033-1.02,2.977a20.131,20.131,0,0,0-1,4.393,14.131,14.131,0,0,0,.839,4.071c.263.8.556,1.659.9,2.5.363.821.753,1.648,1.145,2.449s.787,1.573,1.16,2.282l.275.519.05.083-.378-.327-2.753-2.6c-.455-.44-.933-.858-1.37-1.318l-1.313-1.381c-.872-.926-1.764-1.836-2.623-2.777l-1.344-1.567c.517-.919,1.36-2.443,2.237-4.136.715-1.377,1.428-2.841,2.035-4.238a14.62,14.62,0,0,0,1.19-3.694,12.013,12.013,0,0,0,.012-1.82c-.036-.771-.123-1.669-.167-2.7s-.133-2.118-.215-3.235c-.042-.555-.084-1.117-.126-1.682-.024-.573-.048-1.148-.071-1.716-.086-2.268-.212-4.34-.189-5.938l-.016-2.567s-2.283,3.2-4.551,7.042c-1.094,1.884-2.182,3.923-3.025,5.725a18.957,18.957,0,0,0-1.579,4.223c-.288,2.008.429,6,1.561,9.376.266.853.539,1.68.8,2.439.115.3.228.587.339.863-.209-.243-.417-.487-.619-.735l-1.17-1.511-2.336-3.016-2.179-3.111-1.085-1.548c-.344-.508-.662-1.033-.992-1.548.637-.833,1.706-2.255,2.832-3.852.892-1.267,1.82-2.642,2.584-3.934a15.064,15.064,0,0,0,1.655-3.517,27.98,27.98,0,0,0,.4-4.541c.153-2.072.241-4.45.387-6.717.194-2.3.333-4.423.492-6,.176-1.58.29-2.6.29-2.6s-.66.74-1.661,1.923-2.356,2.827-3.655,4.578c-2.632,3.5-5.342,7.687-5.772,9.361a15.146,15.146,0,0,0-.3,4.2,25.292,25.292,0,0,0,.235,2.64c.115.9.252,1.813.4,2.7.2,1.336.488,2.57.746,3.608l-.66-1.041c-.659-1.052-1.242-2.143-1.861-3.2l-.911-1.593c-.307-.527-.606-1.056-.875-1.6l-1.652-3.2c-.333-.657-.656-1.313-.975-1.968.732-.743,1.991-2.043,3.332-3.522,1.044-1.153,2.136-2.412,3.054-3.612a14.836,14.836,0,0,0,2.027-3.3,28.049,28.049,0,0,0,.948-4.518c.083-.508.149-1.029.246-1.579l.293-1.684.571-3.429c.165-1.118.418-2.244.6-3.256l.525-2.725.2-1.059.183-.817.157-.7s-.739.673-1.866,1.753-2.578,2.55-4.09,4.174-3.062,3.386-4.3,4.956a20.33,20.33,0,0,0-2.47,3.748,14.343,14.343,0,0,0-.782,4.153c-.094,1.686-.075,3.591-.005,5.392.078,1.441.228,2.793.358,3.908-2.172-4.652-4-9.209-5.526-13.522l.683-.556,1.393-1.173c.524-.445,1.1-.936,1.68-1.453,2.338-2.073,4.922-4.532,5.817-6.342a34.417,34.417,0,0,0,1.423-4.421l.84-3.2.952-3.388c.317-1.117.589-2.191.9-3.193l.824-2.687.768-2.524s-3.156,2.381-6.509,5.327c-.833.733-1.7,1.506-2.5,2.265s-1.56,1.518-2.248,2.236a20.841,20.841,0,0,0-2.872,3.491,8.854,8.854,0,0,0-.686,1.745c-.188.685-.353,1.466-.5,2.3s-.266,1.732-.37,2.643c-.047.457-.095.916-.142,1.373s-.053.907-.075,1.354c-.066,1.529-.087,2.982-.09,4.146-.517-1.531-1-3.029-1.438-4.482-.545-1.823-1.022-3.583-1.5-5.249l-.346-1.236q-.15-.615-.295-1.213l-.422-1.737c.739-.328,1.994-.9,3.326-1.608,2.1-1.11,4.375-2.512,5.137-3.795a15.508,15.508,0,0,0,1.11-3.325c.2-.768.4-1.609.592-2.475s.443-1.769.651-2.644l.6-2.518c.185-.788.341-1.508.514-2.125l.522-2.021s-2.654,1.428-5.481,3.207c-2.793,1.763-5.72,3.895-6.42,4.993a8.857,8.857,0,0,0-.95,3.054,41.547,41.547,0,0,0-.362,4.208c-.023.573-.039,1.126-.047,1.656-.1-.48-.2-.955-.293-1.409l-.735-3.6c-.016-.074-.029-.145-.044-.218l.164-.6c.3-1.076.73-2.548,1.127-4.126.2-.789.395-1.606.57-2.417s.381-1.624.523-2.4a13.735,13.735,0,0,0,.319-3.944,26.473,26.473,0,0,0-1.22-4.375c-.7-1.927-1.44-4.208-2.208-6.406-.8-2.2-1.436-4.316-1.962-5.889l-.856-2.6-.763,2.62c-.445,1.6-1.106,3.789-1.6,6.112-.522,2.323-1.065,4.787-1.329,6.9a23.728,23.728,0,0,0-.368,4.774,15.087,15.087,0,0,0,1.314,3.96c.344.745.709,1.514,1.135,2.269s.88,1.5,1.323,2.21c.89,1.418,1.744,2.689,2.4,3.6.141.189.27.359.389.516.013.063.023.123.036.186l.71,3.611c.1.478.192.976.3,1.481-.219-.491-.447-1-.7-1.536-.6-1.3-1.285-2.658-1.972-3.824a10.36,10.36,0,0,0-1.906-2.648c-1.008-.842-4.5-2.044-7.727-3.136-3.189-1.087-6.142-2.037-6.142-2.037l1.054,2.2c.639,1.325,1.618,3.087,2.611,4.887.509.9,1.007,1.81,1.544,2.673s1.074,1.686,1.573,2.421a16.581,16.581,0,0,0,2.38,3.012c1.262.986,3.985,1.336,6.363,1.422,1.514.055,2.894.008,3.7-.033l.4,1.692.287,1.22c.1.411.223.823.336,1.243.466,1.676.937,3.445,1.464,5.281.432,1.461.9,2.966,1.407,4.507-.67-.93-1.511-2.076-2.438-3.288l-.852-1.109-.84-1.128c-.567-.748-1.143-1.482-1.711-2.164s-1.126-1.312-1.656-1.85a11.346,11.346,0,0,0-1.433-1.312,25.77,25.77,0,0,0-4.2-2.058l-6.327-2.593-8.26-3.411,1.82,2.722,1.924,2.8c.717,1.027,1.559,2.114,2.39,3.213s1.7,2.2,2.541,3.257c.874,1.047,1.743,2.04,2.541,2.928a24.771,24.771,0,0,0,3.749,3.646c1.872,1.238,5.466,1.928,8.569,2.242.777.08,1.521.139,2.206.18s1.319.063,1.848.077c.33.009.616.014.861.016,1.5,4.334,3.292,8.918,5.434,13.6-.757-.819-1.691-1.8-2.67-2.851-1.223-1.351-2.573-2.783-3.864-4.017a19.487,19.487,0,0,0-3.38-2.839,26.455,26.455,0,0,0-4.423-1.613c-1.975-.613-4.288-1.3-6.534-1.96s-4.4-1.3-5.983-1.787l-2.58-.807.549.7.637.808.876,1.04,2.235,2.606c.841.951,1.7,1.979,2.681,2.985.963,1.011,1.948,2.027,2.909,2.991l1.417,1.4c.464.45.947.872,1.394,1.274a28.75,28.75,0,0,0,4.135,3.251,11.925,11.925,0,0,0,3.964,1.058,36.517,36.517,0,0,0,4.825.247c2.029-.017,3.833-.159,4.856-.257q.439.917.894,1.838l1.641,3.24.414.818.449.8.907,1.612c.613,1.075,1.2,2.172,1.845,3.247l.761,1.221c-.837-.7-1.844-1.523-2.861-2.427-.694-.6-1.422-1.209-2.157-1.807s-1.493-1.173-2.169-1.732a18.222,18.222,0,0,0-3.7-2.442c-1.743-.7-6.656-1.522-11.306-2.372-2.335-.412-4.5-.845-6.123-1.167l-2.67-.536,2.32,2.348c1.433,1.4,3.457,3.237,5.532,5.081,2.129,1.828,4.429,3.622,6.347,5.051a28.751,28.751,0,0,0,4.54,2.766,11.787,11.787,0,0,0,4.043.608,36.066,36.066,0,0,0,4.843-.339c1.967-.258,3.706-.612,4.725-.838l.875,1.4,1.084,1.572,2.178,3.159c.76,1.033,1.553,2.046,2.33,3.073l1.173,1.537c.238.32.5.624.756.927l-.8-.5c-.668-.447-1.4-.932-2.175-1.429-3.145-1.935-6.613-4.313-8.762-4.908a29.345,29.345,0,0,0-4.654-.582c-2.07-.151-4.523-.285-6.893-.431-4.638-.326-8.951-.709-8.951-.709l2.623,2.087c1.553,1.265,3.835,2.859,6.154,4.453l1.758,1.185,1.815,1.112c1.2.722,2.354,1.4,3.415,1.988a31.425,31.425,0,0,0,2.9,1.45,13.5,13.5,0,0,0,1.984.745,12.149,12.149,0,0,0,4.1.085,33.62,33.62,0,0,0,4.76-.983c1.88-.515,3.526-1.093,4.513-1.461l1.2,1.415c.844.976,1.755,1.893,2.627,2.841,1.719,1.924,3.634,3.646,5.465,5.427.195.2.4.38.607.563l-.154-.064-.534-.249c-.73-.34-1.532-.707-2.373-1.082s-1.722-.756-2.605-1.122c-.869-.382-1.711-.777-2.539-1.116a19.688,19.688,0,0,0-4.27-1.364,26.86,26.86,0,0,0-4.7.049l-3.354.235c-1.179.089-2.392.178-3.55.239-4.667.28-9.037.436-9.037.436s1.153.711,2.925,1.757c.891.52,1.915,1.135,3.062,1.763,1.171.615,2.431,1.263,3.713,1.9a77.021,77.021,0,0,0,7.6,3.331c.574.22,1.121.422,1.632.6s1.018.316,1.462.443a13.683,13.683,0,0,0,2.1.452c2.281.218,5.736-.872,8.644-2.2,1.748-.782,3.259-1.592,4.183-2.111l.059.051c.972.814,1.894,1.681,2.913,2.418l2.977,2.276.739.565.766.521,1.528,1.033c.8.543,1.6,1.067,2.405,1.58-.942-.246-2.005-.549-3.149-.833-.893-.23-1.832-.453-2.763-.675-.907-.255-1.816-.494-2.688-.7s-1.708-.377-2.466-.493a15.766,15.766,0,0,0-1.978-.186,27.538,27.538,0,0,0-4.653.773c-2.044.446-4.5,1.035-6.779,1.49-4.6.962-8.95,1.732-8.95,1.732s1.268.547,3.209,1.336c.97.395,2.107.849,3.335,1.325,1.254.454,2.632.9,4.013,1.346l2.082.652c.69.215,1.378.421,2.085.585,1.4.346,2.736.655,3.954.91a22.63,22.63,0,0,0,5.407.66,12.1,12.1,0,0,0,3.967-1.186c.713-.328,1.432-.7,2.139-1.106s1.415-.862,2.073-1.3c1.559-1.046,2.886-2.08,3.713-2.752a95.939,95.939,0,0,0,12.409,6.234l-.293-.026c-.8-.068-1.687-.136-2.61-.2s-1.9-.1-2.838-.181-1.879-.165-2.777-.213a24.239,24.239,0,0,0-4.5.1,28.126,28.126,0,0,0-4.47,1.558l-3.143,1.29c-1.1.456-2.207.87-3.315,1.3-2.206.85-4.355,1.645-5.959,2.22l-1.928.686-.717.246.238.068.695.168,2.5.582c1.037.235,2.25.5,3.557.773.645.148,1.354.241,2.061.355l2.163.319,2.187.294c.732.083,1.435.2,2.167.236,1.448.1,2.834.171,4.087.21s2.364.066,3.308-.007a13.945,13.945,0,0,0,2.157-.283,12.125,12.125,0,0,0,3.705-1.879,29.382,29.382,0,0,0,3.71-3.112c1.3-1.269,2.395-2.489,3.092-3.3,1.263.467,2.511.9,3.737,1.288l5.536,1.615,4,.9c-.847.089-1.782.193-2.764.313l-1.4.179c-.475.068-.941.085-1.414.136-.942.087-1.881.189-2.774.309s-1.74.259-2.495.421a13.436,13.436,0,0,0-1.915.482,28.46,28.46,0,0,0-4.124,2.35l-2.866,1.839-3.032,1.858c-2.027,1.232-4.011,2.4-5.5,3.248s-2.445,1.369-2.445,1.369l.249.026c.162.017.4.046.712.059l2.582.129c1.071.047,2.322.092,3.667.126l1.025.023c.349,0,.709-.017,1.07-.026l2.2-.081c1.477-.064,2.965-.148,4.388-.251,1.441-.164,2.821-.356,4.062-.55s2.347-.4,3.251-.6a11.8,11.8,0,0,0,2.064-.666c2.107-.97,4.569-3.717,6.384-6.244.915-1.275,1.689-2.531,2.228-3.437l.207-.353.145.023,2.234.356,2.078.331c.668.1,1.319.136,1.935.2l3.351.319,1.4.13,1.188.04,1.594.052c-.859.247-1.811.531-2.8.845-1.761.445-3.683.954-5.421,1.509-.434.138-.857.279-1.263.422s-.775.251-1.131.383a10.641,10.641,0,0,0-1.794.808,28.615,28.615,0,0,0-3.632,3.08l-1.2,1.135-1.269,1.153-2.646,2.391c-1.77,1.588-3.507,3.1-4.81,4.216-.65.554-1.184.974-1.56,1.283l-.587.475.957-.08c.607-.034,1.493-.185,2.55-.331s2.294-.345,3.62-.564l2.046-.349c.7-.14,1.415-.318,2.13-.484,2.888-.7,5.685-1.392,8.256-2.284a28.7,28.7,0,0,0,5.205-2.144l.181-.122.155-.142q.155-.147.311-.313c.208-.221.416-.465.624-.728a19.936,19.936,0,0,0,1.235-1.778,44.5,44.5,0,0,0,2.252-4.159Z" fill="#1f1f1f"/>
    <path id="Path_9819" data-name="Path 9819" d="M1395.015,214.923l-6.326,2.593a25.773,25.773,0,0,0-4.2,2.058,11.376,11.376,0,0,0-1.433,1.311c-.53.538-1.088,1.168-1.656,1.85s-1.145,1.416-1.711,2.164l-.84,1.128-.852,1.109c-.927,1.212-1.769,2.359-2.439,3.289q.745-2.268,1.382-4.425c.535-1.84,1-3.616,1.472-5.3l.339-1.247.288-1.224.412-1.751c.808.042,2.189.089,3.7.033,2.378-.086,5.1-.436,6.363-1.422a16.578,16.578,0,0,0,2.38-3.012c.5-.736,1.031-1.558,1.573-2.421s1.036-1.775,1.544-2.673c.993-1.8,1.973-3.562,2.611-4.887l1.054-2.2s-2.953.95-6.142,2.037c-3.227,1.092-6.719,2.294-7.728,3.136a10.359,10.359,0,0,0-1.906,2.648c-.686,1.166-1.368,2.529-1.972,3.824-.249.532-.478,1.046-.7,1.537.1-.493.193-.979.289-1.445l.712-3.624c.015-.072.027-.14.041-.211.119-.157.248-.327.389-.516.654-.91,1.507-2.181,2.4-3.6.444-.709.893-1.455,1.323-2.21s.791-1.525,1.135-2.269a15.087,15.087,0,0,0,1.314-3.96,23.737,23.737,0,0,0-.368-4.774c-.264-2.109-.807-4.573-1.329-6.9-.489-2.323-1.151-4.512-1.6-6.112l-.763-2.62-.856,2.6c-.526,1.573-1.16,3.694-1.962,5.889-.769,2.2-1.513,4.478-2.208,6.406a26.449,26.449,0,0,0-1.22,4.375,13.731,13.731,0,0,0,.319,3.944c.142.771.344,1.584.523,2.4s.37,1.628.57,2.417c.4,1.578.823,3.05,1.127,4.126l.164.6c-.014.065-.025.128-.039.194l-.732,3.584c-.1.467-.2.953-.3,1.446q-.012-.795-.047-1.656a41.476,41.476,0,0,0-.362-4.208,8.857,8.857,0,0,0-.95-3.054c-.7-1.1-3.627-3.23-6.42-4.993-2.828-1.779-5.481-3.207-5.481-3.207l.522,2.022c.172.617.329,1.337.513,2.125l.6,2.518c.207.875.451,1.777.651,2.644s.395,1.707.592,2.475a15.5,15.5,0,0,0,1.111,3.325c.762,1.282,3.036,2.684,5.137,3.795,1.332.7,2.586,1.28,3.326,1.608l-.408,1.678-.294,1.209c-.1.408-.228.816-.343,1.232-.475,1.661-.956,3.414-1.492,5.233-.449,1.479-.938,3-1.465,4.564,0-1.165-.025-2.617-.09-4.146-.022-.447-.036-.9-.075-1.354l-.142-1.373c-.1-.911-.226-1.805-.37-2.643s-.308-1.619-.5-2.3a8.87,8.87,0,0,0-.686-1.745,20.841,20.841,0,0,0-2.873-3.491c-.688-.718-1.452-1.476-2.248-2.236s-1.663-1.532-2.5-2.265c-3.353-2.946-6.509-5.327-6.509-5.327l.768,2.524.824,2.687c.306,1,.578,2.076.9,3.193l.952,3.388.84,3.2a34.417,34.417,0,0,0,1.423,4.421c.895,1.81,3.479,4.268,5.817,6.342.585.517,1.156,1.008,1.68,1.453l1.393,1.173.683.556c-1.525,4.315-3.353,8.875-5.527,13.528.13-1.117.281-2.471.359-3.915.071-1.8.089-3.706,0-5.392a14.339,14.339,0,0,0-.782-4.153,20.322,20.322,0,0,0-2.47-3.748c-1.233-1.57-2.79-3.338-4.295-4.956s-2.975-3.1-4.09-4.174-1.866-1.753-1.866-1.753l.157.7.183.817.2,1.059.525,2.725c.186,1.012.439,2.138.6,3.256.19,1.138.383,2.3.571,3.429.1.572.2,1.136.293,1.684s.162,1.071.246,1.579a28.063,28.063,0,0,0,.948,4.518,14.841,14.841,0,0,0,2.028,3.3c.918,1.2,2.01,2.459,3.054,3.612,1.342,1.48,2.6,2.781,3.333,3.523q-.443.91-.9,1.822l-1.648,3.2-.416.807-.45.792-.909,1.589c-.614,1.059-1.206,2.141-1.849,3.2l-.76,1.2c.259-1.038.547-2.271.746-3.605.147-.885.284-1.8.4-2.7a25.29,25.29,0,0,0,.235-2.64,15.155,15.155,0,0,0-.3-4.2c-.43-1.674-3.14-5.862-5.772-9.361-1.3-1.751-2.656-3.4-3.655-4.578s-1.661-1.923-1.661-1.923.114,1.021.29,2.6c.158,1.58.3,3.7.492,6,.146,2.267.234,4.645.387,6.717a27.967,27.967,0,0,0,.4,4.541,15.059,15.059,0,0,0,1.655,3.517c.764,1.293,1.692,2.668,2.584,3.935,1.126,1.6,2.195,3.018,2.832,3.851l-.876,1.383-1.082,1.545-2.174,3.1c-.758,1.014-1.548,2.008-2.323,3.016l-1.168,1.508c-.238.315-.5.615-.756.913.111-.275.224-.56.339-.862.26-.759.532-1.585.8-2.439,1.131-3.376,1.849-7.368,1.561-9.376a18.97,18.97,0,0,0-1.579-4.223c-.843-1.8-1.932-3.841-3.025-5.725-2.267-3.841-4.551-7.042-4.551-7.042s-.006,1.008-.016,2.566c.023,1.6-.1,3.67-.189,5.938-.024.568-.047,1.143-.071,1.716l-.126,1.682c-.082,1.117-.157,2.216-.215,3.235s-.132,1.929-.167,2.7a11.967,11.967,0,0,0,.012,1.82,14.614,14.614,0,0,0,1.19,3.694c.607,1.4,1.32,2.861,2.035,4.238.876,1.693,1.719,3.216,2.236,4.136l-1.19,1.388c-.839.956-1.743,1.853-2.61,2.78-1.707,1.883-3.605,3.563-5.419,5.3-.185.184-.38.355-.576.526l.065-.108.275-.519c.373-.709.768-1.482,1.16-2.282s.782-1.628,1.145-2.449c.348-.836.641-1.695.9-2.5a14.13,14.13,0,0,0,.839-4.071,20.122,20.122,0,0,0-1-4.393c-.295-.944-.642-1.954-1.021-2.977s-.786-2.055-1.232-3.082c-1.745-4.081-3.6-7.5-3.6-7.5l-.336,2.485c-.106.759-.217,1.678-.369,2.659l-.551,3.108c-.351,2.224-.888,4.441-1.277,6.423l-.273,1.415c-.09.438-.174.845-.251,1.216a11.806,11.806,0,0,0-.249,1.78c-.05,1.975,1.069,5.41,2.018,8.306.594,1.766,1.176,3.367,1.545,4.36l-.06.051c-.962.793-1.873,1.64-2.88,2.356l-2.941,2.214-.729.549-.756.506-1.507,1c-.736.493-1.476.968-2.216,1.435.568-.719,1.176-1.548,1.8-2.4.519-.723,1.044-1.465,1.533-2.217.465-.786.9-1.568,1.287-2.317a23.035,23.035,0,0,0,.97-2.114,7.052,7.052,0,0,0,.491-1.763,19.682,19.682,0,0,0-.31-4.474,57.233,57.233,0,0,0-1.336-6.306c-1.13-4.269-2.495-7.878-2.495-7.878l-.666,2.353-.72,2.536c-.29.924-.634,1.9-.978,2.939l-.528,1.572c-.176.533-.354,1.067-.555,1.56l-1.113,2.934c-.666,1.9-1.288,3.368-1.439,4.2a14.889,14.889,0,0,0,.007,3.842c.073.755.174,1.55.284,2.345.1.78.217,1.566.335,2.325.281,1.8.575,3.447.768,4.491a93.955,93.955,0,0,1-12.292,6.056l.3-.264c.593-.536,1.228-1.123,1.869-1.736s1.3-1.231,1.9-1.915,1.163-1.38,1.672-2.046a12.21,12.21,0,0,0,2.1-3.56,19.383,19.383,0,0,0,.45-4.447c.018-.979,0-2.037-.038-3.113s-.143-2.228-.247-3.312c-.215-2.185-.513-4.221-.764-5.7-.125-.742-.237-1.346-.317-1.766l-.134-.664-.065.161-.2.433-.736,1.586-1.092,2.345c-.2.454-.441.868-.677,1.321l-.74,1.385-.771,1.443c-.264.477-.51,1-.792,1.441l-1.584,2.669c-.5.839-.934,1.662-1.314,2.3a11.525,11.525,0,0,0-.814,1.566,14.9,14.9,0,0,0-.672,3.769c-.125,1.506-.17,3.2-.219,4.717-.048,1.8-.057,3.46-.056,4.522-1.23.445-2.446.856-3.64,1.225a84.5,84.5,0,0,1-9.4,2.429c.736-.444,1.536-.94,2.35-1.467l1.118-.737c.373-.246.73-.549,1.089-.825.712-.565,1.4-1.136,2.02-1.694a22.545,22.545,0,0,0,1.649-1.618,7.825,7.825,0,0,0,1.058-1.511,19.163,19.163,0,0,0,1.245-4.278c.193-.958.371-1.993.521-3.061.138-1.1.25-2.222.336-3.313.173-2.182.235-4.23.246-5.727s-.031-2.478-.031-2.478l-.09.146c-.059.095-.144.24-.263.4l-.991,1.413-1.473,2.093-.427.6c-.148.2-.305.386-.462.585l-.973,1.219-2.042,2.56-2.046,2.322c-.642.739-1.228,1.431-1.708,2.031a14.652,14.652,0,0,0-1.087,1.4c-1.018,1.661-1.785,5.123-2.417,8.192-.313,1.52-.587,2.9-.777,3.932l-.071.4c-2.316.38-4.419.643-6.247.848l-3.247.289-1.354.119-1.188.032-1.595.044c.842-.3,1.775-.64,2.743-1.013a49.245,49.245,0,0,0,4.705-2.436c.351-.211.686-.421,1-.63s.615-.457.888-.679a8.845,8.845,0,0,0,1.315-1.292,19.039,19.039,0,0,0,2.005-3.959c.183-.451.366-.922.546-1.409.176-.5.349-1.023.517-1.548.336-1.051.653-2.131.937-3.184.571-2.106,1.01-4.1,1.3-5.567.143-.736.24-1.373.309-1.8l.1-.674-.444.485c-.28.33-.714.71-1.236,1.224l-1.846,1.773-1.09,1.043c-.382.344-.786.67-1.193,1.02l-4.809,4.071a30.066,30.066,0,0,0-3.156,2.915l-.118.15-.146.151q-.146.156-.291.331c-.194.233-.387.489-.578.764a19.931,19.931,0,0,0-1.125,1.85,44.415,44.415,0,0,0-1.993,4.287c-1.167,2.854-1.944,5.344-1.944,5.344s.928,2.438,2.267,5.216a44.412,44.412,0,0,0,2.251,4.159,19.96,19.96,0,0,0,1.235,1.778c.208.263.416.507.624.728q.156.165.311.313l.155.142.181.122a28.71,28.71,0,0,0,5.205,2.144c2.571.892,5.368,1.586,8.257,2.284.716.166,1.431.344,2.13.484l2.046.349c1.326.219,2.562.409,3.62.564s1.943.3,2.55.331l.957.08-.587-.475c-.376-.309-.91-.729-1.56-1.283-1.3-1.113-3.04-2.628-4.81-4.216l-2.646-2.391-1.269-1.153-1.2-1.135a28.64,28.64,0,0,0-3.632-3.081,10.644,10.644,0,0,0-1.794-.808c-.356-.132-.727-.244-1.131-.382s-.828-.284-1.263-.422c-1.739-.554-3.66-1.063-5.421-1.509-.985-.312-1.934-.6-2.791-.842,1.359-.037,3.86-.132,7.342-.527l1.922-.189,2.064-.328,2.222-.354.362-.058c.065.112.134.229.208.354.539.906,1.313,2.162,2.228,3.437,1.815,2.527,4.277,5.274,6.384,6.244a11.813,11.813,0,0,0,2.064.666c.9.2,2.009.4,3.251.6s2.621.386,4.062.55c1.423.1,2.912.187,4.388.251l2.2.081c.36.009.72.025,1.07.026l1.025-.023c1.345-.034,2.6-.079,3.667-.126l2.582-.129c.313-.013.549-.043.712-.059l.249-.026s-.955-.5-2.445-1.369-3.469-2.016-5.5-3.248l-3.032-1.858-2.866-1.839a28.455,28.455,0,0,0-4.124-2.35,13.46,13.46,0,0,0-1.915-.482c-.755-.162-1.6-.3-2.495-.42s-1.832-.222-2.774-.309c-.473-.051-.939-.068-1.414-.136l-1.4-.179c-.983-.12-1.918-.224-2.766-.313l3.755-.845c1.771-.474,3.608-1.043,5.527-1.6.483-.129.957-.3,1.434-.479l1.448-.526,1.078-.391c.7.814,1.8,2.051,3.121,3.338a29.389,29.389,0,0,0,3.71,3.112,12.123,12.123,0,0,0,3.705,1.879,13.945,13.945,0,0,0,2.157.283c.944.072,2.05.035,3.308.006s2.64-.11,4.087-.21c.733-.035,1.435-.152,2.167-.236l2.187-.294,2.163-.319c.707-.113,1.417-.207,2.062-.355,1.307-.272,2.521-.538,3.557-.772l2.5-.582.695-.168.238-.068-.717-.246-1.928-.686c-1.6-.576-3.753-1.37-5.959-2.22-1.109-.432-2.212-.846-3.315-1.3l-3.143-1.29a28.116,28.116,0,0,0-4.47-1.558,24.237,24.237,0,0,0-4.5-.1c-.9.048-1.838.123-2.777.213s-1.92.109-2.838.181-1.806.13-2.61.2l-.35.03c.611-.264,1.224-.54,1.848-.806,1.007-.449,2.045-.869,3.065-1.36,2.487-1.246,5.034-2.576,7.564-4.065.828.673,2.151,1.7,3.7,2.745.658.442,1.357.885,2.073,1.3s1.426.779,2.139,1.106a12.107,12.107,0,0,0,3.967,1.186,22.635,22.635,0,0,0,5.407-.66c1.218-.254,2.559-.564,3.954-.91.707-.164,1.395-.37,2.085-.585l2.082-.652c1.381-.447,2.76-.892,4.013-1.346,1.228-.476,2.365-.93,3.335-1.325,1.94-.79,3.209-1.336,3.209-1.336s-4.347-.769-8.95-1.732c-2.284-.455-4.735-1.045-6.779-1.49a27.568,27.568,0,0,0-4.653-.773,15.779,15.779,0,0,0-1.978.186c-.758.117-1.594.288-2.466.493s-1.781.445-2.688.7c-.931.222-1.87.445-2.763.675-1.124.279-2.171.577-3.1.821.714-.458,1.426-.925,2.131-1.415a90.982,90.982,0,0,0,9.208-7.017c.924.52,2.436,1.33,4.184,2.112,2.908,1.327,6.362,2.417,8.644,2.2a13.675,13.675,0,0,0,2.1-.452c.445-.127.949-.264,1.462-.443s1.058-.383,1.632-.6a77.041,77.041,0,0,0,7.6-3.331c1.281-.639,2.542-1.287,3.713-1.9,1.147-.629,2.172-1.243,3.062-1.763,1.772-1.047,2.925-1.757,2.925-1.757s-4.37-.156-9.037-.436c-1.158-.061-2.371-.15-3.55-.239l-3.354-.235a26.865,26.865,0,0,0-4.7-.049,19.7,19.7,0,0,0-4.27,1.364c-.828.339-1.67.734-2.539,1.116-.884.367-1.764.748-2.605,1.122s-1.644.742-2.373,1.082l-.533.249-.187.077c.151-.133.3-.265.454-.4l2.778-2.664c.459-.451.941-.879,1.381-1.35l1.323-1.412c.879-.946,1.777-1.876,2.641-2.838l1.35-1.6c.987.368,2.634.947,4.514,1.461a33.631,33.631,0,0,0,4.76.983,12.149,12.149,0,0,0,4.1-.085,13.484,13.484,0,0,0,1.984-.745,31.455,31.455,0,0,0,2.9-1.45c1.061-.591,2.218-1.266,3.415-1.988l1.816-1.112,1.757-1.185c2.319-1.595,4.6-3.188,6.154-4.453l2.623-2.087s-4.312.383-8.951.709c-2.369.146-4.823.28-6.893.431a29.361,29.361,0,0,0-4.654.582c-2.149.595-5.617,2.973-8.762,4.908-.772.5-1.507.982-2.175,1.429l-.806.5c.209-.247.418-.5.62-.748l1.175-1.54,2.343-3.073,2.183-3.165,1.086-1.575c.344-.516.661-1.049.991-1.572,1.018.226,2.758.58,4.725.838a36.074,36.074,0,0,0,4.843.339,11.786,11.786,0,0,0,4.043-.608,28.745,28.745,0,0,0,4.54-2.766c1.918-1.429,4.217-3.223,6.347-5.051,2.074-1.844,4.1-3.678,5.531-5.081l2.32-2.348-2.67.536c-1.621.322-3.788.755-6.123,1.167-4.65.85-9.563,1.674-11.306,2.372a18.224,18.224,0,0,0-3.7,2.442c-.676.559-1.439,1.131-2.169,1.732s-1.463,1.21-2.157,1.807c-1.018.9-2.025,1.732-2.863,2.428l.661-1.06c.658-1.069,1.24-2.175,1.857-3.251l.909-1.617c.306-.535.6-1.071.872-1.622l1.645-3.248c.329-.663.649-1.324.964-1.984,1.023.1,2.828.24,4.86.257a36.554,36.554,0,0,0,4.825-.247,11.927,11.927,0,0,0,3.963-1.058,28.76,28.76,0,0,0,4.135-3.251c.447-.4.931-.824,1.395-1.274l1.417-1.4c.961-.964,1.947-1.98,2.909-2.991.983-1.006,1.84-2.034,2.681-2.985l2.235-2.606.876-1.04.637-.808.549-.7-2.58.807c-1.578.486-3.746,1.125-5.983,1.787s-4.559,1.347-6.534,1.96a26.467,26.467,0,0,0-4.423,1.613,19.5,19.5,0,0,0-3.38,2.839c-1.291,1.233-2.642,2.665-3.864,4.017-.982,1.053-1.919,2.038-2.677,2.858,2.143-4.687,3.942-9.272,5.439-13.609.245,0,.532-.008.862-.016.529-.014,1.156-.038,1.848-.077s1.429-.1,2.206-.18c3.1-.314,6.7-1,8.569-2.242a24.779,24.779,0,0,0,3.749-3.646c.8-.888,1.667-1.881,2.541-2.928.842-1.053,1.7-2.159,2.541-3.257s1.672-2.187,2.39-3.213l1.924-2.8,1.819-2.722Z" fill="#1f1f1f"/>
  </g>
</svg>
