<svg xmlns="http://www.w3.org/2000/svg" width="75.074" height="61.397" viewBox="0 0 75.074 61.397">
  <path id="Path_288" data-name="Path 288" d="M153.3,222.505a67.7,67.7,0,0,0-5.855,36.968c.712,5.572,1.648,12.809,6.3,16.617a9.912,9.912,0,0,0,7.991,2.308,7.993,7.993,0,0,0,5.777-4.816,16.616,16.616,0,0,0,1.067-7.411c-.153-3.134-.613-6.269-.944-9.388l-1.15-10.828c-.357-3.36-.9-6.758-1.009-10.137-.066-1.975.328-5.723,3.044-5.8,1.541-.045,2.346,1.855,2.758,3.377a32.929,32.929,0,0,1,.629,7.755q.147,5.463.295,10.925.141,5.214.282,10.429a42.26,42.26,0,0,0,.677,7.8c1.023,4.756,4.364,9.5,9.835,8.6A9.506,9.506,0,0,0,189.46,274c1.594-2.908,1.679-6.325,1.271-9.541-.889-7.012-2.319-13.988-3.505-20.955l-1.746-10.255c-.481-2.843-1.116-6.174.381-8.826,1.13-2,3.185-2.943,5.293-1.738,2.432,1.39,3.316,4.1,3.786,6.705.605,3.357.756,6.83,1.089,10.222l1.025,10.434c.34,3.462.634,6.931,1.033,10.387a23.843,23.843,0,0,0,2.508,9.184c2.747,4.845,9.314,7.94,14.236,4.264,5.409-4.039,4.523-11.159,3.013-16.883-1.8-6.831-3.643-13.652-5.465-20.478-.831-3.116-2.089-6.605-1.393-9.864.392-1.836,1.7-4.116,3.767-4.392,1.241-.166,3.4,1.325,2.679,2.73-1.317,2.573,2.564,4.853,3.886,2.271,2.792-5.454-3.454-11.108-8.813-9A9.943,9.943,0,0,0,207,224.269c-1.15,3.094-.661,6.586.072,9.714,1.605,6.845,3.609,13.618,5.422,20.41.842,3.155,2.015,6.425,2.1,9.715.059,2.333-.6,5.1-2.754,6.38-1.975,1.173-4.356.2-5.891-1.259-2.031-1.936-2.748-4.778-3.177-7.461-.54-3.379-.732-6.834-1.067-10.238L200.676,241.1c-.34-3.459-.62-6.93-1.035-10.382-.371-3.086-.958-6.3-2.851-8.858a9.935,9.935,0,0,0-7.3-4.24,8.318,8.318,0,0,0-7.24,4.07,13.571,13.571,0,0,0-1.681,8.83c.351,3.442,1.07,6.862,1.651,10.271l3.575,21c.508,2.984,1.261,6.462.055,9.378-.766,1.854-2.683,3.777-4.852,3.276-3.746-.865-3.9-7.315-3.982-10.449q-.285-10.553-.57-21.105c-.134-4.971.461-11.412-3.269-15.357a6.42,6.42,0,0,0-7.346-1.4,8.713,8.713,0,0,0-4.7,6.805c-.5,3.394.2,6.929.559,10.309l1.124,10.582c.366,3.445.746,6.889,1.1,10.336a17.565,17.565,0,0,1-.3,7.068,3.672,3.672,0,0,1-4.028,2.8c-2.569-.33-4.3-2.49-5.289-4.708a34.722,34.722,0,0,1-2.184-8.713,60.812,60.812,0,0,1-.7-8.984A63.309,63.309,0,0,1,154,233.229a61.117,61.117,0,0,1,3.18-8.452,2.315,2.315,0,0,0-.807-3.078,2.269,2.269,0,0,0-3.078.807Z" transform="translate(-146.933 -217.618)" fill="#ecb462"/>
</svg>
