<svg xmlns="http://www.w3.org/2000/svg" xmlns:xlink="http://www.w3.org/1999/xlink" width="76.646" height="80.078" viewBox="0 0 76.646 80.078">
  <defs>
    <linearGradient id="linear-gradient" x1="0.594" y1="0.926" x2="0.413" y2="0.038" gradientUnits="objectBoundingBox">
      <stop offset="0" stop-color="#c1282d"/>
      <stop offset="1" stop-color="#ed3753"/>
    </linearGradient>
    <linearGradient id="linear-gradient-2" x1="0.663" y1="0.835" x2="0.395" y2="-0.013" gradientUnits="objectBoundingBox">
      <stop offset="0" stop-color="#f15c28"/>
      <stop offset="1" stop-color="#fbe863"/>
    </linearGradient>
  </defs>
  <g id="Group_26" data-name="Group 26" transform="translate(-1657.494 -184.501)">
    <path id="Path_298" data-name="Path 298" d="M1731.706,221.886l-15.061-7.637a12.1,12.1,0,0,1-3.569-2.933l-6.924,26.02c-1.019,3.823-5.819,6.367-10.734,5.683s-8.11-4.137-7.092-7.963,5.82-6.372,10.726-5.69a9,9,0,0,1,4.876,2l3.861-14.509c.483-1.817-1.655-1.686-1.655-1.686l-19.216.843s-2.228.18-2.681,1.881l-4.806,18.06c-1.02,3.833-5.453,6.441-10.381,5.847-3.325-.4-5.871-2.057-6.871-4.267l-3.968,7.353c-1.742,3.226-.205,5.391,3.416,4.81l16.674-2.673a14.236,14.236,0,0,1,11.182,3.769l11.654,12.219c2.53,2.653,5.065,1.86,5.631-1.763l2.61-16.682a14.247,14.247,0,0,1,7.039-9.471l15.224-7.308C1734.947,226.2,1734.977,223.544,1731.706,221.886Z" fill="url(#linear-gradient)"/>
    <path id="Path_299" data-name="Path 299" d="M1672.683,228.154c3.356.4,4.551,1.767,4.551,1.767l5.628-21.153a6.518,6.518,0,0,1,5.905-4.49l20.9-.767-2.1-15.619c-.488-3.635-3-4.482-5.593-1.884l-11.916,11.962a14.248,14.248,0,0,1-11.264,3.524l-16.61-3.035c-3.606-.66-5.191,1.472-3.521,4.735l7.7,15.031A14.481,14.481,0,0,1,1666.7,229,11.72,11.72,0,0,1,1672.683,228.154Z" fill="url(#linear-gradient-2)"/>
  </g>
</svg>
