<svg xmlns="http://www.w3.org/2000/svg" width="104.938" height="75.396" viewBox="0 0 104.938 75.396">
  <g id="Group_120" data-name="Group 120" transform="translate(-1497.006 -1072.626)">
    <path id="Path_695" data-name="Path 695" d="M1601.649,1099.688c-1.767-5.111-11.211-6.937-24.457-5.622a135.347,135.347,0,0,0-21.732,4.173,48.11,48.11,0,0,1,13.6-5.854,33.389,33.389,0,0,0-19.5-6.058c-16.979,0-30.371,11.843-32.158,27.3-13.907,7.953-22.084,16.411-20.1,22.146,1.774,5.132,11.289,6.972,24.623,5.625a140.133,140.133,0,0,0,25.008-5.108h0a45.488,45.488,0,0,1-14.914,7.069,33.709,33.709,0,0,0,17.373,4.657c16.528,0,29.661-11.23,31.994-26.087C1595.393,1113.952,1603.641,1105.445,1601.649,1099.688Zm-39.746,17.65c0,6.929-4.807,13.181-12.327,13.181-7.605,0-12.494-6.336-12.494-13.35V1117c0-6.93,4.8-13.183,12.325-13.183,7.6,0,12.5,6.338,12.5,13.351Zm-53.849,13.563c-1.341-3.874,2.213-9.039,9.093-14.209,0,.158-.06.316-.06.476v.169a29.938,29.938,0,0,0,6.825,19.086c-8.573.177-14.522-1.656-15.858-5.522Zm73.689-14.736a29.864,29.864,0,0,0-7.561-19.189c8.62-.188,14.659,1.644,16,5.521,1.293,3.739-2.023,8.679-8.438,13.668Z" fill="#47a0d8"/>
    <path id="Path_696" data-name="Path 696" d="M1581.389,1078.705a6.078,6.078,0,1,1-6.079-6.079,6.078,6.078,0,0,1,6.079,6.079Z" fill="#47a0d8"/>
  </g>
</svg>
