<svg xmlns="http://www.w3.org/2000/svg" width="51.485" height="52.418" viewBox="0 0 51.485 52.418">
  <g id="Group_384" data-name="Group 384" transform="translate(-978.249 -433.253)">
    <path id="Path_1508" data-name="Path 1508" d="M1017.93,470.049a2.121,2.121,0,0,1-1.327.184,8.94,8.94,0,0,1-2.622-1.068,16.331,16.331,0,0,1-6.358-6.5c-2.264-3.923-3.716-8.365-7.138-11.525-5.524-5.1-14.349-5.359-22.236-5.284l.065,6.869a19.614,19.614,0,0,1,18.158,3.607c3.885,3.379,5.862,8.124,8.753,12.241a20.5,20.5,0,0,0,5.052,5.166c2.255,1.554,4.589,1.866,7.181,2.677a.457.457,0,0,1,.2.1.376.376,0,0,1,.07.271q-.018,2.928-.036,5.855a14.644,14.644,0,0,0,.019,1.945c.028.219.052.767.226.924.318.288.224.125.567-.1a60.181,60.181,0,0,0,5.709-4.278c1.705-1.409,3.54-2.773,5.1-4.337.676-.677.439-1.019-.054-1.8-1.175-1.852-2.413-3.614-3.733-5.382a46.175,46.175,0,0,1-3.053-4.4c-.375-.638-1.633-3.076-2.609-3.007-.622.032-.588.806-.633,1.272-.159,1.655-.29,3.313-.435,4.97a1.872,1.872,0,0,1-.868,1.583Z" fill="#6493af"/>
    <path id="Path_1509" data-name="Path 1509" d="M1017.93,448.875a2.12,2.12,0,0,0-1.327-.184,8.939,8.939,0,0,0-2.622,1.068,16.332,16.332,0,0,0-6.358,6.5c-2.264,3.923-3.716,8.365-7.138,11.525-5.524,5.1-14.349,5.359-22.236,5.284l.065-6.869a19.614,19.614,0,0,0,18.158-3.607c3.885-3.379,5.862-8.124,8.753-12.241a20.5,20.5,0,0,1,5.052-5.166c2.255-1.554,4.589-1.866,7.181-2.677a.455.455,0,0,0,.2-.1.376.376,0,0,0,.07-.271q-.018-2.927-.036-5.855a14.645,14.645,0,0,1,.019-1.945c.028-.219.052-.766.226-.924.318-.288.224-.125.567.1a60.176,60.176,0,0,1,5.709,4.278c1.705,1.409,3.54,2.773,5.1,4.337.676.677.439,1.019-.054,1.8-1.175,1.852-2.413,3.614-3.733,5.382a46.182,46.182,0,0,0-3.053,4.4c-.375.638-1.633,3.076-2.609,3.007-.622-.032-.588-.806-.633-1.272-.159-1.655-.29-3.313-.435-4.97a1.872,1.872,0,0,0-.868-1.583Z" fill="#6d9dbf"/>
  </g>
</svg>
