<svg xmlns="http://www.w3.org/2000/svg" width="42.36" height="43.55" viewBox="0 0 42.36 43.55">
  <g id="Group_373" data-name="Group 373" transform="translate(-509.159 -354.864)">
    <path id="Path_1460" data-name="Path 1460" d="M527.087,395.611a30.291,30.291,0,0,1-11.757-9.916,32.9,32.9,0,0,1-4.606-9.181c-.97-3.053-1.988-6.95-1.384-10.149.354-1.878.768-1.936,2.221-3.66a8.748,8.748,0,0,1,3.792-2.471c3.2-1.274,6.2,1.058,7.959,3.572a8.641,8.641,0,0,1,1.714,6.847c-.417,1.8-2.2,5.1-4.167,5.6-.832.213-.988.318-.2,1.251,1.2,1.426,10.887,11.837,12.559,9.158a8.719,8.719,0,0,1,2.536-3.193c1.557-1.155,2.7-2.777,5.984-1.909a9.824,9.824,0,0,1,7.1,6.743c1,3.885-1.81,7.122-5.1,8.839C538.718,399.762,531.914,397.872,527.087,395.611Z" fill="#6d9dbf"/>
    <g id="Group_372" data-name="Group 372">
      <path id="Path_1461" data-name="Path 1461" d="M551.035,370.734c-.24-1-.539-1.935-.771-2.617-1.409-4.126-4.479-7.506-7.756-10.276a12.97,12.97,0,0,0-6.58-2.671c-1.355-.194-5.68-.951-6.136,1.025a1.731,1.731,0,0,0,.608,1.633,5.4,5.4,0,0,0,2.995.859,15.3,15.3,0,0,1,9.324,5.121,23.485,23.485,0,0,1,5.016,10.019c.327,1.291,1.244,3.578,2.969,2.2C552.078,374.928,551.376,372.158,551.035,370.734Z" fill="#e17460"/>
      <path id="Path_1462" data-name="Path 1462" d="M543.711,368.94a14.887,14.887,0,0,0-3.239-3.963,13.985,13.985,0,0,0-6.105-3.441c-1.6-.329-7.084.486-4.439,3.233.807.839,2.089.458,3.119.737a11.279,11.279,0,0,1,7.378,6.3c.624,1.392.568,2.777,1.023,4.182.371,1.144.894,1.454,2.406,1.5s1.4-2.144,1.336-3.5a11.453,11.453,0,0,0-1.478-5.049Z" fill="#e17460"/>
    </g>
  </g>
</svg>
