<svg xmlns="http://www.w3.org/2000/svg" width="228.12" height="155.124" viewBox="0 0 228.12 155.124">
  <g id="Group_2202" data-name="Group 2202" transform="translate(-1449.695 -350.131)">
    <path id="Path_9825" data-name="Path 9825" d="M1674.389,388.688c-1.018.434-2.2.974-3.471,1.617a45.041,45.041,0,0,0-3.995,2.238,15.265,15.265,0,0,0-4.317,4.183q.1-.5.2-.981c.675-.794,1.39-1.553,2.115-2.289,1.2-1.221,2.466-2.382,3.71-3.56a49.065,49.065,0,0,0,3.461-3.665,19.854,19.854,0,0,0,2.681-4.18,14.719,14.719,0,0,0,.968-3.6c.124-.743.231-1.534.324-2.335s.116-1.615.155-2.4c.062-1.573.1-3.04.051-4.114l-.1-1.755s-.23.14-.627.416-.961.685-1.644,1.22a50.288,50.288,0,0,0-5.232,4.626c-.277.288-.541.591-.8.9a30.16,30.16,0,0,0,.954-3.382,23.046,23.046,0,0,0,.542-5.507,34.505,34.505,0,0,0-.7-5.653c-.381-1.856-.823-3.626-1.182-5.157-.79-3.062-1.239-5.177-1.239-5.177s-.483,2.126-1.35,5.123c-.459,1.5-.986,3.21-1.507,4.987a42.188,42.188,0,0,0-1.319,5.387,30.424,30.424,0,0,0-.058,8.721,11.026,11.026,0,0,0-.587-1,32.661,32.661,0,0,0-4.321-5.227c-.6-.595-1.1-1.047-1.454-1.352s-.562-.462-.562-.462l-.342,1.558c-.169.957-.436,2.255-.655,3.653s-.411,2.892-.511,4.236a15.894,15.894,0,0,0,.069,3.346,20.967,20.967,0,0,0,1.4,4.355c.606,1.426,1.33,2.847,2.088,4.308.722,1.452,1.458,2.94,2.1,4.5a23.416,23.416,0,0,1,.964,2.876c-.078.31-.157.628-.236.945a12.074,12.074,0,0,0-2.229-5.4,31.337,31.337,0,0,0-2.88-3.359c-.987-.987-1.935-1.827-2.761-2.51a30.2,30.2,0,0,0-2.837-2.11s-.125.581-.3,1.5-.362,2.188-.574,3.541-.315,2.831-.414,4.147a12.76,12.76,0,0,0,.176,3.348,22.614,22.614,0,0,0,1.647,4.561c.674,1.514,1.478,3.051,2.272,4.629a35.361,35.361,0,0,1,2.964,7.586c-.108.292-.214.583-.325.877a12.243,12.243,0,0,0-.534-2.414,12.7,12.7,0,0,0-1.559-3.025,36.445,36.445,0,0,0-6.275-6.762c-.955-.812-1.777-1.446-2.364-1.879s-.937-.666-.937-.666-.144.553-.321,1.443c-.089.445-.189.973-.291,1.556-.049.293-.1.6-.152.914l-.175.963c-.4,2.651-.777,5.7-.372,7.426a27.127,27.127,0,0,0,1.591,4.821c.666,1.635,1.4,3.291,2.138,5.008.372.86.711,1.718,1.017,2.582s.6,1.742.842,2.629a18.688,18.688,0,0,1,.55,2.587c-.135.256-.273.512-.41.767a11.206,11.206,0,0,0-.3-2.152,13.053,13.053,0,0,0-1.366-3.294,38.525,38.525,0,0,0-6.23-7.817c-.978-.968-1.838-1.737-2.453-2.267s-.992-.823-.992-.823l-.38,1.381c-.236.842-.469,2.048-.768,3.315-.144.637-.291,1.3-.4,1.973s-.207,1.355-.307,1.989a11.716,11.716,0,0,0-.1,3.372,33.686,33.686,0,0,0,1.244,5.091c.565,1.811,1.12,3.593,1.678,5.38a31.943,31.943,0,0,1,1.467,7.942c-.163.221-.325.442-.49.662a11.3,11.3,0,0,0-.032-1.9,13.116,13.116,0,0,0-.97-3.532,39.221,39.221,0,0,0-5.5-8.9c-.913-1.139-1.73-2.059-2.317-2.7s-.948-.995-.948-.995l-.47,1.316c-.14.407-.3.892-.474,1.432s-.35,1.138-.559,1.74c-.4,1.216-.744,2.6-1.039,3.857a12.325,12.325,0,0,0-.393,3.4,39.906,39.906,0,0,0,.68,5.363c.308,1.849.65,3.747.93,5.68a28.911,28.911,0,0,1,.174,7.776c-.186.184-.369.371-.556.554a11.106,11.106,0,0,0,.231-1.539,12.482,12.482,0,0,0-.343-3.621c-.217-.909-.483-1.81-.785-2.69q-.227-.661-.476-1.3t-.535-1.277a49.5,49.5,0,0,0-5.036-8.745l-.551,1.3c-.343.793-.727,1.971-1.22,3.187-.233.621-.479,1.267-.7,1.937l-.324,1.006c-.114.325-.229.645-.332.967a16.621,16.621,0,0,0-.8,3.47c-.191,1.719-.213,3.575-.242,5.452-.054,1.846-.1,3.722-.239,5.59a26,26,0,0,1-1.429,7c-.2.147-.407.3-.613.443a9.668,9.668,0,0,0,.439-1.112,11.512,11.512,0,0,0,.481-3.377,31.319,31.319,0,0,0-1.8-9.7,41.247,41.247,0,0,0-1.754-4.433l-.7,1.3-.732,1.447c-.272.548-.57,1.151-.91,1.749-.671,1.2-1.339,2.6-2,3.825a22.013,22.013,0,0,0-1.5,3.28c-.136.425-.255.82-.369,1.217l-.339,1.213-.656,2.486c-.113.419-.213.838-.341,1.261l-.459,1.273c-.306.843-.613,1.674-.931,2.491a21.069,21.069,0,0,1-2.838,5.685c-.133.062-.266.126-.4.187l-.25.117a9.512,9.512,0,0,0,1.782-3.5q.149-.55.262-1.1l.055-.276.013-.069,0-.017,0-.009v0c-.046.023.1-.057-.1.05l.007-.036.027-.143q.051-.289.1-.574c.125-.764.217-1.526.282-2.271a37.656,37.656,0,0,0,.124-4.149,18.183,18.183,0,0,0-.242-3.011c-.13-.721-.227-1.135-.227-1.135l-.228.323a9.367,9.367,0,0,1-.8.937l-2.765,3.075-.049.056,0,0c-.227.121.306-.161.25-.131l-.005.006-.01.012-.02.024-.08.1-.161.193-.326.391-.667.786c-.441.539-.913,1.021-1.344,1.525-.857,1.017-1.686,1.855-2.166,2.568-1.836,2.546-3.524,5.2-5.512,7.613a25.793,25.793,0,0,1-4.119,4.068l-.111.025a7.343,7.343,0,0,0,.976-1.057,16.816,16.816,0,0,0,2.8-6.782l-.959.5-1.029.53-1.262.623c-.881.442-1.863.892-2.724,1.335a16.685,16.685,0,0,0-2.141,1.18c-2.649,1.816-4.757,4.053-7.287,5.907l-.3.053c.019.042.041.082.06.124a7.035,7.035,0,0,1,.364,1.054q.088.337.144.686a7.1,7.1,0,0,1,.089.961c0,.053.008.105.008.159a7.057,7.057,0,0,1-.743,3.147c.708.231,1.4.468,2.066.717.5.194.988.4,1.467.6l.709.3.682.321,1.317.636,1.229.677a33.084,33.084,0,0,1,7.3,5.536l.643.638.579.636,1.044,1.159c.627.753,1.162,1.4,1.645,1.922a7.125,7.125,0,0,0,1.206,1.194,1.918,1.918,0,0,0,1.086.387,10.351,10.351,0,0,0,4.634-1.28c1.351-.722,2.217-1.555,1.747-1.968l-1.628-1.466c-.678-.594-1.543-1.293-2.478-2.081a65.195,65.195,0,0,0-7.332-5.021,58.2,58.2,0,0,0-6.18-3.108c.091.019.18.041.272.06a32.464,32.464,0,0,0,6.014.159l1.611-.072,1.349-.1,1.27-.1a21.239,21.239,0,0,0-1.777-1.6,24.188,24.188,0,0,0-4.407-2.892,8.867,8.867,0,0,0-1.428-.562l.055-.012c1.993.42,3.934,1.015,5.94,1.635a51.165,51.165,0,0,0,10.382,2.44,17.32,17.32,0,0,0,1.884.03l1.159-.044c.4-.029.823-.068,1.257-.11.864-.094,1.8-.175,2.713-.334l1.39-.229.7-.113.347-.057.172-.029.043-.007.021,0,.011,0c-.053.029.483-.255.258-.135h0l.073-.011,4.083-.656a11.489,11.489,0,0,0,1.318-.246l.541-.14s-.353-.26-.981-.681c-.653-.4-1.461-1.062-2.493-1.753a37.69,37.69,0,0,0-3.554-2.145c-.661-.349-1.351-.685-2.062-.994l-.536-.227-.135-.055-.034-.013c-.207.108-.06.029-.107.053l0,0-.009,0-.018-.007-.071-.028-.284-.109q-.568-.216-1.141-.411a14.887,14.887,0,0,0-4.171-.738l.706-.306c.513.037,1.029.086,1.54.13.851.079,1.715.2,2.6.337l.166.027.083.013.042.007c-.069.038.1-.051.084-.041h.005l.01,0,.02,0,.318.052.638.111,1.284.248c.859.176,1.724.367,2.6.568l1.318.3c.458.082.938.142,1.415.209.958.128,1.94.238,2.947.315q.755.058,1.528.088c.519.02,1.04.029,1.531.023a25.433,25.433,0,0,0,4.337-.595c.868-.164,1.75-.409,2.65-.656s1.811-.508,2.682-.784c3.474-1.116,6.389-2.382,6.389-2.382s-.444-.256-1.226-.668-1.9-.977-3.229-1.6a61.837,61.837,0,0,0-9.637-3.661,13.751,13.751,0,0,0-3.478-.49c-.46-.011-.908,0-1.348.033l.525-.338.137-.1c.623-.017,1.251-.017,1.881-.01.913.021,1.849.085,2.8.17l2.9.284c1.953.186,4,.424,6.069.523a37.72,37.72,0,0,0,6.257-.228,20.452,20.452,0,0,0,4.27-1.364c.413-.171.831-.356,1.255-.549l1.248-.631c.838-.431,1.661-.9,2.462-1.353.4-.229.794-.453,1.166-.683l1.052-.693c.671-.449,1.285-.86,1.788-1.224,1.013-.721,1.646-1.195,1.646-1.195s-2.04-.771-5.033-1.655a80.247,80.247,0,0,0-10.77-2.467,15.761,15.761,0,0,0-3.747-.1,13.947,13.947,0,0,0-1.687.237c.195-.185.388-.371.582-.555a70.4,70.4,0,0,1,8.254-.551c2.048-.083,4.166-.166,6.269-.4a30.634,30.634,0,0,0,6.109-1.346,17.125,17.125,0,0,0,3.785-2.22c.351-.257.717-.522,1.068-.806s.688-.587,1.031-.891c.684-.609,1.371-1.234,2.012-1.858s1.234-1.246,1.76-1.828,1.006-1.116,1.405-1.572l.944-1.093c.226-.26.338-.413.338-.413s-.506-.1-1.405-.243-2.171-.331-3.685-.509a82.126,82.126,0,0,0-10.889-.6,15.937,15.937,0,0,0-3.732.516,14.036,14.036,0,0,0-1.933.622c.167-.23.334-.459.5-.69a82.993,82.993,0,0,1,8.29-2c1.967-.438,4-.883,5.945-1.493a27.972,27.972,0,0,0,5.525-2.4,16.476,16.476,0,0,0,3.153-2.832,41.117,41.117,0,0,0,3.243-4.152,61.636,61.636,0,0,0,3.342-5.477s-.482-.015-1.332-.012-2.054.027-3.485.1a73.274,73.274,0,0,0-10.314,1.2,15.448,15.448,0,0,0-3.482,1.126,14.684,14.684,0,0,0-2.03,1.106l.17-.336c.078-.156.158-.312.237-.467a76.852,76.852,0,0,1,7.837-3.459c1.8-.746,3.633-1.511,5.35-2.418a25.218,25.218,0,0,0,4.763-3.205,16.3,16.3,0,0,0,2.483-3.228c.436-.69.841-1.437,1.227-2.2s.768-1.545,1.119-2.305l.5-1.124.423-1.069c.267-.686.5-1.315.7-1.847.39-1.064.6-1.748.6-1.748s-.434.053-1.182.179-1.811.322-3.082.6a63.539,63.539,0,0,0-9.158,2.7,14.548,14.548,0,0,0-3.068,1.637,14.284,14.284,0,0,0-1.993,1.626l.023-.067c.093-.273.176-.54.266-.811a72.893,72.893,0,0,1,7.027-4.779c1.539-1,3.09-2.014,4.521-3.143a23.235,23.235,0,0,0,3.806-3.8c1.157-1.531,2.446-5.022,3.181-8.166.4-1.569.671-3.044.838-4.129s.267-1.772.267-1.772S1676.425,387.82,1674.389,388.688Zm-6.059-7.933c.214-.484.449-.951.676-1.4a18.493,18.493,0,0,1,1.537-2.31,12.527,12.527,0,0,1,1.339-1.478c.174-.168.328-.286.427-.368l.155-.123.125.085s-.079.258-.248.688l-.3.774c-.125.292-.245.634-.406.989-.143.366-.319.748-.5,1.158s-.388.834-.618,1.267-.518.865-.8,1.309-.561.9-.834,1.355c-.551.915-1.045,1.846-1.56,2.714l-1.355,2.383-.926,1.7-.368.642-.172-.056.238-.683c.139-.438.362-1.055.634-1.8l.461-1.2c.159-.427.37-.863.562-1.325.407-.915.81-1.9,1.268-2.867.222-.489.445-.976.665-1.457Zm-3.709-11.254a40.875,40.875,0,0,1,.834-5.114c.26-1.215.468-1.893.468-1.893s.136.7.268,1.938a34.82,34.82,0,0,1,.092,5.21,60.258,60.258,0,0,1-1.086,7.46c-.482,2.519-1.108,4.769-1.346,5.977C1664.092,380.615,1664.157,373.793,1664.621,369.5Zm-4.782,14.7c-.183-.942-.443-1.948-.7-2.932-.135-.493-.271-.982-.423-1.457s-.291-.938-.411-1.39-.224-.888-.307-1.3-.166-.8-.22-1.167c-.075-.358-.112-.694-.167-.985l-.114-.763-.1-.675.138-.052.129.144a4.238,4.238,0,0,1,.341.423,10.822,10.822,0,0,1,.962,1.638,16.252,16.252,0,0,1,.955,2.493,11.491,11.491,0,0,1,.291,1.463l.23,1.522c.156,1.021.3,2.054.384,3.018.029.483.085.95.094,1.393s.027.864.04,1.251c.005.776.026,1.424-.009,1.872l-.039.705-.181-.012-.1-.713c-.056-.453-.17-1.1-.3-1.87Zm-5.152,14.055c-.141-.513-.282-1.022-.452-1.52s-.351-.989-.485-1.458-.254-.921-.348-1.347-.192-.826-.256-1.2c-.089-.368-.134-.708-.2-1.007l-.158-.783-.136-.69.173-.031.165.163a5.923,5.923,0,0,1,.434.475,10.528,10.528,0,0,1,1.2,1.786,14.383,14.383,0,0,1,1.106,2.634,13.191,13.191,0,0,1,.317,1.512c.074.513.15,1.034.208,1.556.142,1.046.238,2.1.3,3.081.022.492.046.964.03,1.41s-.025.869-.036,1.258c-.043.779-.075,1.427-.137,1.873-.045.45-.083.7-.083.7l-.207-.041s-.019-.265-.074-.733-.12-1.131-.226-1.92-.262-1.71-.429-2.683C1655.2,400.321,1654.965,399.283,1654.687,398.257ZM1647.574,410c-.083-.441-.176-.857-.229-1.236-.082-.381-.116-.727-.192-1.041l-.151-.808c-.08-.446-.127-.71-.127-.71l.2,0,.179.189a7.083,7.083,0,0,1,.47.544,12.449,12.449,0,0,1,1.285,1.983,14,14,0,0,1,1.08,2.811,12.127,12.127,0,0,1,.249,1.563q.092.8.128,1.6c.075,1.069.1,2.136.083,3.134a13.622,13.622,0,0,1-.08,1.422l-.155,1.253c-.118.773-.214,1.418-.323,1.854l-.151.694-.219-.076-.016-.75c-.006-.475-.023-1.153-.068-1.961s-.121-1.75-.244-2.76-.317-2.093-.549-3.163c-.12-.536-.236-1.065-.4-1.594s-.331-1.048-.456-1.54S1647.657,410.443,1647.574,410Zm-7.558,11.2.176.219c.112.143.286.358.458.624a13.164,13.164,0,0,1,2.083,5.2,11.931,11.931,0,0,1,.107,1.607c.012.544,0,1.085-.027,1.621-.034,1.083-.132,2.153-.258,3.15a13.007,13.007,0,0,1-.248,1.408l-.308,1.228c-.215.753-.394,1.381-.56,1.8-.151.427-.245.666-.245.666l-.214-.114s.036-.27.081-.751.118-1.158.169-1.974.077-1.774.065-2.8c-.03-1.04-.1-2.148-.232-3.258-.072-.558-.139-1.106-.263-1.665s-.251-1.107-.336-1.619-.154-1-.2-1.452-.111-.885-.138-1.274c-.054-.393-.072-.75-.127-1.076l-.1-.833-.085-.731Zm-9.644,30.612c.126-.465.3-1.13.468-1.935s.338-1.757.477-2.783c.113-1.047.2-2.168.2-3.306,0-.571,0-1.136-.044-1.71s-.115-1.154-.143-1.685-.039-1.03-.037-1.495-.013-.908,0-1.3c-.014-.406.012-.763-.009-1.1,0-.329-.009-.616-.012-.852-.005-.469-.009-.746-.009-.746l.2.067.154.25c.1.162.249.408.393.7a14.027,14.027,0,0,1,.959,2.414,13.7,13.7,0,0,1,.525,3.154,11.571,11.571,0,0,1-.092,1.632c-.056.548-.148,1.078-.247,1.613a30.725,30.725,0,0,1-.69,3.108,12.63,12.63,0,0,1-.454,1.36l-.489,1.171c-.325.714-.6,1.309-.826,1.7-.212.4-.35.617-.35.617l-.189-.145S1630.254,452.284,1630.371,451.813Zm-12.711,12.165c.216-.423.515-1.031.842-1.773s.678-1.629,1.008-2.6a29.524,29.524,0,0,0,.81-3.187c.105-.557.2-1.114.263-1.684s.086-1.155.148-1.685.128-1.032.2-1.5.124-.915.2-1.311c.045-.414.131-.759.155-1.105l.1-.868.088-.762.182.092.111.273c.069.177.18.445.275.762a13.347,13.347,0,0,1,.55,2.546,13.687,13.687,0,0,1-.017,3.2,11.914,11.914,0,0,1-.369,1.593c-.149.531-.334,1.035-.526,1.544a28.779,28.779,0,0,1-1.239,2.923,12.115,12.115,0,0,1-.7,1.245l-.7,1.056c-.452.64-.833,1.17-1.127,1.51s-.454.547-.454.547l-.144-.152S1617.449,464.4,1617.66,463.977Zm-14.606,10c.31-.352.746-.86,1.25-1.49a20.54,20.54,0,0,0,1.591-2.254,27.483,27.483,0,0,0,1.472-2.759,14.908,14.908,0,0,0,.608-1.507c.183-.523.347-1.049.523-1.534s.352-.947.524-1.375.321-.843.475-1.211c.138-.378.276-.723.374-1.046s.2-.593.277-.82l.24-.724.147.1.045.267c.026.173.071.434.09.741a11.161,11.161,0,0,1-1.483,6.816c-.264.468-.532.941-.827,1.365a28.773,28.773,0,0,1-1.816,2.487c-.321.37-.6.755-.932,1.069l-.933.884c-.592.53-1.084.964-1.447,1.241l-.562.448-.1-.137.484-.556Zm-16.22,6.836c.385-.235.929-.573,1.552-1.023s1.341-.98,2.067-1.607c.363-.312.732-.639,1.1-.982s.715-.723,1.059-1.1.678-.763.981-1.172l.876-1.2.829-1.083.721-.99.6-.839c.179-.247.328-.473.448-.662l.385-.595.112.092-.02.228a6.03,6.03,0,0,1-.087.631,7.99,7.99,0,0,1-.217.927c-.1.338-.238.707-.4,1.1a10.715,10.715,0,0,1-1.395,2.412,12.581,12.581,0,0,1-1.024,1.1c-.363.362-.746.7-1.14,1.031s-.788.663-1.187.977-.812.585-1.211.854-.783.538-1.172.742l-1.09.593c-.684.359-1.262.633-1.677.8l-.649.274-.056-.127.6-.372Zm-13.989,3.519c.284-.14.687-.34,1.162-.589s1.021-.561,1.6-.894,1.184-.71,1.773-1.106c.292-.2.583-.4.858-.621s.54-.435.807-.626.531-.364.788-.518l.722-.438c.219-.141.433-.256.614-.369l.486-.277.439-.238.09.095a3.431,3.431,0,0,1-.228.5,6.442,6.442,0,0,1-.8,1.145,7.465,7.465,0,0,1-1.406,1.27,8.74,8.74,0,0,1-.914.524c-.318.165-.646.32-.973.48-.651.321-1.307.629-1.941.874-.318.12-.62.246-.916.345l-.83.281c-.52.163-.949.3-1.255.375l-.479.128-.044-.122.443-.221Zm11.06,3.561a3.639,3.639,0,0,1,.447.353l-.045.124-.537-.022-.6-.038c-.226-.023-.486-.034-.759-.066-.279-.017-.572-.063-.884-.1s-.638-.093-.973-.16-.676-.162-1.024-.255-.7-.177-1.056-.257c-.711-.149-1.425-.262-2.092-.382s-1.293-.2-1.829-.273-.983-.12-1.3-.154l-.495-.056v-.129l.494-.044c.314-.034.765-.053,1.311-.079l.881-.029c.313-.012.643,0,.986,0,.685.012,1.419.043,2.154.1l1.1.077a9.4,9.4,0,0,1,1.074.119,10.035,10.035,0,0,1,1.867.582,7.2,7.2,0,0,1,1.27.688Zm18.064-4.042a17.971,17.971,0,0,1,2.228.7c.269.1.483.21.626.279l.22.11-.011.153-.845.012c-.263,0-.582.008-.952,0s-.777-.006-1.219-.027c-.443,0-.918-.023-1.417-.033s-1.029-.06-1.567-.1-1.094-.12-1.651-.183c-.561-.078-1.127-.141-1.687-.191s-1.113-.082-1.657-.123-1.077-.075-1.588-.1l-2.771-.119-1.935-.045-.731-.016-.013-.139.719-.092c.457-.064,1.116-.12,1.912-.213l1.292-.113,1.454-.1c.507-.029,1.036-.05,1.578-.065s1.089-.048,1.646-.057,1.123-.007,1.675-.032,1.109-.013,1.652.017a21.08,21.08,0,0,1,3.041.482Zm14.229-8.6a17.47,17.47,0,0,1,3.292.273,15.688,15.688,0,0,1,2.5.592c.31.1.563.2.733.272l.261.109.036.178-.868.084-.974.092c-.375.025-.787.085-1.253.094-.458.039-.956.053-1.476.084s-1.067.05-1.633.057-1.157-.017-1.748-.026-1.205-.014-1.8,0c-1.2.021-2.361.093-3.42.189-1.063.128-2,.165-2.811.244s-1.466.173-1.93.243l-.729.106-.061-.158.681-.23c.429-.155,1.061-.333,1.827-.543l1.249-.305c.443-.113.937-.223,1.439-.34,1.015-.221,2.126-.428,3.282-.585l1.711-.253a14.717,14.717,0,0,1,1.7-.171Zm13.916-10.692a14.976,14.976,0,0,1,1.72-.4,18.786,18.786,0,0,1,3.484-.142,19.174,19.174,0,0,1,2.745.3c.344.059.634.14.826.189l.3.08.087.192-.863.227-.971.249c-.373.087-.8.194-1.269.281-.458.112-.97.2-1.5.306s-1.087.206-1.671.29-1.206.133-1.827.194c-.638.039-1.26.113-1.878.187-1.234.152-2.415.355-3.491.572s-2.093.393-2.931.577-1.515.36-1.987.488l-.548.143-.2.046-.108-.179s.242-.115.658-.328,1.03-.492,1.786-.818l1.243-.495c.438-.183.947-.311,1.43-.507,1-.351,2.092-.7,3.242-.994.561-.168,1.161-.291,1.719-.459Zm11.579-13.079c.528-.26,1.1-.485,1.621-.747a14.475,14.475,0,0,1,1.63-.686,20.925,20.925,0,0,1,6.153-.9c.347,0,.645.03.842.046l.3.029.127.18-.781.387-.884.428c-.343.155-.73.344-1.172.512-.424.194-.9.373-1.4.576s-1.018.4-1.581.583-1.167.337-1.77.5c-.625.147-1.23.324-1.832.5-1.2.356-2.345.75-3.39,1.134s-2.042.715-2.856,1.026-1.471.586-1.928.782-.73.292-.73.292l-.158-.177s.229-.146.6-.428.943-.654,1.641-1.1l1.155-.693c.4-.254.895-.46,1.344-.732.933-.507,1.964-1.031,3.055-1.517Zm10.425-15.816c.472-.342.973-.667,1.433-1.011a14.662,14.662,0,0,1,1.448-.95,18.119,18.119,0,0,1,3.126-1.29,16.6,16.6,0,0,1,2.566-.622c.327-.058.614-.077.8-.094l.291-.022.148.155-.678.506-.771.563c-.3.206-.624.462-1.019.7-.369.262-.792.518-1.226.8s-.9.565-1.4.84-1.053.53-1.6.8-1.121.53-1.665.807c-1.089.557-2.127,1.141-3.072,1.7s-1.855,1.056-2.594,1.5-1.337.827-1.752,1.1-.662.413-.662.413l-.189-.151s.192-.188.515-.528.813-.8,1.418-1.363l1.01-.879c.356-.316.786-.61,1.177-.953.822-.658,1.733-1.348,2.7-2.013Zm7.658-17.189c.4-.41.821-.807,1.2-1.215a14.356,14.356,0,0,1,1.224-1.154,17.773,17.773,0,0,1,2.715-1.743,15.475,15.475,0,0,1,2.263-1,7.451,7.451,0,0,1,.716-.213l.262-.065.154.128-.549.6-.627.665c-.248.247-.515.544-.841.837-.3.312-.656.627-1.02.968s-.76.689-1.187,1.035-.9.681-1.378,1.026-.968.694-1.438,1.052c-.941.717-1.838,1.451-2.655,2.146s-1.6,1.333-2.242,1.89-1.158,1.026-1.517,1.358l-.572.514-.2-.116.417-.6c.252-.39.668-.919,1.169-1.564l.839-1.024c.3-.367.659-.725.985-1.123.689-.776,1.459-1.6,2.276-2.4Zm11.595-23.634c-.13.2-.28.452-.47.734s-.4.6-.644.931c-.228.346-.5.7-.777,1.086s-.587.778-.924,1.177-.711.794-1.107,1.2-.781.816-1.162,1.233c-.759.836-1.481,1.685-2.14,2.485l-1.833,2.18c-.521.64-.943,1.179-1.235,1.559s-.474.589-.474.589l-.194-.083s.126-.234.325-.651.514-1,.9-1.708l.656-1.128c.224-.4.527-.806.782-1.244.542-.862,1.146-1.777,1.792-2.681.309-.458.644-.908.955-1.36a14.988,14.988,0,0,1,.959-1.3,17.307,17.307,0,0,1,2.182-2.083,15.162,15.162,0,0,1,1.858-1.284,6.15,6.15,0,0,1,.59-.3l.217-.1.146.1Z" fill="#1f1f1f"/>
    <path id="Path_9826" data-name="Path 9826" d="M1556.657,487.4v-.017a7.1,7.1,0,0,1,.1-1.12q.055-.349.144-.686a7.037,7.037,0,0,1,.364-1.054c.019-.042.041-.082.06-.124l-.3-.053c-2.53-1.854-4.638-4.091-7.287-5.907a16.7,16.7,0,0,0-2.141-1.18c-.862-.443-1.843-.893-2.724-1.335l-1.262-.623-1.029-.53-.959-.5a16.808,16.808,0,0,0,2.8,6.782,7.35,7.35,0,0,0,.977,1.056l-.111-.025a25.784,25.784,0,0,1-4.119-4.068c-1.988-2.408-3.675-5.067-5.512-7.613-.48-.713-1.309-1.552-2.166-2.568-.431-.5-.9-.987-1.344-1.525l-.667-.786-.326-.391-.161-.193-.08-.1-.02-.024-.01-.012-.005-.006c-.056-.03.478.253.25.131l0,0-.049-.056-2.765-3.075a9.353,9.353,0,0,1-.8-.937l-.228-.323s-.1.414-.227,1.135a18.17,18.17,0,0,0-.242,3.011,37.625,37.625,0,0,0,.124,4.149c.065.745.157,1.507.282,2.271q.05.284.1.574l.027.143.007.036c-.205-.108-.057-.027-.1-.05v0l0,.009,0,.017.013.069.055.276q.113.552.262,1.1a9.514,9.514,0,0,0,1.782,3.5l-.25-.117c-.134-.061-.266-.125-.4-.187a21.069,21.069,0,0,1-2.838-5.685c-.318-.817-.626-1.648-.931-2.491l-.459-1.273c-.127-.423-.228-.842-.341-1.261l-.656-2.486-.339-1.213c-.115-.4-.233-.792-.369-1.217a22.024,22.024,0,0,0-1.5-3.28c-.66-1.221-1.328-2.62-2-3.825-.34-.6-.639-1.2-.91-1.749l-.732-1.447-.7-1.3a41.27,41.27,0,0,0-1.754,4.432,31.323,31.323,0,0,0-1.8,9.7,11.508,11.508,0,0,0,.481,3.377,9.691,9.691,0,0,0,.439,1.112c-.206-.146-.408-.3-.613-.443a26,26,0,0,1-1.429-7c-.136-1.867-.185-3.744-.239-5.59-.028-1.877-.05-3.733-.241-5.452a16.621,16.621,0,0,0-.8-3.47c-.1-.322-.217-.642-.332-.967l-.324-1.006c-.22-.67-.467-1.315-.7-1.937-.493-1.216-.877-2.394-1.22-3.187l-.551-1.3a49.494,49.494,0,0,0-5.036,8.745q-.276.626-.535,1.277t-.476,1.3c-.3.88-.568,1.781-.785,2.69a12.478,12.478,0,0,0-.343,3.621,11.124,11.124,0,0,0,.231,1.539c-.187-.183-.37-.37-.556-.554a28.916,28.916,0,0,1,.174-7.776c.28-1.933.622-3.831.93-5.68a39.884,39.884,0,0,0,.68-5.363,12.329,12.329,0,0,0-.393-3.4c-.295-1.258-.64-2.641-1.039-3.857-.209-.6-.39-1.2-.559-1.74s-.334-1.025-.474-1.432l-.47-1.316s-.362.359-.948.995-1.4,1.557-2.317,2.7a39.214,39.214,0,0,0-5.505,8.9,13.107,13.107,0,0,0-.97,3.532,11.323,11.323,0,0,0-.032,1.9c-.165-.22-.327-.441-.49-.662a31.943,31.943,0,0,1,1.467-7.942l1.677-5.38a33.7,33.7,0,0,0,1.244-5.091,11.725,11.725,0,0,0-.1-3.372c-.1-.634-.193-1.316-.307-1.989s-.26-1.336-.4-1.973c-.3-1.267-.532-2.472-.768-3.315l-.38-1.381s-.379.3-.992.823-1.475,1.3-2.453,2.267a38.512,38.512,0,0,0-6.23,7.817,13.057,13.057,0,0,0-1.365,3.294,11.225,11.225,0,0,0-.3,2.152c-.137-.256-.275-.512-.41-.767a18.724,18.724,0,0,1,.55-2.587c.246-.886.531-1.763.842-2.629s.646-1.722,1.017-2.582c.736-1.716,1.472-3.373,2.138-5.008a27.1,27.1,0,0,0,1.591-4.821c.4-1.723.031-4.775-.372-7.426-.06-.328-.118-.65-.175-.963l-.152-.914c-.1-.584-.2-1.112-.291-1.556-.177-.889-.321-1.443-.321-1.443s-.351.233-.938.666-1.408,1.067-2.364,1.879a36.437,36.437,0,0,0-6.275,6.762,12.7,12.7,0,0,0-1.559,3.025,12.261,12.261,0,0,0-.534,2.414c-.111-.294-.217-.585-.325-.877a35.366,35.366,0,0,1,2.964-7.586c.794-1.578,1.6-3.114,2.272-4.629a22.63,22.63,0,0,0,1.647-4.561,12.755,12.755,0,0,0,.176-3.348c-.1-1.316-.2-2.792-.414-4.147s-.4-2.621-.574-3.541-.3-1.5-.3-1.5a30.215,30.215,0,0,0-2.837,2.11c-.826.683-1.773,1.524-2.76,2.51a31.348,31.348,0,0,0-2.88,3.359,12.079,12.079,0,0,0-2.229,5.4l-.236-.946a23.4,23.4,0,0,1,.964-2.876c.646-1.56,1.381-3.049,2.1-4.5.759-1.461,1.482-2.882,2.088-4.308a20.959,20.959,0,0,0,1.4-4.355,15.869,15.869,0,0,0,.069-3.346c-.1-1.344-.293-2.836-.511-4.236s-.486-2.7-.655-3.653l-.342-1.558s-.208.157-.562.462-.854.757-1.453,1.352a32.66,32.66,0,0,0-4.321,5.227,11.084,11.084,0,0,0-.587,1,30.424,30.424,0,0,0-.058-8.721,42.187,42.187,0,0,0-1.319-5.387c-.521-1.776-1.049-3.489-1.507-4.986-.867-3-1.35-5.123-1.35-5.123s-.449,2.115-1.239,5.177c-.36,1.531-.8,3.3-1.182,5.157a34.506,34.506,0,0,0-.7,5.653,23.04,23.04,0,0,0,.543,5.507,30.138,30.138,0,0,0,.953,3.382c-.255-.31-.518-.612-.8-.9a50.286,50.286,0,0,0-5.232-4.626c-.683-.535-1.248-.945-1.644-1.22s-.627-.416-.627-.416l-.1,1.755c-.046,1.073-.011,2.54.051,4.114.039.786.068,1.6.155,2.4s.2,1.591.324,2.335a14.719,14.719,0,0,0,.968,3.6,19.855,19.855,0,0,0,2.681,4.18,49.082,49.082,0,0,0,3.461,3.665c1.244,1.178,2.51,2.34,3.71,3.56.725.737,1.44,1.5,2.115,2.289q.1.485.2.981a15.268,15.268,0,0,0-4.317-4.183,44.976,44.976,0,0,0-3.995-2.238c-1.268-.643-2.453-1.184-3.471-1.617-2.036-.868-3.424-1.3-3.424-1.3s.093.689.267,1.772.436,2.56.838,4.129c.735,3.144,2.024,6.636,3.181,8.166a23.219,23.219,0,0,0,3.806,3.8c1.431,1.129,2.982,2.146,4.521,3.143a72.863,72.863,0,0,1,7.027,4.779c.09.272.173.538.266.811l.023.067a14.285,14.285,0,0,0-1.993-1.626,14.549,14.549,0,0,0-3.068-1.638,63.537,63.537,0,0,0-9.158-2.7c-1.271-.276-2.334-.473-3.082-.6s-1.183-.179-1.183-.179.215.684.6,1.748c.194.532.429,1.16.7,1.847l.423,1.069.5,1.124c.351.76.729,1.541,1.119,2.305s.791,1.513,1.227,2.2a16.3,16.3,0,0,0,2.483,3.228,25.219,25.219,0,0,0,4.763,3.205c1.716.906,3.552,1.672,5.35,2.418a76.865,76.865,0,0,1,7.837,3.459c.079.156.159.311.237.467l.17.336a14.679,14.679,0,0,0-2.03-1.106,15.445,15.445,0,0,0-3.483-1.126,73.275,73.275,0,0,0-10.314-1.2c-1.432-.071-2.637-.094-3.485-.1s-1.332.012-1.332.012a61.633,61.633,0,0,0,3.342,5.477,41.093,41.093,0,0,0,3.243,4.152,16.477,16.477,0,0,0,3.153,2.832,27.976,27.976,0,0,0,5.525,2.4c1.944.61,3.979,1.056,5.945,1.493a83,83,0,0,1,8.29,2c.164.231.332.46.5.69a14.024,14.024,0,0,0-1.933-.622,15.935,15.935,0,0,0-3.732-.516,82.125,82.125,0,0,0-10.889.6c-1.514.178-2.789.365-3.685.509s-1.406.243-1.406.243.112.153.338.413l.944,1.093c.4.456.875.991,1.4,1.572s1.11,1.209,1.76,1.828,1.327,1.249,2.012,1.858c.343.3.688.6,1.031.891s.717.548,1.069.806a17.133,17.133,0,0,0,3.785,2.22,30.631,30.631,0,0,0,6.109,1.346c2.1.234,4.221.316,6.269.4a70.4,70.4,0,0,1,8.254.551c.195.184.388.37.582.555a13.938,13.938,0,0,0-1.687-.237,15.76,15.76,0,0,0-3.747.1,80.241,80.241,0,0,0-10.77,2.467c-2.993.885-5.032,1.655-5.032,1.655s.633.473,1.646,1.195c.5.364,1.117.775,1.788,1.224l1.052.693c.373.229.768.454,1.166.683.8.455,1.625.922,2.462,1.353l1.248.631c.424.192.842.378,1.255.549a20.452,20.452,0,0,0,4.27,1.364,37.714,37.714,0,0,0,6.257.228c2.068-.1,4.116-.336,6.069-.523l2.9-.284c.955-.085,1.891-.148,2.8-.17.63-.007,1.258-.006,1.881.01l.137.1.525.338c-.44-.029-.888-.043-1.348-.033a13.751,13.751,0,0,0-3.478.49,61.831,61.831,0,0,0-9.637,3.661c-1.333.627-2.447,1.191-3.229,1.6s-1.226.668-1.226.668,2.915,1.266,6.389,2.382c.871.276,1.784.534,2.682.784s1.782.492,2.65.656a25.433,25.433,0,0,0,4.337.595c.491.007,1.013,0,1.531-.023s1.025-.049,1.528-.088c1.007-.077,1.989-.187,2.947-.315.477-.066.957-.127,1.415-.209l1.318-.3c.875-.2,1.739-.392,2.6-.568l1.284-.248.638-.111.318-.052.02,0,.01,0h.005c-.016-.009.153.079.084.041l.042-.007.083-.013.166-.027c.882-.142,1.746-.257,2.6-.337.512-.045,1.027-.094,1.54-.13l.706.306a14.889,14.889,0,0,0-4.171.738q-.573.194-1.141.411l-.283.109-.071.028-.018.007-.009,0,0,0c-.047-.024.1.056-.107-.053l-.034.013-.135.055-.537.227c-.71.309-1.4.645-2.062.994a37.681,37.681,0,0,0-3.554,2.145c-1.032.691-1.84,1.354-2.493,1.753-.628.421-.981.681-.981.681l.541.14a11.475,11.475,0,0,0,1.318.246l4.083.656.073.011h0c-.225-.12.311.164.258.135l.011,0,.021,0,.043.007.172.029.347.057.7.113,1.39.229c.918.159,1.85.24,2.713.334.434.043.854.082,1.257.11l1.159.044a17.323,17.323,0,0,0,1.884-.03,51.172,51.172,0,0,0,10.382-2.44c2.005-.62,3.947-1.215,5.94-1.635l.055.012a8.871,8.871,0,0,0-1.428.562,24.2,24.2,0,0,0-4.407,2.892,21.288,21.288,0,0,0-1.777,1.6l1.27.1,1.349.1,1.611.072a32.471,32.471,0,0,0,6.014-.159c.092-.018.181-.04.272-.06a58.182,58.182,0,0,0-6.18,3.108,65.189,65.189,0,0,0-7.332,5.021c-.935.788-1.8,1.487-2.478,2.081l-1.628,1.466c-.47.413.4,1.246,1.747,1.968a10.351,10.351,0,0,0,4.634,1.28,1.918,1.918,0,0,0,1.086-.387,7.116,7.116,0,0,0,1.206-1.194c.482-.519,1.017-1.169,1.645-1.922l1.044-1.159.579-.636.643-.638a33.086,33.086,0,0,1,7.3-5.536l1.229-.677,1.317-.636.682-.321.709-.3c.479-.2.964-.4,1.467-.6.664-.249,1.358-.486,2.067-.717a7.054,7.054,0,0,1-.739-3.07A.509.509,0,0,1,1556.657,487.4Zm-11.335-8.651.089-.095.439.238.486.277c.181.113.4.228.614.369l.722.438c.257.154.52.328.788.518s.532.41.807.626.566.419.858.621c.589.4,1.2.765,1.773,1.106s1.125.641,1.6.894.879.449,1.162.589.444.222.444.222l-.044.122-.479-.128c-.306-.076-.735-.212-1.255-.375l-.83-.281c-.3-.1-.6-.225-.916-.345-.634-.245-1.29-.553-1.941-.874-.327-.16-.655-.315-.973-.48a8.738,8.738,0,0,1-.914-.524,7.475,7.475,0,0,1-1.407-1.27,6.441,6.441,0,0,1-.8-1.145A3.4,3.4,0,0,1,1545.323,478.754Zm-15.26-9.193.385.595c.12.188.269.415.448.662l.6.839.721.99.829,1.083.876,1.2c.3.409.64.79.981,1.172s.7.755,1.059,1.1.733.67,1.1.982c.726.627,1.443,1.157,2.067,1.607s1.168.788,1.552,1.023l.6.372-.056.127-.648-.274c-.416-.165-.994-.439-1.677-.8l-1.09-.593c-.389-.2-.767-.486-1.172-.742s-.806-.553-1.211-.854-.8-.64-1.187-.977-.777-.67-1.14-1.031a12.581,12.581,0,0,1-1.024-1.1,10.716,10.716,0,0,1-1.395-2.412c-.162-.391-.3-.761-.4-1.1a7.964,7.964,0,0,1-.217-.927,6.094,6.094,0,0,1-.087-.631l-.02-.228Zm-13.226-9.2c.02-.307.063-.568.09-.741l.045-.267.147-.1.24.724.277.82c.1.323.237.668.374,1.046.155.368.3.783.475,1.211s.348.889.524,1.375.34,1.011.523,1.534a14.9,14.9,0,0,0,.608,1.507,27.49,27.49,0,0,0,1.472,2.759,20.543,20.543,0,0,0,1.591,2.254c.5.63.94,1.139,1.25,1.49l.484.555-.1.137-.562-.448c-.363-.276-.855-.711-1.447-1.241l-.933-.884c-.331-.314-.61-.7-.932-1.069a28.786,28.786,0,0,1-1.816-2.487c-.295-.424-.563-.9-.827-1.365a11.167,11.167,0,0,1-1.483-6.816Zm-11.921-9.19a13.346,13.346,0,0,1,.55-2.546c.095-.318.205-.586.274-.762l.111-.273.182-.092.088.762.1.868c.024.346.11.692.155,1.105.073.4.123.846.2,1.311s.142.966.2,1.5.092,1.11.148,1.685.157,1.126.263,1.684a29.523,29.523,0,0,0,.81,3.187c.33.973.69,1.848,1.008,2.6s.626,1.351.842,1.773.341.663.341.663l-.144.152s-.169-.194-.454-.547-.675-.871-1.127-1.51l-.7-1.056a12.15,12.15,0,0,1-.7-1.245,28.808,28.808,0,0,1-1.24-2.923c-.191-.509-.376-1.014-.526-1.544a11.936,11.936,0,0,1-.369-1.593,13.687,13.687,0,0,1-.016-3.2Zm-10.388-12.843a14.049,14.049,0,0,1,.959-2.414c.144-.3.3-.541.393-.7l.154-.25.2-.067-.009.746c0,.236-.007.523-.012.852-.021.336,0,.693-.009,1.1.015.4,0,.839,0,1.3s-.005.962-.037,1.495-.1,1.105-.143,1.685-.046,1.139-.044,1.71a33.063,33.063,0,0,0,.2,3.306c.139,1.026.313,1.971.477,2.783s.341,1.47.468,1.935.2.726.2.726l-.189.145s-.137-.216-.35-.617c-.228-.388-.5-.983-.826-1.7l-.489-1.171a12.6,12.6,0,0,1-.455-1.36,30.694,30.694,0,0,1-.689-3.108c-.1-.535-.191-1.065-.247-1.613a11.571,11.571,0,0,1-.092-1.632,13.718,13.718,0,0,1,.525-3.154Zm-9.861-9.482a11.97,11.97,0,0,1,.107-1.607,13.169,13.169,0,0,1,2.083-5.2c.172-.266.346-.481.458-.624l.176-.219.207-.031-.085.731-.1.833c-.056.326-.074.683-.128,1.076-.027.389-.091.819-.138,1.274s-.115.94-.2,1.452-.219,1.061-.336,1.619-.191,1.107-.263,1.665c-.133,1.11-.2,2.218-.232,3.258-.013,1.031.025,1.981.065,2.8s.116,1.5.169,1.974.08.751.08.751l-.214.114s-.094-.24-.245-.666-.344-1.046-.559-1.8l-.308-1.228a12.978,12.978,0,0,1-.248-1.408c-.126-1-.224-2.067-.258-3.15-.031-.535-.039-1.076-.027-1.62Zm-7.624-13.959q.036-.8.128-1.6a12.148,12.148,0,0,1,.249-1.564,14.012,14.012,0,0,1,1.08-2.811,12.471,12.471,0,0,1,1.285-1.983,7.115,7.115,0,0,1,.47-.544l.18-.189.2,0-.127.71-.151.808c-.076.314-.11.66-.192,1.041-.053.38-.146.795-.229,1.236s-.186.91-.313,1.4-.3,1.01-.457,1.54-.279,1.058-.4,1.594c-.232,1.07-.411,2.148-.549,3.163s-.188,1.947-.244,2.76-.062,1.486-.068,1.961l-.016.75-.219.076-.151-.694c-.109-.436-.205-1.081-.323-1.854-.048-.388-.1-.809-.155-1.253a13.688,13.688,0,0,1-.08-1.422c-.013-1,.009-2.065.083-3.134Zm-6.1-13.458c.065-.985.161-2.035.3-3.081.058-.522.134-1.043.208-1.556a13.189,13.189,0,0,1,.317-1.512,14.385,14.385,0,0,1,1.106-2.634,10.545,10.545,0,0,1,1.2-1.786,5.858,5.858,0,0,1,.434-.475l.165-.163.173.031-.136.69-.158.783c-.068.3-.112.639-.2,1.007-.064.371-.162.77-.256,1.2s-.209.877-.348,1.347-.327.961-.485,1.458-.31,1.007-.452,1.52c-.278,1.026-.513,2.064-.712,3.045-.167.973-.315,1.891-.429,2.683s-.18,1.453-.226,1.92-.074.733-.074.733l-.208.041s-.038-.254-.083-.7c-.062-.446-.094-1.095-.137-1.873-.011-.39-.023-.812-.036-1.258s.009-.918.03-1.41Zm-4.4-14.609c.012-.388.026-.807.04-1.251s.065-.911.094-1.393c.083-.965.228-2,.384-3.018l.23-1.522a11.49,11.49,0,0,1,.291-1.463,16.263,16.263,0,0,1,.955-2.493,10.805,10.805,0,0,1,.961-1.638,4.2,4.2,0,0,1,.341-.423l.129-.144.138.052-.1.675-.114.763c-.055.291-.092.627-.167.985-.054.364-.137.751-.22,1.167s-.184.852-.307,1.3-.264.913-.411,1.39-.288.965-.423,1.457c-.259.984-.519,1.99-.7,2.932l-.5,2.6c-.13.767-.244,1.416-.3,1.87l-.1.713-.181.012s-.014-.256-.039-.705-.015-1.1-.009-1.872Zm-5.229-22.392c.132-1.243.268-1.938.268-1.938s.208.678.468,1.893a40.9,40.9,0,0,1,.834,5.114c.464,4.293.529,11.114.77,13.577-.237-1.208-.863-3.458-1.345-5.977a60.281,60.281,0,0,1-1.087-7.46,34.792,34.792,0,0,1,.091-5.209Zm1.518,25.71-.368-.642-.926-1.7-1.355-2.383c-.515-.868-1.009-1.8-1.56-2.714-.273-.457-.548-.915-.834-1.355s-.565-.876-.8-1.309-.436-.858-.618-1.267-.359-.792-.5-1.158c-.161-.354-.28-.7-.406-.989l-.3-.774c-.169-.431-.248-.688-.248-.688l.125-.085.155.123c.1.081.253.2.427.368a12.527,12.527,0,0,1,1.339,1.478,18.491,18.491,0,0,1,1.537,2.31c.228.447.462.914.676,1.4l.665,1.456c.458.971.861,1.952,1.268,2.867.192.462.4.9.562,1.325l.461,1.2c.272.747.5,1.363.634,1.8l.238.683Zm4.068,17.877s-.182-.211-.474-.589-.714-.918-1.235-1.559l-1.832-2.18c-.66-.8-1.382-1.65-2.141-2.485-.381-.417-.761-.835-1.162-1.233s-.768-.8-1.107-1.2-.645-.794-.924-1.177-.55-.74-.777-1.086c-.249-.331-.446-.657-.644-.931s-.34-.53-.47-.734l-.4-.655.146-.1.217.1a6.181,6.181,0,0,1,.59.3,15.149,15.149,0,0,1,1.858,1.284,17.324,17.324,0,0,1,2.182,2.083,14.967,14.967,0,0,1,.959,1.3c.311.451.646.9.955,1.36.646.9,1.249,1.82,1.792,2.681.254.438.558.839.782,1.244l.656,1.128c.388.706.712,1.287.9,1.708s.325.651.325.651Zm6.318,17.291-.572-.514c-.359-.332-.877-.8-1.517-1.358s-1.436-1.188-2.242-1.89-1.714-1.43-2.655-2.146c-.47-.358-.951-.714-1.438-1.052s-.951-.679-1.378-1.026-.824-.695-1.187-1.035-.719-.656-1.02-.968c-.326-.293-.593-.59-.841-.837l-.627-.665-.549-.6.154-.128.262.065q.363.089.716.213a15.476,15.476,0,0,1,2.263,1,17.772,17.772,0,0,1,2.715,1.743,14.319,14.319,0,0,1,1.224,1.154c.384.408.809.8,1.2,1.215.817.8,1.587,1.623,2.277,2.4.326.4.689.756.985,1.123l.839,1.024c.5.644.917,1.173,1.169,1.564l.417.6Zm8.8,16.249s-.246-.145-.662-.413-1.014-.651-1.752-1.1-1.655-.939-2.594-1.5-1.983-1.14-3.072-1.7c-.545-.278-1.1-.551-1.665-.807s-1.1-.518-1.6-.8-.971-.559-1.4-.84-.858-.538-1.226-.8c-.394-.238-.715-.494-1.019-.7l-.77-.563-.678-.506.148-.155.291.022c.188.016.474.035.8.094a16.61,16.61,0,0,1,2.566.622,18.111,18.111,0,0,1,3.126,1.29,14.676,14.676,0,0,1,1.448.95c.46.344.96.669,1.433,1.011.968.665,1.879,1.356,2.7,2.014.391.344.821.637,1.177.953l1.01.879c.605.558,1.105,1.016,1.418,1.363s.515.528.515.528Zm11.433,14.575s-.275-.1-.73-.292-1.115-.47-1.928-.782-1.8-.645-2.856-1.026-2.189-.778-3.39-1.134c-.6-.176-1.207-.353-1.832-.5-.6-.166-1.209-.319-1.77-.5s-1.088-.382-1.581-.583-.972-.382-1.4-.576c-.442-.169-.829-.358-1.172-.512l-.884-.428-.781-.387.127-.18.3-.029c.2-.016.5-.047.842-.046a20.927,20.927,0,0,1,6.153.9,14.48,14.48,0,0,1,1.63.686c.521.262,1.093.487,1.621.747,1.09.486,2.121,1.01,3.055,1.518.449.272.94.477,1.344.732l1.155.693c.7.446,1.271.811,1.64,1.1s.6.428.6.428Zm13.91,12.212-.2-.046-.548-.143c-.472-.128-1.152-.3-1.987-.488s-1.85-.362-2.931-.577-2.257-.419-3.491-.572c-.618-.074-1.24-.148-1.878-.187-.621-.061-1.242-.11-1.827-.194s-1.144-.182-1.671-.29-1.039-.194-1.5-.306c-.468-.087-.9-.194-1.269-.281l-.971-.249-.863-.227.087-.192.3-.08c.192-.049.482-.13.826-.189a19.169,19.169,0,0,1,2.745-.3,18.784,18.784,0,0,1,3.484.142,14.981,14.981,0,0,1,1.72.4c.558.168,1.159.292,1.72.459,1.15.3,2.247.643,3.242.994.484.2.992.324,1.43.507l1.243.495c.756.326,1.375.6,1.786.818s.658.328.658.328Zm15.769,9.5-.729-.106c-.464-.07-1.127-.161-1.93-.243s-1.748-.116-2.811-.244c-1.059-.1-2.218-.168-3.42-.189-.6-.009-1.22-.007-1.8,0s-1.182.034-1.748.026-1.114-.026-1.633-.057-1.018-.046-1.476-.084c-.467-.009-.879-.069-1.253-.094l-.974-.092-.868-.084.036-.178.261-.109c.169-.069.423-.177.733-.272a15.688,15.688,0,0,1,2.5-.592,17.47,17.47,0,0,1,3.292-.273,14.7,14.7,0,0,1,1.7.171l1.71.253c1.156.157,2.267.364,3.282.585.5.118,1,.227,1.439.34l1.249.305c.766.21,1.4.388,1.827.543l.681.23Zm17.361,6.324-.731.016-1.935.045-2.771.119c-.511.025-1.042.056-1.588.1s-1.1.07-1.657.123-1.125.112-1.687.191c-.558.063-1.112.138-1.651.183s-1.068.088-1.567.1-.974.034-1.417.033c-.442.021-.853.012-1.219.027s-.689.006-.952,0l-.845-.012-.011-.153.22-.11c.143-.069.357-.178.626-.279a17.976,17.976,0,0,1,2.228-.7,21.088,21.088,0,0,1,3.042-.482c.543-.03,1.1-.041,1.652-.017s1.12.011,1.675.032,1.109.028,1.646.057,1.07.035,1.578.065l1.454.1,1.292.113c.8.093,1.455.149,1.912.213l.719.092Zm6.455,3.819c-.334.067-.66.122-.973.16s-.606.086-.884.1c-.273.032-.533.043-.759.066l-.6.038-.537.022-.045-.124a3.645,3.645,0,0,1,.447-.353,7.2,7.2,0,0,1,1.27-.688,10.026,10.026,0,0,1,1.867-.582,9.38,9.38,0,0,1,1.074-.119l1.1-.077c.736-.061,1.469-.092,2.154-.1.343,0,.673-.012.986,0l.881.029c.546.026,1,.045,1.311.079l.494.044v.129l-.495.056c-.316.034-.764.083-1.3.154s-1.161.165-1.829.273-1.381.234-2.092.382c-.355.079-.71.158-1.056.257s-.689.187-1.024.256Z" fill="#1f1f1f"/>
    <path id="Path_9827" data-name="Path 9827" d="M1563.753,482.657a4.731,4.731,0,1,0,4.731,4.731A4.731,4.731,0,0,0,1563.753,482.657Z" fill="#1f1f1f"/>
  </g>
</svg>
