<svg xmlns="http://www.w3.org/2000/svg" width="269.436" height="21.034" viewBox="0 0 269.436 21.034">
  <g id="Group_2228" data-name="Group 2228" transform="translate(-14.519 -796.413)">
    <path id="Path_10291" data-name="Path 10291" d="M229.942,811.131c.817,0,1.539-1.524,1.985-2.737h15.043l-7.748,9.053c11.43-4.211,29.87-8.188,44.732-10.518-14.862-2.328-33.3-6.3-44.732-10.516l7.75,9.052H231.927c-.446-1.213-1.168-2.737-1.985-2.737C227.084,802.729,227.107,811.131,229.942,811.131Z" fill="#1f1f1f"/>
    <path id="Path_10292" data-name="Path 10292" d="M14.519,815.974c9.613-.1,24.958-.626,30.985-1.1a75.472,75.472,0,0,1,14.421-6.478H63.1c.446,1.213,1.168,2.737,1.985,2.737,2.858,0,2.836-8.4,0-8.4-.817,0-1.539,1.524-1.985,2.737H59.924a75.463,75.463,0,0,1-14.42-6.478c-6.027-.475-21.372-1-30.985-1.1,5.611,2.2,14.283,6.676,16.618,9.044C28.8,809.3,20.129,813.77,14.519,815.974Z" fill="#1f1f1f"/>
    <path id="Path_10293" data-name="Path 10293" d="M70.305,811.131c.817,0,1.539-1.524,1.985-2.737h73.231a3.822,3.822,0,0,0,7.062,0h12.5a6.267,6.267,0,0,0,12.19,0h12.5a3.822,3.822,0,0,0,7.062,0h25.89c.446,1.213,1.168,2.737,1.985,2.737,2.858,0,2.836-8.4,0-8.4-.817,0-1.539,1.524-1.985,2.737h-25.89a3.822,3.822,0,0,0-7.062,0H177.278a6.267,6.267,0,0,0-12.19,0H152.583a3.822,3.822,0,0,0-7.062,0H72.29c-.446-1.213-1.168-2.737-1.985-2.737C67.447,802.729,67.47,811.131,70.305,811.131Z" fill="#1f1f1f"/>
  </g>
</svg>
