<svg xmlns="http://www.w3.org/2000/svg" xmlns:xlink="http://www.w3.org/1999/xlink" width="24.411" height="24.24" viewBox="0 0 24.411 24.24">
  <defs>
    <linearGradient id="linear-gradient" x1="145.328" y1="21.202" x2="144.864" y2="20.761" gradientUnits="objectBoundingBox">
      <stop offset="0" stop-color="#ffdc00"/>
      <stop offset="0.967" stop-color="#ee7b09"/>
      <stop offset="1" stop-color="#ea5c10"/>
    </linearGradient>
  </defs>
  <g id="Group_229" data-name="Group 229" transform="translate(-93.772 -405.289)">
    <path id="Path_729" data-name="Path 729" d="M117.683,425.043a4.092,4.092,0,0,1-4.191,3.985H98.463a4.092,4.092,0,0,1-4.191-3.985V409.774a4.091,4.091,0,0,1,4.191-3.983h15.029a4.091,4.091,0,0,1,4.191,3.983Z" fill="#1d1d1b" stroke="#1d1d1b" stroke-miterlimit="10" stroke-width="1"/>
    <path id="Path_730" data-name="Path 730" d="M100.031,417.5a4.656,4.656,0,1,0,9.309.213,4.524,4.524,0,0,0-.2-1.438c-.656-3.755-5.712-8.493-5.712-8.493,1.167,2.541-1.28,5.612-1.28,5.612a6.925,6.925,0,0,0-1.776,2.494,4.476,4.476,0,0,0-.339,1.612Zm2.655-4.116c-.018.017-.035.032-.051.049a.88.88,0,0,0-.079-.106l.13.057Zm4.572-.149c-.022.025-.035.053-.053.077a.405.405,0,0,1-.037-.034l.09-.043Z" fill="url(#linear-gradient)"/>
    <g id="Group_189" data-name="Group 189">
      <g id="Group_187" data-name="Group 187">
        <path id="Path_731" data-name="Path 731" d="M110.557,420.6c-1.395.627-1.479-.127-1.479-.127-.025-.3.553-.574.553-.574a1.452,1.452,0,0,1,0-1.576c-.054-.514.247-.548.247-.548,1.349.8,1.058,1.8,1.058,1.8l.13-.112.055,0-.54,1.2Z" fill="#1d1d1b"/>
        <path id="Path_732" data-name="Path 732" d="M109.637,420.913c-.564,0-.619-.427-.62-.433-.023-.276.365-.516.525-.6a1.52,1.52,0,0,1,.029-1.566c-.048-.548.3-.6.3-.6l.021,0,.017.009a1.86,1.86,0,0,1,1.109,1.7l.027-.023.167.009-.635,1.411-.058-.138A2.323,2.323,0,0,1,109.637,420.913Zm.234-3.07c-.054.017-.215.1-.176.476l0,.023-.011.017a1.374,1.374,0,0,0,0,1.506l.042.059-.065.032c-.15.072-.536.306-.52.514,0,.012.045.321.5.321a2.336,2.336,0,0,0,.9-.244l.048-.023.414-.918-.169.144.056-.195c.01-.038.255-.953-1.01-1.713Z" fill="#fff"/>
      </g>
      <g id="Group_188" data-name="Group 188">
        <path id="Path_733" data-name="Path 733" d="M110.65,420.645c.454,1.459,1.075,1.022,1.075,1.022.238-.178.062-.8.062-.8a1.449,1.449,0,0,0,1.178-1.045c.42-.3.247-.548.247-.548-1.492-.484-2.046.4-2.046.4l0-.172-.04-.038-.54,1.2Z" fill="#1d1d1b"/>
        <path id="Path_734" data-name="Path 734" d="M111.506,421.79c-.251,0-.608-.187-.895-1.068l-.14.047.635-1.409.118.119v.03a1.564,1.564,0,0,1,1.152-.436,2.78,2.78,0,0,1,.855.147l.02.006.012.017s.2.293-.245.62a1.522,1.522,0,0,1-1.154,1.06c.041.179.119.627-.1.793A.46.46,0,0,1,111.506,421.79Zm-.812-1.217.016.053c.282.905.621,1.041.8,1.041a.349.349,0,0,0,.186-.051c.166-.123.083-.567.038-.728l-.02-.07.073-.008a1.378,1.378,0,0,0,1.125-1l0-.021.019-.013c.306-.219.263-.395.24-.448a2.661,2.661,0,0,0-.795-.134,1.341,1.341,0,0,0-1.156.514l-.11.17,0-.223Z" fill="#fff"/>
      </g>
    </g>
    <g id="Group_192" data-name="Group 192">
      <g id="Group_190" data-name="Group 190">
        <path id="Path_735" data-name="Path 735" d="M111.214,417.238c-.965.435-1.024-.089-1.024-.089-.017-.2.384-.4.384-.4a1,1,0,0,1,0-1.092c-.037-.355.17-.378.17-.378.934.552.732,1.243.732,1.243l.091-.077.038,0-.374.831Z" fill="#1d1d1b"/>
        <path id="Path_736" data-name="Path 736" d="M110.578,417.47a.4.4,0,0,1-.448-.314c-.016-.195.233-.359.356-.427a1.076,1.076,0,0,1,.027-1.083c-.031-.391.224-.425.227-.425l.02,0,.019.011a1.306,1.306,0,0,1,.781,1.156l.14.01-.468,1.039-.05-.117a1.593,1.593,0,0,1-.6.153Zm.161-2.122c-.038.015-.126.076-.1.308l0,.021-.011.017a.933.933,0,0,0,0,1.022l.042.059-.066.032c-.14.068-.359.219-.349.336,0,.019.036.206.326.2a1.567,1.567,0,0,0,.611-.166l.028-.011.249-.554-.1.085.054-.193c.007-.026.171-.644-.683-1.16Z" fill="#fff"/>
      </g>
      <g id="Group_191" data-name="Group 191">
        <path id="Path_737" data-name="Path 737" d="M111.28,417.266c.314,1.011.743.708.743.708.165-.123.044-.55.044-.55a1.006,1.006,0,0,0,.816-.726c.291-.208.171-.38.171-.38-1.033-.333-1.417.276-1.417.276l0-.117-.027-.028-.374.831Z" fill="#1d1d1b"/>
        <path id="Path_738" data-name="Path 738" d="M111.872,418.077c-.179,0-.431-.129-.632-.733l-.12.041.468-1.041.1.1a1.115,1.115,0,0,1,.787-.285,1.966,1.966,0,0,1,.6.1l.02.006.012.017s.146.215-.169.452a1.073,1.073,0,0,1-.792.739c.029.138.073.433-.082.548a.364.364,0,0,1-.189.053Zm-.544-.858.01.03c.191.614.416.707.534.707a.229.229,0,0,0,.117-.032c.1-.078.047-.382.019-.484l-.02-.068.073-.008a.946.946,0,0,0,.763-.68l.006-.021.018-.013c.191-.136.178-.24.163-.28a1.84,1.84,0,0,0-.536-.089.92.92,0,0,0-.786.346l-.109.168,0-.13Z" fill="#fff"/>
      </g>
    </g>
    <g id="Group_195" data-name="Group 195">
      <g id="Group_193" data-name="Group 193">
        <path id="Path_739" data-name="Path 739" d="M111.361,414.772c-.674.257-.731-.091-.731-.091-.019-.134.261-.247.261-.247a.616.616,0,0,1-.031-.72c-.037-.236.11-.244.11-.244.682.391.559.841.559.841l.063-.049.026,0-.241.537Z" fill="#1d1d1b"/>
        <path id="Path_740" data-name="Path 740" d="M111.378,414.946l-.047-.1a1.218,1.218,0,0,1-.392.079c-.261,0-.355-.153-.37-.234-.018-.132.132-.234.229-.285a.677.677,0,0,1,0-.707.29.29,0,0,1,.047-.225.174.174,0,0,1,.123-.068h.019l.015.008c.5.291.592.614.6.786l.109.012Zm-.418-1.411a.085.085,0,0,0-.025.019.2.2,0,0,0-.017.151l0,.025-.014.019a.551.551,0,0,0,.029.648l.049.062-.075.03c-.1.042-.232.129-.223.185,0,.011.033.132.249.132a1.179,1.179,0,0,0,.4-.091l.012-.006.128-.283-.057.043.048-.176c0-.015.094-.4-.51-.76Z" fill="#fff"/>
      </g>
      <g id="Group_194" data-name="Group 194">
        <path id="Path_741" data-name="Path 741" d="M111.409,414.793c.254.677.551.489.551.489.113-.077.015-.361.015-.361a.613.613,0,0,0,.558-.453c.2-.129.11-.244.11-.244-.745-.251-1,.138-1,.138l-.007-.077-.02-.019-.241.537Z" fill="#1d1d1b"/>
        <path id="Path_742" data-name="Path 742" d="M111.862,415.367c-.132,0-.322-.089-.49-.5l-.1.03.331-.735.081.078a.773.773,0,0,1,.5-.161,1.5,1.5,0,0,1,.481.087l.017.006.012.015a.185.185,0,0,1,.03.138.3.3,0,0,1-.137.183.681.681,0,0,1-.531.467c.025.106.05.285-.059.359a.272.272,0,0,1-.133.034Zm-.4-.607,0,.011c.232.612.462.457.462.457.047-.03.024-.189-.01-.289l-.026-.076.08,0a.55.55,0,0,0,.5-.406l.007-.025.02-.013c.075-.047.1-.087.1-.112a.051.051,0,0,0,0-.032,1.368,1.368,0,0,0-.419-.072.57.57,0,0,0-.487.195l-.1.146,0-.068Z" fill="#fff"/>
      </g>
    </g>
    <g id="Group_198" data-name="Group 198">
      <g id="Group_196" data-name="Group 196">
        <path id="Path_743" data-name="Path 743" d="M111,412.9c-.317.382-.449.172-.449.172-.05-.083.079-.246.079-.246a.468.468,0,0,1-.221-.459c-.088-.142-.006-.195-.006-.195.506.042.562.372.562.372l.024-.049.015-.008.013.427Z" fill="#1d1d1b"/>
        <path id="Path_744" data-name="Path 744" d="M110.668,413.19a.2.2,0,0,1-.167-.087c-.049-.081,0-.191.044-.261a.527.527,0,0,1-.2-.463c-.079-.144-.02-.232.025-.261l.018-.009h.02a.66.66,0,0,1,.578.319l.076-.03.02.652-.077-.064a.5.5,0,0,1-.34.2Zm-.237-.954a.147.147,0,0,0,.032.1l.01.017,0,.023a.4.4,0,0,0,.19.4l.064.034-.045.059c-.052.066-.089.151-.075.174a.074.074,0,0,0,.062.028c.043,0,.136-.028.287-.206v0l0-.132-.012.029-.034-.2c0-.011-.057-.274-.477-.319Z" fill="#fff"/>
      </g>
      <g id="Group_197" data-name="Group 197">
        <path id="Path_745" data-name="Path 745" d="M111.035,412.9c.339.361.458.146.458.146.044-.087-.094-.242-.094-.242a.467.467,0,0,0,.2-.47c.08-.147-.007-.195-.007-.195-.5.07-.54.4-.54.4l-.025-.049-.017-.006.013.427Z" fill="#1d1d1b"/>
        <path id="Path_746" data-name="Path 746" d="M111.37,413.17a.523.523,0,0,1-.336-.185l-.073.07-.019-.652.078.026a.655.655,0,0,1,.559-.353l.02,0,.019.01c.046.026.111.111.039.259a.531.531,0,0,1-.171.474c.046.064.1.172.061.257A.2.2,0,0,1,111.37,413.17Zm-.292-.314h0c.156.166.248.191.291.191a.084.084,0,0,0,.07-.032c.012-.023-.03-.106-.087-.17l-.048-.055.062-.04a.4.4,0,0,0,.167-.406l0-.021.011-.019a.14.14,0,0,0,.025-.1c-.416.072-.455.336-.456.348l-.025.2-.01-.019Z" fill="#fff"/>
      </g>
    </g>
    <g id="Group_201" data-name="Group 201">
      <g id="Group_199" data-name="Group 199">
        <path id="Path_747" data-name="Path 747" d="M110.418,411.654c-.226.272-.321.123-.321.123-.034-.059.057-.174.057-.174a.342.342,0,0,1-.159-.331c-.062-.1,0-.138,0-.138.362.028.4.266.4.266l.017-.036.01-.006.009.306Z" fill="#1d1d1b"/>
        <path id="Path_748" data-name="Path 748" d="M110.18,411.879a.158.158,0,0,1-.135-.07.2.2,0,0,1,.025-.191.4.4,0,0,1-.136-.331c-.059-.111-.011-.183.025-.2l.017-.013.02,0a.493.493,0,0,1,.421.223l.052-.021.014.083.013.44-.072-.058a.359.359,0,0,1-.244.138Zm-.029-.132a.046.046,0,0,0,.029.01c.022,0,.083-.013.188-.136v-.009l-.034-.2c0-.006-.038-.174-.306-.212a.162.162,0,0,0,.02.043l.011.019,0,.021a.274.274,0,0,0,.128.267l.063.034-.044.057a.228.228,0,0,0-.052.11Z" fill="#fff"/>
      </g>
      <g id="Group_200" data-name="Group 200">
        <path id="Path_749" data-name="Path 749" d="M110.442,411.654c.242.259.328.1.328.1.032-.06-.067-.172-.067-.172a.336.336,0,0,0,.139-.336c.057-.106,0-.14,0-.14-.361.051-.387.289-.387.289l-.017-.034-.013-.006.009.306Z" fill="#1d1d1b"/>
        <path id="Path_750" data-name="Path 750" d="M110.682,411.866a.366.366,0,0,1-.24-.127l-.068.068-.015-.531.064.021a.5.5,0,0,1,.407-.248l.019,0,.019.01a.15.15,0,0,1,.037.2.4.4,0,0,1-.116.338.2.2,0,0,1,.036.189.166.166,0,0,1-.143.079Zm-.191-.249c.108.115.169.126.191.126a.043.043,0,0,0,.035-.015.272.272,0,0,0-.059-.1l-.049-.053.062-.04a.272.272,0,0,0,.111-.272l0-.021.01-.021a.116.116,0,0,0,.016-.042c-.263.053-.29.221-.291.229l-.023.172Z" fill="#fff"/>
      </g>
    </g>
    <g id="Group_204" data-name="Group 204">
      <g id="Group_202" data-name="Group 202">
        <path id="Path_751" data-name="Path 751" d="M109.587,410.77c-.159.189-.224.087-.224.087-.025-.043.039-.123.039-.123a.237.237,0,0,1-.111-.231c-.043-.07,0-.1,0-.1.252.019.28.185.28.185l.011-.025.008,0,.007.212Z" fill="#1d1d1b"/>
        <path id="Path_752" data-name="Path 752" d="M109.42,410.946a.129.129,0,0,1-.109-.057.144.144,0,0,1,.008-.14.3.3,0,0,1-.09-.231.119.119,0,0,1,.026-.163l.018-.011h.021a.371.371,0,0,1,.3.153l.045-.015.011.079.01.353-.069-.061a.254.254,0,0,1-.17.091Zm-.074-.469.008.013,0,.023a.176.176,0,0,0,.079.166l.064.034-.045.057a.27.27,0,0,0-.03.053c.008,0,.044-.006.112-.083l-.023-.136s-.021-.1-.162-.127Z" fill="#fff"/>
      </g>
      <g id="Group_203" data-name="Group 203">
        <path id="Path_753" data-name="Path 753" d="M109.6,410.77c.17.18.23.072.23.072.022-.042-.048-.119-.048-.119a.238.238,0,0,0,.1-.236c.039-.074,0-.1,0-.1-.25.034-.269.2-.269.2l-.012-.025-.008,0,.007.212Z" fill="#1d1d1b"/>
        <path id="Path_754" data-name="Path 754" d="M109.771,410.934a.257.257,0,0,1-.166-.078l-.059.061-.011-.138-.01-.3.057.019a.369.369,0,0,1,.289-.168l.021,0,.017.01a.118.118,0,0,1,.037.163.3.3,0,0,1-.077.236.14.14,0,0,1,.018.136A.133.133,0,0,1,109.771,410.934Zm-.116-.2c.07.072.106.079.116.079l.01,0c-.007.006-.025-.028-.042-.047l-.048-.055.062-.038a.17.17,0,0,0,.07-.172l0-.021.007-.013c-.138.04-.153.132-.154.136l-.017.106Z" fill="#fff"/>
      </g>
    </g>
    <g id="Group_207" data-name="Group 207">
      <g id="Group_205" data-name="Group 205">
        <path id="Path_755" data-name="Path 755" d="M108.935,410.35c-.118.142-.167.064-.167.064-.02-.032.029-.092.029-.092a.178.178,0,0,1-.084-.172c-.032-.053,0-.074,0-.074.189.017.21.142.21.142l.009-.021.007,0,0,.161Z" fill="#1d1d1b"/>
        <path id="Path_756" data-name="Path 756" d="M108.81,410.5a.112.112,0,0,1-.095-.049.118.118,0,0,1,0-.109.238.238,0,0,1-.065-.174.1.1,0,0,1,.028-.138l.017-.009h.021a.3.3,0,0,1,.227.11l.045-.021.009.089.008.293-.066-.053a.194.194,0,0,1-.13.062Zm-.036-.346v.008a.119.119,0,0,0,.052.111l.047.025-.011-.066c0-.006-.014-.053-.088-.078Z" fill="#fff"/>
      </g>
      <g id="Group_206" data-name="Group 206">
        <path id="Path_757" data-name="Path 757" d="M108.947,410.349c.127.136.171.055.171.055.016-.032-.035-.089-.035-.089a.176.176,0,0,0,.074-.176c.03-.057,0-.075,0-.075-.188.028-.2.153-.2.153l-.01-.019-.006,0,0,.161Z" fill="#1d1d1b"/>
        <path id="Path_758" data-name="Path 758" d="M108.891,410.488l-.018-.384.053.021a.3.3,0,0,1,.22-.123l.021,0,.018.009a.1.1,0,0,1,.035.136.24.24,0,0,1-.054.178.12.12,0,0,1,.008.108c-.026.049-.126.085-.225,0Z" fill="#fff"/>
      </g>
    </g>
    <g id="Group_210" data-name="Group 210">
      <g id="Group_208" data-name="Group 208">
        <path id="Path_759" data-name="Path 759" d="M108.419,410.146c-.082.1-.116.045-.116.045-.012-.023.02-.064.02-.064a.125.125,0,0,1-.058-.119c-.023-.036,0-.049,0-.049.13.009.146.1.146.1l.006-.013,0,0,0,.11Z" fill="#1d1d1b"/>
        <path id="Path_760" data-name="Path 760" d="M108.488,410.3l-.069-.07-.026.015,0,.01,0-.006a.109.109,0,0,1-.136-.028.093.093,0,0,1-.006-.081.187.187,0,0,1-.043-.121.09.09,0,0,1-.007-.062.084.084,0,0,1,.037-.053l.016-.009h.021a.232.232,0,0,1,.161.072l.043-.021.01.2Z" fill="#fff"/>
      </g>
      <g id="Group_209" data-name="Group 209">
        <path id="Path_761" data-name="Path 761" d="M108.427,410.146c.088.093.118.038.118.038.011-.023-.025-.062-.025-.062a.124.124,0,0,0,.051-.123c.021-.038,0-.049,0-.049-.129.019-.139.1-.139.1l-.007-.013h0l0,.11Z" fill="#1d1d1b"/>
        <path id="Path_762" data-name="Path 762" d="M108.37,410.284l-.014-.327.047.013a.237.237,0,0,1,.158-.081l.021,0,.018.01a.084.084,0,0,1,.039.049.1.1,0,0,1,0,.066.179.179,0,0,1-.034.121.1.1,0,0,1,0,.081.118.118,0,0,1-.172.017Z" fill="#fff"/>
      </g>
    </g>
    <g id="Group_213" data-name="Group 213">
      <g id="Group_211" data-name="Group 211">
        <path id="Path_763" data-name="Path 763" d="M108.009,410.02c-.072.085-.1.04-.1.04-.012-.019.017-.057.017-.057a.109.109,0,0,1-.049-.106c-.021-.03,0-.043,0-.043.114.009.128.085.128.085l.006-.011,0,0,0,.1Z" fill="#1d1d1b"/>
        <path id="Path_764" data-name="Path 764" d="M108.079,410.156l-.065-.055-.023.015-.01.023,0-.017a.1.1,0,0,1-.122-.03.09.09,0,0,1-.007-.076.167.167,0,0,1-.036-.1.088.088,0,0,1,.027-.109l.018-.011.021,0a.216.216,0,0,1,.141.059l.045-.023Z" fill="#fff"/>
      </g>
      <g id="Group_212" data-name="Group 212">
        <path id="Path_765" data-name="Path 765" d="M108.017,410.02c.077.081.1.032.1.032.01-.019-.023-.055-.023-.055a.107.107,0,0,0,.045-.108c.018-.032,0-.043,0-.043-.113.015-.123.092-.123.092l0-.011,0,0,0,.1Z" fill="#1d1d1b"/>
        <path id="Path_766" data-name="Path 766" d="M107.96,410.156l-.012-.321.048.019a.215.215,0,0,1,.138-.068l.021,0,.018.011a.086.086,0,0,1,.033.108.164.164,0,0,1-.029.108.079.079,0,0,1,0,.07.1.1,0,0,1-.115.043l0,.032-.02-.041a.055.055,0,0,1-.02-.011Z" fill="#fff"/>
      </g>
    </g>
    <g id="Group_216" data-name="Group 216">
      <g id="Group_214" data-name="Group 214">
        <path id="Path_767" data-name="Path 767" d="M107.579,409.852c-.053.064-.075.03-.075.03-.008-.015.014-.042.014-.042a.079.079,0,0,1-.037-.077c-.015-.025,0-.032,0-.032.084.008.093.062.093.062l0-.008,0,0,0,.072Z" fill="#1d1d1b"/>
        <path id="Path_768" data-name="Path 768" d="M107.648,410.008l-.072-.072-.026.061-.01-.047a.088.088,0,0,1-.088-.036.084.084,0,0,1-.009-.06.146.146,0,0,1-.025-.076.076.076,0,0,1,0-.053l.007-.025.044-.032.019,0a.179.179,0,0,1,.109.046l.041-.015Z" fill="#fff"/>
      </g>
      <g id="Group_215" data-name="Group 215">
        <path id="Path_769" data-name="Path 769" d="M107.584,409.852c.057.06.076.025.076.025.007-.015-.015-.04-.015-.04a.077.077,0,0,0,.032-.078c.013-.025,0-.034,0-.034-.083.011-.09.068-.09.068l0-.008,0,0,0,.072Z" fill="#1d1d1b"/>
        <path id="Path_770" data-name="Path 770" d="M107.529,410.024l-.013-.329.048.019a.174.174,0,0,1,.1-.049l.021,0,.018.01a.077.077,0,0,1,.033.094.15.15,0,0,1-.02.08.074.074,0,0,1-.007.058.077.077,0,0,1-.082.044l-.006.044-.029-.055h0Z" fill="#fff"/>
      </g>
    </g>
    <g id="Group_217" data-name="Group 217">
      <path id="Path_771" data-name="Path 771" d="M107.358,409.731a.042.042,0,0,1-.043.043.043.043,0,1,1,0-.085.042.042,0,0,1,.043.042Z" fill="#1d1d1b"/>
      <path id="Path_772" data-name="Path 772" d="M107.315,409.835a.1.1,0,0,1-.1-.1.1.1,0,1,1,.1.1Z" fill="#fff"/>
    </g>
    <g id="Group_218" data-name="Group 218">
      <path id="Path_773" data-name="Path 773" d="M108.314,410.135a.019.019,0,1,1-.038,0,.018.018,0,0,1,.02-.017.018.018,0,0,1,.018.017Z" fill="#1d1d1b"/>
      <path id="Path_774" data-name="Path 774" d="M108.3,410.216a.08.08,0,1,1,.057-.024.08.08,0,0,1-.057.024Z" fill="#fff"/>
    </g>
    <g id="Group_219" data-name="Group 219">
      <path id="Path_775" data-name="Path 775" d="M107.016,409.689a.043.043,0,1,1-.042-.04.043.043,0,0,1,.042.04Z" fill="#1d1d1b"/>
      <path id="Path_776" data-name="Path 776" d="M106.973,409.793a.1.1,0,1,1,.074-.03.1.1,0,0,1-.074.03Z" fill="#fff"/>
    </g>
    <g id="Group_220" data-name="Group 220">
      <path id="Path_777" data-name="Path 777" d="M106.682,409.648a.043.043,0,0,1-.043.042.042.042,0,0,1-.043-.042.044.044,0,0,1,.043-.043A.044.044,0,0,1,106.682,409.648Z" fill="#1d1d1b"/>
      <path id="Path_778" data-name="Path 778" d="M106.639,409.75a.1.1,0,1,1,.1-.1.1.1,0,0,1-.1.1Z" fill="#fff"/>
    </g>
    <g id="Group_221" data-name="Group 221">
      <path id="Path_779" data-name="Path 779" d="M106.227,409.6a.043.043,0,1,1-.043-.043.043.043,0,0,1,.043.043Z" fill="#1d1d1b"/>
      <path id="Path_780" data-name="Path 780" d="M106.185,409.708a.1.1,0,1,1,.073-.03A.1.1,0,0,1,106.185,409.708Z" fill="#fff"/>
    </g>
    <g id="Group_222" data-name="Group 222">
      <path id="Path_781" data-name="Path 781" d="M105.875,409.6a.042.042,0,1,1-.042-.042A.042.042,0,0,1,105.875,409.6Z" fill="#1d1d1b"/>
      <path id="Path_782" data-name="Path 782" d="M105.832,409.708a.1.1,0,1,1,.074-.03.1.1,0,0,1-.074.03Z" fill="#fff"/>
    </g>
    <g id="Group_223" data-name="Group 223">
      <path id="Path_783" data-name="Path 783" d="M105.489,409.6a.043.043,0,1,1-.043-.042.043.043,0,0,1,.043.042Z" fill="#1d1d1b"/>
      <path id="Path_784" data-name="Path 784" d="M105.447,409.708a.1.1,0,1,1,.073-.03A.1.1,0,0,1,105.447,409.708Z" fill="#fff"/>
    </g>
    <path id="Path_785" data-name="Path 785" d="M103.431,417.6c.162,2.126,1.625,3.783,3.27,3.7s2.848-1.872,2.686-4a4.89,4.89,0,0,0-.242-1.2c-.711-3.123-4.311-6.85-4.311-6.85.945,2.079-.375,4.786-.375,4.786a6.049,6.049,0,0,0-.939,2.188,4.845,4.845,0,0,0-.089,1.372ZM104.8,414c-.009.013-.02.028-.029.043a.784.784,0,0,0-.058-.085s.033.014.087.041Zm2.905-.361c-.011.023-.017.047-.026.07l-.027-.028c.033-.027.054-.042.054-.042Z" fill="#fff" opacity="0.11"/>
    <g id="Group_226" data-name="Group 226">
      <g id="Group_224" data-name="Group 224">
        <path id="Path_786" data-name="Path 786" d="M103.868,423.235c-3.775.228-3.31-1.593-3.31-1.593.2-.707,1.784-.843,1.784-.843a3.592,3.592,0,0,1,1.389-3.643c.328-1.236,1.051-1.051,1.051-1.051,2.423,3.029.875,5.081.875,5.081l.4-.14.123.057-2.3,2.305Z" fill="#1d1d1b"/>
        <path id="Path_787" data-name="Path 787" d="M103.818,423.552l-.009-.253c-1.58.089-2.623-.174-3.086-.769a1.1,1.1,0,0,1-.224-.9c.188-.658,1.447-.843,1.766-.879a3.674,3.674,0,0,1,1.413-3.626c.267-.981.79-1.087,1-1.087a.355.355,0,0,1,.116.013l.019,0,.013.015c2.054,2.568,1.269,4.471.97,5.005l.258-.091.227.1Zm.108-.384,0,.1,2.144-2.145-.021-.009-.565.2.12-.163c.016-.021,1.483-2.046-.859-4.99-.108-.015-.677-.051-.959,1.011l-.006.023-.018.013a3.55,3.55,0,0,0-1.364,3.577l.017.072-.072.006c-.015,0-1.543.14-1.731.8a1.007,1.007,0,0,0,.2.8c.438.561,1.5.813,3.043.718Z" fill="#fff"/>
      </g>
      <g id="Group_225" data-name="Group 225">
        <path id="Path_788" data-name="Path 788" d="M104.049,423.415c-.23,3.777,1.593,3.308,1.593,3.308.707-.2.842-1.782.842-1.782a3.593,3.593,0,0,0,3.643-1.391c1.237-.327,1.052-1.051,1.052-1.051-3.029-2.424-5.082-.875-5.082-.875l.14-.4-.057-.123-2.3,2.305Z" fill="#1d1d1b"/>
        <path id="Path_789" data-name="Path 789" d="M105.457,426.8a1.154,1.154,0,0,1-.856-.382,4.053,4.053,0,0,1-.617-2.948l-.253-.008L106.2,421l.1.227-.09.253a3.313,3.313,0,0,1,1.632-.4,5.468,5.468,0,0,1,3.373,1.378l.015.013.006.019c0,.008.183.777-1.075,1.12a3.852,3.852,0,0,1-2.853,1.506,3.291,3.291,0,0,1-.772-.095c-.037.319-.221,1.578-.88,1.765a.716.716,0,0,1-.2.021Zm-1.44-3.45.1,0,0,.062a4.02,4.02,0,0,0,.582,2.919,1.034,1.034,0,0,0,.766.344.736.736,0,0,0,.168-.017c.658-.187.8-1.714.8-1.729l.006-.074.07.019a3.167,3.167,0,0,0,.811.108,3.752,3.752,0,0,0,2.768-1.472l.012-.019.022-.006c1.055-.28,1.028-.849,1.012-.958a5.329,5.329,0,0,0-3.278-1.336,3.035,3.035,0,0,0-1.711.476l-.161.121.2-.565-.01-.021Z" fill="#fff"/>
      </g>
    </g>
    <path id="Path_790" data-name="Path 790" d="M117.646,416.7c0,1.264-1.876,2.288-4.191,2.288H98.425c-2.315,0-4.192-1.024-4.192-2.288v-8.767c0-1.262,1.877-2.286,4.192-2.286h15.029c2.314,0,4.191,1.024,4.191,2.286Z" fill="#fff" opacity="0.11"/>
  </g>
</svg>
