<svg xmlns="http://www.w3.org/2000/svg" width="54.731" height="51.457" viewBox="0 0 54.731 51.457">
  <path id="Path_910" data-name="Path 910" d="M175.255,40.42C163.7,22.82,153.157,25.563,151.59,26.1a45.046,45.046,0,0,0-11.313,2.4c-7.961,2.839-12.991,7.642-14.545,13.89-.788,3.169-2.118,8.566-1.538,14.155l-.114.12.142.129a19.815,19.815,0,0,0,2.945,8.614c3.5,5.425,9.96,9.035,19.193,10.731a20.244,20.244,0,0,0,6.187.948c7.707,0,15.79-4.095,21.175-11.145C179.879,57.874,180.453,48.335,175.255,40.42Zm-3.223-.807a52.8,52.8,0,0,1-8.176,2.691c-1.527-4.941-4.762-9.78-9.7-14.466C157.392,27.615,164.231,28.746,172.033,39.612ZM151.779,28.64c5.072,4.611,8.386,9.341,9.913,14.138a56.267,56.267,0,0,1-11.647,1.046C150.843,36.47,151.578,30.309,151.779,28.64Zm-.932,17.387a58.267,58.267,0,0,0,11.415-1.118,19.737,19.737,0,0,1,.356,5.626,24.4,24.4,0,0,1-4.123,11.259,69.157,69.157,0,0,1-10.251.356c.419-5.032,1-10.8,1.566-16.145.347.006.685.021,1.036.021Zm-3.009-2.274a62.109,62.109,0,0,1-7.511-.838,35.437,35.437,0,0,1,8.988-12.172c-.341,2.873-.893,7.62-1.477,13.01Zm.424-15.025a37.627,37.627,0,0,0-10.147,13.76,56.577,56.577,0,0,1-9.062-2.674c3.9-7.511,13.817-10.18,19.208-11.087Zm-20.4,14.186c.093-.373.224-.718.342-1.072a58.413,58.413,0,0,0,9.162,2.731,26.934,26.934,0,0,0-1.2,6.377,28.879,28.879,0,0,0,1.044,9.582,32.209,32.209,0,0,1-10.926-4.911C125.92,50.737,127.1,46,127.866,42.914Zm1.149,21.3a16.975,16.975,0,0,1-2.3-5.606,37.278,37.278,0,0,0,11.3,4.479,39.28,39.28,0,0,0,5.667,10.224C136.713,71.555,131.784,68.5,129.015,64.211Zm16.433,7.744a38.28,38.28,0,0,1-4.82-8.341c1.619.285,3.368.506,5.247.653-.228,3-.382,5.651-.427,7.688Zm.6-9.941a52.229,52.229,0,0,1-6.341-.9,26.894,26.894,0,0,1-1.349-10.025A24.71,24.71,0,0,1,139.537,45a64.691,64.691,0,0,0,8.066.933c-.566,5.317-1.137,11.048-1.552,16.081Zm2.012,2.389c.867.036,1.742.067,2.66.067,1.9,0,3.929-.091,6.058-.27a47.745,47.745,0,0,1-9.156,8.823C147.624,70.979,147.792,67.95,148.064,64.4Zm23.911.2c-5.665,7.416-14.885,11.365-22.739,9.982A47.4,47.4,0,0,0,159.771,63.89a99.151,99.151,0,0,0,14.513-2.952,24.256,24.256,0,0,1-2.31,3.665Zm3.317-6.223a98.39,98.39,0,0,1-13.982,3.066,25.806,25.806,0,0,0,3.5-10.722,21.948,21.948,0,0,0-.4-6.3,54.971,54.971,0,0,0,8.9-2.974c.039.059.077.114.116.173a18.468,18.468,0,0,1,1.922,16.92Z" transform="translate(-124.052 -25.624)" fill="#94cbea"/>
</svg>
