<svg xmlns="http://www.w3.org/2000/svg" width="42.142" height="25.552" viewBox="0 0 42.142 25.552">
  <g id="Group_232" data-name="Group 232" transform="translate(-143.884 -406.339)">
    <path id="Path_801" data-name="Path 801" d="M167.436,411.469s.914-2.579,2.7-2.759a6.18,6.18,0,0,0,2.814-1.82,14.966,14.966,0,0,0,1.1,5.848,9.413,9.413,0,0,1,0,8.548s-1.655,3.972-7.447,4.911C166.609,426.2,175.434,422.391,167.436,411.469Z" fill="#d2dab6"/>
    <path id="Path_802" data-name="Path 802" d="M161.571,411.248s-.915-2.579-2.7-2.757a6.188,6.188,0,0,1-2.813-1.82,15.008,15.008,0,0,1-1.1,5.846,9.408,9.408,0,0,0,0,8.548s1.653,3.972,7.446,4.909C162.4,425.975,153.573,422.169,161.571,411.248Z" fill="#d2dab6"/>
    <path id="Path_803" data-name="Path 803" d="M164.513,406.339s3.583,6.305,4.853,8.935c0,0,4.137,9.984-4.853,10.867,0,0-9.545-1.7-4.364-12.288C160.149,413.854,163.686,409.428,164.513,406.339Z" fill="#7a942c"/>
    <path id="Path_804" data-name="Path 804" d="M165.837,426.362s5.461.219,9.818-5.627a5.7,5.7,0,0,1,3.752-2.426,4.138,4.138,0,0,0,3.419-2.428S180.839,431.326,165.837,426.362Z" fill="#7a942c"/>
    <path id="Path_805" data-name="Path 805" d="M163.355,426.362s-5.461.219-9.818-5.627a5.7,5.7,0,0,0-3.751-2.426,4.14,4.14,0,0,1-3.42-2.428S148.352,431.326,163.355,426.362Z" fill="#7a942c"/>
    <path id="Path_806" data-name="Path 806" d="M158.382,428.348a14.547,14.547,0,0,1,12.466,0s7.84,2.15,15.178,0c0,0-4.579,6.728-20.465,1.213a21.19,21.19,0,0,0-7.556,1.6,15.159,15.159,0,0,1-14.121-2.591S152.827,430.461,158.382,428.348Z" fill="#d2dab6"/>
  </g>
</svg>
