<svg xmlns="http://www.w3.org/2000/svg" xmlns:xlink="http://www.w3.org/1999/xlink" width="98.417" height="63.646" viewBox="0 0 98.417 63.646">
  <defs>
    <linearGradient id="linear-gradient" x1="0.559" y1="0.702" x2="0.4" y2="0.152" gradientUnits="objectBoundingBox">
      <stop offset="0" stop-color="#1072ba"/>
      <stop offset="1" stop-color="#55a4db"/>
    </linearGradient>
    <linearGradient id="linear-gradient-2" x1="0.5" y1="0.935" x2="0.5" y2="-0.113" gradientUnits="objectBoundingBox">
      <stop offset="0" stop-color="#f15c27"/>
      <stop offset="1" stop-color="#fde963"/>
    </linearGradient>
    <linearGradient id="linear-gradient-3" x1="0.5" y1="0.93" x2="0.5" y2="-0.198" xlink:href="#linear-gradient-2"/>
  </defs>
  <g id="Group_106" data-name="Group 106" transform="translate(-767.716 -1078.5)">
    <g id="Group_103" data-name="Group 103">
      <path id="Path_655" data-name="Path 655" d="M786.023,1133.193c1.287-5.034,7.587-8.557,14.078-7.834,4.414.487,6,2.255,6,2.255l7.122-27.854a8.563,8.563,0,0,1,7.7-5.974l26.951-1.251a27.784,27.784,0,0,0-14.472-11.188c-14.6-5.314-29.631,6.591-32.163,15.713-2.6-2.168-9.59-7-16.762-1.992s-5.182,13.771-4.926,14.623a18.006,18.006,0,0,0-10.96,16.859c0,12.323,12.108,15.6,16.127,15.6h6.312C787.193,1140.311,785.063,1136.947,786.023,1133.193Z" fill="#ededed"/>
      <g id="Group_102" data-name="Group 102">
        <path id="Path_656" data-name="Path 656" d="M852.278,1105.269,844.171,1137a9.513,9.513,0,0,1-3.674,5.146H845c5.975,0,19.689-2.83,21.051-17.379C867.3,1111.429,854.51,1106.063,852.278,1105.269Z" fill="#ededed"/>
        <path id="Path_657" data-name="Path 657" d="M820.733,1134.233c1.288-5.04,7.562-8.455,14.012-7.62,4.4.582,6.43,2.555,6.43,2.555l4.884-19.105c.612-2.393-2.194-2.2-2.194-2.2l-25.222,1.352s-2.924.264-3.5,2.5l-6.081,23.8a10.364,10.364,0,0,1-5.844,6.621H823.79C821.22,1140.106,819.948,1137.3,820.733,1134.233Z" fill="#ededed"/>
      </g>
    </g>
    <g id="Group_105" data-name="Group 105">
      <path id="Path_658" data-name="Path 658" d="M785.156,1131.661c1.287-5.034,7.587-8.554,14.078-7.833,4.414.486,6,2.254,6,2.254l7.123-27.854a8.558,8.558,0,0,1,7.7-5.971L847,1091a27.787,27.787,0,0,0-14.473-11.187c-14.6-5.313-29.631,6.591-32.162,15.716-2.6-2.168-9.59-7-16.762-2s-5.182,13.771-4.926,14.623a18.007,18.007,0,0,0-10.961,16.859c0,12.326,12.107,15.6,16.126,15.6h6.313C786.325,1138.778,784.2,1135.415,785.156,1131.661Z" fill="url(#linear-gradient)"/>
      <g id="Group_104" data-name="Group 104">
        <path id="Path_659" data-name="Path 659" d="M851.41,1103.738l-8.107,31.73a9.511,9.511,0,0,1-3.673,5.148h4.5c5.974,0,19.689-2.833,21.051-17.381C866.428,1109.9,853.643,1104.533,851.41,1103.738Z" fill="url(#linear-gradient-2)"/>
        <path id="Path_660" data-name="Path 660" d="M819.865,1132.7c1.289-5.038,7.563-8.456,14.013-7.621,4.4.583,6.43,2.555,6.43,2.555l4.884-19.1c.612-2.391-2.2-2.2-2.2-2.2l-25.222,1.351s-2.924.265-3.5,2.5l-6.081,23.8a10.367,10.367,0,0,1-5.844,6.624H822.92C820.352,1138.575,819.081,1135.768,819.865,1132.7Z" fill="url(#linear-gradient-3)"/>
      </g>
    </g>
  </g>
</svg>
