<svg xmlns="http://www.w3.org/2000/svg" width="107.995" height="115.792" viewBox="0 0 107.995 115.792">
  <g id="Group_2220" data-name="Group 2220" transform="translate(-1373.248 -1509.297)">
    <path id="Path_10224" data-name="Path 10224" d="M1446.9,1533.173a17.124,17.124,0,0,0-.958-4.428c-3.22-8.716-16-19.448-18.684-19.448s-15.464,10.732-18.684,19.448a17.122,17.122,0,0,0-.957,4.428,17.123,17.123,0,0,0-4.313-1.385c-9.158-1.569-24.845,4.136-26.184,6.457s1.563,18.758,7.5,25.9a17.116,17.116,0,0,0,3.356,3.043,17.131,17.131,0,0,0-3.356,3.043c-5.938,7.147-8.84,23.584-7.5,25.9s17.026,8.026,26.184,6.457a17.112,17.112,0,0,0,4.313-1.385,17.113,17.113,0,0,0,.958,4.428c3.22,8.716,16,19.448,18.684,19.448s15.464-10.732,18.684-19.448a17.119,17.119,0,0,0,.957-4.428,17.118,17.118,0,0,0,4.314,1.385c9.158,1.569,24.844-4.136,26.184-6.457s-1.562-18.758-7.5-25.9a17.117,17.117,0,0,0-3.356-3.043,17.118,17.118,0,0,0,3.356-3.043c5.938-7.147,8.841-23.584,7.5-25.9s-17.026-8.026-26.184-6.457A17.112,17.112,0,0,0,1446.9,1533.173Zm-27.291,20.771c-6.239-14.359,1.312-21.6,7.649-25.64,6.338,4.04,13.889,11.281,7.649,25.64,9.316-12.583,19.362-9.664,26.03-6.2-.33,7.509-2.825,17.669-18.381,19.445,15.555,1.776,18.051,11.936,18.381,19.445-6.668,3.469-16.714,6.387-26.03-6.2,6.239,14.359-1.312,21.6-7.649,25.64-6.338-4.04-13.889-11.281-7.649-25.64-9.316,12.583-19.362,9.664-26.03,6.2.33-7.509,2.825-17.669,18.381-19.445-15.555-1.776-18.051-11.936-18.381-19.445C1400.246,1544.279,1410.292,1541.361,1419.608,1553.944Z" fill="#1f1f1f"/>
    <path id="Path_10225" data-name="Path 10225" d="M1434.792,1554.142c-2.48-4.628-7.006-9.025-7.535-10.165-.528,1.14-5.055,5.537-7.535,10.165-5.249-.166-11.32,1.555-12.571,1.443.723,1.027,2.267,7.146,5.036,11.608-2.768,4.462-4.313,10.58-5.036,11.608,1.251-.112,7.322,1.609,12.571,1.443,2.48,4.629,7.006,9.026,7.535,10.165.528-1.14,5.055-5.537,7.535-10.165,5.249.166,11.32-1.555,12.571-1.443-.723-1.027-2.267-7.146-5.036-11.608,2.768-4.462,4.313-10.58,5.036-11.608C1446.112,1555.7,1440.041,1553.976,1434.792,1554.142Zm-12.034,5.258a18.148,18.148,0,0,1,4.5-6.883,18.141,18.141,0,0,1,4.5,6.883,18.146,18.146,0,0,1,8.21.455,18.143,18.143,0,0,1-3.711,7.338,18.144,18.144,0,0,1,3.711,7.338,18.145,18.145,0,0,1-8.21.455,18.141,18.141,0,0,1-4.5,6.883,18.142,18.142,0,0,1-4.5-6.883,18.142,18.142,0,0,1-8.21-.455,18.141,18.141,0,0,1,3.711-7.338,18.144,18.144,0,0,1-3.711-7.338,18.146,18.146,0,0,1,8.21-.455Z" fill="#1f1f1f"/>
    <path id="Path_10226" data-name="Path 10226" d="M1400.265,1520.44h0c6.083-2.689,6.765,7.472,5.964,10.331-2.877-.736-11.336-6.407-5.965-10.33Z" fill="#1f1f1f"/>
    <path id="Path_10227" data-name="Path 10227" d="M1481.243,1567.193h0c-.713,6.613-9.854,2.123-11.929,0,2.075-2.123,11.217-6.613,11.929,0Z" fill="#1f1f1f"/>
    <path id="Path_10228" data-name="Path 10228" d="M1400.265,1613.946h0c-5.371-3.924,3.088-9.6,5.965-10.331.8,2.859.119,13.02-5.964,10.331Z" fill="#1f1f1f"/>
    <path id="Path_10229" data-name="Path 10229" d="M1427.269,1565.8h0c-2.749-1.085-.561-14.125.4-17.074.821,2.991,2.4,16.119-.4,17.074Z" fill="#1f1f1f"/>
    <path id="Path_10230" data-name="Path 10230" d="M1426.042,1567.881h0c.435,2.923-11.952,7.548-14.987,8.192,2.18-2.207,12.761-10.136,14.986-8.192Z" fill="#1f1f1f"/>
    <path id="Path_10231" data-name="Path 10231" d="M1428.461,1567.9h0c2.314-1.838,12.513,6.577,14.587,8.883-3-.785-15.159-5.983-14.588-8.882Z" fill="#1f1f1f"/>
    <path id="Path_10232" data-name="Path 10232" d="M1428.461,1566.485h0c2.314,1.838,12.513-6.577,14.587-8.883-3,.785-15.159,5.983-14.588,8.882Z" fill="#1f1f1f"/>
    <path id="Path_10233" data-name="Path 10233" d="M1426.042,1566.5h0c.435-2.923-11.952-7.548-14.987-8.192,2.18,2.207,12.761,10.136,14.986,8.192Z" fill="#1f1f1f"/>
    <path id="Path_10234" data-name="Path 10234" d="M1427.269,1568.589h0c-2.749,1.085-.561,14.125.4,17.074.821-2.991,2.4-16.119-.4-17.074Z" fill="#1f1f1f"/>
    <path id="Path_10235" data-name="Path 10235" d="M1448.326,1530.7c-.769-2.942-.056-12.879,5.936-10.282C1459.507,1524.311,1451.259,1529.9,1448.326,1530.7Z" fill="#1f1f1f"/>
    <path id="Path_10236" data-name="Path 10236" d="M1448.326,1603.684c2.933.8,11.181,6.391,5.936,10.282C1448.27,1616.563,1447.556,1606.626,1448.326,1603.684Z" fill="#1f1f1f"/>
    <path id="Path_10237" data-name="Path 10237" d="M1385.121,1567.193c-2.163,2.137-11.125,6.488-11.873,0C1374,1560.7,1382.958,1565.055,1385.121,1567.193Z" fill="#1f1f1f"/>
  </g>
</svg>
