<svg xmlns="http://www.w3.org/2000/svg" width="67.552" height="110.208" viewBox="0 0 67.552 110.208">
  <g id="Group_164" data-name="Group 164" transform="translate(-1361.17 -927.565)">
    <path id="Path_798" data-name="Path 798" d="M1369.9,961.746c-10.034-20.67,1.347-29.69,5.744-34.181-13.778,22.675,4.245,26.55,7.23,42.232s-12.858,26.255-7.23,45.62c-9.164-4.282-14.072-8.595-14.464-28.5S1369.6,961.868,1369.9,961.746Zm21.064,32.563a62.663,62.663,0,0,0,14.766,23.048c-.705.062-9.875,1.25-15.168.37-.883,4.941-3.578,20.046-3.578,20.046-2.048-13.669-5.124-34.954,3.98-43.463Z" fill="#1e8d5c" fill-rule="evenodd"/>
    <g id="Group_163" data-name="Group 163">
      <path id="Path_799" data-name="Path 799" d="M1428.714,986.919c.365,22.949-11.406,27.282-13.557,28.175l3.125,12.009c-14.571-19.578-16.241-36.348-15.771-52.7-16.57,4.875-3.947-2.443,2.266-3.883q6.8-2.079,14.916,13.626c.64-13.8-6.3-23.055-20.511-27.945C1420,956.16,1428.349,963.97,1428.714,986.919Z" fill="#abc638" fill-rule="evenodd"/>
      <path id="Path_800" data-name="Path 800" d="M1402.105,944.84c0,5.688-3.633,10.3-8.114,10.3s-8.113-4.611-8.113-10.3,3.633-10.3,8.113-10.3S1402.105,939.15,1402.105,944.84Z" fill="#abc638" fill-rule="evenodd"/>
    </g>
  </g>
</svg>
