<svg xmlns="http://www.w3.org/2000/svg" width="70.542" height="75.001" viewBox="0 0 70.542 75.001">
  <path id="Path_263" data-name="Path 263" d="M430.477,337.558c1.424-8.512-2.829-17.144-8.871-23.307-5.55-5.662-12.9-9.834-20.8-10.447s-16.285,2.742-20.658,9.356c-6.042,9.141-3.419,21.649-7.909,31.644-1.727,3.844-4.434,7.145-6.852,10.595s-4.621,7.234-5.1,11.421,1.168,8.856,4.87,10.868c3.56,1.935,8.1.979,11.521-1.2s6.012-5.392,8.781-8.349,5.938-5.8,9.857-6.827c3.8-1,7.816-.173,11.75-.156C417.942,361.2,428.8,347.563,430.477,337.558Z" transform="translate(-360.211 -303.733)" fill="#bc4e4f"/>
</svg>
