<svg xmlns="http://www.w3.org/2000/svg" width="27.823" height="25.974" viewBox="0 0 27.823 25.974">
  <g id="Group_335" data-name="Group 335" transform="translate(-454.122 -186.98)">
    <path id="Path_1185" data-name="Path 1185" d="M463.408,200.4a7.678,7.678,0,0,1,5.772-7.428,7.4,7.4,0,0,0-1.891-.242,7.673,7.673,0,0,0,0,15.346,7.33,7.33,0,0,0,1.891-.249,7.666,7.666,0,0,1-5.773-7.426Z" fill="#1d70b7"/>
    <path id="Path_1186" data-name="Path 1186" d="M467.11,212.954A12.987,12.987,0,1,1,480.1,199.967a12.987,12.987,0,0,1-12.987,12.987Zm0-23.535a10.548,10.548,0,1,0,10.547,10.548,10.548,10.548,0,0,0-10.547-10.548Z" fill="#575756"/>
    <path id="Path_1187" data-name="Path 1187" d="M478.815,202.636l-1.247-1.67-2.018.668,1.227-1.724-1.229-1.644,1.973.579,1.215-1.726-.007,2.081,2.044.643-1.986.668Z" fill="#575756"/>
    <path id="Path_1188" data-name="Path 1188" d="M478.677,197.116l1.249,1.669,2.019-.67-1.229,1.723,1.229,1.648-1.971-.58-1.215,1.725.007-2.08-2.044-.644,1.984-.666Z" fill="#575756"/>
  </g>
</svg>
