<svg xmlns="http://www.w3.org/2000/svg" width="69.054" height="47.15" viewBox="0 0 69.054 47.15">
  <g id="Group_122" data-name="Group 122" transform="translate(-83.52 -827.521)">
    <path id="Path_698" data-name="Path 698" d="M141.307,829.313v4.719a6.065,6.065,0,0,1,.148,11.644v23.682c0,1.434,1.3,5.3,5.373,5.3a5.374,5.374,0,0,0,5.743-5.3V847.642a19.95,19.95,0,0,0-11.264-18.329Z" fill="#54a7dc"/>
    <path id="Path_699" data-name="Path 699" d="M91.085,849.61a5.081,5.081,0,0,1,3.478-4.82v-15.4a20.176,20.176,0,0,0-11.042,18.183v21.789a5.525,5.525,0,0,0,11.042,0v-14.93a5.078,5.078,0,0,1-3.478-4.817Z" fill="#ef3e3e"/>
    <path id="Path_700" data-name="Path 700" d="M120.251,853.8a5.081,5.081,0,0,1,3.24-4.732l-.072-18.943a19.32,19.32,0,0,0-5.447,4.638,15.177,15.177,0,0,0-5.374-4.711v7.968a6.067,6.067,0,0,1,0,11.616v19.726a5.487,5.487,0,0,0,10.969,0l-.072-10.829a5.078,5.078,0,0,1-3.243-4.731Z" fill="#f9d72e"/>
    <path id="Path_701" data-name="Path 701" d="M133.611,839.873a6.068,6.068,0,0,1,4.238-5.786v-5.953c-3.179-.845-8.071-.822-11.042.442l.007,20.407a5.206,5.206,0,0,1,3.6,4.813,5.081,5.081,0,0,1-3.46,4.811v.885a5.626,5.626,0,0,0,5.669,5.447A5.457,5.457,0,0,0,138,859.493l-.009-13.833a6.192,6.192,0,0,1-4.376-5.787Z" fill="#97ca3d"/>
    <path id="Path_702" data-name="Path 702" d="M104.774,843.823a6.07,6.07,0,0,1,4.291-5.8v-9.593c-2.88-.834-7.584-1.4-11.043-.295v16.751a5.075,5.075,0,0,1,0,9.45v5.158a5.522,5.522,0,1,0,11.043,0v-9.867a6.071,6.071,0,0,1-4.291-5.8Z" fill="#f8991d"/>
  </g>
</svg>
