<svg xmlns="http://www.w3.org/2000/svg" width="52.706" height="44.018" viewBox="0 0 52.706 44.018">
  <g id="Group_209" data-name="Group 209" transform="translate(-977.638 -109.164)">
    <path id="Path_945" data-name="Path 945" d="M993.044,146.141s-12-2.4-14.776-12.732,3.566-22.962,19.771-24.11,25.677,5.127,31.131,14.906-9.373,19.169-17.889,21.936l-1.914,7.041-2.583-5.858S1002.268,147.68,993.044,146.141Z" fill="#65a8df"/>
    <path id="Path_946" data-name="Path 946" d="M1006.749,119.383s0-.766-1.354-.766-3.067,0-3.083.766c0,0-.15,6.456,0,7.887l0,.048c-1.464.025-3.76.008-5.552-.012-.032-1.323-.052-2.34-.037-2.753.064-1.787.447-5.983-.064-6.087s-4.262-.534-4.276,0c0,0-.255,8.54,0,12.707s-.319,8.316.383,8.507a11.752,11.752,0,0,0,3.957,0c.312-.156.219-5.086.114-9.314,1.789.008,4.086-.02,5.606-.043a21.4,21.4,0,0,1-.2,3.8,24.249,24.249,0,0,0,0,4.851s-.008.511,1.045.511h2.482s.752.447.6-1.34a100.987,100.987,0,0,1,.02-11.425C1006.674,124.809,1006.749,119.383,1006.749,119.383Z" fill="#fff"/>
    <path id="Path_947" data-name="Path 947" d="M1012.1,123.979s-.856.064-.927.766a55.026,55.026,0,0,0,0,7.085,49.86,49.86,0,0,1-.113,6.7s-.357.511.52.574,2.874.511,2.945-.638.285-11.425,0-12.51.571-1.979-.927-1.979Z" fill="#fff"/>
    <path id="Path_948" data-name="Path 948" d="M1011.933,119.29s-1.115,1.029-.557,1.985,1.592,1.617,2.707.735a1.566,1.566,0,0,0-.557-2.72A2.987,2.987,0,0,0,1011.933,119.29Z" fill="#fff"/>
  </g>
</svg>
