<svg xmlns="http://www.w3.org/2000/svg" xmlns:xlink="http://www.w3.org/1999/xlink" width="76.923" height="78.11" viewBox="0 0 76.923 78.11">
  <defs>
    <linearGradient id="linear-gradient" x1="-12.424" y1="12.963" x2="-12.615" y2="12.131" gradientUnits="objectBoundingBox">
      <stop offset="0" stop-color="#1456a4"/>
      <stop offset="1" stop-color="#45b5e7"/>
    </linearGradient>
    <linearGradient id="linear-gradient-2" x1="-10.449" y1="8.954" x2="-10.012" y2="8.204" gradientUnits="objectBoundingBox">
      <stop offset="0" stop-color="#c1282d"/>
      <stop offset="1" stop-color="#ed3753"/>
    </linearGradient>
    <linearGradient id="linear-gradient-3" x1="-21.322" y1="10.314" x2="-21.141" y2="9.463" gradientUnits="objectBoundingBox">
      <stop offset="0" stop-color="#f15c28"/>
      <stop offset="1" stop-color="#fbe863"/>
    </linearGradient>
  </defs>
  <g id="Group_30" data-name="Group 30" transform="translate(-1064.209 -308.61)">
    <path id="Path_310" data-name="Path 310" d="M1135,356.321c12.053-11.071,6.372-23.835-17.217-38.029a135.587,135.587,0,0,0-20.083-9.682C1124.955,324.668,1137.458,340.582,1135,356.321Z" fill="url(#linear-gradient)"/>
    <path id="Path_311" data-name="Path 311" d="M1064.209,386.72c41.979-5.314,58.587-29.773,42.5-63.489C1111.627,346.974,1095.021,370.309,1064.209,386.72Z" fill="url(#linear-gradient-2)"/>
    <path id="Path_312" data-name="Path 312" d="M1103.135,314.751c17.743,19.454,20.522,38.631,8.23,57.3Q1150.181,354.442,1103.135,314.751Z" fill="url(#linear-gradient-3)"/>
  </g>
</svg>
