<svg xmlns="http://www.w3.org/2000/svg" width="50.23" height="49.396" viewBox="0 0 50.23 49.396">
  <g id="Group_403" data-name="Group 403" transform="translate(-791.854 -524.84)">
    <g id="Group_402" data-name="Group 402">
      <path id="Path_1613" data-name="Path 1613" d="M816.281,574.235a25.065,25.065,0,0,1-17.638-7.727A24.364,24.364,0,0,1,791.88,548.5a23.35,23.35,0,0,1,8.847-17.765,26.915,26.915,0,0,1,16.237-5.892h0c7.185-.013,13.656,2.451,18.195,6.977s6.933,10.785,6.925,18.1C842.072,561.629,833.992,574.235,816.281,574.235Z" fill="#97a8b2"/>
      <path id="Path_1614" data-name="Path 1614" d="M816.972,527c-9.678.036-22.379,7.206-22.932,21.579s11.461,23.494,22.241,23.494c15.755,0,23.63-10.952,23.641-22.16C839.937,535.4,829.825,526.953,816.972,527Z" fill="#fff"/>
    </g>
    <path id="Path_1615" data-name="Path 1615" d="M811.1,548.613c-3.069-2.632-3.435-10.627,1.878-13.054,6.059-2.768,10.4,1.084,11.68,4.947.919,2.783-1.1,7.1-2.382,8.062-.573.43,7.375,3.779,8.062,13.02,0,0-26.728.011-26.727-.447C803.628,553.749,811.1,548.613,811.1,548.613Z" fill="#6d9dbf"/>
  </g>
</svg>
