<svg xmlns="http://www.w3.org/2000/svg" width="421.882" height="432.543" viewBox="0 0 421.882 432.543">
  <g id="Group_2374" data-name="Group 2374" transform="translate(-1470.975 -663.277)">
    <g id="Group_2359" data-name="Group 2359">
      <g id="Group_2302" data-name="Group 2302">
        <path id="Path_10595" data-name="Path 10595" d="M1812.679,887.7l.081-1.785q2.325-1.764,4.6-3.661l-.03,1.849Q1815.031,885.969,1812.679,887.7Z" fill="#1f1f1f"/>
        <path id="Path_10596" data-name="Path 10596" d="M1812.415,891.651l.134-1.784q2.38-1.693,4.713-3.517l-.087,1.847Q1814.818,889.99,1812.415,891.651Z" fill="#1f1f1f"/>
        <path id="Path_10597" data-name="Path 10597" d="M1812.029,895.589l.189-1.776q2.431-1.62,4.819-3.373l-.144,1.844Q1814.482,894.006,1812.029,895.589Z" fill="#1f1f1f"/>
        <path id="Path_10598" data-name="Path 10598" d="M1811.522,899.515l.245-1.77q2.479-1.543,4.918-3.222l-.2,1.839Q1814.022,898.006,1811.522,899.515Z" fill="#1f1f1f"/>
        <path id="Path_10599" data-name="Path 10599" d="M1810.892,903.422l.3-1.762q2.525-1.465,5.018-3.068l-.256,1.833Q1813.439,901.993,1810.892,903.422Z" fill="#1f1f1f"/>
        <path id="Path_10600" data-name="Path 10600" d="M1810.143,907.308l.355-1.752q2.567-1.387,5.108-2.91l-.313,1.823Q1812.734,905.959,1810.143,907.308Z" fill="#1f1f1f"/>
        <g id="Group_2301" data-name="Group 2301">
          <path id="Path_10601" data-name="Path 10601" d="M1814.02,881l-1.171.959-.027,1.787q1.7-1.337,3.378-2.746Z" fill="#1f1f1f"/>
          <path id="Path_10602" data-name="Path 10602" d="M1814.509,908.491l.37-1.813q-1.916,1.07-3.848,2.067l2.129.466Z" fill="#1f1f1f"/>
        </g>
      </g>
      <g id="Group_2304" data-name="Group 2304">
        <path id="Path_10603" data-name="Path 10603" d="M1808.283,915l.462-1.727q2.651-1.223,5.279-2.587l-.425,1.8Q1810.952,913.814,1808.283,915Z" fill="#1f1f1f"/>
        <path id="Path_10604" data-name="Path 10604" d="M1807.174,918.8l.515-1.711q2.688-1.14,5.36-2.422l-.482,1.788Q1809.878,917.7,1807.174,918.8Z" fill="#1f1f1f"/>
        <path id="Path_10605" data-name="Path 10605" d="M1805.946,922.56l.569-1.694q2.721-1.055,5.432-2.253l-.537,1.772Q1808.682,921.543,1805.946,922.56Z" fill="#1f1f1f"/>
        <path id="Path_10606" data-name="Path 10606" d="M1804.6,926.282l.622-1.675q2.752-.972,5.5-2.083l-.592,1.753Q1807.37,925.351,1804.6,926.282Z" fill="#1f1f1f"/>
        <path id="Path_10607" data-name="Path 10607" d="M1803.144,929.96l.672-1.655q2.782-.885,5.562-1.911l-.646,1.734Q1805.939,929.117,1803.144,929.96Z" fill="#1f1f1f"/>
        <path id="Path_10608" data-name="Path 10608" d="M1801.569,933.591l.726-1.635q2.808-.8,5.619-1.735l-.7,1.712Q1804.391,932.834,1801.569,933.591Z" fill="#1f1f1f"/>
        <g id="Group_2303" data-name="Group 2303">
          <path id="Path_10609" data-name="Path 10609" d="M1811.03,908.745l-1.35.683-.408,1.741q1.952-.94,3.887-1.958Z" fill="#1f1f1f"/>
          <path id="Path_10610" data-name="Path 10610" d="M1805.576,935.692l.754-1.691q-2.1.632-4.206,1.183l1.978.918Z" fill="#1f1f1f"/>
        </g>
      </g>
      <g id="Group_2306" data-name="Group 2306">
        <path id="Path_10611" data-name="Path 10611" d="M1798.088,940.7l.826-1.586q2.852-.621,5.716-1.382l-.807,1.666Q1800.951,940.116,1798.088,940.7Z" fill="#1f1f1f"/>
        <path id="Path_10612" data-name="Path 10612" d="M1796.183,944.167l.875-1.559q2.869-.533,5.755-1.206l-.858,1.641Q1799.063,943.677,1796.183,944.167Z" fill="#1f1f1f"/>
        <path id="Path_10613" data-name="Path 10613" d="M1794.173,947.575l.921-1.531q2.888-.442,5.792-1.025l-.908,1.611Q1797.068,947.175,1794.173,947.575Z" fill="#1f1f1f"/>
        <path id="Path_10614" data-name="Path 10614" d="M1792.057,950.92l.97-1.5q2.9-.351,5.817-.845l-.956,1.583Q1794.962,950.606,1792.057,950.92Z" fill="#1f1f1f"/>
        <path id="Path_10615" data-name="Path 10615" d="M1789.839,954.2l1.014-1.472q2.91-.263,5.844-.665l-1.006,1.553Q1792.752,953.975,1789.839,954.2Z" fill="#1f1f1f"/>
        <path id="Path_10616" data-name="Path 10616" d="M1787.522,957.406l1.059-1.439q2.913-.173,5.86-.485L1793.387,957Q1790.438,957.273,1787.522,957.406Z" fill="#1f1f1f"/>
        <g id="Group_2305" data-name="Group 2305">
          <path id="Path_10617" data-name="Path 10617" d="M1802.124,935.185l-1.465.377-.774,1.61q2.107-.495,4.217-1.069Z" fill="#1f1f1f"/>
          <path id="Path_10618" data-name="Path 10618" d="M1790.982,960.318l1.1-1.488q-2.19.165-4.361.252l1.734,1.32Z" fill="#1f1f1f"/>
        </g>
      </g>
      <g id="Group_2308" data-name="Group 2308">
        <path id="Path_10619" data-name="Path 10619" d="M1782.593,963.6l1.146-1.372q2.92.007,5.88-.122l-1.145,1.454Q1785.512,963.645,1782.593,963.6Z" fill="#1f1f1f"/>
        <path id="Path_10620" data-name="Path 10620" d="M1779.987,966.58l1.188-1.337q2.918.1,5.88.059l-1.188,1.418Q1782.9,966.717,1779.987,966.58Z" fill="#1f1f1f"/>
        <path id="Path_10621" data-name="Path 10621" d="M1777.293,969.478l1.227-1.3q2.916.185,5.876.239l-1.232,1.38Q1780.2,969.706,1777.293,969.478Z" fill="#1f1f1f"/>
        <path id="Path_10622" data-name="Path 10622" d="M1774.51,972.292l1.266-1.26q2.908.276,5.867.419l-1.274,1.343Q1777.414,972.61,1774.51,972.292Z" fill="#1f1f1f"/>
        <path id="Path_10623" data-name="Path 10623" d="M1771.64,975.02l1.306-1.221q2.9.366,5.85.6l-1.314,1.3Q1774.533,975.426,1771.64,975.02Z" fill="#1f1f1f"/>
        <path id="Path_10624" data-name="Path 10624" d="M1768.69,977.659l1.343-1.18q2.884.453,5.829.78l-1.354,1.261Q1771.568,978.152,1768.69,977.659Z" fill="#1f1f1f"/>
        <g id="Group_2307" data-name="Group 2307">
          <path id="Path_10625" data-name="Path 10625" d="M1787.72,959.082l-1.512.052-1.1,1.406q2.164-.034,4.35-.139Z" fill="#1f1f1f"/>
          <path id="Path_10626" data-name="Path 10626" d="M1771.447,981.243l1.393-1.218q-2.173-.31-4.313-.689l1.41,1.661Z" fill="#1f1f1f"/>
        </g>
      </g>
      <g id="Group_2310" data-name="Group 2310">
        <path id="Path_10627" data-name="Path 10627" d="M1762.551,982.654l1.413-1.095q2.851.632,5.769,1.138l-1.428,1.176Q1765.395,983.325,1762.551,982.654Z" fill="#1f1f1f"/>
        <path id="Path_10628" data-name="Path 10628" d="M1759.37,985.008l1.447-1.05q2.829.718,5.73,1.315l-1.464,1.13Q1762.191,985.767,1759.37,985.008Z" fill="#1f1f1f"/>
        <path id="Path_10629" data-name="Path 10629" d="M1756.118,987.263l1.477-1.005q2.806.806,5.688,1.491l-1.5,1.085Q1758.915,988.109,1756.118,987.263Z" fill="#1f1f1f"/>
        <path id="Path_10630" data-name="Path 10630" d="M1752.8,989.417l1.508-.961q2.782.892,5.641,1.666l-1.532,1.039Q1755.565,990.348,1752.8,989.417Z" fill="#1f1f1f"/>
        <path id="Path_10631" data-name="Path 10631" d="M1749.411,991.466l1.537-.913q2.751.978,5.584,1.84l-1.562.991Q1752.148,992.483,1749.411,991.466Z" fill="#1f1f1f"/>
        <path id="Path_10632" data-name="Path 10632" d="M1745.965,993.411l1.563-.865q2.717,1.06,5.527,2.011l-1.594.942Q1748.669,994.509,1745.965,993.411Z" fill="#1f1f1f"/>
        <g id="Group_2309" data-name="Group 2309">
          <path id="Path_10633" data-name="Path 10633" d="M1768.527,979.337l-1.489-.272-1.379,1.138q2.123.432,4.278.795Z" fill="#1f1f1f"/>
          <path id="Path_10634" data-name="Path 10634" d="M1747.888,997.5l1.622-.891q-2.06-.768-4.067-1.6l1.023,1.925Z" fill="#1f1f1f"/>
        </g>
      </g>
      <g id="Group_2312" data-name="Group 2312">
        <path id="Path_10635" data-name="Path 10635" d="M1738.9,996.972l1.615-.766q2.649,1.229,5.391,2.351l-1.65.84Q1741.529,998.238,1738.9,996.972Z" fill="#1f1f1f"/>
        <path id="Path_10636" data-name="Path 10636" d="M1735.283,998.586l1.638-.715q2.61,1.31,5.316,2.516l-1.674.789Q1737.875,999.932,1735.283,998.586Z" fill="#1f1f1f"/>
        <path id="Path_10637" data-name="Path 10637" d="M1731.621,1000.086l1.662-.663q2.565,1.392,5.233,2.68l-1.7.737Q1734.169,1001.514,1731.621,1000.086Z" fill="#1f1f1f"/>
        <path id="Path_10638" data-name="Path 10638" d="M1727.916,1001.472l1.679-.611q2.522,1.47,5.148,2.842l-1.72.683Q1730.418,1002.981,1727.916,1001.472Z" fill="#1f1f1f"/>
        <path id="Path_10639" data-name="Path 10639" d="M1724.168,1002.742l1.7-.558q2.476,1.55,5.057,3l-1.74.631Q1726.621,1004.326,1724.168,1002.742Z" fill="#1f1f1f"/>
        <path id="Path_10640" data-name="Path 10640" d="M1720.382,1003.893l1.714-.5q2.426,1.626,4.961,3.158l-1.759.576Q1722.786,1005.555,1720.382,1003.893Z" fill="#1f1f1f"/>
        <g id="Group_2311" data-name="Group 2311">
          <path id="Path_10641" data-name="Path 10641" d="M1745.443,995.015l-1.394-.586-1.591.816q1.979.878,4.008,1.695Z" fill="#1f1f1f"/>
          <path id="Path_10642" data-name="Path 10642" d="M1721.377,1008.307l1.775-.52q-1.841-1.2-3.623-2.438l.581,2.1Z" fill="#1f1f1f"/>
        </g>
      </g>
      <g id="Group_2314" data-name="Group 2314">
        <path id="Path_10643" data-name="Path 10643" d="M1712.712,1005.842l1.743-.4q2.32,1.772,4.755,3.46l-1.792.465Q1715.006,1007.65,1712.712,1005.842Z" fill="#1f1f1f"/>
        <path id="Path_10644" data-name="Path 10644" d="M1708.835,1006.635l1.753-.344q2.266,1.847,4.645,3.608l-1.806.409Q1711.076,1008.512,1708.835,1006.635Z" fill="#1f1f1f"/>
        <path id="Path_10645" data-name="Path 10645" d="M1704.936,1007.308l1.763-.289q2.207,1.914,4.53,3.751l-1.816.351Q1707.114,1009.255,1704.936,1007.308Z" fill="#1f1f1f"/>
        <path id="Path_10646" data-name="Path 10646" d="M1701.017,1007.858l1.772-.233q2.146,1.982,4.412,3.89l-1.828.294Q1703.134,1009.871,1701.017,1007.858Z" fill="#1f1f1f"/>
        <path id="Path_10647" data-name="Path 10647" d="M1697.082,1008.288l1.778-.177q2.083,2.044,4.289,4.022l-1.835.239Q1699.137,1010.365,1697.082,1008.288Z" fill="#1f1f1f"/>
        <path id="Path_10648" data-name="Path 10648" d="M1693.136,1008.6l1.784-.123q2.018,2.109,4.162,4.155l-1.84.181Q1695.126,1010.735,1693.136,1008.6Z" fill="#1f1f1f"/>
        <g id="Group_2313" data-name="Group 2313">
          <path id="Path_10649" data-name="Path 10649" d="M1719.528,1005.349l-1.236-.873-1.729.452q1.742,1.284,3.547,2.522Z" fill="#1f1f1f"/>
          <path id="Path_10650" data-name="Path 10650" d="M1693.156,1013.121,1695,1013q-1.541-1.563-3.015-3.162l.116,2.177Z" fill="#1f1f1f"/>
        </g>
      </g>
      <g id="Group_2316" data-name="Group 2316">
        <path id="Path_10651" data-name="Path 10651" d="M1685.225,1008.852l1.787-.016q1.885,2.229,3.9,4.4l-1.849.067Q1687.081,1011.107,1685.225,1008.852Z" fill="#1f1f1f"/>
        <path id="Path_10652" data-name="Path 10652" d="M1681.265,1008.8l1.787.038q1.819,2.285,3.764,4.52l-1.849.012Q1683.052,1011.108,1681.265,1008.8Z" fill="#1f1f1f"/>
        <path id="Path_10653" data-name="Path 10653" d="M1677.311,1008.625l1.785.093q1.746,2.34,3.625,4.631l-1.848-.044Q1679.026,1010.99,1677.311,1008.625Z" fill="#1f1f1f"/>
        <path id="Path_10654" data-name="Path 10654" d="M1673.364,1008.33l1.781.148q1.675,2.391,3.483,4.738l-1.848-.1Q1675,1010.746,1673.364,1008.33Z" fill="#1f1f1f"/>
        <path id="Path_10655" data-name="Path 10655" d="M1669.427,1007.914l1.776.2q1.6,2.442,3.334,4.844l-1.842-.158Q1670.995,1010.378,1669.427,1007.914Z" fill="#1f1f1f"/>
        <path id="Path_10656" data-name="Path 10656" d="M1665.507,1007.377l1.77.257q1.522,2.489,3.183,4.943l-1.838-.214Q1666.995,1009.888,1665.507,1007.377Z" fill="#1f1f1f"/>
        <g id="Group_2315" data-name="Group 2315">
          <path id="Path_10657" data-name="Path 10657" d="M1691.987,1009.834l-1.018-1.12-1.788.072q1.425,1.627,2.921,3.224Z" fill="#1f1f1f"/>
          <path id="Path_10658" data-name="Path 10658" d="M1664.563,1011.8l1.83.27q-1.174-1.853-2.272-3.731l-.35,2.151Z" fill="#1f1f1f"/>
        </g>
      </g>
      <g id="Group_2318" data-name="Group 2318">
        <path id="Path_10659" data-name="Path 10659" d="M1657.725,1005.937l1.748.367q1.368,2.58,2.872,5.132l-1.823-.327Q1659.054,1008.538,1657.725,1005.937Z" fill="#1f1f1f"/>
        <path id="Path_10660" data-name="Path 10660" d="M1653.872,1005.036l1.735.422q1.286,2.62,2.711,5.219l-1.811-.385Q1655.12,1007.677,1653.872,1005.036Z" fill="#1f1f1f"/>
        <path id="Path_10661" data-name="Path 10661" d="M1650.047,1004.017l1.723.474q1.2,2.661,2.546,5.3l-1.8-.44Q1651.213,1006.693,1650.047,1004.017Z" fill="#1f1f1f"/>
        <path id="Path_10662" data-name="Path 10662" d="M1646.259,1002.878l1.708.53q1.118,2.694,2.377,5.377l-1.782-.5Q1647.34,1005.59,1646.259,1002.878Z" fill="#1f1f1f"/>
        <path id="Path_10663" data-name="Path 10663" d="M1642.506,1001.622l1.691.58q1.033,2.733,2.209,5.451l-1.766-.552Q1643.5,1004.367,1642.506,1001.622Z" fill="#1f1f1f"/>
        <path id="Path_10664" data-name="Path 10664" d="M1638.795,1000.249l1.671.633q.948,2.761,2.039,5.517l-1.747-.607Q1639.7,1003.023,1638.795,1000.249Z" fill="#1f1f1f"/>
        <g id="Group_2317" data-name="Group 2317">
          <path id="Path_10665" data-name="Path 10665" d="M1664.121,1008.339l-.757-1.309-1.76-.313q1.046,1.9,2.167,3.774Z" fill="#1f1f1f"/>
          <path id="Path_10666" data-name="Path 10666" d="M1636.916,1004.363l1.728.66q-.744-2.065-1.41-4.135l-.808,2.026Z" fill="#1f1f1f"/>
        </g>
      </g>
      <g id="Group_2320" data-name="Group 2320">
        <path id="Path_10667" data-name="Path 10667" d="M1631.509,997.158l1.629.738q.776,2.815,1.691,5.632l-1.706-.714Q1632.244,999.984,1631.509,997.158Z" fill="#1f1f1f"/>
        <path id="Path_10668" data-name="Path 10668" d="M1627.943,995.447l1.6.786q.687,2.838,1.515,5.683l-1.684-.767Q1628.587,998.294,1627.943,995.447Z" fill="#1f1f1f"/>
        <path id="Path_10669" data-name="Path 10669" d="M1624.431,993.622l1.578.837q.6,2.857,1.339,5.727l-1.661-.819Q1624.987,996.49,1624.431,993.622Z" fill="#1f1f1f"/>
        <path id="Path_10670" data-name="Path 10670" d="M1620.975,991.691l1.552.886q.51,2.877,1.161,5.765l-1.633-.87Q1621.444,994.575,1620.975,991.691Z" fill="#1f1f1f"/>
        <path id="Path_10671" data-name="Path 10671" d="M1617.583,989.654l1.524.933q.421,2.89.981,5.8l-1.605-.921Q1617.962,992.549,1617.583,989.654Z" fill="#1f1f1f"/>
        <path id="Path_10672" data-name="Path 10672" d="M1614.255,987.513l1.495.979q.33,2.9.8,5.825l-1.576-.968Q1614.546,990.418,1614.255,987.513Z" fill="#1f1f1f"/>
        <g id="Group_2319" data-name="Group 2319">
          <path id="Path_10673" data-name="Path 10673" d="M1637.234,1000.889l-.455-1.443-1.65-.686q.61,2.077,1.3,4.154Z" fill="#1f1f1f"/>
          <path id="Path_10674" data-name="Path 10674" d="M1611.534,991.125l1.544,1.018q-.278-2.178-.486-4.342l-1.225,1.8Z" fill="#1f1f1f"/>
        </g>
      </g>
      <g id="Group_2322" data-name="Group 2322">
        <path id="Path_10675" data-name="Path 10675" d="M1607.8,982.927l1.432,1.069q.151,2.915.439,5.865l-1.512-1.065Q1607.915,985.843,1607.8,982.927Z" fill="#1f1f1f"/>
        <path id="Path_10676" data-name="Path 10676" d="M1604.687,980.485l1.4,1.114q.061,2.919.259,5.875l-1.48-1.112Q1604.709,983.406,1604.687,980.485Z" fill="#1f1f1f"/>
        <path id="Path_10677" data-name="Path 10677" d="M1601.65,977.949l1.361,1.157q-.029,2.922.077,5.881l-1.445-1.157Q1601.578,980.87,1601.65,977.949Z" fill="#1f1f1f"/>
        <path id="Path_10678" data-name="Path 10678" d="M1598.689,975.323l1.326,1.2q-.118,2.919-.1,5.881l-1.409-1.2C1598.519,979.227,1598.583,977.265,1598.689,975.323Z" fill="#1f1f1f"/>
        <path id="Path_10679" data-name="Path 10679" d="M1595.811,972.6l1.289,1.238q-.208,2.913-.284,5.875l-1.371-1.244Q1595.563,975.516,1595.811,972.6Z" fill="#1f1f1f"/>
        <path id="Path_10680" data-name="Path 10680" d="M1593.018,969.8l1.251,1.278q-.3,2.9-.464,5.861l-1.333-1.284Q1592.681,972.7,1593.018,969.8Z" fill="#1f1f1f"/>
        <g id="Group_2321" data-name="Group 2321">
          <path id="Path_10681" data-name="Path 10681" d="M1612.592,987.8l-.133-1.508-1.464-1.024q.146,2.159.372,4.335Z" fill="#1f1f1f"/>
          <path id="Path_10682" data-name="Path 10682" d="M1589.586,972.748l1.292,1.324q.192-2.189.453-4.345l-1.582,1.5Z" fill="#1f1f1f"/>
        </g>
      </g>
      <g id="Group_2324" data-name="Group 2324">
        <path id="Path_10683" data-name="Path 10683" d="M1587.7,963.941l1.17,1.35q-.476,2.881-.825,5.824l-1.251-1.366Q1587.182,966.815,1587.7,963.941Z" fill="#1f1f1f"/>
        <path id="Path_10684" data-name="Path 10684" d="M1585.176,960.889l1.126,1.388q-.564,2.865-1,5.794l-1.208-1.4Q1584.57,963.749,1585.176,960.889Z" fill="#1f1f1f"/>
        <path id="Path_10685" data-name="Path 10685" d="M1582.748,957.763l1.084,1.421q-.655,2.846-1.181,5.76l-1.165-1.437Q1582.054,960.6,1582.748,957.763Z" fill="#1f1f1f"/>
        <path id="Path_10686" data-name="Path 10686" d="M1580.419,954.564l1.04,1.454q-.74,2.826-1.36,5.721l-1.12-1.473Q1579.639,957.379,1580.419,954.564Z" fill="#1f1f1f"/>
        <path id="Path_10687" data-name="Path 10687" d="M1578.189,951.294l.994,1.485q-.825,2.8-1.534,5.676l-1.074-1.506Q1577.322,954.083,1578.189,951.294Z" fill="#1f1f1f"/>
        <path id="Path_10688" data-name="Path 10688" d="M1576.062,947.957l.948,1.514q-.913,2.774-1.71,5.627l-1.026-1.538Q1575.111,950.718,1576.062,947.957Z" fill="#1f1f1f"/>
        <g id="Group_2323" data-name="Group 2323">
          <path id="Path_10689" data-name="Path 10689" d="M1591.331,969.727l.193-1.5-1.211-1.315q-.317,2.14-.564,4.314Z" fill="#1f1f1f"/>
          <path id="Path_10690" data-name="Path 10690" d="M1572.078,950.1l.977,1.57q.657-2.1,1.376-4.146l-1.868,1.125Z" fill="#1f1f1f"/>
        </g>
      </g>
      <g id="Group_2326" data-name="Group 2326">
        <path id="Path_10691" data-name="Path 10691" d="M1572.122,941.093l.853,1.571q-1.084,2.714-2.056,5.511l-.927-1.6Q1571,943.788,1572.122,941.093Z" fill="#1f1f1f"/>
        <path id="Path_10692" data-name="Path 10692" d="M1570.313,937.573l.8,1.6q-1.165,2.675-2.223,5.443l-.879-1.628Q1569.108,940.234,1570.313,937.573Z" fill="#1f1f1f"/>
        <path id="Path_10693" data-name="Path 10693" d="M1568.615,934l.754,1.619q-1.251,2.641-2.391,5.372l-.83-1.654Q1567.329,936.62,1568.615,934Z" fill="#1f1f1f"/>
        <path id="Path_10694" data-name="Path 10694" d="M1567.029,930.374l.7,1.643q-1.334,2.6-2.558,5.3l-.776-1.68Q1565.66,932.953,1567.029,930.374Z" fill="#1f1f1f"/>
        <path id="Path_10695" data-name="Path 10695" d="M1565.557,926.7l.651,1.665q-1.411,2.554-2.723,5.212l-.724-1.7Q1564.11,929.236,1565.557,926.7Z" fill="#1f1f1f"/>
        <path id="Path_10696" data-name="Path 10696" d="M1564.2,922.982l.6,1.685q-1.49,2.509-2.882,5.124l-.671-1.725Q1562.673,925.473,1564.2,922.982Z" fill="#1f1f1f"/>
        <g id="Group_2325" data-name="Group 2325">
          <path id="Path_10697" data-name="Path 10697" d="M1574.432,947.524l.506-1.424-.9-1.544q-.768,2.023-1.475,4.094Z" fill="#1f1f1f"/>
          <path id="Path_10698" data-name="Path 10698" d="M1559.848,924.214l.616,1.745q1.094-1.9,2.238-3.752l-2.066.7Z" fill="#1f1f1f"/>
        </g>
      </g>
      <g id="Group_2328" data-name="Group 2328">
        <path id="Path_10699" data-name="Path 10699" d="M1561.838,915.431l.492,1.719q-1.643,2.409-3.2,4.934l-.562-1.763Q1560.159,917.821,1561.838,915.431Z" fill="#1f1f1f"/>
        <path id="Path_10700" data-name="Path 10700" d="M1560.833,911.6l.439,1.733q-1.72,2.359-3.35,4.834l-.508-1.78Q1559.082,913.941,1560.833,911.6Z" fill="#1f1f1f"/>
        <path id="Path_10701" data-name="Path 10701" d="M1559.95,907.746l.384,1.745q-1.791,2.306-3.5,4.727l-.451-1.8Q1558.127,910.028,1559.95,907.746Z" fill="#1f1f1f"/>
        <path id="Path_10702" data-name="Path 10702" d="M1559.187,903.863l.329,1.755q-1.86,2.249-3.643,4.616l-.394-1.808Q1557.292,906.085,1559.187,903.863Z" fill="#1f1f1f"/>
        <path id="Path_10703" data-name="Path 10703" d="M1558.545,899.958l.275,1.766q-1.931,2.19-3.787,4.5l-.338-1.819Q1556.583,902.12,1558.545,899.958Z" fill="#1f1f1f"/>
        <path id="Path_10704" data-name="Path 10704" d="M1558.023,896.035l.221,1.774q-2,2.13-3.924,4.38l-.282-1.83Q1555.994,898.137,1558.023,896.035Z" fill="#1f1f1f"/>
        <g id="Group_2327" data-name="Group 2327">
          <path id="Path_10705" data-name="Path 10705" d="M1562.7,922.208l.8-1.282-.545-1.7q-1.188,1.808-2.325,3.677Z" fill="#1f1f1f"/>
          <path id="Path_10706" data-name="Path 10706" d="M1553.507,896.3l.225,1.837q1.477-1.623,2.994-3.18l-2.167.233Z" fill="#1f1f1f"/>
        </g>
      </g>
      <g id="Group_2330" data-name="Group 2330">
        <path id="Path_10707" data-name="Path 10707" d="M1557.346,888.149l.11,1.784q-2.127,2-4.187,4.13l-.168-1.843Q1555.19,890.122,1557.346,888.149Z" fill="#1f1f1f"/>
        <path id="Path_10708" data-name="Path 10708" d="M1557.188,884.193l.055,1.787q-2.184,1.938-4.31,4l-.111-1.847Q1554.976,886.1,1557.188,884.193Z" fill="#1f1f1f"/>
        <path id="Path_10709" data-name="Path 10709" d="M1557.151,880.234v1.788q-2.243,1.87-4.431,3.866l-.055-1.849Q1554.881,882.073,1557.151,880.234Z" fill="#1f1f1f"/>
        <path id="Path_10710" data-name="Path 10710" d="M1557.234,876.276l-.052,1.788q-2.3,1.8-4.546,3.731l0-1.851Q1554.91,878.044,1557.234,876.276Z" fill="#1f1f1f"/>
        <path id="Path_10711" data-name="Path 10711" d="M1557.439,872.323l-.107,1.785q-2.353,1.728-4.659,3.589l.058-1.85Q1555.062,874.021,1557.439,872.323Z" fill="#1f1f1f"/>
        <path id="Path_10712" data-name="Path 10712" d="M1557.763,868.378l-.162,1.78q-2.4,1.656-4.765,3.446l.113-1.847Q1555.335,870,1557.763,868.378Z" fill="#1f1f1f"/>
        <g id="Group_2329" data-name="Group 2329">
          <path id="Path_10713" data-name="Path 10713" d="M1556.726,894.954l1.061-1.077-.164-1.78q-1.551,1.511-3.065,3.09Z" fill="#1f1f1f"/>
          <path id="Path_10714" data-name="Path 10714" d="M1553.3,867.674l-.172,1.844q1.79-1.273,3.6-2.471l-2.167-.233Z" fill="#1f1f1f"/>
        </g>
      </g>
      <g id="Group_2332" data-name="Group 2332">
        <path id="Path_10715" data-name="Path 10715" d="M1558.778,860.529l-.271,1.767q-2.505,1.5-4.969,3.145l.228-1.837Q1556.254,862,1558.778,860.529Z" fill="#1f1f1f"/>
        <path id="Path_10716" data-name="Path 10716" d="M1559.468,856.632l-.327,1.758q-2.548,1.426-5.064,2.99l.286-1.829Q1556.9,858.023,1559.468,856.632Z" fill="#1f1f1f"/>
        <path id="Path_10717" data-name="Path 10717" d="M1560.277,852.76l-.38,1.746q-2.592,1.345-5.156,2.83l.343-1.818Q1557.667,854.068,1560.277,852.76Z" fill="#1f1f1f"/>
        <path id="Path_10718" data-name="Path 10718" d="M1561.207,848.914l-.436,1.733q-2.628,1.266-5.238,2.669l.4-1.807Q1558.559,850.141,1561.207,848.914Z" fill="#1f1f1f"/>
        <path id="Path_10719" data-name="Path 10719" d="M1562.259,845.1l-.49,1.719q-2.67,1.181-5.32,2.5l.454-1.795Q1559.571,846.242,1562.259,845.1Z" fill="#1f1f1f"/>
        <path id="Path_10720" data-name="Path 10720" d="M1563.426,841.317l-.542,1.7q-2.7,1.1-5.4,2.337l.51-1.778Q1560.7,842.377,1563.426,841.317Z" fill="#1f1f1f"/>
        <g id="Group_2331" data-name="Group 2331">
          <path id="Path_10721" data-name="Path 10721" d="M1556.726,867.047l1.266-.828.217-1.774q-1.835,1.147-3.651,2.369Z" fill="#1f1f1f"/>
          <path id="Path_10722" data-name="Path 10722" d="M1559.215,839.665l-.564,1.763q2.02-.857,4.05-1.635l-2.066-.694Z" fill="#1f1f1f"/>
        </g>
      </g>
      <g id="Group_2334" data-name="Group 2334">
        <path id="Path_10723" data-name="Path 10723" d="M1566.114,833.873l-.648,1.667q-2.767.928-5.531,2l.619-1.745Q1563.331,834.764,1566.114,833.873Z" fill="#1f1f1f"/>
        <path id="Path_10724" data-name="Path 10724" d="M1567.63,830.219l-.7,1.644q-2.8.841-5.591,1.824l.672-1.725Q1564.822,831.019,1567.63,830.219Z" fill="#1f1f1f"/>
        <path id="Path_10725" data-name="Path 10725" d="M1569.26,826.613l-.75,1.622q-2.823.753-5.645,1.648l.726-1.7Q1566.426,827.325,1569.26,826.613Z" fill="#1f1f1f"/>
        <path id="Path_10726" data-name="Path 10726" d="M1571,823.06l-.8,1.6q-2.843.664-5.693,1.47l.78-1.679Q1568.147,823.683,1571,823.06Z" fill="#1f1f1f"/>
        <path id="Path_10727" data-name="Path 10727" d="M1572.851,819.56l-.849,1.573q-2.863.576-5.739,1.294l.833-1.654Q1569.98,820.1,1572.851,819.56Z" fill="#1f1f1f"/>
        <path id="Path_10728" data-name="Path 10728" d="M1574.809,816.122l-.9,1.546q-2.88.487-5.775,1.116l.882-1.628Q1571.923,816.569,1574.809,816.122Z" fill="#1f1f1f"/>
        <g id="Group_2333" data-name="Group 2333">
          <path id="Path_10729" data-name="Path 10729" d="M1562.7,839.793l1.416-.534.6-1.684q-2.04.721-4.077,1.523Z" fill="#1f1f1f"/>
          <path id="Path_10730" data-name="Path 10730" d="M1571.055,813.6l-.933,1.6q2.158-.4,4.31-.721l-1.868-1.125Z" fill="#1f1f1f"/>
        </g>
      </g>
      <g id="Group_2336" data-name="Group 2336">
        <path id="Path_10731" data-name="Path 10731" d="M1579.04,809.433l-.991,1.488q-2.9.308-5.832.756l.981-1.569Q1576.133,809.7,1579.04,809.433Z" fill="#1f1f1f"/>
        <path id="Path_10732" data-name="Path 10732" d="M1581.309,806.19l-1.037,1.456q-2.911.219-5.852.576l1.028-1.538Q1578.393,806.367,1581.309,806.19Z" fill="#1f1f1f"/>
        <path id="Path_10733" data-name="Path 10733" d="M1583.676,803.018l-1.082,1.423q-2.915.13-5.867.394l1.077-1.505Q1580.756,803.106,1583.676,803.018Z" fill="#1f1f1f"/>
        <path id="Path_10734" data-name="Path 10734" d="M1586.14,799.922l-1.124,1.389q-2.921.039-5.877.214l1.123-1.472Q1583.219,799.919,1586.14,799.922Z" fill="#1f1f1f"/>
        <path id="Path_10735" data-name="Path 10735" d="M1588.7,796.9l-1.167,1.355q-2.92-.053-5.881.032l1.167-1.436Q1585.779,796.808,1588.7,796.9Z" fill="#1f1f1f"/>
        <path id="Path_10736" data-name="Path 10736" d="M1591.35,793.961l-1.209,1.318q-2.917-.142-5.879-.15l1.21-1.4Q1588.434,793.78,1591.35,793.961Z" fill="#1f1f1f"/>
        <g id="Group_2335" data-name="Group 2335">
          <path id="Path_10737" data-name="Path 10737" d="M1574.432,814.476l1.5-.214.946-1.518q-2.149.265-4.309.606Z" fill="#1f1f1f"/>
          <path id="Path_10738" data-name="Path 10738" d="M1588.222,790.693l-1.253,1.362q2.193.073,4.362.219l-1.582-1.5Z" fill="#1f1f1f"/>
        </g>
      </g>
      <g id="Group_2338" data-name="Group 2338">
        <path id="Path_10739" data-name="Path 10739" d="M1596.915,788.334l-1.288,1.24q-2.9-.32-5.857-.511l1.294-1.322Q1594.018,787.974,1596.915,788.334Z" fill="#1f1f1f"/>
        <path id="Path_10740" data-name="Path 10740" d="M1599.825,785.651l-1.324,1.2q-2.892-.41-5.841-.691l1.336-1.281Q1596.938,785.2,1599.825,785.651Z" fill="#1f1f1f"/>
        <path id="Path_10741" data-name="Path 10741" d="M1602.816,783.059l-1.36,1.159q-2.881-.5-5.816-.87l1.373-1.24Q1599.945,782.52,1602.816,783.059Z" fill="#1f1f1f"/>
        <path id="Path_10742" data-name="Path 10742" d="M1605.886,780.56l-1.4,1.117q-2.858-.587-5.786-1.049l1.411-1.2Q1603.033,779.931,1605.886,780.56Z" fill="#1f1f1f"/>
        <path id="Path_10743" data-name="Path 10743" d="M1609.031,778.157l-1.43,1.073q-2.842-.673-5.75-1.226l1.445-1.154Q1606.2,777.443,1609.031,778.157Z" fill="#1f1f1f"/>
        <path id="Path_10744" data-name="Path 10744" d="M1612.248,775.851l-1.463,1.029q-2.817-.76-5.71-1.4l1.481-1.108Q1609.44,775.051,1612.248,775.851Z" fill="#1f1f1f"/>
        <g id="Group_2337" data-name="Group 2337">
          <path id="Path_10745" data-name="Path 10745" d="M1591.331,792.274l1.509.111,1.249-1.28q-2.155-.2-4.339-.33Z" fill="#1f1f1f"/>
          <path id="Path_10746" data-name="Path 10746" d="M1609.893,771.99l-1.517,1.06q2.131.544,4.216,1.149l-1.225-1.8Z" fill="#1f1f1f"/>
        </g>
      </g>
      <g id="Group_2340" data-name="Group 2340">
        <path id="Path_10747" data-name="Path 10747" d="M1618.888,771.546l-1.523.936q-2.764-.934-5.612-1.753l1.547-1.013Q1616.135,770.571,1618.888,771.546Z" fill="#1f1f1f"/>
        <path id="Path_10748" data-name="Path 10748" d="M1622.306,769.549l-1.552.889q-2.734-1.02-5.555-1.925l1.578-.966Q1619.582,768.49,1622.306,769.549Z" fill="#1f1f1f"/>
        <path id="Path_10749" data-name="Path 10749" d="M1625.783,767.659l-1.577.841q-2.705-1.1-5.5-2.1l1.608-.917Q1623.094,766.517,1625.783,767.659Z" fill="#1f1f1f"/>
        <path id="Path_10750" data-name="Path 10750" d="M1629.316,765.879l-1.6.79q-2.669-1.188-5.427-2.266l1.635-.867Q1626.665,764.652,1629.316,765.879Z" fill="#1f1f1f"/>
        <path id="Path_10751" data-name="Path 10751" d="M1632.905,764.208l-1.628.741q-2.63-1.271-5.352-2.435l1.66-.815Q1630.291,762.9,1632.905,764.208Z" fill="#1f1f1f"/>
        <path id="Path_10752" data-name="Path 10752" d="M1636.542,762.65l-1.648.69q-2.589-1.351-5.277-2.6l1.687-.765Q1633.973,761.263,1636.542,762.65Z" fill="#1f1f1f"/>
        <g id="Group_2339" data-name="Group 2339">
          <path id="Path_10753" data-name="Path 10753" d="M1612.592,774.2l1.451.431,1.491-.983q-2.06-.657-4.167-1.252Z" fill="#1f1f1f"/>
          <path id="Path_10754" data-name="Path 10754" d="M1635.073,758.372l-1.708.71q1.962.987,3.869,2.03l-.808-2.025Z" fill="#1f1f1f"/>
        </g>
      </g>
      <g id="Group_2342" data-name="Group 2342">
        <path id="Path_10755" data-name="Path 10755" d="M1643.953,759.879l-1.688.586q-2.5-1.508-5.1-2.922l1.73-.657Q1641.475,758.335,1643.953,759.879Z" fill="#1f1f1f"/>
        <path id="Path_10756" data-name="Path 10756" d="M1647.72,758.668l-1.706.531q-2.449-1.584-5.01-3.079l1.75-.6Q1645.292,757.046,1647.72,758.668Z" fill="#1f1f1f"/>
        <path id="Path_10757" data-name="Path 10757" d="M1651.525,757.575l-1.723.479q-2.4-1.664-4.912-3.236l1.768-.548Q1649.149,755.879,1651.525,757.575Z" fill="#1f1f1f"/>
        <path id="Path_10758" data-name="Path 10758" d="M1655.36,756.6l-1.736.425q-2.346-1.736-4.808-3.388l1.783-.49Q1653.036,754.831,1655.36,756.6Z" fill="#1f1f1f"/>
        <path id="Path_10759" data-name="Path 10759" d="M1659.224,755.747l-1.749.371q-2.293-1.808-4.7-3.535l1.8-.437Q1656.958,753.906,1659.224,755.747Z" fill="#1f1f1f"/>
        <path id="Path_10760" data-name="Path 10760" d="M1663.113,755.013l-1.76.318q-2.232-1.879-4.586-3.68l1.812-.381Q1660.905,753.1,1663.113,755.013Z" fill="#1f1f1f"/>
        <g id="Group_2341" data-name="Group 2341">
          <path id="Path_10761" data-name="Path 10761" d="M1637.234,761.112l1.323.733,1.669-.638q-1.873-1.088-3.8-2.12Z" fill="#1f1f1f"/>
          <path id="Path_10762" data-name="Path 10762" d="M1662.605,750.52l-1.822.322q1.7,1.389,3.338,2.819l-.35-2.151Z" fill="#1f1f1f"/>
        </g>
      </g>
      <g id="Group_2344" data-name="Group 2344">
        <path id="Path_10763" data-name="Path 10763" d="M1670.949,753.912l-1.776.206q-2.114-2.013-4.349-3.958l1.831-.267Q1668.864,751.868,1670.949,753.912Z" fill="#1f1f1f"/>
        <path id="Path_10764" data-name="Path 10764" d="M1674.891,753.542l-1.781.152q-2.051-2.079-4.227-4.09l1.84-.212Q1672.869,751.436,1674.891,753.542Z" fill="#1f1f1f"/>
        <path id="Path_10765" data-name="Path 10765" d="M1678.84,753.294l-1.784.1q-1.988-2.141-4.1-4.218l1.842-.155Q1676.884,751.126,1678.84,753.294Z" fill="#1f1f1f"/>
        <path id="Path_10766" data-name="Path 10766" d="M1682.8,753.167l-1.787.044q-1.921-2.2-3.967-4.343l1.847-.1Q1680.908,750.94,1682.8,753.167Z" fill="#1f1f1f"/>
        <path id="Path_10767" data-name="Path 10767" d="M1686.757,753.161l-1.789-.013q-1.854-2.258-3.832-4.461l1.85-.039Q1684.934,750.878,1686.757,753.161Z" fill="#1f1f1f"/>
        <path id="Path_10768" data-name="Path 10768" d="M1690.714,753.274l-1.788-.066q-1.781-2.312-3.694-4.575l1.85.015Q1688.962,750.936,1690.714,753.274Z" fill="#1f1f1f"/>
        <g id="Group_2343" data-name="Group 2343">
          <path id="Path_10769" data-name="Path 10769" d="M1664.121,753.661l1.133,1,1.769-.261q-1.594-1.468-3.251-2.893Z" fill="#1f1f1f"/>
          <path id="Path_10770" data-name="Path 10770" d="M1691.176,748.774l-1.849-.073q1.367,1.72,2.661,3.465l.116-2.177Z" fill="#1f1f1f"/>
        </g>
      </g>
      <g id="Group_2346" data-name="Group 2346">
        <path id="Path_10771" data-name="Path 10771" d="M1698.606,753.865l-1.778-.176q-1.638-2.419-3.409-4.792l1.847.128Q1697,751.422,1698.606,753.865Z" fill="#1f1f1f"/>
        <path id="Path_10772" data-name="Path 10772" d="M1702.535,754.341l-1.772-.231q-1.562-2.468-3.26-4.895l1.841.185Q1701.008,751.852,1702.535,754.341Z" fill="#1f1f1f"/>
        <path id="Path_10773" data-name="Path 10773" d="M1706.447,754.94l-1.765-.286q-1.484-2.515-3.106-4.993l1.835.242Q1705,752.4,1706.447,754.94Z" fill="#1f1f1f"/>
        <path id="Path_10774" data-name="Path 10774" d="M1710.339,755.659l-1.754-.341q-1.4-2.559-2.951-5.087l1.826.3Q1708.97,753.079,1710.339,755.659Z" fill="#1f1f1f"/>
        <path id="Path_10775" data-name="Path 10775" d="M1714.206,756.5l-1.742-.395q-1.326-2.6-2.791-5.176l1.815.356Q1712.918,753.877,1714.206,756.5Z" fill="#1f1f1f"/>
        <path id="Path_10776" data-name="Path 10776" d="M1718.044,757.459l-1.729-.448q-1.246-2.643-2.63-5.262l1.8.414Q1716.838,754.8,1718.044,757.459Z" fill="#1f1f1f"/>
        <g id="Group_2345" data-name="Group 2345">
          <path id="Path_10777" data-name="Path 10777" d="M1691.987,752.167l.893,1.22,1.785.122q-1.245-1.772-2.563-3.519Z" fill="#1f1f1f"/>
          <path id="Path_10778" data-name="Path 10778" d="M1719.464,753.164l-1.79-.468q.965,1.972,1.855,3.954l.581-2.1Z" fill="#1f1f1f"/>
        </g>
      </g>
      <g id="Group_2348" data-name="Group 2348">
        <path id="Path_10779" data-name="Path 10779" d="M1725.623,759.737l-1.7-.555q-1.076-2.714-2.295-5.415l1.776.524Q1724.585,757.006,1725.623,759.737Z" fill="#1f1f1f"/>
        <path id="Path_10780" data-name="Path 10780" d="M1729.355,761.051l-1.68-.608q-.991-2.749-2.126-5.483l1.758.578Q1728.4,758.29,1729.355,761.051Z" fill="#1f1f1f"/>
        <path id="Path_10781" data-name="Path 10781" d="M1733.045,762.482l-1.66-.66q-.907-2.777-1.954-5.547l1.739.633Q1732.18,759.69,1733.045,762.482Z" fill="#1f1f1f"/>
        <path id="Path_10782" data-name="Path 10782" d="M1736.688,764.027l-1.639-.712q-.819-2.8-1.779-5.6l1.719.687Q1735.908,761.21,1736.688,764.027Z" fill="#1f1f1f"/>
        <path id="Path_10783" data-name="Path 10783" d="M1740.281,765.684l-1.616-.762q-.733-2.827-1.6-5.657l1.7.739Q1739.59,762.847,1740.281,765.684Z" fill="#1f1f1f"/>
        <path id="Path_10784" data-name="Path 10784" d="M1743.821,767.453l-1.591-.811q-.644-2.849-1.427-5.706l1.671.792Q1743.218,764.6,1743.821,767.453Z" fill="#1f1f1f"/>
        <g id="Group_2347" data-name="Group 2347">
          <path id="Path_10785" data-name="Path 10785" d="M1719.528,756.651l.607,1.385,1.716.5q-.831-2-1.743-3.989Z" fill="#1f1f1f"/>
          <path id="Path_10786" data-name="Path 10786" d="M1746.137,763.567l-1.646-.844q.513,2.134.953,4.264l1.023-1.926Z" fill="#1f1f1f"/>
        </g>
      </g>
      <g id="Group_2350" data-name="Group 2350">
        <path id="Path_10787" data-name="Path 10787" d="M1750.729,771.315l-1.538-.91q-.465-2.88-1.07-5.783l1.619.9Q1750.306,768.426,1750.729,771.315Z" fill="#1f1f1f"/>
        <path id="Path_10788" data-name="Path 10788" d="M1754.091,773.406l-1.51-.958q-.376-2.893-.891-5.812l1.591.945Q1753.756,770.5,1754.091,773.406Z" fill="#1f1f1f"/>
        <path id="Path_10789" data-name="Path 10789" d="M1757.385,775.6l-1.48-1q-.284-2.906-.71-5.838l1.56.993Q1757.141,772.687,1757.385,775.6Z" fill="#1f1f1f"/>
        <path id="Path_10790" data-name="Path 10790" d="M1760.611,777.891l-1.448-1.048q-.2-2.915-.53-5.856l1.53,1.041Q1760.455,774.973,1760.611,777.891Z" fill="#1f1f1f"/>
        <path id="Path_10791" data-name="Path 10791" d="M1763.763,780.283l-1.415-1.093q-.1-2.918-.349-5.87l1.5,1.087Q1763.7,777.363,1763.763,780.283Z" fill="#1f1f1f"/>
        <path id="Path_10792" data-name="Path 10792" d="M1766.841,782.772l-1.38-1.136q-.016-2.919-.168-5.878l1.463,1.133Q1766.868,779.851,1766.841,782.772Z" fill="#1f1f1f"/>
        <g id="Group_2349" data-name="Group 2349">
          <path id="Path_10793" data-name="Path 10793" d="M1745.443,766.986l.3,1.483,1.567.86q-.38-2.13-.839-4.269Z" fill="#1f1f1f"/>
          <path id="Path_10794" data-name="Path 10794" d="M1769.937,779.473l-1.427-1.177q.044,2.193.015,4.368l1.412-1.661Z" fill="#1f1f1f"/>
        </g>
      </g>
      <g id="Group_2352" data-name="Group 2352">
        <path id="Path_10795" data-name="Path 10795" d="M1772.762,788.026l-1.308-1.218q.163-2.915.195-5.878l1.389,1.221Q1772.967,785.113,1772.762,788.026Z" fill="#1f1f1f"/>
        <path id="Path_10796" data-name="Path 10796" d="M1775.6,790.788l-1.269-1.258q.251-2.908.374-5.868l1.351,1.263Q1775.892,787.88,1775.6,790.788Z" fill="#1f1f1f"/>
        <path id="Path_10797" data-name="Path 10797" d="M1778.346,793.635l-1.23-1.3q.342-2.9.555-5.854l1.312,1.3Q1778.731,790.739,1778.346,793.635Z" fill="#1f1f1f"/>
        <path id="Path_10798" data-name="Path 10798" d="M1781.007,796.565l-1.191-1.334q.433-2.887.736-5.834l1.272,1.343Q1781.48,793.681,1781.007,796.565Z" fill="#1f1f1f"/>
        <path id="Path_10799" data-name="Path 10799" d="M1783.576,799.576l-1.149-1.37q.52-2.873.913-5.808l1.23,1.383Q1784.137,796.71,1783.576,799.576Z" fill="#1f1f1f"/>
        <path id="Path_10800" data-name="Path 10800" d="M1786.051,802.666l-1.106-1.4q.606-2.857,1.093-5.778l1.186,1.419Q1786.7,799.817,1786.051,802.666Z" fill="#1f1f1f"/>
        <g id="Group_2351" data-name="Group 2351">
          <path id="Path_10801" data-name="Path 10801" d="M1768.527,782.664l-.03,1.511,1.345,1.178q.084-2.163.1-4.351Z" fill="#1f1f1f"/>
          <path id="Path_10802" data-name="Path 10802" d="M1789.779,800.1l-1.141-1.456q-.425,2.155-.92,4.272l1.736-1.322Z" fill="#1f1f1f"/>
        </g>
      </g>
      <g id="Group_2354" data-name="Group 2354">
        <path id="Path_10803" data-name="Path 10803" d="M1790.71,809.063l-1.018-1.469q.783-2.815,1.447-5.7l1.1,1.492Q1791.53,806.262,1790.71,809.063Z" fill="#1f1f1f"/>
        <path id="Path_10804" data-name="Path 10804" d="M1792.887,812.368l-.97-1.5q.871-2.787,1.622-5.653l1.05,1.524Q1793.8,809.59,1792.887,812.368Z" fill="#1f1f1f"/>
        <path id="Path_10805" data-name="Path 10805" d="M1794.964,815.738l-.925-1.531q.958-2.758,1.8-5.6l1,1.554Q1795.958,812.991,1794.964,815.738Z" fill="#1f1f1f"/>
        <path id="Path_10806" data-name="Path 10806" d="M1796.933,819.169l-.876-1.557q1.042-2.73,1.97-5.542l.954,1.585Q1798.015,816.455,1796.933,819.169Z" fill="#1f1f1f"/>
        <path id="Path_10807" data-name="Path 10807" d="M1798.8,822.662l-.828-1.585q1.123-2.693,2.139-5.478l.9,1.613Q1799.96,819.982,1798.8,822.662Z" fill="#1f1f1f"/>
        <path id="Path_10808" data-name="Path 10808" d="M1800.551,826.208l-.779-1.608q1.208-2.658,2.309-5.409l.854,1.642Q1801.8,823.567,1800.551,826.208Z" fill="#1f1f1f"/>
        <g id="Group_2353" data-name="Group 2353">
          <path id="Path_10809" data-name="Path 10809" d="M1787.72,802.92l-.353,1.47,1.064,1.439q.543-2.095,1.024-4.23Z" fill="#1f1f1f"/>
          <path id="Path_10810" data-name="Path 10810" d="M1804.741,824.51l-.8-1.667q-.878,2.013-1.816,3.972l1.978-.915Z" fill="#1f1f1f"/>
        </g>
      </g>
      <g id="Group_2356" data-name="Group 2356">
        <path id="Path_10811" data-name="Path 10811" d="M1803.722,833.459l-.676-1.654q1.369-2.577,2.639-5.256l.75,1.693Q1805.128,830.9,1803.722,833.459Z" fill="#1f1f1f"/>
        <path id="Path_10812" data-name="Path 10812" d="M1805.137,837.155l-.625-1.675q1.45-2.534,2.8-5.17l.7,1.714Q1806.624,834.642,1805.137,837.155Z" fill="#1f1f1f"/>
        <path id="Path_10813" data-name="Path 10813" d="M1806.435,840.893l-.571-1.693q1.529-2.487,2.961-5.08l.643,1.735Q1808,838.426,1806.435,840.893Z" fill="#1f1f1f"/>
        <path id="Path_10814" data-name="Path 10814" d="M1807.616,844.668l-.519-1.709q1.606-2.437,3.119-4.985l.589,1.754Q1809.257,842.252,1807.616,844.668Z" fill="#1f1f1f"/>
        <path id="Path_10815" data-name="Path 10815" d="M1808.681,848.48l-.466-1.725q1.681-2.388,3.274-4.885l.533,1.771Q1810.395,846.116,1808.681,848.48Z" fill="#1f1f1f"/>
        <path id="Path_10816" data-name="Path 10816" d="M1809.623,852.323l-.41-1.739q1.753-2.333,3.425-4.782l.477,1.787Q1811.414,850.014,1809.623,852.323Z" fill="#1f1f1f"/>
        <g id="Group_2355" data-name="Group 2355">
          <path id="Path_10817" data-name="Path 10817" d="M1802.124,826.815l-.66,1.362.728,1.631q.983-1.926,1.91-3.909Z" fill="#1f1f1f"/>
          <path id="Path_10818" data-name="Path 10818" d="M1814.085,851.573l-.422-1.8q-1.3,1.774-2.633,3.487l2.13-.467Z" fill="#1f1f1f"/>
        </g>
      </g>
      <g id="Group_2358" data-name="Group 2358">
        <path id="Path_10819" data-name="Path 10819" d="M1811.151,860.088l-.3-1.761q1.9-2.22,3.715-4.558l.367,1.814Q1813.078,857.9,1811.151,860.088Z" fill="#1f1f1f"/>
        <path id="Path_10820" data-name="Path 10820" d="M1811.732,864l-.247-1.769q1.965-2.161,3.854-4.441l.311,1.823Q1813.727,861.87,1811.732,864Z" fill="#1f1f1f"/>
        <path id="Path_10821" data-name="Path 10821" d="M1812.193,867.933l-.193-1.777q2.03-2.1,3.991-4.319l.252,1.833Q1814.252,865.864,1812.193,867.933Z" fill="#1f1f1f"/>
        <path id="Path_10822" data-name="Path 10822" d="M1812.531,871.877l-.137-1.783q2.094-2.033,4.124-4.193l.2,1.84Q1814.654,869.871,1812.531,871.877Z" fill="#1f1f1f"/>
        <path id="Path_10823" data-name="Path 10823" d="M1812.75,875.83l-.084-1.786q2.154-1.969,4.25-4.065l.139,1.846Q1814.931,873.89,1812.75,875.83Z" fill="#1f1f1f"/>
        <path id="Path_10824" data-name="Path 10824" d="M1812.846,879.787l-.028-1.788q2.213-1.9,4.37-3.933l.085,1.847Q1815.088,877.916,1812.846,879.787Z" fill="#1f1f1f"/>
        <g id="Group_2357" data-name="Group 2357">
          <path id="Path_10825" data-name="Path 10825" d="M1811.03,853.258l-.938,1.185.355,1.751q1.38-1.669,2.713-3.4Z" fill="#1f1f1f"/>
          <path id="Path_10826" data-name="Path 10826" d="M1817.365,880.009l-.028-1.849q-1.644,1.457-3.317,2.841h2.18Z" fill="#1f1f1f"/>
        </g>
      </g>
    </g>
    <g id="Group_2372" data-name="Group 2372">
      <g id="Group_2361" data-name="Group 2361">
        <path id="Path_10827" data-name="Path 10827" d="M1786.473,907.281q.883-3.427,1.535-6.909a110.5,110.5,0,0,0,19.721-13.748q-.187,4.143-.653,8.271A109.79,109.79,0,0,1,1786.473,907.281Z" fill="#1f1f1f"/>
        <path id="Path_10828" data-name="Path 10828" d="M1781.43,922.1q1.387-3.254,2.553-6.6a109.363,109.363,0,0,0,21.557-10.648q-.8,4.074-1.88,8.089a109.316,109.316,0,0,1-22.231,9.155Z" fill="#1f1f1f"/>
        <path id="Path_10829" data-name="Path 10829" d="M1774.218,936q1.861-3.012,3.515-6.144a109.6,109.6,0,0,0,22.911-7.291q-1.4,3.907-3.073,7.713A109.806,109.806,0,0,1,1774.218,936Z" fill="#1f1f1f"/>
        <path id="Path_10830" data-name="Path 10830" d="M1765.01,948.679q2.291-2.7,4.393-5.556a110.2,110.2,0,0,0,23.744-3.786q-1.975,3.652-4.191,7.164a110.551,110.551,0,0,1-23.946,2.177Z" fill="#1f1f1f"/>
        <path id="Path_10831" data-name="Path 10831" d="M1754.022,959.855q2.665-2.335,5.169-4.844a110.706,110.706,0,0,0,24.043-.216q-2.494,3.316-5.209,6.46a110.953,110.953,0,0,1-24-1.4Z" fill="#1f1f1f"/>
        <path id="Path_10832" data-name="Path 10832" d="M1741.5,969.275q2.978-1.912,5.826-4.023a110.85,110.85,0,0,0,23.81,3.352q-2.959,2.907-6.108,5.614a110.582,110.582,0,0,1-23.529-4.943Z" fill="#1f1f1f"/>
        <g id="Group_2360" data-name="Group 2360">
          <path id="Path_10833" data-name="Path 10833" d="M1794.464,881q-2.336,1.982-4.738,3.8-.126,3.542-.49,7.068A109.446,109.446,0,0,0,1803.184,881Z" fill="#1f1f1f"/>
          <path id="Path_10834" data-name="Path 10834" d="M1750.253,985.114q3.515-2.209,6.874-4.647a112.106,112.106,0,0,1-17.391-4.649l4.367,7.548Q1747.124,984.317,1750.253,985.114Z" fill="#1f1f1f"/>
        </g>
      </g>
      <g id="Group_2363" data-name="Group 2363">
        <path id="Path_10835" data-name="Path 10835" d="M1712.99,982.016q3.41-.944,6.751-2.117a109.571,109.571,0,0,0,21.763,10.22q-3.686,1.911-7.5,3.571a109.441,109.441,0,0,1-21.019-11.674Z" fill="#1f1f1f"/>
        <path id="Path_10836" data-name="Path 10836" d="M1697.628,985.04q3.515-.421,6.994-1.079a109.364,109.364,0,0,0,19.984,13.368q-3.932,1.338-7.949,2.408A109.8,109.8,0,0,1,1697.628,985.04Z" fill="#1f1f1f"/>
        <path id="Path_10837" data-name="Path 10837" d="M1681.961,985.75q3.546.1,7.092-.033a110.566,110.566,0,0,0,17.763,16.208q-4.086.731-8.215,1.187a111.621,111.621,0,0,1-16.639-17.362Z" fill="#1f1f1f"/>
        <path id="Path_10838" data-name="Path 10838" d="M1666.375,984.145q3.483.622,7.006,1.013a111.606,111.606,0,0,0,15.173,18.648q-4.145.119-8.288-.039a110.444,110.444,0,0,1-13.891-19.622Z" fill="#1f1f1f"/>
        <path id="Path_10839" data-name="Path 10839" d="M1651.215,980.231q3.351,1.138,6.772,2.05a109.68,109.68,0,0,0,12.236,20.695q-4.119-.495-8.2-1.268a109.4,109.4,0,0,1-10.8-21.477Z" fill="#1f1f1f"/>
        <path id="Path_10840" data-name="Path 10840" d="M1636.817,974.085q3.141,1.632,6.389,3.044a109.418,109.418,0,0,0,8.994,22.3q-4-1.109-7.926-2.484a109.524,109.524,0,0,1-7.457-22.858Z" fill="#1f1f1f"/>
        <g id="Group_2362" data-name="Group 2362">
          <path id="Path_10841" data-name="Path 10841" d="M1739.737,975.82q-2.884-1.031-5.657-2.206-3.126,1.662-6.358,3.107a107.945,107.945,0,0,0,16.382,6.646Z" fill="#1f1f1f"/>
          <path id="Path_10842" data-name="Path 10842" d="M1627.448,989.568q3.667,1.948,7.461,3.643a111.363,111.363,0,0,1-4.645-17.393l-4.366,7.548Q1626.579,986.46,1627.448,989.568Z" fill="#1f1f1f"/>
        </g>
      </g>
      <g id="Group_2365" data-name="Group 2365">
        <path id="Path_10843" data-name="Path 10843" d="M1611.529,955.725q2.527,2.482,5.216,4.793a110.507,110.507,0,0,0,2,23.961q-3.493-2.242-6.829-4.714a110.792,110.792,0,0,1-.389-24.04Z" fill="#1f1f1f"/>
        <path id="Path_10844" data-name="Path 10844" d="M1601.2,943.936q2.127,2.831,4.445,5.513a110.863,110.863,0,0,0-1.571,23.993q-3.12-2.734-6.053-5.673a110.67,110.67,0,0,1,3.18-23.833Z" fill="#1f1f1f"/>
        <path id="Path_10845" data-name="Path 10845" d="M1592.744,930.75q1.685,3.112,3.574,6.109a110.616,110.616,0,0,0-5.112,23.493q-2.682-3.166-5.146-6.508a110.239,110.239,0,0,1,6.683-23.094Z" fill="#1f1f1f"/>
        <path id="Path_10846" data-name="Path 10846" d="M1586.355,916.455q1.2,3.33,2.618,6.573a109.95,109.95,0,0,0-8.557,22.468q-2.18-3.53-4.121-7.2a109.548,109.548,0,0,1,10.06-21.837Z" fill="#1f1f1f"/>
        <path id="Path_10847" data-name="Path 10847" d="M1582.184,901.367q.686,3.474,1.6,6.893a109.321,109.321,0,0,0-11.827,20.932q-1.629-3.822-3-7.745a109.359,109.359,0,0,1,13.224-20.081Z" fill="#1f1f1f"/>
        <path id="Path_10848" data-name="Path 10848" d="M1580.315,885.811q.16,3.541.557,7.063a109.714,109.714,0,0,0-14.834,18.923q-1.036-4.021-1.8-8.107a110.519,110.519,0,0,1,16.079-17.879Z" fill="#1f1f1f"/>
        <g id="Group_2364" data-name="Group 2364">
          <path id="Path_10849" data-name="Path 10849" d="M1630.264,975.82q-.545-3.014-.909-6-3-1.882-5.866-3.966a108.641,108.641,0,0,0,2.408,17.516Z" fill="#1f1f1f"/>
          <path id="Path_10850" data-name="Path 10850" d="M1562.223,885.442q.149,4.144.571,8.274A113.036,113.036,0,0,1,1575.536,881h-8.72Q1564.481,883.139,1562.223,885.442Z" fill="#1f1f1f"/>
        </g>
      </g>
      <g id="Group_2367" data-name="Group 2367">
        <path id="Path_10851" data-name="Path 10851" d="M1583.529,854.721q-.885,3.425-1.536,6.908a110.446,110.446,0,0,0-19.721,13.747q.185-4.141.65-8.27A109.72,109.72,0,0,1,1583.529,854.721Z" fill="#1f1f1f"/>
        <path id="Path_10852" data-name="Path 10852" d="M1588.572,839.9q-1.389,3.255-2.555,6.6a109.33,109.33,0,0,0-21.556,10.646q.8-4.073,1.879-8.087a109.346,109.346,0,0,1,22.232-9.157Z" fill="#1f1f1f"/>
        <path id="Path_10853" data-name="Path 10853" d="M1595.782,826q-1.86,3.011-3.515,6.145a109.52,109.52,0,0,0-22.912,7.291q1.4-3.908,3.073-7.713A109.886,109.886,0,0,1,1595.782,826Z" fill="#1f1f1f"/>
        <path id="Path_10854" data-name="Path 10854" d="M1604.991,813.321q-2.289,2.7-4.393,5.556a110.205,110.205,0,0,0-23.744,3.787q1.975-3.652,4.191-7.165a110.657,110.657,0,0,1,23.946-2.178Z" fill="#1f1f1f"/>
        <path id="Path_10855" data-name="Path 10855" d="M1615.979,802.147q-2.664,2.334-5.169,4.844a110.738,110.738,0,0,0-24.042.214q2.494-3.314,5.209-6.458a110.816,110.816,0,0,1,24,1.4Z" fill="#1f1f1f"/>
        <path id="Path_10856" data-name="Path 10856" d="M1628.5,792.726q-2.98,1.912-5.827,4.022a110.751,110.751,0,0,0-23.809-3.349q2.958-2.91,6.106-5.616a110.487,110.487,0,0,1,23.53,4.944Z" fill="#1f1f1f"/>
        <g id="Group_2366" data-name="Group 2366">
          <path id="Path_10857" data-name="Path 10857" d="M1575.536,881q2.338-1.982,4.74-3.8.126-3.542.487-7.067A109.566,109.566,0,0,0,1566.817,881Z" fill="#1f1f1f"/>
          <path id="Path_10858" data-name="Path 10858" d="M1619.748,776.888q-3.513,2.207-6.874,4.647a111.648,111.648,0,0,1,17.39,4.648l-4.366-7.548Q1622.875,777.683,1619.748,776.888Z" fill="#1f1f1f"/>
        </g>
      </g>
      <g id="Group_2369" data-name="Group 2369">
        <path id="Path_10859" data-name="Path 10859" d="M1657.01,779.985q-3.411.943-6.751,2.116a109.413,109.413,0,0,0-21.763-10.218q3.686-1.915,7.5-3.572A109.229,109.229,0,0,1,1657.01,779.985Z" fill="#1f1f1f"/>
        <path id="Path_10860" data-name="Path 10860" d="M1672.374,776.96q-3.515.422-6.994,1.079a109.467,109.467,0,0,0-19.984-13.367q3.932-1.34,7.949-2.408a109.73,109.73,0,0,1,19.029,14.7Z" fill="#1f1f1f"/>
        <path id="Path_10861" data-name="Path 10861" d="M1688.039,776.25q-3.545-.1-7.091.034a110.65,110.65,0,0,0-17.763-16.209q4.086-.73,8.214-1.187A111.6,111.6,0,0,1,1688.039,776.25Z" fill="#1f1f1f"/>
        <path id="Path_10862" data-name="Path 10862" d="M1703.627,777.856q-3.484-.623-7.006-1.012a111.562,111.562,0,0,0-15.173-18.648q4.146-.119,8.289.038a110.556,110.556,0,0,1,13.89,19.622Z" fill="#1f1f1f"/>
        <path id="Path_10863" data-name="Path 10863" d="M1718.785,781.769q-3.351-1.139-6.771-2.05a109.651,109.651,0,0,0-12.237-20.695q4.123.5,8.2,1.268a109.4,109.4,0,0,1,10.8,21.477Z" fill="#1f1f1f"/>
        <path id="Path_10864" data-name="Path 10864" d="M1733.185,787.916q-3.142-1.63-6.39-3.044a109.341,109.341,0,0,0-8.993-22.3q4,1.108,7.925,2.484a109.652,109.652,0,0,1,7.458,22.858Z" fill="#1f1f1f"/>
        <g id="Group_2368" data-name="Group 2368">
          <path id="Path_10865" data-name="Path 10865" d="M1630.264,786.182q2.884,1.03,5.656,2.2,3.125-1.659,6.359-3.106a108,108,0,0,0-16.381-6.644Z" fill="#1f1f1f"/>
          <path id="Path_10866" data-name="Path 10866" d="M1742.553,772.432q-3.667-1.947-7.459-3.644a111.577,111.577,0,0,1,4.642,17.395l4.367-7.549Q1743.422,775.541,1742.553,772.432Z" fill="#1f1f1f"/>
        </g>
      </g>
      <g id="Group_2371" data-name="Group 2371">
        <path id="Path_10867" data-name="Path 10867" d="M1758.471,806.277q-2.526-2.486-5.215-4.8a110.589,110.589,0,0,0-2-23.96q3.495,2.241,6.83,4.714A110.69,110.69,0,0,1,1758.471,806.277Z" fill="#1f1f1f"/>
        <path id="Path_10868" data-name="Path 10868" d="M1768.8,818.065q-2.126-2.83-4.445-5.513a110.72,110.72,0,0,0,1.572-23.993q3.121,2.734,6.053,5.673a110.722,110.722,0,0,1-3.181,23.833Z" fill="#1f1f1f"/>
        <path id="Path_10869" data-name="Path 10869" d="M1777.257,831.251q-1.686-3.115-3.575-6.111a110.446,110.446,0,0,0,5.112-23.493q2.683,3.167,5.148,6.509a110.449,110.449,0,0,1-6.684,23.1Z" fill="#1f1f1f"/>
        <path id="Path_10870" data-name="Path 10870" d="M1783.646,845.545q-1.2-3.328-2.618-6.572a110,110,0,0,0,8.557-22.468q2.18,3.531,4.12,7.2a109.579,109.579,0,0,1-10.059,21.835Z" fill="#1f1f1f"/>
        <path id="Path_10871" data-name="Path 10871" d="M1787.818,860.634q-.686-3.473-1.6-6.893a109.33,109.33,0,0,0,11.827-20.931q1.632,3.818,3,7.744a109.453,109.453,0,0,1-13.222,20.08Z" fill="#1f1f1f"/>
        <path id="Path_10872" data-name="Path 10872" d="M1789.685,876.19q-.16-3.539-.556-7.063a109.634,109.634,0,0,0,14.833-18.924q1.037,4.023,1.8,8.106a110.384,110.384,0,0,1-16.078,17.881Z" fill="#1f1f1f"/>
        <g id="Group_2370" data-name="Group 2370">
          <path id="Path_10873" data-name="Path 10873" d="M1739.737,786.182q.543,3.013.908,6,3,1.883,5.866,3.966a108.583,108.583,0,0,0-2.408-17.517Z" fill="#1f1f1f"/>
          <path id="Path_10874" data-name="Path 10874" d="M1807.777,876.559q-.146-4.143-.573-8.273A112.866,112.866,0,0,1,1794.464,881h8.721Q1805.518,878.862,1807.777,876.559Z" fill="#1f1f1f"/>
        </g>
      </g>
    </g>
    <path id="Path_10875" data-name="Path 10875" d="M1685,1005.662a124.662,124.662,0,1,1,88.148-36.513A124.662,124.662,0,0,1,1685,1005.662Zm0-245.416A120.754,120.754,0,1,0,1805.754,881,120.754,120.754,0,0,0,1685,760.246Z" fill="#1f1f1f"/>
    <path id="Path_10876" data-name="Path 10876" d="M1685,989.375a108.372,108.372,0,1,1,76.633-31.741A108.371,108.371,0,0,1,1685,989.375Zm0-212.844A104.47,104.47,0,1,0,1789.47,881,104.47,104.47,0,0,0,1685,776.531Z" fill="#1f1f1f"/>
    <path id="Path_10877" data-name="Path 10877" d="M1785.5,881A100.5,100.5,0,1,1,1685,780.5,100.5,100.5,0,0,1,1785.5,881Z" fill="#1f1f1f"/>
    <path id="Path_10878" data-name="Path 10878" d="M1830.208,889.462l8.054-8.462-8.054-8.462,7.033-9.33-8.977-7.476,5.9-10.083-9.787-6.378,4.682-10.7-10.467-5.189,3.4-11.177-11-3.933,2.073-11.5-11.381-2.628.729-11.66-11.611-1.294-.624-11.667-11.68.052-1.964-11.517-11.6,1.4-3.285-11.211-11.358,2.74-4.568-10.753-10.959,4.047-5.793-10.145-10.411,5.3-6.94-9.4-9.722,6.478-7.986-8.527L1685,735.55l-8.91-7.557-7.985,8.528-9.721-6.479-6.941,9.4-10.41-5.3-5.793,10.145-10.959-4.047-4.567,10.753-11.357-2.74-3.286,11.21-11.6-1.4-1.964,11.518-11.683-.054-.621,11.666-11.611,1.3.729,11.66-11.383,2.628,2.075,11.5-11,3.932,3.4,11.178-10.465,5.188,4.68,10.7-9.788,6.378,5.9,10.083-8.978,7.476,7.032,9.331L1531.738,881l8.054,8.463-7.032,9.329,8.977,7.476-5.9,10.082,9.786,6.378-4.68,10.7,10.465,5.189-3.4,11.177,11,3.933-2.074,11.5,11.382,2.629-.729,11.659,11.61,1.3.622,11.666,11.683-.053,1.964,11.516,11.6-1.4,3.284,11.21,11.358-2.739,4.567,10.752,10.959-4.047,5.793,10.146,10.412-5.3,6.941,9.4,9.721-6.478,7.985,8.527,8.91-7.557,8.909,7.557,7.984-8.528,9.722,6.479,6.94-9.4,10.411,5.3,5.793-10.144,10.959,4.045,4.568-10.752,11.358,2.741,3.285-11.212,11.6,1.4,1.964-11.516,11.681.053.624-11.665,11.611-1.3-.73-11.659,11.382-2.629-2.073-11.5,11-3.934-3.4-11.177,10.468-5.189-4.682-10.7,9.787-6.379-5.9-10.082,8.977-7.476ZM1685,1017.032A136.032,136.032,0,1,1,1821.033,881,136.032,136.032,0,0,1,1685,1017.032Z" fill="#1f1f1f"/>
    <g id="Group_2373" data-name="Group 2373">
      <path id="Path_10879" data-name="Path 10879" d="M1682.565,1070.241c-.511,0-1.021-.005-1.53-.008l-.157,25.587h2.577l-.156-25.583C1683.054,1070.237,1682.809,1070.241,1682.565,1070.241Z" fill="#1f1f1f"/>
      <path id="Path_10880" data-name="Path 10880" d="M1681.241,1036.038l-.183,30.36c.5,0,1,.008,1.507.008.238,0,.474,0,.712,0l-.194-31.907q-.917-.005-1.832-.023Z" fill="#1f1f1f"/>
      <path id="Path_10881" data-name="Path 10881" d="M1708.052,1035.444l3.535,20.943,2.537-.447-3.448-18.748-.887-4.825c-.731.122-1.46.25-2.194.362Z" fill="#1f1f1f"/>
      <path id="Path_10882" data-name="Path 10882" d="M1750.284,1072.567l3.824,10.707,2.42-.882-3.952-10.655Q1751.431,1072.158,1750.284,1072.567Z" fill="#1f1f1f"/>
      <path id="Path_10883" data-name="Path 10883" d="M1734.424,1028.155l15.2,42.56q1.138-.4,2.27-.823l-16.263-43.85-.112-.3c-.579.2-1.155.415-1.737.612Z" fill="#1f1f1f"/>
      <path id="Path_10884" data-name="Path 10884" d="M1759.579,1018.28l9.9,17.437,2.23-1.288-9.045-15.406-2.6-4.424c-.65.366-1.3.734-1.954,1.092Z" fill="#1f1f1f"/>
      <path id="Path_10885" data-name="Path 10885" d="M1781.807,1002.01l18.344,22.132q.858-.706,1.708-1.424l-19.64-23.12-.079-.094c-.478.392-.962.778-1.445,1.164Z" fill="#1f1f1f"/>
      <path id="Path_10886" data-name="Path 10886" d="M1802.659,1027.169l15.969,19.269,1.974-1.655-16.2-19.07Q1803.537,1026.447,1802.659,1027.169Z" fill="#1f1f1f"/>
      <path id="Path_10887" data-name="Path 10887" d="M1802.615,984.406l14.191,12.086,1.656-1.973L1805.8,984.05l-4.235-3.5c-.49.57-.989,1.132-1.487,1.695Z" fill="#1f1f1f"/>
      <path id="Path_10888" data-name="Path 10888" d="M1816.328,960.288l.9.529,38.383,22.472q.617-1.04,1.22-2.091l-39.546-22.514C1816.969,959.22,1816.652,959.756,1816.328,960.288Z" fill="#1f1f1f"/>
      <path id="Path_10889" data-name="Path 10889" d="M1857.351,984.306l9.309,5.45,1.288-2.231-9.368-5.333Q1857.971,983.252,1857.351,984.306Z" fill="#1f1f1f"/>
      <path id="Path_10890" data-name="Path 10890" d="M1831.867,937.49l16,5.956.88-2.42-13.981-4.972-5.629-2c-.267.709-.53,1.418-.807,2.122Z" fill="#1f1f1f"/>
      <path id="Path_10891" data-name="Path 10891" d="M1864.575,914.982q.2-1.1.392-2.2l-28.567-4.858q-.171.926-.354,1.848Z" fill="#1f1f1f"/>
      <path id="Path_10892" data-name="Path 10892" d="M1868.769,913.43q-.192,1.125-.4,2.244l24.038,4.39.448-2.537Z" fill="#1f1f1f"/>
      <path id="Path_10893" data-name="Path 10893" d="M1843.235,882.86l15.674.115V880.4l-14.375.106-5.544.041q-.007,1.143-.029,2.283Z" fill="#1f1f1f"/>
      <path id="Path_10894" data-name="Path 10894" d="M1880.673,847.827q-.2-1.2-.42-2.39l-43.463,7.936c.106.621.211,1.242.309,1.865Z" fill="#1f1f1f"/>
      <path id="Path_10895" data-name="Path 10895" d="M1892.77,845.77l-.447-2.537-10.157,1.855q.216,1.206.421,2.414Z" fill="#1f1f1f"/>
      <path id="Path_10896" data-name="Path 10896" d="M1834.974,827.224l13.63-4.849-.881-2.42-14.305,5.326-3.684,1.372c.261.719.512,1.442.763,2.165Z" fill="#1f1f1f"/>
      <path id="Path_10897" data-name="Path 10897" d="M1867.7,775.831l-1.288-2.23-20.82,12.188q.578.984,1.143,1.976Z" fill="#1f1f1f"/>
      <path id="Path_10898" data-name="Path 10898" d="M1843.33,789.7q-.555-.972-1.121-1.934l-24.065,14.089c.317.547.628,1.1.939,1.648Z" fill="#1f1f1f"/>
      <path id="Path_10899" data-name="Path 10899" d="M1805.059,779.813q-.752-.888-1.514-1.765l-1.4,1.191c.5.583,1,1.164,1.483,1.755Z" fill="#1f1f1f"/>
      <path id="Path_10900" data-name="Path 10900" d="M1806.117,777.986c.159.186.32.371.478.557l.538-.445,11.062-9.145-1.656-1.974-11.477,9.776C1805.417,777.163,1805.767,777.575,1806.117,777.986Z" fill="#1f1f1f"/>
      <path id="Path_10901" data-name="Path 10901" d="M1812.279,728.033q-.926-.784-1.86-1.558l-27.781,33.52c.488.4.966.817,1.45,1.226Z" fill="#1f1f1f"/>
      <path id="Path_10902" data-name="Path 10902" d="M1820.218,718.687l-1.973-1.656-6.534,7.884c.628.52,1.253,1.05,1.876,1.578Z" fill="#1f1f1f"/>
      <path id="Path_10903" data-name="Path 10903" d="M1763.326,742.818l8.022-13.663-2.231-1.288-8.914,15.7-.432.761c.668.375,1.336.752,2,1.136Z" fill="#1f1f1f"/>
      <path id="Path_10904" data-name="Path 10904" d="M1756.057,681.228l-2.419-.881-8.143,22.8q1.073.38,2.146.774Z" fill="#1f1f1f"/>
      <path id="Path_10905" data-name="Path 10905" d="M1746.292,707.558q-1.049-.385-2.1-.76l-9.392,26.3q.9.311,1.789.631Z" fill="#1f1f1f"/>
      <path id="Path_10906" data-name="Path 10906" d="M1710.57,724.878l3.144-17.1-2.537-.447-3.223,19.094c.757.117,1.509.247,2.262.375Z" fill="#1f1f1f"/>
      <path id="Path_10907" data-name="Path 10907" d="M1682.8,684.063l-.274,0c-.668,0-1.333.006-2,.013l.246,40.554c.592-.012,1.186-.017,1.78-.022Z" fill="#1f1f1f"/>
      <path id="Path_10908" data-name="Path 10908" d="M1682.565,678.5h.3l.092-15.227h-2.575l.093,15.239Q1681.516,678.5,1682.565,678.5Z" fill="#1f1f1f"/>
      <path id="Path_10909" data-name="Path 10909" d="M1655.367,725.9l-3.123-18.5-2.537.448,3.638,19.782c.745-.15,1.492-.29,2.241-.429Z" fill="#1f1f1f"/>
      <path id="Path_10910" data-name="Path 10910" d="M1619.318,707.38q-1.05.381-2.091.776l10.07,27.152c.582-.229,1.17-.445,1.756-.668Z" fill="#1f1f1f"/>
      <path id="Path_10911" data-name="Path 10911" d="M1618.013,703.728l-8.289-23.21-2.421.881,8.575,23.119Q1616.943,704.117,1618.013,703.728Z" fill="#1f1f1f"/>
      <path id="Path_10912" data-name="Path 10912" d="M1604.047,745.611l.195-.117-.105-.186-9.782-17.234-2.23,1.288,10.162,17.308Q1603.162,746.133,1604.047,745.611Z" fill="#1f1f1f"/>
      <path id="Path_10913" data-name="Path 10913" d="M1552.268,725.879l-7.065-8.525-1.974,1.655,7.179,8.452Q1551.333,726.663,1552.268,725.879Z" fill="#1f1f1f"/>
      <path id="Path_10914" data-name="Path 10914" d="M1553.556,727.432q-.926.777-1.841,1.565l29.456,34.675c.465-.413.926-.831,1.4-1.238Z" fill="#1f1f1f"/>
      <path id="Path_10915" data-name="Path 10915" d="M1562.578,780.544,1547.025,767.3l-1.656,1.973,17.124,14.156q.7-.882,1.412-1.753Z" fill="#1f1f1f"/>
      <path id="Path_10916" data-name="Path 10916" d="M1522.336,788.769q-.558.96-1.1,1.928l26.5,15.086c.294-.543.6-1.079.9-1.618Z" fill="#1f1f1f"/>
      <path id="Path_10917" data-name="Path 10917" d="M1518.955,786.79l-21.784-12.754-1.287,2.231,21.948,12.494Q1518.388,787.772,1518.955,786.79Z" fill="#1f1f1f"/>
      <path id="Path_10918" data-name="Path 10918" d="M1535.142,827.484l-2.4-.894q-.418,1.078-.821,2.163l4.472,1.591.6.213c.236-.708.48-1.412.725-2.115Z" fill="#1f1f1f"/>
      <path id="Path_10919" data-name="Path 10919" d="M1515.085,822.766l14.993,5.333q.4-1.1.829-2.19l-14.941-5.563Z" fill="#1f1f1f"/>
      <path id="Path_10920" data-name="Path 10920" d="M1482.832,845.81l-11.41-2.083-.447,2.537,11.448,1.947Q1482.62,847.01,1482.832,845.81Z" fill="#1f1f1f"/>
      <path id="Path_10921" data-name="Path 10921" d="M1484.743,846.159q-.211,1.186-.406,2.377l46.462,7.9c.091-.607.191-1.212.288-1.817Z" fill="#1f1f1f"/>
      <path id="Path_10922" data-name="Path 10922" d="M1525.031,880.962l-20.108-.147v2.576l22.193-.163,2.011-.015c-.017-.739-.021-1.48-.028-2.221Z" fill="#1f1f1f"/>
      <path id="Path_10923" data-name="Path 10923" d="M1496.405,913.711l-25.344,4.31.448,2.537,25.293-4.618Q1496.6,914.828,1496.405,913.711Z" fill="#1f1f1f"/>
      <path id="Path_10924" data-name="Path 10924" d="M1529.722,908.045l-29.511,5.019q.189,1.093.392,2.182l29.161-5.325Q1529.737,908.984,1529.722,908.045Z" fill="#1f1f1f"/>
      <path id="Path_10925" data-name="Path 10925" d="M1535.236,934.3l-20.009,7.117.881,2.42L1536,936.43l3.376-1.257c-.265-.688-.531-1.375-.786-2.068Z" fill="#1f1f1f"/>
      <path id="Path_10926" data-name="Path 10926" d="M1549.583,957.532q.613.7,1.242,1.393l.085-.05q-.468-.783-.928-1.57Z" fill="#1f1f1f"/>
      <path id="Path_10927" data-name="Path 10927" d="M1496.134,987.96l1.288,2.231,10.278-6.018q-.616-1.047-1.22-2.1Z" fill="#1f1f1f"/>
      <path id="Path_10928" data-name="Path 10928" d="M1546.481,959.3l-38.258,21.781q.6,1.043,1.212,2.079l38.305-22.427Q1547.1,960.018,1546.481,959.3Z" fill="#1f1f1f"/>
      <path id="Path_10929" data-name="Path 10929" d="M1562.617,980.8l-16.98,14.037,1.656,1.973,15.206-12.951,3.966-3.378q-.718-.837-1.425-1.684Z" fill="#1f1f1f"/>
      <path id="Path_10930" data-name="Path 10930" d="M1543.614,1045.1l1.973,1.655,16.5-19.905q-.87-.722-1.732-1.454Z" fill="#1f1f1f"/>
      <path id="Path_10931" data-name="Path 10931" d="M1562.9,1022.4q.843.717,1.7,1.424l20.641-24.905c-.468-.388-.929-.783-1.392-1.177Z" fill="#1f1f1f"/>
      <path id="Path_10932" data-name="Path 10932" d="M1603.763,1015.426l-11.28,19.21,2.232,1.288,9.929-17.493,2.464-4.342c-.639-.366-1.27-.744-1.9-1.119Z" fill="#1f1f1f"/>
      <path id="Path_10933" data-name="Path 10933" d="M1629.045,1025.209l-16.48,44.439q1.129.421,2.262.828L1631,1025.189c-.572-.208-1.139-.428-1.708-.643Z" fill="#1f1f1f"/>
      <path id="Path_10934" data-name="Path 10934" d="M1607.776,1082.563l2.419.88,3.971-11.118q-1.144-.41-2.284-.836Z" fill="#1f1f1f"/>
      <path id="Path_10935" data-name="Path 10935" d="M1654.1,1034.378l-3.979,21.634,2.536.448,3.3-19.563.807-4.783c-.728-.13-1.45-.274-2.175-.413Z" fill="#1f1f1f"/>
    </g>
  </g>
</svg>
