<svg xmlns="http://www.w3.org/2000/svg" width="54.322" height="33.916" viewBox="0 0 54.322 33.916">
  <g id="Group_223" data-name="Group 223" transform="translate(-692.865 -526.327)">
    <path id="Path_1006" data-name="Path 1006" d="M700.57,529.407c-.849.019-2.154.072-2.542-.472-.4-.56.286-1.306.779-1.77.2-.191-.279-.4-.555-.239-.906.545-1.615,1.517-1.163,2.255.507.826,2.325.895,3.609.753C701.233,529.874,701.108,529.4,700.57,529.407Z" fill="#333350"/>
    <path id="Path_1007" data-name="Path 1007" d="M710.235,546.273a6.457,6.457,0,0,0-3.37-3.21,9.951,9.951,0,0,0-10.643,1.919c-2.141,2.09-3.873,5.4-3.216,8.466,1.195,5.573,9.446,8.774,14.107,5.442C710.662,556.351,712.189,550.286,710.235,546.273Zm-1.144,5.665-5.916-.036a1.229,1.229,0,0,0-.164-.669,1.164,1.164,0,0,0-.253-.3l-.019-.019q2.208-2.723,4.51-5.349a4.842,4.842,0,0,1,.577.519,6.345,6.345,0,0,1,1.267,5.853Zm-14.357-.088a7.993,7.993,0,0,1,1.175-4l4.914,3.538a1.168,1.168,0,0,0-.09.5Zm12.412-6.362q-2.294,2.62-4.5,5.341a1.049,1.049,0,0,0-.654-.235c.16-2.11.365-4.216.618-6.305a7.328,7.328,0,0,1,4.54,1.2Zm-8.635-.184a9.825,9.825,0,0,1,3.964-1.01q-.379,3.136-.618,6.309a1.1,1.1,0,0,0-.425.147,1.239,1.239,0,0,0-.552.518l-4.9-3.53a6.732,6.732,0,0,1,2.534-2.434Zm-3.521,8.313a5.66,5.66,0,0,1-.254-1.637l6.009.037a1.255,1.255,0,0,0,.371.72q-1.669,2.113-3.27,4.267a5.819,5.819,0,0,1-2.856-3.387Zm9.359,4.333a10.676,10.676,0,0,1-6.386-.886q1.591-2.139,3.252-4.243a1.189,1.189,0,0,0,.415.209c.021.006.043.01.064.014q-.145,2.5-.2,5l.13,0q.056-2.483.2-4.978a1.242,1.242,0,0,0,.929-.291L707.239,556a4.618,4.618,0,0,1-2.89,1.945Zm3.637-3.111a9.346,9.346,0,0,1-.669,1.062l-4.471-3.218a1.172,1.172,0,0,0,.317-.651l5.9.036q-.082.343-.189.678a12.3,12.3,0,0,1-.887,2.093Z" fill="#333"/>
    <path id="Path_1008" data-name="Path 1008" d="M746.864,547.17a6.457,6.457,0,0,0-2.783-3.731,9.951,9.951,0,0,0-10.815.1c-2.462,1.7-4.725,4.671-4.592,7.805.241,5.694,7.837,10.237,12.992,7.735C745.591,557.176,748.115,551.454,746.864,547.17Zm-2.08,5.392-5.826-1.03a1.229,1.229,0,0,0-.05-.687,1.163,1.163,0,0,0-.2-.336l-.016-.022q2.634-2.313,5.345-4.515a4.833,4.833,0,0,1,.482.608,6.345,6.345,0,0,1,.265,5.982Zm-14.138-2.5a7.991,7.991,0,0,1,1.831-3.747l4.25,4.313a1.161,1.161,0,0,0-.173.479Zm13.3-4.186q-2.7,2.2-5.338,4.508a1.049,1.049,0,0,0-.605-.342q.768-3.08,1.669-6.112a7.329,7.329,0,0,1,4.273,1.945Zm-8.481-1.633a9.826,9.826,0,0,1,4.077-.329q-.9,3.028-1.669,6.115a1.1,1.1,0,0,0-.444.073,1.241,1.241,0,0,0-.631.418l-4.24-4.3A6.732,6.732,0,0,1,735.469,544.243Zm-4.868,7.6a5.661,5.661,0,0,1,.024-1.657l5.918,1.046a1.254,1.254,0,0,0,.245.772q-2,1.8-3.94,3.657a5.818,5.818,0,0,1-2.247-3.818Zm8.5,5.844a10.678,10.678,0,0,1-6.147-1.946q1.928-1.841,3.919-3.636a1.19,1.19,0,0,0,.374.275c.02.009.041.017.061.025q-.564,2.441-1.04,4.89l.127.025q.472-2.438,1.036-4.873a1.241,1.241,0,0,0,.964-.131l3.881,3.939a4.618,4.618,0,0,1-3.175,1.432Zm4.108-2.455a9.326,9.326,0,0,1-.838.935l-3.866-3.924a1.2,1.2,0,0,0,.369-.451,1.225,1.225,0,0,0,.053-.137l5.808,1.027q-.139.324-.3.636a12.3,12.3,0,0,1-1.226,1.914Z" fill="#333"/>
    <path id="Path_1009" data-name="Path 1009" d="M724.261,534.575a42.51,42.51,0,0,1-4.892-.058q-2.574-.071-5.147-.185t-5.143-.263a48.98,48.98,0,0,0-5.138-.27c-.3.014-.394.48-.074.547a36.959,36.959,0,0,0,4.955.457q2.57.178,5.142.308t5.147.219c1.7.058,3.459-.029,5.149.173C724.853,535.574,724.866,534.521,724.261,534.575Z" fill="#333350"/>
    <path id="Path_1010" data-name="Path 1010" d="M726.458,526.924a48.519,48.519,0,0,0-2.345,10.789c-.513,3.751-.834,7.536-1.479,11.268-.057.333.446.48.513.141.717-3.634,1.156-7.3,1.665-10.968.253-1.828.545-3.65.915-5.458.386-1.891.934-3.718,1.491-5.563C727.366,526.638,726.636,526.46,726.458,526.924Z" fill="#333350"/>
    <path id="Path_1011" data-name="Path 1011" d="M737.871,551.229a43.428,43.428,0,0,0-5.436-8.071c-2.232-2.841-4.45-5.708-6.761-8.468-.232-.277-.568.125-.364.409,2.078,2.884,4.258,5.682,6.417,8.49a43.574,43.574,0,0,1,5.379,8.143C737.368,552.3,738.141,551.8,737.871,551.229Z" fill="#333350"/>
    <path id="Path_1012" data-name="Path 1012" d="M738.893,550.589c-1.286-.215-2.613-.288-3.911-.42q-2.156-.22-4.314-.4c-2.79-.241-5.591-.434-8.391-.512-.377-.011-.365.546,0,.578,2.711.238,5.426.436,8.137.686,1.354.125,2.708.253,4.061.394,1.433.149,2.872.393,4.308.491C739.245,551.431,739.354,550.666,738.893,550.589Z" fill="#333350"/>
    <path id="Path_1013" data-name="Path 1013" d="M722.833,548.784a23.263,23.263,0,0,0-2.178-1.547q-1.26-.874-2.517-1.751-2.41-1.682-4.8-3.387c-3.192-2.27-6.359-4.575-9.572-6.817-.26-.181-.59.245-.339.44,3.053,2.368,6.177,4.643,9.3,6.912q2.381,1.728,4.769,3.446,1.141.823,2.285,1.643a25.637,25.637,0,0,0,2.513,1.761C722.724,549.718,723.224,549.128,722.833,548.784Z" fill="#333350"/>
    <path id="Path_1014" data-name="Path 1014" d="M704.043,527.937a.349.349,0,0,0-.7,0c-.256,2.016-.307,4.072-.437,6.1q-.2,3.162-.4,6.325a53.981,53.981,0,0,1-1.7,11.951.568.568,0,0,0,1.094.3,53.64,53.64,0,0,0,1.6-12.008c.107-2.1.2-4.21.293-6.316S704.081,530.049,704.043,527.937Z" fill="#333350"/>
    <path id="Path_1015" data-name="Path 1015" d="M703.724,527.58c-.911-.176-1.848-.261-2.769-.373a16.278,16.278,0,0,0-3.186-.3.321.321,0,0,0-.085.627,15.042,15.042,0,0,0,2.912.523c1,.151,2,.337,3.006.429A.462.462,0,0,0,703.724,527.58Z" fill="#333350"/>
    <path id="Path_1016" data-name="Path 1016" d="M699.8,530.648c-.849.028-2.154.106-2.542-.7-.4-.825.286-1.926.779-2.611.2-.282-.279-.6-.555-.352-.906.8-1.615,2.238-1.163,3.326.507,1.219,2.325,1.32,3.609,1.11C700.466,531.338,700.341,530.631,699.8,530.648Z" fill="#333350"/>
    <path id="Path_1017" data-name="Path 1017" d="M729.971,526.329c-1.544.1-3.079.226-4.627.26-.772.017-1.544.008-2.316,0a6.51,6.51,0,0,0-2.145.114.34.34,0,0,0-.081.616,5.185,5.185,0,0,0,1.969.354c.77.064,1.544.082,2.315.1a42.668,42.668,0,0,0,4.884-.122C730.807,527.572,730.829,526.274,729.971,526.329Z" fill="#333350"/>
    <path id="Path_1018" data-name="Path 1018" d="M723.966,550.208a1.19,1.19,0,0,0-.506-.642,2.105,2.105,0,0,0-2.862.414,2.082,2.082,0,0,0,.736,2.994,2.566,2.566,0,0,0,1.6.34,2.08,2.08,0,0,0,1.3-1.03,1.673,1.673,0,0,0-.269-2.076Z" fill="#4d4d4d"/>
    <g id="Group_222" data-name="Group 222">
      <path id="Path_1019" data-name="Path 1019" d="M726.232,545.775a9.377,9.377,0,0,0-2.392.661c-.307.139-.138.669.192.569a11.457,11.457,0,0,1,2.341-.5C726.842,546.463,726.71,545.7,726.232,545.775Z" fill="#4d4d4d"/>
      <path id="Path_1020" data-name="Path 1020" d="M723.822,546.5a41.473,41.473,0,0,0-1.8,3.977c-.173.417.5.651.661.232.524-1.327,1.13-2.627,1.633-3.961C724.426,546.456,723.975,546.218,723.822,546.5Z" fill="#4d4d4d"/>
    </g>
    <path id="Path_1021" data-name="Path 1021" d="M721.307,552.442a9.274,9.274,0,0,0-.278,1.494,8.555,8.555,0,0,1-.111,1.435,10.2,10.2,0,0,1-1.745-.212c-.662-.166-.943.858-.281,1.02a5.271,5.271,0,0,0,2.435.131.464.464,0,0,0,.341-.449c-.019-.475.083-.975.1-1.452a17.188,17.188,0,0,1,.21-1.781.349.349,0,0,0-.672-.186Z" fill="#4d4d4d"/>
  </g>
</svg>
