<svg xmlns="http://www.w3.org/2000/svg" width="25.634" height="43.969" viewBox="0 0 25.634 43.969">
  <path id="Path_988" data-name="Path 988" d="M257.6,208.374c-1.782,0-12.254-.969-14.392-1.8a14.3,14.3,0,0,1,1.588-3.244c1.486-2.435,5.642-9.911,7.805-13.6,0,0,.594-.713-1.544-.713h-9.611a1.33,1.33,0,0,0-1.428,1.03,163.276,163.276,0,0,0-6.684,22.132s-.238,1.188,3.4,1.188,5.779-.475,10.53,0c0,0,.836.081-.219,1.946-1.669,2.95-11.184,16.821-11.184,16.821s-.713,1.9,2.613,0,6.476-6.386,10.262-9.474,9.1-10.719,10.169-13.094C258.908,209.562,259.383,208.374,257.6,208.374Z" transform="translate(-233.331 -189.007)" fill="#e0c74e"/>
</svg>
