<svg xmlns="http://www.w3.org/2000/svg" width="199.543" height="138.456" viewBox="0 0 199.543 138.456">
  <g id="Group_2170" data-name="Group 2170" transform="translate(-633.36 -26.185)">
    <path id="Path_9683" data-name="Path 9683" d="M668.426,164.641a15.976,15.976,0,0,1-15.958-15.958v-.834h-.834a6.121,6.121,0,0,1-6.114-6.114V124.62l-.218-.239c-.119-.131-11.941-13.279-11.941-28.968S645.183,66.576,645.3,66.445l.218-.239V49.091a6.121,6.121,0,0,1,6.114-6.114h.834v-.834a15.976,15.976,0,0,1,15.958-15.957H797.838A15.975,15.975,0,0,1,813.8,42.143v.834h.834a6.121,6.121,0,0,1,6.115,6.114V66.206l.218.239c.119.131,11.941,13.28,11.941,28.968,0,15.708-11.822,28.837-11.941,28.968l-.218.239v17.115a6.121,6.121,0,0,1-6.115,6.114H813.8v.834a15.975,15.975,0,0,1-15.957,15.958Z" fill="#1f1f1f"/>
    <path id="Path_9684" data-name="Path 9684" d="M668.426,164.641a15.976,15.976,0,0,1-15.958-15.958v-.834h-.834a6.121,6.121,0,0,1-6.114-6.114V124.62l-.218-.239c-.119-.131-11.941-13.279-11.941-28.968S645.183,66.576,645.3,66.445l.218-.239V49.091a6.121,6.121,0,0,1,6.114-6.114h.834v-.834a15.976,15.976,0,0,1,15.958-15.957H797.838A15.975,15.975,0,0,1,813.8,42.143v.834h.834a6.121,6.121,0,0,1,6.115,6.114V66.206l.218.239c.119.131,11.941,13.28,11.941,28.968,0,15.708-11.822,28.837-11.941,28.968l-.218.239v17.115a6.121,6.121,0,0,1-6.115,6.114H813.8v.834a15.975,15.975,0,0,1-15.957,15.958Z" fill="#1f1f1f"/>
    <path id="Path_9685" data-name="Path 9685" d="M797.838,160.641H668.426a11.971,11.971,0,0,1-11.958-11.958v-4.834h-4.834a2.116,2.116,0,0,1-2.113-2.114V123.067l-1.266-1.385c-.116-.129-10.893-12.325-10.893-26.27,0-13.964,10.8-26.165,10.91-26.287l1.25-1.367V49.091a2.116,2.116,0,0,1,2.113-2.114h4.834V42.143a11.971,11.971,0,0,1,11.958-11.958H797.838a11.971,11.971,0,0,1,11.957,11.958v4.834h4.834a2.116,2.116,0,0,1,2.114,2.114V67.758l1.267,1.385c.116.13,10.893,12.354,10.893,26.269,0,13.965-10.8,26.164-10.908,26.286l-1.251,1.369v18.667a2.116,2.116,0,0,1-2.114,2.114h-4.834v4.834a11.971,11.971,0,0,1-11.957,11.958ZM651.633,48.977a.115.115,0,0,0-.113.114V68.535l-1.768,1.933c-.1.109-10.392,11.8-10.392,24.944,0,13.121,10.274,24.813,10.377,24.929l1.782,1.949v19.444a.115.115,0,0,0,.113.114h6.834v6.834a9.969,9.969,0,0,0,9.958,9.958H797.838a9.969,9.969,0,0,0,9.957-9.958v-6.834h6.834a.116.116,0,0,0,.114-.114V122.291l1.769-1.935c.1-.109,10.39-11.786,10.39-24.943,0-13.109-10.274-24.812-10.378-24.929l-1.782-1.949V49.091a.116.116,0,0,0-.114-.114h-6.834V42.143a9.968,9.968,0,0,0-9.957-9.958H668.426a9.969,9.969,0,0,0-9.958,9.958v6.834Z" fill="#fff"/>
  </g>
</svg>
