<svg xmlns="http://www.w3.org/2000/svg" xmlns:xlink="http://www.w3.org/1999/xlink" width="95.164" height="57.405" viewBox="0 0 95.164 57.405">
  <defs>
    <linearGradient id="linear-gradient" x1="0.465" y1="1.08" x2="0.563" y2="-0.136" gradientUnits="objectBoundingBox">
      <stop offset="0" stop-color="#3c5ba9"/>
      <stop offset="1" stop-color="#5bcaec"/>
    </linearGradient>
    <linearGradient id="linear-gradient-2" x1="0.577" y1="1.028" x2="0.432" y2="-0.261" gradientUnits="objectBoundingBox">
      <stop offset="0" stop-color="#f15c27"/>
      <stop offset="1" stop-color="#fde963"/>
    </linearGradient>
  </defs>
  <g id="Group_65" data-name="Group 65" transform="translate(-1347.364 -447.396)">
    <path id="Path_557" data-name="Path 557" d="M1442.528,466.006c0,15.718-20.461,27.59-20.566,27.661l3.816,11.134h-17.92s-.875-3.029-1.217-4.612c-10.979,3.42-25.678,3.576-32.928-3.977l-8.377,8.589h-17.973l42.627-43.157h20.836l7.053,20.094c-1.889,1.778-10.488,6.468-14.846,8.111-.744-2.37-5.779-18.4-5.779-18.4l-19.4,20.305a11.091,11.091,0,0,1-7.211-8.323c-3.357,14.623,25.963,17.594,47.775,2.271s17.514-34.4-7.375-32.333C1417.6,449.827,1442.528,450.288,1442.528,466.006Z" fill-rule="evenodd" fill="url(#linear-gradient)"/>
    <path id="Path_558" data-name="Path 558" d="M1410.458,449.685l-4.207,1.3-2.463-3.584-.1,4.373-4.206,1.295,4.18,1.476-.141,4.385,2.721-3.557,4.17,1.435-2.582-3.546Z" fill="url(#linear-gradient-2)"/>
  </g>
</svg>
