<svg xmlns="http://www.w3.org/2000/svg" width="130.419" height="112.313" viewBox="0 0 130.419 112.313">
  <g id="Group_2385" data-name="Group 2385" transform="translate(-1328.647 -948.318)">
    <path id="Path_11071" data-name="Path 11071" d="M1451.6,991.706c10.42-6.168,9.243-18.652.745-24.175,1.966-3.254,4.962-9.65,1.055-13.557-4.029-4.029-10.551-.875-13.612.994-5.55-8.417-17.974-9.582-24.121.8-3.411,5.762-3.784,16.645-2.986,32.489l-.643-.643c-.552-.552-1.692-.308-2.546.546s-1.1,1.993-.545,2.545l2.312,2.312-4.858,4.858-2.312-2.312c-.552-.552-1.692-.308-2.546.546s-1.1,1.994-.546,2.546l2.312,2.312-1.988,1.988-2.312-2.312c-.552-.552-1.692-.308-2.545.545s-1.1,1.994-.546,2.546l1.539,1.539-44.3,44.3,4.637,4.637,2.461-2.461,8.879,8.879,4.515-4.515-3.091-3.091-1.338,1.338-1.982-1.982,1.338-1.338,2.09-2.09,1.839-1.839,1.982,1.982-1.839,1.839,3.091,3.091,3.93-3.93-8.879-8.879,31.3-31.3,1.539,1.539c.553.553,1.692.308,2.546-.546s1.1-1.992.545-2.545l-2.312-2.312,1.988-1.988,2.312,2.312c.553.553,1.692.308,2.546-.546s1.1-1.993.546-2.546l-2.312-2.312,4.858-4.858,2.312,2.312c.553.553,1.692.308,2.545-.545s1.1-1.993.546-2.546l-.644-.644C1434.952,995.489,1445.835,995.116,1451.6,991.706Zm-1.088-34.845c1.764,1.763-.156,6.131-1.871,8.891a18.974,18.974,0,0,0-6.065-.957,18.9,18.9,0,0,0-.984-6.134c2.3-1.427,6.973-3.748,8.92-1.8Zm-32.626,32.625s-3.415-25.916,3.221-32.552c5.841-5.841,16.345-2.907,17,9.737.12,2.328,1.267,2.554,1.87,2.567,13.255.286,16.411,11.076,10.461,17.026C1443.8,992.9,1417.884,989.487,1417.884,989.487Z" fill="#1f1f1f"/>
    <path id="Path_11072" data-name="Path 11072" d="M1368.6,994.691l-.644.644c-.553.553-.308,1.692.546,2.546s1.993,1.1,2.545.545l2.312-2.312,4.858,4.858-2.312,2.312c-.553.553-.308,1.692.546,2.546s1.993,1.1,2.546.546l2.312-2.312,1.988,1.988-2.312,2.312c-.553.553-.309,1.691.545,2.545s1.993,1.1,2.546.546l1.539-1.539,31.3,31.3-8.879,8.879,3.93,3.93,3.091-3.091-1.839-1.839,1.982-1.982,1.839,1.839,2.09,2.09,1.338,1.338-1.982,1.982-1.338-1.338-3.091,3.091,4.515,4.515,8.879-8.879,2.461,2.461,4.637-4.637-44.3-44.3,1.539-1.539c.552-.552.308-1.692-.546-2.546s-1.993-1.1-2.545-.545l-2.312,2.312-1.988-1.988,2.312-2.312c.552-.552.308-1.692-.546-2.546s-1.994-1.1-2.546-.546l-2.312,2.312-4.858-4.858,2.312-2.312c.552-.552.308-1.692-.545-2.545s-1.994-1.1-2.546-.546l-.643.643c.8-15.844.425-26.727-2.986-32.489-6.147-10.387-18.571-9.221-24.121-.8-3.062-1.869-9.583-5.023-13.612-.994-3.907,3.907-.911,10.3,1.055,13.557-8.5,5.523-9.675,18.007.745,24.175C1341.877,995.116,1352.76,995.489,1368.6,994.691Zm-22.482-36.029a18.9,18.9,0,0,0-.984,6.134,18.975,18.975,0,0,0-6.065.956c-1.715-2.76-3.634-7.127-1.871-8.891C1339.149,954.914,1343.821,957.235,1346.122,958.662Zm-8.845,27.6c-5.95-5.95-2.794-16.74,10.461-17.026.6-.013,1.751-.239,1.87-2.567.654-12.644,11.158-15.579,17-9.737,6.636,6.636,3.221,32.552,3.221,32.552S1343.913,992.9,1337.277,986.266Z" fill="#1f1f1f"/>
  </g>
</svg>
