<svg xmlns="http://www.w3.org/2000/svg" width="41.071" height="51.91" viewBox="0 0 41.071 51.91">
  <g id="Group_237" data-name="Group 237" transform="translate(-888.731 -25.398)">
    <path id="Path_1080" data-name="Path 1080" d="M898.982,47.607l-2.31.478,2.31-.476v0l-2.31.478,2.31-.476-2.213.455,2.213-.455h0l-2.213.455,2.213-.455-.1.02.1-.02h0l-.1.02.1-.02-.437.09.437-.089h0l-.437.09.437-.089c0-.007-.1-.519-.207-1.363a28.253,28.253,0,0,1-.2-3.347,22.089,22.089,0,0,1,.41-4.37A10.457,10.457,0,0,1,900.1,35.56a11.324,11.324,0,0,1,1.47-2.058,10.471,10.471,0,0,1,1.389-1.29A9.062,9.062,0,0,1,905.4,30.86a8.16,8.16,0,0,1,2.8-.492q.138,0,.277,0h0a26.355,26.355,0,0,1,4.153.442,16.054,16.054,0,0,1,2.631.732,10.341,10.341,0,0,1,1.6.759,7.389,7.389,0,0,1,.957.67,5.539,5.539,0,0,1,1.057,1.153,5.049,5.049,0,0,1,.661,1.406,25.506,25.506,0,0,1,1,5.946c.055.916.077,1.814.105,2.718s.061,1.814.147,2.749a2.485,2.485,0,1,0,4.949-.455c-.07-.752-.1-1.564-.128-2.447-.041-1.323-.071-2.806-.239-4.46a29.284,29.284,0,0,0-1.071-5.47,10.019,10.019,0,0,0-2.2-3.9A11.68,11.68,0,0,0,919.33,28a15.433,15.433,0,0,0-2.421-1.138,21.836,21.836,0,0,0-3.994-1.041,32.254,32.254,0,0,0-4.275-.411h0q-.222-.007-.441-.007a13.15,13.15,0,0,0-2.736.286,13.5,13.5,0,0,0-4.229,1.693,14.9,14.9,0,0,0-2.6,2.02,16.2,16.2,0,0,0-2.9,3.807,15.4,15.4,0,0,0-1.614,4.333,26.994,26.994,0,0,0-.51,5.364,33.165,33.165,0,0,0,.249,4.03c.125,1.01.252,1.629.263,1.683a2.485,2.485,0,1,0,4.867-1.007Z" fill="#5e625e"/>
    <path id="Path_1081" data-name="Path 1081" d="M897.084,46.719s10.561-.2,15.668-.345,12.7.212,15.047.411,1.657,3.236,1.657,4.893.051,10.083.095,12.7.84,10.925-.647,11.731c-4.072,2.209-23.537.635-29.749.87s-10.077.372-10.215-2.526a143.932,143.932,0,0,1,0-15.461c.414-4-1.242-12.474,3.451-12.375Z" fill="#6d9dbf"/>
    <path id="Path_1082" data-name="Path 1082" d="M908.023,62.494a1.81,1.81,0,0,1,0-3.146c2.135-1.685,4.7-.337,4.37.449s.057,1.573-1.314,2.7a10.356,10.356,0,0,0,.595,3.629s.112.528-1.18.416a17.25,17.25,0,0,1-3.42-.416C906.45,65.864,908.023,62.494,908.023,62.494Z" fill="#fff"/>
  </g>
</svg>
