<svg xmlns="http://www.w3.org/2000/svg" xmlns:xlink="http://www.w3.org/1999/xlink" width="64.331" height="71.725" viewBox="0 0 64.331 71.725">
  <defs>
    <linearGradient id="linear-gradient" x1="0.039" y1="0.759" x2="0.946" y2="-0.028" gradientUnits="objectBoundingBox">
      <stop offset="0" stop-color="#55499e"/>
      <stop offset="1" stop-color="#ef5691"/>
    </linearGradient>
    <linearGradient id="linear-gradient-2" x1="-0.023" y1="0.871" x2="1.55" y2="-0.485" xlink:href="#linear-gradient"/>
    <linearGradient id="linear-gradient-3" x1="-0.075" y1="1.23" x2="1.054" y2="-0.244" xlink:href="#linear-gradient"/>
  </defs>
  <g id="Group_35" data-name="Group 35" transform="translate(-353.178 -311.803)">
    <path id="Path_321" data-name="Path 321" d="M417.445,321.767,417.388,320l-1.766.023c-.2,0-.409,0-.614,0h-.342a59.009,59.009,0,0,1-28.431-7.715l-.9-.508-.894.52a58.683,58.683,0,0,1-28.427,7.722c-.327,0-.647,0-.953-.008L353.3,320l-.058,1.764a76.252,76.252,0,0,0,3.312,25.554,64.679,64.679,0,0,0,19.784,29.869,57.5,57.5,0,0,0,8.1,5.811l.9.526.9-.525a57.035,57.035,0,0,0,8.115-5.811,64.621,64.621,0,0,0,19.777-29.87,76.3,76.3,0,0,0,3.308-25.554Zm-32.1,57.6c-7.078-4.373-28.992-20.787-28.563-55.745a59.912,59.912,0,0,0,18.114-3.137,62.955,62.955,0,0,0,10.45-4.555,63.425,63.425,0,0,0,10.453,4.555,59.827,59.827,0,0,0,18.106,3.137c.434,35.007-21.481,51.385-28.56,55.745Z" fill="url(#linear-gradient)"/>
    <path id="Path_322" data-name="Path 322" d="M381.075,345.2c10.264-17.535-13.875-8.712-20.14-6.2a59.271,59.271,0,0,0,24.413,37.226,57.578,57.578,0,0,0,12.674-11.846C390.229,363.681,369.907,364.281,381.075,345.2Z" fill="url(#linear-gradient-2)"/>
    <path id="Path_323" data-name="Path 323" d="M394.979,323.15a68.782,68.782,0,0,1-9.631-4.042,68.134,68.134,0,0,1-9.632,4.042,65.346,65.346,0,0,1-16.219,3.24c.068,2.553.259,5,.557,7.335,7.982-2.4,42.278-11.816,28.921,8.36-13.05,19.713,8.586,15.37,14.628,13.851a64.6,64.6,0,0,0,7.589-29.546,65.291,65.291,0,0,1-16.212-3.24Z" fill="url(#linear-gradient-3)"/>
  </g>
</svg>
