<svg xmlns="http://www.w3.org/2000/svg" width="201.224" height="231.103" viewBox="0 0 201.224 231.103">
  <g id="Group_2380" data-name="Group 2380" transform="translate(-1259.855 -689.168)">
    <path id="Path_11028" data-name="Path 11028" d="M1285.011,805.193l69.4-3.82-32.171-61.61,38.011,58.191,37.271-58.665L1366.13,801.3l69.438,2.949-69.393,3.819,32.164,61.609-38.006-58.19-37.268,58.664,31.388-62.008Z" fill="#1f1f1f"/>
    <g id="Group_2379" data-name="Group 2379">
      <path id="Path_11029" data-name="Path 11029" d="M1284.519,763.439l69.82,39.728-14.731.093-55.089-39.821m-24.663-15.867,79.246,57.281,21.187-.136Z" fill="#1f1f1f"/>
      <path id="Path_11030" data-name="Path 11030" d="M1360.289,804.717Z" fill="#1f1f1f"/>
      <path id="Path_11031" data-name="Path 11031" d="M1360.289,804.717h0l-21.187.136h0l-78.518,58.272,99.7-58.408Z" fill="#1f1f1f"/>
      <path id="Path_11032" data-name="Path 11032" d="M1360.289,804.717l-10.712-18.281h0l-89.722-38.864h0l100.434,57.145Z" fill="#1f1f1f"/>
      <path id="Path_11033" data-name="Path 11033" d="M1358.154,718.459l.506,80.331-7.445-12.712,6.939-67.619m1.408-29.291-9.985,97.268,10.711,18.281Z" fill="#1f1f1f"/>
      <path id="Path_11034" data-name="Path 11034" d="M1360.289,804.717Z" fill="#1f1f1f"/>
      <path id="Path_11035" data-name="Path 11035" d="M1360.289,804.717Z" fill="#1f1f1f"/>
      <path id="Path_11036" data-name="Path 11036" d="M1360.289,804.717Z" fill="#1f1f1f"/>
      <path id="Path_11037" data-name="Path 11037" d="M1433.925,759.741l-69.316,40.6,7.287-12.8,62.029-27.8m26.068-13.426L1370.769,786.3l-10.48,18.414h0l99.7-58.4Z" fill="#1f1f1f"/>
      <path id="Path_11038" data-name="Path 11038" d="M1360.291,804.717h0Z" fill="#1f1f1f"/>
      <path id="Path_11039" data-name="Path 11039" d="M1460.249,747.067l-.615-1.462h0l.717,1.42-.354-.707Z" fill="#1f1f1f"/>
      <path id="Path_11040" data-name="Path 11040" d="M1360.289,804.717Z" fill="#1f1f1f"/>
      <path id="Path_11041" data-name="Path 11041" d="M1360.289,804.717Z" fill="#1f1f1f"/>
      <path id="Path_11042" data-name="Path 11042" d="M1360.289,804.717l10.479-18.415-11.206-97.134.727,115.549Z" fill="#1f1f1f"/>
      <path id="Path_11043" data-name="Path 11043" d="M1381.476,804.586l78.518-58.271h0l-99.7,58.4Z" fill="#1f1f1f"/>
      <path id="Path_11044" data-name="Path 11044" d="M1360.289,804.717Z" fill="#1f1f1f"/>
      <path id="Path_11045" data-name="Path 11045" d="M1380.966,806.18,1436.057,846l-69.821-39.73,14.73-.092m.51-1.594-21.184.131h0l100.43,57.145h0l-79.246-57.275Z" fill="#1f1f1f"/>
      <path id="Path_11046" data-name="Path 11046" d="M1459.994,746.315h0Z" fill="#1f1f1f"/>
      <path id="Path_11047" data-name="Path 11047" d="M1360.289,804.717l-10.478,18.416,11.2,97.138-.725-115.554Z" fill="#1f1f1f"/>
      <path id="Path_11048" data-name="Path 11048" d="M1355.971,809.094l-7.286,12.8-62.03,27.8,69.317-40.6m4.317-4.377-99.7,58.408h0l89.227-39.991Z" fill="#1f1f1f"/>
      <path id="Path_11049" data-name="Path 11049" d="M1460.468,862.62h0l.251-.755-.356.711h0l.359-.715.249-.753-.246.751.354-.706-.357.708Z" fill="#1f1f1f"/>
      <path id="Path_11050" data-name="Path 11050" d="M1371,823h0l89.719,38.861-100.43-57.144Z" fill="#1f1f1f"/>
      <path id="Path_11051" data-name="Path 11051" d="M1361.917,810.647l7.447,12.711-6.942,67.623-.5-80.333m-1.629-5.93.725,115.554L1371,823l-10.711-18.284Z" fill="#1f1f1f"/>
      <path id="Path_11052" data-name="Path 11052" d="M1460.468,862.616h0l.5-1.508Z" fill="#1f1f1f"/>
    </g>
  </g>
</svg>
