<svg xmlns="http://www.w3.org/2000/svg" xmlns:xlink="http://www.w3.org/1999/xlink" width="25.361" height="36.51" viewBox="0 0 25.361 36.51">
  <defs>
    <linearGradient id="linear-gradient" x1="83.856" y1="11.526" x2="83.392" y2="11.085" gradientUnits="objectBoundingBox">
      <stop offset="0" stop-color="#ffdc00"/>
      <stop offset="0.967" stop-color="#ee7b09"/>
      <stop offset="1" stop-color="#ea5c10"/>
    </linearGradient>
  </defs>
  <g id="Group_186" data-name="Group 186" transform="translate(-33.302 -403.069)">
    <path id="Path_698" data-name="Path 698" d="M33.3,421.533a8.845,8.845,0,1,0,17.685.408,8.561,8.561,0,0,0-.384-2.734c-1.246-7.131-10.852-16.138-10.852-16.138,2.216,4.833-2.433,10.666-2.433,10.666a13.157,13.157,0,0,0-3.375,4.739A8.49,8.49,0,0,0,33.3,421.533Zm5.043-7.817c-.032.032-.067.06-.1.092a1.464,1.464,0,0,0-.15-.2s.094.039.248.107Zm8.686-.284c-.041.045-.065.1-.1.147-.022-.021-.045-.043-.069-.064l.171-.084Z" fill="url(#linear-gradient)"/>
    <g id="Group_171" data-name="Group 171">
      <g id="Group_169" data-name="Group 169">
        <path id="Path_699" data-name="Path 699" d="M53.3,427.418c-2.647,1.192-2.809-.242-2.809-.242-.047-.563,1.051-1.09,1.051-1.09a2.759,2.759,0,0,1,.006-2.993c-.1-.977.47-1.041.47-1.041,2.564,1.515,2.011,3.41,2.011,3.41l.247-.21.1.008-1.028,2.282Z" fill="#1d1d1b"/>
        <path id="Path_700" data-name="Path 700" d="M53.346,428.157l-.174-.416a4.381,4.381,0,0,1-1.617.4,1.176,1.176,0,0,1-1.3-.935c-.046-.544.569-.988.945-1.207a2.977,2.977,0,0,1,.1-2.961c-.062-.9.419-1.194.691-1.224l.082-.011.07.043c1.9,1.122,2.187,2.452,2.183,3.171l.422.026Zm-1.357-5.839c-.112.066-.244.276-.195.75l.008.087-.048.074a2.488,2.488,0,0,0-.01,2.715l.169.236-.262.127c-.382.183-.936.58-.914.848.007.042.092.493.817.493A4.288,4.288,0,0,0,53.2,427.2l.05-.024.533-1.181-.216.181.228-.778c.018-.068.442-1.694-1.808-3.076Z" fill="#fff"/>
      </g>
      <g id="Group_170" data-name="Group 170">
        <path id="Path_701" data-name="Path 701" d="M53.481,427.5c.862,2.772,2.043,1.943,2.043,1.943.452-.336.119-1.51.119-1.51a2.757,2.757,0,0,0,2.238-1.988c.8-.573.468-1.041.468-1.041-2.833-.916-3.886.754-3.886.754l-.007-.323-.076-.073-1.028,2.282Z" fill="#1d1d1b"/>
        <path id="Path_702" data-name="Path 702" d="M55.105,429.8c-.507,0-1.218-.353-1.78-1.992l-.425.146,1.4-3.118.3.3a3.148,3.148,0,0,1,2.155-.754,5.48,5.48,0,0,1,1.664.287l.078.024.047.066c.158.225.255.784-.457,1.332a2.989,2.989,0,0,1-2.149,2.041c.085.425.162,1.181-.273,1.5a1.016,1.016,0,0,1-.565.164ZM53.7,427.375l.016.051c.511,1.642,1.091,1.888,1.391,1.888a.557.557,0,0,0,.281-.074c.208-.153.138-.833.022-1.241l-.08-.278.289-.03a2.517,2.517,0,0,0,2.027-1.808l.023-.085.071-.051c.385-.276.456-.51.431-.644a4.9,4.9,0,0,0-1.409-.228,2.443,2.443,0,0,0-2.091.916l-.432.669-.006-.27Z" fill="#fff"/>
      </g>
    </g>
    <g id="Group_174" data-name="Group 174">
      <g id="Group_172" data-name="Group 172">
        <path id="Path_703" data-name="Path 703" d="M54.553,421.028c-1.833.824-1.945-.17-1.945-.17-.032-.387.729-.754.729-.754a1.9,1.9,0,0,1,0-2.071c-.07-.678.325-.722.325-.722,1.774,1.049,1.392,2.36,1.392,2.36l.172-.144.071,0-.71,1.582Z" fill="#1d1d1b"/>
        <path id="Path_704" data-name="Path 704" d="M54.583,421.572l-.129-.3a3.005,3.005,0,0,1-1.112.27.829.829,0,0,1-.917-.659c-.031-.378.386-.688.651-.843a2.079,2.079,0,0,1,.075-2.048c-.04-.629.3-.837.492-.86l.062-.006.053.032a2.581,2.581,0,0,1,1.518,2.194l.3.015Zm-.941-4.06c-.071.049-.152.189-.119.5l.007.066-.036.055A1.706,1.706,0,0,0,53.486,420l.126.178-.2.095c-.272.13-.641.4-.626.573,0,.026.063.327.553.327a2.955,2.955,0,0,0,1.136-.31l.03-.015.341-.758-.139.117.17-.584C54.894,419.575,55.182,418.46,53.642,417.512Z" fill="#fff"/>
      </g>
      <g id="Group_173" data-name="Group 173">
        <path id="Path_705" data-name="Path 705" d="M54.675,421.083c.6,1.92,1.415,1.343,1.415,1.343.314-.232.082-1.043.082-1.043a1.909,1.909,0,0,0,1.549-1.378c.553-.395.324-.72.324-.72-1.96-.635-2.69.521-2.69.521l-.006-.225-.052-.051-.71,1.582Z" fill="#1d1d1b"/>
        <path id="Path_706" data-name="Path 706" d="M55.8,422.691c-.354,0-.849-.244-1.24-1.374l-.313.106.994-2.209.215.213a2.206,2.206,0,0,1,1.492-.516,3.786,3.786,0,0,1,1.155.2l.059.017.035.051c.112.159.181.552-.315.937a2.085,2.085,0,0,1-1.483,1.415c.058.3.1.816-.2,1.041a.723.723,0,0,1-.4.117ZM54.842,421l.009.03c.255.824.6,1.3.949,1.3a.376.376,0,0,0,.187-.049c.131-.1.091-.553.008-.843l-.06-.21.217-.023a1.726,1.726,0,0,0,1.391-1.239l.016-.064.055-.04c.252-.18.306-.333.295-.422a3.345,3.345,0,0,0-.963-.157,1.687,1.687,0,0,0-1.437.627l-.322.5,0-.17Z" fill="#fff"/>
      </g>
    </g>
    <g id="Group_177" data-name="Group 177">
      <g id="Group_175" data-name="Group 175">
        <path id="Path_707" data-name="Path 707" d="M54.831,416.342c-1.281.489-1.391-.168-1.391-.168-.034-.257.5-.474.5-.474a1.166,1.166,0,0,1-.059-1.366c-.072-.448.208-.465.208-.465,1.3.744,1.063,1.6,1.063,1.6l.119-.089.051,0-.459,1.02Z" fill="#1d1d1b"/>
        <path id="Path_708" data-name="Path 708" d="M54.864,416.688l-.094-.193a2.288,2.288,0,0,1-.743.149c-.5,0-.681-.295-.707-.452-.035-.253.246-.446.432-.542a1.293,1.293,0,0,1,0-1.344.558.558,0,0,1,.091-.429.348.348,0,0,1,.237-.132l.037,0,.032.019c.954.548,1.126,1.162,1.14,1.493l.212.019Zm-.8-2.689a.123.123,0,0,0-.041.036.389.389,0,0,0-.03.28l.008.047-.028.042a1.035,1.035,0,0,0,.056,1.219l.1.128-.15.06c-.181.076-.435.24-.421.346,0,.021.062.244.466.244a2.254,2.254,0,0,0,.761-.172l.018-.008.233-.518-.1.077.1-.348c.007-.03.178-.757-.963-1.434Z" fill="#fff"/>
      </g>
      <g id="Group_176" data-name="Group 176">
        <path id="Path_709" data-name="Path 709" d="M54.921,416.384c.483,1.281,1.048.928,1.048.928.216-.144.028-.684.028-.684a1.17,1.17,0,0,0,1.063-.862c.382-.244.209-.465.209-.465-1.417-.476-1.9.263-1.9.263l-.01-.147-.038-.036-.459,1.02Z" fill="#1d1d1b"/>
        <path id="Path_710" data-name="Path 710" d="M55.785,417.478c-.254,0-.618-.166-.938-.947l-.2.055.635-1.411.158.146a1.486,1.486,0,0,1,.957-.3,2.872,2.872,0,0,1,.915.166l.035.011.022.028a.348.348,0,0,1,.06.266.558.558,0,0,1-.261.352,1.3,1.3,0,0,1-1.007.888c.05.2.093.54-.117.682a.49.49,0,0,1-.254.064Zm-.756-1.155.007.017c.435,1.151.865.869.871.867.082-.056.039-.355-.026-.542l-.053-.153.161-.008a1.053,1.053,0,0,0,.951-.767l.01-.047.043-.026a.391.391,0,0,0,.19-.214.166.166,0,0,0,0-.049,2.631,2.631,0,0,0-.79-.138,1.093,1.093,0,0,0-.923.368l-.2.293-.008-.119Z" fill="#fff"/>
      </g>
    </g>
    <g id="Group_180" data-name="Group 180">
      <g id="Group_178" data-name="Group 178">
        <path id="Path_711" data-name="Path 711" d="M54.148,412.786c-.6.722-.854.327-.854.327-.094-.157.153-.467.153-.467a.893.893,0,0,1-.423-.873c-.167-.272-.011-.37-.011-.37.963.078,1.07.709,1.07.709l.043-.1.031-.011.025.81Z" fill="#1d1d1b"/>
        <path id="Path_712" data-name="Path 712" d="M53.514,413.283a.322.322,0,0,1-.27-.138c-.089-.149.042-.374.114-.482a.961.961,0,0,1-.4-.877c-.18-.306.018-.435.019-.437l.017-.009h.021a1.178,1.178,0,0,1,1.079.62l.118-.047.03,1.039-.092-.081a.956.956,0,0,1-.641.412Zm-.479-1.818c-.023.028-.061.108.042.276l.012.017,0,.023a.832.832,0,0,0,.391.813l.064.034-.045.057c-.071.091-.2.306-.147.4a.206.206,0,0,0,.166.078c.111,0,.3-.072.587-.414l.017-.021-.015-.508-.044.1-.035-.195c0-.025-.114-.574-.989-.658Z" fill="#fff"/>
      </g>
      <g id="Group_179" data-name="Group 179">
        <path id="Path_713" data-name="Path 713" d="M54.212,412.784c.645.686.871.276.871.276.085-.163-.18-.457-.18-.457a.893.893,0,0,0,.372-.9c.152-.28-.011-.37-.011-.37-.956.134-1.027.769-1.027.769l-.048-.091L54.157,412l.025.81Z" fill="#1d1d1b"/>
        <path id="Path_714" data-name="Path 714" d="M54.85,413.243a1,1,0,0,1-.64-.372l-.087.085-.031-1.039.122.042a1.173,1.173,0,0,1,1.041-.682l.02,0,.018.011s.206.117.044.435a.962.962,0,0,1-.344.9c.079.1.223.319.143.472A.331.331,0,0,1,54.85,413.243Zm-.611-.52.016.019c.295.312.486.378.594.378a.2.2,0,0,0,.179-.091c.047-.093-.095-.3-.172-.386l-.047-.054.062-.038a.83.83,0,0,0,.342-.833l0-.021.01-.021c.093-.17.05-.249.026-.276-.868.132-.946.69-.948.714l-.025.2-.049-.1Z" fill="#fff"/>
      </g>
    </g>
    <g id="Group_183" data-name="Group 183">
      <g id="Group_181" data-name="Group 181">
        <path id="Path_715" data-name="Path 715" d="M40.595,432.422c-7.174.436-6.286-3.027-6.286-3.027.383-1.342,3.389-1.6,3.389-1.6-1.119-4.253,2.638-6.923,2.638-6.923.624-2.351,2-2,2-2,4.6,5.755,1.663,9.657,1.663,9.657l.756-.268.235.108-4.38,4.38Z" fill="#1d1d1b"/>
        <path id="Path_716" data-name="Path 716" d="M40.157,433.9l-.034-.96c-2.939.113-4.877-.436-5.8-1.623a2.5,2.5,0,0,1-.491-2.037c.365-1.279,2.285-1.742,3.27-1.9-.668-3.73,2.127-6.245,2.8-6.791.587-2,1.752-2.22,2.234-2.22a1.337,1.337,0,0,1,.313.034l.159.042.1.127c3.45,4.314,2.862,7.649,2.216,9.24l.9.41Zm1.926-14.546c-.3.023-.9.255-1.276,1.65l-.046.17-.144.1c-.142.1-3.465,2.536-2.449,6.4l.147.563-.578.049c-.872.076-2.742.48-2.96,1.247a1.521,1.521,0,0,0,.333,1.2c.451.567,1.561,1.241,4.29,1.241.367,0,.759-.011,1.164-.036l.179-.011,2.664-2.664-.781.278.978-1.3C43.714,428.093,46.19,424.618,42.084,419.35Z" fill="#fff"/>
      </g>
      <g id="Group_182" data-name="Group 182">
        <path id="Path_717" data-name="Path 717" d="M40.938,432.766c-.436,7.174,3.025,6.286,3.025,6.286,1.345-.384,1.6-3.39,1.6-3.39,4.252,1.119,6.921-2.638,6.921-2.638,2.351-.624,2-2,2-2-5.756-4.6-9.656-1.663-9.656-1.663l.267-.756-.108-.236-4.38,4.38Z" fill="#1d1d1b"/>
        <path id="Path_718" data-name="Path 718" d="M43.613,439.578h0a2.591,2.591,0,0,1-1.9-.846c-.957-1.017-1.391-2.865-1.291-5.495l-.959-.034,5.672-5.672.414.905a6.959,6.959,0,0,1,2.6-.486,10.741,10.741,0,0,1,6.642,2.694l.127.1.041.159c0,.019.421,1.782-2.183,2.547a7.536,7.536,0,0,1-5.64,2.908,6.491,6.491,0,0,1-1.154-.1c-.154.984-.616,2.906-1.883,3.267a1.9,1.9,0,0,1-.485.055Zm-2.177-6.963-.011.18c-.2,3.261.436,4.663,1,5.268a1.6,1.6,0,0,0,1.185.537h0a.866.866,0,0,0,.234-.023c.751-.214,1.153-2.082,1.228-2.955l.049-.58.562.149a5.74,5.74,0,0,0,1.447.191,6.7,6.7,0,0,0,4.952-2.638l.1-.146.171-.045c1.407-.372,1.627-1,1.651-1.275a9.664,9.664,0,0,0-5.863-2.349,5.387,5.387,0,0,0-3.027.826l-1.3.979.276-.782Z" fill="#fff"/>
      </g>
    </g>
  </g>
</svg>
