<svg xmlns="http://www.w3.org/2000/svg" width="113.236" height="146.493" viewBox="0 0 113.236 146.493">
  <g id="Group_2155" data-name="Group 2155" transform="translate(-1323.952 -529.232)">
    <path id="Path_9639" data-name="Path 9639" d="M1380.569,670.271c-6.329-8.419-15.411-13.147-24.232-17.738-15.155-7.888-28.239-14.7-28.239-38.346,0-9.4,1.866-17.7,3.671-25.727,3.2-14.242,6.237-27.742-3.419-42.052l24.7-14.175h55.032l24.7,14.175c-9.656,14.31-6.621,27.81-3.419,42.051,1.806,8.032,3.672,16.332,3.672,25.728,0,23.648-13.084,30.458-28.233,38.343C1395.982,657.123,1386.9,661.851,1380.569,670.271Z" fill="#fff"/>
    <path id="Path_9640" data-name="Path 9640" d="M1407.287,535.232l21.313,12.228c-8.283,14.41-5.174,28.234-2.156,41.656,1.769,7.868,3.6,16,3.6,25.07,0,21.828-11.747,27.942-26.626,35.685-7.74,4.029-16.277,8.472-22.847,15.713-6.57-7.241-15.11-11.685-22.853-15.716-14.872-7.741-26.619-13.855-26.619-35.682,0-9.069,1.829-17.2,3.6-25.07,3.018-13.421,6.127-27.246-2.156-41.656l21.313-12.229h53.434m1.6-6h-56.632l-28.3,16.238c11.206,14.233,8.277,27.268,4.89,42.329-1.841,8.188-3.744,16.654-3.744,26.386,0,25.469,14.5,33.015,29.85,41,9.741,5.07,19.8,10.306,25.623,20.534,5.82-10.228,15.882-15.464,25.623-20.534,15.351-7.99,29.85-15.536,29.85-41,0-9.733-1.9-18.2-3.745-26.386-3.387-15.061-6.317-28.1,4.89-42.329l-28.3-16.238Z" fill="#1f1f1f"/>
  </g>
</svg>
