<svg xmlns="http://www.w3.org/2000/svg" xmlns:xlink="http://www.w3.org/1999/xlink" width="110.988" height="99.589" viewBox="0 0 110.988 99.589">
  <defs>
    <radialGradient id="radial-gradient" cx="0.765" cy="0.739" r="0.778" gradientTransform="translate(0.065) scale(0.869 1)" gradientUnits="objectBoundingBox">
      <stop offset="0" stop-color="#ff4696"/>
      <stop offset="1" stop-color="#ff86ba"/>
    </radialGradient>
  </defs>
  <g id="Group_2418" data-name="Group 2418" transform="translate(-376.188 -130.772)">
    <path id="Path_11145" data-name="Path 11145" d="M411.543,221.63a39.447,39.447,0,0,0,5.833-13.992A34.585,34.585,0,0,1,411.4,205.4a8.96,8.96,0,0,1-12.133-1.752c-.491.035-.983.053-1.469.053a20.382,20.382,0,0,1-10.411-37.9,16.707,16.707,0,0,1,19.567-22.263,27.753,27.753,0,0,1,48.23,5.768,21.492,21.492,0,0,1,26.763,30.14,13.937,13.937,0,0,1-12.116,23.536,16.7,16.7,0,0,1-26.5,1.548,34.314,34.314,0,0,1-12.406,4.054c-6.936,8.567-17.342,14.592-17.788,14.848l-5.11,2.933Z" fill="url(#radial-gradient)"/>
    <path id="Path_11146" data-name="Path 11146" d="M429.472,133.228a26.528,26.528,0,0,1,25.016,17.7,20.261,20.261,0,0,1,25.918,28.742,12.71,12.71,0,0,1-11.162,21.944,15.472,15.472,0,0,1-25.611,1.321,33.309,33.309,0,0,1-13.349,4.481c-6.864,8.693-17.754,14.943-17.754,14.943a40.487,40.487,0,0,0,6.274-15.628,33.28,33.28,0,0,1-7.544-2.775,7.733,7.733,0,0,1-11.415-1.6,19.361,19.361,0,0,1-2.049.109,19.155,19.155,0,0,1-8.846-36.143,15.477,15.477,0,0,1,18.514-21.382,26.492,26.492,0,0,1,22.008-11.719m0-2.456a28.95,28.95,0,0,0-23.03,11.39A17.939,17.939,0,0,0,385.9,165.28a21.606,21.606,0,0,0,11.9,39.648q.463,0,.931-.02a10.187,10.187,0,0,0,12.764,1.893,35.819,35.819,0,0,0,4.433,1.694,37.975,37.975,0,0,1-5.37,12.406l-7.026,9.46,10.223-5.869c.448-.257,10.744-6.219,17.819-14.76a35.5,35.5,0,0,0,11.5-3.674,17.918,17.918,0,0,0,27.33-1.768,15.162,15.162,0,0,0,13.025-25.056,22.726,22.726,0,0,0-27.576-31.481,28.985,28.985,0,0,0-26.381-16.981Z" fill="#fff"/>
  </g>
</svg>
