<svg xmlns="http://www.w3.org/2000/svg" width="22.207" height="36.177" viewBox="0 0 22.207 36.177">
  <g id="Group_405" data-name="Group 405" transform="translate(-715.654 -362.662)">
    <path id="Path_1616" data-name="Path 1616" d="M715.663,370.835q.019-2.889.083-5.779a2.571,2.571,0,0,1,.362-1.522c.6-.819,1.924-.888,3.042-.87l9.783.163c1.593.027,3.185.047,4.778.08.871.018,2.536-.139,3.105.574a1.592,1.592,0,0,1,.26.936c.175,2.915.527,5.72.586,8.659.068,3.365.161,6.73.192,10.1.045,4.92-.11,9.807-.436,14.713a.9.9,0,0,1-.881.837c-3.65.059-18.222.181-19.554.078h0a.9.9,0,0,1-.858-.869C715.859,388.9,715.6,379.867,715.663,370.835Z" fill="#4d4d4d"/>
    <path id="Path_1617" data-name="Path 1617" d="M718.53,373.484q.014-2.14.062-4.28a1.9,1.9,0,0,1,.268-1.127c.448-.606,1.425-.658,2.253-.644l7.246.121c1.18.02,2.359.035,3.539.059.645.013,1.878-.1,2.3.425a1.178,1.178,0,0,1,.192.693c.13,2.159.39,4.236.434,6.413.05,2.492.119,4.984.142,7.477.033,3.644-.081,7.264-.323,10.9a.665.665,0,0,1-.653.62c-2.7.043-13.5.134-14.482.058h0a.67.67,0,0,1-.635-.643C718.675,386.864,718.486,380.173,718.53,373.484Z" fill="#c7d9e2"/>
    <g id="Group_404" data-name="Group 404">
      <path id="Path_1618" data-name="Path 1618" d="M728.8,364.344a3.9,3.9,0,0,0-.819-.047l-1.878.024c-.358,0-.816.048-.875.216-.03.085.067.169.193.231.536.262,3.63.381,3.8-.116C729.266,364.522,729.056,364.4,728.8,364.344Z" fill="#5e625e"/>
      <path id="Path_1619" data-name="Path 1619" d="M724.9,364.4a.32.32,0,0,0-.383-.08.458.458,0,0,0-.24.32.373.373,0,0,0,.029.273.36.36,0,0,0,.508.068.441.441,0,0,0,.113-.51Z" fill="#5e625e"/>
    </g>
    <path id="Path_1620" data-name="Path 1620" d="M728.552,397.176a.781.781,0,0,0-.507-.856,2.279,2.279,0,0,0-1.073-.084l-1.493.122a1.832,1.832,0,0,0-.907.236.631.631,0,0,0-.234.821,8.606,8.606,0,0,0,2.977.331C727.805,397.742,728.422,397.647,728.552,397.176Z" fill="#5e625e"/>
    <path id="Path_1621" data-name="Path 1621" d="M728.356,380.63q2.451,4.241,4.8,8.544c.527.96,1.036,1.942,1.566,2.911.181-3.153.269-6.3.24-9.465-.023-2.493-.092-4.985-.142-7.477-.044-2.177-.3-4.254-.434-6.413a1.179,1.179,0,0,0-.192-.693c-.422-.528-1.655-.412-2.3-.425-1.179-.024-2.359-.039-3.539-.059l-7.246-.121a3.9,3.9,0,0,0-1.836.291C722.231,372.076,725.72,376.067,728.356,380.63Z" fill="#fff" opacity="0.26"/>
  </g>
</svg>
