<svg xmlns="http://www.w3.org/2000/svg" xmlns:xlink="http://www.w3.org/1999/xlink" width="68.803" height="56.012" viewBox="0 0 68.803 56.012">
  <defs>
    <linearGradient id="linear-gradient" x1="0.012" y1="0.5" x2="0.964" y2="0.5" gradientUnits="objectBoundingBox">
      <stop offset="0" stop-color="#493292"/>
      <stop offset="1" stop-color="#ef4573"/>
    </linearGradient>
    <linearGradient id="linear-gradient-2" x1="-0.404" y1="0.5" x2="1.359" y2="0.5" xlink:href="#linear-gradient"/>
  </defs>
  <g id="Group_98" data-name="Group 98" transform="translate(-350.943 -1082.314)">
    <path id="Path_647" data-name="Path 647" d="M418.933,1108.23a13.353,13.353,0,0,0-2.668-4.309,17.941,17.941,0,0,0-4.733-3.623c-.533-.285-1.009-.507-1.38-.669a19.828,19.828,0,0,0-2.8-7.968,19.038,19.038,0,0,0-4.133-4.7,22.334,22.334,0,0,0-6.542-3.658,16.369,16.369,0,0,0-5.614-.987,18.253,18.253,0,0,0-6.364,1.181,21.574,21.574,0,0,0-5.422,2.975,21.042,21.042,0,0,0-4.094,4.027,15.93,15.93,0,0,0-1.419,2.213q-.535-.324-1.08-.595a10.9,10.9,0,0,0-4.859-1.217,9.466,9.466,0,0,0-5.491,1.788,10.027,10.027,0,0,0-4.265,7.181,12.794,12.794,0,0,0-.014,3.046,14.411,14.411,0,0,0-3.1,2.349,13.41,13.41,0,0,0-2.774,3.972,14.271,14.271,0,0,0-1.238,5.954,11.306,11.306,0,0,0,5.184,9.794,14.6,14.6,0,0,0,7.4,2.42h.712v-3.6h-.712a11.033,11.033,0,0,1-5.4-1.815,7.725,7.725,0,0,1-3.58-6.8,10.027,10.027,0,0,1,2.9-7.32,10.313,10.313,0,0,1,3.232-2.235l1.613-.57-.492-1.642a8.98,8.98,0,0,1-.149-3.148,6.422,6.422,0,0,1,2.746-4.632,5.853,5.853,0,0,1,3.431-1.142,9.374,9.374,0,0,1,5.588,2.38l2.143,1.787.747-2.689c.6-2.162,2.567-4.7,5.134-6.625a16.327,16.327,0,0,1,9.626-3.436,12.772,12.772,0,0,1,4.382.771c9.851,3.587,11.075,11.872,11.217,14.327,0,0,.047,1.05.1,1.7a10.658,10.658,0,0,1,5.853,2.667,9.561,9.561,0,0,1,3.477,8.45,9.881,9.881,0,0,1-4.9,8.02,14.253,14.253,0,0,1-4.474,1.657v3.661c.456-.072.923-.163,1.424-.281a17.407,17.407,0,0,0,4.89-1.94,13.463,13.463,0,0,0,4.369-4.084,14.275,14.275,0,0,0,2.279-6.7A13.265,13.265,0,0,0,418.933,1108.23Z" fill="url(#linear-gradient)"/>
    <path id="Path_648" data-name="Path 648" d="M403.339,1127.921a7.5,7.5,0,0,0-13.131-1.255l-14.055-6.13.754-1.436-5.042.565,2.419,4.431.749-1.43,2.819,1.23a4.487,4.487,0,1,1,.973-3.363l3.108,1.371a7.679,7.679,0,0,0,.045-.836,7.592,7.592,0,0,0-2.228-5.382l-.028-.027,6.719-8.493a8.4,8.4,0,1,0-1.812-1.581l-6.861,8.674c-.143-.071-.289-.14-.437-.2a7.608,7.608,0,1,0,3.446,11.117l8.429,3.675a7.493,7.493,0,1,0,14.13-.929Zm-12.332-33.091a5.281,5.281,0,1,1-5.281,5.281,5.281,5.281,0,0,1,5.281-5.281Zm5.428,40.379a4.372,4.372,0,1,1,4.371-4.371,4.372,4.372,0,0,1-4.371,4.371Z" fill="url(#linear-gradient-2)"/>
  </g>
</svg>
