<svg xmlns="http://www.w3.org/2000/svg" width="89.937" height="84.816" viewBox="0 0 89.937 84.816">
  <g id="Group_2230" data-name="Group 2230" transform="translate(-691.781 -862.859)">
    <path id="Path_10296" data-name="Path 10296" d="M781.637,895.824a.279.279,0,0,0-.115-.462,111.25,111.25,0,0,1-16.659-6.52.279.279,0,0,0-.4.292c.679,4.309.829,7.282.1,10.814a4.368,4.368,0,0,1-4.94,3.434c-6.89-1.091-14.923-4.708-13.78-8.758,1.631-5.784,4.445-8.464,8.826-11.548a.279.279,0,0,0,.006-.452c-6.713-4.983-12.35-11.254-17.687-19.636a.279.279,0,0,0-.47,0c-5.34,8.382-10.978,14.653-17.691,19.636a.279.279,0,0,0,.006.452c4.38,3.084,7.195,5.764,8.826,11.548,1.143,4.05-6.89,7.667-13.776,8.758a4.372,4.372,0,0,1-4.943-3.434c-.732-3.532-.582-6.5.1-10.813a.279.279,0,0,0-.4-.293,111.187,111.187,0,0,1-16.656,6.52.279.279,0,0,0-.115.462c11.878,12.03,17.932,21.989,20.724,39.527,5.728,2.742,15.069,3.736,24.163,3.736s18.432-.994,24.16-3.736C763.7,917.813,769.756,907.854,781.637,895.824ZM755.1,918.182a.118.118,0,0,1,0,.209,47.749,47.749,0,0,0-18.021,17.817.38.38,0,0,1-.668,0,48,48,0,0,0-17.592-17.589.379.379,0,0,1,0-.668,47.815,47.815,0,0,0,17.821-18.025.118.118,0,0,1,.209,0A47.586,47.586,0,0,0,755.1,918.182Z" fill="#1f1f1f"/>
    <path id="Path_10297" data-name="Path 10297" d="M766.042,941.209a3.266,3.266,0,0,0-1.736-2.617l-3.4-1.783c-5.729,2.74-15.07,3.736-24.162,3.736s-18.433-1-24.162-3.736l-3.4,1.783a3.266,3.266,0,0,0-1.736,2.617c-.4,4.765,22.094,6.466,29.294,6.466S766.443,945.974,766.042,941.209Z" fill="#1f1f1f"/>
    <path id="Path_10298" data-name="Path 10298" d="M747.95,917.953a30.8,30.8,0,0,1-10.867-10.871.381.381,0,0,0-.666,0,30.807,30.807,0,0,1-10.871,10.871.382.382,0,0,0,0,.666,30.8,30.8,0,0,1,10.871,10.867.381.381,0,0,0,.666,0A30.788,30.788,0,0,1,747.95,918.62a.381.381,0,0,0,0-.666Z" fill="#1f1f1f"/>
  </g>
</svg>
