<svg xmlns="http://www.w3.org/2000/svg" width="56.786" height="39.742" viewBox="0 0 56.786 39.742">
  <g id="Group_294" data-name="Group 294" transform="translate(-501.947 -31.482)">
    <path id="Path_1193" data-name="Path 1193" d="M557.7,34.5a35.209,35.209,0,0,1-4.85,6.408C549.285,44.891,535.457,54.529,533.571,56s-3.562,0-4.722,0-17.906-11.523-21.677-13.828-4.424-4.75-4.424-4.75a11.372,11.372,0,0,0-.346,2.446s-2.144,28.914,2.885,30.171,41.485,1.886,49.028,0C560.729,68.43,558.506,42.286,557.7,34.5Z" fill="#a5afb7"/>
    <path id="Path_1194" data-name="Path 1194" d="M557.456,32.32s.1.813.241,2.181C558.287,33.315,558.346,32.477,557.456,32.32Z" fill="#acb18f"/>
    <path id="Path_1195" data-name="Path 1195" d="M507.171,42.167C510.943,44.472,527.688,56,528.849,56s2.837,1.467,4.722,0,15.714-11.1,19.276-15.085A35.209,35.209,0,0,0,557.7,34.5c-.142-1.368-.241-2.182-.241-2.182s-6.3-1.886-28.608,0c-19.465,1.646-24.8.425-26.1,5.1C502.747,37.417,503.4,39.862,507.171,42.167Z" fill="#b4bcc1"/>
  </g>
</svg>
