<svg xmlns="http://www.w3.org/2000/svg" xmlns:xlink="http://www.w3.org/1999/xlink" width="77.572" height="64.876" viewBox="0 0 77.572 64.876">
  <defs>
    <linearGradient id="linear-gradient" x1="-1.649" y1="0.5" x2="1.993" y2="0.5" gradientUnits="objectBoundingBox">
      <stop offset="0" stop-color="#493292"/>
      <stop offset="1" stop-color="#ee3478"/>
    </linearGradient>
    <linearGradient id="linear-gradient-2" x1="-7.107" y1="0.5" x2="2.173" y2="0.5" xlink:href="#linear-gradient"/>
    <linearGradient id="linear-gradient-3" x1="-0.417" y1="0.5" x2="2.896" y2="0.5" xlink:href="#linear-gradient"/>
    <linearGradient id="linear-gradient-4" x1="-1.023" y1="0.5" x2="1.363" y2="0.5" xlink:href="#linear-gradient"/>
    <linearGradient id="linear-gradient-5" x1="-7.742" y1="0.5" x2="12.013" y2="0.5" xlink:href="#linear-gradient"/>
    <linearGradient id="linear-gradient-6" x1="-6.981" y1="0.5" x2="0.93" y2="0.5" xlink:href="#linear-gradient"/>
    <linearGradient id="linear-gradient-7" x1="-7.965" y1="0.5" x2="0.89" y2="0.5" xlink:href="#linear-gradient"/>
    <linearGradient id="linear-gradient-8" x1="-8.343" y1="0.5" x2="1.958" y2="0.5" xlink:href="#linear-gradient"/>
    <linearGradient id="linear-gradient-9" x1="-2.458" y1="0.5" x2="1.426" y2="0.5" xlink:href="#linear-gradient"/>
    <linearGradient id="linear-gradient-10" x1="-2.573" y1="0.5" x2="1.342" y2="0.5" xlink:href="#linear-gradient"/>
    <linearGradient id="linear-gradient-11" x1="-6.93" y1="0.5" x2="0.651" y2="0.5" xlink:href="#linear-gradient"/>
    <linearGradient id="linear-gradient-12" x1="-0.116" y1="0.5" x2="5.365" y2="0.5" xlink:href="#linear-gradient"/>
    <linearGradient id="linear-gradient-13" x1="-3.243" y1="0.5" x2="2.996" y2="0.5" xlink:href="#linear-gradient"/>
    <linearGradient id="linear-gradient-14" x1="-3.64" y1="0.5" x2="4.089" y2="0.5" xlink:href="#linear-gradient"/>
    <linearGradient id="linear-gradient-15" x1="-0.03" y1="0.5" x2="2.83" y2="0.5" xlink:href="#linear-gradient"/>
    <linearGradient id="linear-gradient-16" x1="-0.832" y1="0.5" x2="3.008" y2="0.5" xlink:href="#linear-gradient"/>
    <linearGradient id="linear-gradient-17" x1="-1.901" y1="0.5" x2="1.851" y2="0.5" xlink:href="#linear-gradient"/>
  </defs>
  <g id="Group_93" data-name="Group 93" transform="translate(-1356.16 -581.477)">
    <path id="Path_624" data-name="Path 624" d="M1390.4,606.547l10.945,7.2,8.511-11.965-20.561-4.746Z" fill="url(#linear-gradient)"/>
    <path id="Path_625" data-name="Path 625" d="M1420.809,602.546l-1.132-11.615-6.937,9.753Z" fill="url(#linear-gradient-2)"/>
    <path id="Path_626" data-name="Path 626" d="M1387.409,595.708l-1.644-14.153-20.967,8.161,18.5,12.163Z" fill="url(#linear-gradient-3)"/>
    <path id="Path_627" data-name="Path 627" d="M1410.93,600.264l7.943-11.165-31.388-7.622,1.6,13.746Z" fill="url(#linear-gradient-4)"/>
    <path id="Path_628" data-name="Path 628" d="M1388.525,605.316l-.809-6.969-2.983,4.476Z" fill="url(#linear-gradient-5)"/>
    <path id="Path_629" data-name="Path 629" d="M1430.94,604.884l-9.467-13.218,1.1,11.288Z" fill="url(#linear-gradient-6)"/>
    <path id="Path_630" data-name="Path 630" d="M1431.209,606.709l-8.458-1.953.889,9.108Z" fill="url(#linear-gradient-7)"/>
    <path id="Path_631" data-name="Path 631" d="M1416.042,623.41l7.272,4.78-1.043-10.668Z" fill="url(#linear-gradient-8)"/>
    <path id="Path_632" data-name="Path 632" d="M1402.777,614.689l11.789,7.751,7.494-7.083-1.076-11.009-9.322-2.15Z" fill="url(#linear-gradient-9)"/>
    <path id="Path_633" data-name="Path 633" d="M1414.759,624.622l-10.155,9.6,7.249,6.242,11.883-4.474-.234-5.619Z" fill="url(#linear-gradient-10)"/>
    <path id="Path_634" data-name="Path 634" d="M1432.284,608.057l-8.433,7.971,1.2,12.332,8.677-5.983Z" fill="url(#linear-gradient-11)"/>
    <path id="Path_635" data-name="Path 635" d="M1360.986,616.19l9.641,1.487-13.667-14.306Z" fill="url(#linear-gradient-12)"/>
    <path id="Path_636" data-name="Path 636" d="M1394.313,630.565l9.161,15.788h2.844l-3.7-11.33Z" fill="url(#linear-gradient-13)"/>
    <path id="Path_637" data-name="Path 637" d="M1390.656,608.773l1.995,17.188,7.695-10.816Z" fill="url(#linear-gradient-14)"/>
    <path id="Path_638" data-name="Path 638" d="M1382.346,603.31l-19.2-12.629-6.981,9.366,16.71,17.492Z" fill="url(#linear-gradient-15)"/>
    <path id="Path_639" data-name="Path 639" d="M1383.782,604.253l-10.048,15.09-2.132,4.031,8.419,5.794,11.087-1.608-2.325-20.017Z" fill="url(#linear-gradient-16)"/>
    <path id="Path_640" data-name="Path 640" d="M1403.3,633.095l9.988-9.443-11.5-7.562-8.455,11.887Z" fill="url(#linear-gradient-17)"/>
  </g>
</svg>
