<svg xmlns="http://www.w3.org/2000/svg" xmlns:xlink="http://www.w3.org/1999/xlink" width="37.876" height="32.101" viewBox="0 0 37.876 32.101">
  <defs>
    <linearGradient id="linear-gradient" y1="0.499" x2="1" y2="0.499" gradientUnits="objectBoundingBox">
      <stop offset="0" stop-color="#bd1622"/>
      <stop offset="1" stop-color="#e20613"/>
    </linearGradient>
    <linearGradient id="linear-gradient-2" x1="0" y1="0.493" x2="1" y2="0.493" xlink:href="#linear-gradient"/>
    <linearGradient id="linear-gradient-3" x1="0" y1="0.5" x2="1" y2="0.5" xlink:href="#linear-gradient"/>
  </defs>
  <g id="Group_145" data-name="Group 145" transform="translate(-85.694 -329.342)">
    <g id="Group_142" data-name="Group 142">
      <path id="Path_606" data-name="Path 606" d="M109.98,332.241c.312-.047.319.214.3.5C109.876,332.852,109.784,332.433,109.98,332.241Z" fill-rule="evenodd" fill="url(#linear-gradient)"/>
      <path id="Path_607" data-name="Path 607" d="M108.281,348.53c-.409.291-.576.822-1.2.9a.944.944,0,0,1,1.2-.9Z" fill-rule="evenodd" fill="url(#linear-gradient-2)"/>
      <path id="Path_608" data-name="Path 608" d="M107.081,346.232c-.429,0-.334.531-.9.4.162-.321.087-.581-.4-.5-.073-.306.171-.294.1-.6-.139-.229-.7-.038-1-.1.653-.846.17-2.545-1.2-1.9-1.026,1.038.205,2.531,1,3-1.924.256-2.922-1.276-2.8-3.4-.917.843.211,2.612.5,2.9-2,.03-2.356-4.068-.5-4.5-1.089-.122-1.418,1.38-1.4,2.7-1.745-1.344-.723-5.235,2.1-4.3-.3-.89-1.8-.171-2.2.1-.054-1.77,1.782-2.237,3-1.4-.29-.476-.905-.626-1.7-.6.627-1.677,2.473-.082,3.3,0,.013-.778-1.017-.516-1.2-1.1,2.405-.217,2.882,2.3,3,4.7,1.392.316,3.062.068,3.1-1.3-.182-.552-.873-.035-1-.2.057-.454-.011-.844.1-1.7a.487.487,0,0,0-.5-.2c.151-.311.12-.614-.3-.6.114-1.242-.417-3.051.6-3.8.206-2.256-3.175-1.382-2.9-4,.2-.029.2-.272.4-.3.614-.15.6.327.9.5.349-.118.219-.712.7-.7a.947.947,0,0,0,.3.8c.61.045.522-.611.9-.8.774-.01.439,1.093.9,1.4a1.54,1.54,0,0,1,1.1,0,2.579,2.579,0,0,1,.3,1.1c.418.054.556-.175.9-.2a5.553,5.553,0,0,0-.9,1c.312.4.371.763.9,1.1.017.217-.354.044-.5.1.045.721.912.62.8,1.5-.335.328-.776.109-1.3.1,1.266,1.515,3.411,1.913,4,4.1.941,3.519-2.849,4.934-5.9,5.4-.215-.018-.045.354-.1.5a3.743,3.743,0,0,0-.7-.4c-.311.464.506.523.5,1a.741.741,0,0,0-.8.4,2.947,2.947,0,0,0,2.5,2.6,20.471,20.471,0,0,0,2.6-.4,53.85,53.85,0,0,0,7.594-1.1c.425-.125.269.333.5.4-.031-.405.04-.5.3-1,.607.16.978.555,1.8.5a7.557,7.557,0,0,0-1.8,1.1c-.2-.027-.2-.267-.3-.4-3.793.228-7.851.995-11.692,1.5.033.2-.021.313-.2.3.418.578.27,2.159-.5,2.2v2.6h-.7a25.153,25.153,0,0,1,.1-2.6c-.072-.263-.47-.2-.6-.4a7.537,7.537,0,0,1,.1-1.8c-2.814.135-6.828.754-9.993,1.2-.834,1.832-1.82,3.51-4.6,3.4.373-.892,1.152-1.38,1.5-2.3-.824.642-1.253,1.683-2,2.4-.848.12-1.793.139-2.6.3.459-.774,1.07-1.4,1.5-2.2-.668.332-1.246,1.619-1.9,2.3-1.068.03-1.94.259-3,.3.915-1.184,1.9-2.3,2.8-3.5-1.318-1.08-2.627-2.168-4-3.2a15.114,15.114,0,0,1,3-.3c1.2.228,1.738,1.74,2.8,2a22.04,22.04,0,0,0-2.2-2,10.785,10.785,0,0,1,2.8-.3c1.126.22,1.711,1.642,2.6,2-.168-.807-1.562-1.229-2-2.1,1.146.06,2.026-.424,2.9-.2,1.007.259,1.424,1.59,2.3,1.9v.9c3.035-.331,6.085-.643,8.994-1.1-.435-1.171.826-1.324,1.1-2.1-.01-.232-.439-.55-.6-.3C107.318,346.927,107.479,346.271,107.081,346.232Zm3.2-13.491c.02-.286.012-.547-.3-.5-.2.192-.1.611.3.5Zm-3.2,16.689c.624-.077.791-.608,1.2-.9a.944.944,0,0,0-1.2.9Z" fill-rule="evenodd" fill="url(#linear-gradient-3)"/>
      <path id="Path_609" data-name="Path 609" d="M107.381,347.032c.161-.25.59.068.6.3-.274.774-1.534.927-1.1,2.1-3.389.531-5.565.728-8.116,1.005,0-.3-.878-.506-.878-.805a4.213,4.213,0,0,0-2.3-1.9c-.873-.223-1.753.262-2.9.2.437.869,1.83,1.292,2,2.1-.886-.356-1.471-1.778-2.6-2a10.784,10.784,0,0,0-2.8.3,22.047,22.047,0,0,1,2.2,2c-1.062-.259-1.6-1.771-2.8-2a15.114,15.114,0,0,0-3,.3c1.37,1.03,2.679,2.118,4,3.2-.9,1.2-1.883,2.315-2.8,3.5,1.058-.041,1.929-.269,3-.3.653-.68,1.231-1.968,1.9-2.3-.429.8-1.04,1.426-1.5,2.2.8-.161,1.751-.18,2.6-.3.747-.716,1.176-1.756,2-2.4-.348.919-1.127,1.408-1.5,2.3,2.779.111,3.764-1.567,4.6-3.4,3.165-.444,7.178-1.063,9.993-1.2a7.537,7.537,0,0,0-.1,1.8c.129.2.527.138.6.4a25.154,25.154,0,0,0-.1,2.6h.7v-2.6c.77-.04.917-1.62.5-2.2.18.013.233-.1.2-.3,3.841-.505,7.9-1.273,11.692-1.5.1.133.1.373.3.4a3.082,3.082,0,0,1,1.8-1.1,5.335,5.335,0,0,1-1.972-.569c-.749.114.074.135-.2.544-.232-.067,0,0-.425.125a53.85,53.85,0,0,1-7.594,1.1,20.465,20.465,0,0,1-2.6.4,2.947,2.947,0,0,1-2.5-2.6.741.741,0,0,1,.8-.4c.006-.475-.812-.535-.5-1a3.743,3.743,0,0,1,.7.4c.054-.146-.116-.518.1-.5,3.048-.464,6.837-1.878,5.9-5.4-.585-2.184-2.73-2.582-4-4.1.522.01.963.228,1.3-.1.112-.879-.755-.777-.8-1.5.146-.057.517.116.5-.1-.527-.336-.587-.7-.9-1.1a5.553,5.553,0,0,1,.9-1c-.342.024-.48.252-.9.2a2.579,2.579,0,0,0-.3-1.1,1.54,1.54,0,0,0-1.1,0c-.46-.305-.126-1.408-.9-1.4-.377.188-.288.844-.9.8a.947.947,0,0,1-.3-.8c-.481-.014-.352.58-.7.7-.295-.172-.284-.649-.9-.5-.2.028-.2.271-.4.3-.279,2.615,3.1,1.741,2.9,4-1.014.746-.483,2.555-.6,3.8.419-.015.45.288.3.6a.487.487,0,0,1,.5.2c-.111.855-.043,1.244-.1,1.7.127.165.818-.351,1,.2-.037,1.368-1.707,1.616-3.1,1.3-.114-2.4-.59-4.914-3-4.7.181.583,1.211.32,1.2,1.1-.826-.082-2.672-1.677-3.3,0,.795-.027,1.41.123,1.7.6-1.216-.838-3.052-.37-3,1.4.4-.27,1.9-.989,2.2-.1-2.821-.937-3.843,2.954-2.1,4.3-.02-1.319.309-2.821,1.4-2.7-1.856.429-1.5,4.527.5,4.5-.29-.286-1.418-2.056-.5-2.9-.123,2.124.876,3.655,2.8,3.4-.795-.468-2.026-1.96-1-3,1.37-.646,1.853,1.052,1.2,1.9.3.062.86-.129,1,.1.072.305-.172.293-.1.6.486-.081.561.179.4.5.565.131.47-.4.9-.4C107.479,346.271,107.318,346.927,107.381,347.032Z" fill-rule="evenodd" fill="url(#linear-gradient-3)"/>
    </g>
    <path id="Path_610" data-name="Path 610" d="M112.016,357.556a3.166,3.166,0,1,1-3.168-3.167,3.166,3.166,0,0,1,3.168,3.167Z" fill="none" stroke="#bd1622" stroke-miterlimit="10" stroke-width="1.443" fill-rule="evenodd"/>
    <path id="Path_611" data-name="Path 611" d="M110.563,332.235a.28.28,0,1,1-.276-.235.259.259,0,0,1,.276.235Z" fill="#fff" fill-rule="evenodd"/>
  </g>
</svg>
