<svg xmlns="http://www.w3.org/2000/svg" width="116.278" height="147.032" viewBox="0 0 116.278 147.032">
  <g id="Group_2179" data-name="Group 2179" transform="translate(-1203.076 -528.962)">
    <path id="Path_9706" data-name="Path 9706" d="M1261.215,672.349c-27.682-19.2-55.139-42.688-55.139-51.349V553.9a25.811,25.811,0,0,0,21.938-21.938h66.4a25.811,25.811,0,0,0,21.938,21.938V621C1316.354,629.661,1288.9,653.144,1261.215,672.349Z" fill="#fff"/>
    <path id="Path_9707" data-name="Path 9707" d="M1291.928,534.962a28.832,28.832,0,0,0,21.426,21.426V621c0,.263-.285,6.673-25.071,27.129-10.6,8.75-21.471,16.605-27.069,20.552-5.6-3.946-16.468-11.8-27.068-20.551-24.785-20.456-25.07-26.867-25.07-27.129V556.389a28.832,28.832,0,0,0,21.426-21.426h61.425m5.244-6h-71.914a22.84,22.84,0,0,1-22.182,22.182V621c0,14.691,53.29,51.662,58.139,54.995,4.849-3.332,58.139-40.3,58.139-54.995V551.144A22.84,22.84,0,0,1,1297.172,528.962Z" fill="#1f1f1f"/>
  </g>
</svg>
