<svg xmlns="http://www.w3.org/2000/svg" width="94.508" height="93.522" viewBox="0 0 94.508 93.522">
  <g id="Group_88" data-name="Group 88" transform="translate(-527.873 -144.549)">
    <path id="Path_282" data-name="Path 282" d="M550.338,160.67a39.013,39.013,0,0,1-12.525-6.655,77.854,77.854,0,0,1-6.49-6.016l-2.77-2.77" fill="none" stroke="#6a83a6" stroke-miterlimit="10" stroke-width="1.923"/>
    <path id="Path_283" data-name="Path 283" d="M546.847,179.753a35.63,35.63,0,0,1-4.815-12.023,71.087,71.087,0,0,1-.982-8.021l-.3-3.565" fill="none" stroke="#6a83a6" stroke-miterlimit="10" stroke-width="1.923"/>
    <path id="Path_284" data-name="Path 284" d="M591.372,173.861c-4.966-4.9-10.057-9.88-16.345-12.895-5.854-2.807-18.09-5.5-24.085-1.648a4.956,4.956,0,0,0-.859.705c3.966-.071,7.455,2.284,9.739,4.345,1.321,1.191,2.539,2.516,3.717,3.8a49,49,0,0,0,4.22,4.231,48.931,48.931,0,0,0,7.539,4.944l14.74,8.417-.247.345-15.385-7.15a50.452,50.452,0,0,1-7.791-5.03,55.629,55.629,0,0,1-4.389-4.734c-1.162-1.265-2.411-2.438-3.7-3.6-2.289-2.065-5.183-4.956-9.135-4.565l-.007-.071c-2.859,5.261,6.762,15.563,10.133,18.607,6.446,5.822,14.3,9.815,22.044,13.74,12.791,6.479,26.623,13.146,40.818,11.124Z" fill="#6a83a6"/>
    <path id="Path_285" data-name="Path 285" d="M559.384,206.535c-.353-5.053-.3-10.084-1.6-14.722-1.334-4.267-4.914-12.047-9.725-14.052a3.269,3.269,0,0,0-2-.213c2.174,2.758,2.767,6.411,2.848,9.191.052,1.778-.064,3.574-.176,5.311a49.015,49.015,0,0,0-.141,5.974,48.947,48.947,0,0,0,1.637,8.866l4.1,16.47-.242.12L549.012,207.5c-.729-2.926-2.235-5.933-2.416-9.024-.119-2.039.71-4.467.838-6.46.111-1.714.565-3.521.515-5.254-.078-2.707-.651-6.279-2.83-8.861-3.871,2.123-6.052,11.525-5.992,14.972-.355,7.054,1.772,13.995,4.551,20.471,4.434,10.7,12.023,21.546,23.562,24.725A93.693,93.693,0,0,1,559.384,206.535Z" fill="#6a83a6"/>
  </g>
</svg>
