<svg xmlns="http://www.w3.org/2000/svg" width="52.606" height="26.679" viewBox="0 0 52.606 26.679">
  <g id="Group_340" data-name="Group 340" transform="translate(-598.767 -197.662)">
    <path id="Path_1351" data-name="Path 1351" d="M644.869,224.326a1.774,1.774,0,0,0,1.311-.355,2.106,2.106,0,0,0,.379-1.57c-.064-2.264-.009-4.519.084-6.771q1.976.1,3.954.031a42.168,42.168,0,0,1,.776-6.906,34.182,34.182,0,0,0-4.361-.814,86.1,86.1,0,0,0-.005-9.154c-15.019-.739-31.595-1.18-46.636-1.12,0,7.587-1.6,16.528-1.6,24.115C613.468,224.316,629.958,224.265,644.869,224.326Z" fill="#6d9dbf"/>
    <path id="Path_1352" data-name="Path 1352" d="M603.638,202.081a2.042,2.042,0,0,1,2.066-2l.414-.052c1.4-.182,3.506-.458,4.552.635a3.285,3.285,0,0,1,.51,2.514c-.031.468-.09.942-.143,1.36-.04.317-.076.6-.091.823l0,.085c-.032.777-.018,1.581,0,2.357a21.333,21.333,0,0,1-.316,4.884,12.891,12.891,0,0,0-.018,1.806c.021.939.044,2-.015,2.893a3.673,3.673,0,0,1-.391,1.708.794.794,0,0,1-.31.27,2.4,2.4,0,0,1-1.226.16l-4.226-.231a1.472,1.472,0,0,1-.91-.28,1.5,1.5,0,0,1-.392-1.268l.515-10.837c.045-.948.024-1.916,0-2.853-.014-.594-.027-1.183-.023-1.763C603.631,202.217,603.633,202.148,603.638,202.081Zm6.71,1.037c.082-1.229-.107-1.7-.28-1.882-.755-.788-2.687-.535-3.842-.385l-.423.054c-.955.113-1.342.52-1.338,1.387,0,.573.01,1.154.023,1.74.021.951.042,1.935,0,2.911l-.515,10.837c-.007.146-.023.491.1.59a.883.883,0,0,0,.418.085l4.226.231a1.753,1.753,0,0,0,.812-.076,3.245,3.245,0,0,0,.237-1.285c.057-.853.034-1.9.013-2.82a12.3,12.3,0,0,1,.04-2.014,20.479,20.479,0,0,0,.293-4.679c-.015-.789-.029-1.6,0-2.407l.006-.106c.016-.236.053-.536.095-.871.052-.4.109-.859.139-1.31Z" fill="#d4e6e6"/>
    <path id="Path_1353" data-name="Path 1353" d="M628.03,216.413a42.331,42.331,0,0,1,1.3-6.7,6.734,6.734,0,0,1,1.474.847c1.1.774,4.479,2.96,6.146,4.091,0,0,.316.3.383-.7s.3-4.515.3-4.515a.626.626,0,0,0-.439-.7A76.858,76.858,0,0,0,627,204.9s-.55-.149-.664,1.561a36.427,36.427,0,0,1-.329,4.946s-.064.39-.907-.164c-1.334-.876-7.552-5.779-7.552-5.779s-.87-.394-.082,1.227,2.8,3.241,4.13,5.116a25.144,25.144,0,0,0,5.833,5.186S627.975,217.25,628.03,216.413Z" fill="#e0c74e"/>
  </g>
</svg>
