<svg xmlns="http://www.w3.org/2000/svg" width="71.669" height="71.339" viewBox="0 0 71.669 71.339">
  <g id="Group_331" data-name="Group 331" transform="translate(-399.775 -95.504)">
    <g id="Group_328" data-name="Group 328">
      <path id="Path_1290" data-name="Path 1290" d="M449.634,150.38q1.33,1.294,2.686,2.559,1.08-.862,2.189-1.69l-3.822-3.418c-.615.587-1.254,1.148-1.9,1.7C449.066,149.813,449.346,150.1,449.634,150.38Z" fill="#6c99b9"/>
      <path id="Path_1291" data-name="Path 1291" d="M448.573,156.031l.061.055q1.565-1.425,3.214-2.763-1.073-1.008-2.131-2.033-.7-.684-1.39-1.381c-1.093.9-2.215,1.775-3.324,2.662C446.174,153.743,447.355,154.905,448.573,156.031Z" fill="#6c99b9"/>
      <path id="Path_1292" data-name="Path 1292" d="M448.176,156.473c-1.232-1.156-2.431-2.344-3.622-3.54-.85.687-1.689,1.386-2.495,2.121q1.968,1.786,3.946,3.56c.711-.727,1.447-1.43,2.193-2.122Z" fill="#6c99b9"/>
      <path id="Path_1293" data-name="Path 1293" d="M456.542,156.827q1.063-.927,2.133-1.845-1.8-1.614-3.643-3.264-1.116.831-2.2,1.7Q454.674,155.135,456.542,156.827Z" fill="#6c99b9"/>
      <path id="Path_1294" data-name="Path 1294" d="M453.1,159.887q1.483-1.345,2.991-2.664-1.879-1.7-3.734-3.426-1.643,1.331-3.2,2.752C450.436,157.7,451.758,158.807,453.1,159.887Z" fill="#6c99b9"/>
      <path id="Path_1295" data-name="Path 1295" d="M448.714,156.96c-.746.691-1.481,1.394-2.192,2.12q1.889,1.7,3.784,3.4c.772-.732,1.556-1.451,2.341-2.168C451.3,159.228,449.984,158.121,448.714,156.96Z" fill="#6c99b9"/>
      <path id="Path_1296" data-name="Path 1296" d="M458.467,158.564c1.018.915,2.119,1.791,3.183,2.705a10.7,10.7,0,0,0,1.508-2.243c-1.277-1.16-2.606-2.358-3.964-3.579q-1.071.919-2.135,1.846Z" fill="#6c99b9"/>
      <path id="Path_1297" data-name="Path 1297" d="M458.487,164.189a25.555,25.555,0,0,0,2.783-2.5c-1.237-1.072-2.535-2.086-3.7-3.135l-.96-.867q-1.492,1.307-2.961,2.636C455.26,161.614,456.888,162.884,458.487,164.189Z" fill="#6c99b9"/>
      <path id="Path_1298" data-name="Path 1298" d="M453.193,160.747c-.8.726-1.589,1.454-2.37,2.195q2.187,1.956,4.382,3.9c.886-.782,1.848-1.52,2.8-2.272C456.416,163.281,454.794,162.025,453.193,160.747Z" fill="#6c99b9"/>
      <path id="Path_1299" data-name="Path 1299" d="M448.294,149.039c.641-.54,1.27-1.093,1.875-1.671-1.334-1.193-2.656-2.379-3.947-3.54-.583.423-1.135.882-1.674,1.354C445.813,146.453,447.04,147.758,448.294,149.039Z" fill="#6c99b9"/>
      <path id="Path_1300" data-name="Path 1300" d="M440.67,149.031c-.808.852-1.618,1.7-2.463,2.515q1.666,1.523,3.338,3.039c.815-.742,1.663-1.449,2.522-2.142C442.936,151.3,441.809,150.161,440.67,149.031Z" fill="#6c99b9"/>
      <path id="Path_1301" data-name="Path 1301" d="M444.516,152.082c1.111-.888,2.235-1.761,3.329-2.666-1.174-1.2-2.33-2.413-3.509-3.611l-.23-.237c-1.057.964-2.049,2-3.037,3.041C442.225,149.76,443.367,150.924,444.516,152.082Z" fill="#6c99b9"/>
      <path id="Path_1302" data-name="Path 1302" d="M443.852,144.482c.07.069.138.14.208.209.528-.465,1.067-.917,1.637-1.336-1-.9-1.985-1.791-2.939-2.656q-.865.71-1.693,1.459a15.652,15.652,0,0,1,2.786,2.324Z" fill="#6c99b9"/>
      <path id="Path_1303" data-name="Path 1303" d="M440.58,148.124c.992-1.045,1.989-2.085,3.049-3.054a12.6,12.6,0,0,0-3.017-2.5q-1.484,1.369-2.847,2.853C438.722,146.305,439.656,147.21,440.58,148.124Z" fill="#6c99b9"/>
      <path id="Path_1304" data-name="Path 1304" d="M437.367,145.864c-.607.674-1.2,1.358-1.769,2.065a.873.873,0,0,0-.261.612,1.888,1.888,0,0,0,.719,1.038q.818.751,1.639,1.5c.852-.817,1.668-1.672,2.483-2.53C439.255,147.639,438.322,146.741,437.367,145.864Z" fill="#6c99b9"/>
    </g>
    <g id="Group_329" data-name="Group 329">
      <path id="Path_1305" data-name="Path 1305" d="M416.738,121.161q-1.428-1.185-2.831-2.4.742-1.166,1.447-2.357l3.806,3.436c-.518.674-1.008,1.369-1.483,2.075C417.362,121.665,417.047,121.417,416.738,121.161Z" fill="#6c99b9"/>
      <path id="Path_1306" data-name="Path 1306" d="M411.233,122.819l-.061-.055q1.25-1.708,2.4-3.49,1.117.96,2.249,1.9.755.626,1.521,1.234c-.781,1.183-1.528,2.392-2.292,3.589C413.763,124.96,412.482,123.91,411.233,122.819Z" fill="#6c99b9"/>
      <path id="Path_1307" data-name="Path 1307" d="M410.836,123.261c1.281,1.1,2.59,2.167,3.907,3.224-.592.919-1.2,1.827-1.843,2.707q-1.986-1.766-3.961-3.543c.646-.785,1.267-1.591,1.875-2.407Z" fill="#6c99b9"/>
      <path id="Path_1308" data-name="Path 1308" d="M409.591,114.98q.808-1.155,1.607-2.318,1.8,1.615,3.634,3.273-.707,1.2-1.452,2.371Q411.473,116.658,409.591,114.98Z" fill="#6c99b9"/>
      <path id="Path_1309" data-name="Path 1309" d="M406.915,118.728q1.179-1.619,2.33-3.258,1.89,1.687,3.8,3.347-1.148,1.776-2.395,3.479C409.372,121.145,408.133,119.948,406.915,118.728Z" fill="#6c99b9"/>
      <path id="Path_1310" data-name="Path 1310" d="M410.294,122.778c-.608.816-1.228,1.621-1.874,2.406q-1.893-1.7-3.781-3.4c.646-.845,1.277-1.7,1.906-2.559C407.763,120.445,409,121.638,410.294,122.778Z" fill="#6c99b9"/>
      <path id="Path_1311" data-name="Path 1311" d="M407.658,113.252c-1.019-.915-2.007-1.916-3.029-2.876a10.693,10.693,0,0,1,2.069-1.739c1.29,1.146,2.623,2.339,3.982,3.56q-.8,1.163-1.608,2.32Z" fill="#6c99b9"/>
      <path id="Path_1312" data-name="Path 1312" d="M402.063,113.832a25.56,25.56,0,0,1,2.186-3.034c1.2,1.116,2.345,2.3,3.513,3.345l.965.862q-1.14,1.623-2.305,3.226C404.968,116.766,403.531,115.283,402.063,113.832Z" fill="#6c99b9"/>
      <path id="Path_1313" data-name="Path 1313" d="M406.051,118.729c-.637.868-1.276,1.735-1.929,2.59q-2.178-1.965-4.346-3.941c.683-.964,1.314-2,1.96-3.028C403.188,115.795,404.609,117.273,406.051,118.729Z" fill="#6c99b9"/>
      <path id="Path_1314" data-name="Path 1314" d="M418.215,122.35c.469-.695.951-1.38,1.461-2.043,1.329,1.2,2.648,2.387,3.941,3.547-.359.625-.756,1.222-1.168,1.809C421.051,124.541,419.622,123.461,418.215,122.35Z" fill="#6c99b9"/>
      <path id="Path_1315" data-name="Path 1315" d="M419.036,129.93c-.762.894-1.521,1.79-2.238,2.717q-1.692-1.494-3.378-2.994c.651-.889,1.263-1.808,1.861-2.736C416.534,127.919,417.791,128.918,419.036,129.93Z" fill="#6c99b9"/>
      <path id="Path_1316" data-name="Path 1316" d="M415.592,126.431c.764-1.2,1.513-2.41,2.3-3.594,1.318,1.039,2.648,2.059,3.965,3.1l.26.2c-.846,1.154-1.77,2.251-2.7,3.344C418.145,128.462,416.866,127.45,415.592,126.431Z" fill="#6c99b9"/>
      <path id="Path_1317" data-name="Path 1317" d="M423.22,126.281c-.076-.063-.154-.123-.23-.185.406-.574.8-1.159,1.154-1.77,1,.9,1.992,1.783,2.955,2.638q-.614.936-1.27,1.839a15.657,15.657,0,0,0-2.608-2.522Z" fill="#6c99b9"/>
      <path id="Path_1318" data-name="Path 1318" d="M419.947,129.923c.933-1.1,1.861-2.2,2.711-3.358a12.6,12.6,0,0,1,2.807,2.733q-1.2,1.622-2.533,3.136C421.954,131.576,420.955,130.744,419.947,129.923Z" fill="#6c99b9"/>
      <path id="Path_1319" data-name="Path 1319" d="M422.537,132.876c-.605.675-1.222,1.339-1.865,1.979a.872.872,0,0,1-.581.325,1.888,1.888,0,0,1-1.109-.6q-.834-.733-1.664-1.47c.721-.934,1.485-1.837,2.251-2.738C420.571,131.189,421.564,132.02,422.537,132.876Z" fill="#6c99b9"/>
    </g>
    <path id="Path_1320" data-name="Path 1320" d="M427.389,151.924a6.015,6.015,0,0,1-3.9.254,9.739,9.739,0,0,1-4.745-2.391A6.685,6.685,0,0,1,416.614,145a5.113,5.113,0,0,1,2.58-4.431,120.639,120.639,0,0,1,10.273,9.444,5.89,5.89,0,0,1-2.078,1.909Z" fill="#6c99b9"/>
    <g id="Group_330" data-name="Group 330">
      <path id="Path_1321" data-name="Path 1321" d="M461.368,130.972c-2.127-1.995-3.875-4.216-6.038-6.218l-7.459-6.9c-4.669-4.32-8.6-9.059-14.011-12.544-.1-.065-2.276,7.672-2.4,8.412a39.206,39.206,0,0,0-.44,9.208c.077,1.086.791,3.133.517,4.128-.351,1.275-2.76,3.034-3.676,4.016l-7.653,8.217a106.33,106.33,0,0,0,9.778,9.422,1.674,1.674,0,0,0,.742.434,1.136,1.136,0,0,0,.973-.486q3.578-3.775,7.1-7.6c.78-.847,2.369-3.407,3.431-3.748.825-.265,2.944.66,4.01.737a50.778,50.778,0,0,0,10.091.065,17.032,17.032,0,0,0,9.2-3.805C465.294,134.525,463.408,132.885,461.368,130.972Z" fill="#6c99b9"/>
      <path id="Path_1322" data-name="Path 1322" d="M456.48,115.937c1.773-1.806.334-4.294-1.7-5.016a.986.986,0,0,0-.866.073,3.308,3.308,0,0,0-2.036.467c-1.474.986-1.642,3.206-.826,4.735-1.4,1.35-2.837,2.665-4.151,4.091-.835.906.5,1.987,1.379,1.239a21.279,21.279,0,0,0,3.672-4.261C453.452,118.369,455.3,117.142,456.48,115.937Z" fill="#6c99b9"/>
      <path id="Path_1323" data-name="Path 1323" d="M464.749,117.687c1.746-3.771-1.526-8.165-4.138-10.627-2.52-2.374-7.092-5.834-10.595-3.678a.433.433,0,0,0,.159.788.157.157,0,0,0,.3.09c1.571-2.489,7.311,2.113,8.543,3.087,2.609,2.061,5.832,6.178,4.582,9.764C463.33,117.869,464.389,118.464,464.749,117.687Z" fill="#6c99b9"/>
      <path id="Path_1324" data-name="Path 1324" d="M470.45,117.951c2.486-6.064.061-12.314-4.535-16.605-2.838-2.65-6.594-4.207-10.249-5.339-2.306-.714-4.937-.873-6.754.925-.165.163.069.416.257.3,4.666-2.829,12.344,2.142,15.819,5.144,4.163,3.6,6.2,9.66,3.991,14.839C468.563,118.188,470.048,118.931,470.45,117.951Z" fill="#6c99b9"/>
    </g>
  </g>
</svg>
