<svg xmlns="http://www.w3.org/2000/svg" width="183.014" height="133.849" viewBox="0 0 183.014 133.849">
  <g id="Group_2162" data-name="Group 2162" transform="translate(-1222.21 -28.488)">
    <path id="Path_9657" data-name="Path 9657" d="M1313.717,162.338c-8.9-6.689-17.161-9.807-25.971-9.807-6.413,0-12.394,1.6-18.726,3.286-6.86,1.831-13.954,3.724-22.2,3.724a20.932,20.932,0,0,1-20.908-20.909c0-5.721,1.365-10.123,2.685-14.38,2.624-8.464,4.9-15.785-6.383-28.839,11.278-13.053,9.007-20.375,6.383-28.839-1.32-4.257-2.685-8.659-2.685-14.38a20.932,20.932,0,0,1,20.908-20.909c8.249,0,15.342,1.893,22.2,3.724,6.332,1.69,12.313,3.286,18.727,3.286,8.811,0,17.075-3.119,25.971-9.807,8.9,6.689,17.162,9.808,25.971,9.807,6.413,0,12.394-1.6,18.726-3.286,6.861-1.831,13.955-3.724,22.2-3.724a20.932,20.932,0,0,1,20.908,20.909c0,5.721-1.365,10.123-2.684,14.38-2.624,8.464-4.9,15.785,6.382,28.839-11.277,13.054-9.006,20.375-6.382,28.839,1.319,4.257,2.684,8.659,2.684,14.38a20.932,20.932,0,0,1-20.908,20.908c-8.25,0-15.343-1.893-22.2-3.724-6.332-1.69-12.313-3.286-18.727-3.286C1330.878,152.53,1322.614,155.649,1313.717,162.338Z" fill="#1f1f1f"/>
    <path id="Path_9658" data-name="Path 9658" d="M1313.717,162.338c-8.9-6.689-17.161-9.807-25.971-9.807-6.413,0-12.394,1.6-18.726,3.286-6.86,1.831-13.954,3.724-22.2,3.724a20.932,20.932,0,0,1-20.908-20.909c0-5.721,1.365-10.123,2.685-14.38,2.624-8.464,4.9-15.785-6.383-28.839,11.278-13.053,9.007-20.375,6.383-28.839-1.32-4.257-2.685-8.659-2.685-14.38a20.932,20.932,0,0,1,20.908-20.909c8.249,0,15.342,1.893,22.2,3.724,6.332,1.69,12.313,3.286,18.727,3.286,8.811,0,17.075-3.119,25.971-9.807,8.9,6.689,17.162,9.808,25.971,9.807,6.413,0,12.394-1.6,18.726-3.286,6.861-1.831,13.955-3.724,22.2-3.724a20.932,20.932,0,0,1,20.908,20.909c0,5.721-1.365,10.123-2.684,14.38-2.624,8.464-4.9,15.785,6.382,28.839-11.277,13.054-9.006,20.375-6.382,28.839,1.319,4.257,2.684,8.659,2.684,14.38a20.932,20.932,0,0,1-20.908,20.908c-8.25,0-15.343-1.893-22.2-3.724-6.332-1.69-12.313-3.286-18.727-3.286C1330.878,152.53,1322.614,155.649,1313.717,162.338Z" fill="#1f1f1f"/>
    <path id="Path_9659" data-name="Path 9659" d="M1313.717,157.4l-.56-.38c-8.552-5.793-16.625-8.491-25.41-8.491-6.94,0-13.166,1.662-19.758,3.421-6.611,1.764-13.448,3.589-21.172,3.589a16.927,16.927,0,0,1-16.908-16.909c0-5.115,1.216-9.037,2.5-13.189,2.526-8.149,5.137-16.57-4.567-29.427l-.455-.6.455-.6c9.7-12.859,7.095-21.277,4.57-29.417-1.29-4.16-2.506-8.083-2.506-13.2a16.928,16.928,0,0,1,16.908-16.909c7.728,0,14.562,1.825,21.171,3.589,6.592,1.76,12.818,3.421,19.759,3.421,8.786,0,16.86-2.7,25.41-8.491l.56-.38.561.38c8.552,5.793,16.627,8.492,25.411,8.491,6.938,0,13.164-1.662,19.755-3.421,6.612-1.765,13.447-3.589,21.175-3.589a16.928,16.928,0,0,1,16.908,16.909c0,5.11-1.215,9.032-2.5,13.184-2.527,8.151-5.139,16.575,4.565,29.432l.455.6-.455.6c-9.705,12.859-7.095,21.277-4.57,29.417,1.289,4.159,2.506,8.087,2.506,13.2a16.927,16.927,0,0,1-16.908,16.909c-7.73,0-14.563-1.825-21.171-3.589s-12.822-3.421-19.759-3.421c-8.784,0-16.859,2.7-25.411,8.491Zm-25.971-10.871c9.01,0,17.279,2.691,25.971,8.458,8.692-5.768,16.963-8.458,25.972-8.458,7.2,0,13.548,1.694,20.271,3.488,6.488,1.732,13.192,3.522,20.659,3.522a14.925,14.925,0,0,0,14.908-14.909c0-4.809-1.174-8.6-2.416-12.607-2.635-8.494-5.356-17.274,4.436-30.612-9.791-13.336-7.067-22.122-4.433-30.622,1.241-4.008,2.413-7.789,2.413-12.6a14.925,14.925,0,0,0-14.908-14.909c-7.465,0-14.172,1.79-20.657,3.521-6.723,1.794-13.071,3.488-20.272,3.489-9.01,0-17.279-2.69-25.972-8.459-8.69,5.768-16.96,8.458-25.971,8.459-7.2,0-13.553-1.695-20.274-3.489-6.485-1.731-13.19-3.521-20.655-3.521a14.925,14.925,0,0,0-14.908,14.909c0,4.813,1.173,8.6,2.414,12.6,2.636,8.5,5.358,17.282-4.434,30.619,9.791,13.336,7.068,22.119,4.434,30.616-1.243,4.01-2.415,7.791-2.415,12.6a14.925,14.925,0,0,0,14.908,14.909c7.461,0,14.169-1.79,20.656-3.521C1274.194,148.225,1280.544,146.53,1287.746,146.53Z" fill="#fff"/>
  </g>
</svg>
