<svg xmlns="http://www.w3.org/2000/svg" xmlns:xlink="http://www.w3.org/1999/xlink" width="67.425" height="67.412" viewBox="0 0 67.425 67.412">
  <defs>
    <linearGradient id="linear-gradient" x1="-1.177" y1="5.316" x2="2.576" y2="-4.623" gradientUnits="objectBoundingBox">
      <stop offset="0" stop-color="#088f87"/>
      <stop offset="1" stop-color="#e4e53a"/>
    </linearGradient>
    <linearGradient id="linear-gradient-2" x1="-3.255" y1="6.792" x2="2.749" y2="-2.769" xlink:href="#linear-gradient"/>
    <linearGradient id="linear-gradient-3" x1="-0.928" y1="2.673" x2="1.877" y2="-1.358" xlink:href="#linear-gradient"/>
    <linearGradient id="linear-gradient-4" x1="-3.668" y1="4.195" x2="0.913" y2="-0.354" xlink:href="#linear-gradient"/>
    <linearGradient id="linear-gradient-5" x1="-2.716" y1="9.5" x2="1.138" y2="-0.687" xlink:href="#linear-gradient"/>
    <linearGradient id="linear-gradient-6" x1="-1.93" y1="3.819" x2="0.909" y2="-0.233" xlink:href="#linear-gradient"/>
    <linearGradient id="linear-gradient-7" x1="-5.302" y1="9.643" x2="0.89" y2="-0.145" xlink:href="#linear-gradient"/>
    <linearGradient id="linear-gradient-8" x1="-6.468" y1="7.393" x2="2.175" y2="-1.113" xlink:href="#linear-gradient"/>
    <linearGradient id="linear-gradient-9" x1="-2.881" y1="6.931" x2="2.022" y2="-1.922" xlink:href="#linear-gradient"/>
    <linearGradient id="linear-gradient-10" x1="-0.52" y1="2.307" x2="0.983" y2="-0.578" xlink:href="#linear-gradient"/>
    <linearGradient id="linear-gradient-11" x1="-0.294" y1="1.364" x2="1.257" y2="-0.731" xlink:href="#linear-gradient"/>
    <linearGradient id="linear-gradient-12" x1="0.29" y1="0.809" x2="1.825" y2="-1.281" xlink:href="#linear-gradient"/>
    <linearGradient id="linear-gradient-13" x1="-0.29" y1="0.924" x2="1.107" y2="0.006" xlink:href="#linear-gradient"/>
    <linearGradient id="linear-gradient-14" x1="-0.814" y1="2.743" x2="3.927" y2="-5.829" xlink:href="#linear-gradient"/>
    <linearGradient id="linear-gradient-15" x1="-0.008" y1="1.507" x2="1.481" y2="-1.378" xlink:href="#linear-gradient"/>
  </defs>
  <g id="Group_90" data-name="Group 90" transform="translate(-1217.845 -580.21)">
    <path id="Path_605" data-name="Path 605" d="M1223.272,595.57a33.823,33.823,0,0,0-3.149,6.139h11.1Z" fill="url(#linear-gradient)"/>
    <path id="Path_606" data-name="Path 606" d="M1234.874,584.622a33.8,33.8,0,0,0-5.571,3.985l6.94,2.4Z" fill="url(#linear-gradient-2)"/>
    <path id="Path_607" data-name="Path 607" d="M1236.753,593.377l-9.153-3.163a33.582,33.582,0,0,0-3.141,3.662l14.861,11.476Z" fill="url(#linear-gradient-3)"/>
    <path id="Path_608" data-name="Path 608" d="M1252.541,580.21v13.414l9.1-11.894a33.655,33.655,0,0,0-9.1-1.519Z" fill="url(#linear-gradient-4)"/>
    <path id="Path_609" data-name="Path 609" d="M1282.992,601.708a34.066,34.066,0,0,0-3.052-5.99l-7.761,5.99Z" fill="url(#linear-gradient-5)"/>
    <path id="Path_610" data-name="Path 610" d="M1278.761,594.018a33.961,33.961,0,0,0-3.171-3.728l-8.937,3.087-2.569,11.975Z" fill="url(#linear-gradient-6)"/>
    <path id="Path_611" data-name="Path 611" d="M1268.5,584.77,1267.162,591l6.73-2.325a33.925,33.925,0,0,0-5.393-3.908Z" fill="url(#linear-gradient-7)"/>
    <path id="Path_612" data-name="Path 612" d="M1250.445,580.215a34.2,34.2,0,0,0-4.821.5l4.821,6.671Z" fill="url(#linear-gradient-8)"/>
    <path id="Path_613" data-name="Path 613" d="M1285.172,611.322l-8.4,4.9,8.224,1.988a33.685,33.685,0,0,0,.274-4.307C1285.27,613.037,1285.236,612.177,1285.172,611.322Z" fill="url(#linear-gradient-9)"/>
    <path id="Path_614" data-name="Path 614" d="M1269.821,607.936l1.936.754-4.059,10.427,17.223-10.05a32.9,32.9,0,0,0-1.2-5.261h-14.23l-12.3,9.494.5,11.655,7.118-4.153Z" fill="url(#linear-gradient-10)"/>
    <path id="Path_615" data-name="Path 615" d="M1257.8,627.3l.845,19.57a33.815,33.815,0,0,0,26.022-26.6l-10.482-2.535Z" fill="url(#linear-gradient-11)"/>
    <path id="Path_616" data-name="Path 616" d="M1218.463,620.34a33.811,33.811,0,0,0,26.3,26.592l.848-19.632-16.385-9.563Z" fill="url(#linear-gradient-12)"/>
    <path id="Path_617" data-name="Path 617" d="M1253.992,615.768l-1.27-1.643,8.815-6.808,5.059-23.575c-.947-.474-1.912-.905-2.907-1.291l-11.149,14.592v10.227h-2.1v-3.48l-7.51-7.37,1.454-1.482,6.056,5.942v-9.944l-7.038-9.741a33.391,33.391,0,0,0-6.627,2.418l5.087,23.706,6.49,5-1.533,34.975a33.723,33.723,0,0,0,9.756-.042l-1.4-32.4Z" fill="url(#linear-gradient-13)"/>
    <path id="Path_618" data-name="Path 618" d="M1217.958,611.161q-.111,1.359-.113,2.747a33.889,33.889,0,0,0,.284,4.371l8.505-2.053Z" fill="url(#linear-gradient-14)"/>
    <path id="Path_619" data-name="Path 619" d="M1219.394,603.806a33.3,33.3,0,0,0-1.178,5.1l17.492,10.209-4.06-10.429,1.936-.753,5.006,12.864,7.12,4.153.5-11.654-12.3-9.494Z" fill="url(#linear-gradient-15)"/>
  </g>
</svg>
