<svg xmlns="http://www.w3.org/2000/svg" width="79.357" height="66.458" viewBox="0 0 79.357 66.458">
  <path id="Path_249" data-name="Path 249" d="M353.61,431a7.606,7.606,0,0,0,2.375,2.227c2.8,1.655,6.457,1.448,9.351,3.047,3.686,2.038,4.762,6.5,5.08,10.407s.2,8.053,2.158,11.451,7.048,5.349,9.849,2.6c2.945-2.887,1.176-8.344,3.776-11.545,2.329-2.866,7.076-2.335,10-.074s4.61,5.708,6.7,8.756,5.048,5.97,8.737,6.138c5.754.261,9.651-6.67,8.571-12.328s-5.374-10.072-9.467-14.124l-11.753-11.636c-1.512-1.5-3.155-3.413-2.653-5.481.491-2.024,2.969-3.039,5.005-2.605a10.469,10.469,0,0,1,5.112,3.419c2.951,3.111,5.528,6.664,9.085,9.06s8.542,3.371,12.063.925c3.737-2.6,4.368-8.181,2.486-12.323s-5.66-7.088-9.511-9.512a75.365,75.365,0,0,0-31.13-11.364c-11.414-1.321-24.2-.465-31.5,9.646-3.494,4.841-6.506,11.443-6.167,17.6A11.159,11.159,0,0,0,353.61,431Z" transform="translate(-351.747 -397.561)" fill="#decfb8"/>
</svg>
