<svg xmlns="http://www.w3.org/2000/svg" width="52.063" height="48.996" viewBox="0 0 52.063 48.996">
  <g id="Group_397" data-name="Group 397" transform="translate(-696.491 -105.21)">
    <path id="Path_1596" data-name="Path 1596" d="M696.623,127.551a24.486,24.486,0,0,0,10.791,22.566,26.329,26.329,0,0,0,25.138,1.661,28.486,28.486,0,0,0,15.5-20.071,23.8,23.8,0,0,0,.224-8.477,19.668,19.668,0,0,0-4.373-9.471,24.2,24.2,0,0,0-11.112-7.049,29.76,29.76,0,0,0-23.152,1.908,25.321,25.321,0,0,0-13.017,18.933Z" fill="#6d9dbf"/>
    <path id="Path_1597" data-name="Path 1597" d="M721.032,130.858c-8.041-.095-16.109-.284-24.147-.069a.407.407,0,0,0,0,.813c8.11.414,16.259.417,24.379.52.772,5.63,9.155,5.684,9.578-.363C731.272,125.618,721.071,125.469,721.032,130.858Zm8.381,1.921c-.963,4.192-6.868,2.412-6.949-1.348a.6.6,0,0,0-.188-.435c-.117-2.383,2.923-3.071,4.65-2.764,2.08.369,2.9,2.764,2.486,4.547Z" fill="#fff"/>
    <path id="Path_1598" data-name="Path 1598" d="M709.545,123.164c-4.07-.048-8.149-.116-12.225-.134-.062.359-.129.714-.209,1.065,4.213.086,8.429.116,12.637.17.673,4.906,7.977,4.953,8.346-.316C718.468,118.6,709.579,118.468,709.545,123.164Zm1.249.5a.522.522,0,0,0-.164-.379c-.1-2.076,2.547-2.676,4.052-2.409,1.813.321,2.524,2.408,2.167,3.962C716.008,128.492,710.864,126.941,710.793,123.664Z" fill="#fff"/>
    <path id="Path_1599" data-name="Path 1599" d="M718.292,146.04c-5.047-.059-10.111-.178-15.156-.043a.255.255,0,0,0,0,.51c5.09.26,10.205.262,15.3.326a3.02,3.02,0,0,0,6.012-.228C724.719,142.751,718.317,142.658,718.292,146.04Zm5.26,1.206c-.6,2.631-4.311,1.514-4.361-.846a.375.375,0,0,0-.118-.273c-.073-1.5,1.835-1.927,2.919-1.735a2.3,2.3,0,0,1,1.561,2.854Z" fill="#fff"/>
    <path id="Path_1600" data-name="Path 1600" d="M724.013,113.38a.548.548,0,0,0,.1.235,3.768,3.768,0,0,0,2.034,3.911,3.283,3.283,0,0,0,4.273-1.779,3.373,3.373,0,0,0-1.881-4.256C726.962,110.921,723.551,110.862,724.013,113.38Zm3.157-.888a2.546,2.546,0,0,1,1.666.7,2.126,2.126,0,0,1,.02,2.862,2.236,2.236,0,0,1-2.973.072,3.816,3.816,0,0,1-1.044-2.341.587.587,0,0,0,.45-.612c-.084-.934,1.376-.708,1.882-.679Z" fill="#fff"/>
    <path id="Path_1601" data-name="Path 1601" d="M732.889,141.356a.545.545,0,0,0,.1.235,3.768,3.768,0,0,0,2.034,3.911,3.283,3.283,0,0,0,4.273-1.779,3.373,3.373,0,0,0-1.881-4.256C735.839,138.9,732.428,138.838,732.889,141.356Zm3.157-.888a2.546,2.546,0,0,1,1.666.7,2.126,2.126,0,0,1,.02,2.862,2.236,2.236,0,0,1-2.973.072,3.816,3.816,0,0,1-1.045-2.341.587.587,0,0,0,.45-.612C734.081,140.214,735.54,140.439,736.047,140.468Z" fill="#fff"/>
    <path id="Path_1602" data-name="Path 1602" d="M699.762,118.351l-.065-1,10.091-.649,3.408-3.062.188,0c4.241-.05,7.882-.124,11.457-.234l.03,1c-3.528.108-7.12.183-11.287.232L710.2,117.68Z" fill="#fff"/>
    <path id="Path_1603" data-name="Path 1603" d="M724.328,141.181a3.635,3.635,0,0,1-1.112-.14,4,4,0,0,1-1.327-.814c-.289-.242-.574-.493-.859-.746a7.631,7.631,0,0,0-7.08-2.574l-16.544.628-.038-1,16.545-.628a8.57,8.57,0,0,1,7.78,2.825c.279.247.557.492.839.73a3.117,3.117,0,0,0,.987.626,3.474,3.474,0,0,0,1.08.09l9.481-.161.017,1-9.481.161Z" fill="#fff"/>
  </g>
</svg>
