<svg xmlns="http://www.w3.org/2000/svg" xmlns:xlink="http://www.w3.org/1999/xlink" width="15.889" height="31.498" viewBox="0 0 15.889 31.498">
  <defs>
    <linearGradient id="linear-gradient" y1="0.5" x2="1" y2="0.5" gradientUnits="objectBoundingBox">
      <stop offset="0" stop-color="#bd1622"/>
      <stop offset="1" stop-color="#e20613"/>
    </linearGradient>
    <linearGradient id="linear-gradient-2" x1="0" y1="0.5" x2="1" y2="0.5" xlink:href="#linear-gradient"/>
    <linearGradient id="linear-gradient-3" x1="0" y1="0.5" x2="1" y2="0.5" xlink:href="#linear-gradient"/>
  </defs>
  <g id="Group_112" data-name="Group 112" transform="translate(-338.447 -33.854)">
    <g id="Group_109" data-name="Group 109">
      <path id="Path_449" data-name="Path 449" d="M345.191,58.08l-.111,4.141,1.989.053.113-4.263c-.092-1.147,1.774-3.268,1.774-3.268a12.9,12.9,0,0,0,1.205-2.279l.214-3.47-1.06-14.558c-.691-1.224-.66-.138-.66-.138l.3,13.873c-.626.888-.838-.263-.838-.263l-.966-13.53c-.341-.793-.484.048-.484.048l.121,13.627c-.461,1.434-.846.037-.846.037l-.712-14c-.11-.425-.362-.01-.362-.01l-.125,13.741c-.712,1.91-.8-.143-.8-.143l-.643-13.4c-.227-.548-.542-.015-.542-.015L342.3,51.01c.18,2.3.646,2.85.646,2.85C345.542,56.16,345.191,58.08,345.191,58.08Z" fill="#3c4b54"/>
      <g id="Group_108" data-name="Group 108">
        <path id="Path_450" data-name="Path 450" d="M353.535,56.6s-3.224.9-3.472.972a10.835,10.835,0,0,0-2.71,1.818c-.345.534.013,2.812.013,2.812s4.715,3.355,5.6,3.139C352.964,65.342,355.625,62.54,353.535,56.6Z" fill="url(#linear-gradient)"/>
        <path id="Path_451" data-name="Path 451" d="M339.247,56.6s3.224.9,3.472.972a10.824,10.824,0,0,1,2.71,1.818c.345.534-.013,2.812-.013,2.812s-4.715,3.355-5.6,3.139C339.819,65.342,337.159,62.54,339.247,56.6Z" fill="url(#linear-gradient-2)"/>
        <rect id="Rectangle_91" data-name="Rectangle 91" width="3.547" height="3.055" transform="translate(344.598 59.408)" fill="url(#linear-gradient-3)"/>
      </g>
    </g>
  </g>
</svg>
