<svg xmlns="http://www.w3.org/2000/svg" xmlns:xlink="http://www.w3.org/1999/xlink" width="30.93" height="28.753" viewBox="0 0 30.93 28.753">
  <defs>
    <linearGradient id="linear-gradient" x1="11.039" y1="35.573" x2="10.944" y2="34.211" gradientUnits="objectBoundingBox">
      <stop offset="0" stop-color="#063"/>
      <stop offset="1" stop-color="#008d36"/>
    </linearGradient>
    <linearGradient id="linear-gradient-2" x1="11.039" y1="35.573" x2="10.944" y2="34.21" xlink:href="#linear-gradient"/>
  </defs>
  <g id="Group_257" data-name="Group 257" transform="translate(-28.846 -481.722)">
    <g id="Group_254" data-name="Group 254">
      <g id="Group_253" data-name="Group 253">
        <path id="Path_910" data-name="Path 910" d="M42.89,509.764c-.211.166-1.18.841-.69.688,2.383-1.574,4.789-3.356,7.233-4.994.554-.37,2.325-1.017,2.153-1.982-.155-.873-1.582-.552-2.411-.516-1.9.083-4.86.164-7.061.259-.537.023-1.333.333-1.636-.087,3.567-1.062,7.739-2.281,11.539-3.528.668-.221,3.258-.722,3.444-1.64.432-2.109-3.874-1.425-5.511-1.377-3.717.111-8.167.608-11.624.518,5.918-2.1,12.566-4.025,18.169-6.543,1.3-.584,3.434-1.168,3.273-2.842-.115-1.194-1.667-1.468-3.014-1.549a48.5,48.5,0,0,0-7.233.429c-4.785.431-8.9.926-14.036,1.379-2.013.178-6.172.091-6.544,1.377-.624,2.16,2.012,1.616,3.7,1.464,7.217-.65,14.992-1.547,21.786-1.982a23.49,23.49,0,0,1-5.856,2.5c-5.111,1.7-10.678,3.721-15.844,5.423-1.008.331-2.768.614-2.928,1.378-.438,2.094,4.007,1.105,5.08,1.035,5.826-.384,11.547-.778,16.878-1.035a15.287,15.287,0,0,1-3.961,1.377c-2.723.824-5.477,1.742-8.095,2.583-.991.321-3.788.707-3.532,1.9.194.884,2.535.5,3.274.429,4.1-.357,7.537-.625,11.28-.773C48.409,505.719,45.373,507.8,42.89,509.764Z" fill-rule="evenodd" fill="url(#linear-gradient)"/>
        <path id="Path_911" data-name="Path 911" d="M50.725,503.65c-3.743.147-7.176.416-11.28.773-.739.066-3.08.456-3.274-.429-.257-1.188,2.541-1.574,3.532-1.9,2.618-.841,5.372-1.759,8.095-2.583a15.288,15.288,0,0,0,3.961-1.377c-5.331.257-11.052.652-16.878,1.035-1.073.07-5.518,1.058-5.08-1.035.16-.763,1.92-1.047,2.928-1.378,5.166-1.7,10.732-3.72,15.844-5.423a23.488,23.488,0,0,0,5.855-2.5c-6.794.435-14.569,1.332-21.786,1.982-1.69.151-4.326.7-3.7-1.464.372-1.287,4.531-1.2,6.544-1.377,5.14-.453,9.251-.948,14.036-1.379a48.491,48.491,0,0,1,7.233-.429c1.347.081,2.9.355,3.014,1.549.161,1.674-1.969,2.258-3.273,2.842-5.6,2.519-12.251,4.442-18.169,6.543,3.458.091,7.908-.406,11.624-.518,1.636-.047,5.943-.731,5.511,1.377-.185.918-2.776,1.419-3.444,1.64-3.8,1.247-7.972,2.466-11.539,3.528.3.419,1.1.11,1.636.087,2.2-.094,5.166-.176,7.061-.259.829-.036,2.256-.357,2.411.516.172.966-1.6,1.612-2.153,1.982-2.444,1.638-4.85,3.42-7.233,4.994-.49.153.478-.521.69-.688C45.373,507.8,48.409,505.719,50.725,503.65Z" fill-rule="evenodd" fill="url(#linear-gradient-2)"/>
      </g>
      <path id="Path_912" data-name="Path 912" d="M42.623,482.929a1.215,1.215,0,0,1,1.222-1.207h0a1.215,1.215,0,0,1,1.222,1.207v4.794a1.218,1.218,0,0,1-1.222,1.211h0a1.218,1.218,0,0,1-1.222-1.211Z" fill="#063" fill-rule="evenodd"/>
    </g>
  </g>
</svg>
