<svg xmlns="http://www.w3.org/2000/svg" width="68.78" height="77.076" viewBox="0 0 68.78 77.076">
  <g id="Group_125" data-name="Group 125" transform="translate(-213.669 -812.552)">
    <path id="Path_703" data-name="Path 703" d="M282.449,857.362c0-3.678-9.417-2-10.126-1.846-2.3-5.018-7.935-9.631-14.9-11.766l-3.123,5.674c6.41,2,11.813,6.768,11.654,9.578H230.161c-.158-2.809,5.239-7.572,11.642-9.574l-3.122-5.674c-6.958,2.137-12.593,6.748-14.887,11.762-.71-.156-10.126-1.832-10.126,1.846s5.414,3.764,6.411,3.918c-.25.771-.461,1.56-.635,2.35q-2.289,10.433,4.1,23.291,1.276,2.566,3.134,2.707h2.044a3.027,3.027,0,0,0,2.1-.883,4.228,4.228,0,0,0,.925-2.891v-2.641h32.635v2.641a4.223,4.223,0,0,0,.926,2.891,3.023,3.023,0,0,0,2.1.883h2.043q1.854-.141,3.134-2.707,6.393-12.861,4.1-23.291c-.174-.789-.385-1.578-.635-2.35C277.035,861.126,282.449,861.04,282.449,857.362Zm-51.835,18.586a4.94,4.94,0,1,1,4.94-4.94,4.94,4.94,0,0,1-4.94,4.94Zm27.073-.914a1.337,1.337,0,0,1-1.02.455H239.451a1.408,1.408,0,0,1-1.391-1.43,1.321,1.321,0,0,1,.371-.981,1.4,1.4,0,0,1,1.02-.422h17.216a1.406,1.406,0,0,1,1.02.422,1.475,1.475,0,0,1,0,1.955Zm0-6.035a1.4,1.4,0,0,1-1.02.416H239.451a1.4,1.4,0,0,1-1.02-.416,1.336,1.336,0,0,1-.371-.98,1.72,1.72,0,0,1,.418-1.111,1.3,1.3,0,0,1,.972-.373h17.217a1.311,1.311,0,0,1,.972.371,1.723,1.723,0,0,1,.418,1.113A1.336,1.336,0,0,1,257.686,869Zm7.818,6.949a4.94,4.94,0,1,1,4.94-4.94,4.94,4.94,0,0,1-4.94,4.94Z" fill="#3963ae"/>
    <g id="Group_124" data-name="Group 124">
      <path id="Path_704" data-name="Path 704" d="M271.283,824.142a11.439,11.439,0,0,0-1.518-2.9,16.98,16.98,0,0,0-5.258-4.633,27.945,27.945,0,0,0-7.462-2.982,38.128,38.128,0,0,0-17.973,0,27.941,27.941,0,0,0-7.462,2.982,17,17,0,0,0-5.258,4.633,11.468,11.468,0,0,0-1.518,2.9,9.8,9.8,0,0,0-.545,3.211,10.123,10.123,0,0,0,1.43,5.131,14.664,14.664,0,0,0,3.748,4.162,23.143,23.143,0,0,0,5.431,3.074,31.571,31.571,0,0,0,5.832,1.729l7.329,13.318,7.331-13.318a31.647,31.647,0,0,0,5.832-1.729,23.164,23.164,0,0,0,5.43-3.074,14.671,14.671,0,0,0,3.749-4.162,10.13,10.13,0,0,0,1.431-5.131A9.787,9.787,0,0,0,271.283,824.142Zm-6.86,9.637a24.1,24.1,0,0,1-10.52,4.254l-.86.149-4.985,9.057-4.984-9.057-.861-.148a24.106,24.106,0,0,1-10.519-4.254c-1.722-1.338-3.775-3.537-3.775-6.426,0-2.8,1.967-5.508,5.54-7.619a31.779,31.779,0,0,1,29.2,0c3.573,2.111,5.54,4.818,5.54,7.619,0,2.889-2.053,5.087-3.776,6.426Z" fill="#ee2a57"/>
      <g id="Group_123" data-name="Group 123">
        <path id="Path_705" data-name="Path 705" d="M242.182,827.368a3.267,3.267,0,1,1-3.267-3.268A3.267,3.267,0,0,1,242.182,827.368Z" fill="#b2b3b3"/>
        <path id="Path_706" data-name="Path 706" d="M251.223,827.368a3.267,3.267,0,1,1-3.267-3.268,3.267,3.267,0,0,1,3.267,3.268Z" fill="#b2b3b3"/>
        <path id="Path_707" data-name="Path 707" d="M260.47,827.368A3.266,3.266,0,1,1,257.2,824.1a3.266,3.266,0,0,1,3.267,3.268Z" fill="#b2b3b3"/>
      </g>
    </g>
  </g>
</svg>
