<svg xmlns="http://www.w3.org/2000/svg" width="20.642" height="29.167" viewBox="0 0 20.642 29.167">
  <g id="Group_281" data-name="Group 281" transform="translate(-275.383 -478.7)">
    <g id="Group_280" data-name="Group 280">
      <g id="Group_273" data-name="Group 273">
        <path id="Path_968" data-name="Path 968" d="M284.76,496.957h-4.591l-.314-8a8.054,8.054,0,0,1-.937-1.629c-.637-.52-2.944-2.6-3.009-5.508l-.027-1.224.821.913a.525.525,0,0,0,.288.157c.058,0,.124-.047.2-.138l.373-.467.35.484a10.8,10.8,0,0,0,1.728,1.933l-.008-.2.369.323a.833.833,0,0,1,.436.386l3.86,3.392,2.185.126.708,5.028-.834-.535c-.116-.074-.3-.174-.535-.3a3.625,3.625,0,0,1-1.162-1.047Zm-3.715-.911h2.789l-.126-7.977-3.079-2.708.043,1.109-.948-1.9c-.023-.044-.041-.077-.057-.1-.658-.136-1.571-1.181-2.207-2.01a1.055,1.055,0,0,1-.471.113c-.03,0-.06,0-.09-.006a7.656,7.656,0,0,0,2.716,4.144l.284.21-.082.206a10.106,10.106,0,0,0,.865,1.421l.073.109Zm3.005-7.773.493.643c.124.162.246.34.377.531a5.522,5.522,0,0,0,1.1,1.3l-.336-2.381Z" fill="#3c3c3b"/>
        <path id="Path_969" data-name="Path 969" d="M286.734,492.256h0a.892.892,0,0,1-.208-.025l-.307-.068-.208-1.472.835.535c.147.092.489.314.381.682a.492.492,0,0,1-.493.348Zm-.01-.911a.426.426,0,0,0-.36.274.438.438,0,0,0,.012.342l.225-.35.067-.011Z" fill="#3c3c3b"/>
      </g>
      <path id="Path_970" data-name="Path 970" d="M281.091,484.361a2.375,2.375,0,1,1,2.374-2.375,2.375,2.375,0,0,1-2.374,2.375Zm0-3.838a1.463,1.463,0,1,0,1.464,1.462,1.463,1.463,0,0,0-1.464-1.462Z" fill="#3c3c3b"/>
      <path id="Path_971" data-name="Path 971" d="M281.687,502.1a11.375,11.375,0,0,1,2.164-.461l.812-.559-.318,3.142s.283.178.268.329a.843.843,0,0,1-.225.355s.582,1.345,1.124,1.589.149.011.149.011,1.024.708-.345.419l-1.385-.115s-.75-.816-.692.1l-.747-.078s-.1-.841-.53-1.111c0,0-.19-.359.46-.446,0,0-.381-.338-.114-.351,0,0-.217-.474.041-.41a.309.309,0,0,0,.337-.344S281.778,503.812,281.687,502.1Z" fill="#1d1d1b"/>
      <path id="Path_972" data-name="Path 972" d="M284.767,502.51c0,.378-.507.686-1.134.686h-.813c-.626,0-1.134-.308-1.134-.686v-6.436c0-.378.507-.688,1.134-.688h.813c.626,0,1.134.31,1.134.688Z" fill="#1d1d1b"/>
      <path id="Path_973" data-name="Path 973" d="M278.471,501.5a11.429,11.429,0,0,1,2.191.291l.954-.255-1.356,2.853s.207.266.142.4-.331.259-.331.259.1,1.463.525,1.873.136.066.136.066.727,1.009-.465.278L279,506.691s-.431-1.021-.682-.144l-.679-.321a1.816,1.816,0,0,0-.126-1.226s-.059-.4.584-.263c0,0-.245-.45.009-.372,0,0-.044-.518.177-.372a.306.306,0,0,0,.434-.21S277.982,503.143,278.471,501.5Z" fill="#1d1d1b"/>
      <path id="Path_974" data-name="Path 974" d="M281.235,502.922c-.127.355-.709.476-1.3.264l-.766-.274c-.589-.211-.965-.671-.838-1.028l2.164-6.06c.129-.359.709-.476,1.3-.266l.765.272c.59.214.966.671.838,1.03Z" fill="#1d1d1b"/>
      <path id="Path_975" data-name="Path 975" d="M289.323,495.683l-.821-.4.411.2-.411-.2a7.69,7.69,0,0,0,.444-3.7l-.022-.219.16-.151c.091-.087,2.211-2.2,1.4-6.345l.895-.176a8.056,8.056,0,0,1-1.5,7.01,8.334,8.334,0,0,1-.548,3.974Z" fill="#3c3c3b"/>
      <path id="Path_976" data-name="Path 976" d="M286.811,495.627a67.81,67.81,0,0,1-1.225-7.214c-2.365-.023-4.062-2.477-4.137-2.587l.753-.512c.017.021,1.682,2.422,3.724,2.167l.451-.055.058.45a74.375,74.375,0,0,0,1.23,7.43Z" fill="#3c3c3b"/>
      <path id="Path_977" data-name="Path 977" d="M288.4,486.892h0a4.913,4.913,0,0,1-2.8-1.092l-.84-.7h1.095a7.62,7.62,0,0,0,3.874-1.572l.279-.219,1.415,1.415-.148.264A3.24,3.24,0,0,1,288.4,486.892Zm-1.385-1.143a3.344,3.344,0,0,0,1.385.342h0a2.376,2.376,0,0,0,2.021-1.241l-.487-.488a9.227,9.227,0,0,1-2.919,1.386Z" fill="#3c3c3b"/>
      <path id="Path_978" data-name="Path 978" d="M287.879,485.023a1.5,1.5,0,0,1-.661-.149c-1.122-.542-1.155-2.3-1.155-2.5h.912c0,.355.121,1.427.642,1.678.374.179,1.028-.074,1.836-.718l.569.712a3.675,3.675,0,0,1-2.141.975Z" fill="#3c3c3b"/>
      <g id="Group_274" data-name="Group 274">
        <path id="Path_979" data-name="Path 979" d="M286.592,481.76s-.146-1.693,2.194-1.693l4.242,3.133s-.8,1.432-2.122,1.1l-4.315-2.09Z" fill="#e20613"/>
        <path id="Path_980" data-name="Path 980" d="M291.3,484.8a2.134,2.134,0,0,1-.508-.064l-.044-.011-4.617-2.233,0-.718a1.98,1.98,0,0,1,.513-1.4,2.774,2.774,0,0,1,2.137-.763h.15l4.686,3.46-.2.351A2.717,2.717,0,0,1,291.3,484.8Zm-.243-.941a.994.994,0,0,0,.243.028,1.514,1.514,0,0,0,1.089-.593l-3.752-2.772a1.841,1.841,0,0,0-1.31.455,1.081,1.081,0,0,0-.282.748v.2Z" fill="#3c3c3b"/>
      </g>
      <path id="Path_981" data-name="Path 981" d="M289.212,502.4a12.263,12.263,0,0,0-2.281-.488l-.857-.591.335,3.316s-.3.189-.283.348a.89.89,0,0,0,.237.374s-.614,1.417-1.186,1.674-.158.017-.158.017-1.08.748.364.44l1.462-.123s.79-.862.728.1l.789-.079s.11-.888.558-1.173c0,0,.2-.378-.486-.469,0,0,.4-.359.122-.37,0,0,.228-.5-.043-.435a.324.324,0,0,1-.355-.363S289.117,504.2,289.212,502.4Z" fill="#1d1d1b"/>
      <path id="Path_982" data-name="Path 982" d="M291.929,501.025a12.186,12.186,0,0,0-1.957,1.268l-1.023.189,2.58,2.107s-.078.346.046.448a.869.869,0,0,0,.432.094,4.317,4.317,0,0,1,.347,2.022c-.223.586-.1.123-.1.123s-.235,1.294.571.055l.945-1.118s-.051-1.17.585-.446l.5-.612s-.55-.7-.433-1.226c0,0-.126-.408-.675.013,0,0,.029-.539-.177-.348,0,0-.194-.518-.338-.276a.324.324,0,0,1-.507-.006S293.136,502.366,291.929,501.025Z" fill="#1d1d1b"/>
      <path id="Path_983" data-name="Path 983" d="M283.789,503.576s.251.026.678.057c2.109.161,9.745.043,11.558-1.965,0,0-2.355-6.428-4.729-7.652a6.345,6.345,0,0,0-4.2-.746s-3.957,9.228-3.058,10.334" fill="#3c3c3b"/>
      <g id="Group_275" data-name="Group 275">
        <path id="Path_984" data-name="Path 984" d="M286.922,493.688a2.645,2.645,0,0,0,1.341,0s-3.162,9.978-3.157,9.978-2.752.622-.667-3.254c.19-.351,2.483-6.454,2.483-6.454" fill="#fff"/>
        <path id="Path_985" data-name="Path 985" d="M284.73,503.993a1.421,1.421,0,0,1-1-.353c-.6-.578-.446-1.678.46-3.361.134-.249,1.549-3.976,2.468-6.421l.2.074.146-.518-.076.274.076-.274a2.414,2.414,0,0,0,1.176,0l.53-.178-.17.533c-.993,3.138-2.819,8.905-3.114,9.842l.1.138-.269.159a1.4,1.4,0,0,1-.52.081Zm2.32-9.986.139.051c-.236.627-2.306,6.131-2.5,6.49-.941,1.75-.792,2.4-.617,2.626a.928.928,0,0,0,.815.234c.021-.068.048-.153.081-.261l.357-1.13c.295-.935.691-2.18,1.085-3.428.586-1.854,1.172-3.705,1.437-4.537a3.278,3.278,0,0,1-.8-.047Z" fill="#3c3c3b"/>
      </g>
      <path id="Path_986" data-name="Path 986" d="M279.106,480.8l-.6.278s5.37.708,5.92.435c0,0,.358-.113-.026-.208,0,0-1.032.522-1.812-2.111,0,0-.1-.431-1-.183,0,0-1.844-.618-2.039-.106a2.274,2.274,0,0,0-.449,1.895Z" fill="#1d1d1b"/>
      <rect id="Rectangle_277" data-name="Rectangle 277" width="0.914" height="3.595" transform="translate(282.241 485.236) rotate(-78.634)" fill="#3c3c3b"/>
      <g id="Group_276" data-name="Group 276">
        <path id="Path_987" data-name="Path 987" d="M277.647,480.3a1.124,1.124,0,0,1-.468,1.477c-.475.159-1.037-.251-1.255-.912a1.129,1.129,0,0,1,.467-1.48C276.868,479.226,277.43,479.638,277.647,480.3Z" fill="#fff"/>
        <path id="Path_988" data-name="Path 988" d="M276.97,482.266a1.691,1.691,0,0,1-1.479-1.26,1.981,1.981,0,0,1-.027-1.207,1.264,1.264,0,0,1,.786-.848,1.174,1.174,0,0,1,.351-.057,1.691,1.691,0,0,1,1.478,1.26,1.553,1.553,0,0,1-.758,2.056,1.107,1.107,0,0,1-.352.057Zm-.368-2.46a.265.265,0,0,0-.067.009.385.385,0,0,0-.2.257,1.093,1.093,0,0,0,.025.65c.146.442.479.688.68.624s.32-.471.177-.905c-.13-.4-.414-.635-.613-.635Z" fill="#3c3c3b"/>
      </g>
      <g id="Group_277" data-name="Group 277">
        <path id="Path_989" data-name="Path 989" d="M281.892,483.536c.622.315.942.93.716,1.377a1.127,1.127,0,0,1-1.533.242c-.622-.314-.942-.931-.716-1.375a1.127,1.127,0,0,1,1.533-.244Z" fill="#fff"/>
        <path id="Path_990" data-name="Path 990" d="M281.794,485.792a2.049,2.049,0,0,1-.925-.23,2,2,0,0,1-.875-.835,1.258,1.258,0,0,1-.043-1.155,1.313,1.313,0,0,1,1.221-.671,2.033,2.033,0,0,1,.926.23,1.551,1.551,0,0,1,.916,1.988,1.316,1.316,0,0,1-1.221.672Zm-.622-1.978a.443.443,0,0,0-.406.17.369.369,0,0,0,.037.321,1.1,1.1,0,0,0,.477.444,1.135,1.135,0,0,0,.514.13.448.448,0,0,0,.407-.17c.1-.191-.1-.559-.515-.765a1.133,1.133,0,0,0-.514-.131Z" fill="#3c3c3b"/>
      </g>
      <g id="Group_278" data-name="Group 278">
        <path id="Path_991" data-name="Path 991" d="M289.361,491.823c.685.113,1.176.6,1.095,1.1s-.7.8-1.39.69-1.178-.6-1.1-1.1S288.673,491.71,289.361,491.823Z" fill="#fff"/>
        <path id="Path_992" data-name="Path 992" d="M289.347,494.092a2.263,2.263,0,0,1-.355-.03,1.554,1.554,0,0,1-1.473-1.621,1.463,1.463,0,0,1,1.559-1.1,2.253,2.253,0,0,1,.355.028A1.551,1.551,0,0,1,290.9,493a1.465,1.465,0,0,1-1.558,1.1Zm-.269-1.837c-.379,0-.633.168-.658.333-.035.208.265.5.72.574a1.119,1.119,0,0,0,.208.017c.378,0,.632-.17.659-.331.034-.21-.266-.5-.72-.576a1.555,1.555,0,0,0-.208-.016Z" fill="#3c3c3b"/>
      </g>
      <path id="Path_993" data-name="Path 993" d="M284.767,493.1a15.09,15.09,0,0,1-2.367.531,8.886,8.886,0,0,1-2.365-1.2l.126,4.329h4.606Z" fill="#1d1d1b"/>
      <g id="Group_279" data-name="Group 279">
        <path id="Path_994" data-name="Path 994" d="M291.529,483.318a1.957,1.957,0,0,0-.089,1.956c.27.478.766.369,1.218.325,1.046-.094.577,1.293.559,1.808a2.729,2.729,0,0,0,.68,1.927c.087.094.5-.063.413-.159a2.62,2.62,0,0,1-.639-1.993c.046-.421.29-1.026,0-1.415a1.074,1.074,0,0,0-1.145-.336c-1.214.159-.86-1.586-.56-2.182.047-.091-.376-.051-.436.07Z" fill="#e20613"/>
        <path id="Path_995" data-name="Path 995" d="M291.645,483.332c.026.822.584,1.718,1.483,1.257.311-.159.545-.28.76.087a4.373,4.373,0,0,1,.252.682,1.969,1.969,0,0,0,1.139,1.051c.108.04.505-.13.358-.184a1.978,1.978,0,0,1-1.175-1.324c-.1-.308-.269-.722-.656-.735a1.279,1.279,0,0,0-.811.253c-.616.423-.9-.8-.912-1.2,0-.1-.444-.023-.44.117Z" fill="#e20613"/>
      </g>
    </g>
  </g>
</svg>
