<svg xmlns="http://www.w3.org/2000/svg" width="25.881" height="24.254" viewBox="0 0 25.881 24.254">
  <g id="Group_148" data-name="Group 148" transform="translate(-152.014 -331.749)">
    <path id="Path_622" data-name="Path 622" d="M154.669,331.75h20.57a2.656,2.656,0,0,1,2.656,2.656v18.944A2.654,2.654,0,0,1,175.241,356H154.669a2.655,2.655,0,0,1-2.655-2.655V334.4a2.655,2.655,0,0,1,2.655-2.655Z" fill="#575756"/>
    <rect id="Rectangle_93" data-name="Rectangle 93" width="12.696" height="12.694" rx="0.862" transform="translate(158.606 338.244)" fill="#35a8e0" stroke="#fff" stroke-width="1.747"/>
    <path id="Path_623" data-name="Path 623" d="M168.6,344.674l-7.059-4.109-.229-.159.126,8.371Z" fill="#fff"/>
    <path id="Path_624" data-name="Path 624" d="M171.42,343.758a.965.965,0,0,1-1.057.833H159.547a.967.967,0,0,1-1.059-.833v-5.066a.966.966,0,0,1,1.059-.832h10.816a.963.963,0,0,1,1.057.832Z" fill="#fff" opacity="0.21"/>
    <path id="Path_625" data-name="Path 625" d="M177.869,341.523a2.449,2.449,0,0,1-2.536,2.353H154.575a2.45,2.45,0,0,1-2.536-2.353V334.1a2.45,2.45,0,0,1,2.536-2.353h20.758a2.449,2.449,0,0,1,2.536,2.353Z" fill="#fff" opacity="0.31"/>
  </g>
</svg>
